<svg width="15" height="19" viewBox="0 0 15 19" fill="none" xmlns="http://www.w3.org/2000/svg">
<path d="M2.97485e-06 1.53705V17.4608C2.97485e-06 18.6751 1.28632 19.4128 2.27693 18.7519L14.3121 10.79C14.5228 10.6514 14.6964 10.4596 14.8167 10.2326C14.9369 10.0055 15 9.75046 15 9.49124C15 9.23201 14.9369 8.977 14.8167 8.74992C14.6964 8.52283 14.5228 8.33106 14.3121 8.19244L2.27693 0.245933C2.05393 0.0959857 1.79612 0.0113907 1.53072 0.00107189C1.26531 -0.00924688 1.00215 0.055093 0.76899 0.187304C0.53583 0.319516 0.341318 0.514696 0.205974 0.752256C0.0706289 0.989816 -0.00053025 1.26095 2.97485e-06 1.53705Z" fill="white"/>
</svg>
