<svg width="39" height="16" viewBox="0 0 39 16" fill="none" xmlns="http://www.w3.org/2000/svg">
<path d="M7.40149 14.0402C8.69 12.7517 10.1592 11.7277 11.7227 10.9656C11.9705 10.849 12.1761 10.6629 12.316 10.4285C12.4559 10.1941 12.5244 9.92096 12.5136 9.64039L11.9656 5.80302C16.4328 4.34101 22.0471 4.40321 26.7854 6.18735L26.5903 10.0777C26.6191 10.6722 26.9694 11.1901 27.4742 11.4645C29.0972 12.3123 30.6208 13.4378 31.9898 14.8069C32.5909 15.4079 33.5631 15.4374 34.1288 14.8717L37.7534 11.2471C38.3191 10.6814 38.7329 9.73336 37.8981 8.89858C27.558 -1.44155 10.8676 -1.93652 1.14622 7.78489C0.402447 8.52866 0.810343 9.52319 1.42251 10.1354L5.2625 13.9753C5.86354 14.5764 6.83581 14.6058 7.40149 14.0402Z" fill="white"/>
</svg>
