<svg width="16" height="15" viewBox="0 0 16 15" fill="none" xmlns="http://www.w3.org/2000/svg">
<path d="M5.48181 5.67208C6.1768 5.67208 6.84332 5.38789 7.33476 4.88204C7.82619 4.37618 8.10227 3.6901 8.10227 2.97471C8.10227 2.25932 7.82619 1.57324 7.33476 1.06738C6.84332 0.56153 6.1768 0.277344 5.48181 0.277344C4.78682 0.277344 4.12029 0.56153 3.62886 1.06738C3.13743 1.57324 2.86134 2.25932 2.86134 2.97471C2.86134 3.6901 3.13743 4.37618 3.62886 4.88204C4.12029 5.38789 4.78682 5.67208 5.48181 5.67208ZM0.778072 13.2499C0.606812 13.14 0.469256 12.9825 0.381304 12.7956C0.293353 12.6086 0.258598 12.3998 0.281057 12.1934C0.442089 10.8906 1.05912 9.69301 2.01651 8.82496C2.97391 7.95691 4.20597 7.47801 5.48181 7.47801C6.75765 7.47801 7.9897 7.95691 8.9471 8.82496C9.9045 9.69301 10.5215 10.8906 10.6826 12.1934C10.7332 12.6133 10.5323 13.0206 10.1847 13.249C8.78119 14.1748 7.14873 14.6657 5.48181 14.6633C3.81467 14.6661 2.1819 14.1755 0.778072 13.2499Z" fill="white"/>
<path d="M9.36719 5.73574H14.823M12.0951 3.00781V8.46367" stroke="white" stroke-width="0.90931" stroke-linecap="round" stroke-linejoin="round"/>
</svg>
