<svg width="14" height="14" viewBox="0 0 14 14" fill="none" xmlns="http://www.w3.org/2000/svg">
<path d="M12.625 0H4.375C4.01033 0 3.66059 0.144866 3.40273 0.402728C3.14487 0.660591 3 1.01033 3 1.375V9.625C3 9.98967 3.14487 10.3394 3.40273 10.5973C3.66059 10.8551 4.01033 11 4.375 11H12.625C12.9897 11 13.3394 10.8551 13.5973 10.5973C13.8551 10.3394 14 9.98967 14 9.625V1.375C14 1.01033 13.8551 0.660591 13.5973 0.402728C13.3394 0.144866 12.9897 0 12.625 0ZM8.5 1.71875C8.95584 1.71875 9.39301 1.89983 9.71534 2.22216C10.0377 2.54449 10.2188 2.98166 10.2188 3.4375C10.2188 3.89334 10.0377 4.33051 9.71534 4.65284C9.39301 4.97517 8.95584 5.15625 8.5 5.15625C8.04416 5.15625 7.60699 4.97517 7.28466 4.65284C6.96233 4.33051 6.78125 3.89334 6.78125 3.4375C6.78125 2.98166 6.96233 2.54449 7.28466 2.22216C7.60699 1.89983 8.04416 1.71875 8.5 1.71875ZM11.9375 8.9375H5.0625V8.76562C5.0625 7.49444 6.61212 6.1875 8.5 6.1875C10.3879 6.1875 11.9375 7.49444 11.9375 8.76562V8.9375Z" fill="#614B98"/>
<path d="M1.42857 4H0V12.5714C0 13.3593 0.640714 14 1.42857 14H10V12.5714H1.42857V4Z" fill="#614B98"/>
</svg>
