<svg width="30" height="29" viewBox="0 0 30 29" fill="none" xmlns="http://www.w3.org/2000/svg">
<path d="M27.5446 19.6541C25.5528 19.6541 23.6258 19.3365 21.8284 18.765C21.5468 18.6714 21.244 18.6575 20.9547 18.7249C20.6655 18.7923 20.4014 18.9383 20.1929 19.146L17.6505 22.2735C13.0679 20.1303 8.7767 16.082 6.49346 11.4305L9.65113 8.79511C10.0883 8.35059 10.2179 7.73144 10.0398 7.17579C9.44061 5.4136 9.13295 3.52439 9.13295 1.57169C9.13295 0.714404 8.40425 0 7.52982 0H1.92699C1.05256 0 0 0.381016 0 1.57169C0 16.3202 12.5173 28.5762 27.5446 28.5762C28.6943 28.5762 29.1477 27.576 29.1477 26.7028V21.2257C29.1477 20.3685 28.419 19.6541 27.5446 19.6541Z" fill="white"/>
<path fill-rule="evenodd" clip-rule="evenodd" d="M14.2203 11.8871C14.2563 11.9634 14.3152 12.0513 14.3513 12.0823C14.4663 12.1811 19.9875 15.5525 20.0966 15.5905C20.3444 15.6769 20.6414 15.5423 20.755 15.2922C20.8126 15.1654 20.8197 15.0526 20.8204 14.2561L20.8212 13.3623L21.9232 13.362C23.4844 13.3616 23.9629 13.3107 24.6967 13.067C26.4238 12.4934 27.7373 11.0117 28.1274 9.19696C28.2029 8.84568 28.2378 8.05552 28.1824 7.95194C28.1223 7.83979 27.9393 7.73937 27.7946 7.73923C27.6428 7.73906 27.5702 7.79244 26.9762 8.34091C26.0867 9.16221 25.1761 9.64844 24.0666 9.89451C23.7457 9.9657 23.6089 9.97261 22.253 9.98604L20.7865 10.0006L20.7865 9.07637C20.7865 8.0652 20.7816 8.03709 20.5784 7.8661C20.4366 7.7468 20.2519 7.71469 20.0753 7.77863C19.9987 7.80633 18.6737 8.60149 17.1308 9.54563C15.046 10.8214 14.3087 11.2894 14.26 11.368C14.1586 11.5315 14.1438 11.7247 14.2203 11.8871ZM15.1789 7.73076C15.2307 7.79234 15.3226 7.85576 15.3831 7.87165C15.589 7.92584 15.7011 7.86804 16.0884 7.50826C16.6387 6.99697 16.8117 6.85483 17.206 6.58991C17.8057 6.18692 18.4902 5.89771 19.2652 5.71988C19.5617 5.65185 19.712 5.64438 21.0555 5.63102L22.522 5.61644L22.522 6.54236C22.522 7.56515 22.5342 7.63416 22.7401 7.78078C22.8809 7.88106 23.1673 7.90501 23.3146 7.82885C23.5012 7.73236 28.9222 4.40343 28.9917 4.34262C29.1547 4.20013 29.1962 3.90099 29.0836 3.68019C29.0214 3.55839 28.7604 3.39063 26.165 1.80437C24.5973 0.846279 23.268 0.046084 23.2109 0.0261942C22.964 -0.0598892 22.6669 0.0751024 22.5534 0.324849C22.4959 0.451647 22.4888 0.564389 22.4881 1.36094L22.4873 2.25475L21.3852 2.25506C19.8241 2.25548 19.3455 2.30636 18.6118 2.55004C17.0918 3.0548 15.8601 4.28493 15.3566 5.80083C15.1832 6.32326 15.1273 6.62247 15.1047 7.14959L15.0847 7.61878L15.1789 7.73076Z" fill="white"/>
</svg>
