<svg width="21" height="21" viewBox="0 0 21 21" fill="none" xmlns="http://www.w3.org/2000/svg">
<path d="M4.56846 9.28991C6.14214 12.36 8.64538 14.8575 11.7227 16.4275L14.1111 14.0446C14.2531 13.9027 14.432 13.8032 14.6276 13.7573C14.8231 13.7114 15.0277 13.7209 15.2182 13.7847C16.469 14.1947 17.7774 14.4031 19.094 14.4021C19.3817 14.4028 19.6574 14.5172 19.8608 14.7202C20.0642 14.9231 20.1789 15.1982 20.1796 15.4852V19.265C20.1789 19.552 20.0642 19.8271 19.8608 20.0301C19.6574 20.233 19.3817 20.3474 19.094 20.3482C16.6703 20.3484 14.2704 19.8723 12.0312 18.9471C9.79195 18.0219 7.75736 16.6656 6.04358 14.9558C4.3298 13.246 2.97041 11.2161 2.04302 8.98212C1.11564 6.74811 0.638438 4.35372 0.638672 1.9357C0.639455 1.64866 0.75409 1.37361 0.957524 1.17065C1.16096 0.967689 1.43665 0.85332 1.72435 0.852539H5.52125C5.80894 0.85332 6.08464 0.967689 6.28807 1.17065C6.49151 1.37361 6.60614 1.64866 6.60692 1.9357C6.60496 3.24932 6.81387 4.55479 7.2257 5.80251C7.28715 5.99363 7.29434 6.19799 7.24649 6.39294C7.19863 6.58789 7.09759 6.76581 6.95458 6.90697L4.56609 9.28991H4.56846Z" fill="white"/>
</svg>
