<svg width="56" height="84" viewBox="0 0 56 84" fill="none" xmlns="http://www.w3.org/2000/svg">
<path d="M15.4661 81.6628H41.4216M54.3994 32.9961V39.485C54.3994 53.7605 42.7194 65.4405 28.4438 65.4405M28.4438 65.4405C14.1683 65.4405 2.48828 53.7605 2.48828 39.485V32.9961M28.4438 65.4405V81.6628" stroke="#006BE0" stroke-width="3.2" stroke-linecap="round" stroke-linejoin="round"/>
<path d="M28.443 55.6205C26.3018 55.6155 24.1834 55.1803 22.2135 54.3408C20.2437 53.5014 18.4626 52.2747 16.976 50.7336C13.9326 47.6643 12.2238 43.5178 12.2208 39.1955V16.6872C12.2125 14.5545 12.6264 12.4413 13.4387 10.4694C14.251 8.49747 15.4456 6.70584 16.9537 5.19781C18.4617 3.68978 20.2533 2.49518 22.2252 1.68288C24.1972 0.87058 26.3104 0.456654 28.443 0.464967C37.5397 0.464967 44.6653 7.59058 44.6653 16.6872V39.1955C44.6653 48.2516 37.3876 55.6205 28.443 55.6205Z" fill="#006BE0"/>
</svg>
