<svg width="8" height="11" viewBox="0 0 8 11" fill="none" xmlns="http://www.w3.org/2000/svg">
<path d="M0.0859375 1.50619C0.0859375 0.809553 0.652326 0.243164 1.34896 0.243164H5.76956C6.4662 0.243164 7.03259 0.809553 7.03259 1.50619V9.08436C7.03259 9.78099 6.4662 10.3474 5.76956 10.3474H1.34896C0.652326 10.3474 0.0859375 9.78099 0.0859375 9.08436V1.50619ZM2.61199 9.08436C2.61199 9.25802 2.75408 9.40011 2.92775 9.40011H4.19078C4.36444 9.40011 4.50653 9.25802 4.50653 9.08436C4.50653 8.91069 4.36444 8.7686 4.19078 8.7686H2.92775C2.75408 8.7686 2.61199 8.91069 2.61199 9.08436ZM5.76956 1.50619H1.34896V7.82133H5.76956V1.50619Z" fill="#57A1D7"/>
</svg>
