<svg width="1304" height="851" viewBox="0 0 1304 851" fill="none" xmlns="http://www.w3.org/2000/svg">
<g style="mix-blend-mode:overlay" opacity="0.1">
<path d="M506.952 851C503.064 851 499.135 850.895 495.283 850.686C493.522 850.591 492.171 849.09 492.267 847.335C492.362 845.58 493.877 844.234 495.63 844.329C500.079 844.57 504.616 844.67 509.115 844.625H509.147C510.895 844.625 512.324 846.03 512.342 847.776C512.36 849.536 510.945 850.973 509.179 850.991C508.435 851 507.696 851 506.952 851V851ZM522.824 850.413C521.168 850.413 519.767 849.14 519.644 847.467C519.511 845.716 520.83 844.188 522.592 844.056C527.128 843.715 531.632 843.229 535.981 842.597C537.729 842.346 539.349 843.551 539.6 845.289C539.851 847.026 538.642 848.644 536.899 848.895C532.403 849.545 527.753 850.05 523.071 850.4C522.989 850.404 522.907 850.409 522.829 850.409L522.824 850.413ZM694.384 849.595C694.343 849.595 694.306 849.595 694.265 849.595C689.186 849.408 684.353 848.513 679.899 846.93C678.238 846.339 677.371 844.52 677.964 842.86C678.557 841.205 680.383 840.341 682.049 840.932C685.886 842.296 690.076 843.069 694.503 843.229C696.264 843.292 697.642 844.77 697.578 846.525C697.515 848.244 696.1 849.595 694.388 849.595H694.384ZM481.825 849.49C481.693 849.49 481.56 849.481 481.428 849.468C476.696 848.885 472.068 848.131 467.664 847.235C465.935 846.88 464.821 845.198 465.177 843.479C465.533 841.755 467.222 840.646 468.947 841C473.182 841.864 477.645 842.592 482.208 843.151C483.961 843.365 485.202 844.957 484.988 846.703C484.787 848.317 483.409 849.495 481.82 849.495L481.825 849.49ZM707.965 848.199C706.532 848.199 705.232 847.235 704.867 845.789C704.438 844.084 705.478 842.356 707.189 841.928C711.525 840.846 715.395 839.182 718.69 836.981C720.155 835.998 722.14 836.389 723.121 837.849C724.107 839.309 723.714 841.287 722.249 842.265C718.343 844.879 713.797 846.844 708.741 848.103C708.481 848.167 708.221 848.199 707.965 848.199ZM549.905 846.457C548.444 846.457 547.13 845.457 546.792 843.979C546.4 842.265 547.482 840.559 549.202 840.168C553.72 839.15 558.06 837.954 562.099 836.621C563.774 836.067 565.581 836.972 566.138 838.64C566.694 840.309 565.786 842.11 564.111 842.665C559.876 844.065 555.336 845.311 550.617 846.38C550.379 846.435 550.142 846.457 549.905 846.457ZM455.05 843.933C454.736 843.933 454.416 843.888 454.101 843.788C449.337 842.315 444.901 840.623 440.912 838.759C439.315 838.013 438.626 836.117 439.379 834.525C440.132 832.933 442.03 832.251 443.628 832.993C447.352 834.734 451.514 836.317 456 837.708C457.684 838.231 458.628 840.014 458.103 841.692C457.679 843.056 456.415 843.933 455.055 843.933H455.05ZM669.339 840.136C668.54 840.136 667.742 839.841 667.121 839.241C663.324 835.585 660.732 831.183 659.413 826.149C658.966 824.448 659.988 822.711 661.695 822.265C663.402 821.82 665.149 822.838 665.592 824.539C666.61 828.423 668.618 831.828 671.561 834.657C672.83 835.88 672.867 837.895 671.639 839.159C671.014 839.805 670.179 840.132 669.339 840.132V840.136ZM575.808 837.758C574.621 837.758 573.48 837.094 572.928 835.957C572.162 834.375 572.828 832.47 574.421 831.706C578.628 829.687 582.407 827.445 585.652 825.048C587.071 824.002 589.07 824.298 590.119 825.712C591.169 827.127 590.872 829.118 589.453 830.164C585.884 832.797 581.759 835.248 577.191 837.44C576.743 837.654 576.269 837.758 575.803 837.758H575.808ZM729.642 832.883C729.145 832.883 728.638 832.765 728.164 832.52C726.598 831.706 725.996 829.782 726.813 828.222C728.428 825.148 729.245 821.711 729.245 818.005C729.245 817.568 729.232 817.122 729.213 816.681C729.122 814.926 730.482 813.43 732.244 813.344C734.001 813.262 735.507 814.608 735.593 816.363C735.621 816.913 735.634 817.468 735.634 818.009C735.634 822.752 734.571 827.186 732.472 831.178C731.901 832.265 730.788 832.888 729.638 832.888L729.642 832.883ZM430.53 832.088C429.85 832.088 429.166 831.874 428.582 831.428C427.445 830.56 426.364 829.65 425.364 828.732C423.096 826.654 420.582 824.289 418.195 822.043C416.912 820.838 416.853 818.819 418.067 817.541C419.276 816.263 421.298 816.204 422.585 817.413C424.953 819.642 427.454 821.993 429.695 824.048C430.558 824.839 431.493 825.626 432.479 826.381C433.875 827.454 434.14 829.45 433.063 830.846C432.433 831.66 431.489 832.088 430.53 832.088V832.088ZM597.307 821.301C596.641 821.301 595.97 821.097 595.399 820.669C593.985 819.619 593.697 817.623 594.751 816.213C594.98 815.908 595.203 815.599 595.422 815.285C597.786 811.898 600.702 808.601 604.084 805.49C605.38 804.299 607.402 804.376 608.597 805.668C609.793 806.959 609.715 808.974 608.419 810.165C605.375 812.966 602.77 815.908 600.67 818.919C600.41 819.291 600.146 819.66 599.872 820.024C599.242 820.86 598.284 821.301 597.312 821.301H597.307ZM662.22 814.99C662.11 814.99 661.996 814.985 661.882 814.971C660.13 814.79 658.852 813.221 659.039 811.475C659.541 806.714 660.444 802.034 661.731 797.578C662.22 795.891 663.99 794.913 665.683 795.4C667.376 795.886 668.358 797.651 667.869 799.338C666.687 803.439 665.852 807.746 665.391 812.138C665.218 813.776 663.831 814.99 662.22 814.99V814.99ZM410.405 813.562C409.624 813.562 408.844 813.28 408.228 812.711C404.595 809.342 401.3 806.35 398.151 803.558C396.833 802.389 396.718 800.375 397.891 799.065C399.064 797.755 401.086 797.637 402.4 798.806C405.581 801.63 408.912 804.654 412.577 808.05C413.868 809.246 413.941 811.261 412.741 812.548C412.111 813.221 411.258 813.562 410.4 813.562H410.405ZM729.049 806.573C727.858 806.573 726.717 805.909 726.169 804.772C724.408 801.12 721.87 797.887 718.63 795.159C717.284 794.022 717.115 792.017 718.252 790.671C719.388 789.329 721.405 789.161 722.751 790.293C726.68 793.604 729.77 797.546 731.924 802.007C732.691 803.589 732.02 805.495 730.432 806.254C729.985 806.468 729.515 806.568 729.049 806.568V806.573ZM617.099 802.716C616.05 802.716 615.023 802.203 614.411 801.257C613.453 799.779 613.882 797.81 615.365 796.855C619.171 794.408 623.329 792.126 627.719 790.066C629.316 789.32 631.219 790.002 631.968 791.589C632.72 793.181 632.031 795.077 630.439 795.823C626.304 797.76 622.398 799.906 618.824 802.203C618.29 802.548 617.688 802.712 617.095 802.712L617.099 802.716ZM389.91 795.432C389.189 795.432 388.458 795.191 387.86 794.69C384.278 791.707 380.718 788.856 377.282 786.214C375.886 785.141 375.625 783.14 376.703 781.749C377.78 780.357 379.787 780.098 381.184 781.171C384.684 783.863 388.312 786.764 391.959 789.807C393.314 790.934 393.492 792.944 392.36 794.29C391.73 795.045 390.822 795.432 389.91 795.432V795.432ZM641.779 791.043C640.447 791.043 639.205 790.207 638.754 788.883C638.188 787.219 639.082 785.414 640.752 784.845C645.152 783.358 649.697 782.085 654.256 781.057C655.977 780.666 657.688 781.749 658.076 783.463C658.464 785.177 657.382 786.883 655.662 787.269C651.317 788.247 646.991 789.456 642.806 790.875C642.464 790.989 642.122 791.043 641.779 791.043V791.043ZM708.937 789.033C708.54 789.033 708.139 788.961 707.751 788.806C703.999 787.31 699.787 786.169 695.228 785.418C693.489 785.132 692.312 783.49 692.6 781.758C692.887 780.025 694.534 778.857 696.273 779.139C701.284 779.966 705.943 781.23 710.124 782.899C711.762 783.554 712.556 785.405 711.904 787.037C711.406 788.283 710.206 789.038 708.937 789.038V789.033ZM669.772 788.979C669.289 788.979 668.8 788.87 668.339 788.638C666.843 787.888 666.195 786.128 666.811 784.604C665.989 784.113 665.396 783.258 665.282 782.235C665.081 780.489 666.341 778.911 668.093 778.711C668.805 778.629 669.512 778.556 670.22 778.488C671.525 776.383 672.935 774.327 674.446 772.331C675.509 770.926 677.512 770.649 678.918 771.704C680.328 772.763 680.606 774.759 679.548 776.16C679.091 776.765 678.644 777.374 678.206 777.988C679.534 777.952 680.848 777.938 682.149 777.952C683.915 777.97 685.33 779.407 685.311 781.167C685.293 782.913 683.869 784.318 682.117 784.318H682.085C679.456 784.291 676.773 784.372 674.044 784.559C673.551 785.441 673.076 786.328 672.625 787.219C672.063 788.329 670.936 788.974 669.768 788.974L669.772 788.979ZM368.196 778.807C367.566 778.807 366.932 778.62 366.375 778.238C362.569 775.601 358.763 773.122 355.066 770.881C353.56 769.967 353.081 768.007 354.003 766.506C354.92 765.005 356.887 764.528 358.393 765.446C362.199 767.756 366.11 770.303 370.021 773.013C371.468 774.018 371.829 776.001 370.82 777.442C370.199 778.334 369.204 778.807 368.196 778.807V778.807ZM686.087 767.274C685.248 767.274 684.408 766.947 683.783 766.297C682.56 765.028 682.605 763.014 683.874 761.795C687.16 758.653 690.806 755.629 694.713 752.796C696.141 751.759 698.135 752.077 699.176 753.496C700.212 754.919 699.897 756.907 698.473 757.943C694.799 760.604 691.376 763.446 688.301 766.388C687.68 766.979 686.886 767.274 686.087 767.274V767.274ZM344.78 764.66C344.287 764.66 343.79 764.546 343.324 764.31C339.226 762.218 335.128 760.344 331.144 758.739C329.506 758.08 328.716 756.229 329.378 754.596C330.04 752.964 331.897 752.177 333.535 752.837C337.697 754.51 341.974 756.465 346.24 758.644C347.81 759.444 348.431 761.363 347.628 762.927C347.062 764.028 345.944 764.66 344.785 764.66H344.78ZM253.198 761.627C252.084 761.627 251.003 761.045 250.414 760.008C249.547 758.475 250.085 756.538 251.623 755.67C255.808 753.314 260.13 751.304 264.474 749.695C266.126 749.081 267.966 749.922 268.582 751.568C269.198 753.214 268.353 755.047 266.701 755.661C262.676 757.152 258.66 759.021 254.772 761.213C254.275 761.495 253.736 761.627 253.202 761.627H253.198ZM319.388 754.551C319.105 754.551 318.813 754.515 318.526 754.433C314.154 753.214 309.791 752.296 305.561 751.704C303.813 751.459 302.594 749.849 302.841 748.112C303.087 746.37 304.703 745.156 306.45 745.402C310.964 746.034 315.605 747.012 320.251 748.303C321.948 748.776 322.943 750.531 322.469 752.227C322.072 753.632 320.789 754.556 319.393 754.556L319.388 754.551ZM929.806 753.2C928.574 753.2 927.401 752.487 926.877 751.291C925.658 748.508 922.906 745.729 918.708 743.046C917.225 742.096 916.791 740.127 917.745 738.649C918.699 737.171 920.67 736.739 922.158 737.69C927.442 741.068 930.997 744.788 932.732 748.749C933.439 750.358 932.7 752.236 931.08 752.937C930.664 753.119 930.231 753.205 929.806 753.205V753.2ZM278.754 752.214C277.248 752.214 275.906 751.145 275.619 749.617C275.295 747.889 276.436 746.225 278.17 745.902C282.784 745.043 287.539 744.57 292.312 744.497C294.078 744.47 295.53 745.875 295.557 747.63C295.585 749.39 294.174 750.836 292.413 750.863C288.004 750.931 283.61 751.368 279.347 752.159C279.146 752.196 278.95 752.214 278.754 752.214V752.214ZM708.102 751.186C706.989 751.186 705.912 750.609 705.323 749.572C704.451 748.044 704.99 746.102 706.523 745.234C710.439 743.019 714.637 740.9 719 738.945C720.606 738.222 722.5 738.936 723.226 740.541C723.951 742.146 723.235 744.028 721.624 744.752C717.439 746.63 713.419 748.653 709.677 750.772C709.179 751.054 708.636 751.191 708.102 751.191V751.186ZM733.01 739.931C731.7 739.931 730.473 739.122 730.003 737.826C729.405 736.171 730.267 734.347 731.929 733.756C736.164 732.237 740.618 730.809 745.168 729.513C746.865 729.031 748.631 730.009 749.12 731.701C749.608 733.392 748.622 735.152 746.925 735.634C742.512 736.894 738.194 738.276 734.092 739.745C733.736 739.872 733.371 739.936 733.01 739.936V739.931ZM908.161 737.53C907.778 737.53 907.385 737.462 907.007 737.312C903.205 735.839 898.934 734.465 894.306 733.219C892.604 732.76 891.595 731.014 892.056 729.318C892.517 727.622 894.27 726.617 895.972 727.076C900.818 728.381 905.309 729.827 909.32 731.382C910.963 732.019 911.78 733.865 911.141 735.502C910.648 736.762 909.444 737.535 908.161 737.535V737.53ZM759.315 732.396C757.854 732.396 756.536 731.391 756.202 729.909C755.815 728.195 756.901 726.489 758.621 726.107C763.03 725.121 767.607 724.225 772.221 723.438C773.964 723.147 775.611 724.307 775.908 726.039C776.205 727.772 775.036 729.418 773.298 729.713C768.789 730.482 764.321 731.36 760.022 732.319C759.785 732.374 759.552 732.396 759.319 732.396H759.315ZM881.793 730.282C881.592 730.282 881.387 730.264 881.181 730.223C876.923 729.4 872.433 728.672 867.842 728.049C866.094 727.813 864.871 726.207 865.104 724.466C865.341 722.724 866.947 721.501 868.7 721.737C873.409 722.374 878.019 723.124 882.391 723.97C884.125 724.302 885.256 725.976 884.919 727.699C884.622 729.222 883.285 730.277 881.788 730.277L881.793 730.282ZM786.309 727.776C784.72 727.776 783.342 726.594 783.141 724.98C782.927 723.234 784.168 721.647 785.921 721.433C790.439 720.878 795.071 720.414 799.689 720.046C801.437 719.909 802.988 721.215 803.125 722.965C803.267 724.716 801.953 726.248 800.196 726.389C795.668 726.749 791.128 727.203 786.706 727.745C786.573 727.763 786.441 727.767 786.313 727.767L786.309 727.776ZM854.667 726.571C854.575 726.571 854.48 726.571 854.384 726.558C849.953 726.171 845.398 725.876 840.857 725.68C839.096 725.603 837.727 724.116 837.804 722.36C837.882 720.605 839.379 719.246 841.136 719.318C845.772 719.523 850.413 719.823 854.941 720.214C856.698 720.369 857.998 721.91 857.848 723.661C857.701 725.316 856.305 726.567 854.667 726.567V726.571ZM813.613 725.607C811.906 725.607 810.486 724.261 810.423 722.547C810.354 720.792 811.732 719.314 813.494 719.246C817.77 719.082 822.11 719 826.4 719H827.322C829.088 719.005 830.512 720.437 830.507 722.192C830.502 723.947 829.074 725.366 827.312 725.366H826.4C822.192 725.366 817.934 725.444 813.736 725.603C813.695 725.603 813.654 725.603 813.613 725.603V725.607Z" fill="white"/>
<path d="M139.377 502.733H53.8123C48.4995 502.733 44.1895 507.05 44.1895 512.371V560.463C44.1895 565.784 48.4995 570.1 53.8123 570.1H56.6018L66.5192 588.809C67.807 591.241 71.2475 591.341 72.6731 588.99L84.135 570.1H139.377C144.69 570.1 149 565.784 149 560.463V512.371C149 507.05 144.69 502.733 139.377 502.733Z" fill="#CFDBFF"/>
<path d="M94.7934 491.973C91.6856 491.973 89.167 489.45 89.167 486.338V469.2C89.167 466.087 91.6856 463.565 94.7934 463.565C97.9012 463.565 100.42 466.087 100.42 469.2V486.338C100.42 489.45 97.9012 491.973 94.7934 491.973Z" fill="#CFDBFF"/>
<path d="M115.185 490.321C112.989 488.122 112.989 484.553 115.185 482.349L127.283 470.232C129.479 468.034 133.043 468.034 135.243 470.232C137.438 472.431 137.438 476.001 135.243 478.204L123.144 490.321C120.949 492.52 117.385 492.52 115.185 490.321Z" fill="#CFDBFF"/>
<path d="M74.3983 490.321C76.5937 488.122 76.5937 484.553 74.3983 482.349L62.2996 470.232C60.1042 468.034 56.5401 468.034 54.3399 470.232C52.1445 472.431 52.1445 476.001 54.3399 478.204L66.4386 490.321C68.6341 492.52 72.1981 492.52 74.3983 490.321Z" fill="#CFDBFF"/>
<path d="M134.188 498.664H48.6229C43.3101 498.664 39 502.981 39 508.302V556.389C39 561.71 43.3101 566.026 48.6229 566.026H51.4123L61.3298 584.735C62.6176 587.167 66.0581 587.267 67.4837 584.916L78.9456 566.026H134.188C139.501 566.026 143.811 561.71 143.811 556.389V508.302C143.811 502.981 139.501 498.664 134.188 498.664Z" fill="white"/>
<path d="M126.87 513.708L126.894 551.273C126.894 552.705 125.739 553.866 124.314 553.866L59.1255 553.909C57.6999 553.909 56.5404 552.753 56.5404 551.32L56.5166 513.751C56.5166 512.318 57.6713 511.162 59.097 511.157L124.285 511.114C125.711 511.114 126.87 512.271 126.87 513.703V513.708Z" fill="#397BEA"/>
<path d="M126.87 513.708V515.783L97.1844 537.166C94.2999 539.332 90.3509 539.365 87.4284 537.257L56.5117 514.936V513.751C56.5117 512.318 57.6665 511.162 59.0968 511.157L124.28 511.114C125.711 511.114 126.866 512.271 126.87 513.703V513.708Z" fill="#94D2FF"/>
<path d="M90.9682 488.408C87.8604 488.408 85.3418 485.886 85.3418 482.773V465.635C85.3418 462.522 87.8604 460 90.9682 460C94.076 460 96.5946 462.522 96.5946 465.635V482.773C96.5946 485.886 94.076 488.408 90.9682 488.408Z" fill="white"/>
<path d="M111.359 486.756C109.164 484.558 109.164 480.988 111.359 478.785L123.458 466.668C125.654 464.469 129.218 464.469 131.418 466.668C133.613 468.866 133.613 472.436 131.418 474.639L119.319 486.756C117.124 488.955 113.56 488.955 111.359 486.756Z" fill="white"/>
<path d="M70.577 486.756C72.7724 484.558 72.7724 480.988 70.577 478.785L58.4783 466.668C56.2829 464.469 52.7188 464.469 50.5186 466.668C48.3232 468.866 48.3232 472.436 50.5186 474.639L62.6173 486.756C64.8128 488.955 68.3768 488.955 70.577 486.756Z" fill="white"/>
<path d="M177.568 243H278.503C290.413 243 300.068 252.669 300.068 264.597V305.257C300.068 317.184 290.413 326.854 278.503 326.854H208.882L211.326 372.251C211.516 375.734 206.757 376.91 205.306 373.74L183.848 326.858H177.564C165.655 326.858 156 317.188 156 305.261V264.601C156 252.673 165.655 243.004 177.564 243.004L177.568 243Z" fill="#56B8FF"/>
<path d="M174.648 269.915H279.58C283.652 269.915 286.956 266.611 286.956 262.528C286.956 258.45 283.656 255.141 279.58 255.141H174.648C170.575 255.141 167.271 258.446 167.271 262.528C167.271 266.607 170.571 269.915 174.648 269.915V269.915Z" fill="#E3EAFF"/>
<path d="M174.648 291.801H279.58C283.652 291.801 286.956 288.496 286.956 284.418C286.956 280.339 283.656 277.03 279.58 277.03H174.648C170.575 277.03 167.271 280.339 167.271 284.418C167.271 288.496 170.571 291.801 174.648 291.801V291.801Z" fill="#E3EAFF"/>
<path d="M280.743 313.69H208.283C204.857 313.69 202.074 310.903 202.074 307.472V305.138C202.074 301.707 204.857 298.92 208.283 298.92H280.743C284.169 298.92 286.952 301.707 286.952 305.138V307.472C286.952 310.903 284.169 313.69 280.743 313.69V313.69Z" fill="#E3EAFF"/>
<path d="M1226.5 664H1125.56C1113.66 664 1104 673.669 1104 685.597V726.257C1104 738.184 1113.66 747.854 1125.56 747.854H1195.19L1192.74 793.251C1192.55 796.734 1197.31 797.91 1198.76 794.74L1220.22 747.858H1226.5C1238.41 747.858 1248.07 738.188 1248.07 726.261V685.601C1248.07 673.673 1238.41 664.004 1226.5 664.004L1226.5 664Z" fill="#9ACAEE"/>
<path d="M1229.42 690.915H1124.49C1120.42 690.915 1117.11 687.611 1117.11 683.528C1117.11 679.45 1120.41 676.141 1124.49 676.141H1229.42C1233.49 676.141 1236.8 679.446 1236.8 683.528C1236.8 687.607 1233.5 690.915 1229.42 690.915V690.915Z" fill="white"/>
<path d="M1229.42 712.801H1124.49C1120.42 712.801 1117.11 709.496 1117.11 705.418C1117.11 701.339 1120.41 698.03 1124.49 698.03H1229.42C1233.49 698.03 1236.8 701.339 1236.8 705.418C1236.8 709.496 1233.5 712.801 1229.42 712.801V712.801Z" fill="white"/>
<path d="M1123.33 734.69H1195.79C1199.21 734.69 1201.99 731.903 1201.99 728.472V726.138C1201.99 722.707 1199.21 719.92 1195.79 719.92H1123.33C1119.9 719.92 1117.12 722.707 1117.12 726.138V728.472C1117.12 731.903 1119.9 734.69 1123.33 734.69V734.69Z" fill="white"/>
<path d="M1051.71 359H1118.35C1123.61 359 1127.87 363.271 1127.87 368.534V397.014C1127.87 402.277 1123.61 406.548 1118.35 406.548H1051.71C1046.45 406.548 1042.19 402.277 1042.19 397.014V368.534C1042.19 363.271 1046.45 359 1051.71 359V359Z" fill="white"/>
<path d="M991.356 427.168H1077.87C1084.69 427.168 1090.23 432.713 1090.23 439.543V476.519C1090.23 483.349 1084.69 488.894 1077.87 488.894H991.356C984.537 488.894 979 483.349 979 476.519V439.543C979 432.713 984.537 427.168 991.356 427.168V427.168Z" fill="white"/>
<path d="M1055.78 406.548V431.266L1071.15 406.548H1055.78Z" fill="white"/>
<path d="M1074.48 486.131V509.109C1074.48 510.955 1072 511.548 1071.17 509.903L1059.11 486.131H1074.48Z" fill="white"/>
<path d="M1113.99 378.296H1056.06C1053.25 378.296 1050.98 376.016 1050.98 373.207C1050.98 370.397 1053.25 368.117 1056.06 368.117H1113.99C1116.8 368.117 1119.07 370.397 1119.07 373.207C1119.07 376.016 1116.8 378.296 1113.99 378.296Z" fill="#7C8FC8"/>
<path d="M1056.06 384.555H1113.99C1116.8 384.555 1119.07 386.835 1119.07 389.644C1119.07 392.454 1116.8 394.734 1113.99 394.734H1056.06C1053.25 394.734 1050.98 392.454 1050.98 389.644C1050.98 386.835 1053.25 384.555 1056.06 384.555Z" fill="#7C8FC8"/>
<path d="M1075.73 446.461H994.546C991.423 446.461 988.893 443.927 988.893 440.799C988.893 437.672 991.423 435.138 994.546 435.138H1075.73C1078.85 435.138 1081.38 437.672 1081.38 440.799C1081.38 443.927 1078.85 446.461 1075.73 446.461Z" fill="#98A3C2"/>
<path d="M1075.73 464.42H994.546C991.423 464.42 988.893 461.886 988.893 458.758C988.893 455.631 991.423 453.097 994.546 453.097H1075.73C1078.85 453.097 1081.38 455.631 1081.38 458.758C1081.38 461.886 1078.85 464.42 1075.73 464.42Z" fill="#98A3C2"/>
<path d="M1024.46 471.056H1076.56C1079.22 471.056 1081.38 473.219 1081.38 475.884V477.547C1081.38 480.212 1079.22 482.375 1076.56 482.375H1024.46C1021.8 482.375 1019.63 480.212 1019.63 477.543V475.881C1019.63 473.216 1021.8 471.049 1024.46 471.049V471.056Z" fill="#98A3C2"/>
<path d="M2.85011 195.992C2.80131 195.992 2.74845 195.992 2.69966 195.992C1.13017 195.91 -0.0774432 194.565 0.0038776 192.988C0.0973965 191.177 0.499934 186.305 2.22394 180.251C2.65494 178.73 4.23256 177.852 5.74513 178.289C7.25769 178.722 8.13189 180.308 7.69683 181.829C6.13547 187.314 5.76952 191.667 5.6882 193.286C5.61095 194.815 4.35047 196 2.85011 196V195.992ZM9.51435 172.53C9.06302 172.53 8.60355 172.419 8.17662 172.191C6.7901 171.447 6.26558 169.714 7.0056 168.32C9.05082 164.469 11.5067 160.901 14.3123 157.713C15.3532 156.527 17.1544 156.417 18.3295 157.463C19.5087 158.51 19.6185 160.316 18.5775 161.502C16.0688 164.355 13.865 167.555 12.0312 171.013C11.5189 171.978 10.5349 172.53 9.51841 172.53H9.51435ZM25.5345 154.357C24.6319 154.357 23.7496 153.928 23.1966 153.127C22.298 151.827 22.6192 150.045 23.9081 149.145C27.3236 146.762 31.101 144.706 35.1426 143.039C36.5982 142.438 38.2612 143.137 38.8549 144.6C39.4526 146.064 38.7573 147.735 37.3017 148.332C33.6422 149.844 30.2268 151.696 27.1528 153.846C26.6568 154.193 26.0916 154.357 25.5305 154.357H25.5345ZM47.849 144.972C46.5356 144.972 45.3565 144.053 45.0678 142.712C44.7384 141.167 45.7184 139.646 47.2553 139.315C51.175 138.469 55.359 137.885 59.7015 137.57C61.271 137.455 62.6331 138.641 62.7429 140.218C62.8567 141.796 61.6776 143.166 60.1081 143.276C56.0298 143.57 52.1102 144.118 48.4507 144.907C48.2515 144.952 48.0482 144.972 47.853 144.972H47.849ZM81.3775 143.484C79.6088 143.484 77.7872 143.423 75.9575 143.296C74.6198 143.206 73.2821 143.137 71.9769 143.088C70.4074 143.031 69.1794 141.702 69.2363 140.124C69.2933 138.547 70.6107 137.32 72.1842 137.37C73.5463 137.419 74.9451 137.492 76.3397 137.586C79.007 137.766 81.6418 137.807 84.1546 137.705C85.7201 137.643 87.0497 138.87 87.1147 140.447C87.1798 142.025 85.9559 143.358 84.3864 143.423C83.3984 143.464 82.39 143.484 81.3775 143.484V143.484ZM96.3202 141.759C95.0394 141.759 93.8766 140.885 93.5594 139.581C93.1853 138.048 94.1164 136.495 95.6412 136.119C99.4633 135.175 103.07 133.805 106.359 132.052C107.75 131.312 109.47 131.843 110.206 133.237C110.942 134.631 110.413 136.364 109.027 137.104C105.322 139.078 101.277 140.615 97.0033 141.674C96.7756 141.731 96.5479 141.759 96.3202 141.759V141.759ZM117.569 130.327C116.813 130.327 116.057 130.024 115.5 129.428C114.422 128.279 114.475 126.468 115.618 125.385C118.342 122.802 120.777 119.806 122.859 116.483C123.697 115.146 125.453 114.741 126.783 115.583C128.113 116.425 128.515 118.191 127.678 119.528C125.34 123.264 122.599 126.632 119.521 129.546C118.972 130.065 118.269 130.327 117.569 130.327V130.327ZM130.556 109.845C130.239 109.845 129.914 109.791 129.597 109.677C128.117 109.146 127.348 107.507 127.877 106.019C129.154 102.438 130.121 98.6163 130.756 94.6597C131.004 93.0983 132.463 92.0396 134.017 92.2889C135.57 92.5383 136.623 94.0098 136.375 95.5671C135.688 99.8671 134.63 104.036 133.236 107.948C132.821 109.117 131.723 109.845 130.556 109.845V109.845ZM509.153 105.23C508.186 105.23 507.246 104.735 506.714 103.844C504.681 100.448 502.469 97.059 500.147 93.7809C499.236 92.4933 499.533 90.7071 500.814 89.7915C502.095 88.8759 503.872 89.1743 504.782 90.4619C507.194 93.8585 509.483 97.3696 511.593 100.893C512.402 102.246 511.967 104.004 510.621 104.821C510.162 105.099 509.658 105.23 509.157 105.23H509.153ZM113.259 86.2763C113.202 86.2763 113.15 86.2763 113.093 86.2722C108.705 86.0188 104.493 85.4629 100.577 84.6168C99.0404 84.2857 98.0605 82.7652 98.3899 81.2201C98.7192 79.675 100.232 78.69 101.769 79.021C105.4 79.8058 109.319 80.3209 113.418 80.5579C114.987 80.6479 116.187 82.0008 116.097 83.5786C116.012 85.0991 114.756 86.2763 113.259 86.2763V86.2763ZM125.445 86.2395C123.949 86.2395 122.693 85.0623 122.607 83.5418C122.518 81.964 123.717 80.6111 125.287 80.5212C127.324 80.4026 129.426 80.2269 131.577 79.998C131.447 77.0223 131.138 74.063 130.654 71.1609C130.394 69.6036 131.443 68.128 132.992 67.8664C134.541 67.6048 136.009 68.6594 136.269 70.2167C136.765 73.1964 137.09 76.2334 137.245 79.2867C138.778 79.1028 140.181 80.1778 140.404 81.7188C140.628 83.2843 139.55 84.7353 137.993 84.9601C137.383 85.05 136.777 85.1318 136.171 85.2136C135.704 85.5528 135.131 85.7572 134.513 85.7613C134.151 85.7613 133.768 85.6918 133.435 85.5569C130.756 85.8675 128.141 86.0964 125.62 86.2395C125.563 86.2395 125.51 86.2436 125.453 86.2436L125.445 86.2395ZM495.016 85.2708C494.199 85.2708 493.389 84.9193 492.824 84.2366C490.299 81.1833 487.612 78.1545 484.834 75.2442C483.749 74.1038 483.785 72.2931 484.92 71.1977C486.054 70.1063 487.856 70.1431 488.945 71.2835C491.812 74.2919 494.593 77.4188 497.203 80.5784C498.208 81.7923 498.041 83.599 496.833 84.6086C496.301 85.0541 495.658 85.2708 495.016 85.2708V85.2708ZM149.581 82.8183C148.264 82.8183 147.085 81.8945 146.8 80.5498C146.475 79.0047 147.455 77.4842 148.996 77.1572C152.749 76.356 156.693 75.4077 160.718 74.3287C162.235 73.924 163.796 74.8314 164.199 76.3601C164.601 77.8888 163.699 79.4543 162.178 79.859C158.059 80.9585 154.021 81.9354 150.175 82.7529C149.976 82.7938 149.776 82.8142 149.581 82.8142V82.8183ZM89.5665 80.9708C89.1843 80.9708 88.7981 80.8931 88.4281 80.7296C85.1346 79.2827 82.0159 77.5332 79.1494 75.5344C78.5435 75.1134 77.9539 74.6924 77.3806 74.2755C76.108 73.3518 75.8193 71.5614 76.7423 70.2821C77.6612 69.0027 79.4421 68.7125 80.7148 69.6403C81.2596 70.0368 81.8207 70.4374 82.3981 70.838C84.9597 72.6283 87.7531 74.1938 90.7091 75.4895C92.1485 76.123 92.8072 77.8071 92.1769 79.2581C91.7093 80.3331 90.6644 80.9749 89.5665 80.9749V80.9708ZM173.168 76.5563C171.953 76.5563 170.83 75.7674 170.452 74.5412C169.989 73.0329 170.826 71.4306 172.331 70.9606C176.027 69.812 179.898 68.5326 183.838 67.1674C185.322 66.6483 186.944 67.4454 187.456 68.9373C187.969 70.4292 187.18 72.0601 185.696 72.5751C181.699 73.9649 177.771 75.2606 174.014 76.4296C173.734 76.5154 173.449 76.5604 173.172 76.5604L173.168 76.5563ZM196.243 68.5694C195.092 68.5694 194.007 67.8623 193.576 66.7137C193.023 65.2341 193.771 63.5868 195.243 63.0309C198.878 61.6616 202.688 60.1779 206.567 58.6205C208.027 58.036 209.681 58.7513 210.267 60.2187C210.848 61.6861 210.137 63.3497 208.677 63.9383C204.762 65.5079 200.915 67.008 197.243 68.3896C196.914 68.5122 196.577 68.5735 196.243 68.5735V68.5694ZM478.158 67.5639C477.475 67.5639 476.788 67.3187 476.243 66.8159C473.315 64.1345 470.241 61.494 467.107 58.9762C465.879 57.9911 465.679 56.1885 466.659 54.9541C467.639 53.7197 469.432 53.5194 470.66 54.5045C473.889 57.1 477.06 59.8182 480.077 62.5854C481.24 63.6481 481.321 65.4589 480.264 66.6279C479.703 67.2492 478.935 67.5598 478.162 67.5598L478.158 67.5639ZM69.6795 66.9835C68.9599 66.9835 68.2402 66.7096 67.6831 66.1619C64.0969 62.6181 61.4255 59.1029 59.7421 55.7144C59.0387 54.3001 59.612 52.5834 61.0189 51.8762C62.4257 51.1691 64.1335 51.7454 64.8369 53.1597C66.2397 55.9801 68.537 58.9802 71.676 62.0785C72.7982 63.1862 72.8145 64.997 71.7126 66.1251C71.1555 66.6933 70.4196 66.9794 69.6836 66.9794L69.6795 66.9835ZM130.41 61.6821C129.243 61.6821 128.149 60.9545 127.73 59.7855C126.356 55.931 124.661 52.4281 122.693 49.3706C121.839 48.0422 122.217 46.2723 123.538 45.414C124.86 44.5556 126.62 44.9357 127.474 46.2642C129.678 49.6895 131.569 53.5889 133.089 57.8562C133.622 59.344 132.85 60.9831 131.37 61.5145C131.052 61.6289 130.727 61.6821 130.41 61.6821ZM218.915 59.4871C217.801 59.4871 216.744 58.829 216.289 57.7295C215.683 56.2703 216.366 54.5944 217.814 53.9854C221.371 52.4894 225.136 50.8748 229.003 49.1867C230.447 48.5572 232.122 49.2235 232.748 50.6704C233.374 52.1215 232.711 53.8055 231.272 54.435C227.385 56.1313 223.595 57.7581 220.013 59.2623C219.655 59.4135 219.281 59.483 218.915 59.483V59.4871ZM459.117 52.2482C458.552 52.2482 457.982 52.0806 457.486 51.7291C454.229 49.4319 450.85 47.2002 447.435 45.0951C446.097 44.2695 445.674 42.5078 446.5 41.1589C447.321 39.8142 449.074 39.3891 450.415 40.2188C453.928 42.3852 457.405 44.6823 460.755 47.0449C462.04 47.9523 462.353 49.7344 461.451 51.0301C460.898 51.8231 460.015 52.2482 459.117 52.2482V52.2482ZM241.311 49.7303C240.221 49.7303 239.181 49.0968 238.709 48.034C238.071 46.5912 238.713 44.899 240.148 44.2572C243.621 42.6999 247.256 41.0527 251.257 39.2256C252.688 38.5716 254.375 39.2092 255.026 40.648C255.676 42.0868 255.042 43.7831 253.611 44.4371C249.598 46.2683 245.951 47.9196 242.466 49.481C242.088 49.6486 241.697 49.7303 241.307 49.7303H241.311ZM61.3076 45.4876C60.9335 45.4876 60.5553 45.414 60.1935 45.2587C58.746 44.6374 58.0751 42.9574 58.6931 41.5064C60.3724 37.5456 63.8976 34.2266 68.8867 31.9172C70.3138 31.255 72.0053 31.8845 72.664 33.3192C73.3227 34.7539 72.6965 36.4543 71.2694 37.1164C67.5855 38.825 65.0443 41.1181 63.9302 43.7545C63.4707 44.8417 62.4176 45.4957 61.3116 45.4957L61.3076 45.4876ZM116.964 41.6126C116.362 41.6126 115.752 41.4205 115.235 41.024C113.263 39.5076 111.161 38.3509 108.994 37.5947C107.754 37.1614 106.477 36.7567 105.205 36.397C103.692 35.9679 102.81 34.386 103.237 32.8655C103.664 31.3449 105.233 30.458 106.75 30.8872C108.132 31.2796 109.515 31.7169 110.864 32.187C113.601 33.1475 116.236 34.5904 118.692 36.4788C119.94 37.4393 120.18 39.2337 119.224 40.4886C118.663 41.2243 117.817 41.6126 116.964 41.6126V41.6126ZM263.54 39.5975C262.463 39.5975 261.43 38.9803 260.95 37.9298C260.296 36.4951 260.922 34.7948 262.349 34.1367C264.902 32.9595 267.44 31.7864 269.96 30.6215L273.437 29.0151C274.864 28.357 276.556 28.9865 277.21 30.4212C277.865 31.8559 277.243 33.5563 275.812 34.2143L272.335 35.8207C269.814 36.9856 267.273 38.1587 264.719 39.34C264.333 39.5158 263.931 39.6016 263.536 39.6016L263.54 39.5975ZM438.343 39.4218C437.892 39.4218 437.433 39.3114 437.006 39.0825C433.488 37.1941 429.862 35.3834 426.231 33.7034C424.803 33.0412 424.177 31.3449 424.836 29.9062C425.495 28.4715 427.186 27.842 428.613 28.5042C432.346 30.2332 436.07 32.0929 439.689 34.0345C441.076 34.7784 441.6 36.5115 440.86 37.9053C440.348 38.87 439.364 39.4177 438.347 39.4177L438.343 39.4218ZM81.8289 34.2879C80.3976 34.2879 79.1656 33.2088 79.003 31.7455C78.8281 30.1759 79.9504 28.7576 81.5117 28.5818C85.5452 28.124 89.8959 28.1077 94.2791 28.5287C95.8445 28.6799 96.9911 30.0778 96.8407 31.6474C96.6902 33.2211 95.2956 34.3697 93.7342 34.2225C89.7455 33.8383 85.7892 33.8546 82.146 34.2634C82.0362 34.2756 81.9305 34.2797 81.8248 34.2797L81.8289 34.2879ZM285.725 29.3666C284.643 29.3666 283.61 28.7453 283.134 27.6908C282.484 26.252 283.114 24.5557 284.541 23.9017C285.822 23.3131 287.099 22.7286 288.367 22.1523C290.827 21.0282 293.373 19.9696 295.926 19.0008C297.398 18.4408 299.041 19.1889 299.594 20.6685C300.147 22.1482 299.407 23.7995 297.935 24.3554C295.495 25.2792 293.068 26.2929 290.718 27.3638C289.449 27.9401 288.176 28.5246 286.9 29.1091C286.517 29.2849 286.115 29.3666 285.72 29.3666H285.725ZM416.196 29.1704C415.85 29.1704 415.5 29.105 415.163 28.9742C411.434 27.5109 407.624 26.1457 403.835 24.9154C402.339 24.429 401.517 22.8185 402.001 21.3143C402.485 19.8101 404.091 18.9845 405.583 19.4709C409.483 20.738 413.402 22.14 417.232 23.6483C418.696 24.2246 419.42 25.88 418.847 27.3556C418.408 28.4837 417.334 29.1786 416.196 29.1786V29.1704ZM392.991 21.6372C392.755 21.6372 392.519 21.6086 392.279 21.5473C388.392 20.5418 384.444 19.6548 380.549 18.9068C379.004 18.6084 377.991 17.1124 378.288 15.5592C378.585 14.006 380.073 12.9882 381.618 13.2866C385.631 14.055 389.693 14.9706 393.694 16.0047C395.215 16.3971 396.134 17.9585 395.743 19.4872C395.414 20.7789 394.255 21.6372 392.991 21.6372V21.6372ZM308.535 20.7625C307.283 20.7625 306.136 19.9246 305.79 18.6534C305.376 17.1288 306.27 15.5551 307.787 15.1382C311.731 14.055 315.813 13.1312 319.928 12.3914C321.477 12.1094 322.953 13.1476 323.234 14.7008C323.51 16.2541 322.482 17.7419 320.936 18.0239C316.984 18.7351 313.065 19.6262 309.283 20.6603C309.031 20.7298 308.779 20.7625 308.531 20.7625H308.535ZM369.042 17.0511C368.924 17.0511 368.806 17.0429 368.688 17.0307C364.699 16.532 360.678 16.1723 356.734 15.9516C355.164 15.8657 353.961 14.5169 354.046 12.9391C354.132 11.3614 355.469 10.1515 357.043 10.2414C361.117 10.4662 365.268 10.8423 369.387 11.3532C370.949 11.5494 372.055 12.9759 371.864 14.5455C371.685 15.9925 370.457 17.0552 369.042 17.0552V17.0511ZM332.512 16.4094C331.061 16.4094 329.825 15.3017 329.682 13.8179C329.532 12.2443 330.683 10.8463 332.244 10.6992C336.302 10.3109 340.474 10.0738 344.641 10.0002C346.223 9.97981 347.508 11.2306 347.536 12.8124C347.565 14.3943 346.313 15.6941 344.739 15.7227C340.718 15.7963 336.696 16.0211 332.781 16.3971C332.687 16.4053 332.598 16.4094 332.508 16.4094H332.512Z" fill="white"/>
<path d="M511.875 85.678L502.652 100.807L582.043 155.052L511.875 85.678Z" fill="#BDCDFF"/>
<path d="M494.467 118.963L499.276 136.309L578.512 152.554L494.467 118.963Z" fill="#BDCDFF"/>
<path d="M582.044 155.052L448.16 109.351L494.467 93.0408L582.044 155.052Z" fill="white"/>
<path d="M511.876 85.678L582.044 155.052L540.977 73.3728L511.876 85.678Z" fill="white"/>
<path d="M246.778 748.533L252.771 762.641L178 799.094L246.778 748.533Z" fill="#BDCDFF"/>
<path d="M257.495 779.21L251.199 793.453L181.337 797.4L257.495 779.21Z" fill="#BDCDFF"/>
<path d="M178 799.094L298.339 776.803L260.753 757.023L178 799.094Z" fill="white"/>
<path d="M246.778 748.533L178 799.094L223.415 734.343L246.778 748.533Z" fill="white"/>
<path d="M1227.6 183.123C1225.68 183.123 1224.13 181.567 1224.13 179.643C1224.13 177.72 1225.68 176.164 1227.6 176.164C1232.6 176.164 1237.27 175.607 1241.48 174.519C1243.34 174.041 1245.23 175.16 1245.71 177.019C1246.19 178.878 1245.07 180.777 1243.21 181.254C1238.44 182.486 1233.18 183.113 1227.61 183.118L1227.6 183.123ZM1212.79 181.801C1212.6 181.801 1212.4 181.786 1212.2 181.751C1207.47 180.946 1202.45 179.773 1197.32 178.266C1195.47 177.725 1194.42 175.791 1194.96 173.947C1195.5 172.103 1197.43 171.049 1199.27 171.586C1204.15 173.017 1208.89 174.131 1213.37 174.891C1215.26 175.214 1216.53 177.009 1216.21 178.903C1215.92 180.603 1214.45 181.801 1212.79 181.801V181.801ZM1255.88 175.349C1254.77 175.349 1253.68 174.817 1253.01 173.823C1251.93 172.232 1252.34 170.07 1253.92 168.991C1257.21 166.759 1260.14 163.956 1262.65 160.67C1263.82 159.144 1266 158.851 1267.52 160.019C1269.05 161.187 1269.34 163.369 1268.17 164.895C1265.21 168.777 1261.73 172.093 1257.83 174.747C1257.24 175.155 1256.56 175.349 1255.88 175.349ZM1015.68 174.578C1014.98 174.578 1014.28 174.369 1013.67 173.932C1012.1 172.819 1011.74 170.641 1012.85 169.081C1015.67 165.124 1019.01 161.152 1022.79 157.275C1024.13 155.899 1026.33 155.874 1027.7 157.216C1029.08 158.558 1029.1 160.76 1027.76 162.137C1024.23 165.76 1021.12 169.453 1018.51 173.122C1017.83 174.076 1016.76 174.583 1015.68 174.583L1015.68 174.578ZM1184.21 173.574C1183.79 173.574 1183.36 173.5 1182.95 173.336C1178.43 171.571 1173.75 169.553 1169.06 167.336C1167.32 166.516 1166.57 164.443 1167.39 162.703C1168.21 160.964 1170.28 160.218 1172.02 161.038C1176.57 163.185 1181.1 165.144 1185.47 166.849C1187.26 167.55 1188.14 169.563 1187.45 171.352C1186.91 172.729 1185.6 173.569 1184.21 173.569L1184.21 173.574ZM1157.25 160.914C1156.69 160.914 1156.13 160.78 1155.6 160.491C1151.25 158.13 1146.86 155.585 1142.55 152.941C1140.91 151.937 1140.4 149.795 1141.4 148.159C1142.4 146.519 1144.54 146.007 1146.18 147.011C1150.39 149.596 1154.68 152.076 1158.92 154.382C1160.6 155.302 1161.22 157.415 1160.31 159.1C1159.68 160.258 1158.49 160.919 1157.25 160.919V160.914ZM1036.34 153.194C1035.31 153.194 1034.3 152.742 1033.62 151.882C1032.42 150.376 1032.67 148.189 1034.17 146.991C1038.2 143.78 1042.42 140.828 1046.72 138.203C1048.36 137.204 1050.5 137.726 1051.5 139.366C1052.5 141.006 1051.98 143.149 1050.34 144.148C1046.28 146.623 1042.3 149.412 1038.5 152.439C1037.86 152.946 1037.1 153.194 1036.34 153.194H1036.34ZM1131.86 145.346C1131.18 145.346 1130.5 145.147 1129.9 144.739C1128.36 143.686 1126.82 142.612 1125.32 141.538C1122.88 139.799 1120.33 138.248 1117.76 136.936C1116.04 136.066 1115.36 133.973 1116.23 132.258C1117.1 130.543 1119.19 129.862 1120.9 130.732C1123.79 132.198 1126.64 133.928 1129.36 135.872C1130.82 136.916 1132.32 137.964 1133.82 138.993C1135.41 140.077 1135.81 142.244 1134.73 143.83C1134.06 144.814 1132.97 145.346 1131.86 145.346H1131.86ZM1061.74 137.79C1060.4 137.79 1059.12 137 1058.55 135.688C1057.79 133.923 1058.61 131.875 1060.37 131.115C1065.25 129.007 1070.18 127.347 1075.02 126.169C1076.88 125.717 1078.76 126.865 1079.21 128.729C1079.66 130.598 1078.52 132.477 1076.66 132.929C1072.2 134.013 1067.64 135.554 1063.12 137.502C1062.67 137.696 1062.2 137.786 1061.74 137.786V137.79ZM1105.35 132.318C1105.11 132.318 1104.86 132.293 1104.61 132.238C1100.13 131.264 1095.42 130.842 1090.67 130.986C1088.76 131.05 1087.15 129.534 1087.09 127.616C1087.03 125.697 1088.54 124.091 1090.45 124.032C1095.76 123.868 1101.06 124.34 1106.09 125.438C1107.96 125.846 1109.15 127.7 1108.74 129.579C1108.39 131.209 1106.95 132.318 1105.35 132.318V132.318Z" fill="white"/>
<path d="M1012.33 160.496L1017.34 176.323L933 207.891L1012.33 160.496Z" fill="#BDCDFF"/>
<path d="M1020.74 194.675L1012.49 209.383L936.772 206.405L1020.74 194.675Z" fill="#BDCDFF"/>
<path d="M933 207.891L1065.01 196.305L1026.52 171.094L933 207.891Z" fill="white"/>
<path d="M1012.33 160.496L933 207.891L988.607 142.781L1012.33 160.496Z" fill="white"/>
<path d="M1134.3 34.7225L1151.62 66.8012C1152.28 68.0243 1153.8 68.4781 1155.02 67.818L1210.69 37.6843C1211.9 37.0241 1212.36 35.5005 1211.7 34.2775L1194.39 2.19869C1193.73 0.975658 1192.21 0.52181 1190.98 1.18195L1135.32 31.3186C1134.1 31.9787 1133.64 33.5024 1134.3 34.7254V34.7225Z" fill="#323950"/>
<path d="M1134.3 34.7225L1135.26 36.4966L1170.47 41.0115C1173.93 41.5243 1177.32 39.7266 1178.84 36.5732L1194.93 3.21248L1194.39 2.19869C1193.73 0.975658 1192.2 0.52181 1190.98 1.18195L1135.32 31.3157C1134.1 31.9758 1133.65 33.5024 1134.3 34.7225Z" fill="white"/>
<path d="M755.029 105.599C740.125 105.599 728 93.4559 728 78.5291C728 63.6023 740.125 51.459 755.029 51.459C769.933 51.459 782.058 63.6023 782.058 78.5291C782.058 93.4559 769.933 105.599 755.029 105.599ZM755.029 58.9149C744.229 58.9149 735.445 67.713 735.445 78.5291C735.445 89.3452 744.229 98.1433 755.029 98.1433C765.829 98.1433 774.614 89.3452 774.614 78.5291C774.614 67.713 765.829 58.9149 755.029 58.9149V58.9149Z" fill="white"/>
<path d="M481.047 723.631C478.264 734.017 484.666 744.789 495.318 747.643C505.971 750.497 516.901 744.37 519.684 733.984C522.467 723.598 516.065 712.826 505.412 709.972C494.76 707.118 483.83 713.245 481.047 723.631ZM514.363 732.558C512.346 740.084 504.427 744.523 496.708 742.455C488.989 740.387 484.351 732.583 486.368 725.057C488.384 717.531 496.303 713.091 504.022 715.16C511.741 717.228 516.379 725.032 514.363 732.558V732.558Z" fill="white"/>
<path d="M1261.11 370.543C1246.71 366.685 1238.14 351.818 1242.01 337.399C1245.87 322.981 1260.72 314.39 1275.12 318.247C1289.52 322.105 1298.09 336.973 1294.22 351.391C1290.36 365.809 1275.5 374.4 1261.11 370.543ZM1273.19 325.449C1262.76 322.654 1252 328.879 1249.2 339.326C1246.4 349.774 1252.61 360.546 1263.04 363.341C1273.47 366.136 1284.23 359.911 1287.03 349.464C1289.83 339.016 1283.62 328.244 1273.19 325.449Z" fill="#E3EAFF"/>
<path d="M815.623 35.4537C815.623 43.9883 808.715 50.9075 800.193 50.9075C791.671 50.9075 784.763 43.9883 784.763 35.4537C784.763 26.9191 791.671 20 800.193 20C808.715 20 815.623 26.9191 815.623 35.4537Z" fill="white"/>
<path d="M542.31 693.976C536.175 692.333 529.869 695.974 528.225 702.108C526.581 708.243 530.222 714.549 536.357 716.193C542.491 717.837 548.797 714.196 550.441 708.061C552.085 701.926 548.444 695.62 542.31 693.976Z" fill="white"/>
<path d="M1281.05 300.848C1289.28 303.054 1297.75 298.158 1299.96 289.914C1302.16 281.67 1297.28 273.199 1289.05 270.994C1280.82 268.788 1272.36 273.683 1270.15 281.927C1267.94 290.171 1272.82 298.642 1281.05 300.848Z" fill="#E3EAFF"/>
</g>
</svg>
