<svg width="28" height="28" viewBox="0 0 28 28" fill="none" xmlns="http://www.w3.org/2000/svg">
<circle cx="14.0002" cy="13.9993" r="13.1008" fill="#26AB23"/>
<path d="M13.3613 15.8971V7.51562H16.3112C16.7092 7.51562 17.0799 7.58196 17.4233 7.71462C17.7745 7.83949 18.0788 8.01898 18.3363 8.2531C18.5939 8.48722 18.7968 8.76816 18.945 9.09592C19.0933 9.41588 19.1675 9.77096 19.1675 10.1612C19.1675 10.5592 19.0933 10.922 18.945 11.2498C18.7968 11.5698 18.5939 11.8468 18.3363 12.0809C18.0788 12.315 17.7745 12.4984 17.4233 12.6311C17.0799 12.756 16.7092 12.8184 16.3112 12.8184H14.9416V15.8971H13.3613ZM16.3346 11.32C16.7482 11.32 17.0604 11.203 17.2711 10.9689C17.4818 10.7348 17.5872 10.4655 17.5872 10.1612C17.5872 10.0129 17.5598 9.86851 17.5052 9.72804C17.4584 9.58757 17.3804 9.46661 17.2711 9.36516C17.1697 9.2559 17.0409 9.17006 16.8848 9.10763C16.7287 9.0452 16.5453 9.01398 16.3346 9.01398H14.9416V11.32H16.3346Z" fill="white"/>
<path d="M19.4237 17.5442L17.2915 17.3008C17.0408 17.2713 16.7866 17.2991 16.5482 17.3819C16.3097 17.4648 16.0932 17.6007 15.9147 17.7792L14.3701 19.3239C11.987 18.1119 10.0501 16.1749 8.83805 13.7918L10.3911 12.2388C10.752 11.8778 10.9283 11.3741 10.8696 10.8621L10.6261 8.7466C10.5785 8.33709 10.382 7.95938 10.0739 7.68538C9.7659 7.41139 9.36785 7.26025 8.95558 7.26074H7.5033C6.55471 7.26074 5.76561 8.04984 5.82437 8.99844C6.26929 16.1675 12.0028 21.8926 19.1635 22.3375C20.1121 22.3963 20.9012 21.6072 20.9012 20.6586V19.2063C20.9096 18.3585 20.2716 17.6449 19.4237 17.5442Z" fill="white"/>
</svg>
