<svg width="13" height="14" viewBox="0 0 13 14" fill="none" xmlns="http://www.w3.org/2000/svg">
<path d="M6.42699 0.988281C2.87929 0.988281 0 3.86757 0 7.41527C0 10.963 2.87929 13.8423 6.42699 13.8423C9.97469 13.8423 12.854 10.963 12.854 7.41527C12.854 3.86757 9.97469 0.988281 6.42699 0.988281ZM1.2854 7.41527C1.2854 4.57454 3.58626 2.27368 6.42699 2.27368C7.61599 2.27368 8.70858 2.67858 9.57622 3.35984L2.37156 10.5645C1.66573 9.66674 1.28308 8.55728 1.2854 7.41527ZM6.42699 12.5569C5.238 12.5569 4.14541 12.152 3.27777 11.4707L10.4824 4.26605C11.1883 5.16381 11.5709 6.27327 11.5686 7.41527C11.5686 10.256 9.26772 12.5569 6.42699 12.5569Z" fill="#FF4738"/>
</svg>
