<svg width="13" height="21" viewBox="0 0 13 21" fill="none" xmlns="http://www.w3.org/2000/svg">
<mask id="mask0_2444_1025" style="mask-type:luminance" maskUnits="userSpaceOnUse" x="0" y="0" width="13" height="21">
<path d="M12.8538 0.6875H0.108398V20.1701H12.8538V0.6875Z" fill="white"/>
</mask>
<g mask="url(#mask0_2444_1025)">
<path d="M3.68189 7.99025V5.27007C3.68189 4.19125 3.68827 3.11243 3.68189 2.0336C3.66762 1.79044 3.7229 1.54823 3.84126 1.33534C3.95962 1.12244 4.13616 0.947652 4.35023 0.831428C4.55487 0.721144 4.78772 0.674331 5.01908 0.696965C5.25043 0.719599 5.4698 0.810652 5.64918 0.958504C7.73398 2.27021 9.82623 3.57022 11.9126 4.8798C12.1409 5.01166 12.3524 5.17054 12.5427 5.35302C12.6583 5.46785 12.7454 5.60818 12.7971 5.76275C12.8487 5.91732 12.8634 6.08184 12.84 6.24312C12.8166 6.40439 12.7557 6.55794 12.6622 6.69145C12.5688 6.82496 12.4453 6.93472 12.3018 7.01192C10.5871 8.14764 8.88671 9.30462 7.18154 10.4547C7.15148 10.4833 7.12456 10.515 7.10126 10.5493C7.65795 10.9003 8.20294 11.2443 8.74953 11.5877C9.8661 12.2901 10.988 12.9861 12.0992 13.6991C12.3224 13.8381 12.5184 14.0164 12.6777 14.2255C12.7531 14.3375 12.8056 14.4633 12.8322 14.5956C12.8587 14.7279 12.8588 14.8642 12.8324 14.9966C12.806 15.129 12.7537 15.2548 12.6784 15.3669C12.6031 15.4789 12.5064 15.5749 12.3938 15.6494C10.0719 17.101 7.73611 18.5302 5.42587 19.9998C5.26772 20.0938 5.08937 20.1486 4.90572 20.1595C4.72207 20.1705 4.53847 20.1373 4.37028 20.0627C4.20209 19.9882 4.05419 19.8744 3.93896 19.731C3.82372 19.5876 3.74451 19.4187 3.70794 19.2384C3.68569 19.0978 3.67732 18.9553 3.68295 18.813C3.68295 17.0187 3.68295 15.2244 3.68295 13.4301V13.0685C3.15869 13.5104 2.71206 13.932 2.21652 14.2856C1.94942 14.4698 1.64197 14.587 1.32007 14.6275C1.08211 14.6582 0.840802 14.6064 0.636495 14.4806C0.432188 14.3548 0.277271 14.1626 0.197648 13.9363C0.104327 13.7105 0.0844075 13.4611 0.14071 13.2234C0.197012 12.9857 0.326683 12.7717 0.511352 12.6118C1.17598 12.0344 1.85177 11.4702 2.52278 10.8997C2.6557 10.787 2.78863 10.6716 2.95186 10.5275C2.65889 10.276 2.38773 10.0416 2.11496 9.8092C1.604 9.37427 1.08559 8.94732 0.581536 8.50335C0.383335 8.34266 0.239402 8.12486 0.169294 7.87953C0.0991861 7.6342 0.106301 7.37323 0.189673 7.13209C0.295491 6.89511 0.470716 6.69582 0.692195 6.56054C0.913675 6.42526 1.17099 6.36036 1.43013 6.37441C1.6663 6.4076 1.88961 6.50221 2.07774 6.64877C2.60572 7.05924 3.10605 7.50481 3.68135 7.99079M5.99745 8.34171L9.35992 6.30051L5.99798 4.14127L5.99745 8.34171ZM5.99372 16.8011L9.35992 14.7546L5.99426 12.7165L5.99372 16.8011Z" fill="#474747"/>
</g>
</svg>
