<svg width="14" height="13" viewBox="0 0 14 13" fill="none" xmlns="http://www.w3.org/2000/svg">
<path d="M9.10482 6.63648C9.10482 7.22284 8.87874 7.78518 8.47632 8.19979C8.07389 8.61441 7.52809 8.84734 6.95898 8.84734C6.38987 8.84734 5.84407 8.61441 5.44165 8.19979C5.03923 7.78518 4.81315 7.22284 4.81315 6.63648C4.81315 6.05013 5.03923 5.48779 5.44165 5.07317C5.84407 4.65855 6.38987 4.42562 6.95898 4.42562C7.52809 4.42562 8.07389 4.65855 8.47632 5.07317C8.87874 5.48779 9.10482 6.05013 9.10482 6.63648ZM4.03636 0.921412C4.16993 0.645755 4.3754 0.413892 4.62973 0.25183C4.88405 0.0897677 5.17718 0.00391666 5.47621 0.00390625H8.44175C8.74079 0.00391666 9.03391 0.0897677 9.28824 0.25183C9.54257 0.413892 9.74804 0.645755 9.88161 0.921412L10.5093 2.21476H11.2507C11.8198 2.21476 12.3656 2.44769 12.768 2.86231C13.1704 3.27693 13.3965 3.83927 13.3965 4.42562V9.95277C13.3965 10.5391 13.1704 11.1015 12.768 11.5161C12.3656 11.9307 11.8198 12.1636 11.2507 12.1636H2.66732C2.09821 12.1636 1.55241 11.9307 1.14998 11.5161C0.747562 11.1015 0.521484 10.5391 0.521484 9.95277V4.42562C0.521484 3.83927 0.747562 3.27693 1.14998 2.86231C1.55241 2.44769 2.09821 2.21476 2.66732 2.21476H3.4087L4.03636 0.921412ZM10.1777 6.63648C10.1777 5.75695 9.83862 4.91344 9.23498 4.29151C8.63135 3.66959 7.81265 3.32019 6.95898 3.32019C6.10532 3.32019 5.28662 3.66959 4.68298 4.29151C4.07935 4.91344 3.74023 5.75695 3.74023 6.63648C3.74023 7.51602 4.07935 8.35953 4.68298 8.98145C5.28662 9.60338 6.10532 9.95277 6.95898 9.95277C7.81265 9.95277 8.63135 9.60338 9.23498 8.98145C9.83862 8.35953 10.1777 7.51602 10.1777 6.63648Z" fill="#006BE0"/>
</svg>
