<svg width="16" height="14" viewBox="0 0 16 14" fill="none" xmlns="http://www.w3.org/2000/svg">
<path d="M4.64883 8.68711L7.63359 4.70742L9.95508 7.69219L11.6133 5.70234L13.9348 8.68711M14.598 1.39102H9.2918L7.96523 0.0644531H3.98555C3.63372 0.0644531 3.2963 0.204216 3.04753 0.452994C2.79875 0.701773 2.65898 1.03919 2.65898 1.39102V9.35039C2.65898 9.70222 2.79875 10.0396 3.04753 10.2884C3.2963 10.5372 3.63372 10.677 3.98555 10.677H14.598C14.9499 10.677 15.2873 10.5372 15.5361 10.2884C15.7848 10.0396 15.9246 9.70222 15.9246 9.35039V2.71758C15.9246 2.36575 15.7848 2.02834 15.5361 1.77956C15.2873 1.53078 14.9499 1.39102 14.598 1.39102ZM1.33242 2.71758H0.00585938V12.0035C0.00585938 12.3553 0.145622 12.6928 0.394401 12.9415C0.643179 13.1903 0.980596 13.3301 1.33242 13.3301H13.2715V12.0035H1.33242V2.71758Z" fill="white"/>
</svg>
