<svg width="14" height="14" viewBox="0 0 14 14" fill="none" xmlns="http://www.w3.org/2000/svg">
<path d="M6.93386 0.75C3.41107 0.75 0.554688 3.60639 0.554688 7.12917C0.554688 10.652 3.41107 13.5083 6.93386 13.5083C10.4566 13.5083 13.313 10.652 13.313 7.12917C13.313 3.60639 10.4566 0.75 6.93386 0.75ZM9.44708 9.08991L9.03984 9.64524C9.03098 9.65733 9.01982 9.66755 9.007 9.67532C8.99418 9.68309 8.97995 9.68824 8.96513 9.69049C8.95031 9.69274 8.93519 9.69204 8.92064 9.68843C8.9061 9.68482 8.8924 9.67836 8.88036 9.66945L6.52519 7.9522C6.51052 7.94166 6.49859 7.92775 6.49042 7.91165C6.48224 7.89554 6.47805 7.8777 6.4782 7.85964V3.93958C6.4782 3.87693 6.52946 3.82567 6.59212 3.82567H7.27702C7.33967 3.82567 7.39094 3.87693 7.39094 3.93958V7.46379L9.42145 8.93185C9.47271 8.96745 9.4841 9.03865 9.44708 9.08991Z" fill="#FFC23C"/>
</svg>
