<svg width="16" height="18" viewBox="0 0 16 18" fill="none" xmlns="http://www.w3.org/2000/svg">
<path fill-rule="evenodd" clip-rule="evenodd" d="M4.5405 2.2373H13.6195C14.454 2.2373 15.1326 2.91596 15.1326 3.75046V9.8031C15.1326 10.6376 14.454 11.3163 13.6195 11.3163V5.26362C13.6195 4.42912 12.9408 3.75046 12.1063 3.75046H3.02734C3.02734 2.91596 3.706 2.2373 4.5405 2.2373ZM3.02632 14.3426H1.51316C0.678652 14.3426 0 13.664 0 12.8295V6.77683C0 5.94232 0.678652 5.26367 1.51316 5.26367H10.5921C11.4266 5.26367 12.1053 5.94232 12.1053 6.77683V12.8295C12.1053 13.664 11.4266 14.3426 10.5921 14.3426H6.88563L3.02632 17.4302V14.3426Z" fill="white"/>
</svg>
