<svg width="9" height="5" viewBox="0 0 9 5" fill="none" xmlns="http://www.w3.org/2000/svg">
<path d="M0.894409 0.463853C0.999411 0.354436 1.14181 0.292969 1.29028 0.292969C1.43875 0.292969 1.58115 0.354436 1.68615 0.463853L4.45781 3.35291L7.22946 0.463853C7.33507 0.357537 7.47651 0.298708 7.62332 0.300038C7.77013 0.301368 7.91057 0.36275 8.01439 0.470963C8.1182 0.579176 8.17709 0.725562 8.17836 0.878593C8.17964 1.03162 8.1232 1.17906 8.02121 1.28913L4.85368 4.59083C4.74868 4.70025 4.60628 4.76172 4.45781 4.76172C4.30933 4.76172 4.16694 4.70025 4.06194 4.59083L0.894409 1.28913C0.789438 1.17968 0.730469 1.03126 0.730469 0.876493C0.730469 0.72173 0.789438 0.573304 0.894409 0.463853Z" fill="#474747"/>
</svg>
