<svg width="14" height="14" viewBox="0 0 14 14" fill="none" xmlns="http://www.w3.org/2000/svg">
<path d="M12.4961 9.28652C11.6419 9.28652 10.8155 9.14033 10.0447 8.87717C9.92395 8.83408 9.7941 8.82768 9.67004 8.85871C9.54599 8.88974 9.43275 8.95694 9.34332 9.05261L8.25304 10.4927C6.28776 9.50582 4.44748 7.64179 3.46832 5.49997L4.82248 4.28652C5.00998 4.08185 5.06554 3.79676 4.98915 3.54091C4.7322 2.72951 4.60026 1.85962 4.60026 0.960501C4.60026 0.565764 4.28776 0.236816 3.91276 0.236816H1.50998C1.13498 0.236816 0.683594 0.412255 0.683594 0.960501C0.683594 7.75144 6.05165 13.3947 12.4961 13.3947C12.9891 13.3947 13.1836 12.9342 13.1836 12.5321V10.0102C13.1836 9.61547 12.8711 9.28652 12.4961 9.28652Z" fill="white"/>
</svg>
