<svg width="9" height="13" viewBox="0 0 9 13" fill="none" xmlns="http://www.w3.org/2000/svg">
<path d="M2.87604 11.8398H6.34687M8.08229 5.33203V6.19974C8.08229 8.1087 6.52042 9.67057 4.61146 9.67057M4.61146 9.67057C2.7025 9.67057 1.14062 8.1087 1.14062 6.19974V5.33203M4.61146 9.67057V11.8398" stroke="#474747" stroke-width="0.622222" stroke-linecap="round" stroke-linejoin="round"/>
<path d="M4.61167 8.36772C4.32534 8.36705 4.04206 8.30886 3.77865 8.1966C3.51523 8.08434 3.27706 7.92031 3.07827 7.71423C2.6713 7.3038 2.44279 6.74933 2.4424 6.17134V3.16147C2.44129 2.87629 2.49664 2.59371 2.60526 2.33002C2.71388 2.06633 2.87363 1.82675 3.07529 1.62509C3.27694 1.42343 3.51652 1.26369 3.78021 1.15507C4.0439 1.04644 4.32649 0.991092 4.61167 0.992204C5.82809 0.992204 6.78094 1.94506 6.78094 3.16147V6.17134C6.78094 7.38233 5.80775 8.36772 4.61167 8.36772Z" fill="#474747"/>
</svg>
