<svg width="17" height="12" viewBox="0 0 17 12" fill="none" xmlns="http://www.w3.org/2000/svg">
<path d="M0.921875 9.87278C0.921875 10.9009 1.70861 11.7368 2.67626 11.7368H9.6938C10.6615 11.7368 11.4482 10.9009 11.4482 9.87278V2.41664C11.4482 1.38851 10.6615 0.552606 9.6938 0.552606H2.67626C1.70861 0.552606 0.921875 1.38851 0.921875 2.41664V9.87278ZM16.2481 10.6941C16.5332 10.531 16.7113 10.2165 16.7113 9.87278V2.41664C16.7113 2.07296 16.5332 1.7584 16.2481 1.5953C15.963 1.4322 15.6176 1.44967 15.3462 1.6419L12.7146 3.50594L12.3254 3.78263V8.50679L12.7146 8.78349L15.3462 10.6475C15.6149 10.8368 15.9603 10.8572 16.2481 10.6941Z" fill="white"/>
</svg>
