<svg width="16" height="16" viewBox="0 0 16 16" fill="none" xmlns="http://www.w3.org/2000/svg">
<path fill-rule="evenodd" clip-rule="evenodd" d="M5.03966 0.236816H14.1186C14.9531 0.236816 15.6318 0.915468 15.6318 1.74998V7.80261C15.6318 8.63712 14.9531 9.31577 14.1186 9.31577V3.26313C14.1186 2.42863 13.44 1.74998 12.6055 1.74998H3.5265C3.5265 0.915468 4.20515 0.236816 5.03966 0.236816ZM3.52632 12.3425H2.01316C1.17865 12.3425 0.5 11.6638 0.5 10.8293V4.77668C0.5 3.94217 1.17865 3.26352 2.01316 3.26352H11.0921C11.9266 3.26352 12.6053 3.94217 12.6053 4.77668V10.8293C12.6053 11.6638 11.9266 12.3425 11.0921 12.3425H7.38563L3.52632 15.4301V12.3425Z" fill="white"/>
</svg>
