
<svg width="16" height="15" viewBox="0 0 16 15" fill="none" xmlns="http://www.w3.org/2000/svg">
<circle cx="8.31641" cy="7.5" r="7.5" fill="#FF4738"/>
<path d="M11.8706 9.06471L10.6552 8.92594C10.5123 8.90916 10.3674 8.92498 10.2315 8.97222C10.0956 9.01946 9.97216 9.09688 9.87047 9.19868L8.99004 10.0791C7.63168 9.38827 6.52759 8.28419 5.83675 6.92583L6.72196 6.04061C6.92772 5.83485 7.0282 5.54776 6.99471 5.25587L6.85594 4.05006C6.82882 3.81664 6.71679 3.60135 6.54121 3.44517C6.36562 3.289 6.13873 3.20285 5.90374 3.20313H5.07594C4.53524 3.20313 4.08545 3.65291 4.11895 4.19361C4.37255 8.27997 7.64068 11.5433 11.7223 11.7969C12.263 11.8304 12.7127 11.3806 12.7127 10.8399V10.0121C12.7175 9.52885 12.3539 9.12213 11.8706 9.06471Z" fill="white"/>
</svg>
