<svg width="15" height="15" viewBox="0 0 15 15" fill="none" xmlns="http://www.w3.org/2000/svg">
<path fill-rule="evenodd" clip-rule="evenodd" d="M11.1247 1.00387C10.9164 0.795586 10.5787 0.795586 10.3704 1.00387C10.1622 1.21215 10.1622 1.54983 10.3704 1.75811L11.4056 2.79333C11.309 2.88953 11.1935 3.00479 11.0559 3.14226L9.34024 4.85672L9.33148 4.35489C9.3232 3.88087 9.31925 3.84748 9.25977 3.75174C9.22515 3.69599 9.1484 3.61834 9.08926 3.57918C8.99967 3.51985 8.95226 3.50795 8.80539 3.50795C8.65852 3.50795 8.61111 3.51985 8.52152 3.57918C8.46238 3.61834 8.38563 3.69599 8.35101 3.75174L8.28805 3.85308V5.08756V6.32204L8.35101 6.42337C8.38563 6.47912 8.46238 6.55677 8.52152 6.59593L8.62907 6.66716H9.86659H11.1041L11.2117 6.59593C11.3779 6.48589 11.4451 6.35665 11.4451 6.14754C11.4451 6.00266 11.433 5.95475 11.374 5.86541C11.3348 5.80624 11.2572 5.72943 11.2015 5.69479C11.1058 5.63527 11.0725 5.63131 10.5988 5.62303L10.0973 5.61427L11.8104 3.89741C11.9448 3.76267 12.0605 3.64671 12.1595 3.54722L13.1987 4.5864C13.407 4.79468 13.7447 4.79468 13.953 4.5864C14.1612 4.37812 14.1612 4.04043 13.953 3.83215L11.1247 1.00387ZM0.477578 4.78225C0.622432 4.57263 2.29638 2.88506 2.42489 2.81906C2.53685 2.76158 2.76333 2.76652 2.8836 2.82907C2.93772 2.85724 3.52125 3.42173 4.18028 4.08346C5.4224 5.33071 5.43577 5.34635 5.43577 5.55215C5.43577 5.73634 5.38083 5.81367 4.91703 6.2824C4.63453 6.5679 4.44126 6.78519 4.41598 6.84569C4.36366 6.971 4.3635 7.13249 4.41558 7.2587C4.4719 7.39521 7.52802 10.4617 7.67786 10.532C7.80679 10.5925 7.97802 10.5968 8.10719 10.5428C8.16431 10.519 8.39266 10.3158 8.67091 10.0413C9.21202 9.50745 9.27505 9.47269 9.5615 9.55C9.65167 9.57435 9.84818 9.7587 10.87 10.7777C11.5313 11.4372 12.0954 12.0211 12.1236 12.0752C12.1904 12.2039 12.1906 12.4126 12.124 12.542C12.0961 12.5961 11.6633 13.0466 11.1623 13.5431C10.3864 14.3118 10.2188 14.465 10.0322 14.5756C9.11327 15.1203 7.98173 15.079 7.11139 14.4689C6.90206 14.3222 0.853589 8.29245 0.590278 7.96801C0.381167 7.71036 0.156696 7.26287 0.0775826 6.94591C-0.106324 6.20913 0.0405465 5.41465 0.477578 4.78225ZM4.14712 5.53699L3.40558 4.7946C2.9977 4.38627 2.65703 4.05219 2.64851 4.05219C2.64 4.05219 2.347 4.34188 1.99746 4.69597C1.45694 5.2435 1.34705 5.36835 1.26258 5.53091C1.00683 6.02289 0.996958 6.53569 1.23374 7.02556C1.32742 7.21936 1.41529 7.31002 4.53045 10.4259C7.62612 13.5223 7.73744 13.6303 7.92989 13.725C8.41441 13.9633 8.93069 13.9538 9.42354 13.6974C9.58654 13.6126 9.70985 13.5037 10.2645 12.9543L10.9145 12.3105L10.1673 11.5619L9.42009 10.8133L9.13404 11.0828C8.92897 11.2761 8.78942 11.3829 8.64087 11.4602C8.12213 11.7303 7.53616 11.7029 7.02787 11.3849C6.87848 11.2914 4.12547 8.5716 3.75437 8.1509C3.45224 7.80832 3.31445 7.46418 3.31445 7.0521C3.31445 6.80481 3.36891 6.56726 3.4744 6.3545C3.56887 6.16394 3.67401 6.02836 3.94812 5.74369L4.14712 5.53699Z" fill="#57A1D7"/>
</svg>
