<svg width="12" height="12" viewBox="0 0 12 12" fill="none" xmlns="http://www.w3.org/2000/svg">
<path d="M8.22028 6.36544C8.22028 6.87189 8.02501 7.3576 7.67743 7.71572C7.32985 8.07383 6.85843 8.27502 6.36687 8.27502C5.87532 8.27502 5.4039 8.07383 5.05631 7.71572C4.70873 7.3576 4.51346 6.87189 4.51346 6.36544C4.51346 5.85899 4.70873 5.37328 5.05631 5.01517C5.4039 4.65705 5.87532 4.45587 6.36687 4.45587C6.85843 4.45587 7.32985 4.65705 7.67743 5.01517C8.02501 5.37328 8.22028 5.85899 8.22028 6.36544ZM3.84253 1.42919C3.9579 1.1911 4.13537 0.990834 4.35503 0.850857C4.5747 0.710879 4.82788 0.636728 5.08617 0.636719H7.64758C7.90587 0.636728 8.15904 0.710879 8.37871 0.850857C8.59838 0.990834 8.77585 1.1911 8.89122 1.42919L9.43334 2.54629H10.0737C10.5652 2.54629 11.0367 2.74748 11.3843 3.10559C11.7318 3.46371 11.9271 3.94942 11.9271 4.45587V9.2298C11.9271 9.73626 11.7318 10.222 11.3843 10.5801C11.0367 10.9382 10.5652 11.1394 10.0737 11.1394H2.66005C2.1685 11.1394 1.69707 10.9382 1.34949 10.5801C1.00191 10.222 0.806641 9.73626 0.806641 9.2298V4.45587C0.806641 3.94942 1.00191 3.46371 1.34949 3.10559C1.69707 2.74748 2.1685 2.54629 2.66005 2.54629H3.3004L3.84253 1.42919ZM9.14699 6.36544C9.14699 5.60577 8.85408 4.8772 8.33271 4.34003C7.81134 3.80286 7.10421 3.50108 6.36687 3.50108C5.62954 3.50108 4.92241 3.80286 4.40103 4.34003C3.87966 4.8772 3.58676 5.60577 3.58676 6.36544C3.58676 7.12512 3.87966 7.85368 4.40103 8.39085C4.92241 8.92803 5.62954 9.2298 6.36687 9.2298C7.10421 9.2298 7.81134 8.92803 8.33271 8.39085C8.85408 7.85368 9.14699 7.12512 9.14699 6.36544Z" fill="white"/>
</svg>
