<svg width="15" height="14" viewBox="0 0 15 14" fill="none" xmlns="http://www.w3.org/2000/svg">
<path d="M10 7.63636C10 8.31146 9.73661 8.95891 9.26777 9.43627C8.79893 9.91364 8.16304 10.1818 7.5 10.1818C6.83696 10.1818 6.20107 9.91364 5.73223 9.43627C5.26339 8.95891 5 8.31146 5 7.63636C5 6.96127 5.26339 6.31382 5.73223 5.83646C6.20107 5.35909 6.83696 5.09091 7.5 5.09091C8.16304 5.09091 8.79893 5.35909 9.26777 5.83646C9.73661 6.31382 10 6.96127 10 7.63636ZM4.095 1.05636C4.25062 0.738988 4.49 0.472034 4.7863 0.285445C5.08261 0.098856 5.42411 1.19827e-05 5.7725 0H9.2275C9.57589 1.19827e-05 9.91739 0.098856 10.2137 0.285445C10.51 0.472034 10.7494 0.738988 10.905 1.05636L11.6363 2.54545H12.5C13.163 2.54545 13.7989 2.81364 14.2678 3.291C14.7366 3.76837 15 4.41581 15 5.09091V11.4545C15 12.1296 14.7366 12.7771 14.2678 13.2545C13.7989 13.7318 13.163 14 12.5 14H2.5C1.83696 14 1.20107 13.7318 0.732233 13.2545C0.263392 12.7771 0 12.1296 0 11.4545V5.09091C0 4.41581 0.263392 3.76837 0.732233 3.291C1.20107 2.81364 1.83696 2.54545 2.5 2.54545H3.36375L4.095 1.05636ZM11.25 7.63636C11.25 6.62372 10.8549 5.65255 10.1517 4.9365C9.44839 4.22045 8.49456 3.81818 7.5 3.81818C6.50544 3.81818 5.55161 4.22045 4.84835 4.9365C4.14509 5.65255 3.75 6.62372 3.75 7.63636C3.75 8.64901 4.14509 9.62018 4.84835 10.3362C5.55161 11.0523 6.50544 11.4545 7.5 11.4545C8.49456 11.4545 9.44839 11.0523 10.1517 10.3362C10.8549 9.62018 11.25 8.64901 11.25 7.63636Z" fill="white"/>
</svg>
