<svg width="12" height="11" viewBox="0 0 12 11" fill="none" xmlns="http://www.w3.org/2000/svg">
<path d="M7.98757 5.68695C7.98757 6.18004 7.79745 6.65293 7.45904 7.0016C7.12063 7.35027 6.66165 7.54614 6.18306 7.54614C5.70447 7.54614 5.24549 7.35027 4.90708 7.0016C4.56867 6.65293 4.37855 6.18004 4.37855 5.68695C4.37855 5.19386 4.56867 4.72097 4.90708 4.3723C5.24549 4.02364 5.70447 3.82776 6.18306 3.82776C6.66165 3.82776 7.12063 4.02364 7.45904 4.3723C7.79745 4.72097 7.98757 5.19386 7.98757 5.68695ZM3.72532 0.88094C3.83764 0.64913 4.01043 0.454147 4.2243 0.317863C4.43818 0.181579 4.68467 0.109384 4.93614 0.109375H7.42998C7.68145 0.109384 7.92795 0.181579 8.14182 0.317863C8.35569 0.454147 8.52848 0.64913 8.6408 0.88094L9.16862 1.96857H9.79208C10.2707 1.96857 10.7296 2.16445 11.0681 2.51311C11.4065 2.86178 11.5966 3.33467 11.5966 3.82776V8.47574C11.5966 8.96883 11.4065 9.44172 11.0681 9.79039C10.7296 10.1391 10.2707 10.3349 9.79208 10.3349H2.57404C2.09546 10.3349 1.63647 10.1391 1.29806 9.79039C0.959649 9.44172 0.769531 8.96883 0.769531 8.47574V3.82776C0.769531 3.33467 0.959649 2.86178 1.29806 2.51311C1.63647 2.16445 2.09546 1.96857 2.57404 1.96857H3.1975L3.72532 0.88094ZM8.88982 5.68695C8.88982 4.94732 8.60465 4.23798 8.09703 3.71498C7.58942 3.19198 6.90094 2.89816 6.18306 2.89816C5.46518 2.89816 4.77671 3.19198 4.26909 3.71498C3.76147 4.23798 3.4763 4.94732 3.4763 5.68695C3.4763 6.42658 3.76147 7.13592 4.26909 7.65892C4.77671 8.18192 5.46518 8.47574 6.18306 8.47574C6.90094 8.47574 7.58942 8.18192 8.09703 7.65892C8.60465 7.13592 8.88982 6.42658 8.88982 5.68695Z" fill="white"/>
</svg>
