<svg width="16" height="16" viewBox="0 0 16 16" fill="none" xmlns="http://www.w3.org/2000/svg">
<path d="M8.08923 0.277344C12.1297 0.277344 15.405 3.55262 15.405 7.59313C15.405 7.78553 15.3977 7.97574 15.3831 8.16376C14.4848 7.3055 13.2862 6.83289 12.0439 6.84705C10.8016 6.86121 9.61414 7.36101 8.73563 8.23952C7.85711 9.11804 7.35731 10.3055 7.34315 11.5478C7.32899 12.7901 7.8016 13.9887 8.65986 14.887C7.28662 14.9964 5.91048 14.7143 4.69104 14.0734L1.55257 14.8906C1.44788 14.9176 1.33797 14.9167 1.23368 14.8882C1.1294 14.8597 1.03435 14.8045 0.957907 14.7281C0.881464 14.6517 0.826271 14.5566 0.797771 14.4523C0.769272 14.348 0.768451 14.2381 0.795391 14.1334L1.61183 10.9957C1.05971 9.94661 0.771919 8.77863 0.773444 7.59313C0.773444 3.55262 4.04872 0.277344 8.08923 0.277344ZM9.75576 9.03872C9.81035 9.22787 9.82621 9.42608 9.80239 9.6215C9.77857 9.81692 9.71556 10.0055 9.61713 10.176C9.5187 10.3465 9.38688 10.4954 9.22956 10.6137C9.07224 10.7321 8.89265 10.8174 8.70156 10.8647L8.27432 10.9701C8.20584 11.4082 8.20732 11.8544 8.2787 12.2921L8.67376 12.3872C8.86659 12.4336 9.04796 12.5188 9.20685 12.6375C9.36575 12.7562 9.49885 12.906 9.59806 13.0777C9.69728 13.2495 9.76054 13.4396 9.784 13.6366C9.80746 13.8335 9.79064 14.0332 9.73455 14.2234L9.59774 14.6858C9.91963 14.9682 10.2854 15.1971 10.6834 15.3603L11.0448 14.9799C11.1815 14.8361 11.3461 14.7217 11.5284 14.6436C11.7107 14.5654 11.907 14.5251 12.1054 14.5252C12.3038 14.5253 12.5 14.5657 12.6823 14.644C12.8646 14.7223 13.029 14.8368 13.1656 14.9806L13.53 15.3647C13.9261 15.2036 14.2927 14.9779 14.6149 14.6967L14.4701 14.1949C14.4155 14.0057 14.3996 13.8075 14.4234 13.6121C14.4472 13.4167 14.5103 13.2281 14.6087 13.0576C14.7071 12.8871 14.8389 12.7382 14.9963 12.6199C15.1536 12.5016 15.3332 12.4162 15.5243 12.3689L15.9515 12.2635C16.0202 11.8252 16.0187 11.3787 15.9471 10.9408L15.5521 10.8457C15.3592 10.7993 15.1779 10.7141 15.019 10.5954C14.8601 10.4767 14.727 10.3269 14.6277 10.1552C14.5285 9.9834 14.4653 9.79328 14.4418 9.59633C14.4183 9.39937 14.4352 9.19971 14.4913 9.00946L14.6281 8.54857C14.3062 8.265 13.9392 8.03704 13.5424 7.87405L13.1817 8.25301C13.0451 8.39689 12.8805 8.51146 12.6982 8.58975C12.5158 8.66804 12.3194 8.70842 12.121 8.70842C11.9225 8.70842 11.7261 8.66804 11.5437 8.58975C11.3614 8.51146 11.1969 8.39689 11.0602 8.25301L10.6958 7.86893C10.2998 8.02976 9.93314 8.25523 9.61091 8.53613L9.75576 9.03872ZM12.1129 10.5194C12.6982 10.5194 13.1737 11.0111 13.1737 11.6168C13.1737 12.2226 12.6982 12.7142 12.1129 12.7142C11.5276 12.7142 11.0521 12.2226 11.0521 11.6168C11.0521 11.0111 11.5276 10.5194 12.1129 10.5194Z" fill="#614B98"/>
</svg>
