<svg width="10" height="11" viewBox="0 0 10 11" fill="none" xmlns="http://www.w3.org/2000/svg">
<g clip-path="url(#clip0_4959_15501)">
<path d="M5.00065 9.20834C5.54793 9.20905 6.08996 9.10159 6.59557 8.89215C7.10119 8.68271 7.56043 8.37541 7.9469 7.98792C8.3344 7.60145 8.6417 7.14221 8.85114 6.63659C9.06058 6.13097 9.16803 5.58895 9.16732 5.04167C9.16802 4.49439 9.06056 3.95237 8.85112 3.44676C8.64168 2.94114 8.33439 2.4819 7.9469 2.09542C7.56043 1.70793 7.10119 1.40063 6.59557 1.19119C6.08996 0.981748 5.54793 0.874294 5.00065 0.875003C4.45338 0.874306 3.91136 0.981764 3.40574 1.1912C2.90013 1.40064 2.44088 1.70794 2.0544 2.09542C1.66692 2.4819 1.35963 2.94114 1.15019 3.44676C0.940749 3.95237 0.83329 4.49439 0.833988 5.04167C0.833279 5.58895 0.940732 6.13097 1.15017 6.63659C1.35961 7.14221 1.66691 7.60145 2.0544 7.98792C2.44088 8.3754 2.90013 8.6827 3.40574 8.89214C3.91136 9.10158 4.45338 9.20903 5.00065 9.20834Z" stroke="#474747" stroke-linejoin="round"/>
<path d="M3.33398 5.04297L4.58398 6.29297L7.08398 3.79297" stroke="#474747" stroke-linecap="round" stroke-linejoin="round"/>
</g>
<defs>
<clipPath id="clip0_4959_15501">
<rect width="10" height="10" fill="white" transform="translate(0 0.0429688)"/>
</clipPath>
</defs>
</svg>
