<svg width="11" height="11" viewBox="0 0 11 11" fill="none" xmlns="http://www.w3.org/2000/svg">
<g clip-path="url(#clip0_4959_15477)">
<path d="M6.50195 5.04297C6.50195 5.37449 6.37026 5.69243 6.13584 5.92685C5.90142 6.16127 5.58347 6.29297 5.25195 6.29297C4.92043 6.29297 4.60249 6.16127 4.36807 5.92685C4.13365 5.69243 4.00195 5.37449 4.00195 5.04297C4.00195 4.71145 4.13365 4.39351 4.36807 4.15909C4.60249 3.92466 4.92043 3.79297 5.25195 3.79297C5.58347 3.79297 5.90142 3.92466 6.13584 4.15909C6.37026 4.39351 6.50195 4.71145 6.50195 5.04297Z" stroke="#474747" stroke-linecap="round" stroke-linejoin="round"/>
<path d="M1.08594 5.04167C1.7526 3.33458 3.30927 2.125 5.2526 2.125C7.19594 2.125 8.7526 3.33458 9.41927 5.04167C8.7526 6.74875 7.19594 7.95833 5.2526 7.95833C3.30927 7.95833 1.7526 6.74875 1.08594 5.04167Z" stroke="#474747" stroke-linecap="round" stroke-linejoin="round"/>
</g>
<defs>
<clipPath id="clip0_4959_15477">
<rect width="10" height="10" fill="white" transform="translate(0.251953 0.0429688)"/>
</clipPath>
</defs>
</svg>
