<svg width="16" height="17" viewBox="0 0 16 17" fill="none" xmlns="http://www.w3.org/2000/svg">
<path d="M6.49109 3.1543H9.57257C9.57257 2.74567 9.41024 2.35378 9.1213 2.06484C8.83235 1.77589 8.44046 1.61356 8.03183 1.61356C7.6232 1.61356 7.23131 1.77589 6.94236 2.06484C6.65342 2.35378 6.49109 2.74567 6.49109 3.1543ZM5.33553 3.1543C5.33553 2.80022 5.40527 2.44961 5.54078 2.12248C5.67628 1.79535 5.87489 1.49811 6.12526 1.24773C6.37563 0.997361 6.67287 0.798753 7 0.663251C7.32713 0.52775 7.67775 0.458008 8.03183 0.458008C8.38591 0.458008 8.73653 0.52775 9.06366 0.663251C9.39079 0.798753 9.68802 0.997361 9.9384 1.24773C10.1888 1.49811 10.3874 1.79535 10.5229 2.12248C10.6584 2.44961 10.7281 2.80022 10.7281 3.1543H15.1578C15.311 3.1543 15.458 3.21518 15.5663 3.32353C15.6747 3.43189 15.7355 3.57885 15.7355 3.73208C15.7355 3.88532 15.6747 4.03228 15.5663 4.14063C15.458 4.24899 15.311 4.30986 15.1578 4.30986H14.1409L13.2395 13.6398C13.1704 14.3547 12.8374 15.0182 12.3056 15.5009C11.7738 15.9836 11.0812 16.2509 10.363 16.2506H5.70069C4.9826 16.2507 4.29022 15.9833 3.75855 15.5006C3.22687 15.018 2.89402 14.3546 2.8249 13.6398L1.92279 4.30986H0.905903C0.752667 4.30986 0.605706 4.24899 0.497352 4.14063C0.388998 4.03228 0.328125 3.88532 0.328125 3.73208C0.328125 3.57885 0.388998 3.43189 0.497352 3.32353C0.605706 3.21518 0.752667 3.1543 0.905903 3.1543H5.33553ZM6.87627 6.81356C6.87627 6.66033 6.8154 6.51337 6.70705 6.40501C6.59869 6.29666 6.45173 6.23579 6.2985 6.23579C6.14526 6.23579 5.9983 6.29666 5.88995 6.40501C5.78159 6.51337 5.72072 6.66033 5.72072 6.81356V12.5913C5.72072 12.7446 5.78159 12.8915 5.88995 12.9999C5.9983 13.1082 6.14526 13.1691 6.2985 13.1691C6.45173 13.1691 6.59869 13.1082 6.70705 12.9999C6.8154 12.8915 6.87627 12.7446 6.87627 12.5913V6.81356ZM9.76516 6.23579C9.9184 6.23579 10.0654 6.29666 10.1737 6.40501C10.2821 6.51337 10.3429 6.66033 10.3429 6.81356V12.5913C10.3429 12.7446 10.2821 12.8915 10.1737 12.9999C10.0654 13.1082 9.9184 13.1691 9.76516 13.1691C9.61193 13.1691 9.46497 13.1082 9.35661 12.9999C9.24826 12.8915 9.18738 12.7446 9.18738 12.5913V6.81356C9.18738 6.66033 9.24826 6.51337 9.35661 6.40501C9.46497 6.29666 9.61193 6.23579 9.76516 6.23579ZM3.97506 13.5289C4.01661 13.9577 4.21637 14.3557 4.5354 14.6452C4.85443 14.9348 5.26986 15.0951 5.70069 15.095H10.363C10.7938 15.0951 11.2092 14.9348 11.5283 14.6452C11.8473 14.3557 12.047 13.9577 12.0886 13.5289L12.9807 4.30986H3.08297L3.97506 13.5289Z" fill="#614B98"/>
</svg>
