<svg width="23" height="18" viewBox="0 0 23 18" fill="none" xmlns="http://www.w3.org/2000/svg">
<path fill-rule="evenodd" clip-rule="evenodd" d="M7.41239 0.307211C7.14364 0.361096 6.72489 0.573757 6.50884 0.766051C6.24641 0.999611 0.349247 8.37554 0.292905 8.54074C0.225079 8.73954 0.274096 9.00498 0.41352 9.19378C0.865858 9.80639 6.36226 16.6244 6.50927 16.7552C6.73832 16.959 7.14095 17.1572 7.44632 17.2164C7.59844 17.2459 9.92818 17.2616 14.1438 17.2616C19.8086 17.2616 20.6397 17.2532 20.8629 17.1938C21.6104 16.9949 22.1862 16.4047 22.382 15.6369C22.4794 15.2548 22.4794 2.2661 22.382 1.88395C22.1862 1.11615 21.6104 0.526026 20.8629 0.327091C20.6392 0.267583 19.815 0.259879 14.1054 0.264174C10.529 0.26683 7.5171 0.286179 7.41239 0.307211ZM20.7397 1.7896C20.8055 1.83981 20.8996 1.93589 20.9487 2.00314C21.038 2.12539 21.0381 2.12818 21.0381 8.76044C21.0381 15.3927 21.038 15.3955 20.9487 15.5177C20.8996 15.585 20.8055 15.6811 20.7397 15.7313C20.6203 15.8224 20.6082 15.8226 14.1621 15.8341C8.2423 15.8446 7.69176 15.8395 7.55393 15.7727C7.44242 15.7186 6.6903 14.809 4.64275 12.2519C3.12426 10.3556 1.88187 8.7844 1.88187 8.76044C1.88187 8.73649 3.12395 7.16568 4.64206 5.26979C6.56743 2.8653 7.44567 1.8008 7.54583 1.75023C7.67719 1.68391 8.24048 1.67859 14.1547 1.68798C20.6092 1.6983 20.6202 1.69843 20.7397 1.7896ZM9.24939 5.21857L8.77391 5.70588L10.2684 7.23316L11.7629 8.76044L10.2787 10.2771L8.79458 11.7939L9.28189 12.2918L9.76925 12.7896L11.2539 11.2734L12.7385 9.75716L14.2231 11.2734L15.7078 12.7896L16.1951 12.2918L16.6824 11.7939L15.1983 10.2771L13.7141 8.76044L15.2089 7.23289L16.7036 5.70535L16.2163 5.2075L15.729 4.70961L14.2337 6.23667L12.7385 7.76373L11.2539 6.24751C10.4373 5.41356 9.75928 4.73126 9.7471 4.73126C9.73488 4.73126 9.51095 4.95056 9.24939 5.21857Z" fill="white"/>
</svg>
