<svg width="13" height="14" viewBox="0 0 13 14" fill="none" xmlns="http://www.w3.org/2000/svg">
<path fill-rule="evenodd" clip-rule="evenodd" d="M3.04613 11.7255C3.08075 12.0827 3.24717 12.4143 3.51296 12.6555C3.77875 12.8968 4.12485 13.0304 4.48378 13.0303H8.368C8.72694 13.0304 9.07304 12.8968 9.33882 12.6555C9.60461 12.4143 9.77104 12.0827 9.80565 11.7255L10.5489 4.04498H2.30292L3.04613 11.7255ZM5.32219 5.79048C5.41247 5.88075 5.46318 6.00319 5.46318 6.13085V10.9444C5.46318 11.0721 5.41247 11.1945 5.32219 11.2848C5.23192 11.3751 5.10949 11.4258 4.98182 11.4258C4.85416 11.4258 4.73173 11.3751 4.64146 11.2848C4.55118 11.1945 4.50047 11.0721 4.50047 10.9444V6.13085C4.50047 6.00319 4.55118 5.88075 4.64146 5.79048C4.73173 5.70021 4.85416 5.6495 4.98182 5.6495C5.10949 5.6495 5.23192 5.70021 5.32219 5.79048ZM8.21033 5.79048C8.12006 5.70021 7.99762 5.6495 7.86996 5.6495C7.7423 5.6495 7.61986 5.70021 7.52959 5.79048C7.43932 5.88075 7.3886 6.00319 7.3886 6.13085V10.9444C7.3886 11.0721 7.43932 11.1945 7.52959 11.2848C7.61986 11.3751 7.7423 11.4258 7.86996 11.4258C7.99762 11.4258 8.12006 11.3751 8.21033 11.2848C8.3006 11.1945 8.35132 11.0721 8.35132 10.9444V6.13085C8.35132 6.00319 8.3006 5.88075 8.21033 5.79048Z" fill="#FF4738"/>
<path fill-rule="evenodd" clip-rule="evenodd" d="M5.14228 3.08226H7.70951C7.70951 2.74183 7.57427 2.41534 7.33355 2.17461C7.09282 1.93389 6.76633 1.79865 6.42589 1.79865C6.08546 1.79865 5.75896 1.93389 5.51824 2.17461C5.27751 2.41534 5.14228 2.74183 5.14228 3.08226ZM4.17956 3.08226C4.17956 2.78727 4.23767 2.49517 4.35056 2.22263C4.46344 1.9501 4.62891 1.70246 4.8375 1.49387C5.04609 1.28528 5.29372 1.11982 5.56626 1.00693C5.8388 0.89404 6.1309 0.835938 6.42589 0.835938C6.72088 0.835938 7.01299 0.89404 7.28552 1.00693C7.55806 1.11982 7.8057 1.28528 8.01429 1.49387C8.22288 1.70246 8.38834 1.9501 8.50123 2.22263C8.61412 2.49517 8.67222 2.78727 8.67222 3.08226H12.3626C12.4903 3.08226 12.6127 3.13298 12.703 3.22325C12.7933 3.31352 12.844 3.43596 12.844 3.56362C12.844 3.69128 12.7933 3.81372 12.703 3.90399C12.6127 3.99426 12.4903 4.04498 12.3626 4.04498H11.5154L10.7645 11.8179C10.7069 12.4135 10.4295 12.9663 9.98644 13.3684C9.54336 13.7705 8.96637 13.9932 8.368 13.993H4.48378C3.88553 13.9931 3.3087 13.7703 2.86575 13.3682C2.42281 12.9661 2.1455 12.4134 2.08791 11.8179L1.33636 4.04498H0.489169C0.361505 4.04498 0.23907 3.99426 0.148798 3.90399C0.0585266 3.81372 0.0078125 3.69128 0.0078125 3.56362C0.0078125 3.43596 0.0585266 3.31352 0.148798 3.22325C0.23907 3.13298 0.361505 3.08226 0.489169 3.08226H4.17956ZM3.04613 11.7255C3.08075 12.0827 3.24717 12.4143 3.51296 12.6555C3.77875 12.8968 4.12485 13.0304 4.48378 13.0303H8.368C8.72694 13.0304 9.07304 12.8968 9.33882 12.6555C9.60461 12.4143 9.77104 12.0827 9.80565 11.7255L10.5489 4.04498H2.30292L3.04613 11.7255Z" fill="#FF4738"/>
</svg>
