<svg width="16" height="16" viewBox="0 0 16 16" fill="none" xmlns="http://www.w3.org/2000/svg">
<path fill-rule="evenodd" clip-rule="evenodd" d="M3.64693 13.0709C3.68849 13.4997 3.88825 13.8977 4.20728 14.1872C4.52631 14.4768 4.94173 14.6371 5.37256 14.637H10.0348C10.4657 14.6371 10.8811 14.4768 11.2001 14.1872C11.5192 13.8977 11.7189 13.4997 11.7605 13.0709L12.6526 3.85185H2.75484L3.64693 13.0709ZM6.37892 5.947C6.48728 6.05536 6.54815 6.20232 6.54815 6.35556V12.1333C6.54815 12.2866 6.48728 12.4335 6.37892 12.5419C6.27057 12.6502 6.12361 12.7111 5.97037 12.7111C5.81713 12.7111 5.67017 12.6502 5.56182 12.5419C5.45347 12.4335 5.39259 12.2866 5.39259 12.1333V6.35556C5.39259 6.20232 5.45347 6.05536 5.56182 5.947C5.67017 5.83865 5.81713 5.77778 5.97037 5.77778C6.12361 5.77778 6.27057 5.83865 6.37892 5.947ZM9.84559 5.947C9.73723 5.83865 9.59027 5.77778 9.43704 5.77778C9.2838 5.77778 9.13684 5.83865 9.02849 5.947C8.92013 6.05536 8.85926 6.20232 8.85926 6.35556V12.1333C8.85926 12.2866 8.92013 12.4335 9.02849 12.5419C9.13684 12.6502 9.2838 12.7111 9.43704 12.7111C9.59027 12.7111 9.73723 12.6502 9.84559 12.5419C9.95394 12.4335 10.0148 12.2866 10.0148 12.1333V6.35556C10.0148 6.20232 9.95394 6.05536 9.84559 5.947Z" fill="#FF4738"/>
<path fill-rule="evenodd" clip-rule="evenodd" d="M9.24444 2.6963C9.24444 2.28767 9.08212 1.89577 8.79317 1.60683C8.50423 1.31788 8.11233 1.15556 7.7037 1.15556C7.29507 1.15556 6.90318 1.31788 6.61424 1.60683C6.32529 1.89577 6.16296 2.28767 6.16296 2.6963H9.24444ZM5.00741 2.6963C5.00741 2.34221 5.07715 1.9916 5.21265 1.66447C5.34815 1.33734 5.54676 1.0401 5.79713 0.789727C6.04751 0.539353 6.34475 0.340745 6.67188 0.205243C6.99901 0.0697418 7.34962 0 7.7037 0C8.05779 0 8.4084 0.0697418 8.73553 0.205243C9.06266 0.340745 9.3599 0.539353 9.61027 0.789727C9.86065 1.0401 10.0593 1.33734 10.1948 1.66447C10.3303 1.9916 10.4 2.34221 10.4 2.6963H14.8296C14.9829 2.6963 15.1298 2.75717 15.2382 2.86552C15.3465 2.97388 15.4074 3.12084 15.4074 3.27407C15.4074 3.42731 15.3465 3.57427 15.2382 3.68262C15.1298 3.79098 14.9829 3.85185 14.8296 3.85185H13.8127L12.9114 13.1818C12.8423 13.8967 12.5093 14.5602 11.9775 15.0429C11.4456 15.5256 10.7531 15.7929 10.0348 15.7926H5.37256C4.65447 15.7927 3.96209 15.5253 3.43042 15.0426C2.89875 14.56 2.5659 13.8966 2.49677 13.1818L1.59467 3.85185H0.577778C0.424542 3.85185 0.277581 3.79098 0.169227 3.68262C0.0608728 3.57427 0 3.42731 0 3.27407C0 3.12084 0.0608728 2.97388 0.169227 2.86552C0.277581 2.75717 0.424542 2.6963 0.577778 2.6963H5.00741ZM3.64693 13.0709C3.68849 13.4997 3.88825 13.8977 4.20728 14.1872C4.52631 14.4768 4.94173 14.6371 5.37256 14.637H10.0348C10.4657 14.6371 10.8811 14.4768 11.2001 14.1872C11.5192 13.8977 11.7189 13.4997 11.7605 13.0709L12.6526 3.85185H2.75484L3.64693 13.0709Z" fill="#FF4738"/>
</svg>
