<svg width="24" height="18" viewBox="0 0 24 18" fill="none" xmlns="http://www.w3.org/2000/svg">
<path fill-rule="evenodd" clip-rule="evenodd" d="M8.28252 0.765823C8.00731 0.820447 7.57849 1.03603 7.35725 1.23096C7.08852 1.46772 1.04957 8.94485 0.991874 9.11231C0.922416 9.31384 0.972612 9.58292 1.11539 9.77431C1.5786 10.3953 7.20715 17.3069 7.35769 17.4394C7.59225 17.6461 8.00456 17.847 8.31727 17.907C8.47305 17.9369 10.8588 17.9528 15.1758 17.9528C20.9767 17.9528 21.8278 17.9443 22.0564 17.8841C22.8219 17.6824 23.4115 17.0842 23.612 16.3059C23.7118 15.9185 23.7118 2.75159 23.612 2.36419C23.4115 1.58586 22.8219 0.98764 22.0564 0.785975C21.8274 0.725651 20.9834 0.717841 15.1365 0.722195C11.474 0.724888 8.38975 0.744503 8.28252 0.765823ZM21.9302 2.26855C21.9977 2.31944 22.094 2.41684 22.1443 2.48502C22.2358 2.60895 22.2358 2.61177 22.2358 9.33502C22.2358 16.0583 22.2358 16.0611 22.1443 16.185C22.094 16.2532 21.9977 16.3506 21.9302 16.4015C21.8079 16.4939 21.7956 16.4941 15.1945 16.5057C9.13239 16.5164 8.5686 16.5112 8.42747 16.4435C8.31328 16.3887 7.54308 15.4666 5.4463 12.8744C3.89129 10.952 2.61904 9.35931 2.61904 9.33502C2.61904 9.31074 3.89098 7.71839 5.44559 5.79649C7.41725 3.35901 8.31661 2.2799 8.41917 2.22864C8.55369 2.16141 9.13052 2.15602 15.187 2.16554C21.7967 2.17599 21.8079 2.17613 21.9302 2.26855ZM10.1637 5.74456L9.67677 6.23855L11.2072 7.78679L12.7376 9.33502L11.2178 10.8725L9.69795 12.4101L10.197 12.9148L10.696 13.4195L12.2164 11.8825L13.7367 10.3454L15.257 11.8825L16.7773 13.4195L17.2764 12.9148L17.7754 12.4101L16.2556 10.8725L14.7358 9.33502L16.2665 7.78652L17.7971 6.23801L17.2981 5.73334L16.799 5.22861L15.2679 6.77662L13.7367 8.32464L12.2164 6.78762C11.3802 5.94223 10.6858 5.25056 10.6734 5.25056C10.6609 5.25056 10.4315 5.47287 10.1637 5.74456Z" fill="#474747"/>
</svg>
