<svg width="17" height="15" viewBox="0 0 17 15" fill="none" xmlns="http://www.w3.org/2000/svg">
<path d="M9.01189 10.1384C9.01189 10.8068 9.14706 11.4376 9.38738 12.0158H4.13045C3.00396 12.0158 2.02016 11.6404 1.20909 10.8368C0.405535 10.0483 0 9.07947 0 7.94548C0 6.96919 0.292886 6.09804 0.878659 5.33203C1.46443 4.56602 2.25297 4.07788 3.19171 3.8676C3.50713 2.71859 4.13045 1.78736 5.06919 1.07392C6.00792 0.360475 7.07433 0 8.26089 0C9.72533 0 10.9645 0.510673 11.9858 1.53202C13.0072 2.55337 13.5178 3.7925 13.5178 5.25693H13.5929C11.0396 5.42966 9.01189 7.54745 9.01189 10.1384ZM13.5178 7.13441V6.00792L11.8281 7.69765L13.5178 9.38738V8.26089C14.0158 8.26089 14.4933 8.4587 14.8454 8.81079C15.1975 9.16289 15.3953 9.64043 15.3953 10.1384C15.3953 10.4388 15.3277 10.7241 15.2 10.9795L16.0186 11.7981C16.334 11.3249 16.5218 10.7542 16.5218 10.1384C16.5218 8.47868 15.1775 7.13441 13.5178 7.13441ZM13.5178 12.0158C13.0199 12.0158 12.5423 11.818 12.1903 11.4659C11.8382 11.1139 11.6404 10.6363 11.6404 10.1384C11.6404 9.83797 11.7079 9.5526 11.8356 9.29726L11.017 8.47868C10.7016 8.95181 10.5139 9.52256 10.5139 10.1384C10.5139 11.7981 11.8581 13.1423 13.5178 13.1423V14.2688L15.2076 12.5791L13.5178 10.8894V12.0158Z" fill="#614B98"/>
</svg>
