<svg width="18" height="14" viewBox="0 0 18 14" fill="none" xmlns="http://www.w3.org/2000/svg">
<path fill-rule="evenodd" clip-rule="evenodd" d="M15.8485 0.869357C15.7584 0.895851 15.6416 1.02025 15.6154 1.11774C15.5698 1.28658 15.6375 1.46405 15.7814 1.55343C15.8499 1.59601 15.8738 1.59884 16.2133 1.60476L16.5727 1.61103L15.3451 2.83928C14.2257 3.95919 14.1155 4.07504 14.0949 4.15279C14.0152 4.4551 14.2683 4.70793 14.5709 4.62823C14.6487 4.60774 14.7647 4.49758 15.8857 3.37936L17.1152 2.15298L17.1214 2.512C17.1274 2.85111 17.1302 2.875 17.1728 2.94349C17.1976 2.98337 17.2526 3.03892 17.295 3.06694C17.3592 3.10939 17.3932 3.11789 17.4984 3.11789C17.6037 3.11789 17.6377 3.10939 17.7019 3.06694C17.7442 3.03892 17.7992 2.98337 17.824 2.94349L17.8692 2.87099V1.98646V1.10192L17.8182 1.02492C17.7901 0.98259 17.7345 0.927645 17.6946 0.90286L17.622 0.857791L16.7665 0.854391C16.2598 0.852359 15.8855 0.858474 15.8485 0.869357Z" fill="#26AB23"/>
<path fill-rule="evenodd" clip-rule="evenodd" d="M10.3834 0.251049C9.57557 0.417911 8.94001 0.947564 8.67602 1.67397C8.31891 2.65666 8.68492 3.71142 9.58157 4.28348C9.96379 4.52733 10.3156 4.62524 10.8099 4.62524C11.4523 4.62524 11.9701 4.41931 12.4137 3.98746C12.8572 3.55558 13.0687 3.05139 13.0687 2.4258C13.0687 1.9445 12.9681 1.60184 12.7176 1.22977C12.393 0.747456 11.9432 0.433773 11.3504 0.276267C11.1293 0.217499 10.6113 0.203991 10.3834 0.251049ZM11.2769 1.42429C11.5334 1.54119 11.6994 1.70013 11.8266 1.95079C11.9269 2.14843 11.9328 2.17459 11.9328 2.4258C11.9328 2.677 11.9269 2.70316 11.8266 2.90081C11.6987 3.15276 11.5341 3.30969 11.2698 3.43159C11.0981 3.51082 11.0541 3.5192 10.8099 3.5192C10.5656 3.5192 10.5216 3.51082 10.3499 3.43159C10.0856 3.30969 9.92101 3.15276 9.79314 2.90081C9.69293 2.70338 9.68696 2.67678 9.68696 2.42724C9.68696 2.18779 9.69546 2.14536 9.77693 1.97791C9.89116 1.74312 10.0538 1.57125 10.2659 1.46116C10.4899 1.34496 10.6124 1.31866 10.8738 1.33078C11.0444 1.3387 11.1353 1.35976 11.2769 1.42429ZM4.92524 2.46555C4.11737 2.63241 3.4818 3.16206 3.21782 3.88847C2.8607 4.87116 3.22672 5.92592 4.12337 6.49798C4.50558 6.74182 4.85744 6.83973 5.35166 6.83973C5.99414 6.83973 6.51193 6.63381 6.95547 6.20196C7.39897 5.77007 7.61045 5.26589 7.61045 4.64029C7.61045 4.159 7.50987 3.81633 7.25942 3.44427C6.93477 2.96195 6.48501 2.64827 5.89222 2.49076C5.67105 2.432 5.15309 2.41849 4.92524 2.46555ZM5.81871 3.63879C6.07522 3.75569 6.24118 3.91463 6.3684 4.16528C6.46872 4.36293 6.47458 4.38909 6.47458 4.64029C6.47458 4.8915 6.46872 4.91766 6.3684 5.1153C6.24053 5.36726 6.07593 5.52418 5.81163 5.64609C5.6399 5.72531 5.59589 5.7337 5.35166 5.7337C5.10744 5.7337 5.06343 5.72531 4.8917 5.64609C4.6274 5.52418 4.4628 5.36726 4.33493 5.1153C4.23472 4.91788 4.22875 4.89128 4.22875 4.64173C4.22875 4.40229 4.23725 4.35986 4.31873 4.19241C4.43295 3.95762 4.59559 3.78575 4.80772 3.67566C5.03165 3.55945 5.15417 3.53316 5.4156 3.54528C5.58622 3.5532 5.67711 3.57426 5.81871 3.63879ZM10.287 5.77495C9.65432 5.85293 9.03868 6.05674 8.49673 6.36768C7.86056 6.73266 7.67694 6.96817 7.76897 7.30101C7.81351 7.46209 7.9981 7.64119 8.16452 7.68481C8.37019 7.73876 8.50301 7.70197 8.7631 7.51911C9.42582 7.0531 10.1624 6.83112 10.9378 6.86376C11.8286 6.90127 12.5886 7.22547 13.2146 7.83501C13.8064 8.41131 14.1472 9.13204 14.2112 9.94288L14.2296 10.1765H12.6325C10.9106 10.1765 10.92 10.1758 10.7577 10.3232C10.4467 10.6057 10.5713 11.1423 10.9746 11.2569C11.0468 11.2774 11.6922 11.2841 13.0294 11.2784L14.9788 11.2699L15.094 11.1957C15.1574 11.1548 15.2396 11.0739 15.2767 11.0157C15.3426 10.9126 15.3441 10.8956 15.343 10.2873C15.342 9.757 15.3323 9.61823 15.2783 9.35363C15.1745 8.84573 14.974 8.33253 14.7178 7.91911C14.0372 6.82088 12.9586 6.08038 11.6741 5.82956C11.3514 5.76653 10.5965 5.7368 10.287 5.77495ZM4.91103 7.97923C2.89502 8.18994 1.27944 9.6295 0.883269 11.5681C0.829199 11.8327 0.819561 11.9715 0.818566 12.5018C0.817401 13.1101 0.818936 13.1271 0.884832 13.2302C0.921931 13.2884 1.00417 13.3693 1.06754 13.4102L1.18279 13.4844H5.35166H9.52054L9.63579 13.4102C9.69915 13.3693 9.7814 13.2884 9.81849 13.2302C9.88439 13.1271 9.88593 13.1101 9.88476 12.5018C9.88377 11.9715 9.87413 11.8327 9.82006 11.5681C9.45385 9.77607 8.04898 8.40154 6.21872 8.04453C5.94018 7.99019 5.17274 7.95188 4.91103 7.97923ZM6.0908 9.14879C6.73196 9.29157 7.28529 9.59083 7.75637 10.0495C8.34822 10.6258 8.68899 11.3465 8.75298 12.1574L8.77143 12.391H5.35166H1.9319L1.95069 12.1529C2.01451 11.3446 2.35679 10.622 2.94664 10.0504C3.45616 9.55667 4.09593 9.2294 4.75467 9.12559C4.87194 9.1071 4.98707 9.08745 5.01053 9.08191C5.12941 9.05384 5.87048 9.09971 6.0908 9.14879Z" fill="#26AB23"/>
</svg>
