<svg width="787" height="445" viewBox="0 0 787 445" fill="none" xmlns="http://www.w3.org/2000/svg">
<g opacity="0.4">
<path d="M0 -2.37237C95.1827 -2.48701 189.541 41.3969 250.851 114.307C304.008 177.542 331.399 258.294 376.998 327.17C422.597 396.068 499.618 456.483 580.784 441.35C636.506 430.964 680.799 386.461 707 336.157C733.2 285.831 744.56 229.382 758.576 174.401C772.615 119.42 790.433 63.614 826.734 20.0281C872.791 -35.1821 947.521 -64.9883 1018.86 -56.5967" stroke="#D8D8D8" stroke-miterlimit="10"/>
<path d="M31.8799 -5.83449C121.108 -5.94912 209.557 35.2064 267.043 103.531C316.878 162.8 342.552 238.508 385.288 303.072C428.047 367.66 500.236 424.292 576.318 410.1C628.558 400.355 670.08 358.65 694.632 311.487C719.206 264.324 729.833 211.384 742.979 159.842C756.125 108.3 772.844 55.979 806.877 15.1445C850.048 -36.6037 920.107 -64.5527 986.982 -56.6885" stroke="#D8D8D8" stroke-miterlimit="10"/>
<path d="M63.7607 -9.31944C147.034 -9.41115 229.598 28.9701 283.212 92.7553C329.727 148.057 353.683 218.721 393.579 278.975C433.475 339.253 500.855 392.101 571.852 378.849C620.612 369.77 659.34 330.838 682.265 286.817C705.19 242.795 715.107 193.409 727.383 145.306C739.659 97.2033 755.255 48.39 787.021 10.2609C827.307 -38.048 892.67 -64.117 955.102 -56.7572" stroke="#D8D8D8" stroke-miterlimit="10"/>
<path d="M95.6406 -12.8045C172.959 -12.8962 249.614 22.7566 299.404 81.9563C342.575 133.315 364.836 198.911 401.87 254.855C438.903 310.799 501.473 359.888 567.386 347.598C612.641 339.161 648.621 303.027 669.897 262.146C691.174 221.289 700.403 175.41 711.786 130.77C723.191 86.1063 737.666 40.7779 767.141 5.3773C804.564 -39.4696 865.255 -63.6814 923.222 -56.8489" stroke="#D8D8D8" stroke-miterlimit="10"/>
<path d="M127.544 -16.2895C198.908 -16.3812 269.654 16.5202 315.596 71.1802C355.447 118.572 375.967 179.125 410.161 230.758C444.354 282.392 502.091 327.697 562.92 316.348C604.694 308.552 637.903 275.215 657.53 237.476C677.181 199.76 685.677 157.435 696.19 116.211C706.702 74.9863 720.077 33.1429 747.285 0.493658C781.822 -40.8911 837.841 -63.2458 891.342 -56.9406" stroke="#D8D8D8" stroke-miterlimit="10"/>
</g>
</svg>
