<svg width="710" height="504" viewBox="0 0 710 504" fill="none" xmlns="http://www.w3.org/2000/svg">
<g style="mix-blend-mode:soft-light" opacity="0.5">
<path d="M-163 56.6274C-67.8173 56.5127 26.5409 100.397 87.8509 173.307C141.008 236.542 168.399 317.294 213.998 386.169C259.597 455.068 336.618 515.482 417.784 500.35C473.506 489.964 517.799 445.461 544 395.157C570.2 344.83 581.56 288.382 595.576 233.401C609.615 178.42 627.433 122.614 663.734 79.0279C709.791 23.8176 784.521 -5.98857 855.863 2.40302" stroke="#D8D8D8" stroke-miterlimit="10"/>
<path d="M-131.12 53.1655C-41.8916 53.0509 46.5578 94.2064 104.043 162.531C153.879 221.8 179.552 297.508 222.289 362.072C265.047 426.66 337.236 483.292 413.318 469.1C465.559 459.355 507.081 417.65 531.632 370.487C556.207 323.324 566.833 270.384 579.979 218.842C593.125 167.3 609.844 114.979 643.877 74.1445C687.049 22.3963 757.107 -5.55271 823.982 2.31154" stroke="#D8D8D8" stroke-miterlimit="10"/>
<path d="M-99.2393 49.6806C-15.9658 49.5888 66.5976 87.9701 120.212 151.755C166.727 207.057 190.683 277.721 230.579 337.975C270.475 398.253 337.855 451.101 408.852 437.849C457.612 428.77 496.34 389.838 519.265 345.817C542.19 301.795 552.107 252.409 564.383 204.306C576.659 156.203 592.255 107.39 624.021 69.2609C664.307 20.952 729.67 -5.117 792.102 2.24284" stroke="#D8D8D8" stroke-miterlimit="10"/>
<path d="M-67.3594 46.1953C9.95939 46.1036 86.614 81.7564 136.404 140.956C179.575 192.314 201.836 257.911 238.87 313.855C275.903 369.799 338.473 418.887 404.386 406.598C449.641 398.161 485.621 362.026 506.897 321.146C528.174 280.289 537.403 234.41 548.786 189.769C560.191 145.106 574.666 99.7777 604.141 64.3771C641.564 19.5302 702.255 -4.68162 760.222 2.15088" stroke="#D8D8D8" stroke-miterlimit="10"/>
<path d="M-35.4561 42.7105C35.9081 42.6188 106.654 75.5202 152.596 130.18C192.447 177.572 212.967 238.125 247.161 289.758C281.354 341.392 339.091 386.697 399.92 375.348C441.694 367.552 474.903 334.215 494.53 296.476C514.181 258.76 522.677 216.435 533.19 175.211C543.702 133.986 557.077 92.1429 584.285 59.4937C618.822 18.1089 674.841 -4.24576 728.342 2.0594" stroke="#D8D8D8" stroke-miterlimit="10"/>
</g>
</svg>
