<svg width="20" height="27" viewBox="0 0 20 27" fill="none" xmlns="http://www.w3.org/2000/svg">
<path d="M9.62481 23.0995C9.87776 23.0995 10.1282 23.1493 10.3619 23.2461C10.5956 23.3428 10.808 23.4846 10.9868 23.6633C11.1657 23.8421 11.3076 24.0543 11.4044 24.2878C11.5012 24.5214 11.551 24.7717 11.551 25.0245C11.551 25.2773 11.5012 25.5276 11.4044 25.7611C11.3076 25.9947 11.1657 26.2069 10.9868 26.3857C10.808 26.5644 10.5956 26.7062 10.3619 26.8029C10.1282 26.8997 9.87776 26.9495 9.62481 26.9495C9.11395 26.9495 8.62401 26.7467 8.26278 26.3857C7.90155 26.0247 7.69861 25.535 7.69861 25.0245C7.69861 24.514 7.90155 24.0243 8.26278 23.6633C8.62401 23.3023 9.11395 23.0995 9.62481 23.0995ZM9.62481 15.3997C10.1357 15.3997 10.6256 15.6025 10.9868 15.9635C11.3481 16.3245 11.551 16.8141 11.551 17.3247C11.551 17.8352 11.3481 18.3248 10.9868 18.6858C10.6256 19.0468 10.1357 19.2496 9.62481 19.2496C9.11395 19.2496 8.62401 19.0468 8.26278 18.6858C7.90155 18.3248 7.69861 17.8352 7.69861 17.3247C7.69861 16.8141 7.90155 16.3245 8.26278 15.9635C8.62401 15.6025 9.11395 15.3997 9.62481 15.3997ZM17.3234 15.3997C17.8343 15.3997 18.3242 15.6025 18.6854 15.9635C19.0467 16.3245 19.2496 16.8141 19.2496 17.3247C19.2496 17.8352 19.0467 18.3248 18.6854 18.6858C18.3242 19.0468 17.8343 19.2496 17.3234 19.2496C16.8126 19.2496 16.3226 19.0468 15.9614 18.6858C15.6002 18.3248 15.3972 17.8352 15.3972 17.3247C15.3972 16.8141 15.6002 16.3245 15.9614 15.9635C16.3226 15.6025 16.8126 15.3997 17.3234 15.3997ZM1.92619 15.3997C2.43705 15.3997 2.92699 15.6025 3.28822 15.9635C3.64945 16.3245 3.85239 16.8141 3.85239 17.3247C3.85239 17.8352 3.64945 18.3248 3.28822 18.6858C2.92699 19.0468 2.43705 19.2496 1.92619 19.2496C1.41534 19.2496 0.925401 19.0468 0.564169 18.6858C0.202938 18.3248 0 17.8352 0 17.3247C0 16.8141 0.202938 16.3245 0.564169 15.9635C0.925401 15.6025 1.41534 15.3997 1.92619 15.3997ZM9.62481 7.69985C10.1357 7.69985 10.6256 7.90265 10.9868 8.26365C11.3481 8.62465 11.551 9.11428 11.551 9.62481C11.551 10.1353 11.3481 10.625 10.9868 10.986C10.6256 11.347 10.1357 11.5498 9.62481 11.5498C9.11395 11.5498 8.62401 11.347 8.26278 10.986C7.90155 10.625 7.69861 10.1353 7.69861 9.62481C7.69861 9.11428 7.90155 8.62465 8.26278 8.26365C8.62401 7.90265 9.11395 7.69985 9.62481 7.69985ZM17.3234 7.69985C17.8343 7.69985 18.3242 7.90265 18.6854 8.26365C19.0467 8.62465 19.2496 9.11428 19.2496 9.62481C19.2496 10.1353 19.0467 10.625 18.6854 10.986C18.3242 11.347 17.8343 11.5498 17.3234 11.5498C16.8126 11.5498 16.3226 11.347 15.9614 10.986C15.6002 10.625 15.3972 10.1353 15.3972 9.62481C15.3972 9.11428 15.6002 8.62465 15.9614 8.26365C16.3226 7.90265 16.8126 7.69985 17.3234 7.69985ZM1.92619 7.69985C2.43705 7.69985 2.92699 7.90265 3.28822 8.26365C3.64945 8.62465 3.85239 9.11428 3.85239 9.62481C3.85239 10.1353 3.64945 10.625 3.28822 10.986C2.92699 11.347 2.43705 11.5498 1.92619 11.5498C1.41534 11.5498 0.925401 11.347 0.564169 10.986C0.202938 10.625 0 10.1353 0 9.62481C0 9.11428 0.202938 8.62465 0.564169 8.26365C0.925401 7.90265 1.41534 7.69985 1.92619 7.69985ZM9.62481 0C10.1357 0 10.6256 0.202808 10.9868 0.563808C11.3481 0.924808 11.551 1.41443 11.551 1.92496C11.551 2.43549 11.3481 2.92511 10.9868 3.28611C10.6256 3.64711 10.1357 3.84992 9.62481 3.84992C9.11395 3.84992 8.62401 3.64711 8.26278 3.28611C7.90155 2.92511 7.69861 2.43549 7.69861 1.92496C7.69861 1.41443 7.90155 0.924808 8.26278 0.563808C8.62401 0.202808 9.11395 0 9.62481 0ZM17.3234 0C17.8343 0 18.3242 0.202808 18.6854 0.563808C19.0467 0.924808 19.2496 1.41443 19.2496 1.92496C19.2496 2.43549 19.0467 2.92511 18.6854 3.28611C18.3242 3.64711 17.8343 3.84992 17.3234 3.84992C16.8126 3.84992 16.3226 3.64711 15.9614 3.28611C15.6002 2.92511 15.3972 2.43549 15.3972 1.92496C15.3972 1.41443 15.6002 0.924808 15.9614 0.563808C16.3226 0.202808 16.8126 0 17.3234 0ZM1.92619 0C2.43705 0 2.92699 0.202808 3.28822 0.563808C3.64945 0.924808 3.85239 1.41443 3.85239 1.92496C3.85239 2.43549 3.64945 2.92511 3.28822 3.28611C2.92699 3.64711 2.43705 3.84992 1.92619 3.84992C1.41534 3.84992 0.925401 3.64711 0.564169 3.28611C0.202938 2.92511 0 2.43549 0 1.92496C0 1.41443 0.202938 0.924808 0.564169 0.563808C0.925401 0.202808 1.41534 0 1.92619 0Z" fill="white"/>
</svg>
