<svg width="32" height="32" viewBox="0 0 32 32" fill="none" xmlns="http://www.w3.org/2000/svg">
<circle cx="16" cy="16" r="16" fill="#57A1D7"/>
<path d="M17.3831 7.36706C18.107 7.56241 18.7254 7.9235 19.243 8.45305C19.7467 8.96836 20.0876 9.55581 20.2869 10.2521C20.37 10.542 20.3818 10.6741 20.3818 11.3098C20.3818 11.9433 20.3698 12.0788 20.2876 12.3683C19.8882 13.7754 18.7784 14.8839 17.4156 15.2372C15.9943 15.6055 14.5579 15.1996 13.5249 14.1376C13.043 13.6423 12.7074 13.0568 12.51 12.3676C12.427 12.0776 12.4151 11.9455 12.4151 11.3098C12.4151 10.486 12.4713 10.2061 12.7607 9.5879C13.2791 8.4807 14.2586 7.66668 15.4325 7.36764C15.8863 7.25199 15.9381 7.24705 16.5217 7.26357C16.8965 7.27416 17.1531 7.305 17.3831 7.36706Z" fill="url(#paint0_linear_888_1918)"/>
<path d="M17.8358 17.1606C19.8894 17.5225 21.5697 18.4504 22.9828 20.003C23.2862 20.3364 23.8108 21.0354 23.8108 21.1062C23.8108 21.1813 23.278 21.885 22.9452 22.2495C21.5559 23.7712 19.8849 24.6864 17.8186 25.0572C17.0733 25.1909 15.7236 25.1909 14.9784 25.0572C12.6094 24.632 10.6713 23.4366 9.26748 21.5345C9.11274 21.3248 8.98614 21.1321 8.98614 21.1062C8.98614 21.0804 9.11229 20.8877 9.26645 20.678C10.7531 18.6563 12.9792 17.3676 15.4766 17.083C16.033 17.0196 17.2655 17.0601 17.8358 17.1606Z" fill="url(#paint1_linear_888_1918)"/>
<defs>
<linearGradient id="paint0_linear_888_1918" x1="16.3986" y1="0.510509" x2="16.3986" y2="26.8267" gradientUnits="userSpaceOnUse">
<stop stop-color="#EDEDED"/>
<stop offset="1" stop-color="#FFFFFE"/>
</linearGradient>
<linearGradient id="paint1_linear_888_1918" x1="16.3986" y1="0.510509" x2="16.3986" y2="26.8267" gradientUnits="userSpaceOnUse">
<stop stop-color="#EDEDED"/>
<stop offset="1" stop-color="#FFFFFE"/>
</linearGradient>
</defs>
</svg>
