<svg width="15" height="16" viewBox="0 0 15 16" fill="none" xmlns="http://www.w3.org/2000/svg">
<path d="M6.21533 3.12448H9.1433C9.1433 2.7362 8.98906 2.36383 8.71451 2.08928C8.43996 1.81473 8.06759 1.66049 7.67931 1.66049C7.29104 1.66049 6.91867 1.81473 6.64412 2.08928C6.36957 2.36383 6.21533 2.7362 6.21533 3.12448ZM5.11734 3.12448C5.11734 2.78803 5.1836 2.45489 5.31235 2.14405C5.44111 1.83322 5.62982 1.55079 5.86772 1.31289C6.10562 1.07498 6.38805 0.88627 6.69889 0.757519C7.00972 0.628768 7.34287 0.5625 7.67931 0.5625C8.01576 0.5625 8.34891 0.628768 8.65974 0.757519C8.97058 0.88627 9.25301 1.07498 9.49091 1.31289C9.72881 1.55079 9.91752 1.83322 10.0463 2.14405C10.175 2.45489 10.2413 2.78803 10.2413 3.12448H14.4503C14.5959 3.12448 14.7355 3.18232 14.8385 3.28528C14.9414 3.38823 14.9993 3.52787 14.9993 3.67347C14.9993 3.81908 14.9414 3.95872 14.8385 4.06167C14.7355 4.16463 14.5959 4.22247 14.4503 4.22247H13.484L12.6276 13.0876C12.5619 13.7669 12.2455 14.3974 11.7402 14.856C11.2348 15.3147 10.5768 15.5686 9.89433 15.5684H5.4643C4.78198 15.5684 4.12409 15.3144 3.61891 14.8558C3.11372 14.3971 2.79745 13.7668 2.73177 13.0876L1.8746 4.22247H0.90837C0.762768 4.22247 0.623129 4.16463 0.520172 4.06167C0.417215 3.95872 0.359375 3.81908 0.359375 3.67347C0.359375 3.52787 0.417215 3.38823 0.520172 3.28528C0.623129 3.18232 0.762768 3.12448 0.90837 3.12448H5.11734ZM6.58132 6.60145C6.58132 6.45585 6.52348 6.31621 6.42053 6.21325C6.31757 6.11029 6.17793 6.05245 6.03233 6.05245C5.88673 6.05245 5.74709 6.11029 5.64413 6.21325C5.54117 6.31621 5.48333 6.45585 5.48333 6.60145V12.0914C5.48333 12.237 5.54117 12.3766 5.64413 12.4796C5.74709 12.5826 5.88673 12.6404 6.03233 12.6404C6.17793 12.6404 6.31757 12.5826 6.42053 12.4796C6.52348 12.3766 6.58132 12.237 6.58132 12.0914V6.60145ZM9.3263 6.05245C9.4719 6.05245 9.61154 6.11029 9.7145 6.21325C9.81746 6.31621 9.8753 6.45585 9.8753 6.60145V12.0914C9.8753 12.237 9.81746 12.3766 9.7145 12.4796C9.61154 12.5826 9.4719 12.6404 9.3263 12.6404C9.1807 12.6404 9.04106 12.5826 8.9381 12.4796C8.83515 12.3766 8.77731 12.237 8.77731 12.0914V6.60145C8.77731 6.45585 8.83515 6.31621 8.9381 6.21325C9.04106 6.11029 9.1807 6.05245 9.3263 6.05245ZM3.82463 12.9822C3.86412 13.3897 4.05393 13.7679 4.35706 14.043C4.6602 14.3181 5.05493 14.4705 5.4643 14.4704H9.89433C10.3037 14.4705 10.6984 14.3181 11.0016 14.043C11.3047 13.7679 11.4945 13.3897 11.534 12.9822L12.3816 4.22247H2.97699L3.82463 12.9822Z" fill="#FF4738"/>
</svg>
