<svg width="12" height="12" viewBox="0 0 12 12" fill="none" xmlns="http://www.w3.org/2000/svg">
<path d="M5.26524 2.33491H7.42032C7.42032 2.04913 7.30679 1.77506 7.10471 1.57298C6.90264 1.3709 6.62856 1.25737 6.34278 1.25737C6.057 1.25737 5.78292 1.3709 5.58084 1.57298C5.37876 1.77506 5.26524 2.04913 5.26524 2.33491ZM4.45708 2.33491C4.45708 2.08728 4.50586 1.84207 4.60062 1.61329C4.69539 1.38451 4.83429 1.17663 5.00939 1.00153C5.18449 0.826423 5.39237 0.687524 5.62115 0.592759C5.84994 0.497994 6.09515 0.449219 6.34278 0.449219C6.59041 0.449219 6.83562 0.497994 7.0644 0.592759C7.29319 0.687524 7.50106 0.826423 7.67617 1.00153C7.85127 1.17663 7.99017 1.38451 8.08493 1.61329C8.1797 1.84207 8.22847 2.08728 8.22847 2.33491H11.3264C11.4336 2.33491 11.5363 2.37749 11.6121 2.45327C11.6879 2.52904 11.7305 2.63182 11.7305 2.73899C11.7305 2.84616 11.6879 2.94894 11.6121 3.02472C11.5363 3.1005 11.4336 3.14307 11.3264 3.14307H10.6152L9.98486 9.66811C9.93651 10.1681 9.70365 10.6321 9.3317 10.9697C8.95975 11.3073 8.4754 11.4942 7.9731 11.494H4.71246C4.21025 11.4941 3.72603 11.3071 3.35419 10.9695C2.98236 10.6319 2.74958 10.168 2.70123 9.66811L2.07033 3.14307H1.35916C1.25199 3.14307 1.14921 3.1005 1.07343 3.02472C0.99765 2.94894 0.955078 2.84616 0.955078 2.73899C0.955078 2.63182 0.99765 2.52904 1.07343 2.45327C1.14921 2.37749 1.25199 2.33491 1.35916 2.33491H4.45708ZM5.53462 4.89407C5.53462 4.7869 5.49205 4.68412 5.41627 4.60835C5.34049 4.53257 5.23771 4.48999 5.13055 4.48999C5.02338 4.48999 4.9206 4.53257 4.84482 4.60835C4.76904 4.68412 4.72647 4.7869 4.72647 4.89407V8.93485C4.72647 9.04201 4.76904 9.14479 4.84482 9.22057C4.9206 9.29635 5.02338 9.33892 5.13055 9.33892C5.23771 9.33892 5.34049 9.29635 5.41627 9.22057C5.49205 9.14479 5.53462 9.04201 5.53462 8.93485V4.89407ZM7.55501 4.48999C7.66218 4.48999 7.76496 4.53257 7.84074 4.60835C7.91652 4.68412 7.95909 4.7869 7.95909 4.89407V8.93485C7.95909 9.04201 7.91652 9.14479 7.84074 9.22057C7.76496 9.29635 7.66218 9.33892 7.55501 9.33892C7.44784 9.33892 7.34506 9.29635 7.26929 9.22057C7.19351 9.14479 7.15093 9.04201 7.15093 8.93485V4.89407C7.15093 4.7869 7.19351 4.68412 7.26929 4.60835C7.34506 4.53257 7.44784 4.48999 7.55501 4.48999ZM3.50562 9.59053C3.53468 9.89043 3.67438 10.1688 3.8975 10.3713C4.12062 10.5738 4.41115 10.6859 4.71246 10.6858H7.9731C8.27441 10.6859 8.56494 10.5738 8.78806 10.3713C9.01117 10.1688 9.15088 9.89043 9.17994 9.59053L9.80384 3.14307H2.88172L3.50562 9.59053Z" fill="#FF4738"/>
</svg>
