<svg width="16" height="17" viewBox="0 0 16 17" fill="none" xmlns="http://www.w3.org/2000/svg">
<path d="M6.61607 3.00506H9.7156C9.7156 2.59404 9.55233 2.19985 9.26169 1.90921C8.97105 1.61857 8.57686 1.4553 8.16584 1.4553C7.75481 1.4553 7.36062 1.61857 7.06998 1.90921C6.77935 2.19985 6.61607 2.59404 6.61607 3.00506ZM5.45374 3.00506C5.45374 2.64891 5.52389 2.29624 5.66019 1.96719C5.79648 1.63814 5.99625 1.33916 6.2481 1.08732C6.49994 0.835482 6.79892 0.63571 7.12796 0.499415C7.45701 0.363119 7.80968 0.292969 8.16584 0.292969C8.52199 0.292969 8.87466 0.363119 9.20371 0.499415C9.53276 0.63571 9.83173 0.835482 10.0836 1.08732C10.3354 1.33916 10.5352 1.63814 10.6715 1.96719C10.8078 2.29624 10.8779 2.64891 10.8779 3.00506H15.3335C15.4876 3.00506 15.6355 3.06629 15.7445 3.17528C15.8534 3.28427 15.9147 3.43209 15.9147 3.58623C15.9147 3.74036 15.8534 3.88818 15.7445 3.99717C15.6355 4.10616 15.4876 4.16739 15.3335 4.16739H14.3107L13.4041 13.552C13.3345 14.2711 12.9996 14.9385 12.4646 15.424C11.9297 15.9095 11.2331 16.1784 10.5106 16.1781H5.82104C5.09874 16.1782 4.4023 15.9092 3.86751 15.4237C3.33273 14.9382 2.99793 14.271 2.92839 13.552L2.021 4.16739H0.998155C0.844021 4.16739 0.6962 4.10616 0.587211 3.99717C0.478222 3.88818 0.416992 3.74036 0.416992 3.58623C0.416992 3.43209 0.478222 3.28427 0.587211 3.17528C0.6962 3.06629 0.844021 3.00506 0.998155 3.00506H5.45374ZM7.00351 6.68576C7.00351 6.53163 6.94228 6.38381 6.83329 6.27482C6.7243 6.16583 6.57648 6.1046 6.42235 6.1046C6.26821 6.1046 6.12039 6.16583 6.0114 6.27482C5.90241 6.38381 5.84118 6.53163 5.84118 6.68576V12.4974C5.84118 12.6515 5.90241 12.7994 6.0114 12.9083C6.12039 13.0173 6.26821 13.0786 6.42235 13.0786C6.57648 13.0786 6.7243 13.0173 6.83329 12.9083C6.94228 12.7994 7.00351 12.6515 7.00351 12.4974V6.68576ZM9.90933 6.1046C10.0635 6.1046 10.2113 6.16583 10.3203 6.27482C10.4293 6.38381 10.4905 6.53163 10.4905 6.68576V12.4974C10.4905 12.6515 10.4293 12.7994 10.3203 12.9083C10.2113 13.0173 10.0635 13.0786 9.90933 13.0786C9.75519 13.0786 9.60737 13.0173 9.49838 12.9083C9.38939 12.7994 9.32816 12.6515 9.32816 12.4974V6.68576C9.32816 6.53163 9.38939 6.38381 9.49838 6.27482C9.60737 6.16583 9.75519 6.1046 9.90933 6.1046ZM4.08529 13.4404C4.12709 13.8718 4.32802 14.2721 4.64892 14.5633C4.96982 14.8546 5.38768 15.0159 5.82104 15.0158H10.5106C10.944 15.0159 11.3619 14.8546 11.6827 14.5633C12.0036 14.2721 12.2046 13.8718 12.2464 13.4404L13.1437 4.16739H3.18798L4.08529 13.4404Z" fill="#FF4738"/>
</svg>
