<svg width="14" height="13" viewBox="0 0 14 13" fill="none" xmlns="http://www.w3.org/2000/svg">
<path d="M5.41081 6.57211C6.88357 6.57211 8.07747 5.3711 8.07747 3.88957C8.07747 2.40805 6.88357 1.20703 5.41081 1.20703C3.93805 1.20703 2.74414 2.40805 2.74414 3.88957C2.74414 5.3711 3.93805 6.57211 5.41081 6.57211Z" stroke="#614B98" stroke-width="0.996389" stroke-linecap="round" stroke-linejoin="round"/>
<path d="M1.41113 12.2064V10.8652C1.41113 10.1537 1.69208 9.47139 2.19218 8.96831C2.69228 8.46524 3.37056 8.18262 4.0778 8.18262H6.74447C7.45171 8.18262 8.12999 8.46524 8.63008 8.96831C9.13018 9.47139 9.41113 10.1537 9.41113 10.8652V12.2064M10.7445 4.69531L13.4111 7.37785M13.4111 4.69531L10.7445 7.37785" stroke="#614B98" stroke-width="0.996389" stroke-linecap="round" stroke-linejoin="round"/>
</svg>
