<svg width="16" height="16" viewBox="0 0 16 16" fill="none" xmlns="http://www.w3.org/2000/svg">
<circle cx="7.9707" cy="8.17969" r="7.5" fill="#FF4738"/>
<path d="M11.5249 9.74439L10.3095 9.60563C10.1666 9.58884 10.0217 9.60467 9.88582 9.65191C9.7499 9.69914 9.62646 9.77657 9.52477 9.87837L8.64433 10.7588C7.28597 10.068 6.18189 8.96387 5.49104 7.60551L6.37626 6.7203C6.58202 6.51454 6.6825 6.22744 6.649 5.93556L6.51024 4.72975C6.48311 4.49633 6.37109 4.28103 6.1955 4.12486C6.01992 3.96868 5.79303 3.88253 5.55803 3.88281H4.73023C4.18953 3.88281 3.73975 4.3326 3.77324 4.8733C4.02685 8.95966 7.29497 12.223 11.3765 12.4766C11.9172 12.5101 12.367 12.0603 12.367 11.5196V10.6918C12.3718 10.2085 12.0082 9.80181 11.5249 9.74439Z" fill="white"/>
</svg>
