<svg width="28" height="37" viewBox="0 0 28 37" fill="none" xmlns="http://www.w3.org/2000/svg">
<path d="M26.75 15.2126V31.1297C26.75 32.1701 26.347 33.168 25.6297 33.9037C24.9124 34.6394 23.9395 35.0527 22.925 35.0527H5.075C4.06055 35.0527 3.08764 34.6394 2.37032 33.9037C1.65299 33.168 1.25 32.1701 1.25 31.1297V4.97581C1.25 3.93535 1.65299 2.9375 2.37032 2.20178C3.08764 1.46606 4.06055 1.05273 5.075 1.05273H12.9441C13.6202 1.05284 14.2686 1.3283 14.7467 1.81855L26.0033 13.3638C26.4813 13.8542 26.7499 14.5192 26.75 15.2126Z" stroke="#006BE0" stroke-width="2" stroke-linejoin="round"/>
<path d="M14.1961 2.46875V11.7316C14.1961 12.3867 14.4431 13.015 14.8828 13.4782C15.3226 13.9414 15.919 14.2017 16.5409 14.2017H25.334M8.33398 20.3769H20.0581M8.33398 26.5521H20.0581" stroke="#006BE0" stroke-width="2" stroke-linecap="round" stroke-linejoin="round"/>
</svg>
