<svg width="4" height="13" viewBox="0 0 4 13" fill="none" xmlns="http://www.w3.org/2000/svg">
<path d="M0 6.00888C0 6.4073 0.158253 6.78939 0.439946 7.07112C0.721638 7.35284 1.1037 7.51111 1.50207 7.51111C1.90044 7.51111 2.2825 7.35284 2.56419 7.07112C2.84588 6.78939 3.00414 6.4073 3.00414 6.00888C3.00414 5.61047 2.84588 5.22837 2.56419 4.94665C2.2825 4.66493 1.90044 4.50666 1.50207 4.50666C1.1037 4.50666 0.721638 4.66493 0.439946 4.94665C0.158253 5.22837 0 5.61047 0 6.00888ZM0 1.50222C0 1.90063 0.158253 2.28273 0.439946 2.56445C0.721638 2.84617 1.1037 3.00444 1.50207 3.00444C1.90044 3.00444 2.2825 2.84617 2.56419 2.56445C2.84588 2.28273 3.00414 1.90063 3.00414 1.50222C3.00414 1.10381 2.84588 0.721711 2.56419 0.43999C2.2825 0.158269 1.90044 0 1.50207 0C1.1037 0 0.721638 0.158269 0.439946 0.43999C0.158253 0.721711 0 1.10381 0 1.50222ZM0 10.5155C0 10.914 0.158253 11.2961 0.439946 11.5778C0.721638 11.8595 1.1037 12.0178 1.50207 12.0178C1.90044 12.0178 2.2825 11.8595 2.56419 11.5778C2.84588 11.2961 3.00414 10.914 3.00414 10.5155C3.00414 10.1171 2.84588 9.73504 2.56419 9.45332C2.2825 9.1716 1.90044 9.01333 1.50207 9.01333C1.1037 9.01333 0.721638 9.1716 0.439946 9.45332C0.158253 9.73504 0 10.1171 0 10.5155Z" fill="#474747"/>
</svg>
