<svg width="11" height="11" viewBox="0 0 11 11" fill="none" xmlns="http://www.w3.org/2000/svg">
<rect x="0.820312" y="0.148438" width="10" height="10" rx="5" fill="#26AB23"/>
<path d="M8.12596 6.18897L7.31571 6.09646C7.22044 6.08527 7.12387 6.09582 7.03326 6.12731C6.94264 6.1588 6.86035 6.21042 6.79255 6.27829L6.2056 6.86524C5.30002 6.40468 4.56397 5.66862 4.1034 4.76305L4.69355 4.17291C4.83072 4.03574 4.89771 3.84434 4.87538 3.64975L4.78287 2.84588C4.76478 2.69026 4.6901 2.54673 4.57304 2.44261C4.45599 2.3385 4.30473 2.28106 4.14806 2.28125H3.5962C3.23573 2.28125 2.93587 2.58111 2.9582 2.94158C3.12727 5.66581 5.30603 7.84138 8.02707 8.01045C8.38754 8.03278 8.6874 7.73292 8.6874 7.37245V6.82059C8.69059 6.4984 8.44815 6.22725 8.12596 6.18897Z" fill="white"/>
</svg>
