<svg width="12" height="12" viewBox="0 0 12 12" fill="none" xmlns="http://www.w3.org/2000/svg">
<path d="M7.15124 2.51765L8.51783 1.15106C8.6296 1.03933 8.78116 0.976562 8.93919 0.976562C9.09723 0.976562 9.24879 1.03933 9.36055 1.15106L10.9018 2.69227C11.0135 2.80404 11.0763 2.9556 11.0763 3.11363C11.0763 3.27167 11.0135 3.42323 10.9018 3.53499L9.53518 4.90158M7.15124 2.51765L1.36603 8.30286C1.25425 8.4146 1.19144 8.56617 1.19141 8.72422V10.2654C1.19141 10.4235 1.2542 10.5751 1.36597 10.6869C1.47773 10.7986 1.62933 10.8614 1.78739 10.8614H3.3286C3.48666 10.8614 3.63822 10.7986 3.74996 10.6868L9.53518 4.90158M7.15124 2.51765L9.53518 4.90158" stroke="#614B98" stroke-width="0.926705" stroke-linecap="round" stroke-linejoin="round"/>
</svg>
