<svg width="13" height="14" viewBox="0 0 13 14" fill="none" xmlns="http://www.w3.org/2000/svg">
<path d="M7.85996 3.17228L9.43294 1.59929C9.56159 1.47068 9.73604 1.39844 9.91794 1.39844C10.0998 1.39844 10.2743 1.47068 10.4029 1.59929L12.1769 3.37327C12.3055 3.50192 12.3778 3.67637 12.3778 3.85827C12.3778 4.04017 12.3055 4.21463 12.1769 4.34327L10.6039 5.91626M7.85996 3.17228L1.201 9.83124C1.07234 9.95985 1.00004 10.1343 1 10.3162V12.0902C1 12.2722 1.07227 12.4466 1.20092 12.5753C1.32957 12.7039 1.50406 12.7762 1.686 12.7762H3.45998C3.6419 12.7762 3.81636 12.7039 3.94498 12.5752L10.6039 5.91626M7.85996 3.17228L10.6039 5.91626" stroke="#614B98" stroke-width="1.06667" stroke-linecap="round" stroke-linejoin="round"/>
</svg>
