<svg width="15" height="12" viewBox="0 0 15 12" fill="none" xmlns="http://www.w3.org/2000/svg">
<path d="M12.8 0.578125H1.42222C0.64 0.578125 0.0071111 1.21812 0.0071111 2.00035L0 9.82257C0 10.6048 0.64 11.2448 1.42222 11.2448H12.8C13.5822 11.2448 14.2222 10.6048 14.2222 9.82257V2.00035C14.2222 1.21812 13.5822 0.578125 12.8 0.578125ZM12.5156 3.60035L7.488 6.74346C7.26044 6.88568 6.96178 6.88568 6.73422 6.74346L1.70667 3.60035C1.63536 3.56032 1.57292 3.50624 1.52312 3.44138C1.47332 3.37652 1.4372 3.30223 1.41694 3.22301C1.39669 3.14379 1.39271 3.06128 1.40527 2.98048C1.41782 2.89967 1.44664 2.82226 1.48998 2.75292C1.53332 2.68357 1.59028 2.62375 1.65741 2.57705C1.72454 2.53036 1.80044 2.49778 1.88053 2.48127C1.96062 2.46476 2.04322 2.46468 2.12335 2.48102C2.20347 2.49736 2.27944 2.52979 2.34667 2.57635L7.11111 5.5559L11.8756 2.57635C11.9428 2.52979 12.0188 2.49736 12.0989 2.48102C12.179 2.46468 12.2616 2.46476 12.3417 2.48127C12.4218 2.49778 12.4977 2.53036 12.5648 2.57705C12.6319 2.62375 12.6889 2.68357 12.7322 2.75292C12.7756 2.82226 12.8044 2.89967 12.817 2.98048C12.8295 3.06128 12.8255 3.14379 12.8053 3.22301C12.785 3.30223 12.7489 3.37652 12.6991 3.44138C12.6493 3.50624 12.5869 3.56032 12.5156 3.60035Z" fill="#614B98"/>
</svg>
