<svg width="11" height="14" viewBox="0 0 11 14" fill="none" xmlns="http://www.w3.org/2000/svg">
<path d="M0 1.3125C0 0.964403 0.144865 0.630564 0.402728 0.384422C0.660591 0.138281 1.01033 0 1.375 0H6.875C7.23967 0 7.58941 0.138281 7.84727 0.384422C8.10513 0.630564 8.25 0.964403 8.25 1.3125V5.25H9.625C9.98967 5.25 10.3394 5.38828 10.5973 5.63442C10.8551 5.88056 11 6.2144 11 6.5625V13.5625C11 13.6785 10.9517 13.7898 10.8658 13.8719C10.7798 13.9539 10.6632 14 10.5417 14H8.25V10.9375C8.25 10.8215 8.20171 10.7102 8.11576 10.6281C8.0298 10.5461 7.91322 10.5 7.79167 10.5H3.20833C3.08678 10.5 2.9702 10.5461 2.88424 10.6281C2.79829 10.7102 2.75 10.8215 2.75 10.9375V14H0.458333C0.336776 14 0.220197 13.9539 0.134243 13.8719C0.0482886 13.7898 0 13.6785 0 13.5625V1.3125ZM2.52083 3.9375C2.70317 3.9375 2.87804 3.86836 3.00697 3.74529C3.1359 3.62222 3.20833 3.4553 3.20833 3.28125C3.20833 3.1072 3.1359 2.94028 3.00697 2.81721C2.87804 2.69414 2.70317 2.625 2.52083 2.625C2.3385 2.625 2.16363 2.69414 2.0347 2.81721C1.90577 2.94028 1.83333 3.1072 1.83333 3.28125C1.83333 3.4553 1.90577 3.62222 2.0347 3.74529C2.16363 3.86836 2.3385 3.9375 2.52083 3.9375ZM3.20833 5.90625C3.20833 5.7322 3.1359 5.56528 3.00697 5.44221C2.87804 5.31914 2.70317 5.25 2.52083 5.25C2.3385 5.25 2.16363 5.31914 2.0347 5.44221C1.90577 5.56528 1.83333 5.7322 1.83333 5.90625C1.83333 6.0803 1.90577 6.24722 2.0347 6.37029C2.16363 6.49336 2.3385 6.5625 2.52083 6.5625C2.70317 6.5625 2.87804 6.49336 3.00697 6.37029C3.1359 6.24722 3.20833 6.0803 3.20833 5.90625ZM2.52083 9.1875C2.61112 9.1875 2.70052 9.17053 2.78393 9.13755C2.86734 9.10457 2.94313 9.05623 3.00697 8.99529C3.07081 8.93435 3.12145 8.86201 3.156 8.78239C3.19055 8.70277 3.20833 8.61743 3.20833 8.53125C3.20833 8.44507 3.19055 8.35973 3.156 8.28011C3.12145 8.20049 3.07081 8.12815 3.00697 8.06721C2.94313 8.00627 2.86734 7.95793 2.78393 7.92495C2.70052 7.89197 2.61112 7.875 2.52083 7.875C2.3385 7.875 2.16363 7.94414 2.0347 8.06721C1.90577 8.19028 1.83333 8.3572 1.83333 8.53125C1.83333 8.7053 1.90577 8.87222 2.0347 8.99529C2.16363 9.11836 2.3385 9.1875 2.52083 9.1875ZM5.95833 3.28125C5.95833 3.1072 5.8859 2.94028 5.75697 2.81721C5.62804 2.69414 5.45317 2.625 5.27083 2.625C5.0885 2.625 4.91363 2.69414 4.7847 2.81721C4.65577 2.94028 4.58333 3.1072 4.58333 3.28125C4.58333 3.4553 4.65577 3.62222 4.7847 3.74529C4.91363 3.86836 5.0885 3.9375 5.27083 3.9375C5.45317 3.9375 5.62804 3.86836 5.75697 3.74529C5.8859 3.62222 5.95833 3.4553 5.95833 3.28125ZM5.27083 6.5625C5.45317 6.5625 5.62804 6.49336 5.75697 6.37029C5.8859 6.24722 5.95833 6.0803 5.95833 5.90625C5.95833 5.7322 5.8859 5.56528 5.75697 5.44221C5.62804 5.31914 5.45317 5.25 5.27083 5.25C5.0885 5.25 4.91363 5.31914 4.7847 5.44221C4.65577 5.56528 4.58333 5.7322 4.58333 5.90625C4.58333 6.0803 4.65577 6.24722 4.7847 6.37029C4.91363 6.49336 5.0885 6.5625 5.27083 6.5625ZM5.95833 8.53125C5.95833 8.3572 5.8859 8.19028 5.75697 8.06721C5.62804 7.94414 5.45317 7.875 5.27083 7.875C5.0885 7.875 4.91363 7.94414 4.7847 8.06721C4.65577 8.19028 4.58333 8.3572 4.58333 8.53125C4.58333 8.7053 4.65577 8.87222 4.7847 8.99529C4.91363 9.11836 5.0885 9.1875 5.27083 9.1875C5.45317 9.1875 5.62804 9.11836 5.75697 8.99529C5.8859 8.87222 5.95833 8.7053 5.95833 8.53125ZM8.02083 9.1875C8.11112 9.1875 8.20052 9.17053 8.28393 9.13755C8.36734 9.10457 8.44313 9.05623 8.50697 8.99529C8.57081 8.93435 8.62145 8.86201 8.656 8.78239C8.69055 8.70277 8.70833 8.61743 8.70833 8.53125C8.70833 8.44507 8.69055 8.35973 8.656 8.28011C8.62145 8.20049 8.57081 8.12815 8.50697 8.06721C8.44313 8.00627 8.36734 7.95793 8.28393 7.92495C8.20052 7.89197 8.11112 7.875 8.02083 7.875C7.8385 7.875 7.66363 7.94414 7.5347 8.06721C7.40577 8.19028 7.33333 8.3572 7.33333 8.53125C7.33333 8.7053 7.40577 8.87222 7.5347 8.99529C7.66363 9.11836 7.8385 9.1875 8.02083 9.1875ZM7.33333 11.375V14H5.95833V11.375H7.33333ZM5.04167 11.375H3.66667V14H5.04167V11.375Z" fill="#614B98"/>
</svg>
