<svg width="14" height="13" viewBox="0 0 14 13" fill="none" xmlns="http://www.w3.org/2000/svg">
<path d="M7.18802 1.4849L12.5427 10.7365H1.83335L7.18802 1.4849ZM0.603131 10.0253C0.0555758 10.9711 0.738242 12.1587 1.83335 12.1587H12.5427C13.6378 12.1587 14.3205 10.9711 13.7729 10.0253L8.41824 0.773787C7.87069 -0.171991 6.50535 -0.171991 5.9578 0.773787L0.603131 10.0253ZM6.47691 5.04756V6.46979C6.47691 6.8609 6.79691 7.1809 7.18802 7.1809C7.57913 7.1809 7.89913 6.8609 7.89913 6.46979V5.04756C7.89913 4.65645 7.57913 4.33645 7.18802 4.33645C6.79691 4.33645 6.47691 4.65645 6.47691 5.04756ZM6.47691 7.89201H7.89913V9.31423H6.47691V7.89201Z" fill="black"/>
</svg>
