<svg width="15" height="14" viewBox="0 0 15 14" fill="none" xmlns="http://www.w3.org/2000/svg">
<path d="M0.383789 2.76866C0.383789 2.2944 0.572188 1.83957 0.907539 1.50422C1.24289 1.16887 1.69772 0.980469 2.17198 0.980469H12.9011C13.3754 0.980469 13.8302 1.16887 14.1656 1.50422C14.5009 1.83957 14.6893 2.2944 14.6893 2.76866V11.7096C14.6893 12.1839 14.5009 12.6387 14.1656 12.9741C13.8302 13.3094 13.3754 13.4978 12.9011 13.4978H2.17198C1.69772 13.4978 1.24289 13.3094 0.907539 12.9741C0.572188 12.6387 0.383789 12.1839 0.383789 11.7096V2.76866ZM1.27789 10.8155V11.7096C1.27789 11.9468 1.37209 12.1742 1.53976 12.3419C1.70744 12.5095 1.93485 12.6037 2.17198 12.6037H12.9011C13.1383 12.6037 13.3657 12.5095 13.5334 12.3419C13.701 12.1742 13.7952 11.9468 13.7952 11.7096V8.5803L10.4182 6.83949C10.3344 6.79749 10.2395 6.78292 10.1469 6.79784C10.0543 6.81276 9.96875 6.85642 9.90235 6.92264L6.58525 10.2397L4.20695 8.6554C4.12108 8.59823 4.01808 8.57252 3.91542 8.58262C3.81275 8.59272 3.71674 8.63802 3.64367 8.71083L1.27789 10.8155ZM5.74837 5.00391C5.74837 4.64821 5.60707 4.30709 5.35556 4.05557C5.10405 3.80406 4.76292 3.66276 4.40723 3.66276C4.05153 3.66276 3.71041 3.80406 3.45889 4.05557C3.20738 4.30709 3.06608 4.64821 3.06608 5.00391C3.06608 5.3596 3.20738 5.70073 3.45889 5.95224C3.71041 6.20375 4.05153 6.34505 4.40723 6.34505C4.76292 6.34505 5.10405 6.20375 5.35556 5.95224C5.60707 5.70073 5.74837 5.3596 5.74837 5.00391Z" fill="white"/>
</svg>
