<svg width="22" height="23" viewBox="0 0 22 23" fill="none" xmlns="http://www.w3.org/2000/svg">
<g clip-path="url(#clip0_2_10142)">
<path d="M21.5299 11.6889C21.5299 10.8148 21.4574 10.177 21.3003 9.51562H11.0859V13.4605H17.0815C16.9607 14.4409 16.3079 15.9173 14.8574 16.9093L14.837 17.0414L18.0666 19.486L18.2904 19.5078C20.3453 17.6535 21.5299 14.9251 21.5299 11.6889Z" fill="#4285F4"/>
<path d="M11.0859 22.0823C14.0233 22.0823 16.4892 21.1374 18.2904 19.5075L14.8574 16.909C13.9387 17.535 12.7057 17.972 11.0859 17.972C8.20902 17.972 5.76727 16.1177 4.89685 13.5547L4.76927 13.5653L1.4111 16.1047L1.36719 16.224C3.15619 19.6964 6.83094 22.0823 11.0859 22.0823Z" fill="#34A853"/>
<path d="M4.89711 13.5547C4.66745 12.8933 4.53453 12.1846 4.53453 11.4524C4.53453 10.72 4.66745 10.0114 4.88503 9.34997L4.87895 9.2091L1.4787 6.62891L1.36745 6.68061C0.630115 8.12159 0.207031 9.73975 0.207031 11.4524C0.207031 13.165 0.630115 14.783 1.36745 16.224L4.89711 13.5547Z" fill="#FBBC05"/>
<path d="M11.0859 4.93252C13.1288 4.93252 14.5068 5.79472 15.2925 6.51525L18.3629 3.58607C16.4772 1.87346 14.0233 0.822266 11.0859 0.822266C6.83094 0.822266 3.15619 3.2081 1.36719 6.68055L4.88477 9.3499C5.76727 6.78689 8.20902 4.93252 11.0859 4.93252Z" fill="#EB4335"/>
</g>
<defs>
<clipPath id="clip0_2_10142">
<rect width="21.3333" height="21.3333" fill="white" transform="translate(0.207031 0.822266)"/>
</clipPath>
</defs>
</svg>
