<svg width="17" height="16" viewBox="0 0 17 16" fill="none" xmlns="http://www.w3.org/2000/svg">
<g clip-path="url(#clip0_1055_21128)">
<path d="M8.46773 14.7799C6.65247 14.7799 4.91156 14.0588 3.62798 12.7753C2.34439 11.4917 1.62329 9.75076 1.62329 7.9355C1.62329 6.12024 2.34439 4.37933 3.62798 3.09575C4.91156 1.81217 6.65247 1.09106 8.46773 1.09106C10.283 1.09106 12.0239 1.81217 13.3075 3.09575C14.5911 4.37933 15.3122 6.12024 15.3122 7.9355C15.3122 9.75076 14.5911 11.4917 13.3075 12.7753C12.0239 14.0588 10.283 14.7799 8.46773 14.7799ZM8.46773 15.7577C10.5423 15.7577 12.5319 14.9336 13.9989 13.4667C15.4658 11.9997 16.29 10.0101 16.29 7.9355C16.29 5.86092 15.4658 3.87131 13.9989 2.40436C12.5319 0.937406 10.5423 0.113281 8.46773 0.113281C6.39315 0.113281 4.40353 0.937406 2.93658 2.40436C1.46963 3.87131 0.645508 5.86092 0.645508 7.9355C0.645508 10.0101 1.46963 11.9997 2.93658 13.4667C4.40353 14.9336 6.39315 15.7577 8.46773 15.7577Z" fill="#614B98"/>
<path d="M9.37693 6.55453L7.13782 6.83516L7.05764 7.20671L7.49764 7.28787C7.78511 7.35631 7.84182 7.45996 7.77924 7.74645L7.05764 11.1374C6.86795 12.0144 7.16031 12.4271 7.84769 12.4271C8.38057 12.4271 8.99951 12.1807 9.28013 11.8424L9.36617 11.4356C9.17062 11.6077 8.88511 11.6761 8.69542 11.6761C8.42653 11.6761 8.32875 11.4874 8.39817 11.155L9.37693 6.55453ZM9.44537 4.51293C9.44537 4.77226 9.34236 5.02096 9.15899 5.20433C8.97562 5.3877 8.72692 5.49071 8.4676 5.49071C8.20827 5.49071 7.95957 5.3877 7.7762 5.20433C7.59283 5.02096 7.48982 4.77226 7.48982 4.51293C7.48982 4.25361 7.59283 4.00491 7.7762 3.82154C7.95957 3.63817 8.20827 3.53516 8.4676 3.53516C8.72692 3.53516 8.97562 3.63817 9.15899 3.82154C9.34236 4.00491 9.44537 4.25361 9.44537 4.51293Z" fill="#614B98"/>
</g>
<defs>
<clipPath id="clip0_1055_21128">
<rect width="15.6444" height="15.6444" fill="white" transform="translate(0.645508 0.109375)"/>
</clipPath>
</defs>
</svg>
