<svg width="14" height="14" viewBox="0 0 14 14" fill="none" xmlns="http://www.w3.org/2000/svg">
<path d="M4.7057 5.25C5.33374 5.25 5.93605 4.97343 6.38014 4.48115C6.82422 3.98887 7.07371 3.32119 7.07371 2.625C7.07371 1.9288 6.82422 1.26113 6.38014 0.768844C5.93605 0.276562 5.33374 0 4.7057 0C4.07767 0 3.47536 0.276562 3.03127 0.768844C2.58718 1.26113 2.3377 1.9288 2.3377 2.625C2.3377 3.32119 2.58718 3.98887 3.03127 4.48115C3.47536 4.97343 4.07767 5.25 4.7057 5.25ZM10.6257 6.125C11.1491 6.125 11.651 5.89453 12.0211 5.48429C12.3911 5.07406 12.5991 4.51766 12.5991 3.9375C12.5991 3.35734 12.3911 2.80094 12.0211 2.3907C11.651 1.98047 11.1491 1.75 10.6257 1.75C10.1024 1.75 9.60043 1.98047 9.23036 2.3907C8.86028 2.80094 8.65238 3.35734 8.65238 3.9375C8.65238 4.51766 8.86028 5.07406 9.23036 5.48429C9.60043 5.89453 10.1024 6.125 10.6257 6.125ZM0.455134 12.6245C0.300374 12.5176 0.17607 12.3643 0.0965923 12.1823C0.0171143 12.0004 -0.0142924 11.7973 0.00600277 11.5964C0.151521 10.3285 0.709103 9.16305 1.57426 8.31829C2.43942 7.47353 3.55278 7.00748 4.7057 7.00748C5.85863 7.00748 6.97198 7.47353 7.83714 8.31829C8.7023 9.16305 9.25989 10.3285 9.4054 11.5964C9.45119 12.005 9.26964 12.4014 8.95548 12.6236C7.68722 13.5246 6.21203 14.0023 4.7057 14C3.19918 14.0027 1.72371 13.5253 0.455134 12.6245ZM10.6257 12.25H10.542C10.5973 11.9901 10.6115 11.7154 10.5799 11.4336C10.445 10.2308 10.011 9.09318 9.32647 8.14799C9.76702 7.95583 10.2378 7.86318 10.7111 7.8755C11.1843 7.88781 11.6507 8.00484 12.0826 8.21971C12.5145 8.43458 12.9033 8.74295 13.2263 9.12672C13.5492 9.51049 13.7997 9.96192 13.963 10.4545C14.0132 10.6117 14.0123 10.7835 13.9604 10.94C13.9085 11.0966 13.8089 11.2282 13.6789 11.312C12.7575 11.9278 11.7016 12.2522 10.6257 12.25Z" fill="#614B98"/>
</svg>
