<svg width="21" height="15" viewBox="0 0 21 15" fill="none" xmlns="http://www.w3.org/2000/svg">
<path d="M16.6907 0.464489C17.8987 1.49776 19.1039 2.53369 20.3063 3.57228C19.1206 4.63569 17.8876 5.65708 16.6833 6.70454C16.6859 6.00375 16.679 5.30297 16.6833 4.60272C15.9192 4.60272 15.1551 4.59846 14.3916 4.60272C14.2096 4.60872 14.0307 4.65159 13.8658 4.72872C13.7008 4.80586 13.5532 4.91565 13.4319 5.05148C11.2416 7.33637 9.04767 9.61932 6.84997 11.9003C6.72957 12.0292 6.58438 12.1323 6.42312 12.2037C6.26186 12.2751 6.08785 12.3131 5.91152 12.3156C4.51687 12.3246 3.12115 12.3087 1.72703 12.3246C1.47047 12.3086 1.22926 12.1969 1.05107 12.0116C0.872879 11.8263 0.770675 11.5809 0.764652 11.324C0.763911 11.0502 0.869502 10.7869 1.05916 10.5895C1.24882 10.3921 1.50772 10.2761 1.78127 10.2659C2.88933 10.2552 3.99793 10.2717 5.10599 10.2584C5.30356 10.2466 5.49632 10.1927 5.67137 10.1004C5.84642 10.0081 5.99972 9.87939 6.12101 9.723C8.28114 7.47355 10.4434 5.22499 12.6078 2.97731C12.7293 2.84467 12.8762 2.73772 13.0398 2.66275C13.2033 2.58777 13.3802 2.54631 13.56 2.54078C14.6032 2.53653 15.6464 2.54503 16.6891 2.53653C16.6891 1.84531 16.6811 1.1541 16.6918 0.462891L16.6907 0.464489Z" fill="#474747"/>
<path d="M1.5443 2.53705C3.0522 2.52429 4.56542 2.53705 6.07545 2.53386C6.27044 2.52341 6.46537 2.55552 6.64671 2.62796C6.82805 2.70041 6.99145 2.81144 7.12557 2.95336C7.75351 3.59938 8.374 4.25285 8.99822 4.90205C9.12981 5.03009 9.22697 5.18926 9.28069 5.36483C9.33442 5.5404 9.34296 5.72668 9.30554 5.90643C9.25343 6.12853 9.1289 6.32698 8.95158 6.47051C8.77426 6.61404 8.55423 6.6945 8.32615 6.69921C8.01771 6.69411 7.72266 6.57232 7.50041 6.35838C7.07505 5.90218 6.66245 5.42844 6.22752 4.97862C6.10093 4.85582 5.95102 4.75962 5.78664 4.6957C5.62227 4.63177 5.44675 4.60142 5.27046 4.60643C4.14485 4.60164 3.01924 4.60962 1.89362 4.6027C1.666 4.61089 1.44103 4.55168 1.24693 4.4325C1.05283 4.31332 0.898245 4.13947 0.802572 3.93276C0.747055 3.79295 0.722676 3.64273 0.731128 3.49254C0.73958 3.34235 0.780662 3.1958 0.851514 3.0631C0.922367 2.93041 1.02129 2.81474 1.14139 2.72417C1.26149 2.63359 1.39989 2.57028 1.54695 2.53864L1.5443 2.53705Z" fill="#474747"/>
<path d="M10.7437 8.31042C10.9409 8.1614 11.1854 8.0888 11.432 8.106C11.6785 8.1232 11.9106 8.22904 12.0852 8.40399C12.5552 8.88571 13.0151 9.37753 13.4857 9.85872C13.6087 9.98684 13.7565 10.0885 13.9202 10.1575C14.0838 10.2266 14.2598 10.2615 14.4374 10.2602C15.1876 10.2575 15.9379 10.2634 16.6886 10.2564C16.6812 9.56842 16.686 8.88041 16.6886 8.19239C17.9059 9.22353 19.1162 10.2626 20.3196 11.3097C19.1144 12.3533 17.9052 13.3908 16.6918 14.4223C16.6764 13.7189 16.6918 13.0144 16.6844 12.3109C15.6401 12.3014 14.5959 12.3109 13.5516 12.3067C13.3722 12.3017 13.1956 12.2603 13.0327 12.1849C12.8698 12.1095 12.724 12.0017 12.6041 11.868C11.9315 11.1736 11.2477 10.4899 10.5836 9.78962C10.4936 9.6834 10.4262 9.55993 10.3855 9.42677C10.3448 9.2936 10.3317 9.15354 10.347 9.01514C10.3623 8.87674 10.4056 8.74293 10.4744 8.62185C10.5431 8.50077 10.6359 8.39498 10.7469 8.31095L10.7437 8.31042Z" fill="#474747"/>
</svg>
