<svg width="52" height="52" viewBox="0 0 52 52" fill="none" xmlns="http://www.w3.org/2000/svg">
<circle cx="26" cy="26" r="26" fill="#57A1D7"/>
<path d="M27.904 9.66966C29.2397 10.0286 30.3808 10.692 31.3358 11.6649C32.2651 12.6117 32.8941 13.691 33.262 14.9702C33.4152 15.5029 33.4371 15.7457 33.4371 16.9136C33.4371 18.0775 33.4148 18.3264 33.2632 18.8584C32.5262 21.4435 30.4785 23.4803 27.964 24.1292C25.3414 24.806 22.6912 24.0602 20.7852 22.1091C19.8961 21.199 19.2767 20.1234 18.9125 18.857C18.7593 18.3243 18.7374 18.0816 18.7374 16.9136C18.7374 15.4 18.8411 14.8857 19.3751 13.75C20.3317 11.7157 22.139 10.2201 24.3048 9.67073C25.1422 9.45825 25.2377 9.44918 26.3146 9.47953C27.0061 9.49898 27.4797 9.55564 27.904 9.66966Z" fill="var(--white-color)"/>
<path d="M28.7393 27.6632C32.5284 28.328 35.6288 30.0329 38.2361 32.8855C38.7959 33.4979 39.764 34.7822 39.764 34.9124C39.764 35.0502 38.7809 36.3431 38.1668 37.0129C35.6035 39.8086 32.5203 41.4901 28.7075 42.1714C27.3324 42.4171 24.8421 42.4171 23.467 42.1714C19.0959 41.3903 15.52 39.1939 12.9296 35.6991C12.6441 35.3139 12.4105 34.9599 12.4105 34.9124C12.4105 34.8649 12.6433 34.5108 12.9277 34.1256C15.6709 30.4112 19.7783 28.0435 24.3863 27.5205C25.4128 27.404 27.687 27.4785 28.7393 27.6632Z" fill="var(--white-color)"/>
</svg>
