<svg width="31" height="21" viewBox="0 0 31 21" fill="none" xmlns="http://www.w3.org/2000/svg">
<path d="M0.791992 7.27098V13.9429H5.24181L10.8038 19.5077V1.70954L5.24181 7.27098H0.791992ZM15.81 10.6081C15.8097 9.67601 15.5491 8.76254 15.0578 7.97053C14.5664 7.17851 13.8637 6.53941 13.0287 6.12517V15.0805C13.8641 14.6698 14.5676 14.033 15.0593 13.2425C15.5509 12.4521 15.811 11.539 15.81 10.6081ZM13.0287 0.852114V3.14319C14.636 3.62266 16.0456 4.60814 17.0479 5.95306C18.0502 7.29797 18.5916 8.93048 18.5916 10.6078C18.5916 12.2851 18.0502 13.9176 17.0479 15.2625C16.0456 16.6074 14.636 17.5929 13.0287 18.0724V20.364C15.2403 19.8612 17.2155 18.6219 18.6304 16.8493C20.0452 15.0766 20.8158 12.8759 20.8158 10.6078C20.8158 8.33973 20.0452 6.13897 18.6304 4.36633C17.2155 2.59369 15.2403 1.35492 13.0287 0.852114Z" fill="#474747"/>
<path d="M24.6286 9.25781H30.0974C30.3516 9.25781 30.5385 9.45188 30.3918 9.64377C30.2727 9.79761 27.8686 12.87 27.6629 13.132C27.6249 13.1724 27.5791 13.2046 27.5281 13.2266C27.4772 13.2486 27.4223 13.26 27.3669 13.26C27.3114 13.26 27.2565 13.2486 27.2055 13.2266C27.1546 13.2046 27.1087 13.1724 27.0707 13.132C26.9202 12.9434 24.5034 9.85886 24.3358 9.63609C24.2123 9.47233 24.3485 9.25781 24.6286 9.25781Z" fill="#474747"/>
</svg>
