<svg width="18" height="17" viewBox="0 0 18 17" fill="none" xmlns="http://www.w3.org/2000/svg">
<path d="M0.527344 5.48372V11.0219H4.21948L8.83464 15.6371V0.869088L4.21948 5.48425L0.527344 5.48372ZM12.9878 8.25282C12.988 7.47908 12.772 6.72066 12.3643 6.06306C11.9566 5.40545 11.3733 4.8748 10.6802 4.53091V11.9636C11.3733 11.6228 11.9569 11.0945 12.3648 10.4386C12.7727 9.78279 12.9886 9.02517 12.9878 8.25282ZM10.6828 0.158203V2.05957C12.017 2.45704 13.1872 3.27465 14.0193 4.39075C14.8513 5.50684 15.3008 6.86176 15.3008 8.25389C15.3008 9.64601 14.8513 11.0009 14.0193 12.117C13.1872 13.2331 12.017 14.0507 10.6828 14.4482V16.3496C12.5176 15.9322 14.1561 14.9038 15.3298 13.4331C16.5035 11.9624 17.1428 10.1366 17.1428 8.25495C17.1428 6.37331 16.5035 4.5475 15.3298 3.07679C14.1561 1.60608 12.5176 0.577738 10.6828 0.16033V0.158203Z" fill="#474747"/>
</svg>
