<svg width="34" height="34" viewBox="0 0 34 34" fill="none" xmlns="http://www.w3.org/2000/svg">
<path fill-rule="evenodd" clip-rule="evenodd" d="M13.6152 0.729057C12.2485 1.08213 11.6895 1.28698 10.4366 1.89408C5.60903 4.23341 2.36823 8.70883 1.58131 14.1227C1.37324 15.554 1.45116 17.9808 1.7508 19.4036C2.0105 20.6366 2.53953 22.2081 3.00859 23.1402C3.19587 23.5123 3.34913 23.8766 3.34913 23.9498C3.34913 24.023 2.76143 25.3852 2.04306 26.977L0.736915 29.871L0.733564 30.6434C0.730729 31.2839 0.763116 31.4776 0.923421 31.7782C1.39068 32.6547 2.30062 33.2104 3.26322 33.2072C3.74293 33.2056 4.16663 33.087 6.27001 32.3658C7.61662 31.904 9.18179 31.3694 9.74809 31.1778L10.7779 30.8292L11.2944 31.0254C14.0744 32.0807 16.2855 32.4478 18.6367 32.2443C25.1973 31.6766 30.5864 27.5252 32.685 21.4225C33.0461 20.3727 33.4228 18.599 33.4436 17.8511C33.4628 17.1586 33.1828 16.7003 32.6063 16.4803C31.6762 16.1254 30.8458 16.6999 30.7145 17.7892C30.4562 19.9315 29.5904 22.1666 28.3208 23.9684C27.6409 24.9334 26.1979 26.3749 25.232 27.0541C22.9276 28.6745 20.323 29.4933 17.481 29.4906C15.3375 29.4885 13.6288 29.1014 11.7438 28.1908C10.9268 27.7961 10.4854 27.7592 9.93916 28.0401C9.51331 28.2591 3.67962 30.3584 3.63125 30.3101C3.61304 30.292 4.21543 28.941 4.96987 27.3079C5.72432 25.6748 6.36717 24.2222 6.39844 24.0799C6.47095 23.75 6.30987 23.2605 6.00249 22.8765C5.48661 22.2322 4.75725 20.3341 4.4558 18.8517C4.23398 17.7611 4.154 15.7632 4.28845 14.6707C4.49497 12.9916 4.92512 11.612 5.71169 10.1061C6.3615 8.86194 7.03004 7.95884 8.07409 6.91473C9.96519 5.0234 11.9852 3.94728 15.0123 3.21848C16.3254 2.9024 16.5448 1.1864 15.3418 0.640575C14.8816 0.431771 14.737 0.439237 13.6152 0.729057ZM21.2181 2.20407C21.1 2.25119 20.9127 2.37426 20.8018 2.47759C20.3525 2.89674 20.359 2.82688 20.3593 7.27415C20.3596 11.1901 20.3686 11.4341 20.5223 11.6858C20.721 12.0114 21.172 12.2993 21.5187 12.3218C21.6605 12.3311 23.5394 12.3345 25.6941 12.3296C29.6082 12.3205 29.6119 12.3203 29.8957 12.1274C30.5553 11.6789 30.7579 10.9368 30.3923 10.3085C30.0078 9.64746 29.8931 9.6206 27.329 9.59039L25.0638 9.56361L27.7777 6.88701C30.1768 4.52074 30.5022 4.16801 30.5831 3.84558C30.8297 2.86249 29.9813 1.96309 28.9795 2.14571C28.6893 2.19867 28.3121 2.54169 25.8786 4.96572L23.108 7.72549V5.49258C23.108 3.34773 23.1004 3.24466 22.9147 2.87683C22.6072 2.26749 21.8313 1.95982 21.2181 2.20407Z" fill="url(#paint0_linear_1055_17079)"/>
<defs>
<linearGradient id="paint0_linear_1055_17079" x1="42.7197" y1="16.5744" x2="-14.7017" y2="16.5744" gradientUnits="userSpaceOnUse">
<stop offset="0.163" stop-color="#6533E2"/>
<stop offset="0.334" stop-color="#7349DE"/>
<stop offset="0.715" stop-color="#1F97EF"/>
</linearGradient>
</defs>
</svg>
