<svg width="16" height="16" viewBox="0 0 16 16" fill="none" xmlns="http://www.w3.org/2000/svg">
<path fill-rule="evenodd" clip-rule="evenodd" d="M15.1806 0.323763C15.1006 0.347563 14.6393 0.791967 13.1615 2.26869L11.246 4.18277L11.2363 3.6225C11.227 3.0933 11.2226 3.05602 11.1562 2.94914C11.1176 2.8869 11.0319 2.8002 10.9658 2.75649C10.8658 2.69024 10.8129 2.67697 10.6489 2.67697C10.485 2.67697 10.432 2.69024 10.332 2.75649C10.266 2.8002 10.1803 2.8869 10.1416 2.94914L10.0714 3.06227V4.44048V5.81868L10.1416 5.93181C10.1803 5.99405 10.266 6.08075 10.332 6.12446L10.4521 6.20399H11.8337H13.2153L13.3354 6.12446C13.5209 6.00161 13.596 5.85733 13.596 5.62387C13.596 5.46213 13.5825 5.40863 13.5165 5.30889C13.4728 5.24283 13.3862 5.15708 13.324 5.1184C13.2172 5.05195 13.1799 5.04754 12.6511 5.03829L12.0912 5.02851L14.0038 3.11177C15.7476 1.36409 15.9194 1.18329 15.9514 1.06195C16.0517 0.681237 15.8181 0.333514 15.443 0.305001C15.3557 0.298362 15.2376 0.306809 15.1806 0.323763ZM3.52557 1.90787C3.38209 1.98155 1.51326 3.8656 1.35154 4.09963C0.863627 4.80566 0.699656 5.69263 0.904975 6.51519C0.993298 6.86905 1.2439 7.36864 1.47736 7.65629C1.77133 8.0185 8.524 14.7502 8.75769 14.914C9.72937 15.5952 10.9926 15.6413 12.0186 15.0332C12.2269 14.9097 12.414 14.7387 13.2802 13.8804C13.8396 13.3262 14.3228 12.8232 14.3539 12.7628C14.4282 12.6184 14.428 12.3854 14.3534 12.2417C14.322 12.1812 13.6922 11.5293 12.9539 10.7931C11.8131 9.65546 11.5937 9.44964 11.4931 9.42247C11.1733 9.33616 11.1029 9.37495 10.4988 9.97096C10.1881 10.2774 9.93321 10.5043 9.86944 10.5309C9.72523 10.5912 9.53406 10.5864 9.39012 10.5188C9.22283 10.4403 5.81091 7.0168 5.74803 6.8644C5.68988 6.72349 5.69006 6.5432 5.74847 6.40331C5.7767 6.33576 5.99247 6.09317 6.30785 5.77443C6.82565 5.25113 6.88699 5.16479 6.88699 4.95916C6.88699 4.72939 6.87206 4.71194 5.48533 3.31948C4.74957 2.5807 4.0981 1.95049 4.03768 1.91904C3.90342 1.84921 3.65056 1.8437 3.52557 1.90787ZM4.62043 4.11341L5.44831 4.94223L5.22614 5.173C4.92012 5.49082 4.80274 5.64218 4.69726 5.85493C4.5795 6.09245 4.51869 6.35766 4.51869 6.63375C4.51869 7.0938 4.67253 7.47801 5.00983 7.86047C5.42414 8.33016 8.49767 11.3666 8.66445 11.471C9.23192 11.8261 9.88612 11.8566 10.4653 11.5551C10.6311 11.4688 10.7869 11.3496 11.0158 11.1338L11.3352 10.8328L12.1694 11.6686L13.0036 12.5043L12.278 13.2231C11.6587 13.8365 11.521 13.9581 11.339 14.0528C10.7888 14.339 10.2124 14.3496 9.6715 14.0835C9.45664 13.9779 9.33236 13.8573 5.87628 10.4003C2.39842 6.92169 2.30032 6.82047 2.19574 6.60411C1.93139 6.05721 1.94241 5.48471 2.22793 4.93544C2.32224 4.75397 2.44492 4.61457 3.04838 4.0033C3.43861 3.60798 3.76572 3.28456 3.77523 3.28456C3.78473 3.28456 4.16507 3.65754 4.62043 4.11341Z" fill="#474747"/>
</svg>
