<svg width="17" height="18" viewBox="0 0 17 18" fill="none" xmlns="http://www.w3.org/2000/svg">
<path d="M16.065 11.9318C14.9033 11.9318 13.7794 11.7391 12.7311 11.3921C12.5669 11.3353 12.3903 11.3269 12.2216 11.3678C12.0529 11.4087 11.8989 11.4973 11.7772 11.6234L10.2944 13.522C7.62167 12.2209 5.11889 9.76345 3.78722 6.93975L5.62889 5.33998C5.88389 5.07014 5.95944 4.69429 5.85556 4.35699C5.50611 3.28726 5.32667 2.14043 5.32667 0.955058C5.32667 0.43465 4.90167 0.000976563 4.39167 0.000976563H1.12389C0.613889 0.000976562 0 0.232269 0 0.955058C0 9.90801 7.30056 17.3479 16.065 17.3479C16.7356 17.3479 17 16.7408 17 16.2107V12.8859C17 12.3655 16.575 11.9318 16.065 11.9318Z" fill="white"/>
<line x1="11.0572" y1="6.56307" x2="11.0572" y2="1.60396" stroke="white" stroke-width="1.57699" stroke-linecap="round"/>
<line x1="15.9028" y1="1.60734" x2="15.9028" y2="6.56645" stroke="white" stroke-width="1.57699" stroke-linecap="round"/>
</svg>
