<svg width="19" height="19" viewBox="0 0 19 19" fill="none" xmlns="http://www.w3.org/2000/svg">
<path d="M16.8923 13.4288C15.675 13.4161 14.4993 13.2058 13.4045 12.8381C13.233 12.778 13.048 12.7674 12.8708 12.8076C12.6936 12.8477 12.5312 12.937 12.4024 13.0652L10.8283 14.9987C8.04143 13.6334 5.44509 11.0824 4.07987 8.16806L6.02688 6.54531C6.29698 6.27099 6.38018 5.88584 6.27493 5.53831C5.9202 4.43595 5.74444 3.25627 5.75713 2.03896C5.76271 1.50453 5.32199 1.05453 4.78756 1.04896L1.36327 1.01326C0.82884 1.00768 0.18307 1.2385 0.175331 1.98076C0.0794681 11.1749 7.65004 18.895 16.8343 18.9908C17.537 18.9981 17.8206 18.3775 17.8262 17.8332L17.8618 14.4188C17.8674 13.8843 17.4267 13.4343 16.8923 13.4288Z" fill="white"/>
<path d="M16.5356 6.80668L12.3518 2.5338C12.9223 2.12468 13.6185 1.92599 14.3211 1.97401C15.0613 2.02461 15.7571 2.34542 16.2762 2.87547C16.7953 3.40552 17.1016 4.10784 17.1367 4.84891C17.1701 5.55267 16.9568 6.24478 16.5356 6.80668ZM11.6935 3.179L15.8777 7.45135C15.3072 7.86046 14.611 8.05915 13.9084 8.01112C13.1682 7.96053 12.4724 7.63972 11.9533 7.10967C11.4342 6.57962 11.1279 5.8773 11.0928 5.13622C11.0594 4.43269 11.2726 3.7408 11.6935 3.179ZM16.8761 7.81233C17.6239 7.07998 18.0501 6.08057 18.061 5.03395C18.0719 3.98734 17.6666 2.97926 16.9343 2.23148C16.2019 1.4837 15.2025 1.05747 14.1559 1.04655C13.1093 1.03564 12.1012 1.44094 11.3534 2.17329C10.6056 2.90564 10.1794 3.90505 10.1685 4.95166C10.1576 5.99828 10.5629 7.00636 11.2952 7.75414C12.0276 8.50192 13.027 8.92815 14.0736 8.93906C15.1202 8.94998 16.1283 8.54468 16.8761 7.81233Z" fill="white" stroke="white" stroke-width="0.2"/>
</svg>
