<svg width="15" height="15" viewBox="0 0 15 15" fill="none" xmlns="http://www.w3.org/2000/svg">
<path d="M7.84366 7.73548C8.54252 7.73548 9.22569 7.52824 9.80677 7.13998C10.3879 6.75171 10.8408 6.19985 11.1082 5.55419C11.3756 4.90852 11.4456 4.19805 11.3093 3.51262C11.1729 2.82718 10.8364 2.19757 10.3422 1.7034C9.84805 1.20923 9.21844 0.872695 8.53301 0.736354C7.84758 0.600013 7.1371 0.669988 6.49144 0.937431C5.84577 1.20487 5.29392 1.65777 4.90565 2.23886C4.51738 2.81994 4.31014 3.50311 4.31014 4.20197C4.30996 4.66605 4.40123 5.12562 4.57874 5.55441C4.75624 5.9832 5.01651 6.3728 5.34467 6.70096C5.67282 7.02911 6.06243 7.28938 6.49122 7.46689C6.92001 7.6444 7.37958 7.73567 7.84366 7.73548ZM7.84366 9.50188C5.48561 9.50188 0.777344 10.6859 0.777344 13.0354V14.8018H14.91V13.0354C14.91 10.6859 10.2024 9.50188 7.84366 9.50188Z" fill="#604D99"/>
</svg>
