<svg width="13" height="17" viewBox="0 0 13 17" fill="none" xmlns="http://www.w3.org/2000/svg">
<path d="M11.0767 6.11649H10.3208V4.60395C10.3208 3.60099 9.92239 2.6391 9.21318 1.9299C8.50398 1.22069 7.54209 0.822266 6.53913 0.822266C5.53616 0.822266 4.57427 1.22069 3.86507 1.9299C3.15586 2.6391 2.75744 3.60099 2.75744 4.60395V6.11649H2.00081C1.60001 6.11761 1.21595 6.27733 0.932536 6.56074C0.649124 6.84415 0.489407 7.22822 0.488281 7.62902V15.1924C0.489407 15.5932 0.649124 15.9773 0.932536 16.2607C1.21595 16.5441 1.60001 16.7038 2.00081 16.7049H11.0767C11.4775 16.7038 11.8616 16.5441 12.145 16.2607C12.4284 15.9773 12.5881 15.5932 12.5893 15.1924V7.62902C12.5881 7.22822 12.4284 6.84415 12.145 6.56074C11.8616 6.27733 11.4775 6.11761 11.0767 6.11649ZM6.53913 12.9232C6.23997 12.9232 5.94754 12.8345 5.69881 12.6683C5.45007 12.5021 5.25621 12.2659 5.14173 11.9895C5.02725 11.7132 4.99729 11.409 5.05566 11.1156C5.11402 10.8222 5.25807 10.5527 5.4696 10.3412C5.68113 10.1297 5.95064 9.9856 6.24405 9.92724C6.53745 9.86888 6.84157 9.89883 7.11795 10.0133C7.39433 10.1278 7.63055 10.3217 7.79675 10.5704C7.96295 10.8191 8.05166 11.1116 8.05166 11.4107C8.05053 11.8115 7.89082 12.1956 7.6074 12.479C7.32399 12.7624 6.93993 12.9221 6.53913 12.9232ZM8.88579 6.11649H4.19459V4.60395C4.22039 3.99945 4.47867 3.42827 4.91554 3.00965C5.3524 2.59103 5.93407 2.35733 6.53913 2.35733C7.14418 2.35733 7.72585 2.59103 8.16272 3.00965C8.59958 3.42827 8.85787 3.99945 8.88366 4.60395L8.88579 6.11649Z" fill="#604D99"/>
</svg>
