<svg width="15" height="18" viewBox="0 0 15 18" fill="none" xmlns="http://www.w3.org/2000/svg">
<path d="M6.00698 1.56433C6.1834 1.34205 6.40776 1.16251 6.6633 1.03909C6.91883 0.915665 7.19895 0.851562 7.48273 0.851562C7.76651 0.851562 8.04662 0.915665 8.30216 1.03909C8.5577 1.16251 8.78205 1.34205 8.95848 1.56433L14.6919 8.79905C15.3403 9.61829 14.7542 10.8203 13.7081 10.8203H11.2416V13.3217C11.2416 14.0112 10.6805 14.5699 9.98845 14.5699H4.97576C4.81152 14.5702 4.64882 14.5382 4.49696 14.4756C4.34509 14.4131 4.20704 14.3212 4.09067 14.2053C3.9743 14.0894 3.8819 13.9517 3.81875 13.8001C3.75559 13.6485 3.72292 13.4859 3.72259 13.3217V10.8203H1.25615C0.208723 10.8203 -0.377337 9.61704 0.272317 8.8003L6.00698 1.56433ZM4.36476 15.8156C4.19941 15.8156 4.04083 15.8812 3.9239 15.9982C3.80698 16.1151 3.74129 16.2737 3.74129 16.439C3.74129 16.6044 3.80698 16.763 3.9239 16.8799C4.04083 16.9968 4.19941 17.0625 4.36476 17.0625H10.5994C10.7648 17.0625 10.9234 16.9968 11.0403 16.8799C11.1572 16.763 11.2229 16.6044 11.2229 16.439C11.2229 16.2737 11.1572 16.1151 11.0403 15.9982C10.9234 15.8812 10.7648 15.8156 10.5994 15.8156H4.36476Z" fill="#474747"/>
</svg>
