<svg width="14" height="14" viewBox="0 0 14 14" fill="none" xmlns="http://www.w3.org/2000/svg">
<path d="M3.48658 0.0580006C2.48818 -0.138977 1.50471 0.502445 1.30418 1.49658C0.518399 5.37569 0.518399 8.60556 1.30418 12.4861C1.47982 13.3572 2.25493 13.9602 3.12107 13.9602C3.24195 13.9602 3.36427 13.9488 3.48729 13.9247C4.49138 13.7263 5.14347 12.7599 4.94222 11.7657C4.24675 8.32965 4.24675 5.6516 4.94222 2.21551C5.14276 1.2228 4.49067 0.256401 3.48658 0.0580006ZM12.0896 1.30244H5.99964C6.05636 1.6418 6.05227 1.98853 5.98755 2.32645C5.32195 5.68289 5.32195 8.29836 5.98755 11.6562C6.05724 12.0047 6.05155 12.3481 5.99964 12.6802H12.0896C12.8718 12.6802 13.5118 12.0402 13.5118 11.258V2.72467C13.5118 1.94245 12.8725 1.30244 12.0896 1.30244ZM8.53404 10.1913C8.25105 10.1912 7.97969 10.0787 7.77965 9.87856C7.57961 9.67839 7.46728 9.40695 7.46738 9.12395C7.46747 8.84096 7.57998 8.5696 7.78015 8.36956C7.98032 8.16952 8.25176 8.05719 8.53476 8.05729C8.81775 8.05738 9.08911 8.16989 9.28915 8.37006C9.48919 8.57024 9.60152 8.84167 9.60142 9.12467C9.60133 9.40766 9.48882 9.67902 9.28865 9.87906C9.08848 10.0791 8.81704 10.1914 8.53404 10.1913ZM12.0896 6.28022H7.11182V3.43578H12.0896V6.28022Z" fill="#614B98"/>
</svg>
