<svg width="16" height="9" viewBox="0 0 16 9" fill="none" xmlns="http://www.w3.org/2000/svg">
<path d="M1.7904 4.43226C2.00449 3.24232 3.05966 2.42474 4.20658 2.42474H6.4469C6.8445 2.42474 7.17328 2.07666 7.17328 1.65573C7.17328 1.2348 6.8445 0.886719 6.4469 0.886719H4.28304C2.2874 0.886719 0.505852 2.43283 0.314699 4.53749C0.261835 5.09946 0.320755 5.66691 0.487663 6.20331C0.65457 6.7397 0.925763 7.23312 1.28377 7.65179C1.64178 8.07046 2.07866 8.4051 2.56626 8.63413C3.05387 8.86316 3.58139 8.98151 4.11483 8.98155H6.4469C6.8445 8.98155 7.17328 8.63348 7.17328 8.21254C7.17328 7.79161 6.8445 7.44354 6.4469 7.44354H4.11483C3.76362 7.44239 3.41701 7.3589 3.09991 7.19906C2.78281 7.03922 2.50309 6.807 2.28085 6.51908C2.05861 6.23117 1.89936 5.89472 1.81457 5.5339C1.72977 5.17308 1.72151 4.79685 1.7904 4.43226ZM5.64405 5.74362H10.2317C10.6523 5.74362 10.9963 5.37935 10.9963 4.93414C10.9963 4.48892 10.6523 4.12465 10.2317 4.12465H5.64405C5.22352 4.12465 4.87944 4.48892 4.87944 4.93414C4.87944 5.37935 5.22352 5.74362 5.64405 5.74362ZM11.5927 0.886719H9.42889C9.03129 0.886719 8.70251 1.2348 8.70251 1.65573C8.70251 2.07666 9.03129 2.42474 9.42889 2.42474H11.6692C12.8161 2.42474 13.8713 3.24232 14.0854 4.43226C14.1543 4.79685 14.146 5.17308 14.0612 5.5339C13.9764 5.89472 13.8172 6.23117 13.5949 6.51908C13.3727 6.807 13.093 7.03922 12.7759 7.19906C12.4588 7.3589 12.1122 7.44239 11.761 7.44354H9.42889C9.03129 7.44354 8.70251 7.79161 8.70251 8.21254C8.70251 8.63348 9.03129 8.98155 9.42889 8.98155H11.761C13.9936 8.98155 15.7828 6.94975 15.5687 4.53749C15.3776 2.43283 13.5884 0.886719 11.5927 0.886719Z" fill="white"/>
</svg>
