<svg width="12" height="11" viewBox="0 0 12 11" fill="none" xmlns="http://www.w3.org/2000/svg">
<path d="M11.0168 9.31568L7.55365 5.85257C7.86786 5.19667 7.97077 4.45943 7.8482 3.74256C7.72562 3.02569 7.3836 2.36452 6.86933 1.85028C5.49652 0.477479 3.2652 0.477479 1.89239 1.85028C0.519588 3.22309 0.519589 5.45441 1.89239 6.82722C2.40663 7.3415 3.0678 7.68351 3.78467 7.80609C4.50154 7.92866 5.23878 7.82575 5.89468 7.51154L6.03984 7.65671L6.03984 9.31568H7.69882V10.9747L11.0334 10.9581L11.0168 9.31568ZM3.13663 5.58298C2.4523 4.89865 2.4523 3.77884 3.13663 3.09452C3.82095 2.41019 4.94076 2.41019 5.62509 3.09452C6.30942 3.77884 6.30942 4.89865 5.62509 5.58298C4.94076 6.26731 3.82095 6.26731 3.13663 5.58298Z" fill="white"/>
</svg>
