<svg width="11" height="11" viewBox="0 0 11 11" fill="none" xmlns="http://www.w3.org/2000/svg">
<path d="M5.45539 5.25474C5.96789 5.25474 6.46888 5.10277 6.895 4.81804C7.32113 4.53331 7.65326 4.12861 7.84938 3.65513C8.04551 3.18164 8.09682 2.66063 7.99684 2.15798C7.89685 1.65533 7.65006 1.19361 7.28767 0.831222C6.92528 0.468831 6.46357 0.22204 5.96092 0.122057C5.45826 0.0220733 4.93725 0.0733883 4.46377 0.269513C3.99028 0.465637 3.58558 0.797763 3.30086 1.22389C3.01613 1.65002 2.86415 2.15101 2.86415 2.6635C2.86402 3.00383 2.93095 3.34084 3.06112 3.65529C3.19129 3.96973 3.38216 4.25544 3.6228 4.49609C3.86345 4.73674 4.14916 4.9276 4.4636 5.05777C4.77805 5.18795 5.11507 5.25488 5.45539 5.25474ZM5.45539 6.5501C3.72616 6.5501 0.273438 7.41836 0.273438 9.14133V10.4367H10.6373V9.14133C10.6373 7.41836 7.18514 6.5501 5.45539 6.5501Z" fill="white"/>
</svg>
