<svg width="11" height="11" viewBox="0 0 11 11" fill="none" xmlns="http://www.w3.org/2000/svg">
<path d="M3.90616 0.786133H1.47043C1.17724 0.787588 0.896481 0.904701 0.689165 1.11202C0.481849 1.31933 0.364736 1.6001 0.363281 1.89328V4.32901C0.364736 4.62219 0.481849 4.90296 0.689165 5.11027C0.896481 5.31759 1.17724 5.4347 1.47043 5.43616H3.90616C4.19934 5.4347 4.4801 5.31759 4.68742 5.11027C4.89474 4.90296 5.01185 4.62219 5.0133 4.32901V1.89328C5.01185 1.6001 4.89474 1.31933 4.68742 1.11202C4.4801 0.904701 4.19934 0.787588 3.90616 0.786133ZM3.68473 4.10758H1.69186V2.11471H3.68473V4.10758ZM3.90616 6.32187H1.47043C1.17724 6.32333 0.896481 6.44044 0.689165 6.64776C0.481849 6.85507 0.364736 7.13584 0.363281 7.42902V9.86475C0.364736 10.1579 0.481849 10.4387 0.689165 10.646C0.896481 10.8533 1.17724 10.9704 1.47043 10.9719H3.90616C4.19934 10.9704 4.4801 10.8533 4.68742 10.646C4.89474 10.4387 5.01185 10.1579 5.0133 9.86475V7.42902C5.01185 7.13584 4.89474 6.85507 4.68742 6.64776C4.4801 6.44044 4.19934 6.32333 3.90616 6.32187ZM3.68473 9.64332H1.69186V7.65045H3.68473V9.64332ZM9.4419 0.786133H7.00617C6.71299 0.787588 6.43222 0.904701 6.22491 1.11202C6.01759 1.31933 5.90048 1.6001 5.89902 1.89328V4.32901C5.90048 4.62219 6.01759 4.90296 6.22491 5.11027C6.43222 5.31759 6.71299 5.4347 7.00617 5.43616H9.4419C9.73508 5.4347 10.0158 5.31759 10.2232 5.11027C10.4305 4.90296 10.5476 4.62219 10.549 4.32901V1.89328C10.5476 1.6001 10.4305 1.31933 10.2232 1.11202C10.0158 0.904701 9.73508 0.787588 9.4419 0.786133ZM9.22047 4.10758H7.2276V2.11471H9.22047V4.10758ZM6.56331 8.97903C6.73949 8.97903 6.90846 8.90904 7.03303 8.78446C7.15761 8.65989 7.2276 8.49092 7.2276 8.31474V6.98616C7.2276 6.80998 7.15761 6.64102 7.03303 6.51644C6.90846 6.39186 6.73949 6.32187 6.56331 6.32187C6.38713 6.32187 6.21817 6.39186 6.09359 6.51644C5.96901 6.64102 5.89902 6.80998 5.89902 6.98616V8.31474C5.89902 8.49092 5.96901 8.65989 6.09359 8.78446C6.21817 8.90904 6.38713 8.97903 6.56331 8.97903Z" fill="white"/>
<path d="M9.88417 7.20798H9.21988V6.98655C9.21988 6.81037 9.14989 6.64141 9.02532 6.51683C8.90074 6.39225 8.73177 6.32227 8.55559 6.32227C8.37941 6.32227 8.21045 6.39225 8.08587 6.51683C7.96129 6.64141 7.8913 6.81037 7.8913 6.98655V9.64371H6.56273C6.38655 9.64371 6.21758 9.7137 6.093 9.83828C5.96843 9.96285 5.89844 10.1318 5.89844 10.308C5.89844 10.4842 5.96843 10.6531 6.093 10.7777C6.21758 10.9023 6.38655 10.9723 6.56273 10.9723H8.55559C8.73177 10.9723 8.90074 10.9023 9.02532 10.7777C9.14989 10.6531 9.21988 10.4842 9.21988 10.308V8.53656H9.88417C10.0604 8.53656 10.2293 8.46657 10.3539 8.342C10.4785 8.21742 10.5485 8.04845 10.5485 7.87227C10.5485 7.69609 10.4785 7.52713 10.3539 7.40255C10.2293 7.27797 10.0604 7.20798 9.88417 7.20798Z" fill="white"/>
</svg>
