<svg width="19" height="20" viewBox="0 0 19 20" fill="none" xmlns="http://www.w3.org/2000/svg">
<path fill-rule="evenodd" clip-rule="evenodd" d="M8.64269 0.86247C7.70313 0.972166 7.1517 1.08537 6.47726 1.307C4.49853 1.9572 2.77961 3.26757 1.62339 5.00719C0.814338 6.22446 0.306965 7.55275 0.0724352 9.06783C-0.0244823 9.69385 -0.0240531 11.13 0.0731765 11.7651C0.361705 13.6491 1.08644 15.2725 2.26514 16.6752C3.75468 18.4478 5.83805 19.5918 8.17449 19.92C8.65517 19.9875 10.0377 19.9872 10.5155 19.9195C13.2334 19.5344 15.5404 18.0937 17.063 15.8305C17.8655 14.6377 18.3843 13.2805 18.617 11.7651C18.7134 11.1368 18.7137 9.6978 18.6175 9.07126C18.298 6.99166 17.3967 5.14007 16.0002 3.69466C14.5614 2.20556 12.762 1.27272 10.6831 0.938248C10.3203 0.879868 8.93442 0.828392 8.64269 0.86247ZM9.68689 4.7769C9.74296 4.81972 9.82505 4.90436 9.8693 4.96497C9.94854 5.07351 9.94975 5.11274 9.94975 7.54338C9.94975 9.97401 9.94854 10.0132 9.8693 10.1218C9.71643 10.3312 9.59173 10.3965 9.34499 10.3965C9.09825 10.3965 8.97355 10.3312 8.82068 10.1218C8.74187 10.0139 8.74 9.96368 8.72876 7.6502C8.72248 6.35144 8.72755 5.23097 8.74008 5.16026C8.76824 5.0012 8.93141 4.79753 9.08943 4.72419C9.24737 4.65093 9.55775 4.6783 9.68689 4.7769ZM6.58015 5.85028C6.72568 5.92726 6.85194 6.12075 6.8759 6.30355C6.91089 6.57035 6.83306 6.71153 6.45729 7.06277C4.93212 8.48842 4.54781 10.6289 5.48312 12.4887C6.30754 14.1282 8.13828 15.1022 9.91073 14.8444C10.6713 14.7339 11.4831 14.3825 12.0609 13.9139C13.2474 12.9518 13.8838 11.344 13.6745 9.83786C13.528 8.78427 12.9945 7.74996 12.2551 7.08603C11.8821 6.75108 11.8084 6.53376 11.9554 6.20264C12.043 6.00535 12.222 5.86656 12.4246 5.83879C12.695 5.80168 12.8371 5.8862 13.3028 6.36118C14.1054 7.17973 14.6158 8.13587 14.8506 9.26097C14.9687 9.82665 14.9782 10.8479 14.8707 11.434C14.6551 12.6103 14.1349 13.618 13.3051 14.4667C12.4753 15.3154 11.4894 15.8477 10.3399 16.0678C9.80445 16.1703 8.88428 16.1702 8.35006 16.0675C6.03161 15.6219 4.25362 13.8037 3.81925 11.434C3.71277 10.8533 3.72132 9.82617 3.8372 9.2717C4.09642 8.03136 4.69689 6.96943 5.61335 6.13053C6.02865 5.7504 6.2629 5.68249 6.58015 5.85028Z" fill="#474747"/>
</svg>
