<svg width="129" height="43" viewBox="0 0 129 43" fill="none" xmlns="http://www.w3.org/2000/svg">
<g clip-path="url(#clip0_1055_9720)">
<path d="M35.2984 23.7752V26.3634C35.3369 26.8742 35.1805 27.3804 34.8616 27.7776C34.7205 27.9318 34.5485 28.0536 34.3572 28.1348C34.1659 28.216 33.9597 28.2548 33.7524 28.2486C33.548 28.2544 33.3449 28.2146 33.1572 28.132C32.9696 28.0496 32.8021 27.9264 32.6664 27.7711C32.3572 27.3719 32.2065 26.8697 32.2439 26.3634V17.736C32.2439 16.3428 32.74 15.6461 33.7323 15.6461C33.9409 15.6273 34.1508 15.662 34.3426 15.7474C34.5344 15.8327 34.7018 15.9658 34.8294 16.1343C35.0836 16.5705 35.2117 17.0703 35.1991 17.5768C35.4901 17.0344 35.8704 16.5465 36.3236 16.1343C36.7627 15.7905 37.3084 15.6174 37.8623 15.6461C38.5156 15.6492 39.158 15.8168 39.7315 16.1343C39.9898 16.2382 40.2127 16.4158 40.3736 16.6455C40.5344 16.8753 40.6263 17.1474 40.6379 17.4289C40.643 17.6039 40.6113 17.7781 40.5447 17.9396C40.4781 18.1012 40.3782 18.2464 40.2518 18.3656C40.0326 18.5952 39.7332 18.7278 39.4183 18.7349C39.1411 18.695 38.869 18.6243 38.607 18.5242C38.2411 18.396 37.8579 18.3253 37.4709 18.3147C37.075 18.2975 36.6862 18.4242 36.3743 18.6722C36.0612 18.9567 35.8324 19.3244 35.7141 19.7337C35.5427 20.2774 35.4336 20.8393 35.3893 21.4083C35.3298 22.0553 35.2999 22.8444 35.2999 23.7758" fill="#614B98"/>
<path d="M49.4579 26.5023C48.8037 27.0338 48.083 27.4748 47.3144 27.8136C46.576 28.1145 45.7859 28.2631 44.9904 28.2509C44.2746 28.2666 43.5659 28.1049 42.9257 27.7798C42.3596 27.492 41.884 27.0496 41.5524 26.5023C41.2347 25.9763 41.0681 25.3707 41.0712 24.7538C41.0527 23.9549 41.3362 23.179 41.8634 22.5852C42.4453 21.9578 43.21 21.5359 44.0454 21.3816C44.2398 21.3362 44.7211 21.2343 45.4895 21.0757C46.2578 20.9171 46.9164 20.7713 47.4649 20.6384C48.0132 20.5058 48.6082 20.3451 49.2497 20.1561C49.2653 19.5208 49.096 18.8949 48.7627 18.3567C48.4757 17.9744 47.8808 17.7833 46.978 17.7833C46.3765 17.7477 45.7754 17.8608 45.2265 18.1129C44.8149 18.3517 44.4688 18.6913 44.2197 19.1005C43.938 19.5391 43.7403 19.8287 43.6266 19.9691C43.5233 20.0536 43.404 20.1158 43.2761 20.1519C43.1482 20.1878 43.0144 20.1969 42.8829 20.1786C42.556 20.183 42.2393 20.0625 41.996 19.841C41.8746 19.7355 41.7779 19.6037 41.713 19.4554C41.6481 19.3071 41.6166 19.1459 41.621 18.9836C41.6331 18.4044 41.8338 17.8455 42.192 17.3943C42.6608 16.815 43.2755 16.3755 43.9709 16.1226C44.9338 15.7622 45.9558 15.5926 46.9816 15.6233C48.0586 15.5791 49.134 15.7427 50.1508 16.1055C50.8685 16.3799 51.4524 16.9275 51.7787 17.6317C52.1292 18.5106 52.2912 19.4552 52.254 20.4026C52.254 21.1296 52.2523 21.7464 52.2488 22.2529C52.2453 22.7595 52.2396 23.3236 52.2319 23.9452C52.2373 24.5635 52.3334 25.1776 52.5171 25.7672C52.6558 26.1621 52.7514 26.5712 52.8023 26.9873C52.7967 27.1562 52.7541 27.3217 52.6777 27.472C52.6014 27.6221 52.4931 27.7533 52.3608 27.856C52.0867 28.1098 51.7284 28.2499 51.3572 28.2482C51.0014 28.2286 50.6677 28.0672 50.4287 27.7991C50.0526 27.4083 49.7256 26.9719 49.4552 26.4996M49.2539 22.015C48.6147 22.2343 47.9618 22.4106 47.2997 22.5429C46.4457 22.7283 45.8545 22.8645 45.526 22.9517C45.1789 23.0488 44.8576 23.2236 44.5858 23.463C44.4361 23.5933 44.3179 23.7568 44.2403 23.9409C44.1628 24.125 44.1279 24.3246 44.1384 24.5245C44.1361 24.751 44.1822 24.9752 44.2733 25.182C44.3644 25.3886 44.4986 25.5729 44.6666 25.7222C45.0448 26.0617 45.5385 26.2386 46.0431 26.2156C46.6246 26.2213 47.1987 26.0832 47.7159 25.8133C48.1827 25.5861 48.5737 25.225 48.8404 24.7747C49.1682 24.0501 49.3106 23.2534 49.2545 22.4582L49.2539 22.015Z" fill="#614B98"/>
<path d="M66.2859 17.9194V26.9218C66.3028 27.8186 66.1937 28.7132 65.9617 29.5787C65.7732 30.2709 65.4153 30.9036 64.9211 31.4178C64.3948 31.9306 63.7501 32.3015 63.046 32.4965C62.107 32.7524 61.1368 32.871 60.1648 32.8485C59.2064 32.8638 58.2526 32.7121 57.3447 32.4001C56.6272 32.1693 55.9721 31.7729 55.4311 31.242C55.026 30.8649 54.7845 30.3406 54.7593 29.7834C54.7534 29.6105 54.7843 29.4383 54.8499 29.2786C54.9156 29.1189 55.0144 28.9755 55.1395 28.858C55.3875 28.6216 55.7168 28.4932 56.057 28.5C56.285 28.5034 56.5093 28.5593 56.713 28.6636C56.9165 28.7678 57.0941 28.9177 57.2322 29.1017C57.3963 29.3058 57.566 29.5121 57.7414 29.7207C57.911 29.9245 58.1064 30.1046 58.3224 30.2565C58.556 30.4131 58.8159 30.5247 59.0894 30.5856C59.4272 30.6616 59.7727 30.6976 60.1188 30.6927C60.7494 30.7241 61.3789 30.6096 61.9596 30.3578C62.3655 30.1662 62.6909 29.8341 62.8776 29.4212C63.0544 29.0133 63.1587 28.577 63.1854 28.1324C63.2147 27.6744 63.2371 26.9384 63.2525 25.9246C62.8281 26.5482 62.2718 27.0677 61.6242 27.4454C60.9477 27.8085 60.1903 27.9882 59.4253 27.9674C58.4725 27.9883 57.5365 27.7108 56.7447 27.1726C55.9595 26.6173 55.3478 25.8452 54.9821 24.9478C54.5543 23.9015 54.3448 22.7767 54.3668 21.6442C54.3552 20.7894 54.4819 19.9386 54.7418 19.1255C54.9639 18.4238 55.3285 17.7772 55.8119 17.227C56.2557 16.726 56.8016 16.329 57.4118 16.0636C58.0426 15.7971 58.7203 15.6638 59.4036 15.6719C60.1828 15.6521 60.9549 15.8254 61.6532 16.1767C62.349 16.5682 62.9523 17.109 63.4211 17.7612V17.3411C63.393 16.8897 63.5329 16.444 63.813 16.092C63.9387 15.9478 64.0941 15.8332 64.2682 15.7568C64.4424 15.6803 64.6311 15.6437 64.8207 15.6494C65.0515 15.6194 65.2859 15.6589 65.4947 15.7627C65.7035 15.8667 65.8777 16.0306 65.9955 16.234C66.2164 16.7666 66.3159 17.3429 66.2865 17.9199M57.4345 21.8462C57.3621 22.8635 57.6495 23.8737 58.2453 24.6954C58.5 25.0072 58.8213 25.2561 59.1849 25.4232C59.5484 25.5904 59.9448 25.6712 60.3438 25.6599C60.8518 25.6599 61.3498 25.5165 61.782 25.2457C62.2576 24.9423 62.6395 24.5095 62.8844 23.9966C63.1833 23.3651 63.3282 22.6701 63.3069 21.9699C63.3697 20.9198 63.0798 19.8792 62.4846 19.0178C62.2324 18.6798 61.9044 18.4078 61.5277 18.2243C61.151 18.0408 60.7366 17.9511 60.319 17.9628C59.9152 17.9499 59.5142 18.0348 59.1491 18.2105C58.7841 18.3862 58.4656 18.6475 58.2199 18.9729C57.6461 19.8133 57.3693 20.8259 57.4345 21.8462Z" fill="#614B98"/>
<path d="M80.2428 21.9495C80.2523 22.8198 80.1093 23.6849 79.8203 24.5045C79.5544 25.2551 79.1348 25.9402 78.589 26.5144C78.0454 27.0777 77.389 27.5163 76.6643 27.8006C75.8604 28.1099 75.0061 28.2621 74.1464 28.2491C73.2934 28.2624 72.4459 28.1081 71.6507 27.7946C70.9252 27.5026 70.2693 27.0576 69.7263 26.489C69.1832 25.9204 68.7654 25.2412 68.5006 24.4964C68.2124 23.6788 68.0702 22.8156 68.0806 21.9473C68.0706 21.0695 68.2145 20.1969 68.5058 19.3704C68.7689 18.6244 69.1847 17.9436 69.726 17.3726C70.2692 16.8109 70.9258 16.3751 71.6507 16.0951C73.2699 15.4951 75.0464 15.497 76.6643 16.1004C77.3943 16.3852 78.0549 16.8269 78.6007 17.3953C79.1465 17.9636 79.5645 18.645 79.8261 19.3928C80.1136 20.2125 80.2556 21.0773 80.2455 21.9473M77.1792 21.9473C77.2419 20.8973 76.952 19.8567 76.3569 18.9952C76.0976 18.6538 75.7619 18.3799 75.3775 18.1964C74.993 18.0129 74.571 17.925 74.1464 17.9401C73.5851 17.9293 73.0342 18.0937 72.5681 18.4111C72.0879 18.7581 71.7215 19.2436 71.5165 19.8044C71.0261 21.1834 71.024 22.6927 71.5107 24.0731C71.716 24.6308 72.0779 25.1152 72.5518 25.4663C73.02 25.7935 73.5781 25.9623 74.1464 25.9486C74.5717 25.9634 74.9942 25.8746 75.3788 25.6899C75.7633 25.5051 76.0987 25.2296 76.3569 24.8865C76.9495 24.0304 77.2394 22.996 77.1792 21.9516" fill="#614B98"/>
<path d="M82.404 15.922H83.1313V14.9896C83.1007 14.2025 83.2242 13.4172 83.4946 12.6789C83.7289 12.1158 84.1707 11.6678 84.7259 11.4303C85.4836 11.1369 86.2924 11.0035 87.1027 11.0381C88.8856 11.0381 89.7771 11.4811 89.7775 12.367C89.7826 12.6407 89.6822 12.9055 89.4976 13.1049C89.4156 13.2011 89.3142 13.2782 89.2003 13.3309C89.0864 13.3837 88.9626 13.411 88.8373 13.4109C88.6308 13.4019 88.425 13.3792 88.2215 13.3428C87.9769 13.3019 87.7298 13.2793 87.482 13.2754C86.9299 13.2754 86.5755 13.4398 86.4187 13.7688C86.2407 14.2173 86.1607 14.6996 86.1842 15.1825V15.922H86.9337C88.0979 15.922 88.6799 16.2778 88.6799 16.9894C88.6799 17.4967 88.525 17.8183 88.2151 17.954C87.8055 18.1074 87.3699 18.1768 86.9337 18.1581H86.1863V26.366C86.2208 26.8717 86.0669 27.3722 85.7553 27.7683C85.6156 27.9263 85.4436 28.0512 85.2512 28.1345C85.0589 28.2178 84.8509 28.2575 84.6419 28.2506C84.438 28.2551 84.2357 28.2143 84.0491 28.1309C83.8626 28.0476 83.6962 27.9239 83.5617 27.7683C83.2499 27.3722 83.0961 26.8718 83.1307 26.366V18.1571H82.2909C81.9151 18.1815 81.5427 18.0709 81.2393 17.8447C81.1202 17.7473 81.0249 17.6234 80.9608 17.4826C80.8966 17.3418 80.8655 17.1879 80.8695 17.0328C80.8695 16.2908 81.3801 15.9198 82.4013 15.9198" fill="#57A1D7"/>
<path d="M101.417 21.9495C101.426 22.8198 101.284 23.685 100.994 24.5045C100.728 25.2552 100.308 25.9402 99.7625 26.5144C99.2195 27.0777 98.5631 27.5163 97.8382 27.8006C97.0338 28.11 96.18 28.2621 95.3198 28.2491C94.4669 28.2624 93.6195 28.108 92.8242 27.7946C92.0992 27.5026 91.4429 27.0576 90.9001 26.489C90.357 25.9204 89.9392 25.2412 89.6744 24.4964C89.3863 23.6788 89.244 22.8156 89.2544 21.9473C89.2444 21.0695 89.3884 20.1969 89.6797 19.3704C89.9425 18.6245 90.3582 17.9436 90.8993 17.3726C91.4429 16.8109 92.0992 16.3752 92.8242 16.0951C94.4431 15.4951 96.2193 15.497 97.8373 16.1004C98.5677 16.3853 99.2277 16.8271 99.7735 17.3954C100.319 17.9637 100.738 18.6451 100.999 19.3928C101.287 20.2125 101.429 21.0773 101.419 21.9473M98.3529 21.9473C98.4151 20.8973 98.1253 19.8567 97.5302 18.9952C97.2705 18.6537 96.9351 18.3799 96.5511 18.1963C96.1663 18.0128 95.7439 17.925 95.3198 17.9401C94.7585 17.9293 94.2073 18.0937 93.741 18.4111C93.2611 18.7582 92.8946 19.2436 92.6898 19.8044C92.1998 21.1834 92.1971 22.6926 92.6843 24.0731C92.8891 24.6308 93.2511 25.1153 93.7255 25.4663C94.1935 25.7935 94.7512 25.9622 95.3198 25.9486C95.7448 25.9634 96.1672 25.8747 96.552 25.69C96.9369 25.5052 97.2724 25.2297 97.5302 24.8865C98.1234 24.0304 98.4132 22.996 98.3529 21.9516" fill="#57A1D7"/>
<path d="M106.597 17.363V17.7381C107.061 17.0836 107.663 16.5425 108.359 16.154C109.041 15.807 109.796 15.6336 110.559 15.6487C111.312 15.6363 112.056 15.8208 112.719 16.1845C113.337 16.5237 113.834 17.052 114.14 17.6941C114.342 18.0756 114.475 18.4912 114.532 18.9207C114.598 19.478 114.628 20.0393 114.621 20.6006V26.366C114.658 26.8718 114.508 27.3732 114.202 27.7737C114.066 27.93 113.897 28.0538 113.708 28.1364C113.52 28.2189 113.315 28.2581 113.11 28.2512C112.901 28.2583 112.693 28.2181 112.501 28.1336C112.309 28.0491 112.138 27.9223 112 27.7625C111.694 27.3663 111.542 26.8688 111.575 26.366V21.2003C111.618 20.3963 111.474 19.5934 111.156 18.8558C110.876 18.315 110.318 18.0444 109.483 18.0441C108.947 18.0415 108.424 18.2148 107.994 18.5381C107.538 18.879 107.195 19.3523 107.009 19.8954C106.821 20.7441 106.746 21.6147 106.786 22.4837V26.3666C106.825 26.8763 106.67 27.3818 106.355 27.7807C106.214 27.9358 106.041 28.058 105.849 28.1394C105.657 28.2206 105.45 28.2589 105.241 28.2517C105.037 28.2571 104.832 28.216 104.644 28.1315C104.457 28.0469 104.29 27.9211 104.155 27.7631C103.849 27.3667 103.697 26.8693 103.73 26.3666V17.408C103.695 16.9348 103.83 16.4646 104.111 16.0855C104.242 15.9389 104.403 15.8237 104.583 15.748C104.763 15.6724 104.958 15.6383 105.153 15.6481C105.408 15.6447 105.659 15.7113 105.879 15.8411C106.104 15.9792 106.285 16.1802 106.4 16.4198C106.538 16.7137 106.605 17.0368 106.596 17.3624" fill="#57A1D7"/>
<path d="M126.194 22.7096H120.215C120.209 23.3553 120.353 23.9934 120.635 24.5723C120.866 25.0652 121.233 25.4802 121.69 25.7679C122.147 26.0556 122.676 26.2038 123.215 26.1948C123.553 26.1989 123.891 26.1551 124.219 26.0646C124.529 25.9735 124.826 25.8359 125.097 25.6563C125.372 25.4769 125.634 25.2774 125.88 25.0593C126.119 24.8482 126.429 24.5606 126.809 24.1966C127.001 24.0487 127.24 23.9761 127.48 23.9925C127.757 23.9798 128.029 24.0726 128.242 24.2528C128.34 24.3467 128.418 24.4614 128.468 24.5891C128.519 24.7167 128.541 24.8541 128.532 24.9912C128.51 25.3418 128.399 25.6804 128.208 25.9735C127.952 26.3927 127.619 26.7587 127.229 27.0522C126.732 27.429 126.176 27.7188 125.583 27.9096C124.848 28.1483 124.079 28.2634 123.306 28.2504C121.344 28.2504 119.818 27.6828 118.729 26.5475C118.168 25.926 117.734 25.1973 117.453 24.4039C117.172 23.6105 117.051 22.7684 117.095 21.9267C117.087 21.0602 117.224 20.1986 117.498 19.3781C117.746 18.6299 118.146 17.9432 118.673 17.3627C119.203 16.7923 119.853 16.3515 120.575 16.0739C121.376 15.7662 122.226 15.6141 123.081 15.6254C124.155 15.5947 125.217 15.8594 126.154 16.3912C126.964 16.8567 127.628 17.5437 128.073 18.3739C128.485 19.1326 128.704 19.9834 128.711 20.8496C128.711 21.6291 128.49 22.1342 128.051 22.365C127.466 22.6251 126.83 22.7436 126.192 22.7112M120.215 20.9498H125.754C125.752 20.082 125.453 19.2419 124.91 18.5716C124.661 18.3087 124.361 18.1023 124.028 17.9662C123.696 17.8301 123.337 17.7674 122.979 17.7822C122.628 17.7715 122.28 17.8373 121.956 17.9755C121.632 18.1137 121.342 18.3208 121.104 18.5829C120.562 19.2525 120.249 20.0836 120.215 20.9498Z" fill="#57A1D7"/>
<path d="M5.33228 6.87012C5.33228 12.0214 5.27629 16.6228 5.34442 21.2195C5.36775 23.3934 5.82452 25.5399 6.68724 27.5299C7.54996 29.5199 8.80077 31.3121 10.3643 32.7986C11.9279 34.2852 13.7719 35.4353 15.7852 36.1797C17.7985 36.924 19.9395 37.2473 22.0791 37.1299C26.066 36.9306 29.4559 35.2543 32.5067 32.4866L35.9569 36.2945C31.2085 42.3005 18.0839 46.3602 7.65949 37.6304C5.47492 35.7938 3.67697 33.53 2.37271 30.9737C1.06846 28.4175 0.284566 25.621 0.0677174 22.7511C-0.149131 19.8811 0.205496 16.9962 1.11049 14.2681C2.01547 11.5401 3.45232 9.02469 5.33545 6.87173" fill="#57A1D7"/>
<path d="M15.9286 -0.000488281V15.5364H26.4053V21.0237H16.1626C16.3448 25.862 20.3723 27.6244 25.5903 24.6723C26.0221 25.3007 26.5038 25.8922 27.0307 26.4407C27.5522 27.0836 28.1348 27.6728 28.7701 28.2C27.5079 29.7622 25.8088 30.8997 23.8967 31.4627C21.9846 32.0256 19.9492 31.9875 18.0588 31.3535C13.921 30.0615 10.7317 26.1374 10.6256 21.7251C10.4798 15.6699 10.5564 9.60703 10.606 3.54854C10.6144 3.23773 10.6902 2.93259 10.8278 2.65476C10.9654 2.37694 11.1617 2.13324 11.4025 1.94096C12.733 1.22075 14.1818 0.725609 15.9286 -0.000488281Z" fill="#614B98"/>
</g>
<defs>
<clipPath id="clip0_1055_9720">
<rect width="128.711" height="42.6667" fill="white"/>
</clipPath>
</defs>
</svg>
