<svg width="12" height="13" viewBox="0 0 12 13" fill="none" xmlns="http://www.w3.org/2000/svg">
<path fill-rule="evenodd" clip-rule="evenodd" d="M6.03565 1.05277C6.0926 1.09626 6.17598 1.18223 6.22092 1.24379C6.3014 1.35404 6.30263 1.39388 6.30263 3.86268C6.30263 6.33148 6.3014 6.37132 6.22092 6.48157C6.06565 6.69423 5.93899 6.76062 5.68838 6.76062C5.43776 6.76062 5.31111 6.69427 5.15584 6.48161C5.07579 6.37197 5.07389 6.32098 5.06247 3.97118C5.05609 2.65203 5.06124 1.51397 5.07397 1.44215C5.10258 1.28059 5.26831 1.07373 5.42881 0.999231C5.58923 0.924816 5.90448 0.95262 6.03565 1.05277Z" fill="#614B98"/>
<path d="M2.88013 2.14301C3.02794 2.22119 3.15618 2.41772 3.18052 2.60339C3.21606 2.87438 3.137 3.01778 2.75533 3.37453C1.20622 4.82257 0.815876 6.99667 1.76587 8.88568C2.60324 10.5508 4.46272 11.5402 6.263 11.2784C7.03554 11.1661 7.86002 10.8092 8.44697 10.3333C9.65206 9.356 10.2985 7.72298 10.0858 6.19319C9.93708 5.12306 9.39522 4.07251 8.64421 3.39816C8.26531 3.05794 8.19045 2.83721 8.33978 2.50089C8.42878 2.30051 8.61052 2.15954 8.81632 2.13133C9.09099 2.09364 9.23528 2.17948 9.70833 2.66192C10.5236 3.49332 11.0419 4.46448 11.2805 5.60724C11.4004 6.1818 11.41 7.2191 11.3009 7.81442C11.0819 9.00918 10.5535 10.0327 9.71067 10.8947C8.8678 11.7567 7.86648 12.2974 6.69893 12.5209C6.15505 12.625 5.22044 12.6249 4.67783 12.5206C2.32298 12.0681 0.517071 10.2212 0.0758784 7.81442C-0.03227 7.22453 -0.0235912 6.18132 0.0941079 5.61814C0.357405 4.35833 0.967299 3.27973 1.89815 2.42765C2.31997 2.04156 2.5579 1.97257 2.88013 2.14301Z" fill="#614B98"/>
</svg>
