<svg width="15" height="13" viewBox="0 0 15 13" fill="none" xmlns="http://www.w3.org/2000/svg">
<path d="M5.45103 6.65401C6.92821 6.65401 8.12569 5.45653 8.12569 3.97935C8.12569 2.50217 6.92821 1.30469 5.45103 1.30469C3.97385 1.30469 2.77637 2.50217 2.77637 3.97935C2.77637 5.45653 3.97385 6.65401 5.45103 6.65401Z" stroke="#614B98" stroke-width="0.998106" stroke-linecap="round" stroke-linejoin="round"/>
<path d="M1.43945 12.2698V10.9325C1.43945 10.2231 1.72125 9.5428 2.22284 9.0412C2.72444 8.53961 3.40475 8.25781 4.11412 8.25781H6.78878C7.49814 8.25781 8.17846 8.53961 8.68005 9.0412C9.18165 9.5428 9.46344 10.2231 9.46344 10.9325V12.2698" stroke="#614B98" stroke-width="0.998106" stroke-linecap="round" stroke-linejoin="round"/>
<path d="M12.301 4.23828L12.9557 5.60823L14.3559 5.79728L13.3285 6.82612L13.534 8.34813L12.301 7.49191L11.0681 8.34813L11.2736 6.82612L10.2461 5.79728L11.6845 5.60823L12.301 4.23828Z" fill="#614B98"/>
</svg>
