
<svg width="16" height="15" viewBox="0 0 16 15" fill="none" xmlns="http://www.w3.org/2000/svg">
<circle cx="8.31641" cy="7.5" r="7.5" fill="#006BE0"/>
<path d="M5.08203 5.23072V6.03957H11.5528V5.23072C11.5528 5.0162 11.4676 4.81047 11.3159 4.65878C11.1642 4.50709 10.9585 4.42188 10.744 4.42188H5.89088C5.67636 4.42188 5.47063 4.50709 5.31894 4.65878C5.16725 4.81047 5.08203 5.0162 5.08203 5.23072Z" fill="white"/>
<path d="M9.93513 4.42213H10.744C10.9585 4.42213 11.1642 4.50735 11.3159 4.65904C11.4676 4.81073 11.5528 5.01646 11.5528 5.23098V6.03983H5.08203V5.23098C5.08203 5.01646 5.16725 4.81073 5.31894 4.65904C5.47063 4.50735 5.67636 4.42213 5.89088 4.42213H6.69973M9.93513 4.42213V3.61328M9.93513 4.42213H6.69973M6.69973 4.42213V3.61328M5.08203 6.24204V10.0841C5.08203 10.2986 5.16725 10.5043 5.31894 10.656C5.47063 10.8077 5.67636 10.8929 5.89088 10.8929H10.744C10.9585 10.8929 11.1642 10.8077 11.3159 10.656C11.4676 10.5043 11.5528 10.2986 11.5528 10.0841V6.24204" stroke="white" stroke-width="0.93571" stroke-linecap="round" stroke-linejoin="round"/>
</svg>
