<svg width="49" height="35" viewBox="0 0 49 35" fill="none" xmlns="http://www.w3.org/2000/svg">
<path d="M31.8435 12.3238L43.4682 6.40511C43.8574 6.20704 44.2898 6.11354 44.7244 6.13348C45.159 6.15342 45.5814 6.28613 45.9515 6.51902C46.3216 6.75192 46.6271 7.07727 46.8391 7.46421C47.0511 7.85115 47.1625 8.28684 47.1627 8.72994V26.3196C47.1625 26.7627 47.0511 27.1984 46.8391 27.5853C46.6271 27.9723 46.3216 28.2976 45.9515 28.5305C45.5814 28.7634 45.159 28.8961 44.7244 28.9161C44.2898 28.936 43.8574 28.8425 43.4682 28.6444L31.8435 22.7257M6.31148 33.1277H26.7371C28.0914 33.1277 29.3902 32.5797 30.3479 31.6043C31.3055 30.629 31.8435 29.3061 31.8435 27.9267V7.12284C31.8435 5.74346 31.3055 4.42057 30.3479 3.4452C29.3902 2.46983 28.0914 1.92188 26.7371 1.92188H6.31148C4.95718 1.92188 3.65835 2.46983 2.70071 3.4452C1.74307 4.42057 1.20508 5.74346 1.20508 7.12284V27.9267C1.20508 29.3061 1.74307 30.629 2.70071 31.6043C3.65835 32.5797 4.95718 33.1277 6.31148 33.1277Z" fill="white"/>
<path d="M31.8435 12.3238L43.4682 6.40511C43.8574 6.20704 44.2898 6.11354 44.7244 6.13348C45.159 6.15342 45.5814 6.28613 45.9515 6.51902C46.3216 6.75192 46.6271 7.07727 46.8391 7.46421C47.0511 7.85115 47.1625 8.28684 47.1627 8.72994V26.3196C47.1625 26.7627 47.0511 27.1984 46.8391 27.5853C46.6271 27.9723 46.3216 28.2976 45.9515 28.5305C45.5814 28.7634 45.159 28.8961 44.7244 28.9161C44.2898 28.936 43.8574 28.8425 43.4682 28.6444L31.8435 22.7257M6.31148 33.1277H26.7371C28.0914 33.1277 29.3902 32.5797 30.3479 31.6043C31.3055 30.629 31.8435 29.3061 31.8435 27.9267V7.12284C31.8435 5.74346 31.3055 4.42057 30.3479 3.4452C29.3902 2.46983 28.0914 1.92188 26.7371 1.92188H6.31148C4.95718 1.92188 3.65835 2.46983 2.70071 3.4452C1.74307 4.42057 1.20508 5.74346 1.20508 7.12284V27.9267C1.20508 29.3061 1.74307 30.629 2.70071 31.6043C3.65835 32.5797 4.95718 33.1277 6.31148 33.1277Z" stroke="#57A1D7" stroke-width="2.20733" stroke-linecap="round" stroke-linejoin="round"/>
<line x1="16.6544" y1="12.463" x2="16.6544" y2="22.5994" stroke="#57A1D7" stroke-width="2.20733" stroke-linecap="round" stroke-linejoin="round"/>
<line x1="21.6366" y1="17.4474" x2="11.5002" y2="17.4474" stroke="#57A1D7" stroke-width="2.20733" stroke-linecap="round" stroke-linejoin="round"/>
</svg>
