<svg width="3" height="8" viewBox="0 0 3 8" fill="none" xmlns="http://www.w3.org/2000/svg">
<path d="M0.436523 3.9808C0.436523 4.19372 0.521106 4.39792 0.671663 4.54848C0.822221 4.69904 1.02642 4.78362 1.23934 4.78362C1.45226 4.78362 1.65646 4.69904 1.80702 4.54848C1.95758 4.39792 2.04216 4.19372 2.04216 3.9808C2.04216 3.76788 1.95758 3.56368 1.80702 3.41312C1.65646 3.26257 1.45226 3.17798 1.23934 3.17798C1.02642 3.17798 0.822221 3.26257 0.671663 3.41312C0.521106 3.56368 0.436523 3.76788 0.436523 3.9808ZM0.436523 1.57235C0.436523 1.78527 0.521106 1.98947 0.671663 2.14003C0.822221 2.29058 1.02642 2.37517 1.23934 2.37517C1.45226 2.37517 1.65646 2.29058 1.80702 2.14003C1.95758 1.98947 2.04216 1.78527 2.04216 1.57235C2.04216 1.35943 1.95758 1.15523 1.80702 1.00467C1.65646 0.854114 1.45226 0.769531 1.23934 0.769531C1.02642 0.769531 0.822221 0.854114 0.671663 1.00467C0.521106 1.15523 0.436523 1.35943 0.436523 1.57235ZM0.436523 6.38925C0.436523 6.60217 0.521106 6.80637 0.671663 6.95693C0.822221 7.10749 1.02642 7.19207 1.23934 7.19207C1.45226 7.19207 1.65646 7.10749 1.80702 6.95693C1.95758 6.80637 2.04216 6.60217 2.04216 6.38925C2.04216 6.17633 1.95758 5.97213 1.80702 5.82157C1.65646 5.67102 1.45226 5.58643 1.23934 5.58643C1.02642 5.58643 0.822221 5.67102 0.671663 5.82157C0.521106 5.97213 0.436523 6.17633 0.436523 6.38925Z" fill="#474747"/>
</svg>
