<svg width="10" height="10" viewBox="0 0 10 10" fill="none" xmlns="http://www.w3.org/2000/svg">
<path d="M3.34628 3.46666C3.79288 3.46666 4.22119 3.28405 4.53699 2.95898C4.85278 2.63392 5.03019 2.19304 5.03019 1.73333C5.03019 1.27362 4.85278 0.832744 4.53699 0.507681C4.22119 0.182618 3.79288 0 3.34628 0C2.89968 0 2.47137 0.182618 2.15557 0.507681C1.83978 0.832744 1.66236 1.27362 1.66236 1.73333C1.66236 2.19304 1.83978 2.63392 2.15557 2.95898C2.47137 3.28405 2.89968 3.46666 3.34628 3.46666ZM7.55607 4.04444C7.92823 4.04444 8.28516 3.89226 8.54832 3.62137C8.81148 3.35049 8.95933 2.98309 8.95933 2.6C8.95933 2.21691 8.81148 1.84951 8.54832 1.57862C8.28516 1.30774 7.92823 1.15555 7.55607 1.15555C7.1839 1.15555 6.82697 1.30774 6.56381 1.57862C6.30065 1.84951 6.1528 2.21691 6.1528 2.6C6.1528 2.98309 6.30065 3.35049 6.56381 3.62137C6.82697 3.89226 7.1839 4.04444 7.55607 4.04444ZM0.323651 8.33617C0.213599 8.26557 0.125206 8.16435 0.0686879 8.04422C0.0121702 7.92408 -0.0101635 7.78993 0.00426863 7.65728C0.107748 6.82012 0.504251 6.05052 1.11948 5.49271C1.7347 4.9349 2.52642 4.62716 3.34628 4.62716C4.16613 4.62716 4.95786 4.9349 5.57308 5.49271C6.18831 6.05052 6.58481 6.82012 6.68829 7.65728C6.72084 7.9271 6.59174 8.18884 6.36834 8.33559C5.46647 8.9305 4.41745 9.24598 3.34628 9.24444C2.27497 9.24626 1.22575 8.93098 0.323651 8.33617ZM7.55607 8.08888H7.49657C7.53586 7.91728 7.54596 7.73586 7.52351 7.54982C7.42757 6.75555 7.11896 6.00438 6.63216 5.38026C6.94543 5.25337 7.28018 5.1922 7.61675 5.20033C7.95331 5.20846 8.28491 5.28574 8.59206 5.42762C8.8992 5.5695 9.17571 5.77312 9.40535 6.02653C9.63498 6.27994 9.8131 6.57803 9.92926 6.90328C9.96495 7.00711 9.96429 7.12051 9.9274 7.22389C9.8905 7.32727 9.81969 7.41415 9.72719 7.46951C9.07199 7.87612 8.32114 8.09032 7.55607 8.08888Z" fill="#614B98"/>
</svg>
