<svg width="11" height="15" viewBox="0 0 11 15" fill="none" xmlns="http://www.w3.org/2000/svg">
<path d="M0.681632 14.4831C0.517575 14.3242 0.435547 14.1219 0.435547 13.8763C0.435547 13.6307 0.517575 13.4284 0.681632 13.2695L4.52951 9.54193V3.7122L2.85165 5.33759C2.6876 5.49652 2.48268 5.57598 2.23689 5.57598C1.99051 5.57598 1.77783 5.48929 1.59886 5.31592C1.41989 5.14255 1.3304 4.93652 1.3304 4.69784C1.3304 4.45974 1.41989 4.254 1.59886 4.08063L4.79796 0.981554C4.88745 0.894867 4.98439 0.833319 5.08879 0.79691C5.19319 0.761079 5.30505 0.743164 5.42436 0.743164C5.54367 0.743164 5.65553 0.761079 5.75993 0.79691C5.86433 0.833319 5.96127 0.894867 6.05076 0.981554L9.29461 4.12397C9.45866 4.2829 9.54457 4.48141 9.55233 4.71951C9.55948 4.95819 9.47358 5.16422 9.29461 5.33759C9.11564 5.51097 8.90326 5.59765 8.65747 5.59765C8.41109 5.59765 8.19841 5.51097 8.01944 5.33759L6.31922 3.7122V10.2354L1.91206 14.5048C1.748 14.6637 1.54666 14.7432 1.30803 14.7432C1.0694 14.7432 0.860602 14.6565 0.681632 14.4831ZM8.91429 14.5048L6.67716 12.3593L7.95232 11.124L10.1895 13.3128C10.3535 13.4718 10.4355 13.6668 10.4355 13.898C10.4355 14.1291 10.3461 14.3314 10.1671 14.5048C10.003 14.6637 9.79811 14.7432 9.55233 14.7432C9.30594 14.7432 9.09326 14.6637 8.91429 14.5048Z" fill="#614B98"/>
</svg>
