<svg width="16" height="16" viewBox="0 0 16 16" fill="none" xmlns="http://www.w3.org/2000/svg">
<path fill-rule="evenodd" clip-rule="evenodd" d="M4.79999 0H14.4C15.2824 0 16 0.714703 16 1.59354V7.9677C16 8.84654 15.2824 9.56124 14.4 9.56124V3.18708C14.4 2.30824 13.6824 1.59354 12.8 1.59354H3.19999C3.19999 0.714703 3.91759 0 4.79999 0ZM3.2 12.7485H1.6C0.7176 12.7485 0 12.0338 0 11.155V4.78082C0 3.90198 0.7176 3.18728 1.6 3.18728H11.2C12.0824 3.18728 12.8 3.90198 12.8 4.78082V11.155C12.8 12.0338 12.0824 12.7485 11.2 12.7485H7.2808L3.2 16.0001V12.7485Z" fill="#614B98"/>
<path fill-rule="evenodd" clip-rule="evenodd" d="M6 10.3587C6 10.6349 6.22386 10.8587 6.5 10.8587C6.77614 10.8587 7 10.6349 7 10.3587V8.46902L8.89961 8.46902C9.17575 8.46902 9.39961 8.24516 9.39961 7.96902C9.39961 7.69288 9.17575 7.46902 8.89961 7.46902L7 7.46902V5.57812C7 5.30198 6.77614 5.07812 6.5 5.07812C6.22386 5.07812 6 5.30198 6 5.57812V7.46902L4.09961 7.46902C3.82347 7.46902 3.59961 7.69288 3.59961 7.96902C3.59961 8.24516 3.82347 8.46902 4.09961 8.46902L6 8.46902V10.3587Z" fill="white"/>
</svg>
