<svg width="15" height="19" viewBox="0 0 15 19" fill="none" xmlns="http://www.w3.org/2000/svg">
<path d="M13.6018 7.41443C13.8259 7.41443 14.0409 7.50349 14.1995 7.66201C14.358 7.82052 14.447 8.03552 14.447 8.2597C14.4472 9.9067 13.8463 11.4972 12.757 12.7325C11.6678 13.9679 10.1651 14.7633 8.53105 14.9694L8.5302 16.7123H11.066C11.2902 16.7123 11.5052 16.8014 11.6637 16.9599C11.8222 17.1184 11.9112 17.3334 11.9112 17.5576C11.9112 17.7817 11.8222 17.9967 11.6637 18.1553C11.5052 18.3138 11.2902 18.4028 11.066 18.4028H4.3039C4.07972 18.4028 3.86472 18.3138 3.70621 18.1553C3.54769 17.9967 3.45864 17.7817 3.45864 17.5576C3.45864 17.3334 3.54769 17.1184 3.70621 16.9599C3.86472 16.8014 4.07972 16.7123 4.3039 16.7123H6.83968V14.9694C5.20546 14.7635 3.70259 13.9682 2.61317 12.7328C1.52375 11.4974 0.922698 9.90683 0.922852 8.2597C0.922852 8.03552 1.01191 7.82052 1.17042 7.66201C1.32894 7.50349 1.54394 7.41443 1.76811 7.41443C1.99229 7.41443 2.20729 7.50349 2.3658 7.66201C2.52432 7.82052 2.61337 8.03552 2.61337 8.2597C2.61337 9.60476 3.1477 10.8947 4.0988 11.8458C5.04991 12.7969 6.33988 13.3313 7.68494 13.3313C9.03001 13.3313 10.32 12.7969 11.2711 11.8458C12.2222 10.8947 12.7565 9.60476 12.7565 8.2597C12.7565 8.03552 12.8456 7.82052 13.0041 7.66201C13.1626 7.50349 13.3776 7.41443 13.6018 7.41443ZM7.68494 0.652344C8.58165 0.652344 9.44163 1.00856 10.0757 1.64263C10.7098 2.2767 11.066 3.13668 11.066 4.03339V8.2597C11.066 9.1564 10.7098 10.0164 10.0757 10.6505C9.44163 11.2845 8.58165 11.6407 7.68494 11.6407C6.78823 11.6407 5.92825 11.2845 5.29418 10.6505C4.66011 10.0164 4.3039 9.1564 4.3039 8.2597V4.03339C4.3039 3.13668 4.66011 2.2767 5.29418 1.64263C5.92825 1.00856 6.78823 0.652344 7.68494 0.652344Z" fill="#474747"/>
</svg>
