<svg width="10" height="10" viewBox="0 0 10 10" fill="none" xmlns="http://www.w3.org/2000/svg">
<g clip-path="url(#clip0_12841_32547)">
<path d="M7.16667 8.33724C6.86875 8.33724 6.61381 8.23125 6.40183 8.01928C6.18986 7.80731 6.08369 7.55219 6.08333 7.25391V1.83724C6.08333 1.53932 6.1895 1.28438 6.40183 1.07241C6.61417 0.860435 6.86911 0.754268 7.16667 0.753907C7.46422 0.753546 7.71935 0.859713 7.93204 1.07241C8.14474 1.2851 8.25072 1.54005 8.25 1.83724V7.25391C8.25 7.55182 8.14401 7.80695 7.93204 8.01928C7.72007 8.23162 7.46494 8.3376 7.16667 8.33724ZM2.83333 8.33724C2.53542 8.33724 2.28047 8.23125 2.0685 8.01928C1.85653 7.80731 1.75036 7.55219 1.75 7.25391V1.83724C1.75 1.53932 1.85617 1.28438 2.0685 1.07241C2.28083 0.860435 2.53578 0.754268 2.83333 0.753907C3.13089 0.753546 3.38601 0.859713 3.59871 1.07241C3.8114 1.2851 3.91739 1.54005 3.91667 1.83724V7.25391C3.91667 7.55182 3.81068 7.80695 3.59871 8.01928C3.38674 8.23162 3.13161 8.3376 2.83333 8.33724Z" fill="#474747"/>
</g>
<defs>
<clipPath id="clip0_12841_32547">
<rect width="9" height="9" fill="white" transform="translate(0.5 0.0449219)"/>
</clipPath>
</defs>
</svg>
