<svg width="15" height="14" viewBox="0 0 15 14" fill="none" xmlns="http://www.w3.org/2000/svg">
<path fill-rule="evenodd" clip-rule="evenodd" d="M13.4105 0.331904C13.6695 0.0729592 14.0893 0.0729592 14.3483 0.331904C14.6072 0.590848 14.6072 1.01068 14.3483 1.26962L13.1761 2.44184L14.3481 3.61393C14.6071 3.87287 14.6071 4.2927 14.3481 4.55165C14.0892 4.81059 13.6694 4.81059 13.4104 4.55165L12.2383 3.37956L11.0662 4.55165C10.8073 4.81059 10.3875 4.81059 10.1285 4.55165C9.86958 4.2927 9.86958 3.87287 10.1285 3.61393L11.3006 2.44184L10.1284 1.26962C9.86946 1.01068 9.86946 0.590848 10.1284 0.331904C10.3873 0.0729592 10.8072 0.0729592 11.0661 0.331904L12.2383 1.50412L13.4105 0.331904ZM3.52721 0.408662C3.38365 0.482331 1.51368 2.36604 1.35186 2.60002C0.863654 3.30592 0.699584 4.19273 0.905027 5.01514C0.993404 5.36893 1.24416 5.86843 1.47776 6.15603C1.77191 6.51818 8.52866 13.2487 8.7625 13.4124C9.73477 14.0934 10.9988 14.1396 12.0253 13.5315C12.2338 13.4081 12.421 13.2371 13.2878 12.379C13.8475 11.8249 14.3309 11.322 14.3621 11.2616C14.4365 11.1172 14.4363 10.8842 14.3616 10.7406C14.3302 10.6802 13.7 10.0284 12.9613 9.29224C11.8198 8.15483 11.6003 7.94905 11.4995 7.92188C11.1795 7.83559 11.1091 7.87438 10.5046 8.47027C10.1938 8.77665 9.93873 9.00347 9.87492 9.03011C9.73062 9.09038 9.53934 9.08555 9.39531 9.01802C9.22792 8.93949 5.81393 5.51666 5.75101 5.36428C5.69283 5.2234 5.69301 5.04314 5.75145 4.90328C5.7797 4.83574 5.9956 4.59319 6.31118 4.27451C6.82929 3.75131 6.89066 3.66498 6.89066 3.45939C6.89066 3.22967 6.87573 3.21222 5.48816 1.82001C4.75195 1.08137 4.10009 0.451275 4.03963 0.419834C3.90528 0.350018 3.65228 0.344506 3.52721 0.408662ZM4.62134 2.61241L5.44833 3.43968L5.14745 3.7591C4.8063 4.12128 4.63308 4.41258 4.56343 4.74118C4.44067 5.32036 4.58533 5.8692 4.98184 6.32876C5.33648 6.73977 8.50143 9.86515 8.6692 9.97002C9.2371 10.325 9.8916 10.3555 10.4711 10.0541C10.637 9.9678 10.7929 9.84861 11.022 9.63285L11.3416 9.33195L12.1763 10.1676L13.011 11.0032L12.2849 11.7218C11.6653 12.3351 11.5275 12.4567 11.3454 12.5513C10.7948 12.8375 10.2181 12.8481 9.67686 12.5821C9.46187 12.4764 9.33751 12.3559 5.87934 8.89957C2.39938 5.42156 2.30122 5.32036 2.19657 5.10404C1.93206 4.55725 1.94309 3.98485 2.22879 3.43568C2.32315 3.25424 2.44591 3.11487 3.04973 2.50371C3.44019 2.10846 3.7675 1.7851 3.77702 1.7851C3.78653 1.7851 4.16647 2.15739 4.62134 2.61241Z" fill="#F05144"/>
</svg>
