<svg width="14" height="13" viewBox="0 0 14 13" fill="none" xmlns="http://www.w3.org/2000/svg">
<path d="M1.54337 0.137445L13.5602 6.14087C13.6257 6.17361 13.6809 6.22429 13.7195 6.28719C13.7581 6.35008 13.7785 6.42267 13.7785 6.49674C13.7785 6.57081 13.7581 6.6434 13.7195 6.70629C13.6809 6.76918 13.6257 6.81987 13.5602 6.85261L1.54258 12.856C1.47526 12.8896 1.39984 12.9028 1.32533 12.8941C1.25081 12.8854 1.18032 12.8552 1.12227 12.807C1.06421 12.7588 1.02103 12.6948 0.997873 12.6224C0.974712 12.5501 0.972546 12.4725 0.991633 12.399L2.18197 7.84049C2.20126 7.76672 2.24113 7.70017 2.29679 7.6488C2.35246 7.59743 2.42155 7.56343 2.49579 7.55087L7.88086 6.64075C7.91295 6.63537 7.9432 6.62195 7.96889 6.60172C7.99458 6.5815 8.01489 6.55509 8.02799 6.52491L8.04207 6.4773C8.04938 6.43317 8.04176 6.38784 8.02045 6.34866C7.99914 6.30948 7.96539 6.27875 7.92468 6.26147L7.88086 6.24878L2.46605 5.3339C2.39195 5.3212 2.32303 5.28714 2.26751 5.23578C2.212 5.18442 2.17225 5.11794 2.15301 5.04429L0.991633 0.595279C0.972348 0.521676 0.974364 0.444001 0.997441 0.371528C1.02052 0.299055 1.06368 0.234848 1.12177 0.186573C1.17987 0.138298 1.25043 0.107996 1.32505 0.0992842C1.39967 0.0905726 1.47519 0.10382 1.54258 0.137445H1.54337Z" fill="white"/>
</svg>
