<svg width="10" height="13" viewBox="0 0 10 13" fill="none" xmlns="http://www.w3.org/2000/svg">
<path d="M8.52145 6.01505C8.52145 6.43926 8.45074 6.84768 8.32137 7.22826L7.70913 6.61602C7.74919 6.41821 7.76935 6.21688 7.7693 6.01505V5.26291C7.7693 5.16317 7.80892 5.06751 7.87945 4.99699C7.94998 4.92646 8.04563 4.88684 8.14537 4.88684C8.24511 4.88684 8.34077 4.92646 8.4113 4.99699C8.48182 5.06751 8.52145 5.16317 8.52145 5.26291V6.01505ZM4.76072 9.02363C5.37598 9.02363 5.94761 8.83936 6.42447 8.52195L6.96451 9.06274C6.42759 9.4521 5.79681 9.6917 5.1368 9.75697V11.2801H7.39323C7.49297 11.2801 7.58862 11.3197 7.65915 11.3902C7.72968 11.4607 7.7693 11.5564 7.7693 11.6561C7.7693 11.7559 7.72968 11.8515 7.65915 11.9221C7.58862 11.9926 7.49297 12.0322 7.39323 12.0322H2.12822C2.02848 12.0322 1.93282 11.9926 1.86229 11.9221C1.79177 11.8515 1.75214 11.7559 1.75214 11.6561C1.75214 11.5564 1.79177 11.4607 1.86229 11.3902C1.93282 11.3197 2.02848 11.2801 2.12822 11.2801H4.38465V9.75697C3.45702 9.66374 2.59708 9.22927 1.97168 8.53785C1.34628 7.84643 0.999988 6.94736 1 6.01505V5.26291C1 5.16317 1.03962 5.06751 1.11015 4.99699C1.18068 4.92646 1.27633 4.88684 1.37607 4.88684C1.47581 4.88684 1.57147 4.92646 1.642 4.99699C1.71252 5.06751 1.75214 5.16317 1.75214 5.26291V6.01505C1.75214 6.81298 2.06912 7.57822 2.63334 8.14244C3.19755 8.70666 3.9628 9.02363 4.76072 9.02363ZM7.01716 2.25433V5.92404L2.62313 1.53002C2.79533 1.024 3.14151 0.595519 3.60004 0.320843C4.05857 0.046167 4.5997 -0.0568753 5.12709 0.0300604C5.65449 0.116996 6.13391 0.388268 6.48003 0.795583C6.82614 1.2029 7.01648 1.71982 7.01716 2.25433Z" fill="#474747"/>
<path d="M5.89681 7.49211L2.52269 4.11724V5.53127C2.52258 5.92639 2.62621 6.3146 2.82323 6.65709C3.02025 6.99958 3.30375 7.28433 3.64537 7.48286C3.98698 7.68139 4.37474 7.78673 4.76985 7.78836C5.16496 7.78998 5.55358 7.68783 5.89681 7.49211ZM0 0.532518L9.02573 9.55825L9.55825 9.02573L0.532518 0L0 0.532518Z" fill="#474747"/>
</svg>
