<svg width="19" height="20" viewBox="0 0 19 20" fill="none" xmlns="http://www.w3.org/2000/svg">
<path d="M9.34474 0.40625C7.49653 0.40625 5.68982 0.954309 4.15308 1.98112C2.61635 3.00793 1.41861 4.46738 0.71133 6.17491C0.00404876 7.88244 -0.181008 9.76135 0.179561 11.5741C0.540129 13.3868 1.43013 15.0518 2.73701 16.3587C4.0439 17.6656 5.70897 18.5556 7.52167 18.9162C9.33437 19.2767 11.2133 19.0917 12.9208 18.3844C14.6283 17.6771 16.0878 16.4794 17.1146 14.9426C18.1414 13.4059 18.6895 11.5992 18.6895 9.75099C18.6866 7.2735 17.7011 4.89832 15.9493 3.14647C14.1974 1.39463 11.8222 0.40916 9.34474 0.40625ZM4.16299 16.164C4.70058 15.2701 5.46028 14.5305 6.36826 14.017C7.27625 13.5035 8.30162 13.2337 9.34474 13.2337C10.3879 13.2337 11.4132 13.5035 12.3212 14.017C13.2292 14.5305 13.9889 15.2701 14.5265 16.164C13.061 17.3524 11.2315 18.001 9.34474 18.001C7.45795 18.001 5.6285 17.3524 4.16299 16.164ZM6.22983 9.01807C6.22983 8.40199 6.41251 7.79976 6.75479 7.28751C7.09706 6.77527 7.58354 6.37602 8.15272 6.14026C8.72189 5.9045 9.3482 5.84282 9.95243 5.96301C10.5567 6.0832 11.1117 6.37986 11.5473 6.81549C11.9829 7.25112 12.2796 7.80614 12.3998 8.41038C12.52 9.01461 12.4583 9.64091 12.2225 10.2101C11.9868 10.7793 11.5875 11.2658 11.0753 11.608C10.563 11.9503 9.96081 12.133 9.34474 12.133C8.51861 12.133 7.72632 11.8048 7.14216 11.2206C6.55801 10.6365 6.22983 9.84419 6.22983 9.01807ZM15.3464 15.3981C14.4828 14.0552 13.1918 13.0424 11.6818 12.5233C12.4348 12.0218 13.0063 11.2913 13.312 10.4399C13.6177 9.58846 13.6413 8.66127 13.3794 7.79538C13.1174 6.9295 12.5838 6.1709 11.8574 5.63174C11.1309 5.09257 10.2503 4.80147 9.34566 4.80147C8.44101 4.80147 7.56038 5.09257 6.83396 5.63174C6.10754 6.1709 5.5739 6.9295 5.31193 7.79538C5.04996 8.66127 5.07358 9.58846 5.37928 10.4399C5.68499 11.2913 6.25655 12.0218 7.00947 12.5233C5.49953 13.0424 4.20855 14.0552 3.34487 15.3981C2.24075 14.2265 1.5038 12.7572 1.22493 11.1716C0.946072 9.58596 1.1375 7.9534 1.7756 6.47532C2.4137 4.99723 3.47056 3.73828 4.81577 2.85381C6.16099 1.96933 7.73571 1.49801 9.34566 1.49801C10.9556 1.49801 12.5303 1.96933 13.8755 2.85381C15.2208 3.73828 16.2776 4.99723 16.9157 6.47532C17.5538 7.9534 17.7452 9.58596 17.4664 11.1716C17.1875 12.7572 16.4506 14.2265 15.3464 15.3981Z" fill="#474747"/>
<path d="M15.3464 15.3981C14.4828 14.0552 13.1918 13.0424 11.6818 12.5233C12.4348 12.0218 13.0063 11.2913 13.312 10.4399C13.6177 9.58846 13.6413 8.66127 13.3794 7.79538C13.1174 6.9295 12.5838 6.1709 11.8574 5.63174C11.1309 5.09257 10.2503 4.80147 9.34566 4.80147C8.44101 4.80147 7.56038 5.09257 6.83396 5.63174C6.10754 6.1709 5.5739 6.9295 5.31193 7.79538C5.04996 8.66127 5.07358 9.58846 5.37928 10.4399C5.68499 11.2913 6.25655 12.0218 7.00947 12.5233C5.49953 13.0424 4.20855 14.0552 3.34487 15.3981C2.24075 14.2265 1.5038 12.7572 1.22493 11.1716C0.946072 9.58596 1.1375 7.9534 1.7756 6.47532C2.4137 4.99723 3.47056 3.73828 4.81577 2.85381C6.16099 1.96933 7.73571 1.49801 9.34566 1.49801C10.9556 1.49801 12.5303 1.96933 13.8755 2.85381C15.2208 3.73828 16.2776 4.99723 16.9157 6.47532C17.5538 7.9534 17.7452 9.58596 17.4664 11.1716C17.1875 12.7572 16.4506 14.2265 15.3464 15.3981Z" fill="#474747"/>
</svg>
