<svg width="24" height="23" viewBox="0 0 24 23" fill="none" xmlns="http://www.w3.org/2000/svg">
<g clip-path="url(#clip0_80_1625)">
<path d="M23.8438 11.4885C23.8438 5.14625 18.6917 0 12.3438 0C5.99575 0 0.84375 5.14625 0.84375 11.4885C0.84375 14.9816 2.43075 18.1297 4.91475 20.2429C4.93775 20.2659 4.96075 20.2659 4.96075 20.2889C5.16775 20.4499 5.37475 20.6109 5.60475 20.7719C5.71975 20.8409 5.81175 20.9314 5.92675 21.0234C7.82722 22.312 10.0706 23.0005 12.3667 23C14.6629 23.0005 16.9063 22.312 18.8068 21.0234C18.9218 20.9544 19.0138 20.8639 19.1287 20.7934C19.3358 20.6339 19.5658 20.4729 19.7728 20.3119C19.7957 20.2889 19.8188 20.2889 19.8188 20.2659C22.2568 18.1283 23.8438 14.9816 23.8438 11.4885ZM12.3438 21.5524C10.1818 21.5524 8.20375 20.8624 6.57075 19.7139C6.59375 19.5299 6.63975 19.3473 6.68575 19.1633C6.8228 18.6647 7.0238 18.1858 7.28375 17.7388C7.53675 17.3018 7.83575 16.9107 8.20375 16.5658C8.54875 16.2208 8.96275 15.9002 9.37675 15.6472C9.81375 15.3942 10.2738 15.2102 10.7797 15.0722C11.2897 14.9347 11.8156 14.8656 12.3438 14.8666C13.9116 14.8555 15.4218 15.4569 16.5528 16.5428C17.0818 17.0718 17.4958 17.6928 17.7948 18.4043C17.9557 18.8183 18.0707 19.2553 18.1397 19.7139C16.4423 20.9072 14.4187 21.5491 12.3438 21.5524ZM8.82475 10.9149C8.62209 10.4509 8.52018 9.94923 8.52575 9.44294C8.52575 8.93837 8.61775 8.43237 8.82475 7.97237C9.03175 7.51237 9.30775 7.09981 9.65275 6.75481C9.99775 6.40981 10.4117 6.13525 10.8717 5.92825C11.3317 5.72125 11.8378 5.62925 12.3438 5.62925C12.8728 5.62925 13.3558 5.72125 13.8158 5.92825C14.2758 6.13525 14.6897 6.41125 15.0347 6.75481C15.3797 7.09981 15.6558 7.51381 15.8628 7.97237C16.0697 8.43237 16.1617 8.93837 16.1617 9.44294C16.1617 9.97194 16.0697 10.4549 15.8628 10.9135C15.663 11.3667 15.3824 11.7798 15.0347 12.1325C14.6819 12.4796 14.2688 12.7597 13.8158 12.9591C12.8653 13.3497 11.7992 13.3497 10.8488 12.9591C10.3957 12.7597 9.98261 12.4796 9.62975 12.1325C9.28161 11.7849 9.00773 11.3716 8.82475 10.9149ZM19.4967 18.5423C19.4967 18.4963 19.4737 18.4733 19.4737 18.4273C19.2475 17.7077 18.9141 17.0264 18.4848 16.4062C18.055 15.7814 17.5268 15.2304 16.9207 14.7746C16.4579 14.4264 15.9562 14.1331 15.4257 13.9006C15.6671 13.7414 15.8907 13.5568 16.0927 13.3501C16.4357 13.0115 16.7368 12.6332 16.9897 12.2231C17.4991 11.3862 17.7622 10.4226 17.7488 9.44294C17.7559 8.71774 17.615 7.99871 17.3348 7.32981C17.0581 6.68529 16.6598 6.10011 16.1617 5.60625C15.6644 5.11754 15.0791 4.72735 14.4368 4.45625C13.7667 4.1765 13.0468 4.03613 12.3208 4.04369C11.5946 4.03659 10.8747 4.17745 10.2048 4.45769C9.5568 4.72821 8.9701 5.12668 8.47975 5.62925C7.99106 6.12603 7.60085 6.71085 7.32975 7.35281C7.04951 8.02171 6.90864 8.74074 6.91575 9.46594C6.91575 9.97194 6.98475 10.4549 7.12275 10.9135C7.26075 11.3965 7.44475 11.8335 7.69775 12.2461C7.92775 12.6601 8.24975 13.0281 8.59475 13.3731C8.80175 13.5801 9.03175 13.7626 9.28475 13.9236C8.75264 14.1623 8.25078 14.4635 7.78975 14.8206C7.19175 15.2806 6.66275 15.8312 6.22575 16.4292C5.792 17.0468 5.45824 17.7289 5.23675 18.4503C5.21375 18.4963 5.21375 18.5423 5.21375 18.5653C3.39675 16.7267 2.26975 14.2456 2.26975 11.4885C2.26975 5.95125 6.80075 1.42456 12.3438 1.42456C17.8867 1.42456 22.4178 5.95125 22.4178 11.4885C22.4147 14.1334 21.3645 16.6696 19.4967 18.5423Z" fill="#474747"/>
</g>
<defs>
<clipPath id="clip0_80_1625">
<rect width="23" height="23" fill="white" transform="translate(0.84375)"/>
</clipPath>
</defs>
</svg>
