<svg width="7" height="10" viewBox="0 0 7 10" fill="none" xmlns="http://www.w3.org/2000/svg">
<path d="M0.974009 0.317261C0.843082 0.442905 0.769531 0.613292 0.769531 0.790953C0.769531 0.968614 0.843082 1.139 0.974009 1.26464L4.43101 4.58116L0.974009 7.89767C0.846793 8.02403 0.776399 8.19328 0.777991 8.36895C0.779582 8.54462 0.85303 8.71267 0.982516 8.83689C1.112 8.96112 1.28717 9.03158 1.47028 9.03311C1.65339 9.03463 1.82981 8.9671 1.96152 8.84505L5.91228 5.05485C6.0432 4.9292 6.11675 4.75882 6.11675 4.58116C6.11675 4.4035 6.0432 4.23311 5.91228 4.10747L1.96152 0.317261C1.83056 0.191655 1.65295 0.121094 1.46777 0.121094C1.28258 0.121094 1.10497 0.191655 0.974009 0.317261Z" fill="white"/>
</svg>
