<svg width="14" height="15" viewBox="0 0 14 15" fill="none" xmlns="http://www.w3.org/2000/svg">
<path fill-rule="evenodd" clip-rule="evenodd" d="M10.4596 1.23693C10.5008 1.08365 10.6842 0.888061 10.8257 0.846405C10.8839 0.829294 11.472 0.819679 12.2679 0.822874L13.6118 0.828219L13.7258 0.899079C13.7885 0.938048 13.8758 1.02444 13.9199 1.091L14 1.21205V2.60277V3.99348L13.9291 4.10746C13.8902 4.17017 13.8038 4.25751 13.7372 4.30156C13.6363 4.3683 13.583 4.38167 13.4176 4.38167C13.2523 4.38167 13.1989 4.3683 13.0981 4.30156C13.0315 4.25751 12.9451 4.17017 12.9062 4.10746C12.8392 3.99978 12.8347 3.96222 12.8254 3.42905L12.8156 2.86459L10.8842 4.79277C10.7913 4.88557 10.7063 4.97042 10.6286 5.04788L11.7922 6.21152C11.9786 6.39791 11.9786 6.7001 11.7922 6.88649C11.6059 7.07287 11.3037 7.07287 11.1173 6.88649L9.95063 5.71983C9.82398 5.84205 9.86451 5.79406 9.93525 5.71028C9.93613 5.70923 9.93702 5.70818 9.93792 5.70712L9.12047 4.88968C9.1193 4.89066 9.11814 4.89164 9.11699 4.89262C9.03338 4.96324 8.98564 5.00357 9.10783 4.87703L7.93547 3.70467C7.74908 3.51828 7.74908 3.21609 7.93547 3.0297C8.12185 2.84332 8.42405 2.84332 8.61043 3.0297L9.77989 4.19916C9.85735 4.12152 9.94219 4.03654 10.035 3.94361L11.9634 2.0125L11.3989 2.00265C10.8656 1.99333 10.8281 1.98888 10.7204 1.92194C10.4943 1.78141 10.3881 1.50239 10.4596 1.23693ZM0.5376 3.37769C0.70066 3.14191 2.58499 1.24374 2.72965 1.16951C2.85568 1.10486 3.11063 1.11041 3.24601 1.18076C3.30693 1.21245 3.9638 1.84738 4.70566 2.59169C6.10389 3.99459 6.11894 4.01218 6.11894 4.24366C6.11894 4.45084 6.05709 4.53782 5.535 5.06505C5.217 5.38617 4.99944 5.63058 4.97098 5.69864C4.91209 5.83958 4.91191 6.02123 4.97053 6.16318C5.03393 6.31673 8.47414 9.76585 8.64281 9.84498C8.78796 9.91303 8.9807 9.9179 9.12611 9.85716C9.19041 9.83032 9.44745 9.60176 9.76067 9.29303C10.3698 8.69256 10.4407 8.65347 10.7632 8.74042C10.8647 8.76781 11.0859 8.97516 12.2362 10.1213C12.9806 10.8631 13.6156 11.5199 13.6473 11.5808C13.7225 11.7255 13.7227 11.9603 13.6477 12.1058C13.6164 12.1667 13.1292 12.6734 12.5652 13.2318C11.6918 14.0965 11.5031 14.2688 11.293 14.3932C10.2586 15.0059 8.98488 14.9594 8.00515 14.2731C7.76952 14.1081 0.960869 7.32594 0.664464 6.96101C0.429072 6.67121 0.176389 6.16787 0.0873332 5.81136C-0.119687 4.98263 0.0456425 4.08901 0.5376 3.37769ZM4.66553 4.2238L3.83219 3.39018C3.37383 2.93166 2.99097 2.55652 2.98138 2.55652C2.97179 2.55652 2.64197 2.88236 2.2485 3.28065C1.64005 3.8965 1.51635 4.03693 1.42126 4.21977C1.13337 4.77316 1.12226 5.34995 1.3888 5.90095C1.49425 6.11893 1.59316 6.22091 5.09984 9.72563C8.58458 13.2085 8.70989 13.33 8.92653 13.4364C9.47194 13.7045 10.0531 13.6938 10.6079 13.4054C10.7914 13.31 10.9302 13.1875 11.5546 12.5695L12.2863 11.8454L11.4451 11.0033L10.604 10.1613L10.282 10.4645C10.0512 10.682 9.89408 10.8021 9.72686 10.889C9.14293 11.1928 8.4834 11.162 7.91113 10.8043C7.74207 10.6986 4.55282 7.54924 4.19546 7.13507C3.7959 6.67198 3.65013 6.11893 3.77383 5.5353C3.84401 5.20417 4.01857 4.91064 4.36234 4.54568L4.66553 4.2238Z" fill="#57A1D7"/>
</svg>
