<svg width="16" height="16" viewBox="0 0 16 16" fill="none" xmlns="http://www.w3.org/2000/svg">
<path fill-rule="evenodd" clip-rule="evenodd" d="M12.8246 0.648955C12.6842 0.690293 12.5022 0.884392 12.4612 1.0365C12.3903 1.29994 12.4957 1.57684 12.7201 1.71629C12.8269 1.78273 12.8642 1.78714 13.3934 1.79639L13.9536 1.80617L12.0399 3.72256C10.295 5.46992 10.1231 5.65068 10.0911 5.772C9.96673 6.24368 10.3613 6.63816 10.833 6.51381C10.9543 6.48184 11.1351 6.30997 12.8827 4.56524L14.7993 2.65176L14.8091 3.21192C14.8183 3.74102 14.8227 3.7783 14.8892 3.88516C14.9279 3.94739 15.0136 4.03406 15.0797 4.07777C15.1797 4.144 15.2327 4.15728 15.3968 4.15728C15.5608 4.15728 15.6138 4.144 15.7139 4.07777C15.7799 4.03406 15.8657 3.94739 15.9044 3.88516L15.9747 3.77205V2.39193V1.01182L15.8952 0.891682C15.8515 0.825629 15.7648 0.7399 15.7025 0.701228L15.5894 0.630908L14.2557 0.625604C13.4659 0.622433 12.8823 0.631975 12.8246 0.648955ZM3.52721 2.23262C3.38365 2.30629 1.51368 4.19 1.35186 4.42398C0.863654 5.12988 0.699584 6.01669 0.905027 6.8391C0.993404 7.19289 1.24416 7.69239 1.47776 7.97999C1.77191 8.34213 8.52866 15.0726 8.7625 15.2364C9.73477 15.9174 10.9988 15.9635 12.0253 15.3555C12.2338 15.232 12.421 15.0611 13.2878 14.203C13.8475 13.6489 14.3309 13.146 14.3621 13.0855C14.4365 12.9412 14.4363 12.7082 14.3616 12.5646C14.3302 12.5041 13.7 11.8523 12.9613 11.1162C11.8198 9.97879 11.6003 9.77301 11.4995 9.74584C11.1795 9.65955 11.1091 9.69834 10.5046 10.2942C10.1938 10.6006 9.93873 10.8274 9.87492 10.8541C9.73062 10.9143 9.53934 10.9095 9.3953 10.842C9.22792 10.7634 5.81393 7.34062 5.75101 7.18824C5.69283 7.04736 5.69301 6.8671 5.75145 6.72723C5.7797 6.6597 5.9956 6.41715 6.31117 6.09847C6.82929 5.57527 6.89066 5.48894 6.89066 5.28335C6.89066 5.05363 6.87573 5.03618 5.48816 3.64397C4.75195 2.90533 4.10009 2.27523 4.03963 2.24379C3.90528 2.17398 3.65227 2.16847 3.52721 2.23262ZM4.62134 4.43637L5.44833 5.26364L5.14745 5.58306C4.8063 5.94524 4.63308 6.23654 4.56343 6.56514C4.44067 7.14432 4.58533 7.69316 4.98184 8.15272C5.33648 8.56373 8.50143 11.6891 8.6692 11.794C9.2371 12.149 9.8916 12.1795 10.4711 11.8781C10.637 11.7918 10.7929 11.6726 11.022 11.4568L11.3416 11.1559L12.1763 11.9915L13.011 12.8271L12.2849 13.5458C11.6653 14.159 11.5275 14.2806 11.3454 14.3753C10.7948 14.6614 10.2181 14.6721 9.67685 14.406C9.46187 14.3004 9.33751 14.1798 5.87934 10.7235C2.39938 7.24552 2.30122 7.14432 2.19657 6.928C1.93206 6.38121 1.94309 5.80881 2.22879 5.25964C2.32315 5.0782 2.44591 4.93883 3.04973 4.32767C3.44019 3.93242 3.7675 3.60906 3.77702 3.60906C3.78653 3.60906 4.16647 3.98135 4.62134 4.43637Z" fill="#26AB23"/>
</svg>
