<svg width="24" height="24" viewBox="0 0 24 24" fill="none" xmlns="http://www.w3.org/2000/svg">
<path d="M14.3516 6.31055V10.2053L15.7141 11.0622C15.7632 11.073 15.8142 11.073 15.8634 11.0622L21.7215 7.11268C21.7172 6.921 21.6471 6.73663 21.5229 6.59056C21.3987 6.44449 21.2281 6.34561 21.0396 6.31055H14.3516Z" fill="#0072C6"/>
<path d="M14.3501 11.6585L15.5924 12.5119C15.6506 12.5473 15.7174 12.566 15.7855 12.566C15.8536 12.566 15.9204 12.5473 15.9786 12.5119C15.7652 12.6406 21.7194 8.6875 21.7194 8.6875V15.8455C21.7349 15.9906 21.7185 16.1373 21.6714 16.2753C21.6244 16.4134 21.5477 16.5395 21.4467 16.6448C21.3458 16.7502 21.2231 16.8322 21.0872 16.8851C20.9512 16.938 20.8054 16.9606 20.6598 16.9513H14.3494L14.3501 11.6585ZM7.91883 9.86297C7.71241 9.86197 7.50957 9.91684 7.3318 10.0217C7.15404 10.1267 7.00796 10.2777 6.90905 10.4589C6.63891 10.9391 6.50929 11.4857 6.53501 12.0361C6.50693 12.5854 6.63673 13.1312 6.90905 13.6091C7.00754 13.7828 7.15003 13.9276 7.32218 14.0288C7.49433 14.13 7.69009 14.1841 7.88978 14.1857C8.08947 14.1873 8.28606 14.1363 8.4598 14.0378C8.63354 13.9393 8.7783 13.7969 8.87954 13.6247C9.14889 13.1491 9.276 12.6061 9.24576 12.0603C9.27661 11.4974 9.1537 10.9367 8.8902 10.4383C8.79604 10.263 8.6558 10.1168 8.4846 10.0154C8.31341 9.914 8.11778 9.86129 7.91883 9.86297Z" fill="#0072C6"/>
<path d="M2.02734 4.33242V19.5694L13.6185 22V2.08887L2.02734 4.33242ZM9.78414 14.5269C9.56731 14.8326 9.279 15.0806 8.94434 15.2493C8.60968 15.418 8.23884 15.5022 7.86414 15.4947C7.49888 15.5012 7.13745 15.4194 6.8106 15.2562C6.48374 15.093 6.20114 14.8533 5.98681 14.5575C5.4785 13.8478 5.22422 12.9875 5.26503 12.1155C5.22179 11.2008 5.48067 10.2972 6.00174 9.54416C6.22131 9.23264 6.51415 8.97993 6.85444 8.8083C7.19472 8.63666 7.57201 8.55139 7.95303 8.55998C8.31565 8.5527 8.67451 8.63455 8.99812 8.79833C9.32172 8.96212 9.60017 9.20284 9.80903 9.49936C10.3123 10.2244 10.5622 11.0953 10.5201 11.9769C10.5645 12.885 10.3056 13.7821 9.78414 14.5269Z" fill="#0072C6"/>
</svg>
