<svg width="90" height="117" viewBox="0 0 90 117" fill="none" xmlns="http://www.w3.org/2000/svg">
<path d="M86 49.5337V100.718C86 104.064 84.7041 107.273 82.3974 109.638C80.0907 112.004 76.9622 113.333 73.7 113.333H16.3C13.0378 113.333 9.90928 112.004 7.60259 109.638C5.29589 107.273 4 104.064 4 100.718V16.6154C4 13.2696 5.29589 10.0608 7.60259 7.69496C9.90928 5.32912 13.0378 4 16.3 4H41.6047C43.7787 4.00034 45.8636 4.88613 47.4011 6.46263L83.5989 43.5887C85.136 45.1655 85.9997 47.3039 86 49.5337Z" stroke="#006BE0" stroke-width="6.43137" stroke-linejoin="round"/>
<path d="M45.627 8.55273V38.3391C45.627 40.4457 46.4214 42.466 47.8354 43.9556C49.2495 45.4452 51.1674 46.2821 53.1672 46.2821H81.443" stroke="#006BE0" stroke-width="6.43137" stroke-linecap="round" stroke-linejoin="round"/>
<path d="M44.5573 69.4267L44.595 69.2504C45.325 66.2414 46.2438 62.4895 45.5264 59.0902C45.0481 56.4085 43.0721 55.3635 41.3855 55.288C39.3968 55.1999 37.6222 56.333 37.1816 57.9823C36.3509 61.0039 37.0935 65.1335 38.4529 70.3961C36.7411 74.4753 34.0099 80.4052 32.0086 83.9305C28.2831 85.8568 23.2863 88.828 22.5437 92.5799C22.3926 93.2723 22.5688 94.1536 22.9842 94.9468C23.4499 95.8281 24.1925 96.508 25.0609 96.8353C25.4385 96.9738 25.8916 97.0871 26.4203 97.0871C28.6355 97.0871 32.2226 95.2993 37.0054 87.0906C37.7354 86.8514 38.4906 86.5996 39.2206 86.3478C42.6441 85.1895 46.1935 83.9808 49.403 83.4395C52.9524 85.3406 56.9926 86.5618 59.7365 86.5618C62.4551 86.5618 63.525 84.9503 63.9277 83.9808C64.6326 82.2812 64.2927 80.1409 63.1474 78.9952C61.486 77.3584 57.4457 76.9304 51.1525 77.711C48.0563 75.8225 46.0299 73.2541 44.5573 69.4267ZM30.75 88.551C29.0005 91.0942 27.6789 92.3658 26.9615 92.9198C27.8048 91.3712 29.4536 89.7345 30.75 88.551ZM41.7757 58.9014C42.4302 60.0219 42.3421 63.4086 41.8386 65.1209C41.2219 62.6154 41.1338 59.065 41.4988 58.6496C41.5995 58.6622 41.6876 58.7377 41.7757 58.9014ZM41.5743 74.0724C42.921 76.4016 44.6202 78.4034 46.4956 79.8891C43.7769 80.506 41.2974 81.5258 39.0822 82.4323C38.5536 82.6463 38.0375 82.8603 37.5341 83.0618C39.208 80.0275 40.6051 76.5905 41.5743 74.0724ZM61.1587 82.3189C61.1713 82.3441 61.1839 82.3819 61.1084 82.4323H61.0832L61.058 82.47C60.9573 82.533 59.9253 83.1373 55.4823 81.3873C60.5923 81.1481 61.1461 82.3064 61.1587 82.3189Z" fill="#006BE0"/>
</svg>
