<svg width="18" height="13" viewBox="0 0 18 13" fill="none" xmlns="http://www.w3.org/2000/svg">
<path d="M0.967773 10.4736C0.967773 11.5565 1.78052 12.437 2.78018 12.437H10.0298C11.0295 12.437 11.8422 11.5565 11.8422 10.4736V2.61981C11.8422 1.53685 11.0295 0.656366 10.0298 0.656366H2.78018C1.78052 0.656366 0.967773 1.53685 0.967773 2.61981V10.4736ZM16.8008 11.3387C17.0954 11.1669 17.2794 10.8356 17.2794 10.4736V2.61981C17.2794 2.2578 17.0954 1.92647 16.8008 1.75466C16.5063 1.58286 16.1495 1.60127 15.8692 1.80375L13.1505 3.76719L12.7484 4.05864V9.03474L13.1505 9.32618L15.8692 11.2896C16.1467 11.489 16.5035 11.5105 16.8008 11.3387Z" fill="white"/>
</svg>
