<svg width="18" height="19" viewBox="0 0 18 19" fill="none" xmlns="http://www.w3.org/2000/svg">
<path d="M16.9468 12.9174C15.7804 12.9174 14.6519 12.7239 13.5993 12.3755C13.4344 12.3185 13.2571 12.31 13.0877 12.3511C12.9183 12.3921 12.7637 12.4811 12.6416 12.6077L11.1527 14.514C8.46909 13.2077 5.95613 10.7402 4.61904 7.905L6.4682 6.29872C6.72424 6.02778 6.8001 5.6504 6.69579 5.31172C6.34493 4.23764 6.16475 3.08615 6.16475 1.89595C6.16475 1.37343 5.73802 0.937988 5.22595 0.937988H1.94487C1.43279 0.937988 0.816406 1.17022 0.816406 1.89595C0.816406 10.8853 8.14667 18.3555 16.9468 18.3555C17.6201 18.3555 17.8856 17.7459 17.8856 17.2137V13.8753C17.8856 13.3528 17.4589 12.9174 16.9468 12.9174Z" fill="white"/>
</svg>
