<svg width="25" height="10" viewBox="0 0 25 10" fill="none" xmlns="http://www.w3.org/2000/svg">
<path d="M5.0764 8.31425C5.88433 7.50632 6.80557 6.86424 7.78593 6.38638C7.94129 6.31329 8.07022 6.19658 8.15793 6.04961C8.24565 5.90265 8.2886 5.73139 8.28186 5.55546L7.93824 3.14931C10.7393 2.23258 14.2597 2.27158 17.2307 3.39029L17.1084 5.82969C17.1264 6.20246 17.3461 6.52719 17.6626 6.69921C18.6803 7.23085 19.6356 7.93656 20.494 8.79499C20.8709 9.17186 21.4806 9.19033 21.8353 8.83563L24.108 6.56291C24.4627 6.20821 24.7222 5.61375 24.1987 5.09032C17.7151 -1.39326 7.24977 -1.70363 1.15414 4.392C0.687775 4.85837 0.94354 5.48197 1.32739 5.86582L3.73518 8.27361C4.11205 8.65048 4.72169 8.66895 5.0764 8.31425Z" fill="white"/>
</svg>
