<svg width="28" height="37" viewBox="0 0 28 37" fill="none" xmlns="http://www.w3.org/2000/svg">
<path d="M1.21484 5.26758V30.8257" stroke="#006BE0" stroke-width="2" stroke-linecap="round" stroke-linejoin="round"/>
<path d="M26.7852 11.6602L26.7852 30.8377" stroke="#006BE0" stroke-width="2" stroke-linecap="round" stroke-linejoin="round"/>
<path d="M5.47656 1.00586H16.1306" stroke="#006BE0" stroke-width="2" stroke-linecap="round" stroke-linejoin="round"/>
<path d="M5.47656 35.0977H22.523" stroke="#006BE0" stroke-width="2" stroke-linecap="round" stroke-linejoin="round"/>
<path d="M26.789 30.8379C26.8006 32.9663 24.6581 35.0995 22.5273 35.0995" stroke="#006BE0" stroke-width="2" stroke-linecap="round" stroke-linejoin="round"/>
<path d="M1.21495 30.8379C1.21495 32.9687 3.34576 35.0995 5.47656 35.0995" stroke="#006BE0" stroke-width="2" stroke-linecap="round" stroke-linejoin="round"/>
<path d="M1.21495 5.26367C1.21495 3.13596 3.34576 1.05261 5.47656 1.00515" stroke="#006BE0" stroke-width="2" stroke-linecap="round" stroke-linejoin="round"/>
<path d="M26.7752 11.6694L16.1328 1.00586" stroke="#006BE0" stroke-width="2" stroke-linecap="round" stroke-linejoin="round"/>
<path d="M16.1329 7.39844C16.1395 9.51765 18.2723 11.66 20.3945 11.66" stroke="#006BE0" stroke-width="2" stroke-linecap="round" stroke-linejoin="round"/>
<path d="M16.1328 7.39827V1.00586" stroke="#006BE0" stroke-width="2" stroke-linecap="round" stroke-linejoin="round"/>
<path d="M20.3945 11.6602H26.7869" stroke="#006BE0" stroke-width="2" stroke-linecap="round" stroke-linejoin="round"/>
<path d="M7.0625 20.2474L11.0625 16.2474L15.0625 20.2474L20.3958 14.9141" stroke="#006BE0" stroke-width="2" stroke-linecap="round" stroke-linejoin="round"/>
<path d="M8.21454 28.4959H7.04761V30.2764C7.04761 30.5309 6.98755 30.724 6.86743 30.8555C6.7473 30.9871 6.59572 31.0529 6.41267 31.0529C6.22104 31.0529 6.0666 30.9885 5.94933 30.8598C5.83207 30.7282 5.77344 30.5366 5.77344 30.2849V25.4371C5.77344 25.1568 5.83779 24.9566 5.96649 24.8364C6.0952 24.7163 6.2997 24.6562 6.57999 24.6562H8.21454C8.69789 24.6562 9.06971 24.6934 9.32998 24.7678C9.58738 24.8393 9.80904 24.958 9.99495 25.1239C10.1837 25.2898 10.3267 25.4928 10.424 25.7331C10.5212 25.9733 10.5698 26.2436 10.5698 26.5439C10.5698 27.1846 10.3725 27.6708 9.97779 28.0026C9.58309 28.3315 8.99534 28.4959 8.21454 28.4959ZM7.90564 25.613H7.04761V27.5349H7.90564C8.20596 27.5349 8.45621 27.5035 8.65642 27.4406C8.85949 27.3776 9.01393 27.2747 9.11976 27.1317C9.22558 26.9887 9.27849 26.8013 9.27849 26.5697C9.27849 26.2922 9.19698 26.0663 9.03395 25.8918C8.85091 25.7059 8.4748 25.613 7.90564 25.613Z" fill="#006BE0"/>
<path d="M14.0749 28.4959H12.908V30.2764C12.908 30.5309 12.8479 30.724 12.7278 30.8555C12.6077 30.9871 12.4561 31.0529 12.273 31.0529C12.0814 31.0529 11.9269 30.9885 11.8097 30.8598C11.6924 30.7282 11.6338 30.5366 11.6338 30.2849V25.4371C11.6338 25.1568 11.6981 24.9566 11.8268 24.8364C11.9555 24.7163 12.16 24.6562 12.4403 24.6562H14.0749C14.5582 24.6562 14.9301 24.6934 15.1903 24.7678C15.4477 24.8393 15.6694 24.958 15.8553 25.1239C16.0441 25.2898 16.1871 25.4928 16.2843 25.7331C16.3816 25.9733 16.4302 26.2436 16.4302 26.5439C16.4302 27.1846 16.2328 27.6708 15.8381 28.0026C15.4434 28.3315 14.8557 28.4959 14.0749 28.4959ZM13.766 25.613H12.908V27.5349H13.766C14.0663 27.5349 14.3166 27.5035 14.5168 27.4406C14.7198 27.3776 14.8743 27.2747 14.9801 27.1317C15.0859 26.9887 15.1388 26.8013 15.1388 26.5697C15.1388 26.2922 15.0573 26.0663 14.8943 25.8918C14.7113 25.7059 14.3352 25.613 13.766 25.613Z" fill="#006BE0"/>
<path d="M21.5784 25.7073H20.1884V30.2764C20.1884 30.5395 20.1297 30.7354 20.0125 30.8641C19.8952 30.9899 19.7436 31.0529 19.5577 31.0529C19.3689 31.0529 19.2145 30.9885 19.0944 30.8598C18.9771 30.7311 18.9185 30.5366 18.9185 30.2764V25.7073H17.5285C17.3111 25.7073 17.1495 25.6601 17.0437 25.5658C16.9378 25.4685 16.8849 25.3412 16.8849 25.1839C16.8849 25.0209 16.9393 24.8922 17.048 24.7978C17.1595 24.7034 17.3197 24.6562 17.5285 24.6562H21.5784C21.7986 24.6562 21.9616 24.7049 22.0674 24.8021C22.1761 24.8994 22.2305 25.0266 22.2305 25.1839C22.2305 25.3412 22.1761 25.4685 22.0674 25.5658C21.9588 25.6601 21.7957 25.7073 21.5784 25.7073Z" fill="#006BE0"/>
</svg>
