<svg width="6" height="10" viewBox="0 0 6 10" fill="none" xmlns="http://www.w3.org/2000/svg">
<path d="M5.33459 0.317261C5.46551 0.442905 5.53906 0.613292 5.53906 0.790953C5.53906 0.968614 5.46551 1.139 5.33459 1.26464L1.87759 4.58116L5.33458 7.89767C5.4618 8.02403 5.53219 8.19328 5.5306 8.36895C5.52901 8.54462 5.45556 8.71267 5.32608 8.83689C5.19659 8.96112 5.02143 9.03158 4.83831 9.03311C4.6552 9.03463 4.47879 8.9671 4.34707 8.84505L0.396317 5.05485C0.265391 4.9292 0.19184 4.75882 0.19184 4.58116C0.19184 4.4035 0.265391 4.23311 0.396317 4.10747L4.34707 0.317261C4.47804 0.191655 4.65564 0.121094 4.84083 0.121094C5.02601 0.121094 5.20362 0.191655 5.33459 0.317261Z" fill="white"/>
</svg>
