<svg width="28" height="38" viewBox="0 0 28 38" fill="none" xmlns="http://www.w3.org/2000/svg">
<path d="M1.21484 6.21484V31.773" stroke="#614B98" stroke-width="2" stroke-linecap="round" stroke-linejoin="round"/>
<path d="M26.7852 12.6074L26.7852 31.785" stroke="#614B98" stroke-width="2" stroke-linecap="round" stroke-linejoin="round"/>
<path d="M5.47656 1.95312H16.1306" stroke="#614B98" stroke-width="2" stroke-linecap="round" stroke-linejoin="round"/>
<path d="M5.47656 36.0469H22.523" stroke="#614B98" stroke-width="2" stroke-linecap="round" stroke-linejoin="round"/>
<path d="M26.789 31.7852C26.8006 33.9135 24.6581 36.0468 22.5273 36.0468" stroke="#614B98" stroke-width="2" stroke-linecap="round" stroke-linejoin="round"/>
<path d="M1.21495 31.7852C1.21495 33.916 3.34576 36.0468 5.47656 36.0468" stroke="#614B98" stroke-width="2" stroke-linecap="round" stroke-linejoin="round"/>
<path d="M1.21495 6.21094C1.21495 4.08322 3.34576 1.99987 5.47656 1.95242" stroke="#614B98" stroke-width="2" stroke-linecap="round" stroke-linejoin="round"/>
<path d="M26.7752 12.6167L16.1328 1.95312" stroke="#614B98" stroke-width="2" stroke-linecap="round" stroke-linejoin="round"/>
<path d="M16.129 8.3457C16.1356 10.4649 18.2684 12.6073 20.3906 12.6073" stroke="#614B98" stroke-width="2" stroke-linecap="round" stroke-linejoin="round"/>
<path d="M16.1328 8.34554V1.95312" stroke="#614B98" stroke-width="2" stroke-linecap="round" stroke-linejoin="round"/>
<path d="M20.3906 12.6074H26.783" stroke="#614B98" stroke-width="2" stroke-linecap="round" stroke-linejoin="round"/>
<path d="M7.60938 27.5234H11.871" stroke="#614B98" stroke-width="2" stroke-linecap="round" stroke-linejoin="round"/>
<path d="M9.74219 19V27.5232" stroke="#614B98" stroke-width="2" stroke-linecap="round" stroke-linejoin="round"/>
<path d="M5.47656 19H13.9998" stroke="#614B98" stroke-width="2" stroke-linecap="round" stroke-linejoin="round"/>
<path d="M14.0039 19V21.1308" stroke="#614B98" stroke-width="2" stroke-linecap="round" stroke-linejoin="round"/>
<path d="M5.47656 19V21.1308" stroke="#614B98" stroke-width="2" stroke-linecap="round" stroke-linejoin="round"/>
</svg>
