<svg width="28" height="36" viewBox="0 0 28 36" fill="none" xmlns="http://www.w3.org/2000/svg">
<path d="M26.5 15.1599V31.0769C26.5 32.1174 26.097 33.1152 25.3797 33.851C24.6624 34.5867 23.6895 35 22.675 35H4.825C3.81055 35 2.83764 34.5867 2.12032 33.851C1.40299 33.1152 1 32.1174 1 31.0769V4.92308C1 3.88261 1.40299 2.88476 2.12032 2.14904C2.83764 1.41332 3.81055 1 4.825 1H12.6941C13.3702 1.0001 14.0186 1.27556 14.4967 1.76582L25.7533 13.3111C26.2313 13.8015 26.4999 14.4665 26.5 15.1599Z" stroke="#614B98" stroke-width="2" stroke-linejoin="round"/>
<path d="M13.9453 2.41602V11.6788C13.9453 12.3339 14.1924 12.9622 14.6321 13.4254C15.0718 13.8887 15.6683 14.1489 16.2901 14.1489H25.0832" stroke="#614B98" stroke-width="2" stroke-linecap="round" stroke-linejoin="round"/>
<path d="M13.6123 21.3455L13.624 21.2907C13.8511 20.355 14.1368 19.1883 13.9137 18.1312C13.765 17.2972 13.1504 16.9723 12.626 16.9488C12.0075 16.9214 11.4557 17.2737 11.3187 17.7866C11.0603 18.7263 11.2913 20.0105 11.714 21.647C11.1817 22.9155 10.3323 24.7596 9.70999 25.8559C8.55142 26.4549 6.99754 27.3789 6.76661 28.5456C6.71964 28.761 6.77444 29.035 6.9036 29.2817C7.04842 29.5557 7.27935 29.7672 7.54942 29.869C7.66685 29.912 7.80775 29.9473 7.97214 29.9473C8.66102 29.9473 9.77653 29.3913 11.2639 26.8386C11.4909 26.7642 11.7257 26.6859 11.9527 26.6076C13.0174 26.2474 14.1211 25.8715 15.1192 25.7032C16.223 26.2944 17.4794 26.6741 18.3327 26.6741C19.1781 26.6741 19.5108 26.173 19.6361 25.8715C19.8552 25.343 19.7496 24.6774 19.3934 24.3211C18.8767 23.8121 17.6203 23.679 15.6633 23.9218C14.7004 23.3345 14.0703 22.5358 13.6123 21.3455ZM9.31858 27.2928C8.77453 28.0836 8.36355 28.4791 8.14045 28.6513C8.40269 28.1698 8.91543 27.6608 9.31858 27.2928ZM12.7473 18.0724C12.9508 18.4209 12.9234 19.4741 12.7669 20.0065C12.5751 19.2274 12.5477 18.1233 12.6612 17.9941C12.6925 17.998 12.7199 18.0215 12.7473 18.0724ZM12.6847 22.7903C13.1035 23.5146 13.6319 24.1371 14.2151 24.5991C13.3696 24.7909 12.5986 25.1081 11.9097 25.39C11.7453 25.4565 11.5848 25.5231 11.4283 25.5857C11.9488 24.6422 12.3833 23.5733 12.6847 22.7903ZM18.775 25.3547C18.7789 25.3626 18.7828 25.3743 18.7593 25.39H18.7515L18.7436 25.4017C18.7123 25.4213 18.3914 25.6092 17.0097 25.065C18.5988 24.9906 18.771 25.3508 18.775 25.3547Z" fill="#614B98"/>
</svg>
