<svg width="28" height="38" viewBox="0 0 28 38" fill="none" xmlns="http://www.w3.org/2000/svg">
<path d="M1.21484 6.21484V31.773" stroke="#614B98" stroke-width="2" stroke-linecap="round" stroke-linejoin="round"/>
<path d="M26.7852 12.6074L26.7852 31.785" stroke="#614B98" stroke-width="2" stroke-linecap="round" stroke-linejoin="round"/>
<path d="M5.47656 1.95312H16.1306" stroke="#614B98" stroke-width="2" stroke-linecap="round" stroke-linejoin="round"/>
<path d="M5.47656 36.0469H22.523" stroke="#614B98" stroke-width="2" stroke-linecap="round" stroke-linejoin="round"/>
<path d="M26.789 31.7852C26.8006 33.9135 24.6581 36.0468 22.5273 36.0468" stroke="#614B98" stroke-width="2" stroke-linecap="round" stroke-linejoin="round"/>
<path d="M1.21495 31.7852C1.21495 33.916 3.34576 36.0468 5.47656 36.0468" stroke="#614B98" stroke-width="2" stroke-linecap="round" stroke-linejoin="round"/>
<path d="M1.21495 6.21094C1.21495 4.08322 3.34576 1.99987 5.47656 1.95242" stroke="#614B98" stroke-width="2" stroke-linecap="round" stroke-linejoin="round"/>
<path d="M26.7752 12.6167L16.1328 1.95312" stroke="#614B98" stroke-width="2" stroke-linecap="round" stroke-linejoin="round"/>
<path d="M16.129 8.3457C16.1356 10.4649 18.2684 12.6073 20.3906 12.6073" stroke="#614B98" stroke-width="2" stroke-linecap="round" stroke-linejoin="round"/>
<path d="M16.1328 8.34554V1.95312" stroke="#614B98" stroke-width="2" stroke-linecap="round" stroke-linejoin="round"/>
<path d="M20.3906 12.6074H26.783" stroke="#614B98" stroke-width="2" stroke-linecap="round" stroke-linejoin="round"/>
<path d="M7.0625 21.1966L11.0625 17.1966L15.0625 21.1966L20.3958 15.8633" stroke="#614B98" stroke-width="2" stroke-linecap="round" stroke-linejoin="round"/>
<path d="M8.21454 29.4432H7.04761V31.2236C7.04761 31.4782 6.98755 31.6712 6.86743 31.8028C6.7473 31.9344 6.59572 32.0001 6.41267 32.0001C6.22104 32.0001 6.0666 31.9358 5.94933 31.8071C5.83207 31.6755 5.77344 31.4839 5.77344 31.2322V26.3843C5.77344 26.104 5.83779 25.9038 5.96649 25.7837C6.0952 25.6636 6.2997 25.6035 6.57999 25.6035H8.21454C8.69789 25.6035 9.06971 25.6407 9.32998 25.7151C9.58738 25.7866 9.80904 25.9053 9.99495 26.0711C10.1837 26.237 10.3267 26.4401 10.424 26.6803C10.5212 26.9206 10.5698 27.1909 10.5698 27.4912C10.5698 28.1318 10.3725 28.6181 9.97779 28.9498C9.58309 29.2787 8.99534 29.4432 8.21454 29.4432ZM7.90564 26.5602H7.04761V28.4822H7.90564C8.20595 28.4822 8.45621 28.4507 8.65642 28.3878C8.85949 28.3249 9.01393 28.2219 9.11976 28.0789C9.22558 27.9359 9.27849 27.7486 9.27849 27.5169C9.27849 27.2395 9.19698 27.0135 9.03395 26.8391C8.85091 26.6532 8.4748 26.5602 7.90564 26.5602Z" fill="#614B98"/>
<path d="M14.0749 29.4432H12.908V31.2236C12.908 31.4782 12.8479 31.6712 12.7278 31.8028C12.6077 31.9344 12.4561 32.0001 12.273 32.0001C12.0814 32.0001 11.9269 31.9358 11.8097 31.8071C11.6924 31.6755 11.6338 31.4839 11.6338 31.2322V26.3843C11.6338 26.104 11.6981 25.9038 11.8268 25.7837C11.9555 25.6636 12.16 25.6035 12.4403 25.6035H14.0749C14.5582 25.6035 14.9301 25.6407 15.1903 25.7151C15.4477 25.7866 15.6694 25.9053 15.8553 26.0711C16.0441 26.237 16.1871 26.4401 16.2843 26.6803C16.3816 26.9206 16.4302 27.1909 16.4302 27.4912C16.4302 28.1318 16.2328 28.6181 15.8381 28.9498C15.4434 29.2787 14.8557 29.4432 14.0749 29.4432ZM13.766 26.5602H12.908V28.4822H13.766C14.0663 28.4822 14.3166 28.4507 14.5168 28.3878C14.7198 28.3249 14.8743 28.2219 14.9801 28.0789C15.0859 27.9359 15.1388 27.7486 15.1388 27.5169C15.1388 27.2395 15.0573 27.0135 14.8943 26.8391C14.7113 26.6532 14.3352 26.5602 13.766 26.5602Z" fill="#614B98"/>
<path d="M21.5784 26.6546H20.1884V31.2236C20.1884 31.4867 20.1297 31.6827 20.0125 31.8114C19.8952 31.9372 19.7436 32.0001 19.5577 32.0001C19.3689 32.0001 19.2145 31.9358 19.0944 31.8071C18.9771 31.6784 18.9185 31.4839 18.9185 31.2236V26.6546H17.5285C17.3111 26.6546 17.1495 26.6074 17.0437 26.513C16.9378 26.4158 16.8849 26.2885 16.8849 26.1312C16.8849 25.9682 16.9393 25.8395 17.048 25.7451C17.1595 25.6507 17.3197 25.6035 17.5285 25.6035H21.5784C21.7986 25.6035 21.9616 25.6521 22.0674 25.7494C22.1761 25.8466 22.2305 25.9739 22.2305 26.1312C22.2305 26.2885 22.1761 26.4158 22.0674 26.513C21.9588 26.6074 21.7957 26.6546 21.5784 26.6546Z" fill="#614B98"/>
</svg>
