<svg width="35" height="36" viewBox="0 0 35 36" fill="none" xmlns="http://www.w3.org/2000/svg">
<path d="M33.5 15.1599V31.0769C33.5 32.1174 33.097 33.1152 32.3797 33.851C31.6624 34.5867 30.6895 35 29.675 35H11.825C10.8105 35 9.83764 34.5867 9.12032 33.851C8.40299 33.1152 8 32.1174 8 31.0769V4.92308C8 3.88261 8.40299 2.88476 9.12032 2.14904C9.83764 1.41332 10.8105 1 11.825 1H19.6941C20.3702 1.0001 21.0186 1.27556 21.4967 1.76582L32.7533 13.3111C33.2313 13.8015 33.4999 14.4665 33.5 15.1599Z" stroke="#614B98" stroke-width="2" stroke-linejoin="round"/>
<path d="M20.948 2.41602V11.6788C20.948 12.3339 21.1951 12.9622 21.6348 13.4254C22.0745 13.8887 22.6709 14.1489 23.2928 14.1489H32.0859M23.948 20.3241H28.8101M20.0859 26.4993H28.8101" stroke="#614B98" stroke-width="2" stroke-linecap="round" stroke-linejoin="round"/>
<path d="M1 10.1992H15.8751V25.4993H1V10.1992Z" fill="#E6E3EF" stroke="#614B98" stroke-width="2" stroke-linecap="round" stroke-linejoin="round"/>
<path d="M11.8104 21.9105C11.8743 21.7338 11.9526 21.4594 12.0453 21.0886L12.0454 21.0885L13.4021 15.6003L13.4022 15.6002C13.4838 15.2663 13.5259 15.0184 13.5259 14.86C13.5259 14.6321 13.4448 14.441 13.2826 14.2905C13.1248 14.1369 12.9308 14.0601 12.7037 14.0601C12.4805 14.0601 12.3015 14.118 12.1746 14.2408L12.174 14.2414C12.0578 14.3576 11.9739 14.49 11.9231 14.6384L11.9228 14.6395C11.8776 14.7825 11.829 14.9789 11.777 15.2277C11.777 15.2278 11.777 15.228 11.777 15.2281L10.7531 19.7929L9.59848 15.5311L9.59846 15.531C9.49834 15.1639 9.41815 14.8989 9.358 14.7372C9.2953 14.5687 9.18234 14.4158 9.02186 14.2781C8.85804 14.1305 8.62984 14.0601 8.34432 14.0601C8.06248 14.0601 7.83339 14.1268 7.66265 14.2658C7.49721 14.4005 7.37696 14.561 7.3032 14.7474C7.23167 14.9281 7.15139 15.1898 7.06228 15.5314C7.06227 15.5314 7.06225 15.5315 7.06223 15.5315L5.91867 19.792L4.89496 15.2279C4.89494 15.2278 4.89492 15.2277 4.8949 15.2277C4.81668 14.859 4.7247 14.5739 4.61768 14.3752C4.50218 14.1607 4.27892 14.0601 3.96822 14.0601C3.73746 14.0601 3.54138 14.1369 3.38335 14.291C3.22535 14.445 3.14606 14.6358 3.14606 14.86C3.14606 15.0332 3.18812 15.2809 3.26988 15.6005C3.26989 15.6005 3.26991 15.6006 3.26993 15.6007L4.62659 21.0885L4.62662 21.0886C4.66748 21.252 4.71389 21.4303 4.76585 21.6233L4.76592 21.6235C4.81871 21.8158 4.88692 21.9849 4.97096 22.13L4.97125 22.1305C5.05677 22.2743 5.16826 22.3862 5.30572 22.4648C5.44874 22.5483 5.62664 22.5883 5.83654 22.5883C6.09686 22.5883 6.31104 22.5231 6.47408 22.3879L6.47461 22.3875C6.63177 22.2533 6.74291 22.1022 6.80564 21.9338C6.86955 21.7683 6.95345 21.4995 7.05723 21.1289L7.05732 21.1286L8.34402 16.416L9.61459 21.1284L9.61474 21.1289C9.72226 21.5108 9.80613 21.7831 9.86621 21.9446L9.86635 21.9449C9.9292 22.1099 10.0406 22.2575 10.1979 22.3879C10.3609 22.5231 10.5751 22.5883 10.8354 22.5883C11.1097 22.5883 11.3288 22.5216 11.4853 22.3813M11.8104 21.9105C11.7481 22.0896 11.6392 22.2466 11.4853 22.3813M11.8104 21.9105C11.8104 21.9106 11.8104 21.9107 11.8103 21.9108L11.764 21.894M11.8104 21.9105C11.8105 21.9104 11.8105 21.9103 11.8105 21.9102L11.764 21.894M11.4853 22.3813C11.4852 22.3814 11.4851 22.3815 11.4851 22.3815L11.4526 22.3444M11.4853 22.3813C11.4854 22.3812 11.4854 22.3812 11.4855 22.3811L11.4526 22.3444M11.4526 22.3444C11.3081 22.4742 11.1023 22.5391 10.8354 22.5391C10.5833 22.5391 10.3813 22.476 10.2293 22.35C10.0773 22.224 9.97169 22.0831 9.91237 21.9274M11.4526 22.3444C11.6009 22.2147 11.7047 22.0646 11.764 21.894M9.91237 21.9274L11.764 21.894M9.91237 21.9274C9.85306 21.768 9.76965 21.4974 9.66215 21.1156M9.91237 21.9274L9.66215 21.1156M9.66215 21.1156L8.36969 16.322L9.66215 21.1156ZM13.3543 15.5885L11.9976 21.0767L12.2089 14.2762C12.3238 14.165 12.4887 14.1094 12.7037 14.1094C12.9187 14.1094 13.1004 14.1817 13.2487 14.3262C13.4006 14.4671 13.4766 14.645 13.4766 14.86C13.4766 15.012 13.4359 15.2548 13.3543 15.5885Z" fill="#614B98" stroke="#614B98" stroke-width="0.0985075"/>
</svg>
