<svg width="14" height="14" viewBox="0 0 14 14" fill="none" xmlns="http://www.w3.org/2000/svg">
<path d="M5.73047 2.75H8.23047C8.23047 2.41848 8.09877 2.10054 7.86435 1.86612C7.62993 1.6317 7.31199 1.5 6.98047 1.5C6.64895 1.5 6.33101 1.6317 6.09659 1.86612C5.86216 2.10054 5.73047 2.41848 5.73047 2.75ZM4.79297 2.75C4.79297 2.46273 4.84955 2.17828 4.95948 1.91288C5.06941 1.64748 5.23054 1.40633 5.43367 1.2032C5.6368 1.00008 5.87795 0.838946 6.14335 0.729014C6.40875 0.619081 6.6932 0.5625 6.98047 0.5625C7.26774 0.5625 7.55219 0.619081 7.81759 0.729014C8.08299 0.838946 8.32414 1.00008 8.52726 1.2032C8.73039 1.40633 8.89152 1.64748 9.00146 1.91288C9.11139 2.17828 9.16797 2.46273 9.16797 2.75H12.7617C12.886 2.75 13.0053 2.79939 13.0932 2.88729C13.1811 2.9752 13.2305 3.09443 13.2305 3.21875C13.2305 3.34307 13.1811 3.4623 13.0932 3.55021C13.0053 3.63811 12.886 3.6875 12.7617 3.6875H11.9367L11.2055 11.2569C11.1494 11.8369 10.8792 12.3752 10.4478 12.7668C10.0163 13.1584 9.45441 13.3752 8.87172 13.375H5.08922C4.50663 13.3751 3.94491 13.1582 3.51356 12.7666C3.08222 12.375 2.81218 11.8368 2.75609 11.2569L2.02422 3.6875H1.19922C1.0749 3.6875 0.95567 3.63811 0.867762 3.55021C0.779855 3.4623 0.730469 3.34307 0.730469 3.21875C0.730469 3.09443 0.779855 2.9752 0.867762 2.88729C0.95567 2.79939 1.0749 2.75 1.19922 2.75H4.79297ZM6.04297 5.71875C6.04297 5.59443 5.99358 5.4752 5.90567 5.38729C5.81777 5.29939 5.69854 5.25 5.57422 5.25C5.4499 5.25 5.33067 5.29939 5.24276 5.38729C5.15485 5.4752 5.10547 5.59443 5.10547 5.71875V10.4062C5.10547 10.5306 5.15485 10.6498 5.24276 10.7377C5.33067 10.8256 5.4499 10.875 5.57422 10.875C5.69854 10.875 5.81777 10.8256 5.90567 10.7377C5.99358 10.6498 6.04297 10.5306 6.04297 10.4062V5.71875ZM8.38672 5.25C8.51104 5.25 8.63027 5.29939 8.71817 5.38729C8.80608 5.4752 8.85547 5.59443 8.85547 5.71875V10.4062C8.85547 10.5306 8.80608 10.6498 8.71817 10.7377C8.63027 10.8256 8.51104 10.875 8.38672 10.875C8.2624 10.875 8.14317 10.8256 8.05526 10.7377C7.96735 10.6498 7.91797 10.5306 7.91797 10.4062V5.71875C7.91797 5.59443 7.96735 5.4752 8.05526 5.38729C8.14317 5.29939 8.2624 5.25 8.38672 5.25ZM3.68922 11.1669C3.72293 11.5148 3.885 11.8377 4.14382 12.0726C4.40265 12.3075 4.73969 12.4376 5.08922 12.4375H8.87172C9.22125 12.4376 9.55829 12.3075 9.81711 12.0726C10.0759 11.8377 10.238 11.5148 10.2717 11.1669L10.9955 3.6875H2.96547L3.68922 11.1669Z" fill="#614B98"/>
</svg>
