<svg width="13" height="13" viewBox="0 0 13 13" fill="none" xmlns="http://www.w3.org/2000/svg">
<path d="M9.089 1.37713C10.8056 2.35633 11.9334 4.23721 11.9334 6.3549C11.9334 7.48006 11.5998 8.57995 10.9747 9.51548C10.3496 10.451 9.46111 11.1802 8.4216 11.6108C7.38209 12.0413 6.23824 12.154 5.13471 11.9345C4.03117 11.715 3.01751 11.1732 2.2219 10.3776C1.4263 9.58195 0.884484 8.56829 0.664977 7.46475C0.44547 6.36121 0.558129 5.21737 0.988707 4.17786C1.41929 3.13835 2.14844 2.24987 3.08398 1.62477C4.01951 0.999663 5.1194 0.666016 6.24455 0.666016" stroke="#614B98" stroke-width="1.06667" stroke-linecap="round" stroke-linejoin="round"/>
<path d="M9.08887 4.2214V1.37695H11.9333" stroke="#614B98" stroke-width="1.06667" stroke-linecap="round" stroke-linejoin="round"/>
</svg>
