<svg width="14" height="14" viewBox="0 0 14 14" fill="none" xmlns="http://www.w3.org/2000/svg">
<circle cx="6.61111" cy="6.61111" r="6.07778" stroke="#FF4738" stroke-width="1.06667"/>
<path d="M6.6115 3.7666C6.41002 3.7666 6.24125 3.83463 6.10519 3.97069C5.96866 4.10722 5.90039 4.27623 5.90039 4.47771V6.61105C5.90039 6.81253 5.96866 6.9813 6.10519 7.11736C6.24125 7.25389 6.41002 7.32216 6.6115 7.32216C6.81298 7.32216 6.98199 7.25389 7.11852 7.11736C7.25458 6.9813 7.32261 6.81253 7.32261 6.61105V4.47771C7.32261 4.27623 7.25458 4.10722 7.11852 3.97069C6.98199 3.83463 6.81298 3.7666 6.6115 3.7666ZM6.6115 9.45549C6.81298 9.45549 6.98199 9.38722 7.11852 9.25069C7.25458 9.11463 7.32261 8.94586 7.32261 8.74438C7.32261 8.5429 7.25458 8.37413 7.11852 8.23807C6.98199 8.10153 6.81298 8.03327 6.6115 8.03327C6.41002 8.03327 6.24125 8.10153 6.10519 8.23807C5.96866 8.37413 5.90039 8.5429 5.90039 8.74438C5.90039 8.94586 5.96866 9.11463 6.10519 9.25069C6.24125 9.38722 6.41002 9.45549 6.6115 9.45549Z" fill="#FF4738"/>
</svg>
