<svg width="31" height="34" viewBox="0 0 31 34" fill="none" xmlns="http://www.w3.org/2000/svg">
<rect x="1.93555" y="4.01562" width="27.8315" height="28.7912" rx="3.83883" fill="white" stroke="white" stroke-width="2.20733"/>
<path d="M11.5837 25.3516V16.7046L9.60955 17.5367L8.82643 15.7257L12.1057 14.1921H13.7209V25.3516H11.5837ZM19.1021 21.3544C18.6779 21.3544 18.2646 21.2674 17.8622 21.0933C17.4597 20.9193 17.1008 20.6746 16.7854 20.3592C16.4699 20.0329 16.2143 19.6522 16.0186 19.2171C15.8336 18.7712 15.7412 18.2817 15.7412 17.7488C15.7412 17.194 15.85 16.6828 16.0675 16.2151C16.285 15.7366 16.5733 15.3287 16.9322 14.9915C17.302 14.6543 17.7208 14.3933 18.1885 14.2084C18.667 14.0126 19.1674 13.9147 19.6894 13.9147C20.2877 13.9147 20.8315 14.0235 21.3209 14.241C21.8213 14.4477 22.2455 14.7305 22.5935 15.0894C22.9524 15.4375 23.2244 15.8508 23.4093 16.3294C23.605 16.797 23.7029 17.2919 23.7029 17.814C23.7029 18.5645 23.5507 19.2552 23.2461 19.886C22.9524 20.506 22.5772 21.1423 22.1204 21.7949L19.4121 25.6615L17.7643 24.5358L20.0484 21.2891L19.9668 21.1912C19.7166 21.3 19.4284 21.3544 19.1021 21.3544ZM19.7221 15.8888C19.4719 15.8888 19.2326 15.9324 19.0042 16.0194C18.7867 16.1064 18.5909 16.2315 18.4169 16.3946C18.2428 16.5578 18.1014 16.7535 17.9927 16.982C17.8948 17.1995 17.8458 17.4442 17.8458 17.7161C17.8458 17.9989 17.8948 18.2545 17.9927 18.4829C18.1014 18.7005 18.2428 18.8908 18.4169 19.054C18.5909 19.2171 18.7867 19.3422 19.0042 19.4292C19.2326 19.5162 19.4719 19.5597 19.7221 19.5597C19.9614 19.5597 20.1952 19.5162 20.4236 19.4292C20.652 19.3422 20.8532 19.2171 21.0273 19.054C21.2122 18.8908 21.3536 18.7005 21.4515 18.4829C21.5602 18.2545 21.6146 17.9989 21.6146 17.7161C21.6146 17.4442 21.5602 17.1995 21.4515 16.982C21.3536 16.7535 21.2122 16.5578 21.0273 16.3946C20.8532 16.2315 20.652 16.1064 20.4236 16.0194C20.1952 15.9324 19.9614 15.8888 19.7221 15.8888Z" fill="#57A1D7"/>
<circle cx="9.132" cy="6.01872" r="2.15934" fill="#57A1D7"/>
<circle cx="22.5695" cy="6.01872" r="2.15934" fill="#57A1D7"/>
<path d="M22.5703 5.94029L22.5703 1.77344" stroke="white" stroke-width="2.39927" stroke-linecap="round"/>
<path d="M9.13477 5.94029L9.13477 1.77344" stroke="white" stroke-width="2.39927" stroke-linecap="round"/>
</svg>
