<svg width="8" height="5" viewBox="0 0 8 5" fill="none" xmlns="http://www.w3.org/2000/svg">
<path d="M0.720003 4.43059C0.820257 4.53506 0.956213 4.59375 1.09797 4.59375C1.23973 4.59375 1.37569 4.53506 1.47594 4.43059L4.12226 1.67218L6.76858 4.43059C6.86941 4.5321 7.00445 4.58827 7.14462 4.587C7.2848 4.58573 7.41888 4.52712 7.518 4.4238C7.61713 4.32049 7.67335 4.18072 7.67457 4.03461C7.67579 3.8885 7.6219 3.74773 7.52452 3.64263L4.50023 0.49024C4.39997 0.385771 4.26402 0.327083 4.12226 0.327083C3.9805 0.327083 3.84454 0.385771 3.74429 0.49024L0.720003 3.64263C0.619779 3.74714 0.563477 3.88885 0.563477 4.03661C0.563477 4.18438 0.619779 4.32609 0.720003 4.43059Z" fill="#474747"/>
</svg>
