<svg width="13" height="13" viewBox="0 0 13 13" fill="none" xmlns="http://www.w3.org/2000/svg">
<path fill-rule="evenodd" clip-rule="evenodd" d="M5.4175 0.621427C4.73418 0.690213 3.99768 0.932282 3.38735 1.28866C2.87999 1.58493 2.28958 2.11836 1.91868 2.61557C1.57678 3.07391 1.33726 3.52934 1.16959 4.03983C0.8367 5.05344 0.8367 6.16078 1.16959 7.17439C1.33726 7.68488 1.57678 8.14031 1.91868 8.59865C2.28958 9.09586 2.87999 9.62929 3.38735 9.92556C4.37554 10.5026 5.50654 10.723 6.65361 10.5621C7.46631 10.4481 8.34436 10.0789 8.9572 9.59347C9.03579 9.53122 9.10889 9.4803 9.11964 9.4803C9.13039 9.4803 9.80419 10.1437 10.617 10.9545C11.8926 12.227 12.1099 12.4344 12.2053 12.4697C12.5755 12.607 12.9302 12.2523 12.793 11.8821C12.7576 11.7868 12.5502 11.5695 11.2776 10.2941C10.4666 9.48139 9.8031 8.80769 9.8031 8.79694C9.8031 8.78619 9.85402 8.7131 9.91628 8.63452C10.1435 8.34777 10.4029 7.89797 10.5561 7.5253C11.1565 6.06433 11.0435 4.42673 10.2484 3.06549C10.0788 2.7751 9.73991 2.34387 9.46649 2.07049C9.19307 1.79711 8.76177 1.45824 8.47134 1.28866C7.55227 0.751975 6.46986 0.515467 5.4175 0.621427ZM6.60405 1.57921C7.16336 1.68233 7.60557 1.84833 8.05816 2.12508C8.83945 2.60285 9.45688 3.35783 9.76424 4.21137C9.94169 4.70411 9.99932 5.04626 9.99932 5.60711C9.99932 6.16797 9.94169 6.51011 9.76424 7.00285C9.36154 8.12112 8.44372 9.0388 7.32529 9.44145C6.83248 9.61887 6.49028 9.67649 5.92935 9.67649C5.50461 9.67649 5.28816 9.65307 4.95218 9.57079C3.50538 9.21648 2.33255 8.05448 1.97596 6.62207C1.87682 6.22384 1.85856 6.06598 1.85856 5.60711C1.85856 5.14824 1.87682 4.99038 1.97596 4.59215C2.32964 3.17145 3.49158 2.00961 4.91424 1.65407C5.10899 1.6054 5.23258 1.58309 5.55709 1.53801C5.70232 1.51787 6.4256 1.54632 6.60405 1.57921Z" fill="#BDBDBD"/>
</svg>
