<svg width="18" height="17" viewBox="0 0 18 17" fill="none" xmlns="http://www.w3.org/2000/svg">
<path fill-rule="evenodd" clip-rule="evenodd" d="M7.07547 0.0335056C6.12335 0.129352 5.09711 0.466648 4.24668 0.963223C3.53974 1.37604 2.71706 2.11932 2.20025 2.81212C1.72386 3.45077 1.39011 4.08536 1.15647 4.79668C0.692634 6.20903 0.692634 7.75198 1.15647 9.16434C1.39011 9.87565 1.72386 10.5102 2.20025 11.1489C2.71706 11.8417 3.53974 12.585 4.24668 12.9978C5.62362 13.8018 7.19954 14.109 8.79785 13.8847C9.93026 13.7259 11.1537 13.2114 12.0077 12.5351C12.1172 12.4483 12.219 12.3774 12.234 12.3774C12.249 12.3774 13.1878 13.3018 14.3204 14.4316C16.0978 16.2047 16.4006 16.4936 16.5335 16.5428C17.0493 16.7341 17.5437 16.2398 17.3524 15.7241C17.3031 15.5912 17.0142 15.2884 15.2408 13.5113C14.1109 12.3789 13.1863 11.4402 13.1863 11.4252C13.1863 11.4102 13.2573 11.3084 13.344 11.1989C13.6606 10.7993 14.0221 10.1726 14.2355 9.6533C15.0722 7.6176 14.9147 5.33578 13.8068 3.43903C13.5705 3.03442 13.0983 2.43353 12.7173 2.05261C12.3363 1.67169 11.7353 1.19952 11.3307 0.963223C10.05 0.21541 8.54181 -0.114138 7.07547 0.0335056ZM8.7288 1.36807C9.50814 1.51176 10.1243 1.74306 10.7549 2.12868C11.8436 2.79439 12.7039 3.84638 13.1322 5.03569C13.3794 5.72228 13.4597 6.19902 13.4597 6.98051C13.4597 7.762 13.3794 8.23874 13.1322 8.92532C12.571 10.4835 11.2922 11.7622 9.73377 12.3232C9.04709 12.5704 8.57028 12.6507 7.78867 12.6507C7.19684 12.6507 6.89526 12.6181 6.4271 12.5035C4.41114 12.0098 2.77693 10.3906 2.28006 8.39474C2.14193 7.83985 2.11648 7.6199 2.11648 6.98051C2.11648 6.34112 2.14193 6.12116 2.28006 5.56627C2.77288 3.58668 4.39192 1.96778 6.37423 1.47238C6.6456 1.40457 6.81781 1.37348 7.26998 1.31066C7.47234 1.28259 8.48015 1.32224 8.7288 1.36807Z" fill="white"/>
</svg>
