<svg width="8" height="5" viewBox="0 0 8 5" fill="none" xmlns="http://www.w3.org/2000/svg">
<path d="M1.012 0.491282C1.11225 0.386813 1.24821 0.328125 1.38996 0.328125C1.53172 0.328125 1.66768 0.386813 1.76793 0.491282L4.41425 3.2497L7.06057 0.491282C7.1614 0.389773 7.29644 0.333605 7.43662 0.334875C7.57679 0.336144 7.71088 0.39475 7.81 0.49807C7.90912 0.60139 7.96534 0.741156 7.96656 0.887267C7.96778 1.03338 7.91389 1.17414 7.81651 1.27924L4.79222 4.43163C4.69197 4.5361 4.55601 4.59479 4.41425 4.59479C4.27249 4.59479 4.13654 4.5361 4.03628 4.43163L1.012 1.27924C0.911771 1.17474 0.855469 1.03303 0.855469 0.885261C0.855469 0.737497 0.911771 0.595783 1.012 0.491282Z" fill="#474747"/>
</svg>
