<svg width="13" height="13" viewBox="0 0 13 13" fill="none" xmlns="http://www.w3.org/2000/svg">
<path d="M12.361 12.3347L9.43272 9.40635M6.08609 10.7659C5.46806 10.7659 4.85608 10.6442 4.2851 10.4077C3.71412 10.1712 3.19531 9.82452 2.7583 9.38751C2.32129 8.95049 1.97463 8.43169 1.73812 7.8607C1.50161 7.28972 1.37988 6.67775 1.37988 6.05972C1.37988 5.44169 1.50161 4.82971 1.73812 4.25873C1.97463 3.68775 2.32129 3.16894 2.7583 2.73193C3.19531 2.29492 3.71412 1.94826 4.2851 1.71175C4.85608 1.47525 5.46806 1.35352 6.08609 1.35352C7.33425 1.35352 8.53129 1.84935 9.41387 2.73193C10.2965 3.61451 10.7923 4.81156 10.7923 6.05972C10.7923 7.30788 10.2965 8.50492 9.41387 9.38751C8.53129 10.2701 7.33425 10.7659 6.08609 10.7659Z" stroke="#BDBDBD" stroke-width="1.22013" stroke-linecap="round"/>
</svg>
