<svg width="11" height="11" viewBox="0 0 11 11" fill="none" xmlns="http://www.w3.org/2000/svg">
<path fill-rule="evenodd" clip-rule="evenodd" d="M4.1563 0.0228692C3.52483 0.0864364 2.84422 0.310136 2.2802 0.639473C1.81134 0.913262 1.26573 1.40621 0.922967 1.8657C0.607019 2.28925 0.385673 2.71013 0.23072 3.18188C-0.0769067 4.11858 -0.0769067 5.14189 0.23072 6.07859C0.385673 6.55034 0.607019 6.97122 0.922967 7.39478C1.26573 7.85426 1.81134 8.34721 2.2802 8.621C3.1934 9.15426 4.23858 9.35794 5.29861 9.20923C6.04964 9.10387 6.86106 8.76269 7.4274 8.3141C7.50003 8.25658 7.56758 8.20952 7.57752 8.20952C7.58745 8.20952 8.21012 8.8226 8.96124 9.57191C10.14 10.7478 10.3409 10.9395 10.429 10.9721C10.7711 11.099 11.099 10.7711 10.9721 10.4291C10.9394 10.341 10.7478 10.1402 9.5717 8.96154C8.82228 8.21053 8.20911 7.58795 8.20911 7.57802C8.20911 7.56809 8.25618 7.50054 8.31371 7.42793C8.52366 7.16293 8.76341 6.74726 8.90495 6.40287C9.45983 5.05276 9.35542 3.53942 8.62065 2.28147C8.46391 2.01312 8.15072 1.61461 7.89805 1.36197C7.64537 1.10934 7.2468 0.796188 6.97841 0.639473C6.12908 0.143511 5.1288 -0.0750506 4.1563 0.0228692ZM5.25281 0.907974C5.76968 1.00327 6.17834 1.15667 6.59659 1.41243C7.31859 1.85394 7.88917 2.55163 8.17321 3.3404C8.33719 3.79576 8.39045 4.11194 8.39045 4.63024C8.39045 5.14853 8.33719 5.46471 8.17321 5.92007C7.80106 6.95348 6.95289 7.80153 5.91933 8.17362C5.4639 8.33758 5.14768 8.39083 4.6293 8.39083C4.23679 8.39083 4.03678 8.36918 3.72629 8.29315C2.38927 7.96572 1.30544 6.89189 0.975901 5.56818C0.884288 5.20017 0.86741 5.05429 0.86741 4.63024C0.86741 4.20618 0.884288 4.0603 0.975901 3.69229C1.30275 2.37939 2.37652 1.30571 3.69122 0.977152C3.8712 0.93218 3.98541 0.911564 4.2853 0.869902C4.4195 0.851285 5.08791 0.877577 5.25281 0.907974Z" fill="#474747"/>
</svg>
