<svg width="12" height="12" viewBox="0 0 12 12" fill="none" xmlns="http://www.w3.org/2000/svg">
<path d="M0.936234 0.97097L11.0894 6.04386C11.1448 6.07152 11.1914 6.11435 11.224 6.1675C11.2566 6.22064 11.2739 6.28198 11.2739 6.34457C11.2739 6.40716 11.2566 6.46849 11.224 6.52164C11.1914 6.57478 11.1448 6.61761 11.0894 6.64528L0.935572 11.7182C0.878688 11.7465 0.814971 11.7577 0.752009 11.7503C0.689047 11.743 0.629494 11.7174 0.580442 11.6767C0.531391 11.636 0.494908 11.5819 0.47534 11.5208C0.455771 11.4597 0.453941 11.3941 0.470067 11.332L1.4758 7.48003C1.4921 7.4177 1.52579 7.36147 1.57281 7.31806C1.61984 7.27465 1.67822 7.24592 1.74095 7.23531L6.29087 6.46626C6.31798 6.46171 6.34354 6.45037 6.36525 6.43328C6.38695 6.41619 6.40411 6.39388 6.41518 6.36837L6.42708 6.32814C6.43325 6.29086 6.42681 6.25255 6.40881 6.21944C6.3908 6.18633 6.36229 6.16037 6.32789 6.14577L6.29087 6.13504L1.71582 5.36197C1.65322 5.35124 1.59498 5.32246 1.54808 5.27906C1.50117 5.23566 1.46759 5.17948 1.45133 5.11725L0.470067 1.35784C0.453773 1.29564 0.455477 1.23001 0.474974 1.16877C0.494472 1.10753 0.53094 1.05328 0.580024 1.01248C0.629108 0.971691 0.688733 0.946086 0.751779 0.938724C0.814826 0.931363 0.87863 0.942557 0.935572 0.97097H0.936234Z" fill="white"/>
</svg>
