<svg width="266" height="265" viewBox="0 0 266 265" fill="none" xmlns="http://www.w3.org/2000/svg">
<g clip-path="url(#clip0_1055_10866)">
<path d="M141.546 249.819C120.494 254.023 77.8287 262.542 49.2862 242.155C-2.5154 205.154 1.13478 79.3174 66.4457 26.1643C72.0921 21.5692 101.546 -1.48239 141.877 1.03244C211.833 5.39536 273.839 84.143 261.66 147.253C254.533 184.189 223.353 208.738 210.516 218.844C205.225 223.01 180.286 242.085 141.546 249.82V249.819Z" fill="#F4F7FA"/>
<path d="M218.618 16.968L54.0105 6.9233C50.2192 6.72838 46.8066 11.0922 46.8066 14.7565V238.342C46.8066 243.424 51.7276 244.447 55.5188 244.039L218.618 226.469C221.598 226.148 224.003 223.272 224.003 220.044V23.0898C224.003 19.8618 221.598 17.1211 218.618 16.968Z" fill="#97A6B7"/>
<path d="M221.325 15.1919L56.3926 6.63368C52.6013 6.43694 49.5137 9.27056 49.5137 12.9631V238.296C49.5137 241.988 52.6013 244.647 56.3926 244.236L221.325 226.329C224.305 226.006 226.71 223.108 226.71 219.854V21.362C226.71 18.1094 224.305 15.3468 221.325 15.1919Z" fill="#D8DEE8"/>
<path opacity="0.74" d="M56.3927 241.18C54.3473 241.398 52.6797 239.957 52.6797 237.967V13.1137C52.6797 11.1235 54.3473 9.58785 56.3927 9.68986L221.325 17.9084C222.936 17.9885 224.244 19.486 224.244 21.2457V220.111C224.244 221.871 222.937 223.442 221.325 223.614L56.3927 241.181V241.18Z" fill="white"/>
<path d="M210.695 218.281L69.627 232.618V25.1714L210.695 30.7758V218.281Z" fill="white"/>
<path d="M100.798 124.744V136.696L88.9948 137.116V125.05L100.798 124.744ZM102.117 123.389L87.6758 123.763V138.484L102.117 137.97V123.388V123.389Z" fill="#D8DEE8"/>
<path d="M197.997 134.556L107.436 137.782V123.251L197.997 120.902V134.556Z" fill="#D8DEE8"/>
<path d="M100.798 146.01V157.961L88.9948 158.547V146.482L100.798 146.009V146.01ZM102.117 144.636L87.6758 145.215V159.936L102.117 159.218V144.636Z" fill="#D8DEE8"/>
<path d="M197.997 154.453L107.436 158.954V144.423L197.997 140.799V154.453Z" fill="#D8DEE8"/>
<path d="M100.798 167.274V179.224L88.9948 179.976V167.912L100.798 167.274V167.274ZM102.117 165.881L87.6758 166.662V181.383L102.117 180.463V165.881Z" fill="#D8DEE8"/>
<path d="M197.997 174.348L107.436 180.123V165.594L197.997 160.693V174.348Z" fill="#D8DEE8"/>
<path d="M100.798 188.539V200.486L88.9948 201.405V189.344L100.798 188.539ZM102.117 187.126L87.6758 188.111V202.832L102.117 201.707V187.125V187.126Z" fill="#D8DEE8"/>
<path d="M197.997 194.242L107.436 201.294V186.764L197.997 180.587V194.242Z" fill="#D8DEE8"/>
<path d="M145.105 109.14L87.6777 110.116V41.4121L145.105 43.027V109.14Z" fill="#D8DEE8"/>
<path d="M197.998 52.9093L154.123 51.9356V43.2817L197.998 44.5159V52.9093Z" fill="#D8DEE8"/>
<path d="M197.998 71.5602L154.123 71.1658V66.8384L197.998 67.363V71.5602Z" fill="#D8DEE8"/>
<path d="M197.998 78.4761L154.123 78.2967V73.9702L197.998 74.2799V78.4761Z" fill="#D8DEE8"/>
<path d="M197.998 85.3944L154.123 85.4299V81.1025L197.998 81.1982V85.3944Z" fill="#D8DEE8"/>
<path d="M117.338 114.068C120.097 115.019 123.167 113.368 124.196 110.378C125.226 107.389 123.824 104.195 121.065 103.244C120.922 103.195 120.777 103.156 120.634 103.121C120.898 101.509 121.043 99.9018 121.069 98.3106C121.216 98.2896 121.365 98.2669 121.513 98.2323C124.417 97.5619 126.376 94.5333 125.888 91.4693C125.4 88.4052 122.65 86.4642 119.746 87.1355C119.594 87.171 119.447 87.2156 119.3 87.263C118.781 85.7829 118.154 84.3538 117.424 82.9875C117.548 82.8891 117.672 82.7889 117.79 82.6787C120.061 80.5656 120.382 76.9732 118.507 74.6551C116.633 72.3371 113.272 72.1704 111.001 74.2835C110.885 74.3919 110.777 74.5067 110.671 74.6224C109.525 73.6614 108.294 72.7943 106.985 72.0283C107.049 71.8807 107.112 71.7313 107.164 71.5774C108.194 68.588 109.622 65.2808 106.848 64.3727C100.433 62.2723 98.2027 65.1432 97.1741 68.1326C97.1204 68.2875 97.0776 68.4432 97.0376 68.599C95.5356 68.3959 94.0319 68.3202 92.5381 68.3703C92.5254 68.2137 92.5117 68.057 92.4863 67.9003C91.9983 64.8363 92.6783 63.0465 89.719 63.399C83.2661 64.1677 81.482 67.2646 81.9699 70.3296C81.9954 70.4899 82.0309 70.6447 82.0682 70.7986C80.6518 71.4244 79.2782 72.1631 77.9583 73.0102C77.8728 72.8827 77.7836 72.756 77.6862 72.6349C75.8119 70.3168 72.4512 70.1501 70.1801 72.2633C67.909 74.3764 67.5876 77.9688 69.4628 80.2869C69.5584 80.4053 69.6612 80.5146 69.7641 80.623C68.8047 81.8927 67.9299 83.248 67.1452 84.6808C67.0096 84.6197 66.8731 84.5605 66.7302 84.5113C63.9711 83.5604 60.8999 85.2118 59.8713 88.2012C58.8418 91.1905 60.2436 94.3849 63.0026 95.3358C63.1455 95.385 63.2903 95.4232 63.4341 95.4587C63.1701 97.07 63.0245 98.6777 62.999 100.269C62.8515 100.29 62.7031 100.313 62.5548 100.347C59.651 101.019 57.6921 104.046 58.18 107.11C58.6679 110.174 61.4178 112.114 64.3216 111.444C64.4736 111.409 64.6211 111.364 64.7676 111.316C65.2865 112.797 65.9136 114.226 66.6437 115.592C66.5199 115.69 66.3961 115.791 66.2778 115.901C64.0066 118.014 63.6853 121.606 65.5605 123.924C67.4347 126.242 72.6424 126.717 74.9126 124.605C75.0291 124.496 73.2905 124.074 73.3961 123.958C74.5421 124.919 75.7728 125.786 77.0808 126.552C77.0171 126.7 76.9552 126.849 76.9015 127.004C75.872 129.993 77.2738 133.188 80.0328 134.138C82.7919 135.089 85.8631 133.438 86.8917 130.449C86.9454 130.294 86.9882 130.138 87.0283 129.982C88.5302 130.185 90.034 130.261 91.5277 130.211C91.5405 130.368 91.5541 130.524 91.5796 130.681C92.0675 133.745 94.8174 135.685 97.7212 135.015C100.625 134.343 102.584 131.316 102.096 128.252C102.07 128.091 102.035 127.937 101.998 127.783C103.414 127.157 104.789 126.418 106.108 125.571C106.193 125.699 106.282 125.825 106.38 125.946C108.254 128.264 111.615 128.431 113.886 126.318C116.157 124.205 116.478 120.613 114.603 118.294C114.507 118.176 114.405 118.067 114.301 117.959C115.26 116.69 116.135 115.334 116.92 113.901C117.055 113.962 117.192 114.022 117.335 114.071L117.338 114.068ZM85.2669 118.94C75.2503 115.486 70.1591 103.889 73.8967 93.0359C77.6343 82.1832 88.7842 76.1844 98.8008 79.6383C108.817 83.0923 113.909 94.69 110.171 105.543C106.433 116.395 95.2835 122.394 85.2669 118.94Z" fill="url(#paint0_linear_1055_10866)"/>
<path d="M121.514 98.2317C124.417 97.5613 126.376 94.5328 125.888 91.4687C125.4 88.4047 122.651 86.4637 119.747 87.1349C119.595 87.1696 119.447 87.2151 119.301 87.2625C118.782 85.7824 118.155 84.3532 117.425 82.987C117.548 82.8895 117.672 82.7884 117.791 82.6782C120.062 80.5651 122.582 75.8715 120.48 73.7583C116.491 69.747 113.274 72.1698 111.003 74.283C110.886 74.3914 110.779 74.5052 110.672 74.6209C109.526 73.66 108.296 72.7929 106.988 72.0268C107.051 71.8793 107.114 71.7299 107.167 71.576C107.728 69.9492 107.563 68.2642 106.856 66.9106C105.02 71.5277 103.219 76.1575 101.464 80.8055C109.688 85.2413 113.561 95.6978 110.172 105.542C107.299 113.885 100.047 119.352 92.2958 119.87C92.0764 120.805 91.8643 121.745 91.6203 122.676C90.9567 125.202 90.1512 127.697 89.3438 130.189C90.0738 130.225 90.8038 130.231 91.5311 130.207C91.543 130.363 91.5575 130.52 91.583 130.677C92.0709 133.741 94.2974 136.093 99.587 135.07C102.514 134.504 102.586 131.313 102.098 128.248C102.073 128.087 102.037 127.932 102 127.778C103.417 127.153 104.791 126.414 106.11 125.567C106.196 125.694 106.285 125.821 106.382 125.942C108.256 128.261 113.691 128.601 115.962 126.488C118.233 124.375 116.48 120.608 114.606 118.289C114.509 118.171 114.407 118.062 114.303 117.954C115.263 116.684 116.138 115.329 116.922 113.896C117.058 113.957 117.194 114.017 117.337 114.066C120.096 115.018 123.167 113.365 124.196 110.376C125.226 107.387 123.824 104.192 121.065 103.241C120.922 103.192 120.778 103.154 120.633 103.118C120.897 101.507 121.043 99.8995 121.068 98.3082C121.216 98.2873 121.364 98.2645 121.513 98.2299L121.514 98.2317Z" fill="url(#paint1_linear_1055_10866)"/>
<path d="M124.329 98.1608C127.232 97.4904 129.189 94.4637 128.701 91.4005C128.215 88.3365 125.465 86.3927 122.559 87.0667C122.407 87.1014 122.26 87.1451 122.114 87.1952C121.596 85.7151 120.967 84.2832 120.239 82.9179C120.362 82.8204 120.484 82.7202 120.606 82.61C122.876 80.4959 123.196 76.9027 121.323 74.5846C119.447 72.2665 116.087 72.1007 113.817 74.2121C113.698 74.3214 113.592 74.4361 113.484 74.5518C112.339 73.5918 111.11 72.7228 109.802 71.9586C109.864 71.8102 109.927 71.6617 109.979 71.5078C111.009 68.5166 109.607 65.3232 106.849 64.3741C104.09 63.4213 101.019 65.0745 99.9897 68.0621C99.9378 68.216 99.8932 68.3717 99.8541 68.5275C98.3512 68.3262 96.8456 68.2488 95.3546 68.2998C95.3401 68.1449 95.3246 67.9874 95.3027 67.8307C94.8139 64.7666 92.0649 62.8275 89.1612 63.4969C86.2547 64.1673 84.2976 67.194 84.7855 70.2581C84.811 70.4211 84.8465 70.576 84.8838 70.7272C83.4656 71.3538 82.0938 72.0943 80.773 72.9405C80.6884 72.8121 80.5973 72.6846 80.5008 72.5653C79.323 71.1097 77.5607 70.5013 75.8548 70.7754C74.8381 70.933 73.8413 71.4021 72.9948 72.1918C70.7246 74.3059 70.4041 77.8955 72.2775 80.2172C72.374 80.3338 72.475 80.4431 72.5806 80.5515C71.6212 81.8212 70.7437 83.1756 69.9608 84.6102C69.8261 84.5492 69.6878 84.4882 69.5448 84.4417C66.7858 83.489 63.7155 85.1421 62.685 88.1297C61.6546 91.1182 63.0574 94.3143 65.8155 95.2634C65.9584 95.3135 66.104 95.3536 66.2488 95.3864C65.983 96.9995 65.84 98.6053 65.8146 100.197C65.6644 100.218 65.5178 100.242 65.3694 100.276C62.4657 100.946 60.5059 103.973 60.9947 107.041C61.4835 110.105 64.2325 112.045 67.1363 111.374C67.2874 111.337 67.4348 111.293 67.5814 111.246C68.0993 112.726 68.7274 114.155 69.4593 115.519C69.3337 115.62 69.2108 115.72 69.0933 115.829C66.8222 117.941 66.5018 121.533 68.3751 123.851C70.2485 126.173 73.611 126.339 75.8812 124.224C75.9959 124.114 76.107 124.002 76.2107 123.885C77.3568 124.848 78.5884 125.713 79.8973 126.481C79.8345 126.626 79.7717 126.775 79.7171 126.932C78.6903 129.92 80.0921 133.113 82.8512 134.066C85.6102 135.015 88.6805 133.366 89.7101 130.374C89.7619 130.221 89.8038 130.065 89.8457 129.909C91.3485 130.113 92.8505 130.188 94.3451 130.137C94.357 130.295 94.3715 130.449 94.397 130.606C94.8858 133.673 97.6358 135.613 100.539 134.942C103.441 134.269 105.402 131.242 104.913 128.178C104.888 128.018 104.853 127.862 104.815 127.708C106.23 127.082 107.606 126.345 108.927 125.498C109.011 125.626 109.098 125.75 109.199 125.873C111.072 128.191 114.435 128.357 116.705 126.243C118.484 124.59 119.066 122.027 118.336 119.883C118.133 119.285 117.829 118.725 117.423 118.221C117.327 118.101 117.225 117.993 117.12 117.887C118.079 116.614 118.953 115.26 119.74 113.828C119.875 113.889 120.009 113.947 120.153 113.998C122.912 114.947 125.985 113.297 127.012 110.306C128.042 107.317 126.641 104.124 123.882 103.172C123.738 103.122 123.597 103.086 123.452 103.048C123.714 101.436 123.861 99.8304 123.886 98.2373C124.033 98.2173 124.183 98.1963 124.331 98.159L124.329 98.1608ZM112.985 105.474C110.451 112.835 104.503 117.962 97.8169 119.422C94.6437 120.116 91.3058 119.984 88.0825 118.872C78.0641 115.417 72.9729 103.822 76.7105 92.9681C78.3808 88.1151 81.5313 84.2359 85.4027 81.7365C90.187 78.6396 96.0765 77.6587 101.615 79.5705C111.633 83.0226 116.722 94.6222 112.985 105.476V105.474Z" fill="url(#paint2_linear_1055_10866)"/>
<g style="mix-blend-mode:soft-light" opacity="0.3">
<path d="M116.705 126.245C114.435 128.359 111.072 128.193 109.199 125.875C109.099 125.752 109.011 125.628 108.927 125.5C107.606 126.346 106.23 127.084 104.815 127.71C104.853 127.865 104.888 128.02 104.913 128.179C105.402 131.243 103.441 134.27 100.539 134.944C97.6348 135.615 94.8858 133.675 94.397 130.608C94.3724 130.451 94.357 130.297 94.3451 130.139C92.8505 130.19 91.3485 130.115 89.8457 129.911C89.8038 130.067 89.7628 130.222 89.71 130.376C88.6805 133.368 85.6093 135.017 82.8511 134.068C80.0921 133.115 78.6903 129.922 79.7171 126.934C79.7717 126.777 79.8345 126.628 79.8973 126.483C78.5893 125.715 77.3568 124.85 76.2107 123.887C76.107 124.004 75.9959 124.116 75.8812 124.225C73.611 126.34 70.2485 126.174 68.3751 123.853C66.5018 121.535 66.8222 117.942 69.0933 115.831C69.2117 115.722 69.3336 115.621 69.4592 115.521C68.7274 114.156 68.0993 112.728 67.5814 111.248C67.4348 111.295 67.2873 111.339 67.1362 111.376C64.2325 112.047 61.4835 110.107 60.9947 107.042C60.5058 103.976 62.4666 100.948 65.3694 100.278C65.5178 100.244 65.6643 100.22 65.8145 100.199C65.84 98.6063 65.9829 97.0014 66.2487 95.3883C66.104 95.3555 65.9593 95.3154 65.8154 95.2653C63.0564 94.3162 61.6546 91.1191 62.685 88.1316C63.7154 85.1431 66.7858 83.4909 69.5448 84.4436C69.6877 84.49 69.8261 84.5511 69.9608 84.6121C70.7436 83.1775 71.6211 81.8231 72.5806 80.5534C72.4759 80.445 72.3739 80.3357 72.2774 80.2191C70.4041 77.8974 70.7245 74.3087 72.9947 72.1937C73.8404 71.4031 74.838 70.9349 75.8548 70.7773C79.799 73.5044 83.6221 77.1569 85.4026 81.7375C81.5312 84.2377 78.3808 88.117 76.7105 92.9691C72.9729 103.823 78.064 115.418 88.0825 118.873C91.3066 119.985 94.6446 120.117 97.8169 119.423C102.739 122.24 109.437 122.908 118.333 119.887C119.063 122.031 118.481 124.594 116.702 126.247L116.705 126.245Z" fill="white"/>
</g>
<path d="M247.131 115.388C252.069 116.851 257.355 113.7 258.938 108.35C260.52 103.001 257.801 97.4784 252.863 96.0155C252.608 95.9399 252.35 95.8835 252.093 95.8325C252.435 92.9706 252.566 90.126 252.487 87.3188C252.746 87.2706 253.005 87.2186 253.265 87.1458C258.332 85.7376 261.55 80.248 260.452 74.884C259.354 69.5201 254.356 66.313 249.289 67.7203C249.024 67.7941 248.767 67.8851 248.513 67.9808C247.485 65.4113 246.267 62.9411 244.874 60.5902C245.085 60.408 245.294 60.2213 245.496 60.0173C249.335 56.1162 249.623 49.7576 246.138 45.8164C242.654 41.8752 236.717 41.8424 232.877 45.7435C232.681 45.9439 232.5 46.1534 232.321 46.3656C230.226 44.7607 227.988 43.3271 225.623 42.0792C225.725 41.8141 225.823 41.5464 225.905 41.2695C227.488 35.9201 229.749 29.9787 224.789 28.5933C213.316 25.389 209.607 30.6227 208.024 35.9729C207.942 36.2498 207.879 36.5276 207.819 36.8054C205.156 36.5641 202.5 36.5477 199.869 36.7526C199.836 36.4775 199.798 36.2025 199.742 35.9283C198.644 30.5644 199.704 27.3564 194.515 28.208C183.198 30.0652 180.294 35.6632 181.392 41.0272C181.449 41.3077 181.523 41.5782 181.601 41.846C179.152 43.0593 176.787 44.4683 174.527 46.0632C174.366 45.8446 174.201 45.6288 174.018 45.422C170.533 41.4808 164.596 41.448 160.757 45.35C156.917 49.2512 156.63 55.6097 160.114 59.5509C160.293 59.7532 160.481 59.9381 160.672 60.1193C159.079 62.4319 157.642 64.8894 156.371 67.4762C156.127 67.3796 155.881 67.2858 155.626 67.2102C150.688 65.7474 145.402 68.898 143.819 74.2483C142.236 79.5976 144.956 85.1201 149.894 86.5829C150.149 86.6585 150.406 86.7149 150.664 86.766C150.322 89.6278 150.191 92.4724 150.27 95.2796C150.011 95.3279 149.752 95.3798 149.492 95.4517C144.425 96.8599 141.207 102.35 142.305 107.714C143.402 113.078 148.401 116.285 153.468 114.877C153.733 114.803 153.99 114.712 154.244 114.618C155.272 117.187 156.489 119.657 157.883 122.009C157.672 122.191 157.462 122.378 157.261 122.582C153.422 126.483 153.134 132.842 156.619 136.783C160.103 140.724 169.319 141.157 173.158 137.256C173.355 137.055 170.257 136.446 170.436 136.234C172.531 137.839 174.769 139.272 177.133 140.52C177.032 140.785 176.934 141.053 176.852 141.33C175.269 146.679 177.989 152.202 182.926 153.664C187.864 155.127 193.15 151.976 194.733 146.626C194.814 146.35 194.878 146.072 194.937 145.794C197.601 146.035 200.257 146.052 202.888 145.847C202.921 146.122 202.96 146.397 203.015 146.672C204.113 152.036 209.111 155.243 214.179 153.835C219.246 152.427 222.464 146.937 221.366 141.573C221.309 141.293 221.235 141.022 221.157 140.754C223.605 139.541 225.97 138.132 228.23 136.537C228.392 136.756 228.558 136.971 228.74 137.177C232.225 141.119 238.162 141.151 242.001 137.25C245.841 133.349 246.128 126.99 242.644 123.049C242.465 122.848 242.276 122.663 242.086 122.481C243.679 120.168 245.116 117.711 246.387 115.124C246.631 115.221 246.876 115.314 247.132 115.39L247.131 115.388ZM190.972 126.467C173.045 121.156 163.173 101.105 168.919 81.6826C174.666 62.2598 193.857 50.8196 211.784 56.1298C229.711 61.4409 239.584 81.4913 233.837 100.914C228.09 120.337 208.899 131.777 190.972 126.466V126.467Z" fill="url(#paint3_linear_1055_10866)"/>
<path d="M253.265 87.1465C258.333 85.7383 261.55 80.2487 260.453 74.8838C259.355 69.5199 254.357 66.3128 249.289 67.721C249.024 67.7948 248.767 67.8859 248.514 67.9815C247.485 65.412 246.268 62.9418 244.874 60.5909C245.085 60.4088 245.295 60.222 245.496 60.018C249.335 56.1169 253.415 47.647 249.546 44.0838C242.201 37.3217 236.717 41.8431 232.878 45.7451C232.681 45.9455 232.5 46.155 232.322 46.3673C230.226 44.7624 227.989 43.3296 225.624 42.0808C225.726 41.8158 225.823 41.548 225.905 41.2711C226.766 38.3601 226.346 35.4016 224.995 33.0708C222.117 41.3522 219.301 49.6545 216.569 57.9841C231.411 65.1661 239.05 83.2991 233.838 100.917C229.421 115.846 217.059 126.048 203.436 127.563C203.122 129.23 202.822 130.903 202.462 132.564C201.488 137.068 200.262 141.53 199.031 145.987C200.321 145.992 201.608 145.947 202.888 145.847C202.922 146.123 202.959 146.398 203.016 146.673C204.113 152.037 208.221 156.01 217.467 153.795C222.582 152.57 222.463 146.939 221.366 141.574C221.308 141.293 221.235 141.023 221.156 140.755C223.605 139.542 225.97 138.133 228.23 136.538C228.391 136.756 228.558 136.972 228.74 137.178C232.224 141.119 241.83 141.298 245.67 137.397C249.509 133.495 246.128 126.991 242.643 123.05C242.465 122.848 242.275 122.663 242.085 122.482C243.678 120.169 245.115 117.712 246.386 115.126C246.63 115.222 246.876 115.316 247.132 115.392C252.069 116.854 257.355 113.703 258.938 108.354C260.521 103.004 257.801 97.4818 252.864 96.019C252.608 95.9434 252.35 95.8869 252.094 95.8359C252.435 92.9741 252.566 90.1295 252.488 87.3223C252.746 87.274 253.006 87.2212 253.265 87.1492V87.1465Z" fill="url(#paint4_linear_1055_10866)"/>
<path d="M257.821 95.6751C257.564 95.5986 257.31 95.543 257.052 95.4902C257.394 92.6311 257.523 89.7838 257.447 86.9793C257.705 86.9301 257.965 86.8773 258.221 86.8035C263.291 85.3981 266.507 79.9066 265.41 74.5436C264.312 69.1806 259.314 65.9699 254.247 67.3789C253.983 67.4555 253.724 67.5456 253.47 67.6394C252.443 65.07 251.226 62.6016 249.833 60.248C250.043 60.0658 250.251 59.88 250.453 59.676C254.293 55.7748 254.581 49.4153 251.095 45.476C247.612 41.5338 241.676 41.5011 237.836 45.4022C237.637 45.6026 237.455 45.8139 237.28 46.0261C235.184 44.4176 232.947 42.9866 230.58 41.737C230.684 41.4719 230.781 41.2069 230.862 40.93C232.445 35.5797 229.725 30.0582 224.788 28.5954C219.851 27.1325 214.564 30.2822 212.981 35.6298C212.899 35.9103 212.835 36.1881 212.778 36.4632C210.113 36.2236 207.457 36.2054 204.826 36.4113C204.791 36.1362 204.757 35.8611 204.697 35.5879C203.601 30.2212 198.601 27.0141 193.535 28.4232C188.469 29.8323 185.249 35.3201 186.346 40.6868C186.405 40.9664 186.48 41.2378 186.557 41.5056C186.436 41.5648 186.316 41.6249 186.196 41.6905C183.877 42.8582 181.632 44.2044 179.485 45.7219C179.32 45.5024 179.155 45.2865 178.972 45.0825C175.49 41.1404 169.55 41.1076 165.714 45.0087C161.874 48.9098 161.586 55.2693 165.07 59.2114C165.249 59.4118 165.437 59.5949 165.628 59.7798C164.036 62.0924 162.596 64.5499 161.328 67.1339C161.083 67.0383 160.838 66.9454 160.581 66.8689C155.644 65.4061 150.357 68.5558 148.774 73.9069C147.191 79.2572 149.911 84.7787 154.848 86.2415C155.105 86.3181 155.363 86.3736 155.617 86.4228C155.279 89.2856 155.146 92.1292 155.226 94.9373C154.968 94.9865 154.708 95.0393 154.448 95.1095C149.382 96.5186 146.162 102.01 147.259 107.373C148.357 112.736 153.356 115.943 158.422 114.534C158.69 114.461 158.944 114.371 159.199 114.277C160.229 116.844 161.443 119.315 162.84 121.666C162.629 121.848 162.418 122.038 162.216 122.241C158.379 126.142 158.089 132.499 161.575 136.441C165.058 140.383 170.996 140.416 174.837 136.514C175.032 136.314 175.214 136.103 175.392 135.891C177.485 137.495 179.723 138.93 182.09 140.177C181.989 140.442 181.891 140.711 181.807 140.988C180.224 146.338 182.943 151.859 187.881 153.322C192.818 154.785 198.105 151.635 199.688 146.284C199.769 146.007 199.834 145.729 199.894 145.454C202.555 145.694 205.211 145.711 207.842 145.506C207.877 145.781 207.915 146.056 207.971 146.33C209.068 151.693 214.067 154.903 219.133 153.494C223.852 152.183 226.964 147.334 226.486 142.342C226.452 141.972 226.397 141.601 226.322 141.231C226.263 140.951 226.192 140.68 226.111 140.412C228.56 139.2 230.924 137.79 233.186 136.196C233.347 136.412 233.512 136.627 233.695 136.835C237.181 140.777 243.116 140.81 246.957 136.909C250.797 133.008 251.085 126.648 247.598 122.706C247.422 122.506 247.232 122.322 247.04 122.138C248.632 119.825 250.073 117.369 251.343 114.784C251.584 114.879 251.833 114.972 252.09 115.049C257.024 116.511 262.31 113.361 263.893 108.011C265.476 102.66 262.757 97.1388 257.819 95.676L257.821 95.6751ZM238.794 100.572C233.713 117.74 218.135 128.671 202.206 127.311C200.112 127.133 198.014 126.744 195.931 126.127C178.004 120.813 168.13 100.766 173.877 81.3403C177.191 70.1388 184.975 61.5951 194.411 57.3861C201.338 54.2929 209.153 53.5387 216.743 55.7885C234.667 61.1014 244.542 81.15 238.794 100.572Z" fill="url(#paint5_linear_1055_10866)"/>
<g style="mix-blend-mode:soft-light" opacity="0.3">
<path d="M219.134 153.493C214.068 154.902 209.069 151.691 207.971 146.328C207.915 146.055 207.878 145.78 207.843 145.505C205.211 145.71 202.555 145.692 199.894 145.453C199.834 145.728 199.769 146.006 199.688 146.283C198.106 151.633 192.819 154.783 187.881 153.321C182.944 151.858 180.224 146.337 181.807 140.986C181.892 140.709 181.989 140.44 182.09 140.175C179.724 138.928 177.485 137.494 175.392 135.889C175.214 136.101 175.032 136.313 174.837 136.513C170.997 140.414 165.058 140.38 161.575 136.439C158.089 132.497 158.38 126.14 162.216 122.239C162.418 122.036 162.629 121.847 162.84 121.664C161.443 119.314 160.23 116.842 159.2 114.276C158.945 114.369 158.689 114.461 158.422 114.533C153.357 115.942 148.357 112.735 147.26 107.371C146.162 102.008 149.381 96.5161 154.448 95.1079C154.708 95.0378 154.967 94.985 155.226 94.9358C155.146 92.1277 155.279 89.284 155.618 86.4213C155.363 86.3721 155.104 86.3165 154.849 86.24C149.911 84.7772 147.191 79.2566 148.774 73.9054C150.357 68.5551 155.644 65.4045 160.581 66.8673C160.838 66.9438 161.083 67.0367 161.328 67.1324C162.596 64.5474 164.035 62.0909 165.628 59.7783C165.437 59.5943 165.249 59.4103 165.07 59.2099C161.587 55.2678 161.875 48.9083 165.714 45.0072C169.551 41.106 175.49 41.1388 178.973 45.0809C179.156 45.285 179.32 45.5008 179.485 45.7203C181.632 44.2029 183.876 42.8567 186.196 41.689C189.88 46.3434 192.92 51.6189 194.411 57.3846C184.975 61.5936 177.19 70.1372 173.876 81.3388C168.128 100.764 178.003 120.813 195.931 126.126C198.014 126.742 200.112 127.132 202.205 127.31C207.937 134.985 216.017 140.549 226.488 142.339C226.966 147.331 223.853 152.179 219.135 153.491L219.134 153.493Z" fill="white"/>
</g>
<path d="M246.838 128.619L247.163 123.833C247.163 123.833 246.545 122.764 246.355 120.209C246.166 117.655 246.754 118.703 247.004 119.777C247.074 120.076 247.244 120.338 247.451 120.559C247.973 121.115 248.686 120.489 248.845 119.742L250.089 117.167C250.089 117.167 251.447 118.957 249.8 123.567C249.284 125.011 249.459 128.59 249.459 128.59L246.84 128.618L246.838 128.619Z" fill="url(#paint6_linear_1055_10866)"/>
<path d="M162.807 126.739L161.918 121.996C161.918 121.996 163.198 120.286 162.765 118.423C162.333 116.559 162.623 117.232 162.095 118.377C161.567 119.522 160.816 117.472 160.247 115.612C159.679 113.752 159.135 116.514 159.192 118.18C159.248 119.845 159.243 120.835 160.149 122.108C161.055 123.382 160.565 127.66 160.565 127.66L162.806 126.739H162.807Z" fill="url(#paint7_linear_1055_10866)"/>
<path d="M222.493 259.685C222.601 258.66 225.06 259.035 226.67 259.301C228.28 259.567 228.949 260.265 229.161 260.891C229.374 261.516 229.081 263.003 227.627 262.273C226.432 261.673 222.396 260.59 222.492 259.685H222.493Z" fill="#26264F"/>
<path d="M225.742 255.908L226.625 259.965C226.625 259.965 227.725 260.836 228.131 260.468L228.012 255.854L225.742 255.909V255.908Z" fill="url(#paint8_linear_1055_10866)"/>
<path d="M217.757 253L221.461 254.926L220.689 256.816L216.934 255.561L217.757 253Z" fill="url(#paint9_linear_1055_10866)"/>
<path d="M217.032 260.488C217.032 260.488 219.53 261.32 220.758 259.892C221.547 258.974 222.26 257.372 222.669 256.346C222.891 255.788 222.645 255.156 222.104 254.898C221.318 254.521 220.245 254.099 219.759 254.331C218.946 254.718 219.481 257.697 219.087 258.436C218.693 259.176 216.996 259.553 217.032 260.489V260.488Z" fill="#26264F"/>
<path d="M215.648 193.041C215.597 202.308 216.142 213.085 217.875 224.974C219.682 237.367 222.385 248.247 225.218 257.381C225.539 257.562 226.114 257.832 226.881 257.907C227.78 257.994 228.486 257.768 228.842 257.627C229.789 252.912 230.383 248.919 230.764 245.949C231.77 238.106 232.257 234.087 231.504 229.328C230.796 224.862 229.964 225.151 229.244 220.22C228.605 215.834 228.809 212.508 229.138 207.64C229.364 204.297 229.822 199.793 230.831 194.48C225.769 194 220.708 193.52 215.646 193.041H215.648Z" fill="url(#paint10_linear_1055_10866)"/>
<path style="mix-blend-mode:multiply" opacity="0.3" d="M225.939 254.163C225.149 250.837 227.243 249.485 227.291 245.336C227.35 240.267 224.253 239.905 223.655 234.16C223.176 229.544 225.125 229.28 224.993 223.699C224.853 217.768 222.613 216.415 223.34 212.909C223.743 210.96 225.072 208.354 229.29 205.704C229.552 202.631 230.006 198.834 230.833 194.48C225.771 194 220.71 193.52 215.648 193.041C215.597 202.308 216.142 213.085 217.875 224.974C219.682 237.367 222.385 248.247 225.218 257.381C225.539 257.562 226.114 257.832 226.881 257.907C227.288 257.946 227.649 257.917 227.963 257.865C227.067 256.869 226.291 255.648 225.938 254.163H225.939Z" fill="url(#paint11_linear_1055_10866)"/>
<path d="M203.387 190.576C203.052 192.787 202.461 196.129 201.409 200.12C199.036 209.119 196.825 211.903 195.889 217.829C194.798 224.739 196.324 230.339 196.905 232.47C200.867 247.012 213.944 254.545 217.414 256.408C217.907 255.123 218.401 253.839 218.893 252.556C218.075 251.29 216.872 249.259 215.789 246.604C213.94 242.071 213.97 239.477 212.799 235.057C210.685 227.084 208.603 228.051 208.39 224.05C208.052 217.709 213.296 215.514 218.686 203.801C220.23 200.445 221.193 197.596 221.736 195.843C215.62 194.088 209.504 192.333 203.388 190.577L203.387 190.576Z" fill="url(#paint12_linear_1055_10866)"/>
<path d="M246.139 126.648C247.444 126.528 248.75 126.406 250.055 126.285C251.521 128.677 255.704 136.207 254.131 145.782C253.759 148.051 252.302 155.565 245.491 161.16C240.614 165.165 235.426 166.176 233.058 166.485C232.293 177.709 232.025 184.801 232.124 189.063C232.135 189.577 232.242 193.89 231.288 199.378C230.998 201.051 230.847 201.896 230.584 202.346C226.951 208.582 208.978 202.224 204.175 199.748C202.926 199.104 201.671 198.242 201.205 196.834C200.606 195.025 201.403 193.475 201.778 192.099C202.697 188.719 200.837 185.994 197.206 179.069C195.67 176.14 193.45 171.75 190.894 166.073C187.438 166.832 179.332 168.062 171.766 163.799C160.65 157.535 155.125 141.902 159.583 125.67C160.772 125.415 161.961 125.161 163.151 124.907C163.706 128.153 164.903 132.556 167.657 137.101C169.329 139.858 170.72 142.154 173.31 143.561C177.376 145.77 181.236 144.069 186.775 143.094C195.503 141.556 202.628 142.835 211.282 144.389C220.737 146.087 223.215 148.222 230.269 147.379C233.407 147.003 237.339 146.483 240.722 143.618C247.38 137.981 246.309 128.019 246.142 126.65L246.139 126.648Z" fill="url(#paint13_linear_1055_10866)"/>
<path d="M209.697 136.773C209.697 136.773 208.971 139.022 209.706 140.102C210.441 141.182 212.861 145.295 213.723 145.546C214.214 145.689 215.45 145.963 216.422 146.173C216.934 146.283 216.996 147.003 216.502 147.178C215.497 147.536 213.745 147.846 210.789 147.613C206.516 147.276 203.186 145.414 201.744 144.47C201.539 144.336 201.662 144.019 201.904 144.053L203.819 144.328C205.458 144.564 206.908 143.251 206.836 141.595L206.789 140.517L209.696 136.773H209.697Z" fill="url(#paint14_linear_1055_10866)"/>
<path d="M207.618 141.259C207.364 141.096 205.232 140.689 205.014 139.511C204.718 137.913 206.259 136.098 206.455 135.802C207.278 134.564 207.475 134.403 207.831 134.208L208.325 133.962C208.325 133.962 208.353 133.954 208.382 133.946C208.692 133.867 209.718 133.928 209.921 133.99C210.57 134.192 211.03 136.954 210.483 140.751C210.498 140.898 210.51 141.048 210.523 141.198C210.555 141.588 207.589 141.393 207.618 141.258V141.259Z" fill="url(#paint15_linear_1055_10866)"/>
<path d="M206.109 133.568C205.984 134.028 207.155 135.041 207.655 135.477C207.716 135.53 207.89 135.708 208.04 135.984C208.062 136.024 208.08 136.07 208.095 136.13C208.286 136.897 207.024 137.667 207.222 138.021C207.366 138.278 208.2 138.028 208.276 138.245C208.348 138.45 207.644 138.797 207.725 139.042C207.786 139.226 208.212 139.101 208.446 139.397C208.563 139.543 208.516 139.648 208.615 140.075C208.671 140.317 208.756 140.584 208.827 140.734C209.172 141.464 210.305 141.823 210.553 141.566C210.622 141.494 210.575 141.424 210.661 141.17C210.661 141.17 210.741 140.934 210.934 140.672C211.209 140.296 211.813 140.064 212.432 139.696C213.581 139.017 213.934 138.381 214.043 138.165C214.055 138.141 214.066 138.119 214.076 138.098C214.094 138.062 214.11 138.024 214.125 137.988C214.408 137.246 213.536 135.865 213.536 135.865C212.835 134.775 211.908 134.012 211.159 133.516C209.754 133.139 208.592 133.096 207.783 133.13C207.124 133.158 206.206 133.205 206.107 133.569L206.109 133.568Z" fill="#26264F"/>
<path d="M205.399 137.465C205.399 137.465 206.235 138.62 207.527 137.389L208.109 137.605C208.109 137.605 206.44 140.702 206.13 140.68C205.819 140.66 204.926 140.391 204.926 140.391C204.596 140.225 204.429 139.848 204.532 139.493C204.719 138.845 205.158 137.912 205.399 137.464V137.465Z" fill="#26264F"/>
<path d="M207.791 137.79C208.117 137.418 208.591 137.838 208.548 138.354C208.504 138.869 207.957 139.359 207.482 139.214C207.007 139.068 207.353 138.291 207.791 137.791V137.79Z" fill="url(#paint16_linear_1055_10866)"/>
<path style="mix-blend-mode:multiply" opacity="0.3" d="M225.837 200.139C219.483 201.906 212.466 198.216 210.956 193.727C209.84 190.409 212.902 187.524 211.109 184.065C209.383 180.733 205.777 181.929 203.576 178.529C201.176 174.823 204.493 171.911 202.473 167.022C200.953 163.345 196.954 159.856 192.809 159.582C187.884 159.256 185.736 163.668 181.566 162.461C179.388 161.831 179.53 160.499 176.589 158.104C171.485 153.947 167.782 155.291 163.549 152.319C162.304 151.446 160.939 150.143 159.723 148.116C161.905 154.998 166.109 160.612 171.765 163.799C179.33 168.062 187.437 166.833 190.892 166.073C193.448 171.75 195.668 176.14 197.204 179.069C200.835 185.994 202.696 188.719 201.776 192.099C201.402 193.476 200.605 195.025 201.204 196.834C201.67 198.242 202.924 199.105 204.173 199.749C208.976 202.224 226.95 208.583 230.583 202.346C230.845 201.897 230.995 201.052 231.286 199.379C231.467 198.337 231.61 197.338 231.722 196.398C230.334 197.95 228.423 199.42 225.836 200.138L225.837 200.139Z" fill="url(#paint17_linear_1055_10866)"/>
<path d="M101.202 166.853C101.202 166.853 81.2479 181.577 67.0705 172.66L65.1152 191.054C65.1152 191.054 93.2053 198.923 101.365 170.203L101.201 166.853H101.202Z" fill="url(#paint18_linear_1055_10866)"/>
<path d="M149.662 201.119C153.287 200.795 156.163 197.463 156.087 193.679C156.033 190.988 154.503 188.791 152.326 187.862C152.293 187.847 152.265 187.836 152.232 187.826C151.365 187.473 150.4 187.318 149.388 187.408C149.198 187.427 149.014 187.455 148.827 187.488C148.449 185.611 147.931 183.778 147.276 182.006C147.445 181.909 147.611 181.805 147.773 181.693C150.872 179.521 151.862 175.231 149.986 172.113C149.288 170.953 148.291 170.121 147.154 169.645C145.704 169.029 144.022 169 142.449 169.612C141.941 169.811 141.449 170.073 140.974 170.405C140.815 170.517 140.668 170.635 140.52 170.758C139.296 169.404 137.951 168.147 136.5 167.002C136.601 166.836 136.701 166.667 136.791 166.487C138.458 163.206 140.611 159.633 138.022 157.954C137.996 157.936 137.968 157.919 137.939 157.904C137.835 157.843 137.727 157.782 137.619 157.728C130.214 154.108 127.037 157.206 125.291 160.645C125.258 160.71 125.23 160.774 125.201 160.84C125.147 160.956 125.096 161.07 125.05 161.186C123.268 160.689 121.465 160.347 119.647 160.156C119.658 159.965 119.669 159.774 119.665 159.579C119.604 156.478 120.345 154.487 118.618 153.849C118.315 153.737 117.93 153.601 117.455 153.575C117.398 153.572 117.34 153.568 117.282 153.568H116.951C109.115 153.568 106.47 156.924 106.546 160.695C106.549 160.893 106.567 161.113 106.585 161.307C105.616 161.581 104.659 161.908 103.716 162.265C103.713 162.265 103.709 162.269 103.706 162.269C102.874 162.582 102.057 162.932 101.247 163.307C101.164 163.137 101.078 162.975 100.98 162.809C100.282 161.65 99.2853 160.821 98.1474 160.345C96.9522 159.837 95.5987 159.73 94.2815 160.05C93.4859 160.242 92.6976 160.59 91.9667 161.106C88.8672 163.277 87.8778 167.567 89.7529 170.683C89.8503 170.841 89.9541 170.992 90.0624 171.14C88.8463 172.357 87.6939 173.672 86.6216 175.073C86.485 175.25 86.3512 175.426 86.2183 175.606C86.0636 175.508 85.9088 175.414 85.7432 175.329C85.6176 175.264 85.4947 175.207 85.3654 175.156C82.2596 173.834 78.5083 175.332 76.8316 178.639C75.0857 182.078 76.2454 186.177 79.4232 187.791C79.5852 187.874 79.7545 187.942 79.9238 188.01C79.333 189.916 78.887 191.831 78.5884 193.751C78.4082 193.751 78.2253 193.755 78.0414 193.773C74.4167 194.098 71.5411 197.426 71.6167 201.214C71.6531 203.007 72.344 204.581 73.4491 205.705C74.6761 206.955 76.4074 207.742 78.3154 207.573C78.4738 207.558 78.6358 207.593 78.7942 207.593H78.8014C78.8269 207.593 78.8515 207.493 78.877 207.49C78.8806 207.504 78.8843 207.47 78.8843 207.485C78.8879 207.489 78.8879 207.471 78.8879 207.474C79.2657 209.329 79.7773 211.126 80.4217 212.884C80.4217 212.887 80.4254 212.889 80.4254 212.893C80.2597 212.99 80.094 213.088 79.932 213.2C78.1506 214.449 77.0628 216.375 76.8225 218.378C76.6423 219.858 76.9236 221.381 77.7182 222.702C79.1728 225.115 83.2181 226.682 86.4113 225.961H86.4186C87.1568 225.961 87.8477 225.706 88.4485 225.378C88.5131 225.442 88.5741 225.532 88.6396 225.601C88.6469 225.612 88.6579 225.623 88.6651 225.63C89.1439 226.094 89.6373 226.552 90.148 226.992C90.1735 227.017 90.198 227.039 90.2235 227.06C90.5439 227.337 90.8716 227.607 91.2057 227.871C91.2021 227.874 91.2021 227.878 91.1984 227.882C91.101 228.047 91.0009 228.22 90.9144 228.393C90.5685 229.073 90.3382 229.779 90.2126 230.485C90.0287 231.522 90.0761 232.563 90.3282 233.531C90.5157 234.241 90.8143 234.914 91.2175 235.516C91.4588 235.88 91.7364 236.215 92.0559 236.521C92.4737 236.924 92.9598 237.321 93.5032 237.597C94.702 238.21 96.0192 238.206 97.2863 238.206H97.2936C99.3772 237.846 101.329 236.427 102.412 234.291C102.506 234.114 102.581 233.856 102.657 233.675C103.571 233.931 104.489 234.245 105.414 234.245H105.418C105.583 234.245 105.749 234.245 105.915 234.604H105.922C105.937 234.604 105.955 234.529 105.972 234.529C105.99 234.532 106.009 234.494 106.022 234.498C106.148 234.52 106.278 234.521 106.407 234.538C106.516 234.556 106.627 234.563 106.735 234.578C107.174 234.646 107.571 234.696 108.015 234.742C108 234.93 107.952 235.086 107.952 235.273V235.312C107.952 235.358 108 235.398 108.003 235.439C108.004 235.473 108.027 235.509 108.03 235.543C108.03 235.579 108.041 235.611 108.045 235.647C108.056 235.813 108.079 235.975 108.101 236.134C108.105 236.184 108.115 236.231 108.122 236.281C108.478 238.528 109.898 240.319 111.82 241.132C111.892 241.165 111.968 241.193 112.047 241.223C112.156 241.263 112.268 241.302 112.382 241.338C112.415 241.353 112.45 241.364 112.487 241.371C113.192 241.572 113.952 241.652 114.74 241.583C114.905 241.569 115.068 241.547 115.226 241.519C115.27 241.511 115.316 241.504 115.359 241.493C118.685 240.87 121.233 237.708 121.161 234.142C121.157 234.009 121.15 233.879 121.139 233.749C121.135 233.71 121.132 233.666 121.128 233.627C121.124 233.605 121.124 233.584 121.121 233.559C122.939 233.041 124.724 232.377 126.459 231.574C126.541 231.743 126.628 231.913 126.725 232.075C126.769 232.147 126.815 232.219 126.866 232.291C127.028 232.54 127.204 232.774 127.398 232.99C127.398 232.99 127.4 232.992 127.405 232.997C128.37 234.092 129.662 234.762 131.048 234.956C131.674 235.05 132.323 235.043 132.97 234.931C133.92 234.776 134.867 234.398 135.738 233.785C138.693 231.713 139.729 227.716 138.193 224.643C138.154 224.564 138.114 224.485 138.067 224.406C138.031 224.337 137.992 224.269 137.953 224.204C137.855 224.046 137.751 223.895 137.643 223.751C139.014 222.375 140.299 220.884 141.487 219.285C141.642 219.382 141.797 219.476 141.962 219.559C142.772 219.97 143.633 220.179 144.5 220.204C144.922 220.222 145.339 220.193 145.756 220.121C147.84 219.768 149.788 218.389 150.875 216.249C152.617 212.81 151.461 208.715 148.283 207.101C148.121 207.018 147.952 206.946 147.784 206.878C148.373 204.976 148.82 203.057 149.119 201.137C149.299 201.137 149.482 201.133 149.666 201.118L149.662 201.119ZM87.1841 224.133C87.2233 224.176 87.2633 224.22 87.3034 224.263C87.206 224.202 87.1559 224.154 87.1841 224.133ZM102.377 220.064C90.8452 214.204 86.6371 199.329 92.9762 186.839C96.2158 180.457 101.578 175.934 107.59 173.812C111.452 172.454 115.58 172.087 119.582 172.861C121.544 173.236 123.474 173.888 125.327 174.828C126.479 175.414 127.563 176.088 128.563 176.848C128.661 176.916 128.758 176.992 128.854 177.068C129.279 177.395 129.686 177.741 130.082 178.098C130.244 178.245 130.402 178.393 130.56 178.548C130.586 178.57 130.61 178.594 130.636 178.62C130.802 178.778 130.964 178.94 131.122 179.106C131.144 179.128 131.168 179.149 131.187 179.174C131.338 179.329 131.485 179.484 131.629 179.646C131.665 179.686 131.701 179.725 131.737 179.768C131.881 179.927 132.019 180.085 132.151 180.247C132.18 180.276 132.205 180.305 132.227 180.337C132.364 180.496 132.494 180.658 132.619 180.824C133.163 181.512 133.663 182.228 134.12 182.978C134.229 183.147 134.329 183.324 134.43 183.496C134.459 183.543 134.484 183.59 134.509 183.637C134.599 183.788 134.682 183.939 134.761 184.094C134.808 184.173 134.851 184.256 134.894 184.339C134.97 184.483 135.045 184.627 135.113 184.771C135.387 185.319 135.639 185.877 135.869 186.446C135.959 186.662 136.042 186.882 136.125 187.102C136.197 187.3 136.269 187.502 136.337 187.703C136.391 187.851 136.438 187.999 136.484 188.146C136.517 188.247 136.549 188.347 136.578 188.449C136.617 188.567 136.65 188.683 136.683 188.798C136.719 188.917 136.751 189.032 136.78 189.148C136.823 189.285 136.859 189.425 136.892 189.562C137.014 190.038 137.122 190.517 137.216 191C137.266 191.267 137.314 191.529 137.356 191.796C137.399 192.052 137.436 192.307 137.467 192.566C137.471 192.599 137.475 192.631 137.478 192.668C137.504 192.852 137.525 193.035 137.543 193.219C137.558 193.348 137.568 193.475 137.579 193.604C137.59 193.709 137.598 193.812 137.605 193.921C137.619 194.079 137.63 194.241 137.638 194.404C137.893 198.913 136.971 203.631 134.729 208.05C133.365 210.74 131.62 213.099 129.611 215.091C129.399 215.299 129.186 215.505 128.97 215.706C128.751 215.908 128.531 216.103 128.307 216.297C128.185 216.402 128.063 216.51 127.937 216.611C127.836 216.697 127.731 216.78 127.627 216.863C127.401 217.047 127.17 217.227 126.937 217.403C124.928 218.92 122.739 220.111 120.454 220.958C120.08 221.095 119.705 221.225 119.328 221.344C118.943 221.466 118.554 221.578 118.162 221.679C118.154 221.682 118.147 221.682 118.14 221.686C117.909 221.743 117.675 221.802 117.441 221.852C117.204 221.909 116.963 221.96 116.721 222.003C115.012 222.338 113.27 222.478 111.531 222.421C111.294 222.414 111.06 222.403 110.826 222.382C110.789 222.382 110.75 222.378 110.714 222.375C107.866 222.177 105.045 221.42 102.377 220.066V220.064Z" fill="url(#paint19_linear_1055_10866)"/>
<path d="M149.115 201.137C148.816 203.057 148.369 204.976 147.779 206.878C147.949 206.946 148.118 207.018 148.279 207.101C151.458 208.714 152.613 212.809 150.871 216.25C149.784 218.389 147.837 219.768 145.752 220.122C145.334 220.193 144.918 220.223 144.496 220.204C143.629 220.179 142.768 219.97 141.958 219.56C141.793 219.477 141.638 219.383 141.483 219.285C140.295 220.885 139.01 222.376 137.639 223.751C137.747 223.895 137.851 224.046 137.949 224.205C137.988 224.27 138.028 224.338 138.063 224.406C138.11 224.482 138.157 224.561 138.2 224.64C139.949 227.759 141.169 232.269 138.211 234.343C137.314 234.97 136.137 235.305 134.867 235.392C133.622 235.475 132.254 235.32 131.016 234.956C129.598 234.546 128.464 233.869 127.384 232.983V232.802H127.438C127.218 232.802 127.027 232.444 126.861 232.203C126.811 232.131 126.764 232.103 126.721 232.031C126.624 231.869 126.537 231.721 126.455 231.553C124.72 232.356 122.935 233.03 121.117 233.548C121.12 233.574 121.12 233.6 121.124 233.622C121.128 233.661 121.185 233.708 121.189 233.747C121.2 233.844 121.264 233.941 121.264 234.063V234.142C121.264 237.902 120.584 241.807 116.978 241.807H116.967C115.164 241.908 113.681 241.746 112.482 241.371C112.445 241.364 112.41 241.353 112.377 241.339C112.263 241.302 112.151 241.263 112.042 241.223C111.963 241.194 111.887 241.166 111.816 241.133C109.515 240.189 108.414 238.388 108.119 236.282C108.112 236.232 108.104 236.184 108.101 236.134C108.079 235.946 108.061 235.76 108.051 235.568C108.051 235.561 108.051 235.55 108.047 235.543C108.036 235.446 107.986 235.377 107.982 235.272C107.979 235.078 107.946 234.93 107.946 234.736V234.732C107.586 234.69 107.115 234.631 106.675 234.567C106.567 234.552 106.481 234.534 106.377 234.516C106.247 234.498 106.128 234.559 106.003 234.538C105.973 234.531 105.945 234.603 105.916 234.603H105.909C105.743 234.243 105.578 234.243 105.412 234.243H105.408C106.801 231.362 108.256 228.536 109.483 225.594C109.932 224.514 110.462 223.441 110.822 222.353C110.825 222.349 110.825 222.362 110.825 222.359C110.825 222.373 111.21 222.39 111.47 222.401C111.495 222.405 111.516 222.408 111.538 222.408C113.28 222.469 115.008 222.33 116.717 221.999C116.959 221.952 117.196 221.902 117.437 221.848C117.671 221.798 117.905 221.741 118.136 221.684C118.143 221.68 118.15 221.68 118.157 221.676C118.55 221.575 118.938 221.464 119.323 221.341C119.701 221.222 120.076 221.096 120.45 220.956C122.743 220.117 124.932 218.921 126.947 217.401C127.181 217.224 127.404 217.044 127.631 216.861C127.735 216.778 127.835 216.695 127.933 216.608C128.058 216.507 128.181 216.4 128.303 216.295C128.526 216.1 128.746 215.906 128.966 215.704C129.182 215.503 129.395 215.297 129.607 215.088C131.615 213.096 133.361 210.738 134.725 208.047C136.967 203.628 137.889 198.91 137.634 194.401C137.626 194.239 137.615 194.077 137.601 193.918C137.594 193.81 137.586 193.706 137.575 193.602C137.564 193.472 137.553 193.346 137.539 193.216C137.521 193.032 137.5 192.849 137.474 192.665C137.471 192.629 137.467 192.597 137.463 192.564C137.431 192.304 137.395 192.049 137.352 191.793C137.31 191.527 137.262 191.264 137.212 190.997C137.118 190.515 137.011 190.036 136.888 189.56C136.855 189.423 136.82 189.283 136.776 189.146C136.747 189.03 136.715 188.915 136.679 188.796C136.646 188.68 136.614 188.565 136.574 188.446C136.545 188.345 136.513 188.245 136.48 188.144C136.433 187.996 136.387 187.849 136.333 187.701C136.265 187.5 136.193 187.298 136.121 187.1C136.038 186.88 135.955 186.661 135.865 186.444C135.635 185.875 135.382 185.317 135.109 184.769C135.041 184.625 134.966 184.481 134.89 184.336C134.847 184.254 134.804 184.171 134.757 184.091C134.678 183.937 134.595 183.785 134.505 183.634C134.479 183.588 134.455 183.54 134.426 183.494C134.325 183.321 134.225 183.144 134.116 182.976C133.659 182.227 133.159 181.51 132.615 180.822C132.49 180.656 132.359 180.494 132.223 180.335C132.201 180.302 132.176 180.274 132.147 180.245C132.014 180.083 131.877 179.924 131.733 179.766C131.698 179.723 131.661 179.683 131.625 179.644C131.481 179.482 131.334 179.327 131.182 179.172C131.164 179.146 131.139 179.126 131.118 179.104C130.959 178.938 130.797 178.776 130.632 178.617C130.606 178.592 130.582 178.567 130.556 178.545C130.398 178.39 130.239 178.243 130.077 178.095C129.681 177.739 129.275 177.393 128.85 177.065C128.753 176.99 128.656 176.914 128.559 176.846C128.487 176.788 128.419 176.734 128.347 176.684C128.585 176.252 128.822 175.816 129.06 175.384C131.73 170.496 134.444 165.638 137.194 160.794C137.82 162.548 137.737 164.611 136.787 166.485C136.697 166.665 136.597 166.834 136.496 167C137.947 168.144 139.292 169.401 140.516 170.756C140.664 170.634 140.811 170.514 140.97 170.402C141.402 170.1 141.859 169.79 142.334 169.502C145.264 167.715 148.946 166.61 152.516 171.36C154.701 174.266 150.868 179.517 147.769 181.69C147.606 181.802 147.441 181.905 147.272 182.003C147.927 183.774 148.445 185.608 148.823 187.484C149.01 187.452 149.193 187.42 149.384 187.405C150.396 187.315 151.36 187.47 152.228 187.823C152.261 187.834 152.289 187.845 152.322 187.859C154.499 188.788 156.029 190.985 156.083 193.675C156.158 197.461 153.283 200.792 149.658 201.116C149.474 201.131 149.291 201.134 149.111 201.134L149.115 201.137Z" fill="url(#paint20_linear_1055_10866)"/>
<path d="M153.078 201.504C156.703 201.183 159.579 197.851 159.499 194.067C159.424 190.278 156.425 187.472 152.804 187.797C152.642 187.808 152.484 187.833 152.326 187.861C152.296 187.865 152.272 187.872 152.243 187.876C152.239 187.858 152.235 187.843 152.232 187.826C151.854 185.968 151.339 184.152 150.692 182.391C150.861 182.293 151.027 182.193 151.189 182.081C154.288 179.91 155.278 175.62 153.402 172.501C153.147 172.079 152.852 171.698 152.52 171.362C151.12 169.925 149.126 169.313 147.153 169.645C146.203 169.803 145.26 170.185 144.389 170.793C144.231 170.902 144.083 171.024 143.932 171.147C143.457 170.621 142.96 170.105 142.449 169.613C142.413 169.573 142.374 169.537 142.337 169.504C141.567 168.762 140.761 168.056 139.915 167.39C140.016 167.224 140.116 167.055 140.206 166.876C141.877 163.587 140.89 159.694 138.022 157.954C137.996 157.936 137.968 157.918 137.939 157.904C137.835 157.843 137.727 157.782 137.618 157.727C134.443 156.114 130.452 157.594 128.706 161.033C128.616 161.214 128.54 161.393 128.465 161.574C127.385 161.271 126.295 161.026 125.2 160.839C124.488 160.717 123.775 160.615 123.062 160.543C123.073 160.352 123.084 160.158 123.08 159.967C123.019 156.992 121.165 154.568 118.617 153.848C118.243 153.736 117.855 153.606 117.455 153.574C117.398 153.57 117.339 153.566 117.282 153.566H117.264C117.159 153.566 117.055 153.617 116.951 153.617C116.764 153.617 116.573 153.649 116.382 153.667C112.761 153.987 109.885 157.333 109.961 161.118C109.964 161.317 109.979 161.518 110.001 161.708C108.183 162.227 106.398 162.893 104.663 163.697C104.58 163.527 104.494 163.362 104.396 163.199C104.195 162.864 103.967 162.558 103.716 162.278C103.713 162.274 103.709 162.27 103.705 162.267C102.298 160.682 100.214 159.994 98.1481 160.344C97.378 160.47 96.6116 160.744 95.8879 161.168C95.7186 161.266 95.5493 161.373 95.3836 161.489C92.2841 163.664 91.2947 167.95 93.1698 171.069C93.2672 171.228 93.371 171.379 93.4793 171.526C92.1085 172.898 90.8195 174.39 89.6316 175.989C89.4805 175.895 89.3221 175.801 89.1601 175.714C88.35 175.304 87.4897 175.095 86.6223 175.07C86.2044 175.051 85.7839 175.08 85.3661 175.152C83.2816 175.506 81.3309 176.888 80.2476 179.024C78.5017 182.464 79.6614 186.563 82.8355 188.177C83.0012 188.259 83.1705 188.328 83.3398 188.396C82.75 190.298 82.303 192.217 82.0045 194.137C81.8242 194.137 81.6413 194.141 81.4538 194.159C77.8327 194.48 74.9572 197.811 75.0327 201.6C75.0864 204.287 76.6093 206.48 78.7867 207.409C78.7903 207.409 78.7903 207.483 78.7939 207.483C78.8267 207.497 78.8549 207.589 78.8877 207.589H78.8913C79.7588 207.949 80.7164 208.026 81.7314 207.937C81.9189 207.923 82.1055 207.859 82.2894 207.822C82.6671 209.699 83.1896 211.515 83.8405 213.29C83.6748 213.388 83.5091 213.48 83.3471 213.592C80.2476 215.767 79.2545 219.973 81.1333 223.092C82.303 225.033 84.312 225.958 86.4102 225.958H86.4174C87.1593 225.958 87.9076 225.879 88.6385 225.598C88.6458 225.598 88.6567 225.595 88.664 225.591C89.1719 225.396 89.668 225.169 90.1432 224.839C90.3052 224.727 90.4527 224.623 90.6001 224.5C91.8245 225.854 93.1662 227.119 94.6208 228.264C94.5161 228.429 94.4196 228.61 94.3295 228.785C92.5836 232.225 93.7433 236.324 96.9174 237.937C97.0367 237.998 97.1623 238.056 97.2843 238.11C97.2879 238.11 97.2879 238.113 97.2915 238.113C100.397 239.435 104.149 237.937 105.825 234.63C105.858 234.566 105.89 234.501 105.919 234.435C105.973 234.32 106.024 234.205 106.07 234.089C107.852 234.587 109.655 234.932 111.469 235.119C111.458 235.314 111.451 235.505 111.454 235.7C111.508 238.39 113.038 240.508 115.223 241.437C115.267 241.455 115.313 241.473 115.356 241.491C115.864 241.689 116.404 241.804 116.968 241.804H116.979C117.36 242.164 117.753 241.926 118.152 241.891C118.375 241.869 118.595 241.841 118.815 241.797C121.964 241.188 124.37 238.325 124.532 234.983C124.54 234.835 124.505 234.684 124.505 234.529V233.928C125.585 233.651 126.437 233.344 127.381 232.988C127.384 232.988 127.391 232.896 127.395 232.896C127.406 232.892 127.424 233.161 127.439 232.8H127.442C128.26 232.8 129.069 232.24 129.872 231.87C129.955 232.039 130.041 232.256 130.139 232.418C130.837 233.577 131.831 234.432 132.968 234.907C133.569 235.167 134.209 235.329 134.868 235.379C136.305 235.487 137.812 235.104 139.148 234.168C139.972 233.591 140.646 232.867 141.153 232.053C142.424 230.039 142.694 227.494 141.75 225.341C141.638 225.085 141.509 224.837 141.361 224.592C141.268 224.433 141.16 224.282 141.055 224.135C141.085 224.106 141.116 224.074 141.142 224.045C142.33 222.852 143.449 221.567 144.496 220.202C144.633 220.029 144.767 219.849 144.9 219.672C145.054 219.77 145.209 219.864 145.375 219.947C145.5 220.011 145.623 220.069 145.752 220.12C148.858 221.441 152.606 219.947 154.283 216.637C156.029 213.197 154.869 209.102 151.695 207.488C151.529 207.402 151.363 207.333 151.194 207.265C151.785 205.363 152.227 203.444 152.526 201.524C152.71 201.524 152.893 201.52 153.077 201.502L153.078 201.504ZM111.531 222.419C111.516 222.419 111.498 222.415 111.484 222.411C111.48 222.411 111.476 222.411 111.473 222.408C109.533 222.03 107.625 221.385 105.789 220.449C94.2603 214.592 90.0522 199.718 96.3913 187.227C99.1339 181.821 103.403 177.747 108.298 175.341C111.843 173.594 115.72 172.726 119.581 172.86C122.705 172.965 125.819 173.728 128.741 175.215C128.85 175.269 128.957 175.327 129.062 175.385C140.349 181.349 144.421 196.062 138.139 208.437C134.19 216.217 127.082 221.241 119.494 222.505C116.859 222.944 114.167 222.93 111.528 222.419H111.531Z" fill="url(#paint21_linear_1055_10866)"/>
<g style="mix-blend-mode:soft-light" opacity="0.3">
<path d="M141.155 232.058C140.647 232.872 139.974 233.599 139.15 234.175C137.815 235.112 136.307 235.501 134.87 235.392C133.625 235.475 132.286 235.32 131.048 234.957C129.663 234.762 128.37 234.093 127.405 232.998C126.458 233.357 125.505 233.671 124.537 233.949C124.555 234.139 124.573 234.334 124.576 234.532C124.58 234.686 124.576 234.838 124.569 234.985C124.425 238.345 121.977 241.191 118.817 241.799C118.597 241.843 118.378 241.871 118.154 241.893C117.755 241.928 117.362 242.166 116.981 241.806H116.97C115.167 241.908 113.684 241.745 112.485 241.371C112.449 241.364 112.413 241.353 112.38 241.338C112.266 241.302 112.154 241.263 112.045 241.223C111.966 241.193 111.891 241.165 111.819 241.132C109.518 240.189 108.417 238.388 108.122 236.281C108.115 236.231 108.107 236.184 108.104 236.134C108.082 235.946 108.019 235.759 108.008 235.568C108.001 235.471 107.949 235.402 107.949 235.312V234.718C107.59 234.672 107.118 234.624 106.678 234.556C106.57 234.542 106.485 234.531 106.378 234.513C106.249 234.495 106.132 234.474 106.007 234.452C105.992 234.449 105.981 234.445 105.963 234.445C105.945 234.445 105.93 234.441 105.916 234.438C105.887 234.502 105.856 234.567 105.824 234.633C104.146 237.939 100.397 239.437 97.2907 238.116C96.02 238.332 94.7028 238.166 93.5013 237.554C92.9578 237.277 92.4718 236.927 92.0549 236.52C91.7344 236.214 91.4577 235.879 91.2165 235.515C90.8096 234.914 90.511 234.244 90.3272 233.531C90.075 232.561 90.0286 231.521 90.2116 230.484C90.3372 229.782 90.5711 229.079 90.9134 228.402C91.0035 228.225 91.1045 228.055 91.2047 227.887L91.1974 227.88C90.866 227.62 90.542 227.343 90.2216 227.058C90.1961 227.036 90.1715 227.015 90.146 226.99C89.6354 226.533 89.142 226.057 88.6632 225.593C88.6559 225.596 88.645 225.6 88.6377 225.6C87.9067 225.88 87.1585 225.96 86.4166 225.96H86.4094C83.217 226.68 79.1709 225.113 77.7163 222.701C76.9207 221.379 76.6403 219.855 76.8206 218.375C77.0582 216.355 78.145 214.413 79.9301 213.16C80.0921 213.048 80.2541 212.965 80.4198 212.872C80.4198 212.868 80.4234 212.868 80.4234 212.868C79.7789 211.11 79.2683 209.381 78.8896 207.527C78.886 207.523 78.886 207.592 78.886 207.592H78.8823C78.8532 207.592 78.8286 207.592 78.7995 207.581C78.7959 207.581 78.7959 207.592 78.7922 207.592H78.7849C78.6302 207.592 78.4682 207.555 78.3134 207.57C76.4055 207.739 74.6742 206.999 73.4471 205.749C72.342 204.625 71.6511 203.029 71.6147 201.236C71.5392 197.447 74.4147 194.108 78.0394 193.783C78.2233 193.765 78.4063 193.756 78.5865 193.756C78.8851 191.836 79.3311 189.918 79.9219 188.012C79.7526 187.944 79.5832 187.874 79.4212 187.791C76.2426 186.178 75.0838 182.078 76.8297 178.639C78.5073 175.332 82.2576 173.834 85.3635 175.156C85.7813 175.084 86.2018 175.055 86.6196 175.073C87.6919 173.672 88.8443 172.357 90.0604 171.14C89.9521 170.992 89.8484 170.841 89.751 170.683C87.8758 167.567 88.8653 163.277 91.9647 161.106C92.6957 160.591 93.484 160.242 94.2796 160.05C94.7975 160.4 95.3336 160.774 95.8853 161.171C100.021 164.171 104.866 168.511 107.587 173.812C107.839 174.313 108.08 174.824 108.296 175.343C103.4 177.749 99.1322 181.823 96.3896 187.229C90.0513 199.719 94.2586 214.594 105.787 220.451C107.623 221.387 109.53 222.032 111.471 222.41C111.496 222.414 111.517 222.414 111.539 222.414C113.281 222.475 115.009 222.334 116.719 222.003C116.96 221.956 117.197 221.905 117.439 221.852C117.673 221.802 117.907 221.743 118.137 221.686C118.572 221.974 119.026 222.252 119.494 222.508C124.054 225.029 130.162 226.026 138.189 224.647C138.193 224.647 138.196 224.647 138.2 224.643C139.154 224.481 140.133 224.284 141.141 224.05C141.156 224.05 141.167 224.046 141.181 224.042C141.412 224.478 141.603 224.914 141.75 225.346C142.535 227.647 142.179 229.92 141.153 232.06L141.155 232.058Z" fill="white"/>
</g>
<path d="M26.083 256.049C25.9956 256.022 25.8199 255.968 25.5978 255.995C25.3175 256.03 25.1236 256.176 25.0125 256.26C24.9078 256.341 24.0467 257.021 24.0567 257.954C24.0649 258.7 24.6211 258.746 25.1736 259.99C25.6233 261.002 25.3657 261.221 25.7753 261.743C26.4589 262.614 27.9591 263 28.6053 262.426C28.9066 262.158 28.9467 261.749 28.9576 261.64C29.0568 260.624 27.9991 260.334 27.7679 259.191C27.5349 258.046 28.4324 257.514 28.0018 256.863C27.8271 256.599 27.2454 256.416 26.083 256.049Z" fill="url(#paint22_linear_1055_10866)"/>
<path d="M26.9211 254.294C25.9625 255.177 25.5456 256.158 25.846 256.66C25.958 256.847 26.1655 256.96 26.2575 257.011C26.9001 257.364 27.5846 257.106 27.7148 257.054L28.95 255.318L26.9211 254.294Z" fill="url(#paint23_linear_1055_10866)"/>
<path d="M2.57027 261.022C2.26169 260.914 1.92307 260.981 1.6782 261.199C1.29953 261.535 0.75155 262.061 0.459353 262.517C-0.0139871 263.256 1.78835 263.61 3.65349 263.999C5.51863 264.388 7.82708 265 7.75881 264.436C7.68963 263.873 7.15439 263.017 5.35205 262.101C4.87416 261.857 3.36038 261.3 2.57027 261.022Z" fill="url(#paint24_linear_1055_10866)"/>
<path d="M2.75666 258.958L1.97656 261.432C1.97656 261.432 2.39984 262.236 3.52584 261.762L4.8248 259.603L2.75666 258.959V258.958Z" fill="url(#paint25_linear_1055_10866)"/>
<path d="M72.3346 152.643C72.3355 152.65 68.648 157.959 65.1152 158.999L74.4291 160.515C74.4291 160.515 73.2139 160.104 73.2139 158.397C73.2139 157.332 74.0422 154.774 74.0422 154.774L72.3346 152.644V152.643Z" fill="url(#paint26_linear_1055_10866)"/>
<path d="M52.3492 207.02C53.295 210.689 54.532 216.08 55.4905 222.716C57.1545 234.228 56.135 236.701 55.5979 237.781C53.6026 241.793 50.2993 242.568 41.9748 247.541C36.0353 251.09 31.5022 254.408 28.6758 256.591C28.2562 256.523 27.6062 256.367 26.908 255.965C26.2854 255.607 25.8567 255.187 25.5918 254.883C26.3546 251.182 27.7719 248.727 28.876 247.208C30.1841 245.409 31.3447 244.522 36.9884 240.021C40.9963 236.826 43.0016 235.225 43.1063 235.031C46.5362 228.657 35.4719 220.197 37.986 213.569C38.9273 211.087 42.044 208.143 52.3492 207.018V207.02Z" fill="url(#paint27_linear_1055_10866)"/>
<path style="mix-blend-mode:multiply" opacity="0.3" d="M28.8761 247.209C30.1841 245.411 31.3447 244.523 36.9884 240.023C40.9963 236.828 43.0016 235.226 43.1063 235.032C46.5362 228.658 35.4719 220.198 37.986 213.57C38.9273 211.088 42.044 208.144 52.3492 207.02C52.8289 208.879 53.3832 211.186 53.9376 213.868C50.1527 215.816 48.983 217.754 48.7582 219.329C48.2229 223.079 52.8817 225.694 51.7502 228.911C50.8327 231.52 47.269 231.206 46.5635 233.901C45.879 236.514 48.9166 238.005 48.3586 240.089C47.4474 243.495 38.7816 241.6 34.1948 246.078C32.7192 247.519 31.2619 250.024 31.1554 254.723C30.2223 255.408 29.3931 256.036 28.6758 256.591C28.2562 256.524 27.6062 256.368 26.908 255.965C26.2854 255.607 25.8567 255.188 25.5918 254.883C26.3546 251.183 27.7719 248.728 28.8761 247.209V247.209Z" fill="url(#paint28_linear_1055_10866)"/>
<path d="M54.2444 208.352C51.1713 210.459 46.8931 213.511 41.9758 217.435C34.8957 223.083 27.2813 229.159 19.6723 238.263C15.5434 243.204 10.1564 250.542 5.24093 260.512C4.89412 260.585 4.23963 260.674 3.46226 260.473C2.53106 260.233 1.93574 259.711 1.67813 259.455C0.78607 252.109 2.09504 246.952 3.37397 243.686C6.21947 236.417 9.49917 237.014 15.1438 226.419C16.673 223.548 18.4043 219.803 22.0864 213.326C23.4946 210.85 24.5669 209.066 26.3155 207.056C29.1055 203.849 32.0793 201.831 34.2139 200.613C40.8907 203.193 47.5676 205.774 54.2444 208.353V208.352Z" fill="url(#paint29_linear_1055_10866)"/>
<path d="M75.5371 150.767C75.8311 149.8 75.1393 148.347 74.0015 147.926C73.1568 147.613 72.3657 147.981 71.7886 148.249C71.5219 148.373 69.6531 149.268 69.5576 150.84C69.5275 151.339 69.736 151.939 70.0618 152.363C70.2293 152.582 70.5042 152.834 71.0859 153.298C71.602 153.71 71.5729 153.699 71.7285 153.817C72.1027 154.1 72.799 154.558 73.9496 154.984C73.9223 154.703 73.9068 154.35 73.9378 153.95C73.9496 153.796 74.0024 153.192 74.2072 152.636C74.6214 151.506 75.3068 151.522 75.5362 150.767H75.5371Z" fill="url(#paint30_linear_1055_10866)"/>
<path d="M72.5402 154.649C72.5402 154.649 73.9493 155.808 75.6942 155.071C77.2563 154.41 76.2431 150.741 74.9578 150.335C74.5291 150.199 73.81 150.332 73.3093 150.68C73.0135 150.886 72.9498 151.061 72.4601 151.388C72.0086 151.69 71.8493 151.683 71.7428 151.862C71.6099 152.085 71.6071 152.519 72.2853 153.459C71.8729 153.256 71.4651 153.265 71.2485 153.478C71.2139 153.512 71.1302 153.625 71.1074 153.76C71.0264 154.247 71.5826 154.641 72.5393 154.648L72.5402 154.649Z" fill="url(#paint31_linear_1055_10866)"/>
<path d="M111.062 156.579L113.254 154.326C113.254 154.326 115.987 152.99 117.982 153.989C119.978 154.987 118.235 154.848 117.211 154.984C116.187 155.12 114.647 156.043 113.655 156.579C112.663 157.116 111.599 157.831 111.599 157.831L111.062 156.579Z" fill="url(#paint32_linear_1055_10866)"/>
<path d="M110.866 155.319C111.575 156.206 112.284 157.094 112.994 157.981C111.052 164.606 107.936 168.248 105.414 170.357C97.3506 177.099 88.9816 173.505 78.2768 181.635C74.9734 184.144 72.8916 186.673 71.1585 188.778C63.3438 198.269 63.8335 204.413 57.103 208.275C53.3964 210.401 49.8299 210.5 47.496 210.564C40.8383 210.749 31.7738 208.165 30.3493 202.842C30.078 201.83 30.1572 200.991 30.2054 200.565C31.5099 189.056 45.1257 173.272 50.6201 167.096C54.4523 162.789 57.7557 159.308 62.8559 158.446C64.9923 158.085 66.7182 158.316 70.1708 158.779C76.449 159.619 78.407 161.027 83.9186 162.187C87.6371 162.969 91.7907 163.844 96.393 163.146C99.1083 162.734 104.839 161.344 110.868 155.318L110.866 155.319Z" fill="url(#paint33_linear_1055_10866)"/>
<path style="mix-blend-mode:multiply" opacity="0.3" d="M44.5684 204.159C46.6538 199.757 44.2999 196.456 46.9624 193.18C50.1802 189.22 54.9691 192.383 59.7299 188.588C65.2579 184.181 62.9868 176.58 67.7093 174.814C70.6768 173.705 72.0185 176.54 76.487 175.813C81.3206 175.026 81.4161 171.438 86.2624 169.824C91.5283 168.071 93.9979 171.449 101.025 171.022C102.425 170.936 103.942 170.691 105.549 170.239C105.505 170.278 105.458 170.318 105.414 170.356C97.3513 177.098 88.9823 173.504 78.2775 181.634C74.9742 184.142 72.8924 186.672 71.1592 188.777C63.3445 198.268 63.8343 204.411 57.1037 208.273C53.3971 210.4 49.8307 210.498 47.4967 210.563C44.9034 210.635 41.9486 210.282 39.2188 209.515C42.1744 207.851 43.73 205.93 44.5693 204.157L44.5684 204.159Z" fill="url(#paint34_linear_1055_10866)"/>
</g>
<defs>
<linearGradient id="paint0_linear_1055_10866" x1="406.182" y1="181.061" x2="84.0106" y2="96.8895" gradientUnits="userSpaceOnUse">
<stop offset="0.1" stop-color="#311944"/>
<stop offset="0.27" stop-color="#361A47"/>
<stop offset="0.48" stop-color="#46204F"/>
<stop offset="0.51" stop-color="#4A2252"/>
<stop offset="0.68" stop-color="#5C285C"/>
<stop offset="1" stop-color="#893976"/>
</linearGradient>
<linearGradient id="paint1_linear_1055_10866" x1="390.605" y1="176.739" x2="68.4246" y2="92.5647" gradientUnits="userSpaceOnUse">
<stop offset="0.1" stop-color="#311944"/>
<stop offset="0.27" stop-color="#361B47"/>
<stop offset="0.48" stop-color="#462050"/>
<stop offset="0.72" stop-color="#602A5F"/>
<stop offset="0.97" stop-color="#843773"/>
<stop offset="1" stop-color="#893976"/>
</linearGradient>
<linearGradient id="paint2_linear_1055_10866" x1="141.397" y1="46.2978" x2="23.4246" y2="163.772" gradientUnits="userSpaceOnUse">
<stop offset="0.163" stop-color="#6533E2"/>
<stop offset="0.334" stop-color="#7349DE"/>
<stop offset="0.715" stop-color="#1F97EF"/>
<stop offset="1" stop-color="#57A1D7"/>
</linearGradient>
<linearGradient id="paint3_linear_1055_10866" x1="504.775" y1="155.773" x2="164.18" y2="82.6705" gradientUnits="userSpaceOnUse">
<stop offset="0.1" stop-color="#311944"/>
<stop offset="0.27" stop-color="#361B47"/>
<stop offset="0.48" stop-color="#462050"/>
<stop offset="0.72" stop-color="#602A5F"/>
<stop offset="0.97" stop-color="#843773"/>
<stop offset="1" stop-color="#893976"/>
</linearGradient>
<linearGradient id="paint4_linear_1055_10866" x1="504.858" y1="155.361" x2="164.271" y2="82.261" gradientUnits="userSpaceOnUse">
<stop offset="0.1" stop-color="#311944"/>
<stop offset="0.27" stop-color="#361B47"/>
<stop offset="0.48" stop-color="#462050"/>
<stop offset="0.72" stop-color="#602A5F"/>
<stop offset="0.97" stop-color="#843773"/>
<stop offset="1" stop-color="#893976"/>
</linearGradient>
<linearGradient id="paint5_linear_1055_10866" x1="287.68" y1="-1.83356" x2="80.8349" y2="203.451" gradientUnits="userSpaceOnUse">
<stop offset="0.163" stop-color="#6533E2"/>
<stop offset="0.334" stop-color="#7349DE"/>
<stop offset="0.715" stop-color="#1F97EF"/>
<stop offset="1" stop-color="#57A1D7"/>
</linearGradient>
<linearGradient id="paint6_linear_1055_10866" x1="248.917" y1="126.483" x2="250.694" y2="151.085" gradientUnits="userSpaceOnUse">
<stop stop-color="#FFC444"/>
<stop offset="1" stop-color="#F36F56"/>
</linearGradient>
<linearGradient id="paint7_linear_1055_10866" x1="162.027" y1="132.712" x2="163.842" y2="157.833" gradientUnits="userSpaceOnUse">
<stop stop-color="#FFC444"/>
<stop offset="1" stop-color="#F36F56"/>
</linearGradient>
<linearGradient id="paint8_linear_1055_10866" x1="224.869" y1="248.516" x2="229.094" y2="264.62" gradientUnits="userSpaceOnUse">
<stop stop-color="#FFC444"/>
<stop offset="1" stop-color="#F36F56"/>
</linearGradient>
<linearGradient id="paint9_linear_1055_10866" x1="217.938" y1="250.389" x2="222.132" y2="266.376" gradientUnits="userSpaceOnUse">
<stop stop-color="#FFC444"/>
<stop offset="1" stop-color="#F36F56"/>
</linearGradient>
<linearGradient id="paint10_linear_1055_10866" x1="240.009" y1="241.432" x2="217.063" y2="211.751" gradientUnits="userSpaceOnUse">
<stop stop-color="#444B8C"/>
<stop offset="1" stop-color="#3E4177"/>
</linearGradient>
<linearGradient id="paint11_linear_1055_10866" x1="240.009" y1="241.431" x2="217.063" y2="211.75" gradientUnits="userSpaceOnUse">
<stop stop-color="#444B8C"/>
<stop offset="1" stop-color="#3E4177"/>
</linearGradient>
<linearGradient id="paint12_linear_1055_10866" x1="209.872" y1="223.347" x2="173.675" y2="214.035" gradientUnits="userSpaceOnUse">
<stop stop-color="#444B8C"/>
<stop offset="1" stop-color="#3E4177"/>
</linearGradient>
<linearGradient id="paint13_linear_1055_10866" x1="200.014" y1="108.66" x2="217.178" y2="194.07" gradientUnits="userSpaceOnUse">
<stop stop-color="#FF9085"/>
<stop offset="1" stop-color="#FB6FBB"/>
</linearGradient>
<linearGradient id="paint14_linear_1055_10866" x1="208.257" y1="141.722" x2="211.56" y2="154.172" gradientUnits="userSpaceOnUse">
<stop stop-color="#FFC444"/>
<stop offset="1" stop-color="#F36F56"/>
</linearGradient>
<linearGradient id="paint15_linear_1055_10866" x1="249.96" y1="296.554" x2="253.263" y2="309.004" gradientUnits="userSpaceOnUse">
<stop stop-color="#FFC444"/>
<stop offset="1" stop-color="#F36F56"/>
</linearGradient>
<linearGradient id="paint16_linear_1055_10866" x1="333.901" y1="376.271" x2="343.371" y2="394.118" gradientUnits="userSpaceOnUse">
<stop stop-color="#FFC444"/>
<stop offset="1" stop-color="#F36F56"/>
</linearGradient>
<linearGradient id="paint17_linear_1055_10866" x1="183.629" y1="111.952" x2="200.792" y2="197.363" gradientUnits="userSpaceOnUse">
<stop stop-color="#FF9085"/>
<stop offset="1" stop-color="#FB6FBB"/>
</linearGradient>
<linearGradient id="paint18_linear_1055_10866" x1="108.833" y1="186.946" x2="77.8101" y2="177.272" gradientUnits="userSpaceOnUse">
<stop stop-color="#FFC444"/>
<stop offset="1" stop-color="#F36F56"/>
</linearGradient>
<linearGradient id="paint19_linear_1055_10866" x1="278.55" y1="330.874" x2="119.375" y2="200.95" gradientUnits="userSpaceOnUse">
<stop offset="0.1" stop-color="#311944"/>
<stop offset="0.27" stop-color="#361B47"/>
<stop offset="0.48" stop-color="#462050"/>
<stop offset="0.72" stop-color="#602A5F"/>
<stop offset="0.97" stop-color="#843773"/>
<stop offset="1" stop-color="#893976"/>
</linearGradient>
<linearGradient id="paint20_linear_1055_10866" x1="281.012" y1="327.853" x2="121.84" y2="197.931" gradientUnits="userSpaceOnUse">
<stop offset="0.1" stop-color="#311944"/>
<stop offset="0.27" stop-color="#361B47"/>
<stop offset="0.48" stop-color="#462050"/>
<stop offset="0.72" stop-color="#602A5F"/>
<stop offset="0.97" stop-color="#843773"/>
<stop offset="1" stop-color="#893976"/>
</linearGradient>
<linearGradient id="paint21_linear_1055_10866" x1="175.212" y1="132.519" x2="29.728" y2="278.755" gradientUnits="userSpaceOnUse">
<stop offset="0.163" stop-color="#6533E2"/>
<stop offset="0.334" stop-color="#7349DE"/>
<stop offset="0.715" stop-color="#1F97EF"/>
<stop offset="1" stop-color="#57A1D7"/>
</linearGradient>
<linearGradient id="paint22_linear_1055_10866" x1="31.8077" y1="288.787" x2="26.2957" y2="258.589" gradientUnits="userSpaceOnUse">
<stop stop-color="#311944"/>
<stop offset="1" stop-color="#893976"/>
</linearGradient>
<linearGradient id="paint23_linear_1055_10866" x1="26.3631" y1="265.348" x2="25.0269" y2="278.298" gradientUnits="userSpaceOnUse">
<stop stop-color="#FFC444"/>
<stop offset="1" stop-color="#F36F56"/>
</linearGradient>
<linearGradient id="paint24_linear_1055_10866" x1="7.43384" y1="282.05" x2="3.83938" y2="262.355" gradientUnits="userSpaceOnUse">
<stop stop-color="#311944"/>
<stop offset="1" stop-color="#893976"/>
</linearGradient>
<linearGradient id="paint25_linear_1055_10866" x1="3.10803" y1="263.355" x2="1.77556" y2="276.263" gradientUnits="userSpaceOnUse">
<stop stop-color="#FFC444"/>
<stop offset="1" stop-color="#F36F56"/>
</linearGradient>
<linearGradient id="paint26_linear_1055_10866" x1="67.025" y1="166.738" x2="72.2173" y2="153.56" gradientUnits="userSpaceOnUse">
<stop stop-color="#FFC444"/>
<stop offset="1" stop-color="#F36F56"/>
</linearGradient>
<linearGradient id="paint27_linear_1055_10866" x1="55.9238" y1="251.481" x2="0.823306" y2="184.843" gradientUnits="userSpaceOnUse">
<stop stop-color="#444B8C"/>
<stop offset="1" stop-color="#26264F"/>
</linearGradient>
<linearGradient id="paint28_linear_1055_10866" x1="55.9247" y1="251.481" x2="0.824219" y2="184.843" gradientUnits="userSpaceOnUse">
<stop stop-color="#444B8C"/>
<stop offset="1" stop-color="#26264F"/>
</linearGradient>
<linearGradient id="paint29_linear_1055_10866" x1="28.1033" y1="234.095" x2="1.34973" y2="197.981" gradientUnits="userSpaceOnUse">
<stop stop-color="#444B8C"/>
<stop offset="1" stop-color="#26264F"/>
</linearGradient>
<linearGradient id="paint30_linear_1055_10866" x1="72.2231" y1="160.356" x2="72.6553" y2="148.53" gradientUnits="userSpaceOnUse">
<stop stop-color="#311944"/>
<stop offset="1" stop-color="#893976"/>
</linearGradient>
<linearGradient id="paint31_linear_1055_10866" x1="81.3244" y1="154.631" x2="68.3662" y2="151.187" gradientUnits="userSpaceOnUse">
<stop stop-color="#FFC444"/>
<stop offset="1" stop-color="#F36F56"/>
</linearGradient>
<linearGradient id="paint32_linear_1055_10866" x1="128.162" y1="145.372" x2="104.412" y2="163.323" gradientUnits="userSpaceOnUse">
<stop stop-color="#FFC444"/>
<stop offset="0.81" stop-color="#F57F53"/>
<stop offset="1" stop-color="#F36F56"/>
</linearGradient>
<linearGradient id="paint33_linear_1055_10866" x1="73.8119" y1="169.596" x2="60.4971" y2="226.017" gradientUnits="userSpaceOnUse">
<stop stop-color="#FFC444"/>
<stop offset="1" stop-color="#F36F56"/>
</linearGradient>
<linearGradient id="paint34_linear_1055_10866" x1="76.9868" y1="170.346" x2="63.671" y2="226.767" gradientUnits="userSpaceOnUse">
<stop stop-color="#FFC444"/>
<stop offset="1" stop-color="#F36F56"/>
</linearGradient>
<clipPath id="clip0_1055_10866">
<rect width="265.244" height="263.822" fill="white" transform="translate(0.376953 0.84375)"/>
</clipPath>
</defs>
</svg>
