<svg width="15" height="14" viewBox="0 0 15 14" fill="none" xmlns="http://www.w3.org/2000/svg">
<path d="M7.9006 0.545208C8.38253 0.085198 9.17185 0.43328 9.17185 1.10608V12.4034C9.17185 13.0762 8.38313 13.4243 7.9006 12.9642L4.91906 10.1193C4.72328 9.93251 4.46506 9.82852 4.19677 9.82843H2.37777C1.85722 9.82843 1.35799 9.61785 0.98991 9.24302C0.621826 8.86819 0.415039 8.35981 0.415039 7.82972V5.68219C0.415039 5.1521 0.621826 4.64372 0.98991 4.26889C1.35799 3.89406 1.85722 3.68348 2.37777 3.68348H4.19617C4.46491 3.68348 4.72339 3.57894 4.91906 3.39259L7.9006 0.545208ZM12.2784 1.33362C12.3686 1.25294 12.4866 1.21202 12.6064 1.21986C12.7262 1.2277 12.838 1.28366 12.9173 1.37544C14.2034 2.86134 14.9117 4.77469 14.9091 6.75534C14.9091 8.81677 14.1566 10.6999 12.9173 12.1346C12.8787 12.1822 12.8311 12.2214 12.7773 12.2498C12.7235 12.2783 12.6646 12.2955 12.6042 12.3004C12.5438 12.3053 12.483 12.2978 12.4255 12.2783C12.3679 12.2588 12.3148 12.2278 12.2693 12.187C12.2238 12.1462 12.1867 12.0966 12.1604 12.041C12.1341 11.9854 12.119 11.9249 12.116 11.8633C12.113 11.8016 12.1222 11.74 12.1431 11.682C12.1639 11.624 12.196 11.5709 12.2373 11.5258C13.3779 10.2083 14.0059 8.51164 14.0032 6.75534C14.006 4.99902 13.378 3.30228 12.2373 1.98489C12.198 1.9394 12.1679 1.88645 12.1487 1.82909C12.1294 1.77173 12.1215 1.71107 12.1253 1.65059C12.1291 1.5901 12.1446 1.53098 12.1709 1.47659C12.1972 1.4222 12.2337 1.37362 12.2784 1.33362ZM11.4987 3.25176C11.4267 3.1539 11.3194 3.0892 11.2004 3.0719C11.0815 3.0546 10.9607 3.08612 10.8646 3.15951C10.7685 3.23291 10.705 3.34218 10.688 3.46328C10.671 3.58438 10.702 3.70739 10.774 3.80525C11.4017 4.6558 11.7403 5.69139 11.7385 6.75534C11.7385 7.86232 11.3798 8.88319 10.774 9.70543C10.7384 9.75389 10.7124 9.80903 10.6976 9.8677C10.6829 9.92638 10.6796 9.98744 10.688 10.0474C10.6964 10.1074 10.7163 10.1651 10.7467 10.2172C10.777 10.2693 10.817 10.3148 10.8646 10.3512C10.9122 10.3875 10.9664 10.4139 11.024 10.429C11.0816 10.444 11.1416 10.4473 11.2004 10.4388C11.2593 10.4302 11.316 10.4099 11.3672 10.3791C11.4183 10.3482 11.4631 10.3074 11.4987 10.2589C12.2441 9.24872 12.6462 8.01889 12.6444 6.75534C12.6463 5.49178 12.2441 4.26194 11.4987 3.25176Z" fill="white"/>
</svg>
