<svg width="16" height="15" viewBox="0 0 16 15" fill="none" xmlns="http://www.w3.org/2000/svg">
<path d="M14.1468 6.80532C14.2983 6.69329 14.4107 6.53701 14.4682 6.35838C14.5257 6.17976 14.5254 5.98775 14.4674 5.80927C14.4095 5.6308 14.2967 5.47482 14.1449 5.3632C13.9931 5.25157 13.8099 5.18991 13.621 5.18685L9.95255 5.04928C9.93451 5.04804 9.91722 5.04165 9.90276 5.03088C9.8883 5.02012 9.87728 5.00542 9.87103 4.98858L8.60338 1.58979C8.53968 1.41687 8.424 1.26756 8.27199 1.16207C8.11999 1.05658 7.93899 1 7.75352 1C7.56805 1 7.38705 1.05658 7.23504 1.16207C7.08303 1.26756 6.96735 1.41687 6.90366 1.58979L5.64008 5.00072C5.63384 5.01756 5.62282 5.03225 5.60835 5.04302C5.59389 5.05379 5.5766 5.06018 5.55856 5.06141L1.89011 5.19898C1.70123 5.20205 1.51805 5.26371 1.36625 5.37534C1.21446 5.48696 1.10166 5.64294 1.04368 5.82141C0.985696 5.99988 0.985436 6.19189 1.04293 6.37052C1.10043 6.54914 1.21281 6.70543 1.3643 6.81746L4.24199 9.06309C4.2564 9.07434 4.26716 9.08953 4.27296 9.10679C4.27875 9.12405 4.27932 9.14262 4.2746 9.16019L3.28412 12.644C3.23279 12.8214 3.23777 13.0101 3.29836 13.1846C3.35896 13.3591 3.47223 13.5109 3.62278 13.6192C3.77333 13.7275 3.95383 13.7872 4.13975 13.7901C4.32566 13.7929 4.50795 13.7389 4.66183 13.6353L7.70257 11.6122C7.71755 11.6019 7.73532 11.5964 7.75352 11.5964C7.77172 11.5964 7.78949 11.6019 7.80447 11.6122L10.8452 13.6353C10.997 13.7424 11.1786 13.8 11.3649 13.8C11.5512 13.8 11.7328 13.7424 11.8846 13.6353C12.0352 13.528 12.1486 13.377 12.2092 13.2031C12.2697 13.0292 12.2745 12.8409 12.2229 12.6642L11.2243 9.16829C11.219 9.15074 11.2193 9.13199 11.2251 9.11461C11.231 9.09723 11.2421 9.08207 11.2569 9.07118L14.1468 6.80532Z" fill="white" stroke="#614B98" stroke-width="1.06667"/>
</svg>
