<svg width="408" height="281" viewBox="0 0 408 281" fill="none" xmlns="http://www.w3.org/2000/svg">
<g clip-path="url(#clip0_101_2292)">
<path d="M388.139 116.941C387.62 116.38 387.094 115.828 386.55 115.284C354.106 82.565 302.414 100.772 265.282 78.2485C250.93 69.5379 240.921 55.3799 229.065 43.4924C176 -9.695 72.7194 -19.9768 25.8547 46.2808C3.54931 77.8082 -2.91002 118.495 1.13138 156.894C6.15723 204.634 41.3899 247.514 88.2374 260.697C103.747 265.056 133.772 270.167 133.772 270.167H365.911C365.911 270.167 375.056 259.005 376.817 256.277C392.163 232.545 404.693 210.393 407.525 182.275C409.822 159.476 403.985 134.121 388.147 116.933L388.139 116.941Z" fill="#EAE2FF"/>
<path d="M291.11 57.9531H245.1C238.658 57.9531 233.434 63.176 233.434 69.6162V89.2129C233.434 95.6531 238.658 100.876 245.1 100.876H272.224L285.16 113.808V100.876H291.11C297.552 100.876 302.777 95.6531 302.777 89.2129V69.6162C302.777 63.176 297.552 57.9531 291.11 57.9531Z" fill="white"/>
<path d="M285.169 114.421C285.014 114.421 284.85 114.36 284.737 114.239L271.983 101.489H245.109C238.339 101.489 232.829 95.9808 232.829 89.2126V69.6159C232.829 62.8476 238.339 57.3398 245.109 57.3398H291.119C297.889 57.3398 303.399 62.8476 303.399 69.6159V89.2126C303.399 95.9808 297.889 101.489 291.119 101.489H285.782V113.808C285.782 114.058 285.635 114.283 285.402 114.369C285.324 114.403 285.247 114.412 285.169 114.412V114.421ZM245.109 58.5657C239.012 58.5657 234.056 63.521 234.056 69.6159V89.2126C234.056 95.3074 239.012 100.263 245.109 100.263H272.233C272.397 100.263 272.553 100.323 272.665 100.444L284.556 112.332V100.876C284.556 100.539 284.832 100.263 285.169 100.263H291.119C297.216 100.263 302.172 95.3074 302.172 89.2126V69.6159C302.172 63.521 297.216 58.5657 291.119 58.5657H245.109Z" fill="#231F20"/>
<path d="M289.996 69.4778H246.214C245.878 69.4778 245.601 69.2016 245.601 68.8649C245.601 68.5282 245.878 68.252 246.214 68.252H289.996C290.333 68.252 290.609 68.5282 290.609 68.8649C290.609 69.2016 290.333 69.4778 289.996 69.4778Z" fill="#231F20"/>
<path d="M289.996 79.1731H246.214C245.878 79.1731 245.601 78.8969 245.601 78.5602C245.601 78.2235 245.878 77.9473 246.214 77.9473H289.996C290.333 77.9473 290.609 78.2235 290.609 78.5602C290.609 78.8969 290.333 79.1731 289.996 79.1731Z" fill="#231F20"/>
<path d="M277.553 88.8665H246.214C245.878 88.8665 245.601 88.5902 245.601 88.2536C245.601 87.9169 245.878 87.6406 246.214 87.6406H277.553C277.889 87.6406 278.166 87.9169 278.166 88.2536C278.166 88.5902 277.889 88.8665 277.553 88.8665Z" fill="#231F20"/>
<path d="M55.1115 50.1747H148.651C152.736 50.1747 156.052 53.4897 156.052 57.5731V116.182C156.052 120.265 152.736 123.58 148.651 123.58H55.1115C51.027 123.58 47.7109 120.265 47.7109 116.182V57.5644C47.7109 53.4811 51.027 50.166 55.1115 50.166V50.1747Z" fill="#E8DFFF"/>
<path d="M148.642 124.184H55.1115C50.6988 124.184 47.0978 120.593 47.0978 116.173V57.5641C47.0978 53.1527 50.6901 49.5527 55.1115 49.5527H148.651C153.064 49.5527 156.665 53.144 156.665 57.5641V116.173C156.665 120.584 153.072 124.184 148.651 124.184H148.642ZM55.1115 50.7872C51.3723 50.7872 48.324 53.8347 48.324 57.5727V116.182C48.324 119.92 51.3723 122.967 55.1115 122.967H148.651C152.39 122.967 155.438 119.92 155.438 116.182V57.5641C155.438 53.826 152.39 50.7786 148.651 50.7786H55.1115V50.7872Z" fill="#231F20"/>
<path d="M96.9417 66.8115C95.0246 56.7714 79.5585 58.1959 79.5844 68.4431C79.5844 71.3179 81.2597 73.9941 83.6258 75.6085C83.7985 77.5595 84.2475 80.0285 83.9885 82.4112C79.5412 85.027 87.0454 91.1132 90.0506 94.7217C91.2509 90.6643 94.4978 85.6313 95.1455 81.1076C94.0402 79.1652 93.332 77.3092 92.9262 75.7639C95.7845 73.8387 97.598 70.2388 96.9417 66.8202V66.8115Z" fill="#F8A99C"/>
<path d="M184.22 42.5086C177.252 48.9143 170.11 55.1386 162.796 61.1471C162.295 62.7873 167.606 69.098 168.901 70.4447C168.901 70.4447 179.013 65.006 180.084 64.5916C183.4 63.314 189.738 61.8291 192.899 60.1111C193.132 59.9817 184.091 42.6209 184.229 42.5L184.22 42.5086Z" fill="#F8A99C"/>
<path d="M213.771 17.2323C209.376 14.0468 204.03 12.2598 198.478 12.2598V38.2794L213.771 17.2323Z" fill="#6837E2"/>
<path d="M223.374 30.7084C223.322 30.553 223.27 30.3976 223.218 30.2422C221.457 24.8208 218.08 20.3575 213.771 17.2324L198.478 38.2795L223.227 46.3167C224.824 41.4219 224.988 36.009 223.382 30.7084H223.374Z" fill="#57A1D7"/>
<path d="M198.478 38.2793L183.184 59.3263C187.58 62.5119 192.925 64.2989 198.478 64.2989C200.982 64.2989 203.529 63.9363 206.051 63.168C208.901 62.3047 211.491 60.9839 213.771 59.3263C218.253 56.0717 221.534 51.4877 223.218 46.3165L198.469 38.2793H198.478Z" fill="#614B98"/>
<path d="M223.961 30.5267L223.805 30.0519C222.052 24.6563 218.71 20.0549 214.134 16.7399C209.609 13.4594 204.047 11.6465 198.486 11.6465C195.861 11.6465 193.253 12.035 190.732 12.8033C187.89 13.6666 185.231 14.9874 182.821 16.7399C178.314 20.0118 174.885 24.7426 173.15 30.0519C171.449 35.2575 171.397 40.7826 172.994 46.0314L173.15 46.5062C174.903 51.9018 178.245 56.5031 182.821 59.8182C187.346 63.0987 192.908 64.9116 198.469 64.9116C201.094 64.9116 203.702 64.5231 206.224 63.7548C209.065 62.8915 211.724 61.5706 214.134 59.8182C218.641 56.5463 222.07 51.8154 223.805 46.5062C225.507 41.3006 225.558 35.7755 223.961 30.5267ZM199.091 36.3971V12.8724C203.996 12.9932 208.857 14.573 212.916 17.3701L199.091 36.3971ZM213.417 58.834C211.12 60.5001 208.59 61.7606 205.878 62.5893C203.477 63.3231 200.982 63.6943 198.486 63.6943C193.383 63.6943 188.279 62.0972 184.056 59.188L198.728 39.0042L210.006 42.6646L222.467 46.7134C220.757 51.5478 217.571 55.8384 213.434 58.8426L213.417 58.834ZM222.83 45.5479L211.439 41.8531L199.471 37.9682L213.909 18.1039C218.02 21.2377 221.033 25.4937 222.64 30.4403L222.795 30.8979C224.254 35.7064 224.272 40.7653 222.83 45.5566V45.5479Z" fill="white"/>
<path d="M178.53 48.1298C178.374 47.232 179.6 41.9831 178.331 40.7141C175.395 37.7616 173.979 42.9673 173.573 44.573C172.796 47.6118 171.993 50.642 170.248 53.3182C168.279 56.331 165.102 58.308 162.079 60.1209C162.986 61.8043 163.703 63.5741 164.687 65.2143L176.742 58.3684C180.041 54.1815 179.238 52.2218 178.521 48.1298H178.53Z" fill="#F8A99C"/>
<path d="M179.333 49.1566C179.264 48.7941 179.195 48.4228 179.125 48.0257C179.091 47.8358 179.186 47.0588 179.264 46.4373C179.592 43.6747 179.773 41.3007 178.771 40.282C177.882 39.3842 176.993 39.0475 176.129 39.2806C174.808 39.6432 173.78 41.3179 172.986 44.4172C172.278 47.1797 171.483 50.3134 169.739 52.981C167.787 55.9766 164.445 57.9795 161.768 59.5938C161.492 59.7665 161.388 60.1204 161.544 60.4053C161.915 61.096 162.26 61.8039 162.597 62.5031C163.081 63.5045 163.582 64.5405 164.169 65.5246C164.281 65.7146 164.488 65.8182 164.696 65.8182C164.799 65.8182 164.911 65.7923 165.006 65.7318C165.3 65.5592 165.386 65.1793 165.214 64.8944C164.652 63.9621 164.169 62.952 163.694 61.9765C163.435 61.4326 163.167 60.8888 162.891 60.3449C165.585 58.7133 168.78 56.6932 170.766 53.6458C172.623 50.8055 173.443 47.5682 174.169 44.7107C175.041 41.3093 175.965 40.5841 176.448 40.4547C176.854 40.3424 177.347 40.5755 177.899 41.1367C178.573 41.8187 178.219 44.8315 178.046 46.2819C177.925 47.3178 177.865 47.879 177.925 48.2243C177.994 48.6214 178.063 49.0012 178.132 49.3638C178.754 52.7307 179.074 54.4141 176.267 57.9795C176.06 58.2471 176.103 58.6269 176.371 58.8341C176.638 59.0413 177.018 58.9982 177.226 58.7305C180.369 54.7335 179.963 52.5062 179.333 49.1394V49.1566Z" fill="#231F20"/>
<path d="M167.096 53.8094C159.506 58.3417 153.556 62.71 145.715 66.8106C138.314 70.6781 130.922 74.2349 123.03 76.9974C117.693 78.8708 111.933 79.8549 107.235 80.7786C105.163 81.1844 102.84 81.0549 100.733 81.1499C99.1783 81.2189 96.5273 81.8664 95.1888 80.8304C93.3321 84.8706 91.4755 88.9109 89.6189 92.9424C87.1923 89.636 85.1543 86.0447 83.574 82.2635C81.9938 83.1095 80.3876 83.6275 78.7727 84.3786C72.9006 86.4418 68.177 91.4662 67.2875 97.7337C66.9853 99.8401 66.9853 101.955 67.1148 104.079C67.2444 106.272 67.4948 108.464 67.6761 110.657C68.0302 114.965 66.3376 123.572 66.3376 123.572H118.651C118.651 123.572 119.066 120.084 119.308 118.496C120.715 109.397 123.453 103.449 130.603 97.2934C138.513 90.4907 168.884 72.3011 176.207 68.658C177.139 68.1919 168.15 54.8281 167.096 53.8008V53.8094Z" fill="#80C9FF"/>
<path d="M91.9677 52.6608C87.9522 52.7816 84.6362 54.6982 81.1647 57.8751C73.1251 65.213 77.7537 70.0906 79.1267 70.6345C79.878 70.9367 85.4652 65.5238 84.9471 63.3829C87.2355 64.4879 97.9434 64.5915 98.6947 60.888C99.826 56.7355 97.0367 52.5054 91.9677 52.6521V52.6608Z" fill="#231F20"/>
<path d="M167.528 53.3696C167.329 53.1796 167.027 53.1451 166.785 53.2832C163.936 54.9839 161.293 56.676 158.746 58.3162C154.411 61.096 150.318 63.7204 145.438 66.2671C139.048 69.6081 131.363 73.4325 122.839 76.4194C118.211 78.0424 113.28 78.9921 108.928 79.8295L107.132 80.1748C105.741 80.451 104.187 80.4683 102.684 80.4856C102.019 80.4856 101.363 80.5028 100.724 80.5287C100.361 80.546 99.9296 80.5891 99.4805 80.6409C98.1161 80.7963 96.4149 80.9863 95.5773 80.3388C95.4305 80.2266 95.2405 80.1834 95.0592 80.2266C94.8778 80.2697 94.731 80.3992 94.6533 80.5633L89.5238 91.7256C87.3909 88.6955 85.586 85.4408 84.1612 82.0222C84.0921 81.8668 83.9626 81.7373 83.7985 81.6855C83.6344 81.6251 83.4531 81.6424 83.3063 81.7201C82.3823 82.2121 81.4583 82.592 80.4825 82.9891C79.8348 83.2567 79.1872 83.5157 78.5827 83.8006C72.2442 86.0279 67.5811 91.4666 66.6916 97.6478C66.4239 99.5298 66.3635 101.584 66.5103 104.114C66.588 105.512 66.7262 106.911 66.8557 108.309C66.9334 109.112 67.0112 109.907 67.0716 110.709C67.417 114.879 65.759 123.365 65.7417 123.452C65.7072 123.633 65.7504 123.814 65.8713 123.961C65.9835 124.099 66.1649 124.185 66.3462 124.185H118.66C118.971 124.185 119.23 123.952 119.264 123.642C119.264 123.607 119.679 120.145 119.921 118.591C121.389 109.104 124.394 103.458 131.017 97.76C138.876 91.0004 169.203 72.8368 176.492 69.211C176.673 69.1246 176.854 68.8484 176.889 68.6498C177.182 66.8024 168.184 53.9998 167.537 53.3696H167.528ZM68.2892 110.614C68.2201 109.812 68.1424 109.009 68.0733 108.206C67.9438 106.825 67.8143 105.435 67.7279 104.053C67.5897 101.61 67.6415 99.6334 67.9006 97.8291C68.721 92.0968 73.0733 87.0466 79.0404 84.9401C79.6794 84.6466 80.3098 84.3876 80.9402 84.1286C81.7087 83.8179 82.4946 83.4898 83.2804 83.11C84.8434 86.7185 89.2302 93.3831 89.2734 93.4177C89.9038 101.757 91.4582 113.213 93.2716 122.96H76.8815C75.2321 114.698 74.6363 106.263 75.1199 97.8895C75.1371 97.5528 74.8781 97.2593 74.5413 97.242C74.2045 97.2075 73.9109 97.4838 73.8936 97.8204C73.4014 106.212 73.9886 114.672 75.6294 122.96H67.063C67.4688 120.767 68.5742 114.258 68.2719 110.606L68.2892 110.614ZM130.214 96.8363C123.349 102.75 120.223 108.594 118.712 118.41C118.522 119.636 118.245 121.924 118.116 122.968H94.5151C92.6499 113.032 91.0609 101.265 90.4565 92.8738C90.4565 92.8134 95.4823 81.6942 95.4823 81.6942C96.6913 82.1949 98.2888 82.0222 99.6101 81.8668C100.033 81.815 100.43 81.7719 100.776 81.7546C101.398 81.7287 102.045 81.7201 102.693 81.7114C104.247 81.6942 105.862 81.6683 107.365 81.3747L109.161 81.0294C113.556 80.1834 118.53 79.2251 123.245 77.5676C131.846 74.5547 139.575 70.7131 146.008 67.3463C150.931 64.7736 155.05 62.132 159.411 59.3349C161.82 57.7896 164.316 56.1925 166.984 54.5868C168.72 56.7364 174.98 66.2844 175.619 68.27C167.77 72.2584 138.021 90.1113 130.214 96.8277V96.8363Z" fill="#231F20"/>
<path d="M115.629 86.243C115.698 85.9149 115.491 85.5869 115.163 85.5178C114.834 85.4401 114.506 85.656 114.437 85.984C112.416 95.2299 113.349 105.106 117.08 113.808C117.175 114.041 117.408 114.179 117.641 114.179C117.719 114.179 117.805 114.162 117.883 114.127C118.194 113.998 118.34 113.635 118.202 113.324C114.575 104.864 113.66 95.2471 115.629 86.243Z" fill="#231F20"/>
<path d="M108.418 93.0977C108.444 92.9078 108.384 92.7092 108.245 92.5711C108.107 92.433 107.909 92.3725 107.727 92.3984L98.6688 93.6934C98.332 93.7452 98.0988 94.0473 98.1506 94.384C98.2025 94.7207 98.5047 94.9451 98.8415 94.902L107.166 93.7106C107.201 94.3667 107.391 95.0056 107.736 95.5753C107.848 95.7653 108.056 95.8689 108.263 95.8689C108.366 95.8689 108.479 95.843 108.574 95.7825C108.859 95.6099 108.954 95.23 108.781 94.9451C108.453 94.4013 108.323 93.7279 108.418 93.0977Z" fill="#231F20"/>
<path d="M51.3378 59.4121C63.4016 59.4121 73.1856 65.0494 73.1856 71.9989C73.1856 76.652 68.7815 80.7095 62.2617 82.885V90.7582L55.8197 84.3181C54.3689 84.4907 52.875 84.5857 51.3378 84.5857C39.2741 84.5857 29.4901 78.9484 29.4901 71.9989C29.4901 65.0494 39.2741 59.4121 51.3378 59.4121Z" fill="white"/>
<path d="M62.2617 91.363C62.1062 91.363 61.9422 91.3026 61.8299 91.1817L55.5951 84.9487C54.1789 85.1041 52.754 85.1905 51.3378 85.1905C38.9545 85.1905 28.877 79.2683 28.877 71.9907C28.877 64.7132 38.9545 58.791 51.3378 58.791C63.7211 58.791 73.7987 64.7132 73.7987 71.9907C73.7987 76.6353 69.6277 80.9431 62.8748 83.3171V90.7501C62.8748 91.0004 62.728 91.2249 62.4948 91.3112C62.4171 91.3457 62.3394 91.3544 62.2617 91.3544V91.363ZM55.8196 83.697C55.9837 83.697 56.1391 83.7574 56.2514 83.8783L61.6486 89.2738V82.8769C61.6486 82.6179 61.8126 82.3761 62.0631 82.2984C68.5483 80.1402 72.5724 76.1863 72.5724 71.9907C72.5724 65.3866 63.0475 60.0169 51.3292 60.0169C39.6108 60.0169 30.0859 65.3866 30.0859 71.9907C30.0859 78.5949 39.6108 83.9646 51.3292 83.9646C52.7972 83.9646 54.2825 83.8783 55.7419 83.7056C55.7678 83.7056 55.7937 83.7056 55.811 83.7056L55.8196 83.697Z" fill="#231F20"/>
<path d="M62.9784 68.0547H40.8889C40.5521 68.0547 40.2758 68.3309 40.2758 68.6676C40.2758 69.0043 40.5521 69.2806 40.8889 69.2806H62.9784C63.3152 69.2806 63.5915 69.0043 63.5915 68.6676C63.5915 68.3309 63.3152 68.0547 62.9784 68.0547Z" fill="#231F20"/>
<path d="M51.1046 73.5195H40.8889C40.5521 73.5195 40.2758 73.7958 40.2758 74.1325C40.2758 74.4692 40.5521 74.7454 40.8889 74.7454H51.1046C51.4414 74.7454 51.7178 74.4692 51.7178 74.1325C51.7178 73.7958 51.4414 73.5195 51.1046 73.5195Z" fill="#231F20"/>
<path d="M108.712 227.909C108.712 227.469 108.358 227.115 107.917 227.115C107.477 227.115 107.123 227.469 107.123 227.909C107.123 240.246 97.08 250.286 84.7399 250.286C72.3998 250.286 62.3567 240.246 62.3567 227.909C62.3567 227.469 62.0027 227.115 61.5623 227.115C61.1219 227.115 60.7678 227.469 60.7678 227.909C60.7678 240.859 71.0958 251.417 83.9454 251.84V270.168C83.9454 270.608 84.2995 270.962 84.7399 270.962C85.1803 270.962 85.5343 270.608 85.5343 270.168V251.84C98.3839 251.417 108.712 240.859 108.712 227.909Z" fill="#231F20"/>
<path d="M98.3667 219.414H71.0959C70.6554 219.414 70.3014 219.768 70.3014 220.208V229.756C70.3014 236.335 75.6554 241.678 82.227 241.678H87.2355C93.8158 241.678 99.1611 236.326 99.1611 229.756V220.208C99.1611 219.768 98.8071 219.414 98.3667 219.414Z" fill="#231F20"/>
<path d="M98.3666 201.571C98.3666 195.425 93.384 190.443 87.2355 190.443H82.2269C76.0785 190.443 71.0958 195.425 71.0958 201.571V220.21H98.3666V201.571Z" fill="#00B4FF"/>
<path d="M98.3667 221.003H71.0959C70.6554 221.003 70.3014 220.649 70.3014 220.209V201.57C70.3014 194.992 75.6554 189.648 82.227 189.648H87.2355C93.8158 189.648 99.1611 195.001 99.1611 201.57V220.209C99.1611 220.649 98.8071 221.003 98.3667 221.003ZM71.8903 219.415H97.5722V201.579C97.5722 195.881 92.935 191.246 87.2355 191.246H82.227C76.5276 191.246 71.8903 195.881 71.8903 201.579V219.415Z" fill="#231F20"/>
<path d="M334.78 142.53C334.193 142.4 333.623 142.227 333.07 141.977C328.277 139.793 327.353 133.517 324.426 129.131C321.283 124.426 315.566 121.906 309.927 121.474C300.048 120.723 289.573 123.192 284.444 132.412C281.059 138.498 280.281 145.655 279.884 152.604C278.908 169.948 279.91 187.412 282.898 204.523C284.141 209.504 317.354 213.181 317.354 213.181H393.527C393.527 213.181 375.591 207.406 375.272 194.741C375.082 187.395 377.595 175.516 370.393 170.448C365.237 166.823 359.564 171.968 354.667 168.886C346.731 163.879 352.958 148.176 344.581 143.937C341.619 142.435 337.984 143.238 334.771 142.538L334.78 142.53Z" fill="#231F20"/>
<path d="M311.369 169.55C311.101 167.15 310.704 163.551 310.376 160.564C317.06 156.109 321.421 147.511 318.606 138.938C316.36 132.109 309.633 126.999 302.449 126.679C293.589 126.282 287.587 133.663 285.972 142.547C284.97 148.054 285.73 154.529 288.96 158.146C290.722 160.115 292.647 161.487 294.642 162.385C295.488 166.607 296.153 172.512 293.839 174.67C292.837 175.602 291.559 176.172 290.54 177.078C287.958 179.357 289.012 205.731 294.046 205.964C305.626 206.499 316.084 185.711 318.113 177.277C313.666 176.198 311.87 174.178 311.36 169.55H311.369Z" fill="#F8A99C"/>
<path d="M210.982 170.708C209.626 168.299 208.374 166.132 206.465 164.121C204.142 161.669 196.845 155.894 197.51 152.017C197.7 150.887 218.667 139.612 221.12 140.251C227.484 141.9 225.964 153.511 226.016 158.406C226.102 166.08 229.116 172.322 232.13 179.237C232.19 179.366 220.213 185.833 218.598 184.771C216.94 183.674 211.016 170.768 210.982 170.716V170.708Z" fill="#F8A99C"/>
<path d="M224.116 252.911C224.764 252.513 225.446 252.203 226.18 252.047C230.308 251.184 238.667 257.21 243.157 258.047C244.885 258.375 263.2 256.899 263.2 256.899L263.321 270.176H205.17C205.17 270.176 209.971 264.038 213.581 261.328C216.966 258.79 223.313 253.403 224.116 252.911Z" fill="#F8A99C"/>
<path d="M237.976 268.234C234.513 267.734 229.367 263.823 227.19 261.233C227.052 261.069 226.854 260.965 226.638 260.948C226.431 260.939 226.215 261 226.051 261.147C223.814 263.115 221.318 264.747 218.633 266.007C218.235 266.197 218.063 266.663 218.253 267.06C218.443 267.457 218.909 267.63 219.306 267.44C221.897 266.231 224.315 264.686 226.5 262.847C229.021 265.558 234.038 269.27 237.743 269.805C237.778 269.805 237.821 269.805 237.855 269.805C238.244 269.805 238.581 269.521 238.641 269.123C238.702 268.692 238.399 268.286 237.968 268.226L237.976 268.234Z" fill="#231F20"/>
<path d="M349.27 236.396C348.044 230.569 346.256 221.064 344.667 212.975C344.728 212.112 344.797 211.248 344.831 210.376C345.168 202.106 344.097 191.324 339.158 184.366C337.863 182.535 336.256 180.964 334.46 179.626C332.44 178.133 329.469 176.371 327.111 175.5C322.44 173.756 318.07 172.513 313.174 171.865C311.956 171.701 306.913 182.371 305.696 184.789C302.949 190.279 298.856 201.087 296.611 201.433C295.359 201.623 294.349 200.725 293.943 199.603C290.92 191.298 294.228 182.509 293.701 173.989C286.672 174.179 279.979 179.868 274.858 184.158C267.285 190.504 260.903 198.126 252.726 203.738C251.732 204.42 250.739 205.102 249.764 205.81L234.747 170.182L209.98 179.522C209.98 179.522 216.31 195.692 217.45 198.472C221.37 208.037 224.902 219.795 231.076 228.117C233.814 231.812 237.717 233.875 242.233 234.747C244.47 235.179 247.484 234.851 249.306 234.445V234.419C253.166 233.694 256.188 232.028 259.928 230.189C267.57 226.442 274.193 223.041 280.584 217.309C281.862 226.46 283.356 235.645 285.497 244.641C270.212 245.625 251.612 245.435 251.612 245.435V270.177H361.118C361.118 270.177 353.441 256.226 349.27 236.396Z" fill="#614B98"/>
<path d="M302.837 138.714C305.195 139.085 307.405 139.119 309.763 138.921C308.39 139.033 308.58 147.295 308.64 148.184C308.891 151.844 310.583 157.438 312.362 160.65C312.474 160.857 327.206 154.486 323.657 137.393C322.586 132.239 318.718 128.207 314.918 124.564C308.476 118.392 288.744 114.982 287.026 127.361C286.508 131.074 289.979 134.086 293.347 135.735C296.335 137.194 299.547 138.196 302.829 138.722L302.837 138.714Z" fill="#231F20"/>
<path d="M221.111 103.406H147.192C141.802 103.406 137.433 107.774 137.433 113.161V144.956C137.433 150.344 141.802 154.712 147.192 154.712H221.111C226.5 154.712 230.869 150.344 230.869 144.956V113.161C230.869 107.774 226.5 103.406 221.111 103.406Z" fill="#E8DFFF"/>
<path d="M221.111 155.514H147.183C141.363 155.514 136.63 150.783 136.63 144.964V113.161C136.63 107.342 141.363 102.611 147.183 102.611H221.111C226.931 102.611 231.664 107.342 231.664 113.161V144.964C231.664 150.783 226.931 155.514 221.111 155.514ZM147.183 104.208C142.243 104.208 138.219 108.223 138.219 113.169V144.973C138.219 149.911 142.243 153.934 147.183 153.934H221.111C226.051 153.934 230.075 149.92 230.075 144.973V113.169C230.075 108.231 226.051 104.208 221.111 104.208H147.183Z" fill="#231F20"/>
<path d="M212.963 130.305C213.655 123.043 208.327 116.595 201.063 115.904C193.799 115.212 187.349 120.538 186.658 127.8C185.966 135.062 191.294 141.51 198.558 142.201C205.822 142.893 212.271 137.567 212.963 130.305Z" fill="#57A1D7"/>
<path d="M199.816 143.073C192.087 143.073 185.801 136.788 185.801 129.062C185.801 121.336 192.087 115.051 199.816 115.051C207.545 115.051 213.832 121.336 213.832 129.062C213.832 136.788 207.545 143.073 199.816 143.073ZM199.816 116.648C192.968 116.648 187.398 122.216 187.398 129.062C187.398 135.908 192.968 141.476 199.816 141.476C206.664 141.476 212.234 135.908 212.234 129.062C212.234 122.216 206.664 116.648 199.816 116.648Z" fill="#231F20"/>
<path d="M204.764 128.269H200.611V124.117C200.611 123.676 200.256 123.322 199.816 123.322C199.376 123.322 199.022 123.676 199.022 124.117V128.269H194.868C194.428 128.269 194.073 128.623 194.073 129.063C194.073 129.503 194.428 129.857 194.868 129.857H199.022V134.01C199.022 134.45 199.376 134.804 199.816 134.804C200.256 134.804 200.611 134.45 200.611 134.01V129.857H204.764C205.205 129.857 205.559 129.503 205.559 129.063C205.559 128.623 205.205 128.269 204.764 128.269Z" fill="#231F20"/>
<path d="M171.086 128.674C173.193 127.595 174.644 125.436 174.644 122.907C174.644 119.316 171.734 116.406 168.141 116.406C164.549 116.406 161.639 119.316 161.639 122.907C161.639 125.428 163.089 127.595 165.197 128.674C159.523 129.856 155.257 134.881 155.257 140.906V141.165H181.017V140.906C181.017 134.881 176.751 129.856 171.077 128.674H171.086Z" fill="#231F20"/>
<path d="M226.258 151.74C226.672 147.415 224.41 129.683 219.479 135.251C218.564 136.287 218.296 137.738 218.063 139.102C216.768 146.785 215.481 154.701 217.225 162.29L228.987 171.984C224.531 161.297 226.396 154.123 226.258 151.74Z" fill="#F8A99C"/>
<path d="M229.721 171.674C226.223 163.283 226.707 157.102 226.957 153.778C227.026 152.941 227.078 152.276 227.052 151.749C227.337 148.443 226.146 135.278 222.234 133.568C221.465 133.232 220.256 133.163 218.883 134.717C217.786 135.96 217.502 137.626 217.277 138.964C216.042 146.293 214.643 154.607 216.448 162.463C216.543 162.894 216.975 163.153 217.398 163.058C217.83 162.964 218.097 162.532 217.994 162.109C216.258 154.564 217.631 146.414 218.84 139.232C219.082 137.781 219.332 136.607 220.066 135.778C220.964 134.768 221.431 134.967 221.586 135.036C224.168 136.158 225.809 147.968 225.455 151.663C225.455 151.706 225.455 151.749 225.455 151.784C225.481 152.207 225.429 152.846 225.368 153.657C225.101 157.119 224.6 163.551 228.244 172.287C228.374 172.589 228.667 172.779 228.978 172.779C229.082 172.779 229.185 172.762 229.28 172.719C229.686 172.546 229.876 172.088 229.712 171.683L229.721 171.674Z" fill="#231F20"/>
<path d="M289.763 139.378L292.164 140.242C292.25 140.276 292.345 140.294 292.431 140.294C292.76 140.294 293.062 140.095 293.183 139.767C293.329 139.353 293.114 138.895 292.708 138.748L290.307 137.885C289.893 137.738 289.435 137.945 289.288 138.36C289.141 138.774 289.357 139.232 289.763 139.378Z" fill="#231F20"/>
<path d="M302.172 141.917L299.772 141.045C299.357 140.898 298.899 141.106 298.753 141.52C298.606 141.934 298.822 142.392 299.227 142.539L301.628 143.41C301.715 143.445 301.809 143.462 301.896 143.462C302.224 143.462 302.526 143.264 302.647 142.936C302.794 142.521 302.587 142.064 302.172 141.917Z" fill="#231F20"/>
<path d="M299.003 143.635C298.442 143.635 297.993 144.084 297.993 144.645C297.993 145.206 298.442 145.655 299.003 145.655C299.564 145.655 300.013 145.206 300.013 144.645C300.013 144.084 299.564 143.635 299.003 143.635Z" fill="#231F20"/>
<path d="M290.886 141.553C290.886 140.992 290.437 140.543 289.875 140.543C289.314 140.543 288.865 140.992 288.865 141.553C288.865 142.114 289.314 142.563 289.875 142.563C290.437 142.563 290.886 142.114 290.886 141.553Z" fill="#231F20"/>
<path d="M294.556 143.962C294.763 143.574 294.616 143.09 294.228 142.883C293.839 142.676 293.355 142.823 293.148 143.211C292.561 144.316 291.628 145.352 290.376 146.302L290.238 146.405C289.133 147.32 290.808 150.247 290.825 150.281C290.972 150.523 291.231 150.653 291.499 150.653C291.646 150.653 291.792 150.61 291.922 150.532C292.293 150.299 292.405 149.807 292.172 149.435C291.948 149.081 291.525 147.976 291.456 147.484C292.829 146.423 293.874 145.24 294.556 143.962Z" fill="#231F20"/>
<path d="M297.967 152.579C297.967 152.579 297.889 152.614 297.855 152.648C297.803 152.691 297.768 152.752 297.734 152.804C297.38 153.408 297.129 154.133 296.447 154.392C295.886 154.608 295.203 154.168 294.694 154.677C294.184 155.195 294.443 156.093 295.083 156.36C295.532 156.55 296.058 156.455 296.507 156.274C297.699 155.799 298.64 154.608 298.597 153.322C298.597 153.106 298.554 152.881 298.407 152.717C298.295 152.588 298.105 152.527 297.95 152.57L297.967 152.579Z" fill="#231F20"/>
<path d="M225.714 181.403C220.653 183.328 215.576 185.383 210.61 187.498C210.205 187.671 210.015 188.137 210.187 188.543C210.317 188.845 210.61 189.026 210.921 189.026C211.025 189.026 211.129 189.009 211.232 188.966C216.18 186.859 221.241 184.822 226.275 182.897C226.69 182.741 226.888 182.284 226.733 181.869C226.577 181.455 226.12 181.248 225.705 181.412L225.714 181.403Z" fill="#231F20"/>
<path d="M251.344 219.897C251.223 220.32 251.456 220.76 251.879 220.881C251.957 220.907 252.035 220.916 252.104 220.916C252.449 220.916 252.76 220.691 252.864 220.346C253.831 217.091 253.796 214.139 252.752 211.005C252.752 210.902 235.481 169.861 235.481 169.861C235.317 169.464 234.867 169.274 234.47 169.429L209.704 178.77C209.289 178.925 209.082 179.383 209.237 179.797C209.393 180.212 209.851 180.419 210.265 180.263L234.315 171.199L250.601 209.823C252.173 213.336 252.397 216.349 251.344 219.897Z" fill="#231F20"/>
<path d="M280.705 219.077C280.705 219.077 280.791 219.077 280.834 219.068C281.266 218.999 281.568 218.594 281.499 218.162C280.774 213.595 280.463 209.279 280.54 204.962C280.54 204.522 280.204 204.159 279.763 204.151C279.306 204.09 278.96 204.487 278.952 204.928C278.874 209.339 279.193 213.742 279.927 218.404C279.988 218.792 280.325 219.077 280.713 219.077H280.705Z" fill="#231F20"/>
<path d="M339.814 183.906C338.519 182.076 336.878 180.427 334.944 178.986C333.018 177.561 329.935 175.696 327.405 174.747C322.181 172.804 317.828 171.665 313.295 171.069C312.259 170.948 311.248 171.682 305.601 183.216L305.005 184.424C304.262 185.909 303.433 187.748 302.561 189.699C300.877 193.437 297.751 200.404 296.516 200.637C295.661 200.766 294.988 200.076 294.72 199.325C292.898 194.326 293.451 189.207 294.02 183.794C294.366 180.557 294.72 177.216 294.521 173.935C294.495 173.495 294.159 173.167 293.675 173.193C293.235 173.219 292.906 173.599 292.932 174.039C293.131 177.19 292.777 180.462 292.44 183.63C291.87 188.991 291.274 194.533 293.226 199.877C293.822 201.509 295.247 202.458 296.767 202.217C298.692 201.923 300.791 197.538 304.02 190.364C304.893 188.43 305.713 186.6 306.438 185.149L307.043 183.924C310.367 177.129 312.474 173.348 313.286 172.675C317.638 173.262 321.835 174.367 326.861 176.24C329.253 177.129 332.172 178.908 334.011 180.263C335.816 181.601 337.336 183.129 338.536 184.821C344.132 192.712 344.262 205.299 344.063 210.34C343.605 221.641 341.248 233.373 337.042 245.217C336.74 246.063 336.412 247.056 336.049 248.144C333.821 254.869 330.099 266.135 323.83 268.794C323.182 269.07 321.706 269.312 321.3 269.372H252.441V246.227C254.038 246.236 257.035 246.253 260.817 246.227L261.802 262.017C261.827 262.44 262.181 262.759 262.596 262.759C262.613 262.759 262.631 262.759 262.648 262.759C263.088 262.733 263.416 262.354 263.39 261.913L262.406 246.21C275.765 246.081 297.095 245.424 303.822 242.645C303.848 242.662 303.856 242.688 303.882 242.705C307.405 245.036 310.359 248.99 311.585 253.021C311.689 253.367 312.008 253.583 312.345 253.583C312.423 253.583 312.5 253.574 312.578 253.548C313.001 253.419 313.234 252.978 313.105 252.555C311.818 248.342 308.925 244.371 305.324 241.781C305.48 241.652 305.618 241.514 305.713 241.376C307.034 239.433 307.742 237.128 308.312 235.125C310.583 227.054 311.887 218.723 312.189 210.349C312.233 209.097 312.293 207.535 313.157 206.671C313.468 206.36 313.468 205.86 313.157 205.549C312.846 205.238 312.345 205.238 312.034 205.549C310.721 206.853 310.652 208.847 310.601 210.297C310.307 218.542 309.02 226.751 306.784 234.702C306.231 236.671 305.592 238.743 304.4 240.486C302.492 243.301 280.653 244.44 262.32 244.63L262.216 242.938C262.19 242.498 261.819 242.161 261.37 242.196C260.929 242.222 260.601 242.601 260.627 243.042L260.731 244.647C257.536 244.673 254.47 244.665 251.672 244.639C251.473 244.673 251.258 244.725 251.102 244.872C250.947 245.019 250.869 245.226 250.869 245.433V270.175C250.869 270.615 251.223 270.969 251.663 270.969H321.429C321.637 270.935 323.511 270.676 324.478 270.27C331.412 267.326 335.125 256.086 337.586 248.653C337.94 247.574 338.269 246.59 338.562 245.761C342.819 233.77 345.22 221.874 345.678 210.418C345.885 205.212 345.738 192.203 339.858 183.915L339.814 183.906Z" fill="#231F20"/>
<path d="M225.412 265.937H204.782L185.663 228.522C185.058 227.339 183.858 226.605 182.537 226.605H121.812C121.13 226.605 120.517 226.951 120.163 227.529C119.809 228.108 119.783 228.816 120.094 229.42L139.256 266.921V270.167C139.256 270.607 139.61 270.961 140.05 270.961H225.412C225.852 270.961 226.206 270.607 226.206 270.167V266.731C226.206 266.291 225.852 265.937 225.412 265.937Z" fill="#614B98"/>
<path d="M66.4499 171.684C66.1131 171.684 65.8368 171.96 65.8368 172.297V175.568C65.8368 175.905 66.1131 176.181 66.4499 176.181C66.7867 176.181 67.063 175.905 67.063 175.568V172.297C67.063 171.96 66.7867 171.684 66.4499 171.684Z" fill="#231F20"/>
<path d="M74.7658 169.854C74.429 169.854 74.1527 170.13 74.1527 170.466V175.569C74.1527 175.905 74.429 176.181 74.7658 176.181C75.1026 176.181 75.3789 175.905 75.3789 175.569V170.466C75.3789 170.13 75.1026 169.854 74.7658 169.854Z" fill="#231F20"/>
<path d="M83.0732 166.572C82.7364 166.572 82.4601 166.849 82.4601 167.185V175.568C82.4601 175.904 82.7364 176.181 83.0732 176.181C83.41 176.181 83.6863 175.904 83.6863 175.568V167.185C83.6863 166.849 83.41 166.572 83.0732 166.572Z" fill="#231F20"/>
<path d="M91.3891 164.008C91.0523 164.008 90.776 164.284 90.776 164.621V175.567C90.776 175.904 91.0523 176.18 91.3891 176.18C91.7259 176.18 92.0022 175.904 92.0022 175.567V164.621C92.0022 164.284 91.7259 164.008 91.3891 164.008Z" fill="#231F20"/>
<path d="M99.6965 161.082C99.3597 161.082 99.0834 161.358 99.0834 161.695V175.568C99.0834 175.905 99.3597 176.181 99.6965 176.181C100.033 176.181 100.31 175.905 100.31 175.568V161.695C100.31 161.358 100.033 161.082 99.6965 161.082Z" fill="#231F20"/>
<path d="M379.451 271.393H19.5766C18.903 271.393 18.3503 270.849 18.3503 270.167C18.3503 269.485 18.8944 268.941 19.5766 268.941H379.451C380.125 268.941 380.677 269.485 380.677 270.167C380.677 270.849 380.133 271.393 379.451 271.393Z" fill="#231F20"/>
<path d="M42.4691 278.835C47.2527 278.835 51.1305 274.959 51.1305 270.176C51.1305 265.394 47.2527 261.518 42.4691 261.518C37.6856 261.518 33.8077 265.394 33.8077 270.176C33.8077 274.959 37.6856 278.835 42.4691 278.835Z" fill="#00B4FF"/>
<path d="M42.4692 280.053C37.0202 280.053 32.5815 275.615 32.5815 270.168C32.5815 264.721 37.0202 260.283 42.4692 260.283C47.9181 260.283 52.3568 264.721 52.3568 270.168C52.3568 275.615 47.9268 280.053 42.4692 280.053ZM42.4692 262.735C38.3673 262.735 35.034 266.067 35.034 270.168C35.034 274.269 38.3673 277.601 42.4692 277.601C46.571 277.601 49.9043 274.269 49.9043 270.168C49.9043 266.067 46.571 262.735 42.4692 262.735Z" fill="#231F20"/>
</g>
<defs>
<clipPath id="clip0_101_2292">
<rect width="408" height="280" fill="white" transform="translate(0 0.0527344)"/>
</clipPath>
</defs>
</svg>
