<svg width="17" height="15" viewBox="0 0 17 15" fill="none" xmlns="http://www.w3.org/2000/svg">
<path d="M11.8347 2.27703C12.5921 3.03449 13.015 3.92306 13.109 4.96855C10.6992 5.41071 8.86242 7.51332 8.86242 10.0494C8.86242 10.4801 8.91566 10.8963 9.01474 11.2938H4.77347C3.83839 11.2938 3.0445 10.9876 2.38258 10.3318L2.38076 10.33C1.72275 9.68432 1.39564 8.90444 1.39564 7.97288C1.39564 7.16395 1.63538 6.45323 2.11797 5.82215C2.59322 5.20067 3.22906 4.80487 4.00115 4.63193L4.314 4.56185L4.39888 4.25267C4.66717 3.27531 5.19132 2.494 5.98508 1.89074C6.78117 1.28571 7.67761 0.982552 8.68464 0.982552C9.93166 0.982552 10.9688 1.41118 11.8347 2.27703Z" stroke="#614B98" stroke-width="1.06667"/>
<path d="M13.7341 7.50809V6.44141L12.1341 8.04143L13.7341 9.64145V8.57477C14.2056 8.57477 14.6578 8.76207 14.9912 9.09548C15.3246 9.42888 15.5119 9.88107 15.5119 10.3526C15.5119 10.637 15.4479 10.9072 15.327 11.149L16.1022 11.9241C16.4008 11.4761 16.5786 10.9357 16.5786 10.3526C16.5786 8.78099 15.3057 7.50809 13.7341 7.50809ZM13.7341 12.1304C13.2626 12.1304 12.8104 11.9431 12.477 11.6097C12.1436 11.2763 11.9563 10.8241 11.9563 10.3526C11.9563 10.0681 12.0203 9.7979 12.1412 9.55612L11.3661 8.78099C11.0674 9.229 10.8896 9.76945 10.8896 10.3526C10.8896 11.9241 12.1626 13.1971 13.7341 13.1971V14.2637L15.3342 12.6637L13.7341 11.0637V12.1304Z" fill="#614B98"/>
</svg>
