<svg width="13" height="13" viewBox="0 0 13 13" fill="none" xmlns="http://www.w3.org/2000/svg">
<path d="M8.68861 7.39472C8.68861 7.97766 8.46385 8.53673 8.06377 8.94893C7.66369 9.36113 7.12107 9.5927 6.55527 9.5927C5.98948 9.5927 5.44686 9.36113 5.04678 8.94893C4.6467 8.53673 4.42194 7.97766 4.42194 7.39472C4.42194 6.81178 4.6467 6.25272 5.04678 5.84051C5.44686 5.42831 5.98948 5.19674 6.55527 5.19674C7.12107 5.19674 7.66369 5.42831 8.06377 5.84051C8.46385 6.25272 8.68861 6.81178 8.68861 7.39472ZM3.64967 1.71294C3.78247 1.43889 3.98674 1.20838 4.23959 1.04726C4.49243 0.886143 4.78384 0.800792 5.08114 0.800781H8.02941C8.3267 0.800792 8.61812 0.886143 8.87096 1.04726C9.12381 1.20838 9.32808 1.43889 9.46087 1.71294L10.0849 2.99876H10.8219C11.3877 2.99876 11.9304 3.23033 12.3304 3.64253C12.7305 4.05474 12.9553 4.6138 12.9553 5.19674V10.6917C12.9553 11.2746 12.7305 11.8337 12.3304 12.2459C11.9304 12.6581 11.3877 12.8897 10.8219 12.8897H2.28861C1.72281 12.8897 1.18019 12.6581 0.780112 12.2459C0.380035 11.8337 0.155273 11.2746 0.155273 10.6917V5.19674C0.155273 4.6138 0.380035 4.05474 0.780112 3.64253C1.18019 3.23033 1.72281 2.99876 2.28861 2.99876H3.02567L3.64967 1.71294ZM9.75527 7.39472C9.75527 6.52031 9.41813 5.68171 8.81802 5.06341C8.2179 4.44511 7.40397 4.09775 6.55527 4.09775C5.70658 4.09775 4.89265 4.44511 4.29253 5.06341C3.69242 5.68171 3.35527 6.52031 3.35527 7.39472C3.35527 8.26913 3.69242 9.10773 4.29253 9.72603C4.89265 10.3443 5.70658 10.6917 6.55527 10.6917C7.40397 10.6917 8.2179 10.3443 8.81802 9.72603C9.41813 9.10773 9.75527 8.26913 9.75527 7.39472Z" fill="#006BE0"/>
</svg>
