<svg width="14" height="13" viewBox="0 0 14 13" fill="none" xmlns="http://www.w3.org/2000/svg">
<path fill-rule="evenodd" clip-rule="evenodd" d="M6.86197 5.38796C6.84697 5.37448 6.82247 5.33629 6.80753 5.3031C6.77574 5.23253 6.78189 5.14857 6.82403 5.0775C6.84427 5.04334 7.15059 4.83995 8.01677 4.28545C8.6578 3.87509 9.2083 3.52949 9.24011 3.51745C9.31352 3.48966 9.39025 3.50362 9.44915 3.55547C9.53359 3.62979 9.53559 3.64201 9.53559 4.08149V4.48318L10.1449 4.47686C10.7083 4.47102 10.7651 4.46802 10.8984 4.43708C11.3594 4.33013 11.7377 4.1188 12.1073 3.76184C12.3541 3.52346 12.3842 3.50026 12.4473 3.50033C12.5074 3.50039 12.5835 3.54404 12.6084 3.59278C12.6314 3.6378 12.6169 3.98123 12.5856 4.1339C12.4235 4.92264 11.8778 5.56665 11.1602 5.81594C10.8553 5.92184 10.6565 5.94396 10.0079 5.94414L9.55001 5.94428L9.5497 6.33275C9.54941 6.67896 9.54645 6.72796 9.52254 6.78307C9.47534 6.89178 9.35193 6.95029 9.24899 6.91274C9.20367 6.8962 6.90972 5.4309 6.86197 5.38796ZM7.29063 3.55789C7.26551 3.55098 7.22734 3.52341 7.20581 3.49665L7.16667 3.44798L7.17499 3.24406C7.18435 3.01495 7.20757 2.88491 7.27964 2.65784C7.4888 1.99899 8.00056 1.46434 8.63207 1.24495C8.93693 1.13904 9.13576 1.11693 9.78436 1.11674L10.2422 1.11661L10.2426 0.728133C10.2429 0.381928 10.2458 0.332928 10.2697 0.277817C10.3169 0.16927 10.4403 0.110598 10.5429 0.148013C10.5666 0.156657 11.1189 0.504446 11.7702 0.920862C12.8486 1.6103 12.957 1.68321 12.9828 1.73615C13.0296 1.83211 13.0124 1.96213 12.9447 2.02406C12.9158 2.05049 10.6635 3.49734 10.586 3.53928C10.5248 3.57238 10.4058 3.56197 10.3473 3.51839C10.2617 3.45466 10.2567 3.42467 10.2567 2.98013V2.5777L9.64736 2.58404C9.0892 2.58985 9.02676 2.59309 8.90355 2.62266C8.58158 2.69995 8.29717 2.82565 8.048 3.0008C7.8842 3.11594 7.81232 3.17772 7.58368 3.39995C7.42278 3.55632 7.37618 3.58144 7.29063 3.55789ZM9.74243 8.51224C10.5447 8.76732 11.4047 8.90903 12.2937 8.90903C12.684 8.90903 13.0092 9.22789 13.0092 9.61051V12.055C13.0092 12.4448 12.8068 12.8911 12.2937 12.8911C5.58672 12.8911 0 7.42106 0 0.838524C0 0.307103 0.469776 0.137049 0.860051 0.137049H3.3607C3.75098 0.137049 4.07621 0.455901 4.07621 0.838524C4.07621 1.71005 4.21353 2.55324 4.48094 3.33974C4.56044 3.58774 4.50262 3.86408 4.30748 4.06248L2.89816 5.23869C3.91721 7.31477 5.83245 9.1216 7.87778 10.0782L9.01247 8.68229C9.10555 8.58957 9.2234 8.52443 9.35251 8.49435C9.48161 8.46427 9.61675 8.47047 9.74243 8.51224Z" fill="#614B98"/>
</svg>
