<svg width="28" height="37" viewBox="0 0 28 37" fill="none" xmlns="http://www.w3.org/2000/svg">
<path d="M1.21484 5.26758V30.8257" stroke="#006BE0" stroke-width="2" stroke-linecap="round" stroke-linejoin="round"/>
<path d="M26.7852 11.6602L26.7852 30.8377" stroke="#006BE0" stroke-width="2" stroke-linecap="round" stroke-linejoin="round"/>
<path d="M5.47656 1.00586H16.1306" stroke="#006BE0" stroke-width="2" stroke-linecap="round" stroke-linejoin="round"/>
<path d="M5.47656 35.0977H22.523" stroke="#006BE0" stroke-width="2" stroke-linecap="round" stroke-linejoin="round"/>
<path d="M26.789 30.8379C26.8006 32.9663 24.6581 35.0995 22.5273 35.0995" stroke="#006BE0" stroke-width="2" stroke-linecap="round" stroke-linejoin="round"/>
<path d="M1.21495 30.8379C1.21495 32.9687 3.34576 35.0995 5.47656 35.0995" stroke="#006BE0" stroke-width="2" stroke-linecap="round" stroke-linejoin="round"/>
<path d="M1.21495 5.26367C1.21495 3.13596 3.34576 1.05261 5.47656 1.00515" stroke="#006BE0" stroke-width="2" stroke-linecap="round" stroke-linejoin="round"/>
<path d="M26.7752 11.6694L16.1328 1.00586" stroke="#006BE0" stroke-width="2" stroke-linecap="round" stroke-linejoin="round"/>
<path d="M16.1329 7.39844C16.1395 9.51765 18.2723 11.66 20.3945 11.66" stroke="#006BE0" stroke-width="2" stroke-linecap="round" stroke-linejoin="round"/>
<path d="M16.1328 7.39827V1.00586" stroke="#006BE0" stroke-width="2" stroke-linecap="round" stroke-linejoin="round"/>
<path d="M20.3945 11.6602H26.7869" stroke="#006BE0" stroke-width="2" stroke-linecap="round" stroke-linejoin="round"/>
<path d="M7.60938 26.5762H11.871" stroke="#006BE0" stroke-width="2" stroke-linecap="round" stroke-linejoin="round"/>
<path d="M9.73828 18.0527V26.576" stroke="#006BE0" stroke-width="2" stroke-linecap="round" stroke-linejoin="round"/>
<path d="M5.47656 18.0527H13.9998" stroke="#006BE0" stroke-width="2" stroke-linecap="round" stroke-linejoin="round"/>
<path d="M14.0039 18.0527V20.1835" stroke="#006BE0" stroke-width="2" stroke-linecap="round" stroke-linejoin="round"/>
<path d="M5.47656 18.0527V20.1835" stroke="#006BE0" stroke-width="2" stroke-linecap="round" stroke-linejoin="round"/>
</svg>
