<svg width="32" height="32" viewBox="0 0 32 32" fill="none" xmlns="http://www.w3.org/2000/svg">
<circle cx="16" cy="16" r="16" fill="white"/>
<path d="M19.5214 16.0151C19.5214 16.4393 19.4507 16.8477 19.3214 17.2283L18.7091 16.616C18.7492 16.4182 18.7694 16.2169 18.7693 16.0151V15.2629C18.7693 15.1632 18.8089 15.0675 18.8794 14.997C18.95 14.9265 19.0456 14.8868 19.1454 14.8868C19.2451 14.8868 19.3408 14.9265 19.4113 14.997C19.4818 15.0675 19.5214 15.1632 19.5214 15.2629V16.0151ZM15.7607 19.0236C16.376 19.0236 16.9476 18.8394 17.4245 18.522L17.9645 19.0627C17.4276 19.4521 16.7968 19.6917 16.1368 19.757V21.2801H18.3932C18.493 21.2801 18.5886 21.3197 18.6592 21.3902C18.7297 21.4607 18.7693 21.5564 18.7693 21.6561C18.7693 21.7559 18.7297 21.8515 18.6592 21.9221C18.5886 21.9926 18.493 22.0322 18.3932 22.0322H13.1282C13.0285 22.0322 12.9328 21.9926 12.8623 21.9221C12.7918 21.8515 12.7521 21.7559 12.7521 21.6561C12.7521 21.5564 12.7918 21.4607 12.8623 21.3902C12.9328 21.3197 13.0285 21.2801 13.1282 21.2801H15.3847V19.757C14.457 19.6637 13.5971 19.2293 12.9717 18.5379C12.3463 17.8464 12 16.9474 12 16.0151V15.2629C12 15.1632 12.0396 15.0675 12.1101 14.997C12.1807 14.9265 12.2763 14.8868 12.3761 14.8868C12.4758 14.8868 12.5715 14.9265 12.642 14.997C12.7125 15.0675 12.7521 15.1632 12.7521 15.2629V16.0151C12.7521 16.813 13.0691 17.5782 13.6333 18.1424C14.1976 18.7067 14.9628 19.0236 15.7607 19.0236ZM18.0172 12.2543V15.924L13.6231 11.53C13.7953 11.024 14.1415 10.5955 14.6 10.3208C15.0586 10.0462 15.5997 9.94312 16.1271 10.0301C16.6545 10.117 17.1339 10.3883 17.48 10.7956C17.8261 11.2029 18.0165 11.7198 18.0172 12.2543V12.2543Z" fill="#474747"/>
<path d="M16.8968 17.4921L13.5227 14.1172V15.5313C13.5226 15.9264 13.6262 16.3146 13.8232 16.6571C14.0203 16.9996 14.3037 17.2843 14.6454 17.4829C14.987 17.6814 15.3747 17.7867 15.7699 17.7884C16.165 17.79 16.5536 17.6878 16.8968 17.4921V17.4921ZM11 10.5325L20.0257 19.5583L20.5583 19.0257L11.5325 10L11 10.5325V10.5325Z" fill="#474747"/>
</svg>
