<svg width="141" height="140" viewBox="0 0 141 140" fill="none" xmlns="http://www.w3.org/2000/svg">
<ellipse cx="70.5" cy="70" rx="70.5" ry="70" fill="#57A1D7"/>
<path d="M75.37 25.7427C78.9508 26.709 82.0097 28.4952 84.57 31.1146C87.0614 33.6636 88.7476 36.5694 89.7338 40.0135C90.1446 41.4477 90.2033 42.1013 90.2033 45.2457C90.2033 48.3793 90.1435 49.0493 89.7371 50.4817C87.7614 57.4416 82.2718 62.9251 75.5307 64.6723C68.5001 66.4944 61.3951 64.4865 56.2853 59.2335C53.9018 56.7833 52.2414 53.8873 51.2651 50.478C50.8544 49.0437 50.7957 48.3902 50.7957 45.2457C50.7957 41.1705 51.0736 39.7859 52.5053 36.7282C55.0696 31.2513 59.9147 27.2248 65.721 25.7456C67.9658 25.1735 68.222 25.1491 71.1089 25.2308C72.9629 25.2832 74.2324 25.4358 75.37 25.7427Z" fill="url(#paint0_linear_979_1138)"/>
<path d="M77.6091 74.1867C87.7673 75.9768 96.0789 80.5668 103.069 88.2468C104.57 89.8956 107.165 93.3534 107.165 93.7039C107.165 94.0749 104.529 97.5559 102.883 99.3591C96.011 106.886 87.7454 111.413 77.524 113.247C73.8376 113.909 67.1614 113.909 63.475 113.247C51.7567 111.144 42.1701 105.231 35.2259 95.8221C34.4605 94.785 33.8342 93.8318 33.8342 93.7039C33.8342 93.576 34.4582 92.6228 35.2208 91.5857C42.5748 81.5852 53.5861 75.2107 65.9394 73.8028C68.6914 73.489 74.7882 73.6896 77.6091 74.1867Z" fill="url(#paint1_linear_979_1138)"/>
<defs>
<linearGradient id="paint0_linear_979_1138" x1="70.5" y1="-8.17334" x2="70.5" y2="122" gradientUnits="userSpaceOnUse">
<stop stop-color="#EDEDED"/>
<stop offset="1" stop-color="#FFFFFE"/>
</linearGradient>
<linearGradient id="paint1_linear_979_1138" x1="70.5" y1="-8.17334" x2="70.5" y2="122" gradientUnits="userSpaceOnUse">
<stop stop-color="#EDEDED"/>
<stop offset="1" stop-color="#FFFFFE"/>
</linearGradient>
</defs>
</svg>
