<svg width="29" height="37" viewBox="0 0 29 37" fill="none" xmlns="http://www.w3.org/2000/svg">
<rect x="1.83203" y="1.05273" width="25.5" height="34" rx="4" stroke="#006BE0" stroke-width="2" stroke-linejoin="round"/>
<circle cx="9.101" cy="9.53459" r="2.32366" stroke="#006BE0" stroke-width="2"/>
<path d="M12.0084 17.9913V16.2486V16.2486C12.0084 15.2861 11.2281 14.5059 10.2656 14.5059H7.94196C6.97947 14.5059 6.19922 15.2861 6.19922 16.2486V16.2486V17.9913" stroke="#006BE0" stroke-width="2" stroke-linecap="round"/>
<path d="M17.1172 7.15234H18.3568H19.5964" stroke="#006BE0" stroke-width="2" stroke-linecap="round"/>
<line x1="17.0664" y1="12.4922" x2="22.8008" y2="12.4922" stroke="#006BE0" stroke-width="2" stroke-linecap="round"/>
<line x1="17.0664" y1="17.748" x2="22.8008" y2="17.748" stroke="#006BE0" stroke-width="2" stroke-linecap="round"/>
<path d="M6.58841 24.238L8.13412 28.8146L9.6845 24.2054C9.7652 23.9633 9.82572 23.7957 9.86607 23.7025C9.90642 23.6063 9.97315 23.521 10.0663 23.4465C10.1594 23.3689 10.2866 23.3301 10.448 23.3301C10.566 23.3301 10.6746 23.3596 10.7739 23.4185C10.8764 23.4775 10.9555 23.5567 11.0114 23.656C11.0704 23.7522 11.0998 23.85 11.0998 23.9493C11.0998 24.0176 11.0905 24.0921 11.0719 24.1728C11.0533 24.2504 11.03 24.328 11.0021 24.4056C10.9741 24.4801 10.9462 24.5576 10.9183 24.6383L9.26548 29.0986C9.2065 29.2693 9.14753 29.4322 9.08856 29.5874C9.02958 29.7395 8.9613 29.8745 8.8837 29.9925C8.80611 30.1073 8.70213 30.202 8.57177 30.2765C8.44451 30.351 8.28777 30.3882 8.10153 30.3882C7.9153 30.3882 7.75701 30.351 7.62665 30.2765C7.49939 30.2051 7.39541 30.1104 7.31471 29.9925C7.23711 29.8714 7.16883 29.7349 7.10986 29.5828C7.05088 29.4307 6.99191 29.2693 6.93294 29.0986L5.30807 24.6756C5.28014 24.5949 5.25065 24.5157 5.21961 24.4382C5.19168 24.3606 5.16685 24.2768 5.14512 24.1867C5.1265 24.0967 5.11719 24.0207 5.11719 23.9586C5.11719 23.8003 5.18082 23.656 5.30807 23.5256C5.43533 23.3953 5.59518 23.3301 5.78762 23.3301C6.02351 23.3301 6.18957 23.403 6.28579 23.5489C6.38511 23.6917 6.48598 23.9214 6.58841 24.238Z" fill="#006BE0"/>
<path d="M17.8274 28.1162C17.8274 28.3335 17.7731 28.5694 17.6645 28.8239C17.5589 29.0753 17.3913 29.3236 17.1617 29.5688C16.932 29.8109 16.6387 30.008 16.2817 30.1601C15.9248 30.3122 15.5089 30.3882 15.034 30.3882C14.6739 30.3882 14.3465 30.3541 14.0516 30.2858C13.7567 30.2175 13.4883 30.112 13.2462 29.9692C13.0072 29.8233 12.7868 29.6324 12.585 29.3965C12.405 29.1824 12.2514 28.9434 12.1241 28.6796C11.9969 28.4126 11.9006 28.1286 11.8355 27.8275C11.7734 27.5265 11.7423 27.2068 11.7423 26.8685C11.7423 26.3191 11.8215 25.8271 11.9798 25.3926C12.1412 24.958 12.3709 24.5871 12.6688 24.2799C12.9668 23.9695 13.316 23.7336 13.7164 23.5722C14.1168 23.4108 14.5436 23.3301 14.9967 23.3301C15.5492 23.3301 16.0412 23.4403 16.4726 23.6606C16.904 23.881 17.2346 24.1541 17.4643 24.4801C17.694 24.8029 17.8088 25.1086 17.8088 25.3972C17.8088 25.5555 17.7529 25.6952 17.6412 25.8163C17.5295 25.9373 17.3944 25.9978 17.2361 25.9978C17.0592 25.9978 16.9258 25.9559 16.8358 25.8721C16.7488 25.7883 16.6511 25.644 16.5424 25.4391C16.3624 25.1008 16.1498 24.8479 15.9046 24.6803C15.6625 24.5126 15.363 24.4288 15.006 24.4288C14.438 24.4288 13.9849 24.6446 13.6466 25.076C13.3113 25.5074 13.1437 26.1204 13.1437 26.915C13.1437 27.4458 13.2182 27.8881 13.3672 28.2419C13.5162 28.5926 13.7273 28.8549 14.0004 29.0287C14.2735 29.2026 14.5932 29.2895 14.9595 29.2895C15.3568 29.2895 15.692 29.1917 15.9651 28.9961C16.2414 28.7975 16.4493 28.5073 16.589 28.1255C16.648 27.9455 16.7209 27.7996 16.8078 27.6879C16.8947 27.573 17.0344 27.5156 17.2268 27.5156C17.3913 27.5156 17.5326 27.573 17.6505 27.6879C17.7685 27.8027 17.8274 27.9455 17.8274 28.1162Z" fill="#006BE0"/>
<path d="M23.149 24.5126H20.4254V26.2586H22.702C22.9131 26.2586 23.0698 26.3067 23.1723 26.4029C23.2778 26.496 23.3305 26.6217 23.3305 26.78C23.3305 26.9383 23.2778 27.064 23.1723 27.1571C23.0667 27.2502 22.91 27.2968 22.702 27.2968H20.4254V29.5455C20.4254 29.8311 20.3602 30.0437 20.2298 30.1834C20.1026 30.3199 19.938 30.3882 19.7363 30.3882C19.5314 30.3882 19.3638 30.3184 19.2335 30.1787C19.1062 30.039 19.0426 29.828 19.0426 29.5455V24.2938C19.0426 24.0952 19.0721 23.9338 19.131 23.8096C19.19 23.6824 19.2816 23.5908 19.4057 23.5349C19.533 23.476 19.6944 23.4465 19.8899 23.4465H23.149C23.3693 23.4465 23.5323 23.4961 23.6378 23.5955C23.7465 23.6917 23.8008 23.8189 23.8008 23.9772C23.8008 24.1386 23.7465 24.269 23.6378 24.3683C23.5323 24.4645 23.3693 24.5126 23.149 24.5126Z" fill="#006BE0"/>
</svg>
