<svg width="22" height="14" viewBox="0 0 22 14" fill="none" xmlns="http://www.w3.org/2000/svg">
<path d="M16.6048 5.20699V1.2218C16.604 0.920015 16.4835 0.630812 16.2696 0.417416C16.0557 0.20402 15.7658 0.083789 15.4633 0.0830078H1.7684C1.46591 0.083789 1.17603 0.20402 0.962139 0.417416C0.748246 0.630812 0.627736 0.920015 0.626953 1.2218V12.608C0.627736 12.9098 0.748246 13.199 0.962139 13.4124C1.17603 13.6257 1.46591 13.746 1.7684 13.7468H15.4633C15.7658 13.746 16.0557 13.6257 16.2696 13.4124C16.4835 13.199 16.604 12.9098 16.6048 12.608V8.62278L21.17 13.1774V0.652405L16.6048 5.20699Z" fill="white"/>
</svg>
