<svg width="13" height="9" viewBox="0 0 13 9" fill="none" xmlns="http://www.w3.org/2000/svg">
<path d="M0.422852 7.6591C0.422852 8.39869 1.02416 9 1.76375 9H7.12733C7.86691 9 8.46822 8.39869 8.46822 7.6591V2.29552C8.46822 1.55594 7.86691 0.95463 7.12733 0.95463H1.76375C1.02416 0.95463 0.422852 1.55594 0.422852 2.29552V7.6591ZM12.1368 8.24994C12.3547 8.13261 12.4909 7.90633 12.4909 7.6591V2.29552C12.4909 2.0483 12.3547 1.82202 12.1368 1.70469C11.9189 1.58736 11.6549 1.59994 11.4475 1.73821L9.43618 3.07911L9.13867 3.27815V6.67648L9.43618 6.87552L11.4475 8.21641C11.6528 8.3526 11.9168 8.36727 12.1368 8.24994Z" fill="white"/>
</svg>
