<svg width="26" height="18" viewBox="0 0 26 18" fill="none" xmlns="http://www.w3.org/2000/svg">
<path d="M0.234375 14.9375C0.234375 16.4888 1.50654 17.75 3.07125 17.75H14.4188C15.9835 17.75 17.2557 16.4888 17.2557 14.9375V3.6875C17.2557 2.13623 15.9835 0.875 14.4188 0.875H3.07125C1.50654 0.875 0.234375 2.13623 0.234375 3.6875V14.9375ZM25.0172 16.1768C25.4782 15.9307 25.7663 15.4561 25.7663 14.9375V3.6875C25.7663 3.16895 25.4782 2.69433 25.0172 2.44824C24.5562 2.20215 23.9977 2.22852 23.5588 2.51855L19.3035 5.33105L18.6741 5.74854V12.8765L19.3035 13.2939L23.5588 16.1064C23.9932 16.3921 24.5518 16.4229 25.0172 16.1768Z" fill="#474747"/>
</svg>
