<svg width="18" height="12" viewBox="0 0 18 12" fill="none" xmlns="http://www.w3.org/2000/svg">
<path d="M0 10C0 11.1031 0.896875 12 2 12H10C11.1031 12 12 11.1031 12 10V2C12 0.896875 11.1031 0 10 0H2C0.896875 0 0 0.896875 0 2V10ZM17.4719 10.8812C17.7969 10.7062 18 10.3687 18 10V2C18 1.63125 17.7969 1.29375 17.4719 1.11875C17.1469 0.943749 16.7531 0.9625 16.4438 1.16875L13.4438 3.16875L13 3.46562V8.53438L13.4438 8.83125L16.4438 10.8312C16.75 11.0344 17.1437 11.0562 17.4719 10.8812Z" fill="#57A1D7"/>
</svg>
