<svg width="12" height="9" viewBox="0 0 12 9" fill="none" xmlns="http://www.w3.org/2000/svg">
<path d="M0.294922 6.83463C0.294922 7.53127 0.861311 8.09766 1.55795 8.09766H6.61006C7.3067 8.09766 7.87309 7.53127 7.87309 6.83463V1.78252C7.87309 1.08588 7.3067 0.519492 6.61006 0.519492H1.55795C0.861311 0.519492 0.294922 1.08588 0.294922 1.78252V6.83463ZM11.3286 7.39115C11.5339 7.28064 11.6622 7.0675 11.6622 6.83463V1.78252C11.6622 1.54965 11.5339 1.33651 11.3286 1.226C11.1234 1.11548 10.8747 1.12732 10.6794 1.25757L8.78483 2.5206L8.5046 2.70808V5.90907L8.78483 6.09655L10.6794 7.35957C10.8728 7.48785 11.1214 7.50167 11.3286 7.39115Z" fill="#57A1D7"/>
</svg>
