<svg width="47" height="50" viewBox="0 0 47 50" fill="none" xmlns="http://www.w3.org/2000/svg">
<path d="M45.9991 20.606V42.645C45.9991 44.0856 45.4411 45.4673 44.4479 46.4859C43.4547 47.5046 42.1076 48.0769 40.7029 48.0769H15.9876C14.5829 48.0769 13.2358 47.5046 12.2426 46.4859C11.2494 45.4673 10.6914 44.0856 10.6914 42.645V6.43195C10.6914 4.99131 11.2494 3.60967 12.2426 2.59098C13.2358 1.57229 14.5829 1 15.9876 1H26.8833C27.8194 1.00015 28.7171 1.38155 29.3791 2.06036L44.9652 18.0461C45.6271 18.7251 45.999 19.6459 45.9991 20.606Z" stroke="#006BE0" stroke-width="2" stroke-linejoin="round"/>
<path d="M28.6155 2.96094V15.7864C28.6155 16.6935 28.9576 17.5634 29.5664 18.2048C30.1753 18.8462 31.0011 19.2065 31.8622 19.2065H44.0373M32.7694 27.7568H39.5015M27.4219 36.3071H39.5015" stroke="#006BE0" stroke-width="2" stroke-linecap="round" stroke-linejoin="round"/>
<path d="M1 13.7383H21.5963V34.923H1V13.7383Z" fill="#DFEDF7" stroke="#006BE0" stroke-width="2" stroke-linecap="round" stroke-linejoin="round"/>
<path d="M12.9931 28.8532L11.1685 22.0857L9.32066 28.8532C9.17695 29.3665 9.06146 29.7361 8.9742 29.9619C8.89208 30.1826 8.7458 30.3828 8.53535 30.5625C8.32491 30.737 8.04518 30.8242 7.69615 30.8242C7.41385 30.8242 7.18031 30.7703 6.99553 30.6625C6.81588 30.5599 6.6696 30.4136 6.55668 30.2237C6.44376 30.0286 6.35137 29.8002 6.27951 29.5385C6.20765 29.2716 6.14349 29.0252 6.08703 28.7994L4.20844 21.2003C4.09552 20.7589 4.03906 20.4227 4.03906 20.1917C4.03906 19.8992 4.14172 19.6528 4.34703 19.4526C4.55234 19.2524 4.80641 19.1523 5.10924 19.1523C5.52499 19.1523 5.80473 19.2858 5.94845 19.5527C6.09216 19.8196 6.21792 20.2071 6.3257 20.7153L7.80394 27.3057L9.45925 21.1387C9.58243 20.6665 9.69279 20.3072 9.79031 20.0608C9.88783 19.8145 10.0469 19.6015 10.2677 19.4218C10.4884 19.2422 10.7886 19.1523 11.1685 19.1523C11.5534 19.1523 11.8511 19.2473 12.0616 19.4372C12.2771 19.622 12.426 19.8247 12.5081 20.0454C12.5902 20.2662 12.7006 20.6306 12.8392 21.1387L14.5099 27.3057L15.9881 20.7153C16.06 20.3714 16.1267 20.1019 16.1883 19.9069C16.255 19.7118 16.3654 19.5373 16.5193 19.3833C16.6785 19.2293 16.9069 19.1523 17.2046 19.1523C17.5023 19.1523 17.7538 19.2524 17.9591 19.4526C18.1695 19.6477 18.2748 19.894 18.2748 20.1917C18.2748 20.4022 18.2183 20.7384 18.1054 21.2003L16.2268 28.7994C16.0985 29.3126 15.9907 29.6899 15.9034 29.9311C15.8213 30.1672 15.6776 30.3751 15.4723 30.5548C15.2721 30.7344 14.9872 30.8242 14.6177 30.8242C14.2686 30.8242 13.9889 30.737 13.7785 30.5625C13.568 30.3879 13.4217 30.1929 13.3396 29.9773C13.2575 29.7566 13.142 29.3819 12.9931 28.8532Z" fill="#006BE0"/>
</svg>
