<svg width="15" height="15" viewBox="0 0 15 15" fill="none" xmlns="http://www.w3.org/2000/svg">
<g clip-path="url(#clip0_14737_79968)">
<circle cx="7.5" cy="7.5" r="7.5" fill="#FF4738"/>
<path d="M4.98905 3.20313C5.22404 3.20285 5.45116 3.28914 5.62674 3.44531C5.80221 3.60142 5.91401 3.81653 5.9412 4.04981L6.07987 5.25586C6.11336 5.54774 6.01316 5.83526 5.80741 6.04102L4.92264 6.92578C5.61349 8.28409 6.71764 9.38828 8.07596 10.0791L8.95585 9.19824C9.05751 9.09652 9.18133 9.01987 9.31717 8.97266C9.45309 8.92542 9.59809 8.909 9.741 8.92578L10.9558 9.06445C11.439 9.12186 11.8032 9.52862 11.7986 10.0117V10.8398C11.7986 11.3805 11.3481 11.8304 10.8074 11.7969C6.726 11.5431 3.45846 8.2796 3.20487 4.19336C3.17151 3.65276 3.62128 3.20313 4.1619 3.20313H4.98905ZM7.43338 3.67676C7.88001 3.61045 8.33616 3.63267 8.7742 3.74219C9.37325 3.89238 9.92004 4.20345 10.3562 4.64063L10.5144 4.80957C10.869 5.21481 11.1232 5.69921 11.2547 6.22363C11.3643 6.6617 11.3873 7.11777 11.3211 7.56445C11.2845 7.8101 11.055 7.97969 10.8094 7.94336C10.5636 7.90679 10.394 7.67741 10.4305 7.43164C10.4793 7.10194 10.4625 6.76572 10.3816 6.44238C10.2711 6.00147 10.0433 5.59833 9.72147 5.27734L9.72049 5.27637C9.4396 4.99461 9.09545 4.7853 8.71854 4.66309L8.55545 4.61524C8.23216 4.53444 7.89582 4.51849 7.5662 4.56738C7.32039 4.60389 7.09102 4.43428 7.05448 4.18848C7.01797 3.94272 7.18767 3.71338 7.43338 3.67676ZM7.51737 5.31152C7.79892 5.26915 8.0868 5.29368 8.35721 5.38281C8.62726 5.47188 8.87302 5.62308 9.07401 5.82422C9.27557 6.0254 9.42722 6.27153 9.51639 6.54199C9.60556 6.81247 9.63009 7.10022 9.58768 7.38184C9.55069 7.6274 9.3215 7.79644 9.07596 7.75977C8.83027 7.72276 8.66115 7.49373 8.69803 7.24805C8.71941 7.10604 8.70678 6.96063 8.6619 6.82422C8.61691 6.68775 8.53995 6.56345 8.43827 6.46191L8.43729 6.46094C8.33587 6.35938 8.21224 6.28232 8.07596 6.23731C7.93946 6.1923 7.79329 6.18078 7.65116 6.20215C7.40557 6.2389 7.17644 6.06884 7.13944 5.82324C7.10271 5.57769 7.27181 5.34855 7.51737 5.31152Z" fill="white"/>
</g>
<defs>
<clipPath id="clip0_14737_79968">
<rect width="15" height="15" fill="white"/>
</clipPath>
</defs>
</svg>
