<svg width="294" height="98" viewBox="0 0 294 98" fill="none" xmlns="http://www.w3.org/2000/svg">
<g clip-path="url(#clip0_656_1213)">
<path d="M80.9273 54.0648V59.9502C81.0148 61.1117 80.6591 62.2628 79.9341 63.166C79.6131 63.5165 79.2221 63.7935 78.787 63.9782C78.352 64.1628 77.8832 64.2512 77.4118 64.237C76.947 64.2501 76.4851 64.1596 76.0583 63.9719C75.6318 63.7844 75.2507 63.5043 74.9423 63.1512C74.2392 62.2434 73.8965 61.1015 73.9815 59.9502V40.332C73.9815 37.1639 75.1096 35.5797 77.366 35.5797C77.8404 35.5369 78.3177 35.616 78.7538 35.81C79.1899 36.004 79.5707 36.3067 79.8607 36.6899C80.4388 37.6817 80.7302 38.8183 80.7015 39.9701C81.3632 38.7367 82.2279 37.6272 83.2585 36.6899C84.2569 35.9081 85.4979 35.5145 86.7574 35.5797C88.243 35.5866 89.7037 35.968 91.0079 36.6899C91.5951 36.9262 92.1021 37.3299 92.468 37.8523C92.8336 38.3747 93.0425 38.9936 93.0689 39.6337C93.0806 40.0317 93.0084 40.4278 92.8569 40.795C92.7056 41.1624 92.4784 41.4927 92.1909 41.7637C91.6926 42.2857 91.0116 42.5874 90.2957 42.6034C89.6653 42.5127 89.0467 42.352 88.4509 42.1244C87.6188 41.8327 86.7474 41.672 85.8673 41.6479C84.9672 41.6087 84.0829 41.897 83.3739 42.4608C82.6617 43.1079 82.1416 43.944 81.8724 44.8747C81.4827 46.1109 81.2347 47.3886 81.1339 48.6826C80.9986 50.1537 80.9308 51.9482 80.9308 54.066" fill="white"/>
<path d="M113.12 60.2668C111.632 61.4753 109.993 62.478 108.245 63.2485C106.567 63.9327 104.77 64.2706 102.961 64.243C101.333 64.2786 99.7216 63.911 98.2659 63.1717C96.9787 62.5173 95.8972 61.5112 95.143 60.2668C94.4207 59.0707 94.0417 57.6936 94.0488 56.2908C94.0068 54.474 94.6514 52.7097 95.8504 51.3594C97.1735 49.9328 98.9123 48.9735 100.812 48.6226C101.254 48.5194 102.349 48.2876 104.096 47.9269C105.843 47.5663 107.34 47.2347 108.588 46.9325C109.835 46.6311 111.187 46.2656 112.646 45.8359C112.682 44.3912 112.297 42.9679 111.539 41.7442C110.886 40.8748 109.533 40.4403 107.481 40.4403C106.113 40.3593 104.746 40.6164 103.498 41.1897C102.562 41.7328 101.775 42.5049 101.208 43.4355C100.568 44.4329 100.118 45.0914 99.8596 45.4107C99.6247 45.6029 99.3534 45.7442 99.0626 45.8262C98.7718 45.9081 98.4675 45.9287 98.1686 45.887C97.4252 45.8971 96.7052 45.6231 96.1518 45.1194C95.8758 44.8794 95.6558 44.5797 95.5083 44.2425C95.3607 43.9052 95.2892 43.5386 95.2991 43.1697C95.3266 41.8526 95.7831 40.5818 96.5975 39.5557C97.6635 38.2383 99.0614 37.239 100.643 36.664C102.832 35.8444 105.156 35.4589 107.489 35.5285C109.938 35.4281 112.383 35.8001 114.695 36.625C116.327 37.2491 117.655 38.4942 118.397 40.0954C119.194 42.0941 119.562 44.242 119.478 46.3963C119.478 48.0495 119.474 49.4521 119.466 50.6039C119.458 51.7559 119.445 53.0385 119.428 54.4521C119.44 55.858 119.658 57.2545 120.076 58.5951C120.392 59.4931 120.609 60.4235 120.725 61.3697C120.712 61.7537 120.615 62.13 120.441 62.4717C120.268 62.8132 120.022 63.1114 119.721 63.3449C119.097 63.9222 118.283 64.2407 117.439 64.2369C116.63 64.1921 115.871 63.8251 115.327 63.2156C114.472 62.327 113.728 61.3347 113.114 60.2607M112.656 50.0629C111.202 50.5615 109.718 50.9624 108.212 51.2632C106.27 51.6848 104.926 51.9947 104.179 52.1929C103.39 52.4138 102.659 52.8111 102.041 53.3555C101.701 53.6518 101.432 54.0237 101.255 54.4423C101.079 54.8608 101 55.3147 101.023 55.7692C101.018 56.2843 101.123 56.7943 101.33 57.2644C101.538 57.7343 101.843 58.1534 102.225 58.4928C103.085 59.2647 104.207 59.6672 105.355 59.6149C106.677 59.6277 107.983 59.3137 109.158 58.6999C110.22 58.1834 111.109 57.3623 111.715 56.3383C112.461 54.6906 112.785 52.879 112.657 51.0706L112.656 50.0629Z" fill="white"/>
<path d="M151.391 40.7476V61.2187C151.429 63.2578 151.181 65.2921 150.653 67.2602C150.225 68.8342 149.411 70.2729 148.287 71.4422C147.09 72.6084 145.624 73.4516 144.023 73.8952C141.888 74.4771 139.682 74.7466 137.471 74.6956C135.292 74.7304 133.123 74.3853 131.059 73.6758C129.427 73.1511 127.938 72.2498 126.707 71.0425C125.786 70.185 125.237 68.9926 125.18 67.7257C125.166 67.3325 125.237 66.9411 125.386 66.5779C125.535 66.2147 125.76 65.8886 126.044 65.6214C126.608 65.084 127.357 64.7918 128.131 64.8074C128.649 64.815 129.159 64.9422 129.622 65.1793C130.085 65.4164 130.489 65.7572 130.803 66.1756C131.176 66.6397 131.562 67.1087 131.961 67.5831C132.347 68.0465 132.791 68.4561 133.282 68.8016C133.813 69.1576 134.404 69.4113 135.026 69.5499C135.794 69.7226 136.58 69.8045 137.367 69.7935C138.801 69.8648 140.232 69.6045 141.553 69.0319C142.476 68.5961 143.216 67.841 143.64 66.902C144.042 65.9746 144.279 64.9825 144.34 63.9714C144.407 62.9301 144.458 61.2565 144.493 58.9512C143.528 60.3691 142.263 61.5505 140.79 62.4093C139.252 63.2349 137.529 63.6436 135.79 63.5962C133.623 63.6438 131.495 63.0128 129.694 61.789C127.909 60.5263 126.518 58.7704 125.686 56.7298C124.714 54.3507 124.237 51.7929 124.287 49.2176C124.261 47.274 124.549 45.3393 125.14 43.4904C125.645 41.8948 126.474 40.4243 127.573 39.1732C128.582 38.034 129.824 37.1313 131.211 36.5278C132.646 35.9217 134.187 35.6186 135.741 35.6371C137.512 35.592 139.268 35.986 140.856 36.785C142.438 37.6752 143.81 38.9049 144.876 40.388V39.4328C144.812 38.4063 145.13 37.3928 145.767 36.5924C146.053 36.2644 146.407 36.0039 146.802 35.8301C147.198 35.6561 147.628 35.5728 148.059 35.5859C148.584 35.5178 149.117 35.6074 149.591 35.8436C150.066 36.0801 150.462 36.4528 150.73 36.9153C151.232 38.1264 151.459 39.4368 151.392 40.7489M131.263 49.677C131.098 51.9903 131.752 54.2874 133.107 56.1559C133.686 56.865 134.417 57.4309 135.243 57.8109C136.07 58.191 136.971 58.3749 137.879 58.3492C139.034 58.3492 140.166 58.0231 141.149 57.4072C142.23 56.7173 143.099 55.7332 143.656 54.5668C144.335 53.1309 144.665 51.5505 144.617 49.9583C144.759 47.5706 144.1 45.2043 142.747 43.2455C142.173 42.4769 141.427 41.8583 140.571 41.4411C139.714 41.0237 138.772 40.8198 137.822 40.8463C136.904 40.817 135.992 41.0102 135.162 41.4097C134.332 41.8092 133.608 42.4033 133.049 43.1432C131.744 45.0543 131.115 47.3569 131.263 49.677Z" fill="white"/>
<path d="M183.128 49.9132C183.15 51.8922 182.824 53.8594 182.167 55.7231C181.563 57.43 180.608 58.9878 179.367 60.2936C178.131 61.5745 176.639 62.5717 174.991 63.2182C173.163 63.9216 171.22 64.2677 169.265 64.2382C167.325 64.2683 165.398 63.9176 163.59 63.2047C161.94 62.5407 160.449 61.5287 159.214 60.2358C157.979 58.9427 157.029 57.3984 156.427 55.7047C155.772 53.8455 155.448 51.8827 155.472 49.9083C155.449 47.9122 155.776 45.9279 156.439 44.0484C157.037 42.3523 157.983 40.8041 159.213 39.5057C160.449 38.2284 161.942 37.2373 163.59 36.6008C167.272 35.2364 171.312 35.2406 174.991 36.6128C176.651 37.2603 178.153 38.2647 179.394 39.5572C180.635 40.8495 181.586 42.3991 182.18 44.0995C182.834 45.9634 183.157 47.9299 183.134 49.9083M176.162 49.9083C176.304 47.5205 175.645 45.1543 174.292 43.1953C173.702 42.4189 172.939 41.7961 172.065 41.3789C171.19 40.9617 170.231 40.7617 169.265 40.7961C167.989 40.7715 166.736 41.1454 165.676 41.8672C164.584 42.6562 163.751 43.7601 163.285 45.0353C162.17 48.1712 162.165 51.6032 163.272 54.7421C163.738 56.0103 164.561 57.1117 165.639 57.9103C166.704 58.6542 167.973 59.038 169.265 59.007C170.232 59.0406 171.193 58.8387 172.067 58.4186C172.942 57.9984 173.705 57.372 174.292 56.5918C175.639 54.6451 176.298 52.2929 176.162 49.918" fill="white"/>
<path d="M188.037 36.2073H189.691V34.087C189.621 32.2973 189.902 30.5115 190.517 28.8326C191.05 27.5522 192.054 26.5334 193.317 25.9935C195.04 25.3264 196.879 25.0229 198.722 25.1015C202.776 25.1015 204.803 26.1089 204.804 28.1235C204.816 28.7457 204.587 29.3479 204.167 29.8014C203.981 30.0201 203.75 30.1953 203.491 30.3154C203.232 30.4354 202.951 30.4974 202.666 30.4972C202.196 30.4767 201.729 30.425 201.266 30.3424C200.71 30.2493 200.147 30.1979 199.584 30.189C198.329 30.189 197.523 30.563 197.166 31.3111C196.761 32.3309 196.58 33.4276 196.633 34.5257V36.2073H198.337C200.985 36.2073 202.308 37.0164 202.308 38.6345C202.308 39.788 201.956 40.5193 201.251 40.8278C200.32 41.1767 199.329 41.3344 198.337 41.2921H196.638V59.9562C196.716 61.1061 196.366 62.2442 195.658 63.145C195.34 63.5042 194.949 63.7883 194.511 63.9777C194.074 64.1671 193.601 64.2574 193.126 64.2418C192.662 64.2519 192.202 64.1591 191.778 63.9695C191.354 63.7801 190.975 63.4987 190.67 63.145C189.961 62.2442 189.611 61.1063 189.69 59.9562V41.2897H187.78C186.925 41.3452 186.079 41.0938 185.388 40.5794C185.118 40.3579 184.901 40.0761 184.755 39.756C184.609 39.4358 184.539 39.0859 184.548 38.7332C184.548 37.0459 185.709 36.2022 188.031 36.2022" fill="white"/>
<path d="M231.274 49.9132C231.295 51.8922 230.971 53.8596 230.312 55.7231C229.707 57.4302 228.753 58.9878 227.512 60.2936C226.277 61.5745 224.784 62.5717 223.136 63.2182C221.307 63.9218 219.365 64.2677 217.409 64.2382C215.47 64.2683 213.543 63.9174 211.734 63.2047C210.086 62.5407 208.593 61.5287 207.359 60.2358C206.124 58.9427 205.174 57.3984 204.572 55.7047C203.917 53.8455 203.593 51.8827 203.617 49.9083C203.594 47.9122 203.921 45.9279 204.584 44.0484C205.182 42.3525 206.127 40.8041 207.357 39.5057C208.593 38.2284 210.086 37.2376 211.734 36.6008C215.416 35.2364 219.455 35.2406 223.134 36.6128C224.795 37.2605 226.296 38.2651 227.537 39.5574C228.778 40.8497 229.73 42.3993 230.324 44.0995C230.979 45.9634 231.301 47.9299 231.278 49.9083M224.306 49.9083C224.448 47.5205 223.789 45.1543 222.435 43.1953C221.845 42.4187 221.082 41.7961 220.209 41.3787C219.334 40.9615 218.374 40.7617 217.409 40.7961C216.133 40.7715 214.879 41.1454 213.819 41.8672C212.728 42.6564 211.894 43.7601 211.429 45.0353C210.315 48.1712 210.308 51.603 211.416 54.7421C211.882 56.0103 212.705 57.1119 213.784 57.9103C214.848 58.6542 216.116 59.0378 217.409 59.007C218.376 59.0406 219.336 58.8389 220.211 58.4188C221.086 57.9986 221.849 57.3722 222.435 56.5918C223.784 54.6451 224.443 52.2929 224.306 49.918" fill="white"/>
<path d="M243.052 39.484V40.3369C244.108 38.8487 245.476 37.6182 247.06 36.7349C248.61 35.9459 250.325 35.5515 252.061 35.5858C253.774 35.5576 255.466 35.9771 256.973 36.8043C258.378 37.5756 259.509 38.7768 260.203 40.2369C260.665 41.1044 260.966 42.0496 261.095 43.0261C261.247 44.2935 261.313 45.5697 261.299 46.8462V59.9563C261.382 61.1064 261.041 62.2466 260.345 63.1574C260.035 63.5128 259.653 63.7943 259.222 63.9821C258.794 64.1698 258.328 64.2588 257.863 64.2432C257.387 64.2592 256.915 64.1679 256.478 63.9757C256.042 63.7836 255.653 63.4953 255.339 63.1319C254.643 62.2308 254.298 61.0997 254.373 59.9563V48.2098C254.47 46.3816 254.142 44.5559 253.419 42.8787C252.782 41.6488 251.514 41.0336 249.615 41.0327C248.396 41.0268 247.207 41.421 246.228 42.1561C245.191 42.9314 244.412 44.0077 243.99 45.2426C243.561 47.1725 243.391 49.1521 243.482 51.1282V59.9576C243.57 61.1168 243.218 62.2663 242.501 63.1732C242.181 63.5259 241.788 63.8038 241.352 63.9888C240.915 64.1736 240.443 64.2607 239.969 64.2442C239.504 64.2565 239.038 64.163 238.612 63.9709C238.186 63.7785 237.805 63.4925 237.5 63.1331C236.803 62.2319 236.458 61.1007 236.533 59.9576V39.5863C236.452 38.5104 236.76 37.441 237.4 36.579C237.697 36.2458 238.063 35.9838 238.473 35.8117C238.882 35.6398 239.325 35.5622 239.768 35.5846C240.348 35.5768 240.919 35.7282 241.42 36.0233C241.932 36.3373 242.343 36.7944 242.603 37.3394C242.919 38.0076 243.071 38.7424 243.05 39.4827" fill="white"/>
<path d="M287.616 51.6422H274.019C274.006 53.1104 274.333 54.5615 274.975 55.8778C275.501 56.9986 276.334 57.9425 277.374 58.5965C278.413 59.2508 279.617 59.5878 280.841 59.5674C281.61 59.5766 282.379 59.4771 283.123 59.2712C283.83 59.0641 284.504 58.7511 285.121 58.3428C285.747 57.9349 286.341 57.4812 286.903 56.9853C287.445 56.5053 288.15 55.8512 289.014 55.0236C289.451 54.6872 289.994 54.5222 290.54 54.5594C291.17 54.5305 291.787 54.7416 292.272 55.1514C292.496 55.3649 292.673 55.6258 292.787 55.916C292.902 56.2062 292.952 56.5186 292.933 56.8305C292.883 57.6276 292.629 58.3976 292.195 59.0641C291.613 60.0172 290.856 60.8495 289.969 61.5171C288.838 62.3738 287.574 63.0327 286.227 63.4668C284.554 64.0095 282.805 64.2712 281.049 64.2417C276.586 64.2417 273.117 62.9509 270.641 60.3693C269.365 58.9561 268.377 57.2992 267.739 55.495C267.101 53.6908 266.824 51.7759 266.924 49.8619C266.908 47.8915 267.217 45.9323 267.841 44.0665C268.404 42.3653 269.315 40.8036 270.514 39.4837C271.718 38.1866 273.196 37.1843 274.838 36.5531C276.659 35.8535 278.592 35.5076 280.538 35.5333C282.978 35.4635 285.393 36.0652 287.524 37.2746C289.366 38.3332 290.877 39.8952 291.887 41.7831C292.825 43.5082 293.324 45.443 293.338 47.4127C293.338 49.1852 292.837 50.3339 291.837 50.8586C290.507 51.45 289.062 51.7196 287.611 51.6458M274.019 47.6405H286.616C286.609 45.6672 285.93 43.7569 284.695 42.2326C284.13 41.6349 283.448 41.1656 282.691 40.856C281.934 40.5465 281.12 40.404 280.305 40.4377C279.507 40.4132 278.715 40.563 277.979 40.877C277.243 41.1913 276.582 41.6623 276.041 42.2583C274.809 43.7809 274.098 45.6707 274.019 47.6405Z" fill="white"/>
<path d="M12.7828 15.6238C12.7828 27.3375 12.6555 37.8008 12.8105 48.2534C12.8635 53.1966 13.9022 58.0777 15.8639 62.6029C17.8257 67.1278 20.67 71.2034 24.2254 74.5835C27.7808 77.9639 31.9739 80.5792 36.5521 82.2718C41.1302 83.9644 45.9987 84.6994 50.8641 84.4326C59.9299 83.9794 67.6384 80.1677 74.5758 73.874L82.4213 82.5329C71.6237 96.1901 41.7792 105.422 18.0748 85.5707C13.1072 81.3944 9.01878 76.2466 6.05297 70.4337C3.08719 64.6211 1.30466 58.2622 0.81156 51.736C0.318459 45.2099 1.12486 38.6498 3.18275 32.4463C5.24062 26.2431 8.50792 20.5231 12.79 15.6274" fill="white"/>
<path d="M36.8775 0V35.3299H60.7008V47.8077H37.4096C37.8239 58.8097 46.9822 62.8173 58.8476 56.1045C59.8294 57.5332 60.9249 58.8782 62.1228 60.1256C63.3087 61.5874 64.6335 62.9274 66.0782 64.126C63.2081 67.6785 59.3445 70.2651 54.9964 71.5452C50.6484 72.8252 46.02 72.7388 41.7215 71.2969C32.3122 68.3591 25.0601 59.4359 24.8187 49.4026C24.4872 35.6334 24.6614 21.8469 24.7742 8.07027C24.7934 7.36349 24.9657 6.66962 25.2785 6.03787C25.5916 5.40613 26.0379 4.85197 26.5854 4.41472C29.611 2.77702 32.9055 1.6511 36.8775 0Z" fill="white"/>
</g>
<defs>
<clipPath id="clip0_656_1213">
<rect width="292.681" height="97.0213" fill="white" transform="translate(0.65918)"/>
</clipPath>
</defs>
</svg>
