<svg width="343" height="115" viewBox="0 0 343 115" fill="none" xmlns="http://www.w3.org/2000/svg">
<g clip-path="url(#clip0_1055_9626)">
<path d="M93.806 63.7353V70.6372C93.9082 71.9993 93.4926 73.3493 92.6452 74.4084C92.2702 74.8195 91.8132 75.1443 91.3048 75.361C90.7963 75.5774 90.2485 75.681 89.6975 75.6644C89.1543 75.6798 88.6146 75.5737 88.1158 75.3535C87.6173 75.1336 87.172 74.8052 86.8115 74.3911C85.99 73.3266 85.5894 71.9874 85.6887 70.6372V47.6308C85.6887 43.9155 87.0071 42.0577 89.6441 42.0577C90.1985 42.0075 90.7562 42.1002 91.2659 42.3278C91.7756 42.5554 92.2206 42.9103 92.5595 43.3597C93.2351 44.5227 93.5757 45.8557 93.5421 47.2064C94.3154 45.7599 95.326 44.4589 96.5304 43.3597C97.6972 42.4428 99.1475 41.9813 100.619 42.0577C102.356 42.0659 104.063 42.5131 105.587 43.3597C106.273 43.6367 106.866 44.1102 107.293 44.7228C107.72 45.3355 107.965 46.0612 107.995 46.8119C108.009 47.2786 107.925 47.7431 107.748 48.1738C107.571 48.6046 107.305 48.992 106.969 49.3098C106.387 49.922 105.591 50.2757 104.755 50.2945C104.018 50.1881 103.295 49.9996 102.599 49.7328C101.626 49.3907 100.608 49.2022 99.5792 49.174C98.5273 49.128 97.4939 49.4661 96.6652 50.1273C95.833 50.8861 95.2251 51.8666 94.9106 52.9581C94.4551 54.4078 94.1653 55.9062 94.0474 57.4236C93.8893 59.1489 93.8101 61.2533 93.8101 63.7368" fill="white"/>
<path d="M131.428 71.0089C129.69 72.4262 127.775 73.602 125.732 74.5056C123.77 75.308 121.67 75.7042 119.556 75.6718C117.654 75.7136 115.77 75.2825 114.069 74.4156C112.565 73.648 111.301 72.4682 110.42 71.0089C109.576 69.6062 109.133 67.9913 109.141 66.3462C109.092 64.2156 109.845 62.1466 111.246 60.5631C112.793 58.8901 114.825 57.7652 117.045 57.3536C117.561 57.2326 118.841 56.9608 120.882 56.5378C122.924 56.1149 124.674 55.7261 126.132 55.3716C127.589 55.0182 129.17 54.5895 130.875 54.0857C130.917 52.3914 130.466 50.7223 129.581 49.2872C128.818 48.2677 127.237 47.7582 124.838 47.7582C123.24 47.6632 121.642 47.9647 120.184 48.637C119.09 49.2739 118.17 50.1794 117.508 51.2707C116.759 52.4404 116.234 53.2126 115.932 53.587C115.657 53.8124 115.34 53.9781 115 54.0743C114.661 54.1703 114.305 54.1945 113.956 54.1455C113.087 54.1574 112.245 53.8361 111.599 53.2455C111.276 52.964 111.019 52.6125 110.847 52.217C110.674 51.8215 110.59 51.3916 110.602 50.959C110.634 49.4144 111.168 47.9241 112.119 46.7208C113.365 45.1759 114.999 44.004 116.847 43.3297C119.406 42.3686 122.122 41.9164 124.848 41.998C127.71 41.8803 130.568 42.3166 133.27 43.284C135.177 44.0159 136.729 45.4759 137.596 47.3538C138.527 49.6976 138.958 52.2165 138.859 54.7429C138.859 56.6816 138.854 58.3264 138.845 59.6771C138.836 61.0281 138.821 62.5322 138.8 64.1899C138.815 65.8387 139.07 67.4763 139.558 69.0485C139.927 70.1016 140.181 71.1927 140.316 72.3022C140.301 72.7527 140.188 73.1939 139.985 73.5946C139.782 73.9951 139.494 74.3448 139.143 74.6186C138.414 75.2956 137.462 75.6691 136.476 75.6646C135.53 75.6122 134.643 75.1818 134.008 74.467C133.009 73.4249 132.14 72.2612 131.421 71.0017M130.886 59.0427C129.187 59.6274 127.452 60.0976 125.693 60.4503C123.423 60.9448 121.852 61.3081 120.979 61.5406C120.057 61.7996 119.203 62.2656 118.481 62.904C118.083 63.2515 117.769 63.6875 117.563 64.1785C117.357 64.6692 117.264 65.2015 117.292 65.7346C117.286 66.3386 117.408 66.9366 117.651 67.488C117.893 68.039 118.249 68.5305 118.696 68.9285C119.701 69.8338 121.013 70.3057 122.354 70.2444C123.899 70.2594 125.425 69.8912 126.799 69.1714C128.04 68.5656 129.079 67.6027 129.787 66.4019C130.658 64.4696 131.037 62.3452 130.888 60.2245L130.886 59.0427Z" fill="white"/>
<path d="M176.153 48.1183V72.1249C176.198 74.5162 175.908 76.9018 175.292 79.2098C174.791 81.0557 173.84 82.7429 172.526 84.1141C171.128 85.4817 169.415 86.4706 167.543 86.9907C165.048 87.6731 162.47 87.9892 159.887 87.9294C157.34 87.9702 154.805 87.5655 152.392 86.7335C150.486 86.1181 148.745 85.0612 147.307 83.6454C146.231 82.6397 145.589 81.2415 145.522 79.7557C145.506 79.2946 145.588 78.8356 145.763 78.4097C145.937 77.9837 146.2 77.6013 146.532 77.2879C147.191 76.6577 148.066 76.3151 148.97 76.3335C149.576 76.3424 150.172 76.4915 150.714 76.7695C151.255 77.0475 151.726 77.4472 152.093 77.938C152.529 78.4821 152.981 79.0322 153.447 79.5885C153.897 80.1319 154.417 80.6122 154.991 81.0174C155.611 81.4349 156.302 81.7325 157.029 81.895C157.927 82.0975 158.845 82.1935 159.764 82.1806C161.44 82.2642 163.113 81.959 164.656 81.2875C165.735 80.7765 166.6 79.891 167.096 78.7898C167.566 77.7022 167.843 76.5387 167.914 75.353C167.992 74.1319 168.051 72.1692 168.092 69.4657C166.964 71.1286 165.486 72.514 163.765 73.5212C161.967 74.4893 159.954 74.9686 157.922 74.913C155.389 74.9689 152.902 74.2288 150.798 72.7937C148.711 71.3129 147.086 69.2538 146.114 66.8607C144.977 64.0707 144.42 61.0712 144.479 58.0511C144.448 55.7718 144.785 53.503 145.475 51.3347C146.066 49.4636 147.034 47.7391 148.319 46.2719C149.498 44.936 150.949 43.8774 152.571 43.1697C154.247 42.4588 156.048 42.1034 157.864 42.1252C159.934 42.0722 161.986 42.5343 163.842 43.4712C165.691 44.5152 167.294 45.9573 168.54 47.6966V46.5764C168.466 45.3725 168.837 44.1841 169.582 43.2454C169.916 42.8608 170.329 42.5553 170.791 42.3515C171.254 42.1474 171.756 42.0497 172.26 42.0651C172.873 41.9852 173.496 42.0903 174.051 42.3673C174.606 42.6446 175.068 43.0816 175.382 43.6241C175.969 45.0443 176.233 46.5811 176.155 48.1198M152.631 58.5898C152.439 61.3027 153.202 63.9965 154.786 66.1877C155.463 67.0193 156.316 67.6829 157.283 68.1286C158.249 68.5743 159.302 68.79 160.362 68.7598C161.712 68.7598 163.036 68.3774 164.184 67.6552C165.448 66.8461 166.463 65.692 167.114 64.3242C167.908 62.6403 168.293 60.787 168.237 58.9198C168.404 56.1196 167.633 53.3447 166.051 51.0476C165.381 50.1463 164.51 49.4208 163.509 48.9316C162.508 48.4421 161.406 48.2029 160.296 48.2341C159.223 48.1997 158.158 48.4262 157.188 48.8947C156.218 49.3632 155.371 50.0599 154.718 50.9276C153.193 53.1688 152.458 55.869 152.631 58.5898Z" fill="white"/>
<path d="M213.244 58.8671C213.269 61.1879 212.889 63.4949 212.121 65.6804C211.414 67.6821 210.299 69.509 208.849 71.0403C207.404 72.5424 205.66 73.7119 203.734 74.47C201.598 75.2948 199.327 75.7007 197.043 75.6661C194.776 75.7015 192.524 75.2901 190.411 74.4541C188.483 73.6755 186.74 72.4887 185.297 70.9725C183.853 69.4561 182.743 67.645 182.039 65.6589C181.274 63.4785 180.896 61.1768 180.923 58.8614C180.897 56.5205 181.279 54.1935 182.053 51.9894C182.752 50.0003 183.857 48.1848 185.296 46.6622C186.739 45.1643 188.484 44.002 190.411 43.2555C194.714 41.6555 199.435 41.6604 203.734 43.2696C205.674 44.029 207.43 45.2068 208.88 46.7225C210.33 48.238 211.441 50.0552 212.136 52.0493C212.901 54.2351 213.278 56.5413 213.251 58.8614M205.103 58.8614C205.269 56.0612 204.499 53.2863 202.917 50.9889C202.228 50.0785 201.336 49.3481 200.314 48.8588C199.293 48.3696 198.171 48.1351 197.043 48.1754C195.551 48.1465 194.087 48.585 192.849 49.4314C191.573 50.3567 190.599 51.6513 190.054 53.1468C188.751 56.8243 188.745 60.849 190.039 64.53C190.584 66.0173 191.546 67.3089 192.805 68.2453C194.049 69.1177 195.533 69.5679 197.043 69.5315C198.173 69.5708 199.296 69.3341 200.318 68.8414C201.34 68.3487 202.231 67.6141 202.917 66.6992C204.492 64.4162 205.262 61.6578 205.103 58.8728" fill="white"/>
<path d="M218.981 42.7932H220.914V40.3067C220.833 38.208 221.161 36.1137 221.879 34.1449C222.502 32.6433 223.676 31.4486 225.151 30.8154C227.165 30.0331 229.315 29.6771 231.468 29.7694C236.206 29.7694 238.575 30.9507 238.576 33.3133C238.59 34.043 238.323 34.7491 237.832 35.2809C237.614 35.5374 237.345 35.743 237.042 35.8837C236.739 36.0244 236.41 36.0972 236.077 36.0969C235.529 36.0729 234.982 36.0123 234.441 35.9154C233.791 35.8063 233.134 35.7459 232.476 35.7356C231.009 35.7356 230.067 36.1741 229.65 37.0514C229.177 38.2473 228.964 39.5335 229.027 40.8212V42.7932H231.019C234.112 42.7932 235.659 43.742 235.659 45.6397C235.659 46.9924 235.247 47.8499 234.424 48.2118C233.336 48.6209 232.178 48.8059 231.019 48.7562H229.033V70.6438C229.124 71.9923 228.715 73.327 227.887 74.3834C227.516 74.8046 227.059 75.1378 226.548 75.3599C226.036 75.582 225.484 75.6879 224.928 75.6696C224.386 75.6814 223.849 75.5726 223.353 75.3503C222.857 75.1281 222.415 74.7982 222.058 74.3834C221.229 73.327 220.821 71.9926 220.912 70.6438V48.7535H218.681C217.682 48.8185 216.692 48.5237 215.886 47.9204C215.57 47.6607 215.316 47.3303 215.146 46.9548C214.975 46.5793 214.893 46.169 214.903 45.7554C214.903 43.7767 216.26 42.7873 218.974 42.7873" fill="white"/>
<path d="M269.511 58.8671C269.535 61.1879 269.156 63.4951 268.386 65.6804C267.679 67.6824 266.564 69.509 265.114 71.0403C263.671 72.5424 261.926 73.7119 260 74.47C257.862 75.2951 255.593 75.7007 253.307 75.6661C251.041 75.7015 248.789 75.2899 246.675 74.4541C244.749 73.6755 243.005 72.4887 241.562 70.9725C240.119 69.4561 239.009 67.645 238.305 65.6589C237.539 63.4785 237.161 61.1768 237.189 58.8614C237.162 56.5205 237.545 54.1935 238.319 51.9894C239.017 50.0006 240.122 48.1848 241.56 46.6622C243.005 45.1643 244.749 44.0023 246.675 43.2555C250.978 41.6555 255.698 41.6604 259.998 43.2696C261.939 44.0292 263.692 45.2073 265.143 46.7228C266.593 48.2382 267.706 50.0555 268.4 52.0493C269.166 54.2351 269.542 56.5413 269.516 58.8614M261.368 58.8614C261.533 56.0612 260.763 53.2863 259.181 50.9889C258.491 50.0782 257.6 49.3481 256.58 48.8586C255.557 48.3693 254.434 48.1351 253.307 48.1754C251.816 48.1465 250.351 48.585 249.112 49.4314C247.836 50.357 246.862 51.6513 246.318 53.1468C245.016 56.8243 245.009 60.8488 246.304 64.53C246.848 66.0173 247.81 67.3091 249.071 68.2453C250.314 69.1177 251.796 69.5676 253.307 69.5315C254.437 69.5708 255.559 69.3344 256.582 68.8417C257.605 68.349 258.496 67.6144 259.181 66.6992C260.758 64.4162 261.528 61.6578 261.368 58.8728" fill="white"/>
<path d="M283.276 46.6364V47.6366C284.51 45.8914 286.108 44.4484 287.959 43.4125C289.772 42.4872 291.776 42.0247 293.804 42.065C295.806 42.0318 297.783 42.5238 299.545 43.4939C301.187 44.3984 302.508 45.807 303.32 47.5194C303.859 48.5367 304.211 49.645 304.362 50.7902C304.539 52.2765 304.617 53.7732 304.6 55.2701V70.6445C304.697 71.9932 304.299 73.3304 303.485 74.3984C303.123 74.8152 302.676 75.1454 302.173 75.3655C301.673 75.5856 301.129 75.69 300.584 75.6717C300.028 75.6905 299.477 75.5834 298.967 75.3581C298.456 75.1328 298.002 74.7946 297.635 74.3685C296.821 73.3118 296.418 71.9853 296.506 70.6445V56.8692C296.62 54.7252 296.236 52.5842 295.391 50.6173C294.647 49.1751 293.165 48.4536 290.945 48.4526C289.521 48.4457 288.132 48.908 286.988 49.77C285.775 50.6792 284.864 51.9414 284.371 53.3896C283.871 55.6528 283.672 57.9743 283.779 60.2917V70.6459C283.881 72.0053 283.47 73.3534 282.632 74.4169C282.258 74.8305 281.799 75.1565 281.289 75.3734C280.778 75.5901 280.227 75.6922 279.673 75.673C279.129 75.6873 278.585 75.5777 278.087 75.3524C277.589 75.1268 277.144 74.7914 276.787 74.3699C275.973 73.313 275.57 71.9865 275.657 70.6459V46.7563C275.563 45.4946 275.922 44.2406 276.67 43.2297C277.018 42.8389 277.445 42.5317 277.924 42.3299C278.403 42.1283 278.92 42.0373 279.437 42.0635C280.115 42.0543 280.783 42.2319 281.369 42.578C281.966 42.9463 282.447 43.4822 282.751 44.1214C283.12 44.905 283.298 45.7667 283.273 46.6349" fill="white"/>
<path d="M335.355 60.8943H319.465C319.45 62.616 319.832 64.3178 320.582 65.8614C321.197 67.1758 322.171 68.2827 323.386 69.0497C324.6 69.8169 326.007 70.2122 327.438 70.1882C328.337 70.1991 329.235 70.0823 330.105 69.8409C330.931 69.598 331.718 69.231 332.44 68.7521C333.171 68.2738 333.866 67.7417 334.522 67.1602C335.156 66.5973 335.979 65.8303 336.99 64.8597C337.5 64.4652 338.134 64.2718 338.773 64.3153C339.509 64.2814 340.23 64.529 340.796 65.0096C341.059 65.2599 341.265 65.5659 341.399 65.9062C341.532 66.2465 341.591 66.6129 341.569 66.9787C341.511 67.9134 341.214 68.8164 340.707 69.598C340.026 70.7158 339.142 71.6918 338.105 72.4746C336.783 73.4793 335.306 74.252 333.732 74.7611C331.776 75.3975 329.733 75.7044 327.681 75.6698C322.465 75.6698 318.41 74.1561 315.517 71.1286C314.026 69.4714 312.872 67.5283 312.126 65.4125C311.38 63.2967 311.057 61.0511 311.174 58.8065C311.154 56.4958 311.516 54.1982 312.245 52.0102C312.903 50.0152 313.967 48.1838 315.369 46.636C316.776 45.1148 318.503 43.9394 320.422 43.1991C322.55 42.3787 324.809 41.973 327.083 42.0032C329.935 41.9213 332.758 42.627 335.248 44.0453C337.4 45.2867 339.166 47.1185 340.347 49.3325C341.443 51.3555 342.026 53.6244 342.043 55.9343C342.043 58.013 341.457 59.36 340.289 59.9754C338.734 60.669 337.046 60.9851 335.35 60.8985M319.465 56.2015H334.186C334.179 53.8873 333.385 51.6471 331.942 49.8596C331.281 49.1586 330.484 48.6083 329.6 48.2452C328.716 47.8823 327.763 47.7151 326.811 47.7547C325.878 47.726 324.953 47.9016 324.093 48.2699C323.233 48.6384 322.46 49.1908 321.828 49.8898C320.388 51.6753 319.557 53.8915 319.465 56.2015Z" fill="white"/>
<path d="M14.1684 18.656C14.1684 32.3928 14.0196 44.6633 14.2007 56.9211C14.2627 62.7181 15.4765 68.4421 17.7692 73.7488C20.0618 79.0553 23.3858 83.8347 27.5409 87.7986C31.6959 91.7628 36.5963 94.8299 41.9466 96.8148C47.2968 98.7997 52.9865 99.6617 58.6725 99.3488C69.2674 98.8173 78.2759 94.3473 86.3834 86.9666L95.5521 97.121C82.9333 113.137 48.0553 123.963 20.3529 100.683C14.5475 95.7858 9.76951 89.7489 6.30349 82.9322C2.8375 76.1156 0.754324 68.6585 0.178057 61.0052C-0.39821 53.3519 0.544198 45.6588 2.94917 38.384C5.35412 31.1094 9.17249 24.4015 14.1768 18.6603" fill="white"/>
<path d="M42.327 0.33374V41.7654H70.1684V56.3982H42.9489C43.4331 69.3004 54.1361 74.0002 68.0027 66.128C69.1501 67.8035 70.4303 69.3808 71.8303 70.8436C73.2162 72.5579 74.7644 74.1293 76.4528 75.5349C73.0986 79.7009 68.5833 82.7343 63.502 84.2355C58.4206 85.7366 53.0115 85.6352 47.988 83.9443C36.9918 80.4991 28.5165 70.0348 28.2344 58.2686C27.847 42.1214 28.0506 25.9538 28.1825 9.79783C28.2048 8.96898 28.4062 8.15527 28.7718 7.4144C29.1377 6.67356 29.6592 6.02369 30.2991 5.51093C33.8349 3.59038 37.6851 2.27 42.327 0.33374Z" fill="white"/>
</g>
<defs>
<clipPath id="clip0_1055_9626">
<rect width="342.044" height="113.778" fill="white" transform="translate(0 0.333984)"/>
</clipPath>
</defs>
</svg>
