<svg width="86" height="19" viewBox="0 0 86 19" fill="none" xmlns="http://www.w3.org/2000/svg">
<g clip-path="url(#clip0_12332_13678)">
<g clip-path="url(#clip1_12332_13678)">
<path d="M13.3335 10.4226V11.4034C13.348 11.597 13.2889 11.7889 13.1685 11.9394C13.1152 11.9978 13.0503 12.044 12.978 12.0748C12.9057 12.1055 12.8279 12.1203 12.7496 12.1179C12.6724 12.1201 12.5957 12.105 12.5248 12.0737C12.4539 12.0425 12.3907 11.9958 12.3394 11.937C12.2227 11.7857 12.1657 11.5953 12.1799 11.4034V8.13378C12.1799 7.60576 12.3672 7.34173 12.742 7.34173C12.8208 7.33459 12.9 7.34778 12.9725 7.38012C13.0449 7.41246 13.1082 7.4629 13.1563 7.52677C13.2523 7.69206 13.3007 7.88149 13.296 8.07346C13.4059 7.86789 13.5495 7.68299 13.7207 7.52677C13.8865 7.39646 14.0926 7.33087 14.3018 7.34173C14.5485 7.34289 14.7912 7.40645 15.0078 7.52677C15.1053 7.56614 15.1895 7.63342 15.2503 7.7205C15.311 7.80757 15.3457 7.91071 15.3501 8.01739C15.352 8.08373 15.34 8.14974 15.3149 8.21094C15.2897 8.27218 15.252 8.32723 15.2042 8.3724C15.1215 8.4594 15.0084 8.50967 14.8895 8.51234C14.7848 8.49722 14.682 8.47044 14.5831 8.43251C14.4449 8.38389 14.3001 8.35711 14.154 8.3531C14.0045 8.34656 13.8576 8.39461 13.7398 8.48858C13.6215 8.59642 13.5352 8.73577 13.4905 8.89089C13.4257 9.09692 13.3845 9.30988 13.3678 9.52554C13.3453 9.77072 13.3341 10.0698 13.3341 10.4228" fill="white"/>
<path d="M18.6795 11.4538C18.4324 11.6552 18.1603 11.8224 17.87 11.9508C17.5911 12.0648 17.2927 12.1211 16.9922 12.1165C16.7219 12.1224 16.4542 12.0612 16.2125 11.938C15.9987 11.8289 15.819 11.6612 15.6938 11.4538C15.5738 11.2545 15.5109 11.025 15.512 10.7912C15.5051 10.4884 15.6121 10.1943 15.8113 9.96926C16.031 9.73149 16.3198 9.57162 16.6353 9.51312C16.7087 9.49594 16.8906 9.4573 17.1807 9.39719C17.4709 9.33708 17.7196 9.28182 17.9268 9.23145C18.1339 9.18122 18.3586 9.1203 18.6009 9.04869C18.6068 8.8079 18.5428 8.57069 18.417 8.36674C18.3086 8.22184 18.0839 8.14942 17.7429 8.14942C17.5157 8.13593 17.2887 8.17878 17.0814 8.27432C16.926 8.36484 16.7953 8.49353 16.7012 8.64862C16.5948 8.81486 16.5201 8.9246 16.4772 8.97782C16.4381 9.00985 16.3931 9.0334 16.3448 9.04707C16.2965 9.06071 16.2459 9.06416 16.1963 9.0572C16.0728 9.05889 15.9532 9.01322 15.8613 8.92928C15.8155 8.88928 15.779 8.83932 15.7544 8.78312C15.7299 8.72691 15.7181 8.66581 15.7197 8.60433C15.7243 8.3848 15.8001 8.17301 15.9354 8.00199C16.1124 7.78243 16.3446 7.61588 16.6072 7.52006C16.9709 7.38345 17.3569 7.3192 17.7443 7.3308C18.151 7.31406 18.5572 7.37607 18.9412 7.51355C19.2123 7.61757 19.4328 7.82507 19.556 8.09195C19.6884 8.42505 19.7496 8.78304 19.7356 9.14209C19.7356 9.41762 19.7349 9.65138 19.7336 9.84335C19.7322 10.0353 19.7301 10.2491 19.7272 10.4847C19.7292 10.719 19.7655 10.9518 19.8349 11.1752C19.8873 11.3249 19.9234 11.4799 19.9426 11.6376C19.9405 11.7016 19.9244 11.7644 19.8956 11.8213C19.8668 11.8782 19.8258 11.9279 19.7759 11.9668C19.6723 12.063 19.537 12.1161 19.3968 12.1155C19.2625 12.108 19.1364 12.0469 19.0462 11.9453C18.9041 11.7972 18.7806 11.6318 18.6785 11.4528M18.6025 9.75318C18.3611 9.83628 18.1145 9.9031 17.8644 9.95323C17.5419 10.0235 17.3186 10.0751 17.1945 10.1082C17.0635 10.145 16.9421 10.2112 16.8394 10.3019C16.7829 10.3513 16.7383 10.4133 16.709 10.4831C16.6797 10.5528 16.6665 10.6285 16.6705 10.7042C16.6696 10.7901 16.687 10.8751 16.7214 10.9534C16.7558 11.0317 16.8065 11.1016 16.8699 11.1581C17.0128 11.2868 17.1992 11.3539 17.3898 11.3452C17.6094 11.3473 17.8263 11.295 18.0216 11.1927C18.1979 11.1066 18.3456 10.9697 18.4463 10.7991C18.5701 10.5245 18.6239 10.2225 18.6027 9.92114L18.6025 9.75318Z" fill="white"/>
<path d="M25.0354 8.20382V11.6156C25.0418 11.9555 25.0006 12.2945 24.9129 12.6225C24.8417 12.8849 24.7066 13.1247 24.5199 13.3195C24.3211 13.5139 24.0777 13.6544 23.8117 13.7284C23.4571 13.8254 23.0907 13.8703 22.7236 13.8618C22.3616 13.8676 22.0014 13.8101 21.6585 13.6918C21.3875 13.6044 21.1401 13.4541 20.9357 13.2529C20.7828 13.11 20.6915 12.9113 20.682 12.7001C20.6798 12.6346 20.6915 12.5694 20.7163 12.5088C20.7411 12.4483 20.7784 12.394 20.8256 12.3494C20.9193 12.2598 21.0437 12.2112 21.1721 12.2138C21.2583 12.215 21.343 12.2362 21.4199 12.2757C21.4968 12.3152 21.5638 12.3721 21.616 12.4418C21.678 12.5191 21.7421 12.5973 21.8083 12.6764C21.8724 12.7536 21.9461 12.8219 22.0277 12.8794C22.1159 12.9388 22.2141 12.9811 22.3174 13.0042C22.445 13.033 22.5755 13.0466 22.7062 13.0448C22.9444 13.0566 23.1821 13.0133 23.4014 12.9178C23.5547 12.8452 23.6776 12.7194 23.7481 12.5629C23.8149 12.4083 23.8543 12.2429 23.8644 12.0744C23.8754 11.9009 23.8839 11.6219 23.8897 11.2377C23.7294 11.474 23.5193 11.6709 23.2747 11.8141C23.0193 11.9517 22.7332 12.0198 22.4443 12.0119C22.0844 12.0198 21.7309 11.9146 21.4319 11.7107C21.1353 11.5002 20.9043 11.2076 20.7662 10.8675C20.6046 10.471 20.5255 10.0447 20.5338 9.61547C20.5294 9.29154 20.5773 8.96909 20.6754 8.66095C20.7593 8.39502 20.897 8.14994 21.0796 7.94141C21.2472 7.75155 21.4534 7.6011 21.6838 7.50053C21.9221 7.3995 22.178 7.34899 22.4361 7.35208C22.7304 7.34456 23.022 7.41022 23.2857 7.54338C23.5485 7.69176 23.7764 7.8967 23.9534 8.14389V7.98468C23.9428 7.8136 23.9956 7.64469 24.1014 7.51129C24.1489 7.45663 24.2076 7.41321 24.2733 7.38425C24.3391 7.35525 24.4104 7.34136 24.482 7.34354C24.5692 7.33219 24.6577 7.34713 24.7365 7.3865C24.8154 7.4259 24.8812 7.48802 24.9257 7.56511C25.0091 7.76695 25.0467 7.98535 25.0356 8.20403M21.6924 9.69203C21.665 10.0776 21.7736 10.4604 21.9986 10.7718C22.0948 10.89 22.2162 10.9843 22.3535 11.0477C22.4908 11.111 22.6405 11.1417 22.7912 11.1374C22.983 11.1374 23.1711 11.083 23.3344 10.9804C23.514 10.8654 23.6582 10.7014 23.7507 10.507C23.8636 10.2677 23.9183 10.0043 23.9103 9.73893C23.934 9.34097 23.8245 8.94659 23.5997 8.62013C23.5044 8.49204 23.3806 8.38894 23.2383 8.3194C23.096 8.24984 22.9395 8.21585 22.7818 8.22027C22.6293 8.21539 22.4778 8.24759 22.34 8.31417C22.2021 8.38075 22.0818 8.47977 21.989 8.60308C21.7723 8.9216 21.6678 9.30536 21.6924 9.69203Z" fill="white"/>
<path d="M30.3065 9.7325C30.3101 10.0623 30.256 10.3902 30.1469 10.7008C30.0465 10.9853 29.888 11.2449 29.6819 11.4626C29.4766 11.676 29.2287 11.8422 28.955 11.95C28.6513 12.0672 28.3287 12.1249 28.004 12.12C27.6819 12.125 27.3618 12.0665 27.0614 11.9477C26.7874 11.8371 26.5397 11.6684 26.3346 11.4529C26.1295 11.2374 25.9717 10.98 25.8717 10.6977C25.7629 10.3879 25.7092 10.0608 25.7131 9.73169C25.7093 9.39901 25.7637 9.0683 25.8737 8.75505C25.973 8.47236 26.1301 8.21434 26.3345 7.99794C26.5397 7.78506 26.7877 7.61988 27.0614 7.51379C27.673 7.28639 28.3439 7.28709 28.955 7.51579C29.2307 7.62371 29.4802 7.7911 29.6863 8.00652C29.8924 8.2219 30.0503 8.48016 30.1491 8.76356C30.2577 9.0742 30.3113 9.40196 30.3075 9.73169M29.1494 9.73169C29.1731 9.33373 29.0636 8.93936 28.8389 8.61286C28.7409 8.48347 28.6141 8.37966 28.469 8.31013C28.3237 8.2406 28.1644 8.20727 28.004 8.213C27.792 8.20889 27.5839 8.27122 27.4079 8.39151C27.2266 8.52301 27.0882 8.707 27.0108 8.91953C26.8255 9.44218 26.8247 10.0142 27.0086 10.5373C27.0861 10.7487 27.2228 10.9323 27.4017 11.0653C27.5786 11.1893 27.7894 11.2533 28.004 11.2481C28.1646 11.2537 28.3242 11.2201 28.4694 11.1501C28.6147 11.08 28.7414 10.9756 28.8389 10.8456C29.0627 10.5211 29.1722 10.1291 29.1494 9.73331" fill="white"/>
<path d="M31.1226 7.44673H31.3973V7.09334C31.3858 6.79507 31.4324 6.49744 31.5346 6.21762C31.623 6.00421 31.7899 5.83443 31.9996 5.74444C32.2858 5.63325 32.5912 5.58267 32.8973 5.59578C33.5706 5.59578 33.9073 5.76367 33.9075 6.09944C33.9094 6.20314 33.8715 6.3035 33.8017 6.37908C33.7708 6.41553 33.7325 6.44474 33.6895 6.46474C33.6465 6.48475 33.5997 6.49508 33.5524 6.49505C33.4744 6.49164 33.3967 6.48302 33.3198 6.46924C33.2274 6.45374 33.1341 6.44516 33.0405 6.44369C32.832 6.44369 32.6981 6.50601 32.6389 6.6307C32.5717 6.80066 32.5415 6.98345 32.5504 7.16646V7.44673H32.8334C33.2731 7.44673 33.4929 7.58157 33.4929 7.85126C33.4929 8.04351 33.4344 8.16538 33.3174 8.21681C33.1627 8.27495 32.9982 8.30124 32.8334 8.29418H32.5511V11.4048C32.5642 11.5965 32.5061 11.7862 32.3884 11.9363C32.3356 11.9962 32.2706 12.0435 32.198 12.0751C32.1253 12.1067 32.0468 12.1217 31.9678 12.1191C31.8909 12.1208 31.8144 12.1053 31.744 12.0737C31.6735 12.0422 31.6107 11.9953 31.5599 11.9363C31.4421 11.7862 31.3841 11.5965 31.3971 11.4048V8.29379H31.0799C30.938 8.30304 30.7974 8.26114 30.6828 8.1754C30.6378 8.13849 30.6018 8.09153 30.5776 8.03816C30.5534 7.9848 30.5416 7.92649 30.5431 7.86771C30.5431 7.58649 30.736 7.44588 31.1216 7.44588" fill="white"/>
<path d="M38.3027 9.7325C38.3062 10.0623 38.2523 10.3902 38.1429 10.7008C38.0424 10.9853 37.884 11.2449 37.6778 11.4626C37.4728 11.676 37.2249 11.8422 36.9511 11.95C36.6473 12.0672 36.3248 12.1249 35.9999 12.12C35.6778 12.125 35.3578 12.0665 35.0574 11.9477C34.7836 11.8371 34.5357 11.6684 34.3307 11.4529C34.1256 11.2374 33.9678 10.98 33.8678 10.6977C33.759 10.3879 33.7053 10.0608 33.7092 9.73169C33.7054 9.39901 33.7598 9.0683 33.8698 8.75505C33.9691 8.47239 34.126 8.21434 34.3304 7.99794C34.5357 7.78506 34.7836 7.61991 35.0574 7.51379C35.6688 7.28639 36.3397 7.28709 36.9507 7.51579C37.2266 7.62374 37.4759 7.79117 37.682 8.00655C37.8881 8.22193 38.0462 8.4802 38.145 8.76356C38.2537 9.0742 38.3072 9.40196 38.3034 9.73169M37.1455 9.73169C37.1689 9.33373 37.0595 8.93936 36.8347 8.61286C36.7367 8.48343 36.61 8.37966 36.465 8.31009C36.3196 8.24056 36.1601 8.20727 35.9999 8.213C35.7879 8.20889 35.5798 8.27122 35.4037 8.39151C35.2224 8.52305 35.084 8.707 35.0066 8.91953C34.8216 9.44218 34.8205 10.0141 35.0046 10.5373C35.0819 10.7487 35.2186 10.9323 35.3978 11.0653C35.5746 11.1893 35.7852 11.2533 35.9999 11.2481C36.1605 11.2537 36.32 11.2201 36.4653 11.1501C36.6107 11.0801 36.7374 10.9757 36.8347 10.8456C37.0588 10.5211 37.1683 10.1291 37.1455 9.73331" fill="white"/>
<path d="M40.2606 7.99427V8.13643C40.436 7.88839 40.6632 7.68332 40.9262 7.5361C41.1838 7.40459 41.4686 7.33886 41.7569 7.34459C42.0414 7.33988 42.3224 7.40979 42.5728 7.54766C42.8061 7.67621 42.994 7.87641 43.1093 8.11977C43.1859 8.26435 43.236 8.42187 43.2574 8.58462C43.2826 8.79585 43.2936 9.00856 43.2912 9.2213V11.4063C43.305 11.598 43.2484 11.788 43.1327 11.9398C43.0813 11.999 43.0178 12.046 42.9463 12.0773C42.8752 12.1085 42.7979 12.1234 42.7205 12.1208C42.6415 12.1234 42.5631 12.1082 42.4906 12.0762C42.4181 12.0442 42.3535 11.9961 42.3014 11.9356C42.1857 11.7854 42.1284 11.5969 42.1408 11.4063V9.44856C42.1571 9.14386 42.1025 8.83958 41.9824 8.56005C41.8767 8.35508 41.6661 8.25254 41.3506 8.2524C41.1482 8.25141 40.9508 8.31711 40.7881 8.43962C40.6159 8.56884 40.4864 8.74822 40.4163 8.95404C40.3452 9.27568 40.3169 9.60562 40.3321 9.93496V11.4065C40.3466 11.5997 40.2882 11.7913 40.1691 11.9424C40.1159 12.0012 40.0507 12.0476 39.9782 12.0784C39.9057 12.1092 39.8273 12.1237 39.7486 12.1209C39.6713 12.123 39.5939 12.1074 39.5231 12.0754C39.4524 12.0433 39.3892 11.9957 39.3384 11.9358C39.2228 11.7856 39.1655 11.597 39.1779 11.4065V8.01132C39.1644 7.83201 39.2155 7.65379 39.3219 7.51012C39.3712 7.45458 39.432 7.41092 39.5 7.38224C39.568 7.35359 39.6416 7.34065 39.7151 7.34438C39.8114 7.34308 39.9064 7.36832 39.9896 7.41749C40.0745 7.46984 40.1429 7.54601 40.186 7.63684C40.2385 7.74821 40.2637 7.87068 40.2603 7.99406" fill="white"/>
<path d="M47.6626 10.0216H45.4043C45.4022 10.2663 45.4564 10.5082 45.5631 10.7276C45.6505 10.9144 45.7889 11.0717 45.9615 11.1807C46.1342 11.2897 46.3341 11.3459 46.5374 11.3425C46.6652 11.344 46.7929 11.3274 46.9165 11.2931C47.0339 11.2586 47.1457 11.2065 47.2483 11.1384C47.3522 11.0704 47.4509 10.9948 47.5442 10.9122C47.6343 10.8322 47.7513 10.7231 47.8949 10.5852C47.9674 10.5291 48.0576 10.5016 48.1484 10.5078C48.253 10.503 48.3555 10.5382 48.4359 10.6065C48.4732 10.6421 48.5026 10.6856 48.5216 10.7339C48.5406 10.7823 48.5488 10.8344 48.5457 10.8864C48.5375 11.0192 48.4953 11.1475 48.4232 11.2586C48.3265 11.4175 48.2008 11.5562 48.0534 11.6674C47.8656 11.8102 47.6557 11.92 47.432 11.9924C47.154 12.0828 46.8637 12.1265 46.5719 12.1215C45.8307 12.1215 45.2545 11.9064 44.8433 11.4761C44.6313 11.2406 44.4673 10.9645 44.3613 10.6638C44.2553 10.3631 44.2094 10.0439 44.226 9.72492C44.2232 9.39653 44.2746 9.07 44.3782 8.75904C44.4718 8.4755 44.623 8.21523 44.8222 7.99525C45.0221 7.77906 45.2676 7.61202 45.5403 7.50681C45.8428 7.39021 46.1639 7.33256 46.487 7.33685C46.8923 7.32521 47.2935 7.4255 47.6474 7.62706C47.9533 7.80349 48.2043 8.06383 48.3721 8.37848C48.5278 8.66599 48.6106 8.98844 48.6131 9.31673C48.6131 9.61215 48.5299 9.80359 48.3638 9.89105C48.1428 9.98962 47.9029 10.0345 47.6619 10.0222M45.4043 9.3547H47.4965C47.4955 9.02581 47.3826 8.70744 47.1775 8.45339C47.0836 8.35377 46.9704 8.27555 46.8447 8.22395C46.719 8.17238 46.5837 8.14862 46.4483 8.15424C46.3158 8.15017 46.1842 8.17512 46.062 8.22747C45.9398 8.27984 45.83 8.35834 45.7402 8.45768C45.5355 8.71144 45.4174 9.02641 45.4043 9.3547Z" fill="white"/>
<path d="M2.01363 4.01953C2.01363 5.97181 1.99248 7.71568 2.01821 9.45776C2.02702 10.2816 2.19953 11.0951 2.52536 11.8493C2.85119 12.6035 3.3236 13.2827 3.91411 13.8461C4.50463 14.4095 5.20107 14.8454 5.96145 15.1274C6.72183 15.4095 7.53044 15.5321 8.33854 15.4876C9.84428 15.412 11.1246 14.7768 12.2768 13.7278L13.5799 15.171C11.7865 17.4472 6.82962 18.9857 2.89256 15.6773C2.06749 14.9812 1.38845 14.1233 0.895862 13.1545C0.403275 12.1857 0.107215 11.1259 0.0253155 10.0382C-0.0565835 8.95051 0.0773514 7.85717 0.419146 6.82327C0.760938 5.7894 1.3036 4.83609 2.01482 4.02014" fill="white"/>
<path d="M6.01719 1.41406V7.30233H9.97401V9.38194H6.10557C6.17438 11.2156 7.69549 11.8835 9.66621 10.7647C9.82928 11.0029 10.0112 11.227 10.2102 11.4349C10.4072 11.6786 10.6272 11.9019 10.8671 12.1016C10.3904 12.6937 9.74873 13.1248 9.02657 13.3382C8.30441 13.5515 7.53567 13.5371 6.82173 13.2968C5.25895 12.8072 4.05444 11.32 4.01435 9.64777C3.95929 7.35291 3.98822 5.05518 4.00697 2.7591C4.01014 2.6413 4.03876 2.52566 4.09072 2.42037C4.14272 2.31508 4.21684 2.22272 4.30778 2.14984C4.8103 1.8769 5.35748 1.68924 6.01719 1.41406Z" fill="white"/>
</g>
</g>
<defs>
<clipPath id="clip0_12332_13678">
<rect width="86" height="19" fill="white"/>
</clipPath>
<clipPath id="clip1_12332_13678">
<rect width="48.6113" height="16.1701" fill="white" transform="translate(0 1.41406)"/>
</clipPath>
</defs>
</svg>
