<svg width="35" height="34" viewBox="0 0 35 34" fill="none" xmlns="http://www.w3.org/2000/svg">
<g clip-path="url(#clip0_355_11842)">
<path d="M18.5933 7H16.3833L9.36328 23.25H12.6133L13.7995 20H21.177L22.3633 23.25H25.6133L18.5933 7ZM14.7258 17.5625L17.4883 10.25L20.2508 17.5625H14.7258ZM26.2633 30.4L28.8633 33H20.7383V24.875L23.9883 28.125C27.872 25.8662 30.4883 21.5438 30.4883 16.75C30.4883 9.58375 24.6545 3.75 17.4883 3.75C10.322 3.75 4.48828 9.58375 4.48828 16.75C4.48828 21.5438 7.10453 25.7363 10.9883 27.995V31.635C5.25203 29.1163 1.23828 23.4125 1.23828 16.75C1.23828 7.8125 8.55078 0.5 17.4883 0.5C26.4258 0.5 33.7383 7.8125 33.7383 16.75C33.7383 22.4862 30.7645 27.5075 26.2633 30.4Z" fill="#D9D9D9"/>
</g>
<defs>
<clipPath id="clip0_355_11842">
<rect width="34" height="33" fill="white" transform="translate(0.5 0.5)"/>
</clipPath>
</defs>
</svg>
