<svg width="34" height="34" viewBox="0 0 34 34" fill="none" xmlns="http://www.w3.org/2000/svg">
<g clip-path="url(#clip0_1_504)">
<path d="M18.0933 7H15.8833L8.86328 23.25H12.1133L13.2995 20H20.677L21.8633 23.25H25.1133L18.0933 7ZM14.2258 17.5625L16.9883 10.25L19.7508 17.5625H14.2258ZM25.7633 30.4L28.3633 33H20.2383V24.875L23.4883 28.125C27.372 25.8662 29.9883 21.5438 29.9883 16.75C29.9883 9.58375 24.1545 3.75 16.9883 3.75C9.82203 3.75 3.98828 9.58375 3.98828 16.75C3.98828 21.5438 6.60453 25.7363 10.4883 27.995V31.635C4.75203 29.1163 0.738281 23.4125 0.738281 16.75C0.738281 7.8125 8.05078 0.5 16.9883 0.5C25.9258 0.5 33.2383 7.8125 33.2383 16.75C33.2383 22.4862 30.2645 27.5075 25.7633 30.4Z" fill="#D9D9D9"/>
</g>
<defs>
<clipPath id="clip0_1_504">
<rect width="34" height="33" fill="white" transform="translate(0 0.5)"/>
</clipPath>
</defs>
</svg>
