<svg width="45" height="45" viewBox="0 0 45 45" fill="none" xmlns="http://www.w3.org/2000/svg">
<g clip-path="url(#clip0_355_11848)">
<path d="M41.6522 30.2675C38.6941 30.2675 35.8322 29.7959 33.1627 28.9471C32.7445 28.8081 32.2948 28.7875 31.8652 28.8876C31.4356 28.9877 31.0435 29.2044 30.7337 29.513L26.958 34.1578C20.152 30.9748 13.7789 24.9624 10.3879 18.0541L15.0776 14.1402C15.7269 13.48 15.9193 12.5605 15.6548 11.7353C14.7649 9.11817 14.308 6.3124 14.308 3.41233C14.308 2.13913 13.2258 1.07812 11.9271 1.07812H3.60602C2.30735 1.07812 0.744141 1.64399 0.744141 3.41233C0.744141 25.3161 19.3343 43.5182 41.6522 43.5182C43.3597 43.5182 44.0331 42.0328 44.0331 40.736V32.6017C44.0331 31.3285 42.9508 30.2675 41.6522 30.2675Z" fill="#D9D9D9"/>
<path d="M44.0332 8.92504L36.1863 1.07812V5.56207C28.3394 6.68306 24.9765 12.288 23.8555 17.8929C26.6579 13.9694 30.5814 12.1759 36.1863 12.1759V16.7719L44.0332 8.92504Z" fill="#D9D9D9"/>
</g>
<defs>
<clipPath id="clip0_355_11848">
<rect width="44" height="44" fill="white" transform="translate(0.5 0.5)"/>
</clipPath>
</defs>
</svg>
