<svg width="44" height="45" viewBox="0 0 44 45" fill="none" xmlns="http://www.w3.org/2000/svg">
<path d="M41.1522 30.2668C38.1941 30.2668 35.3322 29.7952 32.6627 28.9464C32.2445 28.8074 31.7948 28.7868 31.3652 28.8869C30.9356 28.987 30.5435 29.2037 30.2337 29.5123L26.458 34.1571C19.652 30.9741 13.2789 24.9617 9.88795 18.0534L14.5776 14.1395C15.2269 13.4793 15.4193 12.5598 15.1548 11.7346C14.2649 9.11744 13.808 6.31167 13.808 3.4116C13.808 2.1384 12.7258 1.07739 11.4271 1.07739H3.10602C1.80735 1.07739 0.244141 1.64326 0.244141 3.4116C0.244141 25.3154 18.8343 43.5175 41.1522 43.5175C42.8597 43.5175 43.5331 42.0321 43.5331 40.7353V32.601C43.5331 31.3278 42.4508 30.2668 41.1522 30.2668Z" fill="#D9D9D9"/>
<path d="M43.5332 8.92431L35.6863 1.07739V5.56134C27.8394 6.68233 24.4765 12.2873 23.3555 17.8922C26.1579 13.9687 30.0814 12.1752 35.6863 12.1752V16.7712L43.5332 8.92431Z" fill="#D9D9D9"/>
</svg>
