<svg width="393" height="228" viewBox="0 0 393 228" fill="none" xmlns="http://www.w3.org/2000/svg">
<g clip-path="url(#clip0_1_509)">
<g style="mix-blend-mode:hard-light" opacity="0.35">
<path d="M391.879 182.929C389.115 153.535 377.698 131.224 348.12 114.861C339.397 110.036 328.474 107.678 323.244 99.2012C318.051 90.7865 319.979 80.0398 318.951 70.2089C316.312 44.9896 292.162 25.4893 266.897 22.8198C241.63 20.1504 216.495 31.5707 197.303 48.1874C182.902 60.6554 170.289 76.5706 152.145 82.4084C122.223 92.0368 89.6673 70.5597 58.9625 77.2941C42.4403 80.9174 28.5797 92.4624 18.457 105.99C1.5187 128.626 -2.70302 157.246 2.47744 185.02C5.31103 200.213 12.2443 215.612 22.1802 227.439L378.195 226.696C388.604 216.308 393.064 195.532 391.879 182.929Z" fill="#32274F"/>
</g>
<path d="M365.191 105.138C369.643 100.694 369.643 93.4904 365.191 89.0471C360.739 84.6039 353.52 84.6039 349.068 89.0471C344.616 93.4904 344.616 100.694 349.068 105.138C353.52 109.581 360.739 109.581 365.191 105.138Z" fill="#F6F5F5"/>
<mask id="mask0_1_509" style="mask-type:luminance" maskUnits="userSpaceOnUse" x="19" y="0" width="356" height="227">
<path d="M374.079 0.628906H19.2349V226.051H374.079V0.628906Z" fill="white"/>
</mask>
<g mask="url(#mask0_1_509)">
<path d="M266.511 107.304H100.086V225.995H266.511V107.304Z" fill="#102048"/>
<path d="M282.716 65.3425H251.927V37.1936C251.927 31.5148 256.524 26.9109 262.193 26.9109C265.027 26.9109 267.596 28.0635 269.452 29.9233C271.284 31.7583 272.434 34.2991 272.459 37.099V37.1936L272.451 55.0598C272.451 55.1467 272.451 55.2398 272.459 55.3266V55.868L272.49 55.8525C272.89 61.1621 277.314 65.3425 282.716 65.3425Z" fill="#CEBBFF"/>
<path d="M292.974 48.8484V55.0686C292.974 57.9072 291.831 60.4806 289.966 62.3311C288.119 64.1972 285.549 65.3435 282.715 65.3435C277.312 65.3435 272.888 61.1631 272.49 55.8535L292.974 48.85V48.8484Z" fill="#F4EFFF"/>
<path d="M262.193 26.9109C261.973 26.9109 261.762 26.9187 261.55 26.9342C261.409 26.942 261.276 26.9497 261.143 26.9652C260.994 26.9808 260.853 26.9963 260.704 27.0195C260.618 27.0273 260.533 27.0428 260.446 27.0583C260.336 27.0738 260.226 27.0971 260.125 27.1204C259.969 27.1514 259.82 27.1824 259.664 27.2227C259.444 27.277 259.225 27.3406 259.006 27.4182C258.896 27.4492 258.786 27.4895 258.685 27.5283C258.583 27.5593 258.473 27.6074 258.372 27.6462C258.224 27.7005 258.083 27.7641 257.942 27.8339C257.816 27.8882 257.691 27.944 257.565 28.0138C257.534 28.0293 257.494 28.0448 257.455 28.0681C257.345 28.1224 257.235 28.186 257.127 28.2481C256.697 28.4916 256.281 28.7661 255.897 29.0717C255.787 29.1586 255.67 29.2517 255.569 29.3385C255.444 29.4409 255.334 29.5417 255.216 29.6519C255.098 29.762 254.988 29.8721 254.88 29.9807C254.575 30.294 254.285 30.6244 254.019 30.9765C253.901 31.1332 253.791 31.2821 253.683 31.4388C253.339 31.9646 253.04 32.5137 252.783 33.0939C252.721 33.235 252.665 33.3839 252.604 33.5328C252.439 33.9796 252.298 34.4434 252.188 34.9134C252.157 35.0778 252.127 35.2345 252.094 35.3911C252.04 35.7122 251.992 36.0426 251.969 36.3715V180.606H114.727V42.9422C114.727 34.0866 121.891 26.9109 130.732 26.9109H262.194H262.193Z" fill="#E8DFFF"/>
<path d="M235.092 41.6092H130.949V47.0987H235.092V41.6092Z" fill="#ADC3FF"/>
<path d="M227.022 57.687H130.949V63.1765H227.022V57.687Z" fill="#ADC3FF"/>
<path d="M221.958 73.7647H130.949V79.2543H221.958V73.7647Z" fill="#ADC3FF"/>
<path d="M235.092 89.8439H130.949V95.3334H235.092V89.8439Z" fill="#ADC3FF"/>
<path d="M227.654 106.118H171.193V111.607H227.654V106.118Z" fill="#ADC3FF"/>
<path d="M182.555 136.945C181.933 136.945 181.358 136.733 180.965 136.19C180.482 135.52 180.516 134.603 180.539 133.996L181.07 119.81L181.852 119.839L181.321 134.026C181.296 134.687 181.3 135.315 181.6 135.731C182.266 136.65 183.866 135.855 184.18 135.686C185.757 134.839 186.889 133.244 187.983 131.702C189.201 129.988 190.46 128.217 192.363 127.384C193.492 126.889 194.324 127.615 194.991 128.194C195.37 128.522 195.728 128.833 196.106 128.946C197.102 129.241 198.093 128.983 199.141 128.707C200.067 128.463 201.029 128.211 202.016 128.364C202.919 128.502 203.646 128.862 204.351 129.211C205.392 129.726 206.291 130.171 207.592 129.855C209.386 129.422 211.052 128.4 212.663 127.41C213.13 127.123 213.595 126.838 214.066 126.563C215.876 125.51 218.599 124.181 221.306 124.803L221.131 125.567C218.688 125.009 216.153 126.255 214.457 127.243C213.993 127.513 213.533 127.796 213.07 128.079C211.407 129.099 209.688 130.156 207.774 130.616C206.195 130.997 205.079 130.447 204.003 129.914C203.352 129.593 202.679 129.259 201.896 129.14C201.069 129.014 200.229 129.234 199.338 129.466C198.231 129.756 197.091 130.055 195.882 129.698C195.341 129.537 194.9 129.155 194.475 128.786C193.777 128.18 193.317 127.823 192.673 128.102C190.968 128.848 189.826 130.455 188.618 132.157C187.471 133.772 186.286 135.442 184.547 136.376C183.929 136.708 183.212 136.947 182.552 136.947L182.555 136.945Z" fill="#102048"/>
<path opacity="0.3" d="M251.966 112.274V180.61H114.724V106.321L157.595 142.045C159.959 144.022 163.06 144.775 166.114 144.343C166.998 144.217 167.907 144.171 168.815 144.194L198.037 145.017C199.047 145.048 200.049 145.174 201.028 145.387C204.058 146.046 207.23 145.441 209.726 143.59L251.963 112.272L251.966 112.274Z" fill="#86A7FF"/>
<path d="M162.663 156.509L161.519 157.78L109.87 215.143L100.09 225.998V107.302L162.663 156.509Z" fill="#614B98"/>
<path d="M266.512 107.303L203.938 156.509L266.512 225.995V107.303Z" fill="#614B98"/>
<path d="M161.519 157.779L109.87 215.143L100.09 217.299V196.209C125.906 177.676 154.872 156.186 161.488 155.724L161.519 157.779Z" fill="#7760B0"/>
<path d="M205.084 157.779L256.733 215.143L266.512 217.299V196.209C240.696 177.676 211.731 156.186 205.115 155.724L205.084 157.779Z" fill="#7760B0"/>
<path d="M266.512 225.995H100.087L100.118 210.381L157.464 158.273C160.474 155.538 164.392 154.024 168.454 154.024H197.689C201.691 154.024 205.554 155.494 208.548 158.155L266.675 209.842L266.512 225.996V225.995Z" fill="#614B98"/>
<path opacity="0.4" d="M275.658 217.61C286.82 206.431 286.82 188.305 275.658 177.126C264.497 165.947 246.401 165.947 235.24 177.126C224.079 188.305 224.079 206.431 235.24 217.61C246.401 228.79 264.497 228.79 275.658 217.61Z" fill="#5B4DAD"/>
<path d="M284.271 217.609C295.432 206.43 295.432 188.305 284.271 177.125C273.11 165.946 255.014 165.946 243.853 177.125C232.692 188.305 232.692 206.43 243.853 217.609C255.014 228.789 273.11 228.789 284.271 217.609Z" fill="#26AB23"/>
<path d="M263.45 212.878C262.093 212.878 260.794 212.309 259.863 211.28L249.752 200.096C248.882 199.133 248.954 197.646 249.916 196.774C250.879 195.902 252.364 195.975 253.233 196.938L263.344 208.121C263.364 208.142 263.403 208.18 263.481 208.169C263.561 208.156 263.581 208.108 263.594 208.08L274.477 183.262C274.999 182.072 276.382 181.532 277.573 182.053C278.761 182.576 279.301 183.964 278.78 185.154L267.896 209.973C267.231 211.487 265.864 212.549 264.235 212.813C263.973 212.856 263.71 212.876 263.448 212.876L263.45 212.878Z" fill="#D9D9D9"/>
<path d="M65.6953 210.062L66.609 225.879H90.8839L79.9211 216.859L79.2691 210.062L74.9624 205.88L65.6953 210.062Z" fill="#102048"/>
<path d="M36.5942 203.005L32.6792 217.122L52.6458 225.879L46.7734 212.546L48.209 206.533L43.2502 199.997L36.5942 203.005Z" fill="#102048"/>
<path d="M44.2932 132.939C44.2932 132.939 41.9439 142.742 42.7276 164.311C42.7276 164.311 35.8113 188.493 36.5934 203.003L48.2082 206.532C54.2928 192.989 59.298 179.959 61.9586 168.044C63.2857 163.832 63.261 159.307 61.8873 155.109L56.2998 138.036L44.2932 132.937V132.939Z" fill="#4E9AD2"/>
<path d="M81.1094 164.761L79.2696 210.062H65.7005C62.1618 195.309 60.8455 182.714 60.384 174.274C59.9999 167.16 60.2198 163.003 60.2198 163.003C51.4963 152.69 46.313 145.239 43.2978 139.725C38.8192 131.544 39.0933 127.607 39.5935 124.831C40.2671 121.137 42.6629 116.352 44.2843 113.411C45.1934 111.779 45.8577 110.714 45.8577 110.714L68.5654 118.04L65.8569 127.851L65.8104 128.015C65.4031 129.49 65.6075 131.074 66.3664 132.399L78.277 153.175C80.2886 156.688 81.2767 160.704 81.111 164.759L81.1094 164.761Z" fill="#80C9FF"/>
<path d="M74.0487 210.357C74.0487 210.357 74.0363 210.357 74.0301 210.357C73.8675 210.347 73.7452 210.206 73.756 210.045C73.7839 209.59 76.5839 164.546 73.2605 157.377C72.6766 156.117 71.6871 154.51 70.5411 152.649C65.7449 144.862 57.7152 131.828 59.4017 113.043C59.4156 112.882 59.555 112.759 59.7207 112.776C59.8818 112.79 60.001 112.933 59.9871 113.096C58.3192 131.685 66.2838 144.614 71.0413 152.339C72.1981 154.216 73.1954 155.836 73.7948 157.127C77.1801 164.431 74.4607 208.219 74.343 210.079C74.3337 210.236 74.2036 210.355 74.0503 210.355L74.0487 210.357Z" fill="#4E9AD2"/>
<path opacity="0.6" d="M68.5653 118.04L65.8567 127.851C55.4112 123.545 47.8863 116.996 44.2842 113.411C45.1932 111.779 45.8576 110.714 45.8576 110.714L68.5653 118.04Z" fill="#4E9AD2"/>
<path d="M72.4021 217.494L72.1714 213.565L79.6544 213.43C79.848 213.433 79.9502 213.556 79.9533 213.719C79.9564 213.882 79.8279 214.015 79.6653 214.018L72.7939 214.142L72.955 216.88L79.9084 216.567C80.0648 216.561 80.2088 216.686 80.215 216.847C80.2228 217.01 80.0973 217.147 79.9347 217.155L72.4021 217.494Z" fill="#D9D9D9"/>
<path d="M46.7729 212.84C46.7435 212.84 46.7125 212.835 46.6831 212.826L40.2407 210.766L41.8482 207.011L47.5255 209.066C47.6788 209.122 47.7563 209.289 47.7021 209.443C47.6463 209.595 47.4791 209.677 47.3257 209.62L42.1703 207.754L41.0367 210.405L46.8627 212.266C47.0176 212.316 47.1027 212.482 47.0532 212.635C47.0129 212.759 46.8983 212.84 46.7729 212.84Z" fill="#D9D9D9"/>
<path d="M76.5879 74.6376L76.1651 76.2213L74.474 82.6292L73.3311 86.9274L63.1519 83.2651L68.061 73.2028L70.4568 69.7359L76.5879 74.6376Z" fill="#F9B384"/>
<path d="M76.1656 76.2217L74.4745 82.6295C71.4748 79.3674 72.0865 75.2957 72.0865 75.2957L76.1656 76.2217Z" fill="#102048"/>
<path d="M84.2261 65.6204C84.2261 65.6204 83.5741 80.1299 76.2645 78.8874C68.955 77.645 69.0866 65.1628 69.0866 65.1628L78.6138 62.0915L84.2261 65.6204Z" fill="#F9B384"/>
<path d="M74.0797 67.8092C74.0797 67.8092 78.2719 63.4799 84.2264 65.619C84.2264 65.619 86.8529 66.7296 87.8812 64.5735C87.8812 64.5735 79.4643 53.3974 72.8563 58.7892C72.8563 58.7892 61.0123 61.3874 68.0602 73.2011L74.0797 67.8092Z" fill="#102048"/>
<path d="M74.6117 70.6861C75.8381 70.4902 76.6506 69.1902 76.4265 67.7825C76.2024 66.3747 75.0265 65.3923 73.8002 65.5882C72.5738 65.7841 71.7613 67.0841 71.9854 68.4918C72.2095 69.8995 73.3853 70.8819 74.6117 70.6861Z" fill="#F9B384"/>
<path d="M84.4671 73.1489C84.5823 72.436 84.0987 71.7646 83.3869 71.6492C82.6751 71.5339 82.0048 72.0183 81.8897 72.7312C81.7745 73.4441 82.2581 74.1156 82.9699 74.2309C83.6817 74.3462 84.352 73.8618 84.4671 73.1489Z" fill="#F9B384"/>
<path opacity="0.4" d="M78.1243 73.855C79.3679 73.855 80.376 72.8453 80.376 71.5997C80.376 70.354 79.3679 69.3443 78.1243 69.3443C76.8807 69.3443 75.8726 70.354 75.8726 71.5997C75.8726 72.8453 76.8807 73.855 78.1243 73.855Z" fill="#EB5D60"/>
<path d="M120.377 95.0665C120.377 95.0665 121.724 96.9171 118.975 98.7692C118.975 98.7692 121.161 100.268 113.628 102.737C112.79 103.012 111.835 103.294 110.738 103.592L107.715 92.5956C107.715 92.5956 121.161 88.046 121.497 89.5056C121.833 90.9637 119.093 92.9337 119.093 92.9337C119.093 92.9337 123.909 91.7502 120.377 95.0665Z" fill="#F9B384"/>
<path d="M107.715 92.5963L91.7951 94.6391C91.7951 94.6391 68.8907 78.2992 64.1937 79.8675C59.4967 81.4357 43.6386 106.926 43.6386 106.926C43.6386 106.926 39.3318 108.299 39.5269 110.062C39.7221 111.828 67.5202 126.272 71.24 122.611C73.5784 120.309 76.2638 101.958 76.2638 101.958L86.3934 106.178C89.3962 107.43 92.715 107.712 95.8866 106.988L110.74 103.594L107.714 92.5932L107.715 92.5963Z" fill="#6837E2"/>
<g opacity="0.8">
<path d="M106.709 102.42C106.162 100.279 105.628 98.1899 105.143 96.1796C105.008 95.6197 104.884 95.0488 104.76 94.4749C104.655 93.9894 104.547 93.5023 104.432 93.0168L103.847 93.0913C103.964 93.5923 104.077 94.0964 104.186 94.599C104.311 95.1776 104.435 95.7531 104.573 96.3177C105.059 98.3295 105.594 100.42 106.14 102.564C106.307 103.217 106.475 103.875 106.642 104.533L107.215 104.402C107.046 103.74 106.876 103.078 106.709 102.42Z" fill="#D9D9D9"/>
<path d="M79.4562 86.4815C79.2146 86.5327 78.973 86.5869 78.7299 86.6381C74.3178 87.5595 69.5991 88.3041 64.9826 87.5223C62.6426 87.1252 60.49 86.3139 58.6549 85.1862C58.531 85.3383 58.4086 85.4887 58.2832 85.6469C60.1973 86.8351 62.4444 87.6883 64.8851 88.1024C69.596 88.9013 74.3813 88.1474 78.8491 87.2152C79.292 87.1221 79.735 87.0244 80.1779 86.9282C79.9378 86.7793 79.6978 86.6304 79.4547 86.483L79.4562 86.4815Z" fill="#D9D9D9"/>
<path d="M73.3574 114.732C72.0318 114.842 70.6612 114.956 69.3294 114.831C65.4191 114.467 61.9501 112.03 59.6798 110.228C58.8761 109.589 58.0878 108.926 57.2996 108.262C55.2956 106.575 53.2235 104.831 50.8913 103.53C49.5455 102.78 48.1796 102.248 46.8369 101.92C46.7208 102.098 46.6124 102.264 46.5024 102.436C47.856 102.746 49.2404 103.285 50.6063 104.045C52.889 105.318 54.9394 107.043 56.9232 108.714C57.7146 109.381 58.5075 110.048 59.3159 110.69C61.6435 112.537 65.2085 115.038 69.2752 115.418C70.6581 115.545 72.055 115.43 73.4054 115.319C73.5386 115.308 73.6733 115.301 73.8065 115.291C73.853 115.092 73.8979 114.892 73.9428 114.692C73.7477 114.707 73.5525 114.717 73.3559 114.732H73.3574Z" fill="#D9D9D9"/>
</g>
<path d="M76.2656 101.959L72.1416 100.147C72.1416 100.147 73.1947 106.709 75.1831 107.647L76.2656 101.959Z" fill="#4C17D1"/>
<path d="M113.627 102.738C112.789 103.012 111.833 103.294 110.737 103.592L107.714 92.5961L113.625 102.738H113.627Z" fill="#E28B6D"/>
<path d="M294.798 112.39L304.39 116.703L311.539 93.1352L302.176 90.6704C299.701 96.2111 297.178 103.301 294.798 112.39Z" fill="#E28B6D"/>
<path d="M302.176 90.6705L311.539 93.1353L319.53 71.1491C319.53 71.1491 309.873 69.8415 302.177 90.6705H302.176Z" fill="#102048"/>
<path d="M290.818 104.221L283.9 123.307L309.74 133.242L314.961 113.371L290.818 104.221Z" fill="#102048"/>
<path d="M299.318 129.653C299.129 130.193 297.583 130.838 296.591 129.955C294.656 129.613 293.351 129.368 292.145 128.032C291.06 127.615 290.574 126.434 291.07 125.438C292.019 123.532 293.489 120.845 294.189 120.952C295.067 121.086 294.432 123.799 294.432 123.799C294.432 123.799 295.895 120.355 297.283 120.811C297.902 121.015 296.413 124.294 296.262 124.638C296.496 124.325 298.353 121.823 299.064 122.349C299.775 122.882 298.043 125.839 297.861 126.152C298.062 125.901 299.691 123.932 300.485 124.584C300.829 124.872 300.289 126.872 299.319 129.653H299.318Z" fill="#E28B6D"/>
<path d="M347.848 195.332C347.848 195.332 360.376 193.959 365.662 182.39L351.763 183.175L347.848 195.332Z" fill="#102048"/>
<path d="M361.683 182.522L349.676 189.972L355.076 197.919L366.656 190.019L361.683 182.522Z" fill="#E28B6D"/>
<path d="M374.081 201.214L366.655 190.019L355.076 197.92L357.049 200.823L355.875 216.313L374.081 201.214Z" fill="#102048"/>
<path d="M362.902 200.145L357.023 200.444L357.063 201.227L362.942 200.927L362.902 200.145Z" fill="#D9D9D9"/>
<path d="M327.49 203.698L314.308 202.913V213.602L328.489 212.701L327.49 203.698Z" fill="#E28B6D"/>
<path d="M314.308 213.602V216.115L304.391 226.05H329.97L328.489 212.7L314.308 213.602Z" fill="#102048"/>
<path d="M314.202 215.958L313.808 216.637L319.425 219.903L319.818 219.224L314.202 215.958Z" fill="#D9D9D9"/>
<path d="M326.824 135.45C326.621 140.313 326.581 145.443 326.668 150.611C326.747 155.097 326.911 159.616 327.145 164.03C328.272 185.967 330.88 205.395 330.88 205.395L310.521 208.015C300.867 140.564 307.131 112.063 307.131 112.063L316.004 110.251L323.882 108.643L332.713 106.839C332.604 107.003 332.494 107.175 332.393 107.357C331.046 109.561 329.982 112.494 329.159 115.977C327.868 121.397 327.148 128.125 326.826 135.452L326.824 135.45Z" fill="#80C9FF"/>
<path d="M327.144 164.03C318.61 145.859 321.812 131.411 321.812 131.411L326.824 135.45C326.621 140.313 326.581 145.443 326.667 150.611C326.746 155.097 326.91 159.616 327.144 164.03Z" fill="#3683BC"/>
<path d="M365.663 182.39C355.875 186.116 347.849 195.331 347.849 195.331C339.399 180.375 332.187 165.355 326.668 150.61C322.071 138.343 318.649 126.264 316.668 114.579C316.425 113.129 316.199 111.685 316.002 110.25C315.979 110.117 315.956 109.976 315.94 109.842L323.88 108.642L332.392 107.356L336.691 106.704C337.152 109.45 337.772 112.319 338.515 115.276C345.922 144.798 365.663 182.388 365.663 182.388V182.39Z" fill="#80C9FF"/>
<g opacity="0.8">
<path d="M348.439 144.786C348.315 144.476 348.189 144.167 348.067 143.855C346.463 142.827 344.928 141.697 343.607 140.339C339.917 136.546 338.049 130.929 338.737 125.679C338.949 124.061 339.404 122.474 340.064 120.971C339.98 120.685 339.9 120.4 339.817 120.115C338.978 121.849 338.4 123.706 338.153 125.601C337.443 131.027 339.373 136.831 343.186 140.748C344.737 142.341 346.557 143.622 348.439 144.784V144.786Z" fill="#D9D9D9"/>
<path d="M358.681 168.208C358.599 168.035 358.517 167.861 358.435 167.684C356.275 168.568 353.687 168.72 351 168.872C348.288 169.026 345.485 169.186 343.026 170.146C340.528 171.121 338.591 172.862 337.185 174.996C337.285 175.204 337.387 175.412 337.488 175.62C338.846 173.447 340.75 171.667 343.24 170.695C345.612 169.769 348.367 169.612 351.032 169.46C353.682 169.31 356.388 169.15 358.68 168.208H358.681Z" fill="#D9D9D9"/>
<path d="M311.777 165.974C318.289 169.286 323.566 174.838 328.228 180.045C328.202 179.724 328.176 179.401 328.149 179.077C323.578 174 318.407 168.686 312.042 165.45C310.01 164.417 307.92 163.658 305.832 163.173C305.844 163.378 305.857 163.582 305.869 163.789C307.853 164.265 309.841 164.991 311.776 165.974H311.777Z" fill="#D9D9D9"/>
<path d="M329.788 196.23C328.159 196.62 326.377 196.522 324.905 196.176C323.374 195.816 321.873 195.222 320.421 194.648C318.875 194.035 317.275 193.404 315.615 193.041C313.301 192.535 310.878 192.597 308.569 193.154C308.592 193.348 308.617 193.547 308.64 193.742C310.883 193.192 313.241 193.123 315.49 193.615C317.103 193.969 318.681 194.592 320.205 195.196C321.678 195.777 323.199 196.379 324.771 196.748C326.298 197.107 328.144 197.209 329.853 196.817C329.832 196.626 329.81 196.426 329.788 196.23Z" fill="#D9D9D9"/>
<path d="M310.013 141.013C310.227 145.121 308.367 149.161 305.307 151.833C305.315 152.081 305.324 152.337 305.333 152.588C308.74 149.808 310.831 145.429 310.599 140.982C310.393 137.028 308.36 133.324 305.326 130.856C305.316 131.1 305.307 131.348 305.298 131.596C308.016 133.954 309.821 137.373 310.012 141.012L310.013 141.013Z" fill="#D9D9D9"/>
</g>
<path opacity="0.4" d="M338.515 115.277C335.399 115.842 332.227 116.022 329.158 115.975C324.592 115.896 320.262 115.293 316.668 114.579C310.983 113.458 307.13 112.062 307.13 112.062L316.002 110.25C315.979 110.117 315.956 109.976 315.94 109.842L323.88 108.642L332.712 106.838C332.602 107.002 332.492 107.174 332.391 107.356L336.69 106.704C337.152 109.45 337.771 112.32 338.515 115.277Z" fill="#3683BC"/>
<path d="M326.668 151.002C326.507 151.002 326.356 150.901 326.299 150.741L320.644 134.809L313.845 130.699C313.661 130.587 313.6 130.345 313.713 130.161C313.826 129.976 314.068 129.917 314.251 130.029L321.288 134.284L327.038 150.478C327.111 150.682 327.004 150.907 326.801 150.979C326.758 150.994 326.713 151.002 326.669 151.002H326.668Z" fill="#3683BC"/>
<path d="M340.018 109.747C326.903 114.743 304.39 111.935 304.39 111.935C305.307 102.391 305.369 74.1554 320.052 70.6266L326.613 71.3168C330.051 72.6663 332.736 77.8115 334.757 83.92C335.972 87.559 336.943 91.5439 337.709 95.276C339.323 103.08 340.02 109.747 340.02 109.747H340.018Z" fill="#1F3C88"/>
<path d="M337.707 95.2779C331.53 91.6777 330.229 83.5682 330.229 83.5682L334.756 83.9219C335.97 87.5609 336.941 91.5458 337.707 95.2779Z" fill="#102048"/>
<path d="M326.609 71.3117L325.728 83.9583L339.204 91.1665L341.933 78.0639C330.084 71.0526 326.609 71.3117 326.609 71.3117Z" fill="#1F3C88"/>
<path d="M352.281 88.6953C351.96 89.1808 351.599 89.6369 351.192 90.0526C350.457 90.822 349.586 91.4486 348.615 91.9186C347.183 92.6167 345.616 92.9145 344.065 92.8199C342.766 92.7407 341.488 92.3809 340.307 91.7527L339.203 91.1648L341.936 78.059C342.664 78.498 343.424 78.9525 344.23 79.4473C344.23 79.4473 354.895 64.3499 355.677 64.6477C356.382 64.9067 355.183 67.2443 354.941 67.7066C355.403 67.0241 358.864 61.9425 359.789 62.2946C360.524 62.5691 359.594 64.8276 359.476 65.1022C359.688 64.7966 361.543 62.0588 362.663 62.7181C363.18 63.0236 361.182 65.9879 360.987 66.2873C361.23 66.0515 363.447 63.9031 363.995 64.5469C364.558 65.1984 362.406 67.7624 362.163 68.0525C362.383 67.857 364.277 66.202 364.881 67.0008C365.672 68.0277 355.977 83.0476 352.281 88.6953Z" fill="#E28B6D"/>
<path opacity="0.4" d="M351.191 90.0535C350.456 90.8228 349.585 91.4495 348.614 91.9195C347.182 92.6175 345.615 92.9154 344.065 92.8207C343.995 92.5384 343.962 92.2484 343.962 91.9505C343.962 89.8177 345.692 88.0835 347.823 88.0835C349.263 88.0835 350.524 88.8761 351.19 90.0519L351.191 90.0535Z" fill="#EB5D60"/>
<path d="M318.502 109.28C312.714 109.28 307.528 108.909 304.985 108.69C304.812 108.675 304.706 108.666 304.679 108.666C304.519 108.658 304.39 108.524 304.395 108.365C304.398 108.205 304.525 108.078 304.686 108.078C304.706 108.078 304.826 108.087 305.036 108.106C310.833 108.604 330.434 109.902 339.309 105.753C339.453 105.684 339.631 105.748 339.699 105.895C339.768 106.043 339.704 106.218 339.557 106.286C334.477 108.659 325.988 109.281 318.503 109.281L318.502 109.28Z" fill="#86A7FF"/>
<path d="M321.574 79.5434C318.46 79.5434 317.083 77.4835 317.063 77.4524C316.976 77.3159 317.015 77.1345 317.15 77.0476C317.286 76.9592 317.466 76.998 317.555 77.1345C317.658 77.2896 320.115 80.9069 326.305 77.5579C326.448 77.4835 326.624 77.5347 326.703 77.6774C326.781 77.8201 326.726 77.9985 326.584 78.076C324.574 79.1634 322.912 79.545 321.574 79.545V79.5434Z" fill="#86A7FF"/>
<path d="M331.882 46.7291C333.527 45.803 335.746 45.7193 337.203 46.9183C337.963 47.5434 338.451 48.44 339.157 49.1272C340.67 50.5992 343.023 50.9684 344.472 52.504C345.592 53.6891 345.992 55.4187 345.88 57.0458C345.767 58.673 345.197 60.2319 344.59 61.7459C343.724 63.9082 342.725 66.1046 340.996 67.662C340.334 68.2576 339.56 68.754 338.694 68.9525C337.829 69.1526 336.861 69.0239 336.156 68.4825C335.413 67.9102 335.046 66.9515 334.982 66.0131C334.919 65.0746 335.117 64.1424 335.315 63.2241C335.788 63.5157 336.426 63.5095 336.893 63.2102C337.361 62.9108 337.634 62.3322 337.567 61.7815C337.455 60.8462 336.534 60.2583 335.709 59.8054C334.341 59.0546 332.974 58.3038 331.605 57.5531C330.804 57.1141 329.986 56.6612 329.384 55.974C328.377 54.8261 327.57 52.3008 328.236 50.8521C328.975 49.2435 330.335 47.5993 331.879 46.7291H331.882Z" fill="#FBB81D"/>
<path d="M315.646 54.3534C315.646 54.3534 315.562 45.0604 327.084 47.5097C329.034 47.9238 330.739 48.9771 331.992 50.5298C333.867 52.8534 335.068 62.6226 329.708 65.3341C322.987 68.7327 315.646 54.3534 315.646 54.3534Z" fill="#FBC343"/>
<path d="M327.585 62.1957L327.318 71.5291C327.247 73.8977 325.376 75.8196 323.012 75.9452C322.933 75.953 322.855 75.953 322.776 75.953C320.13 75.953 318.023 73.679 318.25 71.0048L318.265 70.8559L318.875 63.7655L319.651 63.6244L327.583 62.1973L327.585 62.1957Z" fill="#E28B6D"/>
<path d="M323.637 65.5285C323.637 65.5285 322.197 69.121 318.265 70.8536L318.875 63.7633L319.651 63.6221L323.637 65.5285Z" fill="#102048"/>
<path d="M315.646 54.3525C315.646 54.3525 312.71 66.6067 318.876 67.1961C325.043 67.784 327.587 62.1967 327.587 62.1967L328.371 55.2367L324.554 49.7471L318.485 51.6101L315.646 54.3556V54.3525Z" fill="#E28B6D"/>
<path d="M315.646 54.3528C315.646 54.3528 321.319 51.1652 323.378 55.4309C324.814 58.4045 327.001 60.0394 329.153 59.059C331.306 58.0787 329.545 51.0194 329.545 51.0194L321.518 48.961L316.722 51.7066L315.646 54.3528Z" fill="#FBC343"/>
<path d="M329.43 60.4401C330.17 59.1559 329.911 57.6179 328.851 57.0049C327.791 56.392 326.332 56.9362 325.591 58.2204C324.851 59.5047 325.11 61.0426 326.17 61.6556C327.23 62.2686 328.689 61.7244 329.43 60.4401Z" fill="#E28B6D"/>
<path d="M326.903 60.399C326.903 60.399 326.894 60.399 326.889 60.399C326.782 60.3912 326.702 60.2981 326.708 60.1896C326.757 59.4931 327.197 58.1777 328.501 58.1777C328.61 58.1777 328.696 58.2661 328.696 58.3731C328.696 58.4802 328.608 58.5686 328.501 58.5686C327.234 58.5686 327.103 60.1492 327.097 60.2175C327.089 60.3199 327.004 60.399 326.901 60.399H326.903Z" fill="#102048"/>
<path d="M316.581 58.7536C316.581 59.0297 316.358 59.2546 316.08 59.2546C315.803 59.2546 315.58 59.0313 315.58 58.7536C315.58 58.476 315.803 58.2526 316.08 58.2526C316.358 58.2526 316.581 58.476 316.581 58.7536Z" fill="#102048"/>
<path d="M319.904 59.2716C320.21 59.2716 320.458 59.023 320.458 58.7163C320.458 58.4096 320.21 58.1609 319.904 58.1609C319.598 58.1609 319.35 58.4096 319.35 58.7163C319.35 59.023 319.598 59.2716 319.904 59.2716Z" fill="#102048"/>
<path d="M317.626 61.8063C317.193 61.8063 316.898 61.6698 316.751 61.3999C316.364 60.6925 317.261 59.3663 317.445 59.1073C317.507 59.0188 317.629 58.9987 317.719 59.0607C317.807 59.1228 317.828 59.2453 317.766 59.3337C317.289 60.0038 316.905 60.8632 317.095 61.2091C317.177 61.3595 317.392 61.4247 317.725 61.4092C317.728 61.4092 317.733 61.4092 317.736 61.4092C317.84 61.4092 317.925 61.4898 317.931 61.5953C317.936 61.7039 317.854 61.7954 317.747 61.8016C317.705 61.8032 317.667 61.8047 317.628 61.8047L317.626 61.8063Z" fill="#102048"/>
<path opacity="0.4" d="M323.35 62.5775C324.243 62.2071 324.667 61.1818 324.297 60.2874C323.927 59.393 322.903 58.9683 322.01 59.3388C321.117 59.7092 320.693 60.7346 321.063 61.6289C321.433 62.5233 322.457 62.948 323.35 62.5775Z" fill="#EB5D60"/>
<path d="M317.87 63.5026C317.342 63.5026 316.976 63.3181 316.948 63.3041C316.852 63.2545 316.815 63.1366 316.865 63.0404C316.914 62.9442 317.032 62.9054 317.128 62.9551C317.173 62.9783 318.229 63.498 319.322 62.4897C319.403 62.4168 319.525 62.423 319.6 62.5021C319.672 62.5813 319.666 62.7053 319.587 62.7798C318.968 63.3506 318.351 63.5026 317.87 63.5026Z" fill="#102048"/>
<path d="M317.177 57.6485C316.809 57.5694 316.474 57.4639 316.165 57.4686C316.01 57.4577 315.866 57.4779 315.719 57.5182C315.564 57.543 315.424 57.6268 315.242 57.6981L315.223 57.7059C315.161 57.7292 315.091 57.6997 315.068 57.6376C315.056 57.6066 315.057 57.574 315.07 57.5461C315.156 57.3491 315.304 57.163 315.511 57.0482C315.714 56.9365 315.955 56.8776 316.185 56.8869C316.642 56.9288 317.046 57.118 317.312 57.4639C317.352 57.5167 317.343 57.5911 317.29 57.6314C317.263 57.6532 317.227 57.6609 317.193 57.6532L317.176 57.65L317.177 57.6485Z" fill="#102048"/>
<path d="M318.628 57.4782C318.899 57.0082 319.395 56.6793 319.983 56.6173C320.274 56.5971 320.578 56.6623 320.824 56.805C321.075 56.943 321.266 57.1478 321.403 57.3758C321.437 57.4317 321.419 57.5046 321.363 57.5387C321.329 57.5589 321.289 57.5604 321.255 57.5464L321.242 57.5402C321.015 57.441 320.821 57.3262 320.615 57.275C320.418 57.2021 320.22 57.1835 320.022 57.199C319.622 57.2067 319.214 57.4115 318.797 57.6333L318.783 57.6411C318.726 57.6721 318.656 57.6504 318.625 57.593C318.605 57.5557 318.608 57.5139 318.627 57.4797L318.628 57.4782Z" fill="#102048"/>
</g>
</g>
<defs>
<clipPath id="clip0_1_509">
<rect width="393" height="227" fill="white" transform="translate(0 0.5)"/>
</clipPath>
</defs>
</svg>
