<svg width="33" height="33" viewBox="0 0 33 33" fill="none" xmlns="http://www.w3.org/2000/svg">
<path d="M31.553 30.5853L29.4919 18.7008H30.188C30.748 18.7008 31.1991 18.2497 31.1991 17.6897V10.2231C31.1991 9.66305 30.748 9.21194 30.188 9.21194H20.6213V2.13416C20.6213 1.57416 20.1702 1.12305 19.6102 1.12305H13.388C12.828 1.12305 12.3769 1.57416 12.3769 2.13416V9.21194H2.81024C2.25024 9.21194 1.79913 9.66305 1.79913 10.2231V17.6897C1.79913 18.2497 2.25024 18.7008 2.81024 18.7008H3.50635L1.44524 30.5853C1.43358 30.6436 1.42969 30.7019 1.42969 30.7564C1.42969 31.3164 1.8808 31.7675 2.4408 31.7675H30.5574C30.6158 31.7675 30.6741 31.7636 30.7286 31.7519C31.2808 31.6586 31.6502 31.1336 31.553 30.5853ZM4.52135 11.9342H15.0991V3.84527H17.8991V11.9342H28.4769V15.9786H4.52135V11.9342ZM22.7213 29.0453V22.9786C22.7213 22.8075 22.5813 22.6675 22.4102 22.6675H20.5436C20.3724 22.6675 20.2324 22.8075 20.2324 22.9786V29.0453H12.7658V22.9786C12.7658 22.8075 12.6258 22.6675 12.4547 22.6675H10.588C10.4169 22.6675 10.2769 22.8075 10.2769 22.9786V29.0453H4.47468L6.22857 18.9342H26.7658L28.5197 29.0453H22.7213Z" fill="#D9D9D9"/>
</svg>
