<svg width="32" height="34" viewBox="0 0 32 34" fill="none" xmlns="http://www.w3.org/2000/svg">
<path d="M31.054 31.0853L28.9929 19.2008H29.689C30.249 19.2008 30.7001 18.7497 30.7001 18.1897V10.7231C30.7001 10.163 30.249 9.71194 29.689 9.71194H20.1223V2.63416C20.1223 2.07416 19.6712 1.62305 19.1112 1.62305H12.889C12.329 1.62305 11.8779 2.07416 11.8779 2.63416V9.71194H2.31122C1.75122 9.71194 1.30011 10.163 1.30011 10.7231V18.1897C1.30011 18.7497 1.75122 19.2008 2.31122 19.2008H3.00733L0.94622 31.0853C0.934553 31.1436 0.930664 31.2019 0.930664 31.2564C0.930664 31.8164 1.38178 32.2675 1.94178 32.2675H30.0584C30.1168 32.2675 30.1751 32.2636 30.2296 32.2519C30.7818 32.1586 31.1512 31.6336 31.054 31.0853ZM4.02233 12.4342H14.6001V4.34527H17.4001V12.4342H27.9779V16.4786H4.02233V12.4342ZM22.2223 29.5453V23.4786C22.2223 23.3075 22.0823 23.1675 21.9112 23.1675H20.0446C19.8734 23.1675 19.7334 23.3075 19.7334 23.4786V29.5453H12.2668V23.4786C12.2668 23.3075 12.1268 23.1675 11.9557 23.1675H10.089C9.91789 23.1675 9.77789 23.3075 9.77789 23.4786V29.5453H3.97566L5.72955 19.4342H26.2668L28.0207 29.5453H22.2223Z" fill="#D9D9D9"/>
</svg>
