<svg width="170" height="154" viewBox="0 0 170 154" fill="none" xmlns="http://www.w3.org/2000/svg">
<g clip-path="url(#clip0_355_11865)">
<mask id="mask0_355_11865" style="mask-type:luminance" maskUnits="userSpaceOnUse" x="0" y="0" width="170" height="154">
<path d="M169.388 0.390869H0.989258V153.991H169.388V0.390869Z" fill="white"/>
</mask>
<g mask="url(#mask0_355_11865)">
<path opacity="0.15" d="M164.47 73.5659C164.872 74.3857 165.259 75.2202 165.621 76.0694C169.961 86.1962 170.343 97.6974 167.83 108.389C160.057 141.459 133.19 148.38 133.19 148.38H61.5303C61.5303 148.38 45.1264 147.227 37.2845 144.969C2.87492 135.068 -12.3731 88.1695 15.2868 62.9287C24.3827 54.6279 35.6289 49.135 45.6456 41.9781C52.1112 37.3589 57.5383 31.9298 63.1663 26.3731C67.9175 21.6804 75.304 19.4567 81.8185 18.3522C91.7765 16.6587 102.082 17.8123 111.653 20.9146C123.154 24.6403 136.663 32.3275 143.192 42.7438C149.82 53.3222 158.935 62.3102 164.465 73.5659H164.47Z" fill="#709EB3"/>
<path d="M147.199 51.3686C148.594 49.0762 149.109 46.3518 149.324 43.6716C149.819 37.4915 148.839 31.1936 146.483 25.4601C143.153 29.8928 139.768 34.4334 138.059 39.7103C136.707 43.8925 136.442 49.0124 138.504 53.0277C140.748 57.3916 145.141 54.7409 147.199 51.3686Z" fill="#709EB3"/>
<path d="M155.956 68.4414C158.866 64.7941 160.135 60.1308 161.129 55.5657C157 56.9009 152.861 58.4815 149.447 61.1715C147.105 63.0172 141.12 69.3986 144.186 72.6678C147.252 75.9419 154.041 70.8319 155.956 68.4414Z" fill="#709EB3"/>
<path d="M117.144 46.9602C118.447 51.167 119.755 55.3983 121.719 59.3401C122.106 60.1156 122.679 61.1563 123.394 62.3C125.486 65.6429 129.012 70.9493 133.396 71.2782C140.107 71.7887 137.702 63.3996 135.38 60.0518C130.898 53.587 123.639 50.8185 117.139 46.9553L117.144 46.9602Z" fill="#709EB3"/>
<path d="M150.246 83.1772C147.924 84.5664 141.801 89.6126 144.177 92.9113C146.557 96.2149 153.263 92.4106 155.261 90.4765C158.303 87.5362 159.988 83.4815 161.409 79.4907C157.534 80.2123 153.63 81.1548 150.246 83.1772Z" fill="#709EB3"/>
<path d="M116.541 71.3275C118.025 75.0385 119.524 78.7692 121.586 82.1906C121.993 82.8631 122.586 83.7614 123.32 84.7432C125.456 87.6099 129.036 92.1505 133.028 92.1308C139.132 92.0965 136.345 84.6892 133.998 81.8323C129.467 76.3148 122.703 74.3464 116.541 71.3324V71.3275Z" fill="#709EB3"/>
<path d="M161.673 79.2696C161.59 79.1763 161.468 79.1272 161.345 79.1517C157.544 79.8586 153.542 80.8011 150.07 82.8824C148.159 84.0261 144.011 87.3788 143.379 90.4517C143.173 91.4531 143.349 92.3514 143.898 93.1172C143.986 93.2399 144.089 93.3332 144.187 93.4412C143.168 94.4474 142.174 95.4832 141.243 96.5729C140.626 97.2994 140.146 98.0947 139.798 98.9537C139.813 95.0954 139.823 91.8213 139.798 90.0885V89.6516C139.759 87.5801 139.73 85.4399 139.852 83.3536C139.989 81.0318 141.072 79.083 142.115 77.4877C142.982 76.1574 143.908 74.8664 144.887 73.6147C145.446 73.9141 146.078 74.081 146.803 74.081C146.871 74.081 146.945 74.081 147.013 74.081C150.54 73.9436 154.826 70.424 156.231 68.6617C159.283 64.8427 160.537 59.9389 161.472 55.6437C161.497 55.521 161.458 55.3934 161.365 55.3099C161.272 55.2265 161.139 55.197 161.027 55.2363C156.971 56.5469 152.739 58.1423 149.237 60.901C147.312 62.4178 143.261 66.659 143.002 70.0951C142.918 71.2094 143.232 72.1519 143.937 72.9078C144.05 73.0305 144.182 73.1238 144.304 73.2269C143.325 74.4786 142.399 75.7696 141.527 77.1048C140.998 77.9147 140.464 78.813 140.033 79.8095C140.415 71.7739 141.008 63.6941 141.806 55.6535C144.045 55.5848 146.259 53.582 147.493 51.5547C149.09 48.9383 149.497 45.8213 149.668 43.7056C150.168 37.4715 149.178 31.1195 146.803 25.3321C146.754 25.2143 146.651 25.1358 146.523 25.121C146.401 25.1063 146.278 25.1554 146.2 25.2585C142.889 29.6665 139.465 34.2268 137.721 39.6117C136.144 44.4812 136.32 49.5568 138.192 53.1942C139.063 54.8878 140.19 55.4621 141.111 55.6142C140.327 63.5124 139.739 71.4499 139.357 79.3481C138.877 76.6483 138.001 73.9877 136.796 71.6463C136.688 71.4352 136.57 71.229 136.453 71.0228C136.894 70.7381 137.261 70.3602 137.53 69.8791C139.024 67.2578 137.403 62.3834 135.659 59.8701C132.133 54.7896 126.857 51.9278 121.753 49.1592C120.284 48.364 118.765 47.5393 117.316 46.6754C117.193 46.6018 117.036 46.6116 116.924 46.6999C116.811 46.7883 116.762 46.9405 116.806 47.0779C118.094 51.2356 119.422 55.5357 121.406 59.5118C121.856 60.4101 122.454 61.4753 123.095 62.5012C125.814 66.8406 129.159 71.3223 133.367 71.6413C133.573 71.6561 133.773 71.6659 133.964 71.6659C134.675 71.6659 135.297 71.553 135.831 71.3419C135.943 71.553 136.066 71.7592 136.174 71.9702C138.02 75.5487 139.108 80.0991 139.073 84.1341C139.073 84.1881 139.063 87.9041 139.088 89.6712V90.1081C139.122 91.8507 139.112 95.1592 139.098 99.0519C138.49 96.6908 137.501 94.3738 136.144 92.1992C136.036 92.0225 135.919 91.8556 135.806 91.6838C136.178 91.3942 136.472 91.026 136.683 90.5744C137.849 88.0857 136.022 83.7758 134.253 81.6209C130.688 77.2766 125.701 75.0775 120.877 72.9471C119.49 72.3335 118.06 71.7052 116.684 71.0277C116.551 70.9639 116.4 70.9885 116.297 71.0867C116.194 71.1848 116.16 71.337 116.214 71.4695C117.683 75.1364 119.201 78.9259 121.283 82.3817C121.753 83.1671 122.375 84.0801 123.032 84.9637C125.804 88.6846 129.154 92.4889 132.985 92.4889H133.019C133.891 92.4839 134.621 92.3318 135.213 92.0471C135.326 92.2189 135.444 92.3907 135.551 92.5674C137.574 95.8121 138.779 99.3955 139.039 102.93C139.039 102.979 139.054 115.275 139.171 117.882C139.181 118.068 139.333 118.216 139.519 118.216H139.534C139.725 118.206 139.872 118.044 139.867 117.852C139.749 115.162 139.798 102.297 139.803 102.262C139.867 100.255 140.528 98.4972 141.767 97.0442C142.698 95.9544 143.687 94.9187 144.711 93.9124C145.22 94.2658 145.828 94.4916 146.548 94.5554C146.709 94.5702 146.871 94.5751 147.038 94.5751C150.172 94.5751 154.101 92.0962 155.502 90.7462C158.695 87.6586 160.395 83.388 161.737 79.6279C161.781 79.5101 161.757 79.3776 161.673 79.2843V79.2696ZM144.442 72.4317C143.869 71.8181 143.624 71.0719 143.692 70.1491C143.932 66.9731 147.895 62.8448 149.663 61.4459C152.915 58.8835 156.844 57.3421 160.659 56.0855C159.753 60.1549 158.509 64.6905 155.688 68.2248C154.262 70.0067 150.138 73.2563 146.984 73.384C146.357 73.4134 145.808 73.2907 145.328 73.0649C146.91 71.0965 148.63 69.2361 150.471 67.5082C150.608 67.3756 150.618 67.1547 150.486 67.0173C150.354 66.8749 150.138 66.87 149.996 67.0026C148.11 68.7697 146.357 70.6743 144.74 72.6918C144.642 72.6084 144.535 72.5347 144.446 72.4415L144.442 72.4317ZM133.426 70.9345C129.522 70.64 126.314 66.3104 123.688 62.1184C123.056 61.1121 122.468 60.0714 122.028 59.1878C120.21 55.5357 118.937 51.5792 117.737 47.7161C118.961 48.4229 120.21 49.1003 121.425 49.7581C126.456 52.4874 131.662 55.3099 135.091 60.2579C136.688 62.5601 138.26 67.1891 136.928 69.5257C136.722 69.884 136.448 70.1736 136.115 70.3945C134.2 67.0075 131.834 64.0033 129.723 61.4704C129.6 61.3231 129.38 61.3035 129.233 61.4262C129.086 61.5489 129.066 61.7698 129.189 61.9171C131.275 64.4206 133.612 67.3854 135.498 70.7136C134.929 70.9247 134.239 71.0032 133.421 70.9394L133.426 70.9345ZM133.024 91.782H132.995C129.468 91.782 126.265 88.1201 123.595 84.5367C122.953 83.6727 122.341 82.7744 121.881 82.0086C119.98 78.8621 118.55 75.4064 117.193 72.0291C118.325 72.5642 119.481 73.0747 120.607 73.5705C125.358 75.6665 130.266 77.8362 133.729 82.0528C135.336 84.0114 137.094 88.0661 136.066 90.2652C135.914 90.5892 135.698 90.8542 135.429 91.0751C133.455 88.1642 131.099 85.6313 129.007 83.5009C128.87 83.3635 128.655 83.3635 128.518 83.5009C128.381 83.6334 128.381 83.8543 128.518 83.9918C130.58 86.0927 132.902 88.5913 134.841 91.4433C134.351 91.6642 133.749 91.7771 133.029 91.782H133.024ZM138.814 52.8703C137.026 49.3998 136.869 44.5205 138.387 39.8228C140.028 34.7471 143.232 30.3734 146.391 26.1666C148.561 31.6939 149.452 37.7267 148.977 43.6516C148.718 46.9012 148.056 49.2967 146.9 51.1915C145.588 53.3513 143.584 54.8485 141.875 54.9417C142.286 50.8577 142.747 46.7834 143.266 42.7337C143.291 42.5422 143.158 42.3704 142.967 42.3459C142.781 42.3213 142.605 42.4588 142.58 42.6453C142.061 46.7147 141.596 50.8135 141.184 54.9172C140.219 54.7405 139.426 54.0582 138.814 52.8703ZM155.022 90.2308C153.537 91.6642 149.457 94.1186 146.611 93.8486C146.073 93.7995 145.612 93.6424 145.22 93.4019C146.866 91.8311 148.605 90.3585 150.447 89.0233C150.603 88.9104 150.638 88.6944 150.525 88.5373C150.412 88.3802 150.192 88.3459 150.04 88.4588C148.145 89.8234 146.362 91.3402 144.682 92.9552C144.608 92.8766 144.525 92.803 144.456 92.7097C144.015 92.1011 143.883 91.4089 144.055 90.5941C144.638 87.7715 148.674 84.5268 150.422 83.4813C153.626 81.5669 157.319 80.6342 160.875 79.9519C159.592 83.4911 157.946 87.3985 155.017 90.2308H155.022Z" fill="#231F20"/>
<path d="M147.317 108.202H131.603V148.361H147.317V108.202Z" fill="#D9D9D9"/>
<path d="M147.316 107.859H131.603C131.412 107.859 131.255 108.016 131.255 108.207V148.366C131.255 148.557 131.412 148.714 131.603 148.714H147.316C147.507 148.714 147.664 148.557 147.664 148.366V108.207C147.664 108.016 147.507 107.859 147.316 107.859ZM137.701 108.556H143.77L142.291 148.017H139.088L137.701 108.556ZM138.392 148.017H134.616L135.909 108.556H137.006L138.392 148.017ZM131.946 108.556H135.208L133.915 148.017H131.941V108.556H131.946ZM146.964 148.017H142.982L144.461 108.556H146.964V148.017Z" fill="#231F20"/>
<path d="M85.4533 11.3851L88.2403 8.59201L92.1539 8.4791L94.9655 11.3851L94.9802 13.1326H102.778C102.778 12.8921 102.788 12.6466 102.793 12.4061C102.793 12.3472 102.7 11.0611 102.504 10.8549C101.95 10.2806 100.76 11.0857 100.251 10.5751C100.065 10.3886 99.9126 9.79956 99.7951 9.55412C99.6873 9.32341 99.2906 8.65582 99.3542 8.40057C99.5453 7.69861 100.388 7.32555 100.584 6.62359C100.75 6.01982 100.373 5.38659 99.9028 4.96934C99.4179 4.53737 98.8497 4.20357 98.3795 3.75197C97.9485 3.33963 97.4488 2.71622 96.7631 2.94202C96.2831 3.0991 96.2488 3.46726 95.9549 3.81578C95.7933 4.00722 95.5582 4.15449 95.3034 4.15449C95.1222 4.15449 94.9508 4.08086 94.7842 4.00722C94.5002 3.8796 94.2112 3.75197 93.9271 3.62434C93.5499 3.45744 93.1434 3.25618 92.9719 2.88312C92.8495 2.61314 92.8789 2.29898 92.9131 2.00445C92.9425 1.70992 92.9719 1.39576 92.8495 1.12578C92.6144 0.605454 91.8943 0.767443 91.4339 0.767443C90.4935 0.767443 89.553 0.767443 88.6126 0.762534C88.3383 0.762534 88.0346 0.772352 87.824 0.949067C87.3684 1.33195 87.535 2.19098 87.5448 2.7064C87.5448 2.86348 87.5448 3.03038 87.4615 3.16292C87.3831 3.28073 87.246 3.34454 87.1186 3.40345C86.4182 3.71761 85.7227 4.03668 85.0222 4.35084C84.7283 4.20357 84.5128 3.93359 84.3169 3.66852C84.1161 3.40345 83.9103 3.12856 83.6164 2.97638C83.1168 2.71622 82.6662 3.03038 82.3184 3.3789C81.667 4.02686 81.0155 4.67973 80.3641 5.32768C79.9624 5.7302 79.5216 6.27998 79.7322 6.81013C79.9624 7.38936 80.8784 7.45317 81.0596 8.0275C81.1625 8.3613 80.8196 8.93071 80.6971 9.24487C80.4571 9.60321 80.4718 10.3837 80.1045 10.639C79.7812 10.8599 78.9681 10.6635 78.5958 10.6488C78.297 10.6341 77.9542 10.639 77.7533 10.8599C77.5672 11.0611 77.5672 11.3655 77.5819 11.6403C77.5917 11.9152 77.6064 12.5337 77.6113 13.1424H85.4728V11.3949L85.4533 11.3851Z" fill="#709EB3"/>
<path d="M102.773 13.4766H94.9752C94.7842 13.4766 94.6274 13.3244 94.6274 13.1329L94.6128 11.5229L92.0069 8.82796L88.3823 8.93104L85.7961 11.5229V13.128C85.7961 13.3195 85.6393 13.4766 85.4483 13.4766H77.5868C77.3957 13.4766 77.2439 13.3244 77.239 13.1329C77.2341 12.5292 77.2243 11.9156 77.2096 11.6407C77.1998 11.3756 77.1802 10.9289 77.4741 10.6098C77.8023 10.2564 78.3166 10.276 78.586 10.2859C78.6888 10.2859 78.8309 10.3055 78.9827 10.3251C79.2178 10.3546 79.7615 10.4282 79.8889 10.3349C79.9967 10.2613 80.0701 9.96679 80.1338 9.73117C80.1926 9.50046 80.2514 9.25993 80.3689 9.06849C80.3983 8.98995 80.4375 8.9065 80.4816 8.80832C80.5599 8.63652 80.7461 8.234 80.7069 8.11128C80.6579 7.94929 80.4424 7.82657 80.2122 7.69403C79.9036 7.51732 79.5509 7.31606 79.3893 6.91845C79.0611 6.09378 79.8448 5.31819 80.0995 5.06294L82.0539 3.11416C82.6417 2.52511 83.2196 2.36803 83.7535 2.64783C84.1209 2.83927 84.3609 3.15834 84.5715 3.43814C84.7283 3.64922 84.8654 3.82102 85.0271 3.93883L86.9569 3.06507C87.0206 3.03562 87.1284 2.98653 87.1578 2.94726C87.1871 2.90308 87.1822 2.76564 87.1822 2.69201C87.1822 2.60365 87.1725 2.50057 87.1676 2.39748C87.1333 1.8477 87.0794 1.09175 87.5839 0.66469C87.9023 0.394708 88.3137 0.394708 88.5978 0.394708H91.4192C91.5024 0.394708 91.5857 0.394708 91.6739 0.394708C92.1441 0.370164 92.8543 0.325985 93.1482 0.969033C93.3147 1.33719 93.2707 1.73971 93.2413 2.02932C93.2168 2.26985 93.1874 2.53984 93.2707 2.73128C93.3833 2.98653 93.7017 3.14361 94.0495 3.29578L94.9066 3.67867C95.0389 3.73757 95.176 3.79648 95.2887 3.79648C95.4161 3.79648 95.5581 3.71303 95.6756 3.58049C95.7589 3.48232 95.8128 3.38414 95.8716 3.29088C96.0136 3.05035 96.1949 2.75091 96.6406 2.60365C97.4439 2.33858 98.0268 2.91781 98.4529 3.33996L98.6047 3.49214C98.8448 3.71794 99.1093 3.9192 99.3934 4.12537C99.6432 4.3119 99.8881 4.49352 100.123 4.69969C100.799 5.29856 101.093 6.0496 100.907 6.70737C100.785 7.14425 100.481 7.45841 100.206 7.73821C99.9713 7.98365 99.746 8.21436 99.6774 8.47943C99.6774 8.59234 99.9077 9.02922 99.9958 9.19611C100.035 9.27465 100.069 9.34338 100.094 9.39246C100.133 9.48082 100.182 9.60354 100.231 9.74099C100.29 9.90298 100.412 10.2417 100.481 10.3153C100.603 10.438 100.936 10.3889 101.255 10.3399C101.735 10.2662 102.328 10.1779 102.739 10.6C103.067 10.9387 103.126 12.3868 103.126 12.3966L103.111 13.1231C103.111 13.3146 102.955 13.4667 102.763 13.4667L102.773 13.4766ZM95.3181 12.7795H102.43L102.44 12.3917C102.435 12.161 102.332 11.2431 102.23 11.0664C102.097 10.9338 101.803 10.9682 101.368 11.032C100.897 11.1056 100.368 11.1842 99.9958 10.8111C99.8293 10.6442 99.7166 10.3595 99.5844 9.98152C99.5452 9.86862 99.506 9.76553 99.4717 9.6919C99.4521 9.64772 99.4227 9.59372 99.3836 9.525C99.1191 9.0194 98.928 8.61197 99.0113 8.30272C99.1289 7.86093 99.4374 7.54186 99.7117 7.25715C99.9468 7.01662 100.167 6.78591 100.241 6.52084C100.368 6.05942 100.025 5.544 99.6628 5.22002C99.4472 5.02858 99.217 4.85677 98.9819 4.68496C98.6929 4.47389 98.399 4.25299 98.1296 3.99283L97.968 3.83084C97.5419 3.40869 97.2284 3.1387 96.861 3.26142C96.67 3.32524 96.6014 3.42341 96.4691 3.64431C96.3957 3.76703 96.3173 3.89956 96.2047 4.02719C95.9548 4.32172 95.6218 4.48861 95.2887 4.48861C95.0291 4.48861 94.8087 4.39044 94.6274 4.30699L93.7654 3.92411C93.4078 3.76703 92.869 3.5265 92.6339 3.00617C92.4723 2.64292 92.5163 2.25513 92.5457 1.94588C92.5751 1.66117 92.5947 1.42555 92.5114 1.24883C92.4233 1.05739 92.1245 1.05739 91.7081 1.08193C91.6053 1.08684 91.5073 1.08684 91.4094 1.09175H88.588C88.348 1.08193 88.1374 1.09175 88.0198 1.18993C87.7847 1.39119 87.819 1.94097 87.8484 2.34349C87.8582 2.4613 87.8631 2.5742 87.8631 2.67237C87.8631 2.84418 87.8729 3.10434 87.721 3.33015C87.5839 3.53141 87.3733 3.62958 87.2312 3.69339L85.1348 4.64079C85.0417 4.68496 84.934 4.68496 84.836 4.63588C84.4589 4.44934 84.2042 4.11555 84.0082 3.85047C83.8319 3.61485 83.6507 3.37433 83.4254 3.26142C83.2441 3.16816 82.9992 3.1387 82.5339 3.60013L80.5795 5.54891C80.0995 6.02506 79.9183 6.3883 80.026 6.65338C80.0946 6.82518 80.315 6.95281 80.5452 7.08535C80.8636 7.26697 81.231 7.47805 81.3583 7.9002C81.4759 8.27818 81.2653 8.72978 81.0987 9.09303C81.0547 9.1863 81.0155 9.26975 80.991 9.33847C80.9812 9.36301 80.9714 9.38756 80.9567 9.40719C80.893 9.50537 80.8391 9.70172 80.795 9.88825C80.702 10.2515 80.5991 10.6687 80.2758 10.8945C79.9281 11.1351 79.3746 11.0614 78.8897 11.0025C78.7623 10.9878 78.6448 10.9682 78.5566 10.9682C78.3117 10.9584 78.0766 10.9682 77.9786 11.0713C77.8855 11.1694 77.8904 11.3952 77.8953 11.6014C77.9051 11.8272 77.9149 12.2788 77.9198 12.7697H85.0907V11.3707C85.0907 11.2774 85.125 11.1891 85.1936 11.1253L87.9807 8.33217C88.0443 8.26836 88.1276 8.234 88.2158 8.22909L92.1294 8.11619C92.2176 8.11619 92.3204 8.15055 92.389 8.22418L95.2005 11.1302C95.2642 11.194 95.2985 11.2823 95.2985 11.3707L95.3083 12.7746L95.3181 12.7795Z" fill="#231F20"/>
<path d="M108.558 13.1086H54.9482C52.8976 13.1086 51.2354 14.7745 51.2354 16.8294V50.8471C51.2354 52.9021 52.8976 54.568 54.9482 54.568H108.558C110.609 54.568 112.271 52.9021 112.271 50.8471V16.8294C112.271 14.7745 110.609 13.1086 108.558 13.1086Z" fill="#D9D9D9"/>
<mask id="mask1_355_11865" style="mask-type:luminance" maskUnits="userSpaceOnUse" x="102" y="16" width="7" height="7">
<path d="M108.149 16.7208H102.025V22.8444H108.149V16.7208Z" fill="white"/>
</mask>
<g mask="url(#mask1_355_11865)">
<path d="M107.767 19.842C107.767 19.6218 107.749 19.461 107.709 19.2943H105.143V20.2885H106.649C106.619 20.5356 106.455 20.9077 106.09 21.1577L106.085 21.191L106.897 21.8071L106.953 21.8126C107.469 21.3453 107.767 20.6577 107.767 19.842Z" fill="#4285F4"/>
<path d="M105.142 22.4616C105.88 22.4616 106.499 22.2235 106.952 21.8127L106.089 21.1578C105.858 21.3155 105.549 21.4257 105.142 21.4257C104.419 21.4257 103.805 20.9583 103.586 20.3124L103.554 20.315L102.71 20.9551L102.699 20.9851C103.149 21.8603 104.072 22.4616 105.142 22.4616Z" fill="#34A853"/>
<path d="M103.586 20.3124C103.529 20.1457 103.495 19.9671 103.495 19.7825C103.495 19.598 103.529 19.4194 103.583 19.2527L103.582 19.2172L102.728 18.5669L102.7 18.5799C102.514 18.9431 102.408 19.3509 102.408 19.7825C102.408 20.2142 102.514 20.622 102.7 20.9851L103.586 20.3124Z" fill="#FBBC05"/>
<path d="M105.142 18.1394C105.655 18.1394 106.001 18.3567 106.199 18.5383L106.97 17.8001C106.496 17.3684 105.88 17.1035 105.142 17.1035C104.072 17.1035 103.149 17.7048 102.699 18.58L103.583 19.2527C103.805 18.6068 104.419 18.1394 105.142 18.1394Z" fill="#EB4335"/>
</g>
<path d="M108.558 54.9163H54.9532C52.7147 54.9163 50.8926 53.0902 50.8926 50.8469V16.8292C50.8926 14.5859 52.7147 12.7598 54.9532 12.7598H108.563C110.801 12.7598 112.624 14.5859 112.624 16.8292V50.8469C112.624 53.0902 110.801 54.9163 108.563 54.9163H108.558ZM54.9532 13.4569C53.0968 13.4569 51.5832 14.9688 51.5832 16.8341V50.8469C51.5832 52.7073 53.0968 54.2241 54.9532 54.2241H108.563C110.419 54.2241 111.933 52.7073 111.933 50.8469V16.8292C111.933 14.9688 110.419 13.452 108.563 13.452H54.9532V13.4569Z" fill="#231F20"/>
<path d="M107.05 25.4738H103.121V37.5444H107.05V25.4738Z" fill="#D9D9D9"/>
<path d="M62.3575 90.2363C66.8295 89.8141 68.7545 84.7041 69.5431 79.9917C70.2876 75.5542 70.0917 72.1867 70.0917 72.1867C70.0917 72.1867 56.9548 71.9315 54.1825 78.0724C53.3253 79.972 53.3253 82.1123 53.9425 84.061C53.0314 85.784 52.2085 87.7328 50.9301 89.1465C50.0778 90.089 48.9904 90.84 48.0892 91.7432C46.3356 93.5006 44.0286 96.2691 45.9634 98.7284C47.4475 100.618 65.2278 104.879 68.5047 96.5244C68.828 95.6997 64.5176 94.5903 62.5534 93.4368C62.0244 93.1275 61.662 92.8134 61.5934 92.4943C61.515 92.1261 61.6326 91.7432 61.7648 91.3898C61.9265 90.9677 62.1322 90.5946 62.3526 90.2363H62.3575Z" fill="#F8A99C"/>
<path d="M65.791 67.9064C61.4267 68.9814 53.4378 68.25 50.9398 72.9183C50.1414 74.4105 50.2491 85.5681 53.6386 84.5177C55.5342 83.9286 59.2519 78.4013 58.5858 76.4035C59.2323 78.3474 64.8652 77.4 66.1339 77.1545C69.0287 76.5949 70.6695 75.3726 72.0165 72.4127C72.9619 70.3412 73.0794 68.0046 73.1823 65.7269C71.032 66.4534 68.4899 67.2437 65.791 67.9113V67.9064Z" fill="#231F20"/>
<path d="M63.7487 79.9471C63.4303 79.9079 63.1413 80.1337 63.1021 80.4527C63.0629 80.7718 63.2883 81.0614 63.6066 81.1007C63.925 81.1399 64.214 80.9141 64.2532 80.5951C64.2924 80.276 64.0671 79.9864 63.7487 79.9471Z" fill="#231F20"/>
<path d="M67.6872 80.011C67.3688 79.9717 67.0798 80.1975 67.0406 80.5166C67.0014 80.8356 67.2267 81.1253 67.5451 81.1645C67.8635 81.2038 68.1525 80.978 68.1917 80.6589C68.2309 80.3399 68.0055 80.0502 67.6872 80.011Z" fill="#231F20"/>
<path d="M62.7499 85.4648C62.6715 85.3273 62.696 85.1506 62.647 84.9985C62.5981 84.8463 62.3776 84.7726 62.2797 84.8954C61.7164 85.5826 62.5883 87.2074 63.4209 87.0896C63.4307 87.0896 63.4405 87.0896 63.4454 87.0896C63.7001 87.0405 63.9499 86.8932 64.0675 86.6625C64.6406 85.5679 63.0144 85.936 62.7499 85.4697V85.4648Z" fill="#231F20"/>
<path d="M68.6715 78.0671C68.6715 78.0671 68.6617 78.0671 68.6568 78.0671C68.1817 78.0818 67.7066 78.1456 67.2462 78.2585C67.0062 78.3174 66.8543 78.5629 66.9131 78.8034C66.9621 79.0096 67.1482 79.147 67.349 79.147C67.3833 79.147 67.4225 79.147 67.4568 79.1323C67.8584 79.0341 68.2699 78.9801 68.6813 78.9654C68.9311 78.9605 69.1271 78.7494 69.1173 78.499C69.1124 78.2536 68.9115 78.0573 68.6666 78.0573L68.6715 78.0671Z" fill="#231F20"/>
<path d="M65.2236 78.7689C65.2334 78.5186 65.0375 78.3124 64.7877 78.3026C64.0676 78.278 63.3427 78.332 62.6276 78.4646C62.3827 78.5087 62.221 78.7444 62.2651 78.9898C62.3043 79.2107 62.4953 79.3629 62.7059 79.3629C62.7304 79.3629 62.7598 79.3629 62.7843 79.353C63.4358 79.2352 64.097 79.1861 64.7534 79.2058C65.0179 79.2156 65.2089 79.0192 65.2187 78.7689H65.2236Z" fill="#231F20"/>
<path d="M66.369 80.7717C66.2956 80.5312 66.0458 80.3938 65.8057 80.4674C65.5657 80.541 65.4336 80.7914 65.5022 81.0319C65.6883 81.6553 65.9527 82.2493 66.1437 82.6812C66.227 82.8727 66.3298 83.0985 66.3788 83.231C66.2319 83.4126 65.8253 83.8152 65.1641 84.2275C64.9535 84.36 64.8898 84.6398 65.022 84.8509C65.1053 84.9884 65.2523 85.062 65.4042 85.062C65.4875 85.062 65.5657 85.0374 65.6441 84.9933C66.2662 84.6055 67.2214 83.8593 67.2998 83.393C67.3439 83.1427 67.2213 82.8678 66.9715 82.3131C66.7805 81.8811 66.5405 81.3411 66.369 80.7766V80.7717Z" fill="#231F20"/>
<path d="M64.7783 96.4359C64.9252 103.5 62.7994 119.566 61.3251 126.478C58.8564 126.644 56.3779 126.664 53.9044 126.532C52.0725 120.121 47.8894 102.788 47.6641 96.1266C54.9967 98.7283 58.8172 101.335 64.7783 96.431V96.4359Z" fill="#709EB3"/>
<path d="M102.851 148.312L102.464 133.762C102.464 133.762 95.3222 133.811 92.3294 133.875C87.637 133.983 83.1943 133.684 78.5019 133.62C79.795 128.407 80.4661 123.036 80.4857 117.666C80.5004 113.469 80.1036 109.189 78.4627 105.331C77.4439 102.935 75.612 100.515 73.3588 98.6203C72.8837 98.1785 72.3547 97.7907 71.7963 97.4275C71.7718 97.4127 71.7473 97.3931 71.7229 97.3735C68.9456 95.6063 65.3846 94.6393 62.7445 92.9065C63.6458 93.4955 64.307 99.1897 61.6767 102.4C61.1722 103.014 60.9175 103.774 60.8 104.565C60.0358 109.68 59.6391 114.804 58.9191 119.944C57.5672 129.56 54.9809 138.627 52.3164 147.939C52.3457 147.836 58.4831 148.307 58.4831 148.307H102.846L102.851 148.312Z" fill="#25536A"/>
<path d="M70.1651 139.785C71.6394 140.374 73.3391 140.782 74.9163 140.767C77.3017 140.747 81.9207 139.27 83.0472 139.476C84.4285 139.731 93.5048 148.312 93.5048 148.312H67.6719V138.136C67.6719 138.136 69.5136 139.525 70.1651 139.785Z" fill="#F8A99C"/>
<path d="M62.9804 134.798C60.9379 134.758 58.9297 134.724 56.9312 134.405C56.603 134.351 56.2798 134.297 55.9565 134.243C56.559 132.255 57.1369 130.262 57.5043 128.22C58.5476 122.428 57.8619 116.527 57.1957 110.735C56.9312 108.452 57.1957 104.054 55.8683 102.518C55.4177 101.997 49.4762 96.2098 47.9235 90.9329C46.7235 92.1896 43.2458 93.2499 42.6482 93.4757C41.7665 93.8144 40.9142 94.2218 40.0816 94.6636C33.0086 98.2224 28.7962 105.041 26.9545 112.684C26.303 115.388 25.921 118.137 25.7055 120.906C24.2752 125.093 22.7176 129.172 21.493 133.462C20.0824 138.391 17.4961 148.316 17.4961 148.316H71.131V134.852C71.131 134.852 65.7381 134.852 62.9804 134.803V134.798Z" fill="#25536A"/>
<path d="M78.5175 133.197C77.5085 133.339 75.0153 133.821 73.6781 135.161C73.5018 135.337 73.5018 135.622 73.6781 135.799C73.7663 135.887 73.8838 135.931 73.9965 135.931C74.1091 135.931 74.2267 135.887 74.3149 135.799C75.1084 135.004 76.7296 134.36 78.6448 134.09C78.8897 134.056 79.0612 133.825 79.0269 133.58C78.9926 133.335 78.7624 133.168 78.5175 133.197Z" fill="#231F20"/>
<path d="M59.4839 115.496C59.4839 115.496 59.5182 115.496 59.5378 115.496C59.7631 115.496 59.9591 115.324 59.9836 115.093C60.0717 114.313 60.1599 113.532 60.2481 112.757C60.5468 110.091 60.8505 107.333 61.2522 104.628C61.3746 103.813 61.6293 103.175 62.031 102.684C63.8188 100.505 64.245 97.0685 63.8727 94.6289C63.7551 93.8582 63.5053 92.8617 62.9959 92.5279C62.7951 92.3954 62.5306 92.4543 62.3886 92.6555C62.2514 92.8568 62.3053 93.1366 62.4963 93.2839C62.609 93.3673 62.8784 93.9122 63.0155 95.0559C63.2555 97.0734 62.9567 100.127 61.3306 102.115C60.8211 102.738 60.5028 103.519 60.3558 104.5C59.9493 107.22 59.6407 109.988 59.3468 112.664C59.2586 113.444 59.1754 114.22 59.0872 115C59.0578 115.251 59.2341 115.471 59.4839 115.501V115.496Z" fill="#231F20"/>
<path d="M71.4786 120.542C71.5717 120.174 71.6648 119.801 71.7529 119.423C72.3064 117.145 72.8844 114.789 74.0894 112.89C74.2216 112.678 74.1628 112.399 73.9522 112.266C73.7416 112.129 73.4624 112.193 73.3301 112.404C72.0419 114.431 71.4493 116.861 70.8762 119.212C70.7831 119.585 70.6949 119.958 70.6019 120.321C69.7888 123.532 68.912 126.732 67.9961 129.835C67.5454 131.361 67.0556 132.853 66.5168 134.385C66.1445 134.385 65.7674 134.385 65.4 134.38C65.4 134.169 65.4 133.958 65.3951 133.752C65.3951 133.506 65.1894 133.31 64.9445 133.31C64.9445 133.31 64.9396 133.31 64.9347 133.31C64.6849 133.31 64.489 133.521 64.4939 133.771C64.4939 133.968 64.4939 134.174 64.4988 134.37C63.9355 134.365 63.4016 134.356 62.9461 134.351C60.8937 134.311 58.959 134.277 57.0046 133.968C56.8283 133.938 56.6519 133.904 56.4756 133.874L56.6666 133.251C57.1907 131.567 57.6022 130.237 57.9499 128.303C59.003 122.467 58.3173 116.507 57.6462 110.686C57.5777 110.096 57.5483 109.341 57.5091 108.545C57.4062 106.165 57.2887 103.47 56.2111 102.223C56.1621 102.164 56.0494 102.046 55.8878 101.879C51.7929 97.5988 49.2606 93.873 48.3593 90.805C48.2908 90.5645 48.041 90.432 47.8009 90.5007C47.5609 90.5694 47.4238 90.8247 47.4973 91.0603C48.4377 94.2657 51.0435 98.1191 55.2363 102.503C55.3833 102.66 55.4862 102.763 55.5302 102.817C56.4021 103.823 56.5197 106.464 56.6078 108.585C56.6421 109.399 56.6764 110.17 56.7548 110.848C57.4111 116.542 58.092 122.432 57.0634 128.141C56.7254 130.021 56.3188 131.327 55.8045 132.981L55.5792 133.717C54.3351 133.501 53.0959 133.276 51.886 133.045C49.2067 132.539 46.4344 132.019 43.6522 131.695C43.3975 130.792 43.2799 126.727 43.2897 125.417C43.3093 122.133 44.5339 114.848 45.8956 112.737C46.0327 112.526 45.969 112.247 45.7633 112.114C45.5527 111.977 45.2735 112.04 45.1412 112.246C43.6767 114.514 42.413 121.946 42.3934 125.412C42.3689 129.295 42.5746 131.062 42.8097 131.867C39.8708 133.079 37.3532 135.48 35.9474 137.389C35.8005 137.59 35.8445 137.875 36.0454 138.022C36.1237 138.081 36.2217 138.111 36.3099 138.111C36.447 138.111 36.5842 138.047 36.6723 137.924C38.0487 136.054 40.5419 133.673 43.4367 132.579C46.2286 132.893 49.0255 133.418 51.7293 133.928C53.4093 134.248 55.1482 134.572 56.8772 134.846C58.8904 135.166 60.8594 135.205 62.9852 135.244C63.4359 135.254 63.96 135.259 64.5184 135.264C64.5135 136.442 64.4841 137.654 64.4547 138.842C64.4106 140.56 64.3665 142.332 64.3959 143.977C64.3959 144.222 64.6016 144.419 64.8465 144.419C64.8465 144.419 64.8514 144.419 64.8563 144.419C65.1061 144.419 65.3021 144.207 65.2972 143.957C65.2678 142.332 65.3119 140.57 65.3559 138.862C65.3853 137.669 65.4147 136.452 65.4196 135.269C67.4768 135.283 69.7496 135.288 70.6949 135.288V147.845H32.0387C31.6811 147.683 30.2117 146.971 29.1292 145.793C26.7046 143.157 26.1168 139.461 26.0531 136.825L26.0139 135.313C25.8229 127.837 25.6319 120.101 27.3903 112.777C29.4378 104.26 34.2135 97.8687 40.8407 94.7713C41.066 94.6682 41.1639 94.3983 41.0611 94.1724C40.9533 93.9466 40.6839 93.8485 40.4635 93.9516C33.5865 97.1668 28.6345 103.779 26.5184 112.566C24.7257 120.007 24.9265 127.802 25.1127 135.337L25.1519 136.849C25.2204 139.642 25.8474 143.564 28.4679 146.411C29.8296 147.894 31.6958 148.689 31.7742 148.723C31.8281 148.748 31.8868 148.758 31.9505 148.758H71.1358C71.3856 148.758 71.5864 148.557 71.5864 148.306V134.842C71.5864 134.724 71.5374 134.606 71.4542 134.522C71.3709 134.439 71.2533 134.39 71.1358 134.39C71.1064 134.39 69.4312 134.39 67.4769 134.38C67.9814 132.937 68.4418 131.523 68.8728 130.08C69.7937 126.968 70.6753 123.758 71.4884 120.532L71.4786 120.542Z" fill="#231F20"/>
<path d="M145.172 120.346C144.951 119.987 144.569 119.771 144.153 119.771H104.38C103.537 119.771 102.778 120.238 102.391 120.989L89.8516 145.596H76.2984C76.0486 145.596 75.8477 145.798 75.8477 146.048V148.306C75.8477 148.556 76.0486 148.758 76.2984 148.758H132.211C132.461 148.758 132.662 148.556 132.662 148.306V146.156L145.221 121.514C145.412 121.141 145.397 120.699 145.177 120.341L145.172 120.346Z" fill="#231F20"/>
<path d="M88.2549 93.9058L108.53 86.3533L112.617 97.3731C113.035 98.5004 112.461 99.7564 111.337 100.175L95.1384 106.209C94.0135 106.628 92.7602 106.053 92.3421 104.926L88.2549 93.9058Z" fill="#D9D9D9"/>
<path d="M112.937 97.255L108.852 86.2348C108.842 86.2054 108.822 86.1759 108.803 86.1514C108.803 86.1465 108.803 86.1366 108.793 86.1317C108.793 86.1317 108.793 86.1317 108.788 86.1317C108.754 86.0974 108.72 86.063 108.671 86.0434C108.661 86.0385 108.646 86.0434 108.631 86.0335C108.617 86.0286 108.602 86.0237 108.587 86.0237C108.524 86.0139 108.465 86.009 108.401 86.0335L88.1277 93.5881C88.064 93.6127 88.0199 93.6569 87.9807 93.7059C87.9709 93.7158 87.966 93.7256 87.9562 93.7403C87.9219 93.7943 87.9023 93.8532 87.9023 93.9121C87.9023 93.9121 87.9023 93.917 87.9023 93.9219C87.9023 93.9317 87.9072 93.9367 87.9072 93.9416C87.9072 93.9759 87.9072 94.0054 87.9219 94.0397L92.007 105.06C92.3842 106.076 93.3491 106.709 94.3777 106.709C94.6667 106.709 94.9655 106.66 95.2545 106.552L111.448 100.519C112.08 100.284 112.584 99.8173 112.863 99.2038C113.143 98.5902 113.167 97.9029 112.937 97.2697V97.255ZM107.73 87.0251L101.294 97.9716L89.2885 93.8974L107.73 87.0251ZM112.236 98.8994C112.036 99.3461 111.668 99.6848 111.213 99.8566L95.0194 105.889C94.074 106.243 93.0209 105.757 92.6682 104.81L88.8379 94.4766L101.348 98.7227C101.382 98.7325 101.421 98.7423 101.46 98.7423C101.578 98.7423 101.696 98.6785 101.759 98.5705L108.465 87.1675L112.295 97.5004C112.467 97.9618 112.447 98.4576 112.241 98.9043L112.236 98.8994Z" fill="#231F20"/>
<path d="M156.809 149.068H6.67015C6.28809 149.068 5.97461 148.759 5.97461 148.371C5.97461 147.983 6.28319 147.674 6.67015 147.674H156.809C157.191 147.674 157.504 147.983 157.504 148.371C157.504 148.759 157.195 149.068 156.809 149.068Z" fill="#231F20"/>
<path d="M36.3677 148.376C36.3677 151.096 34.1684 153.3 31.4548 153.3C28.7413 153.3 26.542 151.096 26.542 148.376C26.542 145.657 28.7413 143.453 31.4548 143.453C34.1684 143.453 36.3677 145.657 36.3677 148.376Z" fill="#709EB3"/>
<path d="M31.4502 153.992C28.3595 153.992 25.8418 151.469 25.8418 148.371C25.8418 145.274 28.3595 142.751 31.4502 142.751C34.5409 142.751 37.0586 145.274 37.0586 148.371C37.0586 151.469 34.5409 153.992 31.4502 153.992ZM31.4502 144.145C29.1236 144.145 27.2329 146.039 27.2329 148.371C27.2329 150.703 29.1236 152.598 31.4502 152.598C33.7768 152.598 35.6675 150.703 35.6675 148.371C35.6675 146.039 33.7768 144.145 31.4502 144.145Z" fill="#231F20"/>
<path d="M63.9834 41.9371V40.7322C63.9834 39.1345 64.6181 37.6022 65.7479 36.4724C66.8777 35.3426 68.41 34.7079 70.0078 34.7079C71.6055 34.7079 73.1379 35.3426 74.2676 36.4724C75.3974 37.6022 76.0321 39.1345 76.0321 40.7322V41.9371" stroke="black" stroke-width="0.765449" stroke-linecap="round"/>
<path d="M70.0072 34.7079C70.9659 34.7079 71.8853 34.3271 72.5632 33.6492C73.241 32.9714 73.6219 32.052 73.6219 31.0933C73.6219 30.1347 73.241 29.2153 72.5632 28.5374C71.8853 27.8595 70.9659 27.4787 70.0072 27.4787C69.0486 27.4787 68.1292 27.8595 67.4513 28.5374C66.7734 29.2153 66.3926 30.1347 66.3926 31.0933C66.3926 32.052 66.7734 32.9714 67.4513 33.6492C68.1292 34.3271 69.0486 34.7079 70.0072 34.7079Z" stroke="black" stroke-width="0.765449" stroke-linecap="round" stroke-linejoin="round"/>
<path d="M80.8518 24.5871V44.8289C80.8518 45.0206 80.7756 45.2045 80.64 45.3401C80.5045 45.4757 80.3206 45.5518 80.1289 45.5518H59.887C59.6953 45.5518 59.5114 45.4757 59.3758 45.3401C59.2402 45.2045 59.1641 45.0206 59.1641 44.8289V24.5871C59.1641 24.3953 59.2402 24.2114 59.3758 24.0759C59.5114 23.9403 59.6953 23.8641 59.887 23.8641H80.1289C80.3206 23.8641 80.5045 23.9403 80.64 24.0759C80.7756 24.2114 80.8518 24.3953 80.8518 24.5871Z" stroke="black" stroke-width="0.765449" stroke-linecap="round" stroke-linejoin="round"/>
<path d="M85.1885 27.4365H103.559" stroke="black" stroke-width="0.765449" stroke-linecap="round"/>
<path d="M85.1885 33.5601H103.559" stroke="black" stroke-width="0.765449" stroke-linecap="round"/>
<path d="M85.1885 40.1942H97.946" stroke="black" stroke-width="0.765449" stroke-linecap="round"/>
<path fill-rule="evenodd" clip-rule="evenodd" d="M16.5498 72.1226L17.5281 71.8604L17.266 70.8821C17.127 70.3632 17.1997 69.8103 17.4684 69.3451C17.737 68.8798 18.1794 68.5403 18.6983 68.4013L26.5246 66.3042C27.0436 66.1652 27.5965 66.238 28.0617 66.5066C28.527 66.7752 28.8664 67.2176 29.0055 67.7365L31.6268 77.5195C31.7659 78.0384 31.6931 78.5913 31.4245 79.0565C31.1558 79.5218 30.7134 79.8613 30.1945 80.0003L22.3682 82.0974C21.8492 82.2364 21.2963 82.1636 20.8311 81.895C20.3659 81.6264 20.0264 81.184 19.8873 80.665L19.6252 79.6868L18.6469 79.9489" fill="#D9D9D9"/>
<path d="M16.5498 72.1226L17.5281 71.8604L17.266 70.8821C17.127 70.3632 17.1997 69.8103 17.4684 69.3451C17.737 68.8798 18.1794 68.5403 18.6983 68.4013L26.5246 66.3042C27.0436 66.1652 27.5965 66.238 28.0617 66.5066C28.527 66.7752 28.8664 67.2176 29.0055 67.7365L31.6268 77.5195C31.7659 78.0384 31.6931 78.5913 31.4245 79.0565C31.1558 79.5218 30.7134 79.8613 30.1945 80.0003L22.3682 82.0974C21.8492 82.2364 21.2963 82.1636 20.8311 81.895C20.3659 81.6264 20.0264 81.184 19.8873 80.665L19.6252 79.6868L18.6469 79.9489M17.5984 76.0357L18.5767 75.7736M17.0741 74.0791L18.0524 73.817M18.1226 77.9923L19.1009 77.7302" stroke="black" stroke-width="0.510299" stroke-linecap="round" stroke-linejoin="round"/>
<path d="M24.4459 74.2009C25.5265 73.9114 26.1677 72.8007 25.8782 71.7201C25.5887 70.6395 24.4779 69.9982 23.3974 70.2877C22.3168 70.5773 21.6755 71.688 21.965 72.7686C22.2546 73.8492 23.3653 74.4905 24.4459 74.2009Z" stroke="black" stroke-width="0.510299" stroke-linecap="round" stroke-linejoin="round"/>
<path d="M16.5498 72.1226L17.5281 71.8604L17.266 70.8821C17.127 70.3632 17.1997 69.8103 17.4684 69.3451C17.737 68.8798 18.1794 68.5403 18.6983 68.4013L26.5246 66.3042C27.0436 66.1652 27.5965 66.238 28.0617 66.5066C28.527 66.7752 28.8664 67.2176 29.0055 67.7365L31.6268 77.5195C31.7659 78.0384 31.6931 78.5913 31.4245 79.0565C31.1558 79.5218 30.7134 79.8613 30.1945 80.0003L22.3682 82.0974C21.8492 82.2364 21.2963 82.1636 20.8311 81.895C20.3659 81.6264 20.0264 81.184 19.8873 80.665L19.6252 79.6868L18.6469 79.9489M17.5984 76.0357L18.5767 75.7736M17.0741 74.0791L18.0524 73.817M18.1226 77.9923L19.1009 77.7302" stroke="black" stroke-width="0.510299" stroke-linecap="round" stroke-linejoin="round"/>
<path fill-rule="evenodd" clip-rule="evenodd" d="M28.1667 76.3498L27.9046 75.3715C27.7655 74.8525 27.426 74.4101 26.9608 74.1415C26.4955 73.8729 25.9426 73.8001 25.4237 73.9391L23.4671 74.4634C22.9482 74.6024 22.5058 74.9419 22.2372 75.4072C21.9686 75.8724 21.8958 76.4253 22.0348 76.9443L22.2969 77.9225C22.3665 78.182 22.5362 78.4032 22.7688 78.5375C23.0015 78.6718 23.2779 78.7082 23.5374 78.6387L27.4505 77.5902C27.71 77.5207 27.9312 77.3509 28.0655 77.1183C28.1998 76.8857 28.2362 76.6092 28.1667 76.3498Z" stroke="black" stroke-width="0.510299" stroke-linecap="round" stroke-linejoin="round"/>
</g>
</g>
<defs>
<clipPath id="clip0_355_11865">
<rect width="169" height="154" fill="white" transform="translate(0.5)"/>
</clipPath>
</defs>
</svg>
