<svg width="169" height="155" viewBox="0 0 169 155" fill="none" xmlns="http://www.w3.org/2000/svg">
<g clip-path="url(#clip0_1_605)">
<mask id="mask0_1_605" style="mask-type:luminance" maskUnits="userSpaceOnUse" x="0" y="0" width="169" height="155">
<path d="M169 0.5H0V154.5H169V0.5Z" fill="white"/>
</mask>
<g mask="url(#mask0_1_605)">
<mask id="mask1_1_605" style="mask-type:luminance" maskUnits="userSpaceOnUse" x="0" y="0" width="169" height="155">
<path d="M168.888 0.890625H0.489258V154.491H168.888V0.890625Z" fill="white"/>
</mask>
<g mask="url(#mask1_1_605)">
<path d="M163.97 74.066C164.372 74.8858 164.759 75.7203 165.121 76.5695C169.461 86.6962 169.843 98.1975 167.33 108.889C159.557 141.959 132.69 148.88 132.69 148.88H61.0303C61.0303 148.88 44.6264 147.727 36.7845 145.469C2.37494 135.568 -12.8731 88.6696 14.7868 63.4288C23.8827 55.128 35.1289 49.6351 45.1456 42.4782C51.6112 37.859 57.0383 32.4299 62.6663 26.8732C67.4175 22.1805 74.804 19.9568 81.3185 18.8523C91.2765 17.1588 101.582 18.3124 111.153 21.4147C122.654 25.1404 136.163 32.8276 142.692 43.2439C149.32 53.8223 158.435 62.8103 163.965 74.066H163.97Z" fill="#2B2933"/>
<path d="M146.699 51.8685C148.094 49.5761 148.609 46.8517 148.824 44.1715C149.319 37.9914 148.339 31.6935 145.983 25.96C142.653 30.3927 139.268 34.9333 137.559 40.2102C136.207 44.3924 135.942 49.5123 138.004 53.5276C140.248 57.8915 144.641 55.2408 146.699 51.8685Z" fill="#80C9FF"/>
<path d="M155.456 68.9411C158.366 65.2938 159.635 60.6305 160.629 56.0654C156.5 57.4006 152.361 58.9812 148.947 61.6712C146.605 63.5169 140.62 69.8983 143.686 73.1675C146.752 76.4416 153.541 71.3316 155.456 68.9411Z" fill="#80C9FF"/>
<path d="M116.644 47.46C117.947 51.6668 119.255 55.8981 121.219 59.8399C121.606 60.6154 122.179 61.6561 122.894 62.7998C124.986 66.1427 128.512 71.4491 132.896 71.778C139.607 72.2885 137.202 63.8994 134.88 60.5516C130.398 54.0868 123.139 51.3183 116.639 47.4551L116.644 47.46Z" fill="#80C9FF"/>
<path d="M149.746 83.6767C147.424 85.0659 141.301 90.1121 143.677 93.4108C146.057 96.7144 152.763 92.9101 154.761 90.976C157.803 88.0357 159.488 83.981 160.909 79.9902C157.034 80.7118 153.13 81.6543 149.746 83.6767Z" fill="#80C9FF"/>
<path d="M116.041 71.8271C117.525 75.5381 119.024 79.2688 121.086 82.6902C121.493 83.3627 122.086 84.2611 122.82 85.2429C124.956 88.1096 128.536 92.6501 132.528 92.6304C138.632 92.5961 135.845 85.1888 133.498 82.3319C128.967 76.8144 122.203 74.846 116.041 71.832V71.8271Z" fill="#80C9FF"/>
<path d="M161.173 79.7693C161.09 79.676 160.968 79.6269 160.845 79.6514C157.044 80.3583 153.042 81.3008 149.57 83.3821C147.659 84.5258 143.511 87.8785 142.879 90.9514C142.673 91.9528 142.849 92.8511 143.398 93.6169C143.486 93.7396 143.589 93.8329 143.687 93.9409C142.668 94.9471 141.674 95.9829 140.743 97.0726C140.126 97.7991 139.646 98.5944 139.298 99.4534C139.313 95.5951 139.323 92.321 139.298 90.5882V90.1513C139.259 88.0798 139.23 85.9396 139.352 83.8533C139.489 81.5315 140.572 79.5827 141.615 77.9874C142.482 76.6571 143.408 75.3661 144.387 74.1144C144.946 74.4138 145.578 74.5807 146.303 74.5807C146.371 74.5807 146.445 74.5807 146.513 74.5807C150.04 74.4433 154.326 70.9237 155.731 69.1614C158.783 65.3424 160.037 60.4386 160.972 56.1434C160.997 56.0207 160.958 55.8931 160.865 55.8096C160.772 55.7262 160.639 55.6967 160.527 55.736C156.471 57.0466 152.239 58.642 148.737 61.4007C146.812 62.9175 142.761 67.1587 142.502 70.5948C142.418 71.7091 142.732 72.6516 143.437 73.4075C143.55 73.5302 143.682 73.6235 143.804 73.7266C142.825 74.9783 141.899 76.2693 141.027 77.6045C140.498 78.4144 139.964 79.3127 139.533 80.3092C139.915 72.2736 140.508 64.1938 141.306 56.1532C143.545 56.0845 145.759 54.0817 146.993 52.0544C148.59 49.438 148.997 46.321 149.168 44.2053C149.668 37.9712 148.678 31.6192 146.303 25.8318C146.254 25.714 146.151 25.6355 146.023 25.6207C145.901 25.606 145.778 25.6551 145.7 25.7582C142.389 30.1662 138.965 34.7265 137.221 40.1114C135.644 44.9809 135.82 50.0565 137.692 53.6939C138.563 55.3875 139.69 55.9618 140.611 56.1139C139.827 64.0121 139.239 71.9496 138.857 79.8478C138.377 77.148 137.501 74.4874 136.296 72.146C136.188 71.9349 136.07 71.7287 135.953 71.5225C136.394 71.2378 136.761 70.8599 137.03 70.3788C138.524 67.7575 136.903 62.8831 135.159 60.3698C131.633 55.2893 126.357 52.4275 121.253 49.6589C119.784 48.8637 118.265 48.039 116.816 47.1751C116.693 47.1015 116.536 47.1113 116.424 47.1996C116.311 47.288 116.262 47.4402 116.306 47.5776C117.594 51.7353 118.922 56.0354 120.906 60.0115C121.356 60.9098 121.954 61.975 122.595 63.0009C125.314 67.3403 128.659 71.822 132.867 72.141C133.073 72.1558 133.273 72.1656 133.464 72.1656C134.175 72.1656 134.797 72.0527 135.331 71.8416C135.443 72.0527 135.566 72.2589 135.674 72.4699C137.52 76.0484 138.608 80.5988 138.573 84.6338C138.573 84.6878 138.563 88.4038 138.588 90.1709V90.6078C138.622 92.3504 138.612 95.6589 138.598 99.5516C137.99 97.1905 137.001 94.8735 135.644 92.6989C135.536 92.5222 135.419 92.3553 135.306 92.1835C135.678 91.8939 135.972 91.5257 136.183 91.0741C137.349 88.5854 135.522 84.2755 133.753 82.1206C130.188 77.7763 125.201 75.5772 120.377 73.4468C118.99 72.8332 117.56 72.2049 116.184 71.5274C116.051 71.4636 115.9 71.4882 115.797 71.5864C115.694 71.6845 115.66 71.8367 115.714 71.9692C117.183 75.6361 118.701 79.4256 120.783 82.8814C121.253 83.6668 121.875 84.5798 122.532 85.4634C125.304 89.1843 128.654 92.9886 132.485 92.9886H132.519C133.391 92.9836 134.121 92.8315 134.713 92.5468C134.826 92.7186 134.944 92.8904 135.051 93.0671C137.074 96.3118 138.279 99.8952 138.539 103.43C138.539 103.479 138.554 115.775 138.671 118.382C138.681 118.568 138.833 118.716 139.019 118.716H139.034C139.225 118.706 139.372 118.544 139.367 118.352C139.249 115.662 139.298 102.797 139.303 102.762C139.367 100.755 140.028 98.9969 141.267 97.5439C142.198 96.4541 143.187 95.4184 144.211 94.4121C144.72 94.7655 145.328 94.9913 146.048 95.0551C146.209 95.0699 146.371 95.0748 146.538 95.0748C149.672 95.0748 153.601 92.5959 155.002 91.2459C158.195 88.1583 159.895 83.8877 161.237 80.1276C161.281 80.0098 161.257 79.8773 161.173 79.784V79.7693ZM143.942 72.9314C143.369 72.3178 143.124 71.5716 143.192 70.6488C143.432 67.4728 147.395 63.3445 149.163 61.9456C152.415 59.3832 156.344 57.8418 160.159 56.5852C159.253 60.6546 158.009 65.1902 155.188 68.7245C153.762 70.5064 149.638 73.756 146.484 73.8837C145.857 73.9131 145.308 73.7904 144.828 73.5646C146.41 71.5962 148.13 69.7358 149.971 68.0079C150.108 67.8753 150.118 67.6544 149.986 67.517C149.854 67.3746 149.638 67.3697 149.496 67.5023C147.61 69.2694 145.857 71.174 144.24 73.1915C144.142 73.1081 144.035 73.0344 143.946 72.9412L143.942 72.9314ZM132.926 71.4342C129.022 71.1397 125.814 66.8101 123.188 62.6181C122.556 61.6118 121.968 60.5711 121.528 59.6875C119.71 56.0354 118.437 52.0789 117.237 48.2158C118.461 48.9226 119.71 49.6 120.925 50.2578C125.956 52.9871 131.162 55.8096 134.591 60.7576C136.188 63.0598 137.76 67.6888 136.428 70.0254C136.222 70.3837 135.948 70.6733 135.615 70.8942C133.7 67.5072 131.334 64.503 129.223 61.9701C129.1 61.8228 128.88 61.8032 128.733 61.9259C128.586 62.0486 128.566 62.2695 128.689 62.4168C130.775 64.9203 133.112 67.8851 134.998 71.2133C134.429 71.4244 133.739 71.5029 132.921 71.4391L132.926 71.4342ZM132.524 92.2817H132.495C128.968 92.2817 125.765 88.6198 123.095 85.0364C122.453 84.1724 121.841 83.2741 121.381 82.5083C119.48 79.3618 118.05 75.9061 116.693 72.5288C117.825 73.0639 118.981 73.5744 120.107 74.0702C124.858 76.1662 129.766 78.3359 133.229 82.5525C134.836 84.5111 136.594 88.5658 135.566 90.7649C135.414 91.0889 135.198 91.3539 134.929 91.5748C132.955 88.6639 130.599 86.131 128.507 84.0006C128.37 83.8632 128.155 83.8632 128.018 84.0006C127.881 84.1331 127.881 84.354 128.018 84.4915C130.08 86.5924 132.402 89.091 134.341 91.943C133.851 92.1639 133.249 92.2768 132.529 92.2817H132.524ZM138.314 53.37C136.526 49.8995 136.369 45.0202 137.887 40.3225C139.528 35.2468 142.732 30.8731 145.891 26.6663C148.061 32.1936 148.952 38.2264 148.477 44.1513C148.218 47.4009 147.556 49.7964 146.4 51.6912C145.088 53.851 143.084 55.3482 141.375 55.4414C141.786 51.3574 142.247 47.2831 142.766 43.2334C142.791 43.0419 142.658 42.8701 142.467 42.8456C142.281 42.821 142.105 42.9585 142.08 43.145C141.561 47.2144 141.096 51.3132 140.684 55.4169C139.719 55.2402 138.926 54.5579 138.314 53.37ZM154.522 90.7305C153.037 92.1639 148.957 94.6183 146.111 94.3483C145.573 94.2992 145.112 94.1421 144.72 93.9016C146.366 92.3308 148.105 90.8582 149.947 89.523C150.103 89.4101 150.138 89.1941 150.025 89.037C149.912 88.8799 149.692 88.8456 149.54 88.9585C147.645 90.3231 145.862 91.8399 144.182 93.4549C144.108 93.3763 144.025 93.3027 143.956 93.2094C143.515 92.6008 143.383 91.9086 143.555 91.0938C144.138 88.2712 148.174 85.0265 149.922 83.981C153.126 82.0666 156.819 81.1339 160.375 80.4516C159.092 83.9908 157.446 87.8982 154.517 90.7305H154.522Z" fill="#231F20"/>
<path d="M146.817 108.701H131.103V148.86H146.817V108.701Z" fill="#D9D9D9"/>
<path d="M146.816 108.358H131.103C130.912 108.358 130.755 108.515 130.755 108.706V148.865C130.755 149.056 130.912 149.213 131.103 149.213H146.816C147.007 149.213 147.164 149.056 147.164 148.865V108.706C147.164 108.515 147.007 108.358 146.816 108.358ZM137.201 109.055H143.27L141.791 148.516H138.588L137.201 109.055ZM137.892 148.516H134.116L135.409 109.055H136.506L137.892 148.516ZM131.446 109.055H134.708L133.415 148.516H131.441V109.055H131.446ZM146.464 148.516H142.482L143.961 109.055H146.464V148.516Z" fill="#231F20"/>
<path d="M84.9533 11.8847L87.7403 9.09158L91.6539 8.97867L94.4655 11.8847L94.4802 13.6322H102.278C102.278 13.3917 102.288 13.1462 102.293 12.9057C102.293 12.8468 102.2 11.5607 102.004 11.3545C101.45 10.7802 100.26 11.5853 99.7506 11.0747C99.5645 10.8882 99.4126 10.2991 99.2951 10.0537C99.1873 9.82298 98.7906 9.15539 98.8542 8.90014C99.0453 8.19818 99.8877 7.82512 100.084 7.12316C100.25 6.51939 99.873 5.88616 99.4028 5.46891C98.9179 5.03694 98.3497 4.70314 97.8795 4.25154C97.4485 3.8392 96.9488 3.21579 96.2631 3.44159C95.7831 3.59867 95.7488 3.96683 95.4549 4.31535C95.2933 4.50679 95.0582 4.65406 94.8034 4.65406C94.6222 4.65406 94.4508 4.58043 94.2842 4.50679C94.0002 4.37917 93.7112 4.25154 93.4271 4.12391C93.0499 3.95701 92.6434 3.75575 92.4719 3.38269C92.3495 3.11271 92.3789 2.79855 92.4131 2.50402C92.4425 2.20949 92.4719 1.89533 92.3495 1.62535C92.1144 1.10503 91.3943 1.26702 90.9339 1.26702C89.9935 1.26702 89.053 1.26702 88.1126 1.26211C87.8383 1.26211 87.5346 1.27192 87.324 1.44864C86.8684 1.83152 87.035 2.69055 87.0448 3.20597C87.0448 3.36305 87.0448 3.52995 86.9615 3.66249C86.8831 3.7803 86.746 3.84411 86.6186 3.90302C85.9182 4.21718 85.2227 4.53625 84.5222 4.85041C84.2283 4.70314 84.0128 4.43316 83.8169 4.16809C83.6161 3.90302 83.4103 3.62813 83.1164 3.47595C82.6168 3.21579 82.1662 3.52995 81.8184 3.87847C81.167 4.52643 80.5155 5.1793 79.8641 5.82725C79.4624 6.22977 79.0216 6.77955 79.2322 7.3097C79.4624 7.88893 80.3784 7.95274 80.5596 8.52707C80.6625 8.86087 80.3196 9.43028 80.1971 9.74444C79.9571 10.1028 79.9718 10.8833 79.6045 11.1386C79.2812 11.3595 78.4681 11.1631 78.0958 11.1484C77.797 11.1337 77.4542 11.1386 77.2533 11.3595C77.0672 11.5607 77.0672 11.8651 77.0819 12.1399C77.0917 12.4148 77.1064 13.0333 77.1113 13.642H84.9728V11.8945L84.9533 11.8847Z" fill="#80C9FF"/>
<path d="M102.273 13.9762H94.4754C94.2844 13.9762 94.1276 13.824 94.1276 13.6325L94.113 12.0225L91.5071 9.32759L87.8825 9.43067L85.2963 12.0225V13.6276C85.2963 13.8191 85.1395 13.9762 84.9485 13.9762H77.087C76.8959 13.9762 76.7441 13.824 76.7392 13.6325C76.7343 13.0288 76.7245 12.4152 76.7098 12.1403C76.7 11.8752 76.6804 11.4285 76.9743 11.1094C77.3025 10.756 77.8168 10.7756 78.0862 10.7855C78.189 10.7855 78.3311 10.8051 78.4829 10.8247C78.718 10.8542 79.2617 10.9278 79.3891 10.8345C79.4969 10.7609 79.5703 10.4664 79.634 10.2308C79.6928 10.0001 79.7516 9.75956 79.8691 9.56812C79.8985 9.48958 79.9377 9.40613 79.9818 9.30795C80.0601 9.13615 80.2463 8.73363 80.2071 8.61091C80.1581 8.44892 79.9426 8.3262 79.7124 8.19366C79.4038 8.01695 79.0511 7.81569 78.8895 7.41808C78.5613 6.59341 79.345 5.81782 79.5997 5.56257L81.5541 3.61379C82.1419 3.02474 82.7198 2.86766 83.2537 3.14746C83.6211 3.3389 83.8611 3.65797 84.0717 3.93777C84.2285 4.14885 84.3656 4.32065 84.5273 4.43846L86.4571 3.5647C86.5208 3.53525 86.6286 3.48616 86.658 3.44689C86.6873 3.40271 86.6824 3.26527 86.6824 3.19164C86.6824 3.10328 86.6727 3.0002 86.6678 2.89711C86.6335 2.34733 86.5796 1.59138 87.0841 1.16432C87.4025 0.894342 87.8139 0.894342 88.098 0.894342H90.9194C91.0026 0.894342 91.0859 0.894342 91.1741 0.894342C91.6443 0.869798 92.3545 0.825619 92.6484 1.46867C92.8149 1.83682 92.7709 2.23934 92.7415 2.52895C92.717 2.76948 92.6876 3.03947 92.7709 3.23091C92.8835 3.48616 93.2019 3.64324 93.5497 3.79541L94.4068 4.1783C94.5391 4.2372 94.6762 4.29611 94.7889 4.29611C94.9163 4.29611 95.0583 4.21266 95.1758 4.08012C95.2591 3.98195 95.313 3.88377 95.3718 3.79051C95.5138 3.54998 95.6951 3.25054 96.1408 3.10328C96.9441 2.83821 97.527 3.41744 97.9531 3.83959L98.1049 3.99177C98.345 4.21757 98.6095 4.41883 98.8936 4.625C99.1434 4.81153 99.3883 4.99315 99.6234 5.19932C100.299 5.79819 100.593 6.54923 100.407 7.207C100.285 7.64388 99.9809 7.95804 99.7066 8.23784C99.4715 8.48328 99.2462 8.71399 99.1776 8.97906C99.1776 9.09197 99.4079 9.52885 99.496 9.69574C99.5352 9.77428 99.5695 9.84301 99.594 9.89209C99.6332 9.98045 99.6822 10.1032 99.7311 10.2406C99.7899 10.4026 99.9124 10.7413 99.9809 10.8149C100.103 10.9376 100.436 10.8885 100.755 10.8395C101.235 10.7658 101.828 10.6775 102.239 11.0996C102.567 11.4383 102.626 12.8864 102.626 12.8962L102.611 13.6227C102.611 13.8142 102.455 13.9663 102.263 13.9663L102.273 13.9762ZM94.8183 13.2791H101.93L101.94 12.8913C101.935 12.6606 101.832 11.7427 101.73 11.566C101.597 11.4334 101.303 11.4678 100.868 11.5316C100.397 11.6052 99.8683 11.6838 99.496 11.3107C99.3295 11.1438 99.2168 10.8591 99.0846 10.4811C99.0454 10.3682 99.0062 10.2652 98.9719 10.1915C98.9523 10.1474 98.9229 10.0933 98.8838 10.0246C98.6193 9.51903 98.4282 9.1116 98.5115 8.80235C98.6291 8.36056 98.9376 8.04149 99.2119 7.75678C99.447 7.51625 99.6675 7.28554 99.7409 7.02047C99.8683 6.55905 99.5254 6.04363 99.163 5.71965C98.9474 5.52821 98.7172 5.3564 98.4821 5.18459C98.1931 4.97352 97.8992 4.75262 97.6298 4.49246L97.4682 4.33047C97.0421 3.90832 96.7286 3.63833 96.3612 3.76105C96.1702 3.82487 96.1016 3.92304 95.9693 4.14394C95.8959 4.26666 95.8175 4.39919 95.7049 4.52682C95.455 4.82135 95.122 4.98824 94.7889 4.98824C94.5293 4.98824 94.3089 4.89007 94.1276 4.80662L93.2656 4.42374C92.908 4.26666 92.3692 4.02613 92.1341 3.5058C91.9725 3.14255 92.0165 2.75476 92.0459 2.44551C92.0753 2.1608 92.0949 1.92518 92.0116 1.74846C91.9235 1.55702 91.6247 1.55702 91.2083 1.58156C91.1055 1.58647 91.0075 1.58647 90.9096 1.59138H88.0882C87.8482 1.58156 87.6376 1.59138 87.52 1.68956C87.2849 1.89082 87.3192 2.4406 87.3486 2.84312C87.3584 2.96093 87.3633 3.07383 87.3633 3.172C87.3633 3.34381 87.3731 3.60397 87.2212 3.82978C87.0841 4.03104 86.8735 4.12921 86.7314 4.19302L84.635 5.14042C84.5419 5.18459 84.4342 5.18459 84.3362 5.13551C83.9591 4.94897 83.7044 4.61518 83.5084 4.3501C83.3321 4.11448 83.1509 3.87396 82.9256 3.76105C82.7443 3.66779 82.4994 3.63833 82.0341 4.09976L80.0797 6.04854C79.5997 6.52469 79.4185 6.88793 79.5262 7.15301C79.5948 7.32481 79.8152 7.45244 80.0454 7.58498C80.3638 7.7666 80.7312 7.97768 80.8585 8.39983C80.9761 8.77781 80.7655 9.22941 80.5989 9.59266C80.5549 9.68593 80.5157 9.76938 80.4912 9.8381C80.4814 9.86264 80.4716 9.88719 80.4569 9.90682C80.3932 10.005 80.3393 10.2014 80.2952 10.3879C80.2022 10.7511 80.0993 11.1683 79.776 11.3941C79.4283 11.6347 78.8748 11.561 78.3899 11.5021C78.2625 11.4874 78.145 11.4678 78.0568 11.4678C77.8119 11.458 77.5768 11.4678 77.4788 11.5709C77.3857 11.669 77.3906 11.8948 77.3955 12.101C77.4053 12.3268 77.4151 12.7784 77.42 13.2693H84.5909V11.8703C84.5909 11.777 84.6252 11.6887 84.6938 11.6249L87.4809 8.8318C87.5445 8.76799 87.6278 8.73363 87.716 8.72872L91.6296 8.61582C91.7178 8.61582 91.8206 8.65018 91.8892 8.72381L94.7007 11.6298C94.7644 11.6936 94.7987 11.7819 94.7987 11.8703L94.8085 13.2742L94.8183 13.2791Z" fill="#231F20"/>
<path d="M108.058 13.6084H54.4482C52.3976 13.6084 50.7354 15.2743 50.7354 17.3292V51.3469C50.7354 53.4019 52.3976 55.0678 54.4482 55.0678H108.058C110.109 55.0678 111.771 53.4019 111.771 51.3469V17.3292C111.771 15.2743 110.109 13.6084 108.058 13.6084Z" fill="#D9D9D9"/>
<mask id="mask2_1_605" style="mask-type:luminance" maskUnits="userSpaceOnUse" x="101" y="17" width="7" height="7">
<path d="M107.649 17.2207H101.525V23.3443H107.649V17.2207Z" fill="white"/>
</mask>
<g mask="url(#mask2_1_605)">
<path d="M107.266 20.3416C107.266 20.1214 107.248 19.9606 107.208 19.7939H104.642V20.7881H106.148C106.118 21.0352 105.954 21.4073 105.589 21.6573L105.584 21.6906L106.396 22.3067L106.452 22.3122C106.968 21.8449 107.266 21.1573 107.266 20.3416Z" fill="#4285F4"/>
<path d="M104.642 22.9617C105.38 22.9617 105.999 22.7236 106.452 22.3128L105.589 21.6579C105.358 21.8156 105.049 21.9258 104.642 21.9258C103.919 21.9258 103.305 21.4584 103.086 20.8125L103.054 20.8151L102.21 21.4552L102.199 21.4852C102.649 22.3604 103.572 22.9617 104.642 22.9617Z" fill="#34A853"/>
<path d="M103.086 20.8129C103.029 20.6462 102.995 20.4676 102.995 20.283C102.995 20.0985 103.029 19.9199 103.083 19.7532L103.082 19.7177L102.228 19.0674L102.2 19.0804C102.014 19.4436 101.908 19.8514 101.908 20.283C101.908 20.7147 102.014 21.1225 102.2 21.4856L103.086 20.8129Z" fill="#FBBC05"/>
<path d="M104.642 18.6394C105.155 18.6394 105.501 18.8567 105.699 19.0383L106.47 18.3001C105.996 17.8684 105.38 17.6035 104.642 17.6035C103.572 17.6035 102.649 18.2048 102.199 19.08L103.083 19.7527C103.305 19.1068 103.919 18.6394 104.642 18.6394Z" fill="#EB4335"/>
</g>
<path d="M108.058 55.4163H54.4528C52.2143 55.4163 50.3922 53.5902 50.3922 51.3469V17.3292C50.3922 15.0859 52.2143 13.2598 54.4528 13.2598H108.063C110.301 13.2598 112.124 15.0859 112.124 17.3292V51.3469C112.124 53.5902 110.301 55.4163 108.063 55.4163H108.058ZM54.4528 13.9569C52.5964 13.9569 51.0827 15.4688 51.0827 17.3341V51.3469C51.0827 53.2073 52.5964 54.7241 54.4528 54.7241H108.063C109.919 54.7241 111.433 53.2073 111.433 51.3469V17.3292C111.433 15.4688 109.919 13.952 108.063 13.952H54.4528V13.9569Z" fill="#231F20"/>
<path d="M106.55 25.9736H102.621V38.0442H106.55V25.9736Z" fill="#D9D9D9"/>
<path d="M61.8575 90.7357C66.3295 90.3135 68.2545 85.2035 69.0431 80.4911C69.7876 76.0536 69.5917 72.6861 69.5917 72.6861C69.5917 72.6861 56.4548 72.4309 53.6825 78.5718C52.8253 80.4714 52.8253 82.6117 53.4425 84.5604C52.5314 86.2834 51.7085 88.2322 50.4301 89.6459C49.5778 90.5884 48.4904 91.3394 47.5892 92.2426C45.8356 94 43.5286 96.7685 45.4634 99.2278C46.9475 101.117 64.7278 105.378 68.0047 97.0238C68.328 96.1991 64.0176 95.0897 62.0534 93.9362C61.5244 93.6269 61.162 93.3128 61.0934 92.9937C61.015 92.6255 61.1326 92.2426 61.2648 91.8892C61.4265 91.4671 61.6322 91.094 61.8526 90.7357H61.8575Z" fill="#F8A99C"/>
<path d="M65.2913 68.4061C60.927 69.4811 52.9381 68.7497 50.4401 73.418C49.6417 74.9102 49.7494 86.0678 53.1389 85.0174C55.0345 84.4283 58.7522 78.901 58.0861 76.9032C58.7326 78.8471 64.3655 77.8997 65.6342 77.6542C68.529 77.0946 70.1698 75.8723 71.5168 72.9124C72.4622 70.8409 72.5797 68.5043 72.6826 66.2266C70.5323 66.9531 67.9902 67.7434 65.2913 68.411V68.4061Z" fill="#231F20"/>
<path d="M63.2489 80.4468C62.9305 80.4076 62.6415 80.6334 62.6023 80.9524C62.5631 81.2715 62.7885 81.5611 63.1068 81.6004C63.4252 81.6396 63.7142 81.4138 63.7534 81.0948C63.7926 80.7757 63.5673 80.4861 63.2489 80.4468Z" fill="#231F20"/>
<path d="M67.1869 80.5103C66.8685 80.471 66.5795 80.6968 66.5403 81.0159C66.5011 81.3349 66.7264 81.6246 67.0448 81.6638C67.3632 81.7031 67.6522 81.4773 67.6914 81.1582C67.7306 80.8392 67.5052 80.5495 67.1869 80.5103Z" fill="#231F20"/>
<path d="M62.2499 85.9642C62.1715 85.8267 62.196 85.65 62.147 85.4979C62.0981 85.3457 61.8776 85.272 61.7797 85.3948C61.2164 86.082 62.0883 87.7068 62.9209 87.589C62.9307 87.589 62.9405 87.589 62.9454 87.589C63.2001 87.5399 63.4499 87.3926 63.5675 87.1619C64.1406 86.0673 62.5144 86.4354 62.2499 85.9691V85.9642Z" fill="#231F20"/>
<path d="M68.1717 78.5664C68.1717 78.5664 68.1619 78.5664 68.157 78.5664C67.6819 78.5811 67.2068 78.6449 66.7464 78.7578C66.5064 78.8167 66.3545 79.0622 66.4133 79.3027C66.4623 79.5089 66.6484 79.6463 66.8492 79.6463C66.8835 79.6463 66.9227 79.6463 66.957 79.6316C67.3586 79.5334 67.7701 79.4794 68.1815 79.4647C68.4313 79.4598 68.6273 79.2487 68.6175 78.9983C68.6126 78.7529 68.4117 78.5566 68.1668 78.5566L68.1717 78.5664Z" fill="#231F20"/>
<path d="M64.7233 79.269C64.7331 79.0187 64.5372 78.8124 64.2874 78.8026C63.5673 78.778 62.8424 78.8321 62.1273 78.9647C61.8824 79.0088 61.7207 79.2445 61.7648 79.4899C61.804 79.7108 61.995 79.863 62.2056 79.863C62.2301 79.863 62.2595 79.8629 62.284 79.853C62.9355 79.7352 63.5967 79.6862 64.2531 79.7059C64.5176 79.7157 64.7086 79.5193 64.7184 79.269H64.7233Z" fill="#231F20"/>
<path d="M65.8693 81.2714C65.7959 81.0309 65.5461 80.8935 65.306 80.9671C65.066 81.0407 64.9338 81.2911 65.0024 81.5316C65.1885 82.155 65.453 82.749 65.644 83.1809C65.7273 83.3724 65.8301 83.5982 65.8791 83.7307C65.7322 83.9123 65.3256 84.3149 64.6644 84.7272C64.4538 84.8597 64.3901 85.1395 64.5223 85.3506C64.6056 85.4881 64.7525 85.5617 64.9044 85.5617C64.9877 85.5617 65.066 85.5371 65.1444 85.493C65.7665 85.1052 66.7216 84.359 66.8 83.8927C66.8441 83.6424 66.7216 83.3675 66.4718 82.8128C66.2808 82.3808 66.0408 81.8408 65.8693 81.2763V81.2714Z" fill="#231F20"/>
<path d="M64.278 96.9353C64.4249 103.999 62.2991 120.065 60.8248 126.977C58.3561 127.143 55.8776 127.163 53.4041 127.031C51.5722 120.62 47.3891 103.287 47.1638 96.626C54.4964 99.2277 58.3169 101.834 64.278 96.9304V96.9353Z" fill="#009CDA"/>
<path d="M102.351 148.812L101.964 134.262C101.964 134.262 94.8225 134.311 91.8297 134.375C87.1373 134.483 82.6946 134.184 78.0022 134.12C79.2953 128.907 79.9664 123.536 79.986 118.166C80.0007 113.969 79.6039 109.689 77.963 105.831C76.9442 103.435 75.1123 101.015 72.8591 99.12C72.384 98.6782 71.855 98.2904 71.2966 97.9272C71.2721 97.9124 71.2476 97.8928 71.2232 97.8732C68.4459 96.106 64.8849 95.1391 62.2448 93.4062C63.1461 93.9952 63.8073 99.6894 61.177 102.9C60.6725 103.514 60.4178 104.274 60.3003 105.065C59.5361 110.18 59.1394 115.304 58.4194 120.444C57.0675 130.06 54.4812 139.127 51.8167 148.439C51.846 148.336 57.9834 148.807 57.9834 148.807H102.346L102.351 148.812Z" fill="#614B98"/>
<path d="M69.6653 140.285C71.1396 140.874 72.8393 141.282 74.4165 141.267C76.8019 141.247 81.4209 139.77 82.5474 139.976C83.9287 140.231 93.005 148.812 93.005 148.812H67.1721V138.636C67.1721 138.636 69.0138 140.025 69.6653 140.285Z" fill="#F8A99C"/>
<path d="M62.4801 135.298C60.4376 135.258 58.4295 135.224 56.431 134.905C56.1028 134.851 55.7795 134.797 55.4562 134.743C56.0587 132.755 56.6367 130.762 57.0041 128.72C58.0474 122.928 57.3616 117.027 56.6954 111.235C56.4309 108.952 56.6954 104.554 55.368 103.018C54.9174 102.497 48.9759 96.7095 47.4232 91.4326C46.2232 92.6893 42.7455 93.7496 42.1479 93.9754C41.2662 94.3141 40.4139 94.7215 39.5813 95.1633C32.5083 98.7221 28.296 105.541 26.4543 113.184C25.8028 115.888 25.4207 118.637 25.2052 121.406C23.7749 125.593 22.2174 129.672 20.9928 133.962C19.5822 138.891 16.9958 148.816 16.9958 148.816H70.6307V135.352C70.6307 135.352 65.2378 135.352 62.4801 135.303V135.298Z" fill="#614B98"/>
<path d="M78.0178 133.697C77.0088 133.839 74.5156 134.321 73.1784 135.661C73.0021 135.837 73.0021 136.122 73.1784 136.299C73.2666 136.387 73.3841 136.431 73.4968 136.431C73.6094 136.431 73.727 136.387 73.8152 136.299C74.6087 135.504 76.2299 134.86 78.1451 134.59C78.39 134.556 78.5615 134.325 78.5272 134.08C78.4929 133.835 78.2627 133.668 78.0178 133.697Z" fill="#231F20"/>
<path d="M58.9834 115.996C58.9834 115.996 59.0177 115.996 59.0373 115.996C59.2626 115.996 59.4586 115.824 59.4831 115.593C59.5712 114.813 59.6594 114.032 59.7476 113.257C60.0463 110.591 60.35 107.833 60.7517 105.128C60.8741 104.313 61.1288 103.675 61.5305 103.184C63.3183 101.005 63.7445 97.5686 63.3722 95.129C63.2546 94.3583 63.0048 93.3618 62.4954 93.028C62.2946 92.8955 62.0301 92.9544 61.8881 93.1556C61.7509 93.3569 61.8048 93.6367 61.9958 93.784C62.1085 93.8674 62.3779 94.4123 62.515 95.556C62.755 97.5735 62.4562 100.627 60.8301 102.615C60.3206 103.238 60.0023 104.019 59.8553 105C59.4488 107.72 59.1402 110.488 58.8463 113.164C58.7581 113.944 58.6749 114.72 58.5867 115.5C58.5573 115.751 58.7336 115.971 58.9834 116.001V115.996Z" fill="#231F20"/>
<path d="M70.9788 121.042C71.0719 120.674 71.165 120.301 71.2531 119.923C71.8066 117.645 72.3846 115.289 73.5896 113.39C73.7218 113.178 73.663 112.899 73.4524 112.766C73.2418 112.629 72.9626 112.693 72.8303 112.904C71.5421 114.931 70.9495 117.361 70.3764 119.712C70.2833 120.085 70.1951 120.458 70.1021 120.821C69.289 124.032 68.4122 127.232 67.4963 130.335C67.0456 131.861 66.5558 133.353 66.017 134.885C65.6447 134.885 65.2676 134.885 64.9002 134.88C64.9002 134.669 64.9002 134.458 64.8953 134.252C64.8953 134.006 64.6896 133.81 64.4447 133.81C64.4447 133.81 64.4398 133.81 64.4349 133.81C64.1851 133.81 63.9892 134.021 63.9941 134.271C63.9941 134.468 63.9941 134.674 63.999 134.87C63.4357 134.865 62.9018 134.856 62.4463 134.851C60.3939 134.811 58.4592 134.777 56.5048 134.468C56.3285 134.438 56.1521 134.404 55.9758 134.374L56.1668 133.751C56.6909 132.067 57.1024 130.737 57.4501 128.803C58.5032 122.967 57.8175 117.007 57.1464 111.186C57.0779 110.596 57.0485 109.841 57.0093 109.045C56.9064 106.665 56.7889 103.97 55.7113 102.723C55.6623 102.664 55.5496 102.546 55.388 102.379C51.2931 98.0986 48.7608 94.3728 47.8595 91.3048C47.791 91.0643 47.5412 90.9318 47.3011 91.0005C47.0611 91.0692 46.924 91.3245 46.9975 91.5601C47.9379 94.7655 50.5437 98.6189 54.7365 103.003C54.8835 103.16 54.9864 103.263 55.0304 103.317C55.9023 104.323 56.0199 106.964 56.108 109.085C56.1423 109.899 56.1766 110.67 56.255 111.348C56.9113 117.042 57.5922 122.932 56.5636 128.641C56.2256 130.521 55.819 131.827 55.3047 133.481L55.0794 134.217C53.8353 134.001 52.5961 133.776 51.3862 133.545C48.7069 133.039 45.9346 132.519 43.1524 132.195C42.8977 131.292 42.7801 127.227 42.7899 125.917C42.8095 122.633 44.0341 115.348 45.3958 113.237C45.5329 113.026 45.4692 112.747 45.2635 112.614C45.0529 112.477 44.7737 112.54 44.6414 112.746C43.1769 115.014 41.9132 122.446 41.8936 125.912C41.8691 129.795 42.0748 131.562 42.3099 132.367C39.371 133.579 36.8534 135.98 35.4476 137.889C35.3007 138.09 35.3447 138.375 35.5456 138.522C35.6239 138.581 35.7219 138.611 35.8101 138.611C35.9472 138.611 36.0844 138.547 36.1725 138.424C37.5489 136.554 40.0421 134.173 42.9369 133.079C45.7288 133.393 48.5257 133.918 51.2295 134.428C52.9095 134.748 54.6484 135.072 56.3774 135.346C58.3906 135.666 60.3596 135.705 62.4854 135.744C62.9361 135.754 63.4602 135.759 64.0186 135.764C64.0137 136.942 63.9843 138.154 63.9549 139.342C63.9108 141.06 63.8667 142.832 63.8961 144.477C63.8961 144.722 64.1018 144.919 64.3467 144.919C64.3467 144.919 64.3516 144.919 64.3565 144.919C64.6063 144.919 64.8023 144.707 64.7974 144.457C64.768 142.832 64.8121 141.07 64.8561 139.362C64.8855 138.169 64.9149 136.952 64.9198 135.769C66.977 135.783 69.2498 135.788 70.1951 135.788V148.345H31.5389C31.1813 148.183 29.7119 147.471 28.6294 146.293C26.2048 143.657 25.617 139.961 25.5533 137.325L25.5141 135.813C25.3231 128.337 25.1321 120.601 26.8905 113.277C28.938 104.76 33.7137 98.3685 40.3409 95.2711C40.5662 95.168 40.6641 94.8981 40.5613 94.6722C40.4535 94.4464 40.1841 94.3483 39.9637 94.4514C33.0867 97.6666 28.1347 104.279 26.0186 113.066C24.2259 120.507 24.4267 128.302 24.6129 135.837L24.6521 137.349C24.7206 140.142 25.3476 144.064 27.9681 146.911C29.3298 148.394 31.196 149.189 31.2744 149.223C31.3283 149.248 31.387 149.258 31.4507 149.258H70.636C70.8858 149.258 71.0866 149.057 71.0866 148.806V135.342C71.0866 135.224 71.0376 135.106 70.9544 135.022C70.8711 134.939 70.7535 134.89 70.636 134.89C70.6066 134.89 68.9314 134.89 66.9771 134.88C67.4816 133.437 67.942 132.023 68.373 130.58C69.2939 127.468 70.1755 124.258 70.9886 121.032L70.9788 121.042Z" fill="#231F20"/>
<path d="M144.672 120.846C144.451 120.487 144.069 120.271 143.653 120.271H103.88C103.037 120.271 102.278 120.738 101.891 121.489L89.352 146.095H75.7988C75.549 146.095 75.3481 146.298 75.3481 146.548V148.806C75.3481 149.056 75.549 149.257 75.7988 149.257H131.711C131.961 149.257 132.162 149.056 132.162 148.806V146.656L144.721 122.014C144.912 121.641 144.897 121.199 144.677 120.841L144.672 120.846Z" fill="#231F20"/>
<path d="M87.7551 94.405L108.03 86.8525L112.117 97.8723C112.535 98.9996 111.961 100.256 110.837 100.674L94.6386 106.708C93.5137 107.127 92.2604 106.552 91.8423 105.425L87.7551 94.405Z" fill="#D9D9D9"/>
<path d="M112.437 97.755L108.352 86.7348C108.342 86.7054 108.322 86.6759 108.303 86.6514C108.303 86.6465 108.303 86.6366 108.293 86.6317C108.293 86.6317 108.293 86.6317 108.288 86.6317C108.254 86.5974 108.22 86.563 108.171 86.5434C108.161 86.5385 108.146 86.5434 108.131 86.5335C108.117 86.5286 108.102 86.5237 108.087 86.5237C108.024 86.5139 107.965 86.509 107.901 86.5335L87.6277 94.0881C87.564 94.1127 87.5199 94.1569 87.4807 94.2059C87.4709 94.2158 87.466 94.2256 87.4562 94.2403C87.4219 94.2943 87.4023 94.3532 87.4023 94.4121C87.4023 94.4121 87.4023 94.417 87.4023 94.4219C87.4023 94.4317 87.4072 94.4367 87.4072 94.4416C87.4072 94.4759 87.4072 94.5054 87.4219 94.5397L91.507 105.56C91.8842 106.576 92.8491 107.209 93.8777 107.209C94.1667 107.209 94.4655 107.16 94.7545 107.052L110.948 101.019C111.58 100.784 112.084 100.317 112.363 99.7038C112.643 99.0902 112.667 98.4029 112.437 97.7697V97.755ZM107.23 87.5251L100.794 98.4716L88.7885 94.3974L107.23 87.5251ZM111.736 99.3994C111.536 99.8461 111.168 100.185 110.713 100.357L94.5194 106.389C93.574 106.743 92.5209 106.257 92.1682 105.31L88.3379 94.9766L100.848 99.2227C100.882 99.2325 100.921 99.2423 100.96 99.2423C101.078 99.2423 101.196 99.1785 101.259 99.0705L107.965 87.6675L111.795 98.0004C111.967 98.4618 111.947 98.9576 111.741 99.4043L111.736 99.3994Z" fill="#231F20"/>
<path d="M156.309 149.568H6.17015C5.78809 149.568 5.47461 149.259 5.47461 148.871C5.47461 148.483 5.78319 148.174 6.17015 148.174H156.309C156.691 148.174 157.004 148.483 157.004 148.871C157.004 149.259 156.695 149.568 156.309 149.568Z" fill="#231F20"/>
<path d="M35.8677 148.876C35.8677 151.596 33.6684 153.8 30.9548 153.8C28.2413 153.8 26.042 151.596 26.042 148.876C26.042 146.157 28.2413 143.953 30.9548 143.953C33.6684 143.953 35.8677 146.157 35.8677 148.876Z" fill="#00B4FF"/>
<path d="M30.9497 154.492C27.859 154.492 25.3413 151.969 25.3413 148.871C25.3413 145.774 27.859 143.251 30.9497 143.251C34.0404 143.251 36.5581 145.774 36.5581 148.871C36.5581 151.969 34.0404 154.492 30.9497 154.492ZM30.9497 144.645C28.6231 144.645 26.7324 146.539 26.7324 148.871C26.7324 151.203 28.6231 153.098 30.9497 153.098C33.2763 153.098 35.167 151.203 35.167 148.871C35.167 146.539 33.2763 144.645 30.9497 144.645Z" fill="#231F20"/>
<path d="M63.4829 42.4372V41.2323C63.4829 39.6346 64.1176 38.1023 65.2474 36.9725C66.3772 35.8427 67.9095 35.208 69.5073 35.208C71.105 35.208 72.6374 35.8427 73.7671 36.9725C74.8969 38.1023 75.5316 39.6346 75.5316 41.2323V42.4372" stroke="black" stroke-width="0.765449" stroke-linecap="round"/>
<path d="M69.5074 35.2077C70.4661 35.2077 71.3855 34.8269 72.0634 34.149C72.7412 33.4712 73.1221 32.5518 73.1221 31.5931C73.1221 30.6345 72.7412 29.7151 72.0634 29.0372C71.3855 28.3593 70.4661 27.9785 69.5074 27.9785C68.5488 27.9785 67.6294 28.3593 66.9515 29.0372C66.2736 29.7151 65.8928 30.6345 65.8928 31.5931C65.8928 32.5518 66.2736 33.4712 66.9515 34.149C67.6294 34.8269 68.5488 35.2077 69.5074 35.2077Z" stroke="black" stroke-width="0.765449" stroke-linecap="round" stroke-linejoin="round"/>
<path d="M80.3513 25.0863V45.3281C80.3513 45.5198 80.2751 45.7037 80.1395 45.8393C80.004 45.9749 79.8201 46.051 79.6284 46.051H59.3865C59.1948 46.051 59.0109 45.9749 58.8753 45.8393C58.7397 45.7037 58.6636 45.5198 58.6636 45.3281V25.0863C58.6636 24.8945 58.7397 24.7106 58.8753 24.5751C59.0109 24.4395 59.1948 24.3633 59.3865 24.3633H79.6284C79.8201 24.3633 80.004 24.4395 80.1395 24.5751C80.2751 24.7106 80.3513 24.8945 80.3513 25.0863Z" stroke="black" stroke-width="0.765449" stroke-linecap="round" stroke-linejoin="round"/>
<path d="M84.6882 27.9365H103.059" stroke="black" stroke-width="0.765449" stroke-linecap="round"/>
<path d="M84.6882 34.0596H103.059" stroke="black" stroke-width="0.765449" stroke-linecap="round"/>
<path d="M84.6882 40.6934H97.4457" stroke="black" stroke-width="0.765449" stroke-linecap="round"/>
<path fill-rule="evenodd" clip-rule="evenodd" d="M16.0493 72.6218L17.0276 72.3596L16.7655 71.3813C16.6265 70.8624 16.6992 70.3095 16.9679 69.8443C17.2365 69.379 17.6789 69.0395 18.1978 68.9005L26.0241 66.8034C26.5431 66.6644 27.096 66.7372 27.5612 67.0058C28.0265 67.2744 28.3659 67.7168 28.505 68.2357L31.1263 78.0187C31.2654 78.5376 31.1926 79.0905 30.924 79.5557C30.6553 80.021 30.2129 80.3605 29.694 80.4995L21.8677 82.5966C21.3487 82.7356 20.7958 82.6628 20.3306 82.3942C19.8654 82.1256 19.5259 81.6832 19.3868 81.1642L19.1247 80.186L18.1464 80.4481" fill="#D9D9D9"/>
<path d="M16.0493 72.6218L17.0276 72.3596L16.7655 71.3813C16.6265 70.8624 16.6992 70.3095 16.9679 69.8443C17.2365 69.379 17.6789 69.0395 18.1978 68.9005L26.0241 66.8034C26.5431 66.6644 27.096 66.7372 27.5612 67.0058C28.0265 67.2744 28.3659 67.7168 28.505 68.2357L31.1263 78.0187C31.2654 78.5376 31.1926 79.0905 30.924 79.5557C30.6553 80.021 30.2129 80.3605 29.694 80.4995L21.8677 82.5966C21.3487 82.7356 20.7958 82.6628 20.3306 82.3942C19.8654 82.1256 19.5259 81.6832 19.3868 81.1642L19.1247 80.186L18.1464 80.4481M17.0979 76.5349L18.0762 76.2728M16.5736 74.5783L17.5519 74.3162M17.6221 78.4915L18.6004 78.2294" stroke="black" stroke-width="0.510299" stroke-linecap="round" stroke-linejoin="round"/>
<path d="M23.9458 74.7005C25.0264 74.411 25.6676 73.3003 25.3781 72.2197C25.0886 71.1391 23.9778 70.4978 22.8973 70.7873C21.8167 71.0769 21.1754 72.1876 21.4649 73.2682C21.7545 74.3488 22.8652 74.9901 23.9458 74.7005Z" stroke="black" stroke-width="0.510299" stroke-linecap="round" stroke-linejoin="round"/>
<path d="M16.0493 72.6218L17.0276 72.3596L16.7655 71.3813C16.6265 70.8624 16.6992 70.3095 16.9679 69.8443C17.2365 69.379 17.6789 69.0395 18.1978 68.9005L26.0241 66.8034C26.5431 66.6644 27.096 66.7372 27.5612 67.0058C28.0265 67.2744 28.3659 67.7168 28.505 68.2357L31.1263 78.0187C31.2654 78.5376 31.1926 79.0905 30.924 79.5557C30.6553 80.021 30.2129 80.3605 29.694 80.4995L21.8677 82.5966C21.3487 82.7356 20.7958 82.6628 20.3306 82.3942C19.8654 82.1256 19.5259 81.6832 19.3868 81.1642L19.1247 80.186L18.1464 80.4481M17.0979 76.5349L18.0762 76.2728M16.5736 74.5783L17.5519 74.3162M17.6221 78.4915L18.6004 78.2294" stroke="black" stroke-width="0.510299" stroke-linecap="round" stroke-linejoin="round"/>
<path fill-rule="evenodd" clip-rule="evenodd" d="M27.6669 76.8498L27.4048 75.8715C27.2657 75.3525 26.9262 74.9101 26.461 74.6415C25.9957 74.3729 25.4428 74.3001 24.9239 74.4391L22.9673 74.9634C22.4484 75.1024 22.006 75.4419 21.7374 75.9072C21.4688 76.3724 21.396 76.9253 21.535 77.4443L21.7971 78.4225C21.8667 78.682 22.0364 78.9032 22.269 79.0375C22.5017 79.1718 22.7781 79.2082 23.0376 79.1387L26.9507 78.0902C27.2102 78.0207 27.4314 77.8509 27.5657 77.6183C27.7 77.3857 27.7364 77.1092 27.6669 76.8498Z" stroke="black" stroke-width="0.510299" stroke-linecap="round" stroke-linejoin="round"/>
</g>
</g>
</g>
<defs>
<clipPath id="clip0_1_605">
<rect width="169" height="154" fill="white" transform="translate(0 0.5)"/>
</clipPath>
</defs>
</svg>
