<svg width="33" height="35" viewBox="0 0 33 35" fill="none" xmlns="http://www.w3.org/2000/svg">
<g clip-path="url(#clip0_1_675)">
<path fill-rule="evenodd" clip-rule="evenodd" d="M13.0337 1.09235C11.6707 1.44543 11.1133 1.65029 9.86388 2.25742C5.04975 4.59683 1.81794 9.07242 1.0332 14.4865C0.825711 15.9179 0.903413 18.3447 1.20223 19.7675C1.46121 21.0006 1.98876 22.5722 2.45652 23.5043C2.64328 23.8764 2.79612 24.2407 2.79612 24.3136C2.79612 24.3866 2.24286 25.6909 1.56658 27.2121C0.890306 28.7332 0.292759 30.1092 0.238701 30.2696C-0.0244762 31.0503 0.218912 32.0427 0.840703 32.7243C1.37168 33.3064 1.95193 33.569 2.71045 33.5705C3.20391 33.5714 3.6607 33.4364 6.72228 32.3846C9.83681 31.3147 10.2041 31.2067 10.4489 31.2892C10.5983 31.3396 11.1449 31.5341 11.6635 31.7216C14.9797 32.9206 18.4721 32.9507 21.9725 31.8101C25.4228 30.6859 28.5572 28.2194 30.4832 25.1126C31.7243 23.1106 32.6092 20.5721 32.826 18.3915C32.8691 17.9579 32.8458 17.8156 32.679 17.4907C32.1977 16.5538 31.0029 16.468 30.3647 17.3244C30.2685 17.4535 30.1425 17.9293 30.0367 18.5635C29.7238 20.4398 29.2192 21.8767 28.3642 23.3262C26.9093 25.7925 24.6305 27.791 22.0635 28.8514C20.3513 29.5588 18.816 29.8591 16.9231 29.8569C14.8747 29.8546 13.159 29.4796 11.3561 28.6405C10.3847 28.1882 10.0832 28.1399 9.58271 28.3559C8.9867 28.6132 3.11044 30.7075 3.07737 30.6745C3.05929 30.6563 3.66001 29.3053 4.41236 27.6722C5.16472 26.039 5.80578 24.5864 5.83697 24.4441C5.90927 24.1141 5.74864 23.6246 5.44212 23.2406C4.92767 22.5962 4.20033 20.6981 3.89972 19.2156C3.67912 18.1279 3.59893 16.128 3.73206 15.0345C3.93544 13.364 4.38769 11.9295 5.2001 10.3779C5.81204 9.20914 6.4884 8.30068 7.50796 7.27825C9.39381 5.38684 11.4082 4.31069 14.4269 3.58186C15.7364 3.26577 15.9552 1.54971 14.7555 1.00386C14.2966 0.79505 14.1523 0.802516 13.0337 1.09235ZM20.6155 2.56742C20.4977 2.61453 20.311 2.73761 20.2004 2.84094C19.5391 3.45948 19.6225 4.42784 20.3859 4.99497C20.615 5.16516 20.7491 5.17589 22.9502 5.2L25.2729 5.22549L22.5649 7.9464C19.651 10.8742 19.663 10.8583 19.7859 11.6169C19.9264 12.4846 21.0441 12.9906 21.772 12.516C21.9133 12.4238 23.2048 11.1918 24.6419 9.77824L27.2549 7.20813L27.2977 9.53844C27.3388 11.7763 27.3481 11.8795 27.5316 12.1372C28.0938 12.9267 29.3192 12.8519 29.8203 11.9973C29.9912 11.7059 29.9963 11.5788 29.9963 7.57761V3.45802L29.7949 3.13352C29.6841 2.955 29.4447 2.73297 29.2629 2.64002C28.9473 2.47876 28.7477 2.47129 24.8809 2.47644C22.4029 2.47979 20.7464 2.51515 20.6155 2.56742Z" fill="#D9D9D9"/>
</g>
<defs>
<clipPath id="clip0_1_675">
<rect width="33" height="34" fill="white" transform="translate(0 0.5)"/>
</clipPath>
</defs>
</svg>
