<svg width="35" height="35" viewBox="0 0 35 35" fill="none" xmlns="http://www.w3.org/2000/svg">
<g clip-path="url(#clip0_355_11846)">
<path fill-rule="evenodd" clip-rule="evenodd" d="M14.1162 1.22906C12.7495 1.58213 12.1905 1.78698 10.9376 2.39408C6.11001 4.73341 2.86921 9.20883 2.08229 14.6227C1.87422 16.054 1.95214 18.4808 2.25178 19.9036C2.51148 21.1366 3.04051 22.7081 3.50957 23.6402C3.69685 24.0123 3.85011 24.3766 3.85011 24.4498C3.85011 24.523 3.26241 25.8852 2.54404 27.477L1.23789 30.371L1.23454 31.1434C1.23171 31.7839 1.26409 31.9776 1.4244 32.2782C1.89166 33.1547 2.8016 33.7104 3.7642 33.7072C4.24391 33.7056 4.66761 33.587 6.77099 32.8658C8.1176 32.404 9.68277 31.8694 10.2491 31.6778L11.2789 31.3292L11.7954 31.5254C14.5754 32.5807 16.7865 32.9478 19.1377 32.7443C25.6983 32.1766 31.0874 28.0252 33.186 21.9225C33.5471 20.8727 33.9238 19.099 33.9446 18.3511C33.9638 17.6586 33.6838 17.2003 33.1073 16.9803C32.1772 16.6254 31.3468 17.1999 31.2155 18.2892C30.9572 20.4315 30.0914 22.6666 28.8218 24.4684C28.1419 25.4334 26.6989 26.8749 25.733 27.5541C23.4286 29.1745 20.824 29.9933 17.982 29.9906C15.8385 29.9885 14.1298 29.6014 12.2448 28.6908C11.4278 28.2961 10.9864 28.2592 10.4401 28.5401C10.0143 28.7591 4.1806 30.8584 4.13223 30.8101C4.11402 30.792 4.71641 29.441 5.47085 27.8079C6.2253 26.1748 6.86815 24.7222 6.89942 24.5799C6.97193 24.25 6.81085 23.7605 6.50347 23.3765C5.98759 22.7322 5.25823 20.8341 4.95678 19.3517C4.73496 18.2611 4.65498 16.2632 4.78943 15.1707C4.99595 13.4916 5.4261 12.112 6.21267 10.6061C6.86248 9.36194 7.53102 8.45884 8.57507 7.41473C10.4662 5.5234 12.4862 4.44728 15.5133 3.71848C16.8264 3.4024 17.0458 1.6864 15.8428 1.14058C15.3826 0.931771 15.238 0.939237 14.1162 1.22906ZM21.7191 2.70407C21.601 2.75119 21.4137 2.87426 21.3028 2.97759C20.8535 3.39674 20.86 3.32688 20.8603 7.77415C20.8606 11.6901 20.8696 11.9341 21.0233 12.1858C21.222 12.5114 21.673 12.7993 22.0197 12.8218C22.1615 12.8311 24.0404 12.8345 26.1951 12.8296C30.1092 12.8205 30.1129 12.8203 30.3967 12.6274C31.0563 12.1789 31.2589 11.4368 30.8933 10.8085C30.5088 10.1475 30.3941 10.1206 27.83 10.0904L25.5648 10.0636L28.2787 7.38701C30.6778 5.02074 31.0032 4.66801 31.0841 4.34558C31.3307 3.36249 30.4823 2.46309 29.4805 2.64571C29.1903 2.69867 28.8131 3.04169 26.3796 5.46572L23.609 8.22549V5.99258C23.609 3.84773 23.6014 3.74466 23.4157 3.37683C23.1082 2.76749 22.3323 2.45982 21.7191 2.70407Z" fill="#D9D9D9"/>
</g>
<defs>
<clipPath id="clip0_355_11846">
<rect width="34" height="34" fill="white" transform="translate(0.5 0.5)"/>
</clipPath>
</defs>
</svg>
