<svg width="34" height="35" viewBox="0 0 34 35" fill="none" xmlns="http://www.w3.org/2000/svg">
<g clip-path="url(#clip0_1_686)">
<path fill-rule="evenodd" clip-rule="evenodd" d="M13.6152 1.22906C12.2485 1.58213 11.6895 1.78698 10.4366 2.39408C5.60903 4.73341 2.36823 9.20883 1.58131 14.6227C1.37324 16.054 1.45116 18.4808 1.7508 19.9036C2.0105 21.1366 2.53953 22.7081 3.00859 23.6402C3.19587 24.0123 3.34913 24.3766 3.34913 24.4498C3.34913 24.523 2.76143 25.8852 2.04306 27.477L0.736915 30.371L0.733564 31.1434C0.730729 31.7839 0.763116 31.9776 0.923421 32.2782C1.39068 33.1547 2.30062 33.7104 3.26322 33.7072C3.74293 33.7056 4.16663 33.587 6.27001 32.8658C7.61662 32.404 9.18179 31.8694 9.74809 31.6778L10.7779 31.3292L11.2944 31.5254C14.0744 32.5807 16.2855 32.9478 18.6367 32.7443C25.1973 32.1766 30.5864 28.0252 32.685 21.9225C33.0461 20.8727 33.4228 19.099 33.4436 18.3511C33.4628 17.6586 33.1828 17.2003 32.6063 16.9803C31.6762 16.6254 30.8458 17.1999 30.7145 18.2892C30.4562 20.4315 29.5904 22.6666 28.3208 24.4684C27.6409 25.4334 26.1979 26.8749 25.232 27.5541C22.9276 29.1745 20.323 29.9933 17.481 29.9906C15.3375 29.9885 13.6288 29.6014 11.7438 28.6908C10.9268 28.2961 10.4854 28.2592 9.93916 28.5401C9.51331 28.7591 3.67962 30.8584 3.63125 30.8101C3.61304 30.792 4.21543 29.441 4.96987 27.8079C5.72432 26.1748 6.36717 24.7222 6.39844 24.5799C6.47095 24.25 6.30987 23.7605 6.00249 23.3765C5.48661 22.7322 4.75725 20.8341 4.4558 19.3517C4.23398 18.2611 4.154 16.2632 4.28845 15.1707C4.49497 13.4916 4.92512 12.112 5.71169 10.6061C6.3615 9.36194 7.03004 8.45884 8.07409 7.41473C9.96519 5.5234 11.9852 4.44728 15.0123 3.71848C16.3254 3.4024 16.5448 1.6864 15.3418 1.14058C14.8816 0.931771 14.737 0.939237 13.6152 1.22906ZM21.2181 2.70407C21.1 2.75119 20.9127 2.87426 20.8018 2.97759C20.3525 3.39674 20.359 3.32688 20.3593 7.77415C20.3596 11.6901 20.3686 11.9341 20.5223 12.1858C20.721 12.5114 21.172 12.7993 21.5187 12.8218C21.6605 12.8311 23.5394 12.8345 25.6941 12.8296C29.6082 12.8205 29.6119 12.8203 29.8957 12.6274C30.5553 12.1789 30.7579 11.4368 30.3923 10.8085C30.0078 10.1475 29.8931 10.1206 27.329 10.0904L25.0638 10.0636L27.7777 7.38701C30.1768 5.02074 30.5022 4.66801 30.5831 4.34558C30.8297 3.36249 29.9813 2.46309 28.9795 2.64571C28.6893 2.69867 28.3121 3.04169 25.8786 5.46572L23.108 8.22549V5.99258C23.108 3.84773 23.1004 3.74466 22.9147 3.37683C22.6072 2.76749 21.8313 2.45982 21.2181 2.70407Z" fill="#D9D9D9"/>
</g>
<defs>
<clipPath id="clip0_1_686">
<rect width="34" height="34" fill="white" transform="translate(0 0.5)"/>
</clipPath>
</defs>
</svg>
