<svg width="34" height="34" viewBox="0 0 34 34" fill="none" xmlns="http://www.w3.org/2000/svg">
<g clip-path="url(#clip0_1_677)">
<path fill-rule="evenodd" clip-rule="evenodd" d="M18.0864 1.02682C18.2501 1.14901 18.4897 1.39055 18.6189 1.56353C18.8502 1.87328 18.8538 1.98523 18.8538 8.92186C18.8538 15.8585 18.8502 15.9704 18.6189 16.2802C18.1726 16.8777 17.8086 17.0643 17.0882 17.0643C16.3679 17.0643 16.0039 16.8778 15.5576 16.2803C15.3275 15.9723 15.322 15.829 15.2892 9.22672C15.2709 5.52028 15.2857 2.32265 15.3223 2.12086C15.4045 1.66693 15.8808 1.08569 16.3422 0.876381C16.8033 0.667298 17.7094 0.745419 18.0864 1.02682ZM9.01656 4.09006C9.44143 4.30974 9.81002 4.86194 9.87996 5.38362C9.98213 6.14502 9.7549 6.54792 8.65787 7.55029C4.2053 11.6189 3.08333 17.7275 5.81388 23.0351C8.2207 27.7137 13.5654 30.4934 18.7399 29.7578C20.9604 29.4423 23.3302 28.4397 25.0172 27.1024C28.481 24.3565 30.339 19.7682 29.7278 15.4699C29.3002 12.4632 27.7427 9.51142 25.5841 7.61669C24.4951 6.66078 24.2799 6.04059 24.7091 5.09562C24.9649 4.5326 25.4873 4.13653 26.0788 4.05727C26.8683 3.95136 27.283 4.19255 28.6427 5.54806C30.9859 7.88407 32.4759 10.6127 33.1614 13.8236C33.5062 15.4379 33.5338 18.3525 33.2201 20.0251C32.5907 23.3821 31.0719 26.2579 28.6494 28.6797C26.2268 31.1018 23.3487 32.621 19.9928 33.2491C18.4296 33.5416 15.7432 33.5413 14.1837 33.2483C7.41516 31.9767 2.22449 26.7876 0.956377 20.0251C0.645528 18.3677 0.670474 15.4366 1.00877 13.8542C1.76556 10.3145 3.51857 7.28393 6.19409 4.88984C7.4065 3.80502 8.09039 3.6112 9.01656 4.09006Z" fill="#D9D9D9"/>
</g>
<defs>
<clipPath id="clip0_1_677">
<rect width="34" height="33" fill="white" transform="translate(0 0.5)"/>
</clipPath>
</defs>
</svg>
