<svg width="243" height="131" viewBox="0 0 243 131" fill="none" xmlns="http://www.w3.org/2000/svg">
<g clip-path="url(#clip0_355_11864)">
<path fill-rule="evenodd" clip-rule="evenodd" d="M173.604 68.1177C173.604 75.4584 172.009 82.4264 169.149 88.6924C169.131 88.7271 169.123 88.7617 169.105 88.7877C167.909 91.3964 166.488 93.8924 164.867 96.2324C163.22 98.6157 161.373 100.852 159.345 102.914C158.539 103.738 157.706 104.526 156.84 105.289C155.652 106.338 154.412 107.334 153.13 108.27C149.116 111.191 144.643 113.522 139.841 115.143C137.726 115.854 135.55 116.426 133.313 116.85C130.288 117.422 127.168 117.726 123.978 117.726C110.776 117.726 98.7698 112.569 89.8847 104.154C82.4731 97.1424 77.2201 87.8604 75.235 77.4257C74.6976 74.6004 74.4028 71.6971 74.3682 68.7244C74.3682 68.5251 74.3682 68.3171 74.3682 68.1177C74.3682 59.9711 76.3359 52.2837 79.8119 45.4977C80.1327 44.8737 80.4621 44.2584 80.8088 43.6431C84.1462 37.7671 88.6537 32.6364 94.0108 28.5717C97.0968 26.2231 100.477 24.2384 104.066 22.6611C110.16 19.9831 116.895 18.5011 123.986 18.5011C132.993 18.5011 141.436 20.9017 148.717 25.0964C150.72 26.2491 152.635 27.5404 154.447 28.9531C157.594 31.4057 160.446 34.2311 162.916 37.3511C163.358 37.9057 163.783 38.4691 164.199 39.0497C165.482 40.8177 166.644 42.6724 167.684 44.6051C171.463 51.6077 173.604 59.6157 173.604 68.1177Z" fill="#E7F1FF"/>
<path fill-rule="evenodd" clip-rule="evenodd" d="M153.563 112.629C153.451 112.681 153.338 112.733 153.217 112.785C153.104 112.837 152.983 112.889 152.87 112.941C152.757 112.993 152.636 113.045 152.523 113.088C152.419 113.132 152.306 113.175 152.202 113.218C151.942 113.322 151.674 113.426 151.414 113.53C151.318 113.565 151.223 113.6 151.119 113.634C150.997 113.678 150.885 113.721 150.763 113.756C150.659 113.79 150.547 113.825 150.434 113.868C150.399 113.877 150.373 113.886 150.339 113.894C150.243 113.929 150.139 113.955 150.044 113.99C149.923 114.024 149.801 114.059 149.689 114.102C149.567 114.137 149.446 114.172 149.324 114.206C149.229 114.232 149.134 114.258 149.03 114.284C148.986 114.293 148.943 114.31 148.891 114.319C148.822 114.336 148.744 114.354 148.674 114.371C148.631 114.38 148.588 114.388 148.553 114.406C148.328 114.466 148.102 114.518 147.868 114.57C147.764 114.596 147.669 114.614 147.565 114.64C147.53 114.648 147.487 114.657 147.452 114.666C147.348 114.683 147.244 114.709 147.14 114.726C147.019 114.752 146.897 114.77 146.776 114.796C146.655 114.813 146.533 114.839 146.421 114.856C146.282 114.882 146.134 114.9 145.996 114.926C145.9 114.943 145.805 114.952 145.718 114.969C145.484 115.004 145.25 115.03 145.016 115.056C144.964 115.064 144.904 115.064 144.852 115.073C144.765 115.082 144.67 115.09 144.583 115.099C144.513 115.108 144.444 115.108 144.383 115.116C144.323 115.125 144.253 115.125 144.193 115.134C144.097 115.142 144.011 115.151 143.915 115.151C143.863 115.16 143.811 115.16 143.759 115.16C143.673 115.168 143.586 115.168 143.499 115.177C143.231 115.194 142.962 115.203 142.702 115.212C142.598 115.212 142.494 115.22 142.39 115.22C141.549 115.238 140.708 115.203 139.867 115.142C137.752 115.853 135.576 116.425 133.34 116.85C130.315 117.422 127.194 117.725 124.004 117.725C110.802 117.725 98.7962 112.568 89.911 104.153C82.4995 97.1416 77.2465 87.8596 75.2614 77.4249L74.4552 69.3302L74.3945 68.7236L72.1494 46.2596L79.8383 45.4882L89.573 44.5262L93.1617 44.1709L93.3351 44.1536L99.9231 43.4949L111.443 42.3422L144.487 39.0402L146.186 38.8669L146.212 39.1356L148.466 61.7036L148.492 61.9462L148.778 64.8236L148.96 66.6436L150.382 80.8916L150.503 82.0702L150.798 85.0429L153.061 107.698L153.121 108.287L153.563 112.629Z" fill="#709EB3"/>
<path fill-rule="evenodd" clip-rule="evenodd" d="M166.973 38.1516L167.978 39.1973L167.684 44.6053L166.002 75.4326L165.863 77.9893L165.438 85.8326L164.875 96.2326L161.798 103.487L164.355 105.801L164.303 106.806L163.878 114.632L158.703 109.458C158.599 109.536 158.495 109.623 158.391 109.701C158.296 109.77 158.2 109.848 158.105 109.917C158.105 109.926 158.096 109.926 158.096 109.926C157.992 110.004 157.897 110.073 157.793 110.143C157.672 110.229 157.541 110.316 157.42 110.403C157.359 110.446 157.299 110.489 157.238 110.533C156.848 110.801 156.449 111.053 156.042 111.304C155.903 111.382 155.773 111.469 155.634 111.547C155.53 111.607 155.418 111.668 155.314 111.729C155.262 111.763 155.201 111.789 155.149 111.824C155.071 111.867 154.993 111.911 154.915 111.954C154.82 112.006 154.724 112.058 154.62 112.11C154.386 112.231 154.152 112.353 153.909 112.474C153.805 112.526 153.693 112.578 153.589 112.63H153.58C153.467 112.682 153.355 112.734 153.233 112.786C153.121 112.838 152.999 112.89 152.887 112.942C152.774 112.994 152.653 113.046 152.54 113.089C152.436 113.133 152.323 113.176 152.219 113.219C151.959 113.323 151.69 113.427 151.43 113.531C151.335 113.566 151.24 113.601 151.136 113.635C151.014 113.679 150.901 113.722 150.78 113.757C150.676 113.791 150.563 113.826 150.451 113.869C150.416 113.878 150.39 113.887 150.355 113.895C150.26 113.93 150.156 113.956 150.061 113.991C149.939 114.025 149.818 114.06 149.705 114.103C149.584 114.138 149.463 114.173 149.341 114.207C149.246 114.233 149.15 114.259 149.046 114.285C149.003 114.294 148.96 114.311 148.908 114.32C148.838 114.337 148.76 114.355 148.691 114.372C148.648 114.381 148.604 114.389 148.57 114.407C148.344 114.467 148.119 114.519 147.885 114.571C147.781 114.597 147.685 114.615 147.581 114.641C147.547 114.649 147.503 114.658 147.469 114.667C147.365 114.684 147.261 114.71 147.157 114.727C147.035 114.753 146.914 114.771 146.793 114.797C146.671 114.814 146.55 114.84 146.437 114.857C146.299 114.883 146.151 114.901 146.012 114.927C145.917 114.944 145.822 114.953 145.735 114.97C145.501 115.005 145.267 115.031 145.033 115.057C144.981 115.065 144.92 115.065 144.868 115.074C144.782 115.083 144.686 115.091 144.6 115.1C144.53 115.109 144.461 115.109 144.4 115.117C144.339 115.126 144.27 115.126 144.209 115.135C144.114 115.143 144.027 115.152 143.932 115.152C143.88 115.161 143.828 115.161 143.776 115.161C143.689 115.169 143.603 115.169 143.516 115.178C143.247 115.195 142.979 115.204 142.718 115.213C142.614 115.213 142.51 115.221 142.406 115.221C141.566 115.239 140.725 115.204 139.884 115.143C137.769 115.854 135.593 116.426 133.357 116.851C130.331 117.423 127.211 117.726 124.021 117.726C110.819 117.726 98.8129 112.569 89.9277 104.154L90.2138 98.8933V98.8586L91.9215 67.598L93.1957 44.1633L93.2911 42.404L93.7678 33.5813L100.339 33.9366L148.968 36.5886L154.1 36.866L162.951 37.3513L166.418 37.542L166.973 38.1516Z" fill="#709EB3"/>
<g style="mix-blend-mode:darken" opacity="0.1">
<path fill-rule="evenodd" clip-rule="evenodd" d="M169.148 88.6916C168.922 93.5449 167.605 98.3983 164.952 102.524C164.805 102.766 161.624 102.931 161.468 103.165C166.27 107.126 164.744 106.302 160.427 111.19C159.058 109.873 158.928 108.928 157.22 110.532C150.207 115.931 141.296 114.414 133.321 116.85C119.712 112.56 111.633 96.4656 116.14 83.1449C124.306 55.1603 166.937 59.5283 169.148 88.6916Z" fill="black"/>
</g>
<path fill-rule="evenodd" clip-rule="evenodd" d="M148.501 61.947L137.839 63.0043L129.699 63.819L106.615 66.1243L91.9829 67.589L91.8876 67.5976L89.6858 67.8143L74.4294 69.3396L74.3687 68.733L71.9502 44.5356L80.818 43.6516L93.2572 42.4036L100.027 41.7276L100.114 41.719L133.158 38.4256L146.022 37.1343L146.221 39.1363L148.484 61.7043L148.501 61.947Z" fill="#709EB3"/>
<g style="mix-blend-mode:darken" opacity="0.1">
<path fill-rule="evenodd" clip-rule="evenodd" d="M93.4373 42.3848L89.5625 42.7748L89.8746 104.135L93.4373 42.3848Z" fill="black"/>
</g>
<path fill-rule="evenodd" clip-rule="evenodd" d="M167.987 39.1979L167.692 44.6059L166.01 75.4332L165.438 85.8332L164.389 85.7812L149.956 84.9925L144.92 84.7152L119.894 83.3545L115.239 83.0945L91.1671 81.7859H91.1064L91.8866 67.5985L93.2562 42.4045L94.0104 28.5812L94.3658 22.1419L104.066 22.6705L148.717 25.1059L154.611 25.4265L167.987 39.1979Z" fill="#709EB3"/>
<path d="M100.425 31.8164L100.163 36.6192L148.789 39.2713L149.051 34.4685L100.425 31.8164Z" fill="white"/>
<path d="M100.03 41.7203L99.7676 46.5231L129.231 48.13L129.493 43.3273L100.03 41.7203Z" fill="white"/>
<path d="M99.4358 60.9174L99.1738 65.7202L146.008 68.2742L146.27 63.4714L99.4358 60.9174Z" fill="white"/>
<path d="M99.096 72.4252L98.834 77.2279L112.908 77.9954L113.17 73.1926L99.096 72.4252Z" fill="white"/>
<path fill-rule="evenodd" clip-rule="evenodd" d="M173.76 119.867C172.477 121.15 170.388 121.15 169.096 119.867L163.86 114.632L157.688 108.462C156.83 107.604 156.544 106.382 156.839 105.29C156.874 105.142 156.926 105.004 156.986 104.865C157.142 104.484 157.385 104.12 157.697 103.808C158.009 103.496 158.373 103.262 158.755 103.097C158.945 103.019 159.145 102.958 159.344 102.915C160.393 102.698 161.537 102.993 162.352 103.808L163.34 104.796L164.337 105.801L173.751 115.213C175.051 116.496 175.051 118.584 173.76 119.867Z" fill="#709EB3"/>
<path fill-rule="evenodd" clip-rule="evenodd" d="M169.113 88.3196C168.194 122.224 119.044 124.512 114.936 90.8936C112.205 53.2369 168.194 50.4289 169.113 88.3196Z" fill="#709EB3"/>
<path d="M141.956 110.609C154.408 110.609 164.502 100.517 164.502 88.0671C164.502 75.6175 154.408 65.5251 141.956 65.5251C129.504 65.5251 119.409 75.6175 119.409 88.0671C119.409 100.517 129.504 110.609 141.956 110.609Z" fill="white"/>
<path d="M150.512 82.0608C150.503 81.6535 150.469 81.2635 150.391 80.8821C150.113 79.3741 149.359 78.0568 148.111 76.9128C146.542 75.4828 144.453 74.7461 141.826 74.7461C139.338 74.7461 137.345 75.4308 135.828 76.7741C134.727 77.7448 133.938 79.0188 133.47 80.6048C133.063 81.9741 133.999 83.3781 135.412 83.5428C136.53 83.6728 137.587 82.9795 137.9 81.9048C138.177 80.9688 138.576 80.2408 139.122 79.7208C139.859 79.0361 140.777 78.6981 141.87 78.6981C143.014 78.6981 143.976 79.0708 144.765 79.8335C145.536 80.5788 145.926 81.4455 145.926 82.4335C145.926 82.9535 145.805 83.4388 145.554 83.8808C145.415 84.1235 145.198 84.4008 144.904 84.7128C144.574 85.0681 144.158 85.4668 143.647 85.9175C142.554 86.8795 141.809 87.6161 141.384 88.1188C140.777 88.8555 140.335 89.5835 140.067 90.3028C139.703 91.2388 139.512 92.3568 139.512 93.6481C139.512 94.5495 140.249 95.2861 141.15 95.2861H142.286C143.161 95.2861 143.881 94.6015 143.924 93.7261C143.959 93.0241 144.028 92.4781 144.123 92.1141C144.245 91.6635 144.427 91.2648 144.687 90.9181C144.973 90.5281 145.588 89.9215 146.525 89.0895C148.076 87.7115 149.116 86.5328 149.645 85.5708C149.749 85.3801 149.845 85.1895 149.931 84.9901C150.304 84.1321 150.495 83.2135 150.495 82.2341C150.512 82.1735 150.512 82.1215 150.512 82.0608ZM141.809 96.4735C140.457 96.4735 139.356 97.5741 139.356 98.9261C139.356 100.287 140.457 101.379 141.809 101.379C143.17 101.379 144.262 100.278 144.262 98.9261C144.262 97.5741 143.161 96.4735 141.809 96.4735Z" fill="#709EB3"/>
<g style="mix-blend-mode:darken" opacity="0.1">
<path fill-rule="evenodd" clip-rule="evenodd" d="M167.987 39.1969L164.199 39.0583L153.979 38.6769L154.447 28.9529L154.611 25.4256L167.987 39.1969Z" fill="black"/>
</g>
<path d="M0.18854 23.0772C1.94195 23.0407 3.40313 23.0133 4.79203 23.0042L8.93361 22.9677L13.0186 22.9464H17.1036L33.5097 22.9829L50.0885 23.0133C55.6253 23.0133 61.1715 23.0133 66.7146 23.0133L66.6926 23.1806L53.4948 19.7981C53.477 19.7927 53.4611 19.7824 53.4494 19.7683C53.4376 19.7542 53.4305 19.737 53.4288 19.719C53.2133 18.3291 52.6152 17.021 51.6974 15.932C51.2357 15.3965 50.6908 14.9337 50.0823 14.5601C49.4678 14.1904 48.8024 13.9067 48.1057 13.7175C46.7086 13.3235 45.2336 13.263 43.8071 13.5411C42.382 13.8139 41.045 14.4126 39.9074 15.2871C39.8905 15.3027 39.868 15.3114 39.8446 15.3114C39.8212 15.3114 39.7987 15.3027 39.7817 15.2871C39.7723 15.2744 39.7659 15.2599 39.7629 15.2445C39.3158 13.2406 38.1405 11.4586 36.4509 10.2225C35.6082 9.62667 34.6558 9.19203 33.6448 8.94193C32.6257 8.69684 31.5775 8.58331 30.5276 8.60429C29.4818 8.60105 28.4405 8.73614 27.4324 9.0058C26.4228 9.27279 25.482 9.7411 24.6703 10.3807C23.8729 11.0448 23.2224 11.8582 22.758 12.772C22.2936 13.6857 22.0248 14.6809 21.9679 15.6978C21.9671 15.7094 21.964 15.7207 21.9587 15.7311C21.9533 15.7415 21.9459 15.7508 21.9369 15.7584C21.9278 15.766 21.9173 15.7719 21.9059 15.7756C21.8945 15.7792 21.8825 15.7807 21.8705 15.7799C21.8573 15.7782 21.8445 15.7738 21.8331 15.767C21.8218 15.7602 21.812 15.7511 21.8045 15.7403C21.0527 14.7619 20.0183 14.021 18.8319 13.6111C17.6349 13.2231 16.3434 13.2018 15.1334 13.5502C14.5258 13.7009 13.9496 13.952 13.4303 14.2924C12.9123 14.6351 12.4683 15.0721 12.1231 15.5791C11.4385 16.6129 11.0763 17.8158 11.0798 19.0437C11.0844 19.0555 11.0844 19.0685 11.0798 19.0802C10.7004 19.3892 10.2958 19.6679 9.87002 19.9137C9.44895 20.1662 9.01217 20.3912 8.57538 20.6103C7.69029 21.0344 6.77944 21.4062 5.84785 21.7236C4.92087 22.0551 3.96246 22.3137 3.01977 22.5631C2.54213 22.6817 2.06136 22.7851 1.58059 22.8977C1.09981 23.0102 0.681884 23.0133 0.18854 23.0772ZM0.0125668 23.0772C0.480772 22.9524 1.02125 22.7973 1.53031 22.7121C2.03936 22.627 2.473 22.5023 2.96635 22.3867C3.90904 22.1433 4.85174 21.8909 5.79444 21.5684C6.72256 21.2582 7.63028 20.8936 8.51254 20.4764C8.95246 20.2605 9.3861 20.0414 9.80403 19.792C10.2233 19.5575 10.6226 19.291 10.9981 18.9951L10.9793 19.0316C10.9712 17.7849 11.3333 16.5623 12.0225 15.5092C12.3734 14.9858 12.8259 14.5333 13.3548 14.1769C13.8819 13.8291 14.4664 13.5709 15.0831 13.4134C16.3214 13.0517 17.6448 13.0687 18.8728 13.462C20.0959 13.8753 21.1638 14.6326 21.9397 15.6369L21.7763 15.6825C21.8321 14.6345 22.0967 13.6068 22.5556 12.656C23.0066 11.7015 23.6747 10.8582 24.5101 10.1891C25.3396 9.52432 26.3026 9.03338 27.3382 8.74725C28.3747 8.46244 29.447 8.3181 30.5245 8.31836C31.6011 8.2909 32.6767 8.40136 33.7234 8.64687C34.7781 8.89823 35.7718 9.34668 36.6489 9.96701C37.5217 10.593 38.2558 11.3822 38.8076 12.2879C39.3627 13.1867 39.7389 14.1782 39.9169 15.2111L39.7692 15.1594C40.3435 14.6977 40.9772 14.3102 41.6546 14.0065C42.3246 13.6966 43.0303 13.4648 43.7568 13.316C45.2156 13.0272 46.7251 13.0846 48.156 13.4833C48.8741 13.6764 49.5606 13.9662 50.1954 14.3442C50.8291 14.7284 51.3964 15.2067 51.8765 15.7616C52.8297 16.8819 53.4258 18.2462 53.5922 19.6886L53.5262 19.6125L66.724 22.9981C66.7464 23.0038 66.7656 23.0179 66.7774 23.0372C66.7892 23.0566 66.7926 23.0797 66.7868 23.1015C66.7813 23.12 66.7698 23.1362 66.7539 23.1477C66.738 23.1593 66.7187 23.1655 66.6988 23.1654C61.1401 23.1654 55.5876 23.138 50.0257 23.1654L33.2991 23.1958L16.4029 23.2323H12.1513L7.91864 23.211L3.73307 23.1745C2.34731 23.1532 1.03382 23.1258 0 23.0924L0.0125668 23.0772Z" fill="#15181A"/>
<path d="M201.196 91.3325C202.297 91.3099 203.214 91.293 204.086 91.2873L206.685 91.2647L209.249 91.2515H211.813L222.111 91.2741L232.517 91.293C235.992 91.293 239.473 91.293 242.952 91.293L242.938 91.3965L234.655 89.3026C234.643 89.2993 234.634 89.2929 234.626 89.2841C234.619 89.2754 234.614 89.2648 234.613 89.2536C234.478 88.3932 234.103 87.5835 233.526 86.9093C233.237 86.5778 232.895 86.2913 232.513 86.06C232.127 85.8311 231.709 85.6555 231.272 85.5385C230.395 85.2945 229.469 85.2571 228.574 85.4292C227.68 85.5981 226.84 85.9687 226.126 86.5101C226.116 86.5198 226.102 86.5252 226.087 86.5252C226.072 86.5252 226.058 86.5198 226.048 86.5101C226.042 86.5022 226.038 86.4932 226.036 86.4837C225.755 85.2432 225.017 84.14 223.957 83.3749C223.428 83.006 222.83 82.7369 222.196 82.5821C221.556 82.4304 220.898 82.3601 220.239 82.3731C219.583 82.3711 218.929 82.4547 218.296 82.6217C217.663 82.7869 217.072 83.0768 216.563 83.4728C216.062 83.8839 215.654 84.3874 215.362 84.9531C215.071 85.5187 214.902 86.1348 214.867 86.7643C214.866 86.7715 214.864 86.7785 214.861 86.7849C214.857 86.7914 214.853 86.7971 214.847 86.8018C214.841 86.8066 214.835 86.8102 214.828 86.8125C214.82 86.8147 214.813 86.8157 214.805 86.8151C214.797 86.8141 214.789 86.8114 214.782 86.8072C214.775 86.8029 214.769 86.7973 214.764 86.7907C214.292 86.185 213.643 85.7263 212.898 85.4725C212.147 85.2323 211.336 85.2192 210.577 85.4349C210.195 85.5282 209.834 85.6836 209.508 85.8943C209.183 86.1065 208.904 86.377 208.687 86.6909C208.258 87.3308 208.03 88.0755 208.032 88.8356C208.035 88.8429 208.035 88.8509 208.032 88.8582C207.794 89.0494 207.54 89.222 207.273 89.3742C207.009 89.5304 206.735 89.6698 206.461 89.8054C205.905 90.0679 205.333 90.2981 204.749 90.4946C204.167 90.6998 203.565 90.8599 202.974 91.0143C202.674 91.0877 202.372 91.1517 202.07 91.2214C201.768 91.2911 201.506 91.293 201.196 91.3325ZM201.086 91.3325C201.38 91.2553 201.719 91.1593 202.039 91.1065C202.358 91.0538 202.63 90.9766 202.94 90.9051C203.532 90.7544 204.123 90.5981 204.715 90.3985C205.298 90.2065 205.867 89.9808 206.421 89.7225C206.697 89.5888 206.969 89.4532 207.232 89.2988C207.495 89.1537 207.745 88.9887 207.981 88.8055L207.969 88.8281C207.964 88.0564 208.192 87.2995 208.624 86.6476C208.844 86.3236 209.128 86.0435 209.46 85.8228C209.791 85.6075 210.158 85.4477 210.545 85.3502C211.322 85.1263 212.153 85.1368 212.924 85.3803C213.692 85.6361 214.362 86.1049 214.849 86.7266L214.746 86.7549C214.781 86.1061 214.947 85.4699 215.235 84.8813C215.518 84.2904 215.938 83.7684 216.462 83.3542C216.983 82.9426 217.587 82.6387 218.237 82.4616C218.888 82.2853 219.561 82.1959 220.237 82.1961C220.913 82.1791 221.588 82.2475 222.245 82.3995C222.907 82.5551 223.531 82.8327 224.081 83.2167C224.629 83.6042 225.09 84.0928 225.436 84.6534C225.784 85.2098 226.021 85.8236 226.132 86.463L226.04 86.431C226.4 86.1452 226.798 85.9053 227.223 85.7173C227.644 85.5255 228.086 85.382 228.542 85.2899C229.458 85.1111 230.406 85.1466 231.304 85.3935C231.754 85.513 232.185 85.6924 232.584 85.9264C232.981 86.1642 233.338 86.4603 233.639 86.8038C234.237 87.4973 234.611 88.3419 234.716 89.2348L234.674 89.1877L242.958 91.2835C242.972 91.2871 242.984 91.2958 242.992 91.3078C242.999 91.3198 243.001 91.3341 242.998 91.3476C242.994 91.359 242.987 91.369 242.977 91.3762C242.967 91.3833 242.955 91.3872 242.942 91.3871C239.453 91.3871 235.968 91.3702 232.477 91.3871L221.979 91.4059L211.374 91.4285H208.705L206.048 91.4154L203.421 91.3928C202.551 91.3796 201.727 91.3626 201.078 91.3419L201.086 91.3325Z" fill="#15181A"/>
</g>
<defs>
<clipPath id="clip0_355_11864">
<rect width="243" height="130" fill="white" transform="translate(0 0.5)"/>
</clipPath>
</defs>
</svg>
