<svg width="243" height="131" viewBox="0 0 243 131" fill="none" xmlns="http://www.w3.org/2000/svg">
<g clip-path="url(#clip0_1_718)">
<mask id="mask0_1_718" style="mask-type:luminance" maskUnits="userSpaceOnUse" x="0" y="0" width="243" height="131">
<path d="M243 0.5H0V130.5H243V0.5Z" fill="white"/>
</mask>
<g mask="url(#mask0_1_718)">
<path fill-rule="evenodd" clip-rule="evenodd" d="M173.604 68.1176C173.604 75.4583 172.009 82.4263 169.149 88.6923C169.131 88.727 169.123 88.7616 169.105 88.7876C167.909 91.3963 166.488 93.8923 164.867 96.2323C163.22 98.6156 161.373 100.852 159.345 102.914C158.539 103.738 157.706 104.526 156.84 105.289C155.652 106.338 154.412 107.334 153.13 108.27C149.116 111.191 144.643 113.522 139.841 115.143C137.726 115.854 135.55 116.426 133.313 116.85C130.288 117.422 127.168 117.726 123.978 117.726C110.776 117.726 98.7698 112.569 89.8847 104.154C82.4731 97.1423 77.2201 87.8603 75.235 77.4256C74.6976 74.6003 74.4028 71.697 74.3682 68.7243C74.3682 68.525 74.3682 68.317 74.3682 68.1176C74.3682 59.971 76.3359 52.2836 79.8119 45.4976C80.1327 44.8736 80.4621 44.2583 80.8088 43.643C84.1462 37.767 88.6537 32.6363 94.0108 28.5716C97.0968 26.223 100.477 24.2383 104.066 22.661C110.16 19.983 116.895 18.501 123.986 18.501C132.993 18.501 141.436 20.9016 148.717 25.0963C150.72 26.249 152.635 27.5403 154.447 28.953C157.594 31.4056 160.446 34.231 162.916 37.351C163.358 37.9056 163.783 38.469 164.199 39.0496C165.482 40.8176 166.644 42.6723 167.684 44.605C171.463 51.6076 173.604 59.6156 173.604 68.1176Z" fill="#2B2933"/>
<path fill-rule="evenodd" clip-rule="evenodd" d="M153.563 112.629C153.451 112.681 153.338 112.733 153.216 112.785C153.104 112.837 152.982 112.889 152.87 112.941C152.757 112.993 152.636 113.045 152.523 113.089C152.419 113.132 152.306 113.175 152.202 113.219C151.942 113.323 151.673 113.427 151.413 113.531C151.318 113.565 151.223 113.6 151.119 113.635C150.997 113.678 150.885 113.721 150.763 113.756C150.659 113.791 150.547 113.825 150.434 113.869C150.399 113.877 150.373 113.886 150.339 113.895C150.243 113.929 150.139 113.955 150.044 113.99C149.922 114.025 149.801 114.059 149.688 114.103C149.567 114.137 149.446 114.172 149.324 114.207C149.229 114.233 149.134 114.259 149.03 114.285C148.986 114.293 148.943 114.311 148.891 114.319C148.822 114.337 148.744 114.354 148.674 114.371C148.631 114.38 148.588 114.389 148.553 114.406C148.327 114.467 148.102 114.519 147.868 114.571C147.764 114.597 147.669 114.614 147.565 114.64C147.53 114.649 147.487 114.657 147.452 114.666C147.348 114.683 147.244 114.709 147.14 114.727C147.019 114.753 146.897 114.77 146.776 114.796C146.654 114.813 146.533 114.839 146.42 114.857C146.282 114.883 146.134 114.9 145.996 114.926C145.9 114.943 145.805 114.952 145.718 114.969C145.484 115.004 145.25 115.03 145.016 115.056C144.964 115.065 144.903 115.065 144.851 115.073C144.765 115.082 144.669 115.091 144.583 115.099C144.513 115.108 144.444 115.108 144.383 115.117C144.323 115.125 144.253 115.125 144.193 115.134C144.097 115.143 144.011 115.151 143.915 115.151C143.863 115.16 143.811 115.16 143.759 115.16C143.673 115.169 143.586 115.169 143.499 115.177C143.23 115.195 142.962 115.203 142.702 115.212C142.598 115.212 142.494 115.221 142.39 115.221C141.549 115.238 140.708 115.203 139.867 115.143C137.752 115.853 135.576 116.425 133.34 116.85C130.314 117.422 127.194 117.725 124.004 117.725C110.802 117.725 98.7961 112.569 89.9109 104.153C82.4994 97.1419 77.2463 87.8599 75.2613 77.4252L74.4551 69.3305L74.3944 68.7239L72.1493 46.2599L79.8382 45.4885L89.5728 44.5265L93.1616 44.1712L93.3349 44.1539L99.9229 43.4952L111.443 42.3425L144.487 39.0405L146.186 38.8672L146.212 39.1359L148.466 61.7039L148.492 61.9465L148.778 64.8239L148.96 66.6439L150.382 80.8919L150.503 82.0705L150.798 85.0432L153.06 107.698L153.121 108.287L153.563 112.629Z" fill="#57A1D7"/>
<path fill-rule="evenodd" clip-rule="evenodd" d="M166.973 38.1514L167.978 39.1971L167.684 44.6051L166.002 75.4324L165.863 77.989L165.438 85.8324L164.875 96.2324L161.798 103.486L164.355 105.8L164.303 106.806L163.878 114.632L158.703 109.458C158.599 109.536 158.495 109.622 158.391 109.7C158.296 109.77 158.2 109.848 158.105 109.917C158.105 109.926 158.096 109.926 158.096 109.926C157.992 110.004 157.897 110.073 157.793 110.142C157.672 110.229 157.541 110.316 157.42 110.402C157.359 110.446 157.299 110.489 157.238 110.532C156.848 110.801 156.449 111.052 156.042 111.304C155.903 111.382 155.773 111.468 155.634 111.546C155.53 111.607 155.418 111.668 155.314 111.728C155.262 111.763 155.201 111.789 155.149 111.824C155.071 111.867 154.993 111.91 154.915 111.954C154.82 112.006 154.724 112.058 154.62 112.11C154.386 112.231 154.152 112.352 153.909 112.474C153.805 112.526 153.693 112.578 153.589 112.63H153.58C153.467 112.682 153.355 112.734 153.233 112.786C153.121 112.838 152.999 112.89 152.887 112.942C152.774 112.994 152.653 113.046 152.54 113.089C152.436 113.132 152.323 113.176 152.219 113.219C151.959 113.323 151.69 113.427 151.43 113.531C151.335 113.566 151.24 113.6 151.136 113.635C151.014 113.678 150.901 113.722 150.78 113.756C150.676 113.791 150.563 113.826 150.451 113.869C150.416 113.878 150.39 113.886 150.355 113.895C150.26 113.93 150.156 113.956 150.061 113.99C149.939 114.025 149.818 114.06 149.705 114.103C149.584 114.138 149.463 114.172 149.341 114.207C149.246 114.233 149.15 114.259 149.046 114.285C149.003 114.294 148.96 114.311 148.908 114.32C148.838 114.337 148.76 114.354 148.691 114.372C148.648 114.38 148.604 114.389 148.57 114.406C148.344 114.467 148.119 114.519 147.885 114.571C147.781 114.597 147.685 114.614 147.581 114.64C147.547 114.649 147.503 114.658 147.469 114.666C147.365 114.684 147.261 114.71 147.157 114.727C147.035 114.753 146.914 114.77 146.793 114.796C146.671 114.814 146.55 114.84 146.437 114.857C146.299 114.883 146.151 114.9 146.012 114.926C145.917 114.944 145.822 114.952 145.735 114.97C145.501 115.004 145.267 115.03 145.033 115.056C144.981 115.065 144.92 115.065 144.868 115.074C144.782 115.082 144.686 115.091 144.6 115.1C144.53 115.108 144.461 115.108 144.4 115.117C144.339 115.126 144.27 115.126 144.209 115.134C144.114 115.143 144.027 115.152 143.932 115.152C143.88 115.16 143.828 115.16 143.776 115.16C143.689 115.169 143.603 115.169 143.516 115.178C143.247 115.195 142.979 115.204 142.718 115.212C142.614 115.212 142.51 115.221 142.406 115.221C141.566 115.238 140.725 115.204 139.884 115.143C137.769 115.854 135.593 116.426 133.357 116.85C130.331 117.422 127.211 117.726 124.021 117.726C110.819 117.726 98.8129 112.569 89.9277 104.154L90.2138 98.8931V98.8584L91.9215 67.5977L93.1957 44.1631L93.2911 42.4037L93.7678 33.5811L100.339 33.9364L148.968 36.5884L154.1 36.8657L162.951 37.3511L166.418 37.5417L166.973 38.1514Z" fill="#57A1D7"/>
<g style="mix-blend-mode:darken" opacity="0.1">
<path fill-rule="evenodd" clip-rule="evenodd" d="M169.148 88.6916C168.922 93.545 167.605 98.3983 164.952 102.524C164.805 102.766 161.624 102.931 161.468 103.165C166.27 107.126 164.744 106.302 160.427 111.19C159.058 109.873 158.928 108.928 157.22 110.532C150.207 115.931 141.296 114.414 133.321 116.85C119.712 112.56 111.633 96.4656 116.14 83.145C124.306 55.1603 166.937 59.5283 169.148 88.6916Z" fill="black"/>
</g>
<path fill-rule="evenodd" clip-rule="evenodd" d="M148.501 61.9474L137.839 63.0048L129.699 63.8194L106.615 66.1248L91.9831 67.5894L91.8877 67.5981L89.6859 67.8148L74.4295 69.3401L74.3688 68.7334L71.9503 44.5361L80.8181 43.6521L93.2573 42.4041L100.027 41.7281L100.114 41.7194L133.158 38.4261L146.022 37.1348L146.221 39.1368L148.484 61.7048L148.501 61.9474Z" fill="#57A1D7"/>
<g style="mix-blend-mode:darken" opacity="0.1">
<path fill-rule="evenodd" clip-rule="evenodd" d="M93.4375 42.3848L89.5627 42.7748L89.8748 104.135L93.4375 42.3848Z" fill="black"/>
</g>
<path fill-rule="evenodd" clip-rule="evenodd" d="M167.987 39.1976L167.692 44.6056L166.01 75.4329L165.438 85.8329L164.389 85.7809L149.956 84.9923L144.92 84.7149L119.894 83.3543L115.239 83.0943L91.1671 81.7856H91.1064L91.8866 67.5983L93.2562 42.4043L94.0104 28.5809L94.3658 22.1416L104.066 22.6703L148.717 25.1056L154.611 25.4263L167.987 39.1976Z" fill="#57A1D7"/>
<path d="M100.426 31.8164L100.163 36.6191L148.79 39.2712L149.052 34.4685L100.426 31.8164Z" fill="#D9D9D9"/>
<path d="M100.029 41.7207L99.7672 46.5234L129.23 48.1304L129.492 43.3276L100.029 41.7207Z" fill="#D9D9D9"/>
<path d="M99.436 60.9179L99.174 65.7207L146.008 68.2747L146.27 63.4719L99.436 60.9179Z" fill="#D9D9D9"/>
<path d="M99.0965 72.4248L98.8345 77.2275L112.908 77.995L113.17 73.1922L99.0965 72.4248Z" fill="#D9D9D9"/>
<path fill-rule="evenodd" clip-rule="evenodd" d="M173.759 119.867C172.476 121.15 170.387 121.15 169.096 119.867L163.86 114.633L157.688 108.462C156.83 107.604 156.544 106.382 156.839 105.29C156.873 105.143 156.925 105.004 156.986 104.865C157.142 104.484 157.385 104.12 157.697 103.808C158.009 103.496 158.373 103.262 158.754 103.097C158.945 103.019 159.144 102.959 159.344 102.915C160.393 102.699 161.537 102.993 162.352 103.808L163.34 104.796L164.337 105.801L173.751 115.213C175.051 116.496 175.051 118.585 173.759 119.867Z" fill="#614B98"/>
<path fill-rule="evenodd" clip-rule="evenodd" d="M169.113 88.3194C168.194 122.223 119.044 124.511 114.936 90.8934C112.205 53.2367 168.194 50.4287 169.113 88.3194Z" fill="#614B98"/>
<path d="M141.956 110.609C154.408 110.609 164.502 100.517 164.502 88.0674C164.502 75.6178 154.408 65.5254 141.956 65.5254C129.504 65.5254 119.409 75.6178 119.409 88.0674C119.409 100.517 129.504 110.609 141.956 110.609Z" fill="#D9D9D9"/>
<path d="M150.512 82.0608C150.504 81.6534 150.469 81.2634 150.391 80.8821C150.114 79.3741 149.36 78.0568 148.111 76.9128C146.542 75.4828 144.453 74.7461 141.827 74.7461C139.339 74.7461 137.345 75.4308 135.828 76.7741C134.727 77.7448 133.938 79.0188 133.47 80.6048C133.063 81.9741 133.999 83.3781 135.412 83.5428C136.53 83.6728 137.588 82.9794 137.9 81.9048C138.177 80.9688 138.576 80.2408 139.122 79.7208C139.859 79.0361 140.778 78.6981 141.87 78.6981C143.014 78.6981 143.976 79.0708 144.765 79.8334C145.537 80.5788 145.927 81.4454 145.927 82.4334C145.927 82.9534 145.805 83.4388 145.554 83.8808C145.415 84.1234 145.199 84.4008 144.904 84.7128C144.575 85.0681 144.158 85.4668 143.647 85.9174C142.555 86.8794 141.809 87.6161 141.385 88.1188C140.778 88.8554 140.336 89.5834 140.067 90.3028C139.703 91.2388 139.512 92.3568 139.512 93.6481C139.512 94.5494 140.249 95.2861 141.151 95.2861H142.286C143.162 95.2861 143.881 94.6014 143.924 93.7261C143.959 93.0241 144.028 92.4781 144.124 92.1141C144.245 91.6634 144.427 91.2648 144.687 90.9181C144.973 90.5281 145.589 89.9214 146.525 89.0894C148.077 87.7114 149.117 86.5328 149.646 85.5708C149.75 85.3801 149.845 85.1894 149.932 84.9901C150.304 84.1321 150.495 83.2134 150.495 82.2341C150.512 82.1734 150.512 82.1214 150.512 82.0608ZM141.809 96.4734C140.457 96.4734 139.356 97.5741 139.356 98.9261C139.356 100.287 140.457 101.379 141.809 101.379C143.17 101.379 144.263 100.278 144.263 98.9261C144.263 97.5741 143.162 96.4734 141.809 96.4734Z" fill="#614B98"/>
<g style="mix-blend-mode:darken" opacity="0.1">
<path fill-rule="evenodd" clip-rule="evenodd" d="M167.987 39.1971L164.199 39.0584L153.979 38.6771L154.447 28.9531L154.611 25.4258L167.987 39.1971Z" fill="black"/>
</g>
<path d="M0.18854 23.0774C1.94195 23.0409 3.40313 23.0135 4.79203 23.0044L8.93361 22.9678L13.0186 22.9466H17.1036L33.5097 22.9831L50.0885 23.0135C55.6253 23.0135 61.1715 23.0135 66.7146 23.0135L66.6925 23.1808L53.4948 19.7983C53.477 19.7929 53.4611 19.7826 53.4494 19.7685C53.4376 19.7544 53.4305 19.7372 53.4288 19.7192C53.2133 18.3293 52.6152 17.0212 51.6974 15.9322C51.2357 15.3967 50.6908 14.9339 50.0823 14.5603C49.4678 14.1906 48.8024 13.9069 48.1057 13.7177C46.7086 13.3237 45.2336 13.2632 43.8071 13.5413C42.382 13.8141 41.045 14.4128 39.9074 15.2873C39.8905 15.3029 39.868 15.3116 39.8446 15.3116C39.8212 15.3116 39.7987 15.3029 39.7817 15.2873C39.7723 15.2746 39.7659 15.2601 39.7629 15.2447C39.3158 13.2408 38.1406 11.4588 36.4509 10.2227C35.6082 9.62687 34.6558 9.19223 33.6448 8.94212C32.6257 8.69704 31.5775 8.5835 30.5276 8.60448C29.4818 8.60125 28.4405 8.73634 27.4324 9.006C26.4228 9.27299 25.482 9.7413 24.6703 10.3809C23.8729 11.045 23.2224 11.8584 22.758 12.7722C22.2936 13.6859 22.0248 14.6811 21.9679 15.698C21.9671 15.7095 21.964 15.7209 21.9587 15.7313C21.9533 15.7417 21.9459 15.751 21.9369 15.7586C21.9278 15.7662 21.9173 15.7721 21.9059 15.7758C21.8945 15.7794 21.8825 15.7809 21.8705 15.7801C21.8573 15.7784 21.8445 15.774 21.8331 15.7672C21.8218 15.7604 21.812 15.7513 21.8045 15.7405C21.0527 14.7621 20.0183 14.0212 18.8319 13.6113C17.6349 13.2233 16.3434 13.202 15.1334 13.5504C14.5258 13.7011 13.9496 13.9522 13.4303 14.2926C12.9123 14.6353 12.4683 15.0723 12.1231 15.5793C11.4385 16.6131 11.0763 17.816 11.0798 19.0439C11.0844 19.0557 11.0844 19.0687 11.0798 19.0804C10.7004 19.3893 10.2958 19.6681 9.87002 19.9139C9.44895 20.1664 9.01217 20.3914 8.57538 20.6105C7.69029 21.0346 6.77944 21.4064 5.84785 21.7238C4.92087 22.0553 3.96246 22.3139 3.01977 22.5633C2.54213 22.6819 2.06136 22.7853 1.58059 22.8979C1.09981 23.0104 0.681884 23.0135 0.18854 23.0774ZM0.0125668 23.0774C0.480772 22.9526 1.02125 22.7975 1.53031 22.7123C2.03936 22.6272 2.473 22.5025 2.96635 22.3869C3.90904 22.1435 4.85174 21.8911 5.79444 21.5686C6.72256 21.2584 7.63028 20.8938 8.51254 20.4766C8.95246 20.2606 9.3861 20.0416 9.80403 19.7922C10.2233 19.5577 10.6226 19.2912 10.9981 18.9953L10.9793 19.0318C10.9712 17.7851 11.3333 16.5625 12.0225 15.5094C12.3734 14.986 12.8259 14.5335 13.3548 14.1771C13.8819 13.8293 14.4664 13.5711 15.0831 13.4136C16.3214 13.0519 17.6448 13.0689 18.8728 13.4622C20.0959 13.8755 21.1638 14.6328 21.9397 15.6371L21.7763 15.6827C21.832 14.6347 22.0967 13.607 22.5556 12.6562C23.0066 11.7017 23.6747 10.8584 24.5101 10.1893C25.3396 9.52452 26.3026 9.03357 27.3382 8.74745C28.3747 8.46264 29.447 8.3183 30.5245 8.31856C31.6011 8.2911 32.6767 8.40156 33.7234 8.64707C34.7781 8.89843 35.7718 9.34688 36.6489 9.96721C37.5217 10.5932 38.2558 11.3824 38.8076 12.2881C39.3627 13.1869 39.7389 14.1784 39.9169 15.2113L39.7692 15.1596C40.3435 14.6979 40.9772 14.3104 41.6546 14.0067C42.3246 13.6968 43.0303 13.465 43.7568 13.3162C45.2156 13.0274 46.7251 13.0848 48.156 13.4835C48.8741 13.6766 49.5606 13.9664 50.1954 14.3444C50.8291 14.7286 51.3964 15.2069 51.8765 15.7618C52.8297 16.8821 53.4258 18.2464 53.5922 19.6888L53.5262 19.6127L66.724 22.9983C66.7464 23.004 66.7656 23.0181 66.7774 23.0374C66.7892 23.0568 66.7926 23.0799 66.7868 23.1017C66.7814 23.1202 66.7698 23.1364 66.7539 23.1479C66.738 23.1595 66.7187 23.1657 66.6988 23.1656C61.1401 23.1656 55.5876 23.1382 50.0257 23.1656L33.2991 23.196L16.4029 23.2325H12.1513L7.91864 23.2112L3.73307 23.1747C2.34731 23.1534 1.03382 23.126 0 23.0926L0.0125668 23.0774Z" fill="#15181A"/>
<path d="M201.196 91.3323C202.297 91.3097 203.214 91.2928 204.086 91.2871L206.685 91.2645L209.249 91.2513H211.813L222.111 91.2739L232.517 91.2928C235.992 91.2928 239.473 91.2928 242.952 91.2928L242.938 91.3963L234.655 89.3024C234.643 89.2991 234.634 89.2927 234.626 89.2839C234.619 89.2752 234.614 89.2646 234.613 89.2534C234.478 88.393 234.103 87.5833 233.526 86.9091C233.237 86.5776 232.895 86.2911 232.513 86.0599C232.127 85.831 231.709 85.6553 231.272 85.5383C230.395 85.2943 229.469 85.2569 228.574 85.429C227.68 85.5979 226.84 85.9685 226.126 86.5099C226.116 86.5196 226.102 86.525 226.087 86.525C226.072 86.525 226.058 86.5196 226.048 86.5099C226.042 86.502 226.038 86.493 226.036 86.4835C225.755 85.243 225.017 84.1398 223.957 83.3747C223.428 83.0058 222.83 82.7367 222.196 82.5819C221.556 82.4302 220.898 82.3599 220.239 82.3729C219.583 82.3709 218.929 82.4545 218.296 82.6215C217.663 82.7867 217.072 83.0766 216.563 83.4726C216.062 83.8837 215.654 84.3872 215.362 84.9529C215.071 85.5185 214.902 86.1346 214.867 86.7641C214.866 86.7713 214.864 86.7783 214.861 86.7847C214.857 86.7912 214.853 86.7969 214.847 86.8017C214.841 86.8064 214.835 86.81 214.828 86.8123C214.82 86.8145 214.813 86.8155 214.805 86.8149C214.797 86.8139 214.789 86.8112 214.782 86.807C214.775 86.8027 214.769 86.7971 214.764 86.7905C214.292 86.1848 213.643 85.7261 212.898 85.4723C212.147 85.2321 211.336 85.219 210.577 85.4347C210.195 85.528 209.834 85.6834 209.508 85.8941C209.183 86.1063 208.904 86.3768 208.687 86.6907C208.258 87.3306 208.03 88.0753 208.032 88.8354C208.035 88.8427 208.035 88.8507 208.032 88.858C207.794 89.0492 207.54 89.2218 207.273 89.374C207.009 89.5303 206.735 89.6696 206.461 89.8052C205.905 90.0677 205.333 90.2979 204.749 90.4944C204.167 90.6996 203.565 90.8597 202.974 91.0141C202.674 91.0875 202.372 91.1515 202.07 91.2212C201.768 91.2909 201.506 91.2928 201.196 91.3323ZM201.086 91.3323C201.38 91.2551 201.719 91.1591 202.039 91.1063C202.358 91.0536 202.63 90.9764 202.94 90.9049C203.532 90.7542 204.123 90.5979 204.715 90.3983C205.298 90.2063 205.867 89.9806 206.421 89.7223C206.697 89.5886 206.969 89.453 207.232 89.2986C207.495 89.1535 207.745 88.9885 207.981 88.8053L207.969 88.8279C207.964 88.0562 208.192 87.2993 208.624 86.6474C208.844 86.3234 209.128 86.0433 209.46 85.8226C209.791 85.6073 210.158 85.4475 210.545 85.35C211.322 85.1261 212.153 85.1366 212.924 85.3801C213.692 85.6359 214.362 86.1047 214.849 86.7264L214.746 86.7547C214.781 86.1059 214.947 85.4697 215.235 84.8811C215.518 84.2902 215.938 83.7682 216.462 83.354C216.983 82.9424 217.587 82.6385 218.237 82.4614C218.888 82.2851 219.561 82.1957 220.237 82.1959C220.913 82.1789 221.588 82.2473 222.245 82.3993C222.907 82.5549 223.531 82.8325 224.081 83.2165C224.629 83.604 225.09 84.0926 225.436 84.6532C225.784 85.2096 226.021 85.8234 226.132 86.4628L226.04 86.4308C226.4 86.145 226.798 85.9051 227.223 85.7171C227.644 85.5253 228.086 85.3818 228.542 85.2897C229.458 85.1109 230.406 85.1464 231.304 85.3933C231.754 85.5128 232.185 85.6922 232.584 85.9262C232.981 86.164 233.338 86.4601 233.639 86.8036C234.237 87.4971 234.611 88.3417 234.716 89.2346L234.674 89.1875L242.958 91.2833C242.972 91.2869 242.984 91.2956 242.992 91.3076C242.999 91.3196 243.001 91.3339 242.998 91.3474C242.994 91.3588 242.987 91.3688 242.977 91.376C242.967 91.3831 242.955 91.387 242.942 91.3869C239.453 91.3869 235.968 91.37 232.477 91.3869L221.979 91.4057L211.374 91.4283H208.705L206.048 91.4152L203.421 91.3926C202.551 91.3794 201.727 91.3624 201.078 91.3417L201.086 91.3323Z" fill="#15181A"/>
</g>
</g>
<defs>
<clipPath id="clip0_1_718">
<rect width="243" height="130" fill="white" transform="translate(0 0.5)"/>
</clipPath>
</defs>
</svg>
