<svg width="320" height="179" viewBox="0 0 320 179" fill="none" xmlns="http://www.w3.org/2000/svg">
<g clip-path="url(#clip0_1_688)">
<mask id="mask0_1_688" style="mask-type:luminance" maskUnits="userSpaceOnUse" x="0" y="0" width="320" height="179">
<path d="M320 0.5H0V178.5H320V0.5Z" fill="white"/>
</mask>
<g mask="url(#mask0_1_688)">
<mask id="mask1_1_688" style="mask-type:luminance" maskUnits="userSpaceOnUse" x="0" y="0" width="320" height="179">
<path d="M320 0.5H0V178.5H320V0.5Z" fill="white"/>
</mask>
<g mask="url(#mask1_1_688)">
<path d="M91.6481 102.027C95.9918 102.027 99.513 98.5012 99.513 94.1521C99.513 89.803 95.9918 86.2773 91.6481 86.2773C87.3044 86.2773 83.7832 89.803 83.7832 94.1521C83.7832 98.5012 87.3044 102.027 91.6481 102.027Z" fill="#57A1D7"/>
<path d="M90.5749 115.902C91.0582 117.456 91.2285 119.09 91.0761 120.711C90.9236 122.331 90.4514 123.905 89.6868 125.341C88.9222 126.777 87.8805 128.047 86.622 129.078C85.3635 130.108 83.9132 130.877 82.3553 131.342C80.7975 131.807 79.163 131.957 77.5467 131.784C75.9303 131.612 74.3643 131.119 72.9394 130.336C71.5144 129.553 70.259 128.494 69.2458 127.222C68.2326 125.949 67.4819 124.487 67.0371 122.922C67.0371 122.922 70.3011 121.947 71.8798 116.194C72.79 112.897 72.342 97.6816 72.342 97.6816C72.342 97.6816 79.8869 110.27 82.1553 112.47C86.7562 116.899 90.5749 115.902 90.5749 115.902Z" fill="#57A1D7"/>
<path d="M212.915 153.495C216.143 153.41 219.372 153.438 222.593 153.438H232.271L241.949 153.488H246.792C248.407 153.431 250.024 153.502 251.628 153.701C251.651 153.706 251.672 153.72 251.687 153.74C251.701 153.759 251.708 153.784 251.706 153.808C251.702 153.827 251.692 153.845 251.679 153.859C251.665 153.873 251.647 153.882 251.628 153.886C250.021 154.073 248.401 154.133 246.785 154.064H241.949H232.271L222.579 154C219.35 154 216.129 154 212.9 153.865C212.852 153.861 212.807 153.839 212.774 153.804C212.741 153.768 212.723 153.721 212.723 153.673C212.723 153.648 212.728 153.624 212.737 153.601C212.747 153.579 212.762 153.558 212.78 153.542C212.798 153.525 212.819 153.512 212.842 153.504C212.865 153.496 212.89 153.493 212.915 153.495Z" fill="#4F4D56"/>
<path d="M201.686 62.5876C203.478 62.5164 204.58 62.5093 205.86 62.495L209.622 62.4523L217.096 62.3882C222.073 62.3882 226.987 62.3882 232.029 62.3882L247.119 62.4381C252.172 62.4381 257.233 62.4381 262.301 62.4381L262.265 62.8368C258.987 62.0607 255.666 61.5552 252.36 60.95L247.382 60.0671L242.404 59.227C242.367 59.2203 242.333 59.2035 242.305 59.1783C242.278 59.1531 242.258 59.1206 242.248 59.0846C241.588 56.7432 240.201 54.6732 238.287 53.175C236.338 51.7137 233.95 50.9603 231.517 51.039C229.086 51.0166 226.705 51.7207 224.676 53.061C222.653 54.4115 221.032 56.2834 219.983 58.4794C219.969 58.5087 219.95 58.5348 219.925 58.5557C219.9 58.5766 219.871 58.5919 219.84 58.6004C216.804 59.3124 213.803 60.0244 210.802 60.6794L201.686 62.5876ZM200.975 62.6659L210.326 60.3448C213.476 59.583 216.626 58.9208 219.741 58.2088L219.599 58.3298C220.675 56.0591 222.343 54.121 224.427 52.7193C226.525 51.3262 228.986 50.5833 231.503 50.5833C234.027 50.5066 236.503 51.287 238.528 52.7976C239.529 53.5635 240.388 54.4984 241.067 55.5602C241.763 56.6058 242.291 57.7542 242.632 58.9635L242.489 58.814L247.467 59.7752L252.445 60.7079C255.752 61.306 259.037 62.0038 262.4 62.431C262.426 62.4344 262.452 62.4431 262.474 62.4566C262.497 62.4701 262.516 62.488 262.531 62.5094C262.547 62.5307 262.558 62.555 262.563 62.5807C262.569 62.6064 262.569 62.633 262.564 62.6588C262.557 62.7066 262.533 62.7503 262.496 62.7817C262.46 62.8131 262.413 62.8302 262.365 62.8297C257.273 62.7917 252.177 62.7798 247.076 62.7941L231.702 62.8439C226.553 62.8439 221.334 62.8866 216.136 62.8439L208.363 62.7798L204.509 62.7371C203.165 62.7442 201.721 62.7371 200.975 62.6659Z" fill="#4F4D56"/>
<path d="M147.91 72.3496C144.134 68.9605 137.72 67.5436 135.203 70.4486L126.783 78.7576C124.422 81.4846 126.435 87.1094 131.285 91.3244C136.134 95.5395 141.951 96.7428 144.341 94.0158L151.658 84.7598C154.147 81.862 152.028 76.0663 147.91 72.3496Z" fill="#614B98"/>
<path d="M163.079 157.982C162.781 157.969 162.489 157.898 162.218 157.772C161.948 157.645 161.705 157.467 161.504 157.247C161.302 157.027 161.146 156.769 161.044 156.488C160.943 156.207 160.897 155.909 160.91 155.611L165.561 58.1738L169.387 58.3447L165.447 155.782C165.438 156.083 165.37 156.379 165.245 156.653C165.121 156.927 164.943 157.173 164.723 157.378C164.503 157.583 164.244 157.741 163.962 157.845C163.68 157.949 163.38 157.995 163.079 157.982Z" fill="#57A1D7"/>
<path d="M139.676 157.853C139.387 157.769 139.117 157.629 138.883 157.439C138.649 157.25 138.454 157.017 138.311 156.752C138.167 156.487 138.077 156.196 138.047 155.896C138.016 155.597 138.046 155.294 138.133 155.005L167.601 55.4961L171.278 56.5712L142.499 156.337C142.322 156.91 141.926 157.39 141.398 157.674C140.87 157.958 140.251 158.022 139.676 157.853Z" fill="#57A1D7"/>
<path d="M200.598 157.852C200.314 157.95 200.013 157.99 199.714 157.972C199.414 157.953 199.121 157.875 198.852 157.743C198.583 157.611 198.342 157.426 198.143 157.201C197.945 156.975 197.793 156.713 197.696 156.428L163.072 57.4604L166.692 56.2002L201.991 154.962C202.187 155.53 202.15 156.153 201.889 156.695C201.628 157.236 201.164 157.652 200.598 157.852Z" fill="#57A1D7"/>
<path d="M246.109 88.7885L228.331 74.5485C222.742 69.6642 211.556 73.7297 204.352 81.7326C197.796 89.0163 195.03 101.419 200.619 106.304L216.612 122.68C221.86 127.265 232.733 123.392 240.889 114.043C249.046 104.695 251.364 93.3453 246.109 88.7885ZM238.706 111.985C231.076 120.736 221.071 124.488 216.356 120.366C211.641 116.243 213.995 105.805 221.625 97.0548C229.256 88.3043 239.254 84.5592 243.968 88.6746C248.683 92.7899 246.329 103.199 238.706 111.95V111.985Z" fill="#614B98"/>
<path d="M231.287 105.748C235.028 101.455 236.109 96.2682 233.7 94.1636C231.292 92.059 226.306 93.8331 222.564 98.1262C218.822 102.419 217.742 107.606 220.15 109.71C222.559 111.815 227.545 110.041 231.287 105.748Z" fill="#4F4D56"/>
<path d="M222.343 73.5153C216.768 69.0083 186.987 45.8398 172.203 45.1919C157.419 44.544 138.56 72.0628 138.56 72.0628C138.56 72.0628 136.285 75.8008 140.274 79.5744C145.046 84.0814 148.807 82.7357 148.807 82.7357C148.807 82.7357 160 68.3675 167.702 70.5106C175.403 72.6538 201.344 100.977 201.344 100.977L222.343 73.5153Z" fill="#614B98"/>
<path d="M171.812 72.7628C168.918 70.9401 162.845 65.7211 166.401 55.4968C168.171 50.3846 173 44.8168 176.755 45.9845C179.117 46.7425 181.421 47.6754 183.645 48.7755C183.645 48.7755 183.787 43.6989 176.932 41.3351C174.799 40.6231 165.142 40.1532 159.787 52.7769C155.194 63.5993 159.965 69.9433 163.72 72.3C167.475 74.6567 171.812 72.7628 171.812 72.7628Z" fill="#57A1D7"/>
<path d="M219.222 94.6705C222.123 91.3651 225.628 88.6441 229.547 86.6534C231.521 85.6508 233.657 85.0071 235.855 84.7524C236.971 84.596 238.107 84.6687 239.194 84.9661C240.28 85.2636 241.295 85.7795 242.177 86.4825C242.973 87.2691 243.6 88.2105 244.02 89.2489C244.439 90.2872 244.642 91.4005 244.616 92.5203C244.612 94.7051 244.232 96.8729 243.492 98.9283C242.773 100.987 241.834 102.961 240.69 104.817C239.539 106.663 238.253 108.421 236.843 110.078C235.409 111.715 233.847 113.234 232.171 114.621C230.486 115.996 228.66 117.189 226.724 118.181C224.786 119.217 222.679 119.9 220.502 120.196C219.386 120.432 218.231 120.407 217.126 120.124C216.021 119.84 214.996 119.305 214.132 118.561C213.267 117.816 212.585 116.882 212.14 115.83C211.694 114.779 211.497 113.639 211.563 112.499C211.521 110.278 211.873 108.068 212.602 105.97C214.043 101.804 216.293 97.9635 219.222 94.6705ZM220.061 95.3825C218.684 97.0132 217.416 98.7329 216.264 100.53C215.135 102.338 214.203 104.262 213.483 106.269C212.747 108.254 212.369 110.353 212.367 112.471C212.276 113.519 212.43 114.573 212.818 115.551C213.206 116.529 213.816 117.402 214.601 118.102C215.386 118.802 216.322 119.308 217.337 119.582C218.352 119.855 219.416 119.887 220.445 119.676C222.57 119.423 224.634 118.794 226.539 117.818C234.233 113.754 240.15 106.982 243.151 98.8073C243.871 96.7864 244.218 94.6512 244.175 92.506C244.252 91.4492 244.08 90.389 243.674 89.4103C243.269 88.4316 242.64 87.5615 241.838 86.8696C241.037 86.1777 240.085 85.6832 239.058 85.4256C238.031 85.168 236.959 85.1544 235.926 85.386C233.823 85.6781 231.789 86.341 229.917 87.344C226.151 89.3812 222.807 92.1163 220.061 95.4039V95.3825ZM168.939 73.6736C171.45 80.5302 173.846 87.4295 176.264 94.3216L183.524 114.97L190.749 135.653L194.354 145.991C195.535 149.452 196.843 152.862 197.789 156.401C197.794 156.425 197.789 156.451 197.776 156.472C197.762 156.493 197.742 156.508 197.718 156.515C197.696 156.518 197.674 156.515 197.655 156.504C197.636 156.494 197.62 156.478 197.611 156.458C196.147 153.104 195.037 149.623 193.807 146.184L190.187 135.853L182.941 115.205L175.738 94.4854C173.334 87.5861 170.909 80.7011 168.627 73.7733C168.619 73.7509 168.615 73.7271 168.616 73.7033C168.618 73.6795 168.624 73.6563 168.634 73.6348C168.644 73.6133 168.658 73.594 168.676 73.5781C168.694 73.5622 168.714 73.5499 168.737 73.5419C168.759 73.534 168.783 73.5305 168.807 73.5318C168.83 73.533 168.854 73.5389 168.875 73.5492C168.897 73.5594 168.916 73.5738 168.932 73.5915C168.948 73.6092 168.96 73.6298 168.968 73.6523L168.939 73.6736ZM164.616 80.0033C164.545 86.3188 164.196 92.6128 163.905 98.9212L163.087 117.825L162.198 136.728L161.743 146.177L161.515 150.904C161.522 152.493 161.319 154.075 160.911 155.611C160.904 155.617 160.895 155.621 160.886 155.621C160.877 155.621 160.868 155.617 160.861 155.611C160.6 154.044 160.547 152.449 160.705 150.869L160.925 146.141L161.373 136.693L162.29 117.789L163.279 98.8927C163.627 92.5986 163.876 86.2903 164.41 80.0033C164.413 79.9782 164.426 79.9553 164.446 79.9394C164.466 79.9235 164.491 79.9158 164.516 79.9179C164.54 79.9176 164.564 79.9262 164.582 79.9419C164.6 79.9576 164.612 79.9794 164.616 80.0033ZM176.883 41.4414C176.022 41.2505 175.137 41.1905 174.258 41.2634C173.382 41.3235 172.513 41.4665 171.663 41.6906C169.967 42.1526 168.366 42.9119 166.934 43.9334C164.106 46.0655 161.897 48.914 160.534 52.1855C159.772 53.7768 159.19 55.4485 158.799 57.1695C158.387 58.8764 158.238 60.6365 158.358 62.3884C158.638 65.9049 160.291 69.1692 162.959 71.4736C162.999 71.5075 163.029 71.5526 163.044 71.6032C163.059 71.6538 163.059 71.7077 163.044 71.7584L150.756 113.453L144.598 134.3L141.519 144.724L139.976 149.943C139.457 151.673 138.931 153.411 138.283 155.105C138.269 155.152 138.237 155.192 138.194 155.215C138.15 155.239 138.099 155.244 138.052 155.23C138.005 155.216 137.966 155.183 137.942 155.14C137.919 155.096 137.914 155.045 137.928 154.998C138.305 153.225 138.81 151.481 139.35 149.744L140.893 144.532L143.986 134.115L150.166 113.275L162.554 71.5946L162.646 71.8865C161.151 70.7855 159.915 69.3694 159.025 67.7382C158.136 66.107 157.614 64.3003 157.498 62.4454C157.363 60.6054 157.517 58.7556 157.953 56.963C158.354 55.1801 158.955 53.4484 159.745 51.801C161.21 48.4212 163.546 45.4921 166.514 43.314C168.019 42.2708 169.709 41.5242 171.492 41.1139C173.282 40.6692 175.157 40.711 176.925 41.2349C176.939 41.2388 176.951 41.2456 176.962 41.2547C176.973 41.2639 176.982 41.2753 176.988 41.2881C176.994 41.3009 176.997 41.3148 176.997 41.329C176.998 41.3431 176.995 41.3572 176.989 41.3702C176.981 41.3962 176.963 41.418 176.939 41.4313C176.915 41.4445 176.888 41.4481 176.861 41.4414H176.883ZM197.789 103.877C196.965 103.127 196.304 102.216 195.847 101.199C195.391 100.182 195.149 99.0818 195.137 97.9671C195.073 95.752 195.406 93.5433 196.118 91.4452C197.555 87.2763 199.795 83.4302 202.71 80.1244C205.562 76.7557 209.061 73.9955 213 72.0076C214.986 71.0203 217.131 70.3935 219.336 70.1564C220.445 70.0187 221.57 70.1128 222.641 70.4327C223.712 70.7525 224.705 71.2912 225.558 72.0147C225.581 72.0374 225.593 72.0681 225.593 72.1001C225.593 72.1322 225.581 72.1629 225.558 72.1856C225.547 72.1965 225.535 72.2053 225.521 72.2112C225.507 72.2172 225.492 72.2203 225.476 72.2203C225.461 72.2203 225.446 72.2172 225.432 72.2112C225.418 72.2053 225.405 72.1965 225.394 72.1856C224.536 71.5736 223.564 71.1399 222.536 70.91C221.508 70.6801 220.444 70.6587 219.407 70.847C217.313 71.1613 215.291 71.8435 213.434 72.862C209.682 74.8994 206.331 77.6013 203.542 80.8364C202.139 82.4471 200.864 84.166 199.73 85.977L198.927 87.3654C198.671 87.8353 198.443 88.3124 198.216 88.7894C197.738 89.74 197.32 90.7197 196.964 91.7228C196.213 93.7103 195.813 95.8137 195.784 97.9386C195.732 98.9943 195.895 100.049 196.261 101.041C196.628 102.032 197.191 102.938 197.917 103.706C197.928 103.715 197.936 103.727 197.942 103.74C197.948 103.752 197.951 103.766 197.951 103.781C197.951 103.795 197.948 103.809 197.942 103.822C197.936 103.834 197.928 103.846 197.917 103.855C197.901 103.872 197.88 103.884 197.857 103.888C197.834 103.892 197.81 103.888 197.789 103.877ZM124.865 80.8221C124.162 81.775 123.865 82.9683 124.04 84.14C124.182 85.3144 124.537 86.453 125.085 87.5007C127.351 91.7381 131.102 94.9867 135.617 96.6214C136.727 97.0057 137.898 97.1866 139.073 97.1554C139.649 97.1577 140.22 97.0463 140.753 96.8276C141.286 96.6089 141.771 96.2873 142.18 95.8809C142.198 95.8622 142.22 95.8473 142.244 95.8371C142.267 95.8269 142.293 95.8217 142.319 95.8217C142.345 95.8217 142.37 95.8269 142.394 95.8371C142.418 95.8473 142.44 95.8622 142.458 95.8809C142.49 95.9173 142.507 95.9642 142.507 96.0126C142.507 96.0611 142.49 96.108 142.458 96.1444C141.59 97.0989 140.381 97.672 139.094 97.7393C137.843 97.8126 136.589 97.6532 135.396 97.2693C133.05 96.4805 130.882 95.2362 129.016 93.6076C127.15 91.9791 125.624 89.9982 124.523 87.7784C123.989 86.66 123.661 85.4538 123.556 84.2184C123.449 82.951 123.845 81.6924 124.659 80.7153C124.669 80.7032 124.682 80.6935 124.697 80.6868C124.712 80.6802 124.728 80.6768 124.744 80.6768C124.76 80.6768 124.776 80.6802 124.791 80.6868C124.805 80.6935 124.818 80.7032 124.829 80.7153C124.84 80.726 124.849 80.7387 124.855 80.7527C124.861 80.7668 124.864 80.7819 124.864 80.7972C124.864 80.8125 124.861 80.8276 124.855 80.8417C124.849 80.8557 124.84 80.8685 124.829 80.8791L124.865 80.8221ZM133.725 71.858C133.062 72.7797 132.781 73.9232 132.943 75.0478C133.096 76.1753 133.44 77.2685 133.96 78.2803C135.038 80.3022 136.485 82.1038 138.227 83.5918C139.954 85.0922 141.949 86.2518 144.107 87.0094C145.171 87.3899 146.292 87.5873 147.421 87.5932C148.562 87.618 149.671 87.2141 150.529 86.4612C150.537 86.4527 150.549 86.4479 150.561 86.4479C150.573 86.4479 150.584 86.4527 150.593 86.4612C150.601 86.4697 150.606 86.4812 150.606 86.4932C150.606 86.5052 150.601 86.5167 150.593 86.5252C150.21 86.9989 149.734 87.3887 149.195 87.6704C148.655 87.9521 148.064 88.1197 147.457 88.1628C146.257 88.2691 145.049 88.136 143.901 87.7712C141.616 87.0325 139.513 85.8194 137.729 84.2112C136.835 83.4183 136.009 82.5514 135.261 81.6196C134.524 80.6774 133.898 79.6523 133.398 78.5651C132.871 77.4767 132.557 76.2972 132.474 75.0905C132.421 74.4827 132.49 73.8705 132.677 73.2897C132.864 72.709 133.165 72.1714 133.562 71.7085C133.572 71.6964 133.584 71.6864 133.599 71.6791C133.613 71.6718 133.628 71.6673 133.644 71.666C133.66 71.6647 133.676 71.6665 133.691 71.6714C133.706 71.6762 133.72 71.684 133.732 71.6943C133.744 71.7046 133.754 71.7171 133.762 71.7313C133.769 71.7455 133.773 71.7609 133.775 71.7768C133.776 71.7926 133.774 71.8086 133.769 71.8238C133.765 71.8389 133.757 71.853 133.747 71.8652L133.725 71.858Z" fill="#4F4D56"/>
<path d="M138.78 73.1261C138.366 73.6836 138.187 74.3816 138.282 75.0699C138.373 75.7595 138.579 76.4288 138.894 77.0492C140.234 79.5346 142.449 81.4326 145.109 82.375C145.761 82.595 146.447 82.701 147.135 82.6883C147.803 82.6862 148.446 82.4319 148.934 81.9763C148.948 81.962 148.965 81.9508 148.983 81.9431C149.002 81.9353 149.021 81.9314 149.041 81.9314C149.061 81.9314 149.081 81.9353 149.099 81.9431C149.117 81.9508 149.134 81.962 149.148 81.9763C149.173 82.0048 149.187 82.0415 149.187 82.0795C149.187 82.1175 149.173 82.1542 149.148 82.1827C148.642 82.7301 147.943 83.0573 147.199 83.0941C146.458 83.1361 145.715 83.0395 145.009 82.8093C142.221 81.8522 139.922 79.834 138.609 77.1916C138.283 76.5228 138.088 75.7978 138.033 75.0556C137.972 74.3104 138.201 73.5703 138.673 72.9908C138.68 72.9831 138.689 72.9769 138.699 72.9726C138.709 72.9684 138.719 72.9662 138.73 72.9662C138.741 72.9662 138.751 72.9684 138.761 72.9726C138.771 72.9769 138.78 72.9831 138.787 72.9908C138.8 73.0053 138.808 73.0244 138.808 73.0442C138.808 73.064 138.8 73.0831 138.787 73.0976L138.78 73.1261ZM38.4776 43.3787C41.7203 43.3004 44.3158 43.2363 46.7407 43.2078L53.9585 43.1295L61.0696 43.0797H68.1238L82.2607 43.1509H96.6323L125.532 43.2292C135.182 43.2648 144.867 43.2292 154.538 43.2292L154.488 43.6279L131.462 37.519C131.422 37.5064 131.386 37.4821 131.36 37.4492C131.333 37.4162 131.317 37.3761 131.313 37.3338C130.922 34.8401 129.88 32.4943 128.291 30.5342C126.663 28.6054 124.488 27.2174 122.054 26.5542C119.626 25.8438 117.061 25.7339 114.581 26.2338C112.098 26.7285 109.77 27.8099 107.79 29.3879C107.751 29.4245 107.7 29.4449 107.647 29.4449C107.594 29.4449 107.543 29.4245 107.505 29.3879C107.484 29.3582 107.469 29.3242 107.462 29.2882C106.666 25.691 104.62 22.4939 101.688 20.2672C100.227 19.1953 98.573 18.4146 96.8172 17.9674C95.0483 17.5247 93.2286 17.3188 91.4056 17.3551C89.5801 17.3448 87.7618 17.5843 86.0012 18.0671C84.2491 18.5495 82.6152 19.3881 81.2012 20.5306C79.8213 21.7212 78.6933 23.1761 77.8836 24.8097C77.0739 26.4434 76.5989 28.2227 76.4865 30.043C76.4856 30.0698 76.4793 30.0962 76.468 30.1205C76.4567 30.1448 76.4406 30.1666 76.4207 30.1846C76.4008 30.2025 76.3774 30.2162 76.3521 30.2249C76.3267 30.2336 76.2999 30.2371 76.2732 30.2352C76.2421 30.2314 76.2122 30.2212 76.1853 30.2052C76.1584 30.1893 76.135 30.168 76.1167 30.1426C74.8104 28.3875 73.0139 27.0595 70.954 26.3263C68.8834 25.6309 66.6494 25.5887 64.554 26.2053C62.4172 26.7303 60.5502 28.0289 59.3132 29.8507C58.1115 31.7142 57.4697 33.884 57.4643 36.1021C57.4735 36.1274 57.4735 36.1551 57.4643 36.1804C56.1045 37.2684 54.6254 38.1976 53.0554 38.9501C51.509 39.7167 49.918 40.3896 48.2909 40.965C46.6767 41.5702 45.0198 42.0402 43.3558 42.4887C42.5238 42.7094 41.6776 42.8946 40.8456 43.101C40.062 43.2373 39.2714 43.33 38.4776 43.3787ZM38.0723 43.4143C38.9552 43.13 39.8524 42.8923 40.7603 42.7023C41.5923 42.5101 42.4314 42.325 43.2634 42.1185C44.9203 41.6842 46.5772 41.2285 48.1843 40.6446C49.8035 40.0861 51.3874 39.4299 52.9274 38.6795C54.4731 37.9506 55.9308 37.0476 57.2723 35.9882L57.2296 36.0807C57.205 33.8241 57.8268 31.6077 59.0216 29.6941C60.2846 27.8007 62.206 26.4454 64.4118 25.892C66.5795 25.2366 68.8963 25.2664 71.0465 25.9774C73.1897 26.7216 75.0619 28.0903 76.4225 29.9077L76.0527 30.0145C76.1415 28.1224 76.5955 26.2655 77.3896 24.5463C78.1669 22.8055 79.3292 21.2644 80.7887 20.0394C82.2493 18.831 83.9442 17.9388 85.7665 17.4192C87.5827 16.9036 89.4609 16.64 91.3487 16.636C93.2344 16.5841 95.1187 16.7828 96.9523 17.227C99.7442 17.8988 102.27 19.3949 104.202 21.5215C106.135 23.648 107.385 26.3067 107.79 29.153L107.455 29.0319C109.469 27.3653 111.859 26.2165 114.417 25.6854C116.975 25.1543 119.623 25.257 122.133 25.9846C124.679 26.6606 126.957 28.1018 128.661 30.1142C130.331 32.144 131.372 34.6191 131.654 37.2342L131.505 37.0562L154.581 43.2221C154.633 43.2355 154.679 43.2693 154.707 43.3159C154.735 43.3626 154.743 43.4184 154.73 43.4713C154.717 43.5139 154.69 43.5513 154.655 43.5781C154.619 43.605 154.576 43.6199 154.531 43.6208C144.824 43.5852 135.132 43.5496 125.411 43.5852L96.1772 43.6635H81.4927L66.5594 43.7276H59.0856L51.6545 43.6778L44.3443 43.5994C41.9549 43.5567 39.6723 43.4926 38.0723 43.4143ZM70.1149 147.722C75.5123 147.637 80.9096 147.665 86.3069 147.672H102.492L118.677 147.729H126.769C129.464 147.729 132.166 147.665 134.862 147.95C134.885 147.954 134.907 147.966 134.923 147.984C134.939 148.002 134.947 148.026 134.947 148.05C134.943 148.071 134.933 148.091 134.917 148.106C134.902 148.121 134.883 148.131 134.862 148.135C132.166 148.406 129.464 148.292 126.769 148.306H118.677H102.492L86.2998 148.235C80.9096 148.235 75.5123 148.235 70.1149 148.085C70.073 148.077 70.0352 148.054 70.0081 148.021C69.981 147.988 69.9661 147.947 69.9661 147.904C69.9661 147.861 69.981 147.82 70.0081 147.786C70.0352 147.753 70.073 147.731 70.1149 147.722ZM207.011 147.765C213.489 147.694 219.967 147.765 226.446 147.765L245.88 147.829L265.308 147.936L275.022 147.986C278.264 148.028 281.5 147.936 284.742 148.235C284.754 148.236 284.766 148.239 284.777 148.245C284.787 148.25 284.796 148.258 284.804 148.267C284.811 148.277 284.816 148.288 284.819 148.299C284.822 148.311 284.823 148.323 284.821 148.335C284.819 148.357 284.81 148.378 284.794 148.393C284.778 148.409 284.757 148.418 284.735 148.42C281.5 148.684 278.257 148.562 275.022 148.57H265.308L245.873 148.484L226.446 148.363C219.967 148.32 213.489 148.306 207.011 148.178C206.986 148.178 206.962 148.173 206.939 148.163C206.917 148.153 206.897 148.139 206.88 148.121C206.863 148.103 206.85 148.082 206.842 148.058C206.834 148.035 206.831 148.01 206.833 147.986C206.827 147.959 206.826 147.931 206.832 147.904C206.838 147.878 206.85 147.853 206.867 147.831C206.885 147.81 206.906 147.793 206.931 147.781C206.956 147.77 206.984 147.764 207.011 147.765ZM280.426 108.619H272.07C272.024 108.62 271.978 108.607 271.938 108.583C271.898 108.56 271.865 108.525 271.843 108.484C271.818 108.443 271.806 108.396 271.806 108.349C271.806 108.301 271.818 108.254 271.843 108.213L276.017 100.972C276.042 100.933 276.077 100.9 276.118 100.877C276.159 100.855 276.205 100.843 276.252 100.843C276.299 100.843 276.345 100.855 276.386 100.877C276.427 100.9 276.462 100.933 276.486 100.972L280.661 108.213C280.685 108.254 280.698 108.301 280.698 108.349C280.698 108.396 280.685 108.443 280.661 108.484C280.638 108.526 280.603 108.56 280.562 108.584C280.521 108.608 280.474 108.62 280.426 108.619ZM272.54 108.078H279.957L276.252 101.67L272.54 108.078ZM205.51 33.6101H197.155C197.108 33.6095 197.061 33.5968 197.02 33.5731C196.979 33.5494 196.945 33.5156 196.92 33.4748C196.899 33.4329 196.888 33.3865 196.888 33.3395C196.888 33.2925 196.899 33.2462 196.92 33.2042L201.102 25.9561C201.128 25.9179 201.163 25.8867 201.204 25.8651C201.245 25.8435 201.29 25.8322 201.336 25.8322C201.382 25.8322 201.428 25.8435 201.469 25.8651C201.51 25.8867 201.545 25.9179 201.571 25.9561L205.745 33.2042C205.77 33.2451 205.782 33.2919 205.782 33.3395C205.782 33.3872 205.77 33.4339 205.745 33.4748C205.722 33.5165 205.688 33.5512 205.647 33.575C205.605 33.5988 205.558 33.611 205.51 33.6101ZM197.624 33.069H205.041L201.336 26.661L197.624 33.069ZM93.0127 115.398C93.2407 115.897 93.4148 116.42 93.5318 116.957C93.5887 117.405 93.6243 117.804 93.674 118.224C93.7238 118.644 93.674 119.064 93.674 119.477C93.674 119.89 93.6172 120.31 93.5816 120.723C93.386 122.38 92.8768 123.985 92.0812 125.451C91.2904 126.918 90.2184 128.215 88.9266 129.267C87.6348 130.319 86.1484 131.105 84.5527 131.581C82.9569 132.058 81.283 132.214 79.6268 132.042C77.9706 131.869 76.3646 131.372 74.9007 130.577C71.9374 128.976 69.7208 126.273 68.7283 123.052C68.6954 122.942 68.705 122.824 68.755 122.721C68.8051 122.618 68.892 122.538 68.9985 122.496H69.0412C69.5113 122.312 69.9484 122.052 70.3354 121.727C70.7487 121.388 71.1274 121.009 71.466 120.595C72.1424 119.729 72.6908 118.77 73.0945 117.747C73.3079 117.238 73.493 116.717 73.6492 116.188C73.7274 115.924 73.77 115.661 73.8269 115.398L73.9478 114.579C74.0758 113.468 74.154 112.343 74.2109 111.218C74.4172 106.718 74.4172 102.19 74.3674 97.6901C74.3664 97.6764 74.3683 97.6627 74.3728 97.6498C74.3774 97.6368 74.3846 97.625 74.3939 97.615C74.4032 97.6049 74.4146 97.5969 74.4271 97.5915C74.4397 97.586 74.4532 97.5833 74.4669 97.5833C74.4851 97.5841 74.5028 97.589 74.5188 97.5976C74.5348 97.6063 74.5487 97.6184 74.5594 97.6331C76.97 101.471 79.4234 105.287 82.0332 108.975C82.6945 109.887 83.3558 110.812 84.074 111.645C84.8167 112.459 85.6575 113.176 86.5772 113.781C87.4765 114.386 88.4618 114.852 89.4998 115.163C90.0103 115.31 90.5345 115.406 91.0643 115.447C91.3223 115.465 91.5813 115.465 91.8394 115.447C91.9673 115.455 92.0955 115.455 92.2234 115.447H92.4012H92.4865H92.5292C92.5951 115.437 92.6623 115.437 92.7283 115.447C92.8193 115.414 92.9157 115.397 93.0127 115.398ZM92.4438 116.416C92.5056 116.457 92.5762 116.484 92.65 116.494C92.6995 116.503 92.75 116.503 92.7994 116.494H92.7354H92.6074H92.3727C92.2163 116.494 92.0598 116.494 91.9034 116.494C91.5968 116.503 91.2899 116.486 90.986 116.444C90.3864 116.378 89.7954 116.249 89.2225 116.06C88.0994 115.683 87.0397 115.138 86.0794 114.443C85.1208 113.768 84.249 112.976 83.4838 112.087C82.7727 111.175 82.1327 110.228 81.4927 109.281C79.0038 105.479 76.6927 101.578 74.3816 97.6545L74.5736 97.5975C74.7443 102.119 74.8652 106.64 74.7727 111.168C74.7727 112.3 74.6945 113.44 74.5949 114.579L74.4954 115.433C74.4385 115.725 74.3887 116.024 74.3176 116.302C74.1678 116.861 73.9898 117.412 73.7843 117.954C73.3775 119.05 72.8173 120.083 72.1203 121.022C71.3888 122.016 70.4073 122.797 69.2758 123.286L69.5887 122.71C70.0212 124.209 70.7468 125.607 71.7234 126.823C72.7 128.039 73.9081 129.049 75.2776 129.794C76.6443 130.546 78.1455 131.022 79.6957 131.193C81.2459 131.364 82.8146 131.228 84.3122 130.793C85.8098 130.357 87.2071 129.63 88.4242 128.654C89.6413 127.677 90.6543 126.471 91.4056 125.102C92.1419 123.728 92.5919 122.219 92.7283 120.666C92.7283 120.275 92.7283 119.89 92.7283 119.506C92.7283 119.121 92.6856 118.73 92.65 118.345L92.4509 117.22C92.3857 116.956 92.3833 116.681 92.4438 116.416Z" fill="#4F4D56"/>
<path d="M79.872 115.517C80.831 118.071 81.6127 120.688 82.2115 123.349C82.8373 125.998 83.3564 128.668 83.8115 131.359C84.2666 134.051 84.6293 136.742 84.8924 139.462C85.1773 142.184 85.2915 144.921 85.2339 147.657C85.2201 147.765 85.1673 147.865 85.0855 147.937C85.0037 148.009 84.8984 148.049 84.7893 148.049C84.6803 148.049 84.575 148.009 84.4932 147.937C84.4114 147.865 84.3586 147.765 84.3449 147.657C84.4347 144.961 84.354 142.262 84.1032 139.576C83.8685 136.877 83.5626 134.179 83.1786 131.502C82.7946 128.825 82.3111 126.148 81.7564 123.499C81.2261 120.842 80.5133 118.225 79.6231 115.667C79.6107 115.627 79.6133 115.584 79.6303 115.546C79.6473 115.508 79.6776 115.478 79.7155 115.46C79.7443 115.454 79.7743 115.456 79.802 115.466C79.8296 115.476 79.8539 115.494 79.872 115.517ZM103.168 125.023C103.204 125.218 103.204 125.418 103.168 125.614L103.054 126.432C103.054 126.71 103.054 126.988 103.019 127.265C102.983 127.543 103.054 127.821 103.068 128.091C103.268 130.04 104.137 131.859 105.527 133.238C106.917 134.617 108.741 135.47 110.69 135.652C112.638 135.833 114.589 135.332 116.209 134.234C117.829 133.135 119.018 131.508 119.573 129.629L119.879 130.199C119.044 129.833 118.323 129.25 117.788 128.511C117.276 127.824 116.867 127.066 116.572 126.261C116.423 125.863 116.302 125.457 116.188 125.058C116.139 124.852 116.103 124.631 116.06 124.417L115.989 123.791C115.925 122.958 115.89 122.139 115.876 121.32C115.819 118.031 115.918 114.763 116.06 111.495L116.281 111.566C114.624 114.414 112.939 117.205 111.125 119.953C110.656 120.665 110.201 121.32 109.703 121.975C109.15 122.619 108.517 123.188 107.819 123.67C107.126 124.171 106.361 124.562 105.55 124.83C105.137 124.967 104.71 125.057 104.277 125.101C104.057 125.119 103.836 125.119 103.616 125.101H103.282H103.111H103.026H102.976C103.009 125.106 103.043 125.106 103.076 125.101C103.113 125.084 103.145 125.057 103.168 125.023ZM102.784 124.311C102.841 124.288 102.901 124.274 102.962 124.268C103.006 124.26 103.052 124.26 103.097 124.268H103.189H103.317H103.595C103.784 124.279 103.974 124.279 104.164 124.268C104.547 124.239 104.927 124.168 105.294 124.054C106.053 123.829 106.772 123.488 107.428 123.043C108.092 122.609 108.699 122.092 109.234 121.505C109.753 120.9 110.222 120.231 110.699 119.569C112.576 116.892 114.34 114.129 116.075 111.345C116.093 111.319 116.121 111.3 116.153 111.294C116.185 111.287 116.218 111.293 116.245 111.309C116.262 111.32 116.276 111.335 116.286 111.352C116.296 111.37 116.302 111.389 116.302 111.409C116.302 114.677 116.302 117.952 116.452 121.199C116.494 122.018 116.558 122.83 116.651 123.62L116.736 124.211C116.786 124.396 116.814 124.581 116.871 124.773C116.992 125.151 117.113 125.528 117.269 125.891C117.564 126.612 117.959 127.288 118.443 127.899C118.683 128.191 118.953 128.458 119.246 128.697C119.514 128.919 119.817 129.097 120.142 129.223L120.213 129.259C120.311 129.304 120.389 129.383 120.433 129.481C120.478 129.579 120.485 129.69 120.455 129.793C120.104 130.968 119.525 132.063 118.751 133.014C117.978 133.965 117.024 134.754 115.946 135.336C114.867 135.918 113.685 136.281 112.466 136.405C111.247 136.529 110.016 136.411 108.843 136.059C107.083 135.529 105.519 134.488 104.35 133.069C103.18 131.65 102.457 129.915 102.272 128.084C102.272 127.778 102.229 127.479 102.222 127.173C102.215 126.867 102.222 126.568 102.265 126.261C102.308 125.955 102.343 125.671 102.4 125.35C102.494 125.001 102.623 124.663 102.784 124.339V124.311Z" fill="#4F4D56"/>
<path d="M112.518 124.503C111.843 126.368 111.267 128.269 110.705 130.199C110.143 132.128 109.646 134.029 109.198 135.966C108.75 137.902 108.366 139.846 108.046 141.79C107.704 143.722 107.538 145.681 107.548 147.643C107.548 147.762 107.501 147.876 107.417 147.96C107.333 148.044 107.219 148.091 107.1 148.091C106.981 148.091 106.867 148.044 106.783 147.96C106.699 147.876 106.652 147.762 106.652 147.643C106.626 145.617 106.809 143.593 107.199 141.605C107.548 139.633 108.017 137.689 108.515 135.752C109.522 131.883 110.761 128.079 112.227 124.36C112.242 124.322 112.272 124.29 112.31 124.274C112.348 124.257 112.391 124.256 112.43 124.271C112.468 124.286 112.499 124.316 112.516 124.354C112.533 124.392 112.534 124.435 112.518 124.474V124.503ZM94.4065 93.2316C95.4234 97.6887 96.1416 102.196 96.7816 106.71C97.4216 111.224 97.9407 115.759 98.3958 120.302C98.8509 124.844 99.2278 129.387 99.4767 133.944C99.7256 138.501 99.8963 143.064 99.7611 147.643C99.7593 147.702 99.7459 147.76 99.7217 147.813C99.6974 147.867 99.6629 147.915 99.6199 147.956C99.577 147.996 99.5266 148.028 99.4715 148.048C99.4164 148.069 99.3578 148.079 99.2989 148.077C99.2414 148.076 99.1845 148.064 99.1318 148.041C99.079 148.017 99.0314 147.984 98.9917 147.942C98.952 147.9 98.921 147.851 98.9005 147.797C98.88 147.743 98.8704 147.686 98.8723 147.628C98.9363 143.093 98.8083 138.543 98.5736 134.001C98.3389 129.458 98.0616 124.908 97.6705 120.373C97.2794 115.838 96.8314 111.302 96.2483 106.788C95.6652 102.274 95.0323 97.7599 94.1149 93.3099C94.1063 93.2703 94.1133 93.2289 94.1345 93.1944C94.1558 93.1599 94.1895 93.1349 94.2287 93.1248C94.2661 93.1193 94.3042 93.1269 94.3367 93.1464C94.3691 93.1659 94.3937 93.196 94.4065 93.2316Z" fill="#4F4D56"/>
<path d="M89.003 90.6342C92.5297 90.6342 95.3887 87.7716 95.3887 84.2404C95.3887 80.7093 92.5297 77.8467 89.003 77.8467C85.4762 77.8467 82.6172 80.7093 82.6172 84.2404C82.6172 87.7716 85.4762 90.6342 89.003 90.6342Z" fill="#57A1D7"/>
<path d="M96.1787 86.3037C96.1512 86.1072 96.1809 85.907 96.264 85.727L96.3423 85.5347C96.392 85.3994 96.4418 85.2713 96.4774 85.136C96.5607 84.866 96.6226 84.5898 96.6623 84.3101C96.7062 84.0323 96.7252 83.7511 96.7192 83.4699V83.0427L96.6694 82.6226C96.5091 81.4792 96.0142 80.4089 95.2472 79.5468C94.4854 78.661 93.4781 78.0217 92.3529 77.7098C91.2261 77.386 90.0309 77.386 88.904 77.7098C88.058 77.97 87.2774 78.4087 86.615 78.9964C85.9526 79.5841 85.4236 80.3071 85.0638 81.1167C84.7039 81.9264 84.5216 82.8038 84.529 83.69C84.5364 84.5761 84.7334 85.4504 85.1067 86.2538C85.6084 87.3197 86.3994 88.2227 87.3894 88.8598C87.4356 88.889 87.4683 88.9355 87.4803 88.9889C87.4923 89.0423 87.4826 89.0983 87.4534 89.1446C86.8009 90.1243 86.3845 91.2425 86.2372 92.4108C86.0899 93.5792 86.2156 94.7659 86.6045 95.8773C86.9933 96.9887 87.6347 97.9945 88.478 98.8154C89.3213 99.6363 90.3435 100.25 91.464 100.608C92.205 100.83 92.9733 100.947 93.7467 100.957C94.5179 100.943 95.2835 100.823 96.0223 100.601C97.4895 100.115 98.7744 99.1937 99.7058 97.9591C100.176 97.355 100.541 96.6763 100.787 95.9513C101.047 95.2289 101.189 94.4691 101.206 93.7014C101.252 92.1671 100.819 90.6567 99.9689 89.3795C99.5472 88.745 99.029 88.1804 98.4329 87.7063C98.1348 87.4718 97.8212 87.2577 97.4943 87.0655L96.9894 86.8021C96.6994 86.6705 96.4271 86.5031 96.1787 86.3037ZM97.096 85.9121C97.2383 85.9121 97.3023 85.8551 97.4089 85.9121L97.9707 86.2182C98.3402 86.4303 98.6942 86.6682 99.0303 86.9302C99.6935 87.475 100.269 88.1185 100.737 88.8384C101.684 90.2829 102.155 91.989 102.081 93.7156C102.05 94.5716 101.884 95.4174 101.59 96.2218C101.307 97.0281 100.891 97.7813 100.36 98.4504C99.3131 99.8046 97.8719 100.8 96.2356 101.298C95.4212 101.529 94.5787 101.644 93.7325 101.64C92.8862 101.623 92.0472 101.479 91.2436 101.213C90.0498 100.813 88.9648 100.141 88.0739 99.2499C87.183 98.3591 86.5103 97.2738 86.1086 96.079C85.707 94.8843 85.5873 93.6126 85.7589 92.3638C85.9305 91.1149 86.3888 89.9228 87.0978 88.8811L87.1618 89.1659C86.1314 88.4781 85.3154 87.5135 84.8072 86.3828C84.299 85.252 84.1192 84.0008 84.2884 82.7725C84.4576 81.5441 84.969 80.3883 85.7639 79.4376C86.5589 78.4868 87.6052 77.7794 88.7832 77.3966C89.9806 77.0229 91.2587 76.9922 92.4727 77.308C93.6867 77.6239 94.7882 78.2736 95.6525 79.1837C96.5276 80.1085 97.1263 81.2604 97.3805 82.5087L97.4658 82.9786L97.5014 83.4557C97.5334 83.7753 97.5334 84.0973 97.5014 84.4169C97.4778 84.7399 97.4327 85.0611 97.3663 85.3781C97.3663 85.5347 97.288 85.6914 97.2454 85.848L97.1743 86.083C97.1245 86.2396 97.2098 85.9975 97.096 85.9406V85.9121Z" fill="#4F4D56"/>
<path d="M65.807 70.249L61.6328 77.4972H69.9884L65.807 70.249Z" fill="#614B98"/>
<path d="M49.5573 70.249L45.3831 77.4972H53.7315L49.5573 70.249Z" fill="#614B98"/>
<path d="M57.6852 56.0225L53.5039 63.2635H61.8595L57.6852 56.0225Z" fill="#614B98"/>
</g>
</g>
</g>
<defs>
<clipPath id="clip0_1_688">
<rect width="320" height="178" fill="white" transform="translate(0 0.5)"/>
</clipPath>
</defs>
</svg>
