<svg width="130" height="131" viewBox="0 0 130 131" fill="none" xmlns="http://www.w3.org/2000/svg">
<g clip-path="url(#clip0_1_744)">
<mask id="mask0_1_744" style="mask-type:luminance" maskUnits="userSpaceOnUse" x="0" y="0" width="130" height="131">
<path d="M130 0.5H0V130.5H130V0.5Z" fill="white"/>
</mask>
<g mask="url(#mask0_1_744)">
<path fill-rule="evenodd" clip-rule="evenodd" d="M114.831 68.1176C114.831 75.4583 113.236 82.4263 110.376 88.6923C110.359 88.727 110.35 88.7616 110.333 88.7876C109.137 91.3963 107.716 93.8923 106.095 96.2323C104.448 98.6156 102.602 100.852 100.574 102.914C99.7684 103.738 98.9364 104.526 98.0698 105.289C96.8824 106.338 95.6431 107.334 94.3604 108.27C90.3478 111.191 85.8758 113.522 81.0744 115.143C78.9598 115.854 76.7844 116.426 74.5484 116.85C71.5238 117.422 68.4038 117.726 65.2144 117.726C52.0151 117.726 40.0118 112.569 31.1284 104.154C23.7184 97.1423 18.4664 87.8603 16.4818 77.4256C15.9444 74.6003 15.6498 71.697 15.6151 68.7243C15.6151 68.525 15.6151 68.317 15.6151 68.1176C15.6151 59.971 17.5824 52.2836 21.0578 45.4976C21.3784 44.8736 21.7078 44.2583 22.0544 43.643C25.3911 37.767 29.8978 32.6363 35.2538 28.5716C38.3391 26.223 41.7191 24.2383 45.3071 22.661C51.3998 19.983 58.1338 18.501 65.2231 18.501C74.2278 18.501 82.6691 20.9016 89.9491 25.0963C91.9511 26.249 93.8664 27.5403 95.6778 28.953C98.8238 31.4056 101.675 34.231 104.145 37.351C104.587 37.9056 105.012 38.469 105.428 39.0496C106.71 40.8176 107.872 42.6723 108.912 44.605C112.69 51.6076 114.831 59.6156 114.831 68.1176Z" fill="#2B2933"/>
<path fill-rule="evenodd" clip-rule="evenodd" d="M94.7939 112.629C94.6813 112.681 94.5686 112.733 94.4473 112.785C94.3346 112.837 94.2133 112.889 94.1006 112.941C93.9879 112.993 93.8666 113.045 93.7539 113.089C93.6499 113.132 93.5373 113.175 93.4333 113.219C93.1733 113.323 92.9046 113.427 92.6446 113.531C92.5493 113.565 92.4539 113.6 92.3499 113.635C92.2286 113.678 92.1159 113.721 91.9946 113.756C91.8906 113.791 91.7779 113.825 91.6653 113.869C91.6306 113.877 91.6046 113.886 91.5699 113.895C91.4746 113.929 91.3706 113.955 91.2753 113.99C91.1539 114.025 91.0326 114.059 90.9199 114.103C90.7986 114.137 90.6773 114.172 90.5559 114.207C90.4606 114.233 90.3653 114.259 90.2613 114.285C90.2179 114.293 90.1746 114.311 90.1226 114.319C90.0533 114.337 89.9753 114.354 89.9059 114.371C89.8626 114.38 89.8193 114.389 89.7846 114.406C89.5593 114.467 89.3339 114.519 89.0999 114.571C88.9959 114.597 88.9006 114.614 88.7966 114.64C88.7619 114.649 88.7186 114.657 88.6839 114.666C88.5799 114.683 88.4759 114.709 88.3719 114.727C88.2506 114.753 88.1293 114.77 88.0079 114.796C87.8866 114.813 87.7653 114.839 87.6526 114.857C87.5139 114.883 87.3666 114.9 87.2279 114.926C87.1326 114.943 87.0373 114.952 86.9506 114.969C86.7166 115.004 86.4826 115.03 86.2486 115.056C86.1966 115.065 86.1359 115.065 86.0839 115.073C85.9973 115.082 85.9019 115.091 85.8153 115.099C85.7459 115.108 85.6766 115.108 85.6159 115.117C85.5553 115.125 85.4859 115.125 85.4253 115.134C85.3299 115.143 85.2433 115.151 85.1479 115.151C85.0959 115.16 85.0439 115.16 84.9919 115.16C84.9053 115.169 84.8186 115.169 84.7319 115.177C84.4633 115.195 84.1946 115.203 83.9346 115.212C83.8306 115.212 83.7266 115.221 83.6226 115.221C82.7819 115.238 81.9413 115.203 81.1006 115.143C78.9859 115.853 76.8106 116.425 74.5746 116.85C71.5499 117.422 68.4299 117.725 65.2406 117.725C52.0413 117.725 40.0379 112.569 31.1546 104.153C23.7446 97.1419 18.4926 87.8599 16.5079 77.4252L15.7019 69.3305L15.6413 68.7239L13.3966 46.2599L21.0839 45.4885L30.8166 44.5265L34.4046 44.1712L34.5779 44.1539L41.1646 43.4952L52.6826 42.3425L85.7199 39.0405L87.4186 38.8672L87.4446 39.1359L89.6979 61.7039L89.7239 61.9465L90.0099 64.8239L90.1919 66.6439L91.6133 80.8919L91.7346 82.0705L92.0293 85.0432L94.2913 107.698L94.3519 108.287L94.7939 112.629Z" fill="#57A1D7"/>
<path fill-rule="evenodd" clip-rule="evenodd" d="M108.201 38.1514L109.206 39.1971L108.911 44.6051L107.23 75.4324L107.091 77.989L106.667 85.8324L106.103 96.2324L103.027 103.486L105.583 105.8L105.531 106.806L105.107 114.632L99.9327 109.458C99.8287 109.536 99.7247 109.622 99.6207 109.7C99.5254 109.77 99.4301 109.848 99.3347 109.917C99.3347 109.926 99.3261 109.926 99.3261 109.926C99.2221 110.004 99.1267 110.073 99.0227 110.142C98.9014 110.229 98.7714 110.316 98.6501 110.402C98.5894 110.446 98.5287 110.489 98.4681 110.532C98.0781 110.801 97.6794 111.052 97.2721 111.304C97.1334 111.382 97.0034 111.468 96.8647 111.546C96.7607 111.607 96.6481 111.668 96.5441 111.728C96.4921 111.763 96.4314 111.789 96.3794 111.824C96.3014 111.867 96.2234 111.91 96.1454 111.954C96.0501 112.006 95.9547 112.058 95.8507 112.11C95.6167 112.231 95.3827 112.352 95.1401 112.474C95.0361 112.526 94.9234 112.578 94.8194 112.63H94.8107C94.6981 112.682 94.5854 112.734 94.4641 112.786C94.3514 112.838 94.2301 112.89 94.1174 112.942C94.0047 112.994 93.8834 113.046 93.7707 113.089C93.6667 113.132 93.5541 113.176 93.4501 113.219C93.1901 113.323 92.9214 113.427 92.6614 113.531C92.5661 113.566 92.4707 113.6 92.3667 113.635C92.2454 113.678 92.1327 113.722 92.0114 113.756C91.9074 113.791 91.7947 113.826 91.6821 113.869C91.6474 113.878 91.6214 113.886 91.5867 113.895C91.4914 113.93 91.3874 113.956 91.2921 113.99C91.1707 114.025 91.0494 114.06 90.9367 114.103C90.8154 114.138 90.6941 114.172 90.5727 114.207C90.4774 114.233 90.3821 114.259 90.2781 114.285C90.2347 114.294 90.1914 114.311 90.1394 114.32C90.0701 114.337 89.9921 114.354 89.9227 114.372C89.8794 114.38 89.8361 114.389 89.8014 114.406C89.5761 114.467 89.3507 114.519 89.1167 114.571C89.0127 114.597 88.9174 114.614 88.8134 114.64C88.7787 114.649 88.7354 114.658 88.7007 114.666C88.5967 114.684 88.4927 114.71 88.3887 114.727C88.2674 114.753 88.1461 114.77 88.0247 114.796C87.9034 114.814 87.7821 114.84 87.6694 114.857C87.5307 114.883 87.3834 114.9 87.2447 114.926C87.1494 114.944 87.0541 114.952 86.9674 114.97C86.7334 115.004 86.4994 115.03 86.2654 115.056C86.2134 115.065 86.1527 115.065 86.1007 115.074C86.0141 115.082 85.9187 115.091 85.8321 115.1C85.7627 115.108 85.6934 115.108 85.6327 115.117C85.5721 115.126 85.5027 115.126 85.442 115.134C85.3467 115.143 85.2601 115.152 85.1647 115.152C85.1127 115.16 85.0607 115.16 85.0087 115.16C84.922 115.169 84.8354 115.169 84.7487 115.178C84.4801 115.195 84.2114 115.204 83.9514 115.212C83.8474 115.212 83.7434 115.221 83.6394 115.221C82.7987 115.238 81.9581 115.204 81.1174 115.143C79.0027 115.854 76.8274 116.426 74.5914 116.85C71.5667 117.422 68.4467 117.726 65.2574 117.726C52.0581 117.726 40.0547 112.569 31.1714 104.154L31.4574 98.8931V98.8584L33.1647 67.5977L34.4387 44.1631L34.5341 42.4037L35.0107 33.5811L41.5801 33.9364L90.2001 36.5884L95.3307 36.8657L104.179 37.3511L107.646 37.5417L108.201 38.1514Z" fill="#57A1D7"/>
<g style="mix-blend-mode:darken" opacity="0.1">
<path fill-rule="evenodd" clip-rule="evenodd" d="M110.375 88.6916C110.15 93.545 108.833 98.3983 106.181 102.524C106.033 102.766 102.853 102.931 102.697 103.165C107.498 107.126 105.973 106.302 101.657 111.19C100.287 109.873 100.157 108.928 98.45 110.532C91.4386 115.931 82.5293 114.414 74.556 116.85C60.9493 112.56 52.872 96.4656 57.3786 83.145C65.5426 55.1603 108.165 59.5283 110.375 88.6916Z" fill="black"/>
</g>
<path fill-rule="evenodd" clip-rule="evenodd" d="M89.733 61.9474L79.073 63.0048L70.935 63.8194L47.8556 66.1248L33.2263 67.5894L33.131 67.5981L30.9296 67.8148L15.6763 69.3401L15.6156 68.7334L13.1976 44.5361L22.0636 43.6521L34.5003 42.4041L41.269 41.7281L41.3556 41.7194L74.393 38.4261L87.2543 37.1348L87.4536 39.1368L89.7156 61.7048L89.733 61.9474Z" fill="#57A1D7"/>
<g style="mix-blend-mode:darken" opacity="0.1">
<path fill-rule="evenodd" clip-rule="evenodd" d="M34.6805 42.3848L30.8065 42.7748L31.1185 104.135L34.6805 42.3848Z" fill="black"/>
</g>
<path fill-rule="evenodd" clip-rule="evenodd" d="M109.215 39.1976L108.92 44.6056L107.239 75.4329L106.667 85.8329L105.618 85.7809L91.1878 84.9923L86.1525 84.7149L61.1318 83.3543L56.4778 83.0943L32.4105 81.7856H32.3499L33.1299 67.5983L34.4992 42.4043L35.2532 28.5809L35.6085 22.1416L45.3065 22.6703L89.9485 25.1056L95.8419 25.4263L109.215 39.1976Z" fill="#57A1D7"/>
<path d="M65.3567 40.9925L65.1619 44.5645L101.319 46.5369L101.513 42.965L65.3567 40.9925Z" fill="#D9D9D9"/>
<path d="M65.0622 48.3558L64.8673 51.9277L86.775 53.1228L86.9699 49.5509L65.0622 48.3558Z" fill="#D9D9D9"/>
<path d="M40.6777 60.9178L40.4158 65.7206L87.2406 68.2746L87.5025 63.4718L40.6777 60.9178Z" fill="#D9D9D9"/>
<path d="M40.3383 72.4248L40.0763 77.2275L54.1471 77.995L54.4091 73.1922L40.3383 72.4248Z" fill="#D9D9D9"/>
<path fill-rule="evenodd" clip-rule="evenodd" d="M114.986 119.867C113.703 121.15 111.615 121.15 110.323 119.867L105.089 114.633L98.918 108.462C98.06 107.604 97.774 106.382 98.0687 105.29C98.1034 105.143 98.1554 105.004 98.216 104.865C98.372 104.484 98.6147 104.12 98.9267 103.808C99.2387 103.496 99.6027 103.262 99.984 103.097C100.175 103.019 100.374 102.959 100.573 102.915C101.622 102.699 102.766 102.993 103.581 103.808L104.569 104.796L105.565 105.801L114.977 115.213C116.277 116.496 116.277 118.585 114.986 119.867Z" fill="#614B98"/>
<path fill-rule="evenodd" clip-rule="evenodd" d="M110.341 88.3194C109.422 122.223 60.2822 124.511 56.1742 90.8934C53.4442 53.2367 109.422 50.4287 110.341 88.3194Z" fill="#614B98"/>
<path d="M83.189 110.609C95.6386 110.609 105.731 100.517 105.731 88.0674C105.731 75.6178 95.6386 65.5254 83.189 65.5254C70.7394 65.5254 60.647 75.6178 60.647 88.0674C60.647 100.517 70.7394 110.609 83.189 110.609Z" fill="#D9D9D9"/>
<g style="mix-blend-mode:darken" opacity="0.1">
<path fill-rule="evenodd" clip-rule="evenodd" d="M109.215 39.1971L105.427 39.0584L95.2092 38.6771L95.6772 28.9531L95.8419 25.4258L109.215 39.1971Z" fill="black"/>
</g>
<path d="M94.7817 86.3064C95.0446 86.1171 95.2395 85.8528 95.3393 85.5509C95.4391 85.2489 95.4386 84.9243 95.338 84.6226C95.2374 84.3209 95.0417 84.0572 94.7783 83.8685C94.515 83.6797 94.1971 83.5755 93.8694 83.5703L87.5045 83.3377C87.4732 83.3357 87.4432 83.3249 87.4181 83.3067C87.393 83.2884 87.3739 83.2636 87.363 83.2351L85.1636 77.4893C85.0531 77.1969 84.8523 76.9445 84.5886 76.7662C84.3249 76.5878 84.0108 76.4922 83.689 76.4922C83.3672 76.4922 83.0532 76.5878 82.7894 76.7662C82.5257 76.9445 82.325 77.1969 82.2145 77.4893L80.0221 83.2557C80.0113 83.2841 79.9921 83.309 79.967 83.3272C79.942 83.3454 79.9119 83.3562 79.8807 83.3583L73.5157 83.5908C73.188 83.596 72.8701 83.7003 72.6068 83.889C72.3434 84.0777 72.1477 84.3414 72.0471 84.6431C71.9465 84.9448 71.946 85.2694 72.0458 85.5714C72.1456 85.8734 72.3405 86.1376 72.6034 86.327L77.5963 90.1233C77.6213 90.1424 77.64 90.1681 77.6501 90.1972C77.6601 90.2264 77.6611 90.2578 77.6529 90.2875L75.9344 96.177C75.8453 96.4769 75.854 96.7961 75.9591 97.0911C76.0642 97.3861 76.2608 97.6426 76.522 97.8257C76.7832 98.0089 77.0964 98.1097 77.4189 98.1146C77.7415 98.1195 78.0578 98.0281 78.3248 97.8529L83.6006 94.4328C83.6266 94.4154 83.6574 94.4061 83.689 94.4061C83.7206 94.4061 83.7514 94.4154 83.7774 94.4328L89.0533 97.8529C89.3166 98.0341 89.6318 98.1314 89.955 98.1314C90.2781 98.1314 90.5933 98.0341 90.8567 97.8529C91.1179 97.6715 91.3147 97.4163 91.4198 97.1223C91.5249 96.8283 91.5332 96.51 91.4437 96.2112L89.711 90.3012C89.7018 90.2715 89.7023 90.2398 89.7124 90.2105C89.7226 90.1811 89.7418 90.1554 89.7676 90.137L94.7817 86.3064Z" fill="#614B98"/>
<path d="M73.2958 97.8661L92.7949 78.2207" stroke="#D9D9D9" stroke-width="2.84444" stroke-linecap="round"/>
<path d="M74.0896 98.9313L94.406 78.3579" stroke="#614B98" stroke-width="2.13333" stroke-linecap="round"/>
<path opacity="0.9" d="M50.6972 55.0587C56.1874 55.3578 60.8718 51.3086 61.1602 46.0145C61.4486 40.7204 57.2317 36.1862 51.7416 35.8872C46.2514 35.5881 41.567 39.6373 41.2786 44.9314C40.9902 50.2255 45.2071 54.7597 50.6972 55.0587Z" fill="#D9D9D9"/>
<path d="M52.0744 40.2532C52.527 40.3932 52.9074 40.6271 53.2185 40.9567C53.5213 41.2774 53.7186 41.635 53.8226 42.0517C53.866 42.2252 53.8692 42.3034 53.8489 42.6776C53.8285 43.0505 53.8165 43.1299 53.7552 43.2975C53.4569 44.1119 52.7178 44.7262 51.8426 44.887C50.9298 45.0548 50.0323 44.7661 49.4115 44.1054C49.122 43.7972 48.9279 43.4409 48.8249 43.0284C48.7816 42.8549 48.7783 42.7767 48.7987 42.4025C48.8251 41.9176 48.8697 41.7548 49.073 41.401C49.4371 40.7671 50.0841 40.3217 50.8378 40.1862C51.1292 40.1338 51.1622 40.1328 51.5316 40.1627C51.7689 40.1818 51.9306 40.2088 52.0744 40.2532Z" fill="#57A1D7"/>
<path d="M52.0473 46.0337C53.3375 46.3176 54.3729 46.9219 55.2189 47.8846C55.4005 48.0913 55.7107 48.5208 55.7084 48.5626C55.706 48.6067 55.3457 49.0025 55.123 49.2056C54.1936 50.0534 53.105 50.5344 51.7832 50.6813C51.3065 50.7343 50.4509 50.6877 49.9828 50.5832C48.4947 50.2511 47.3045 49.4805 46.4755 48.3124C46.3842 48.1837 46.3101 48.0659 46.3109 48.0506C46.3118 48.0354 46.3979 47.9263 46.5023 47.8083C47.5096 46.6696 48.9621 45.9879 50.5543 45.9066C50.909 45.8884 51.689 45.9549 52.0473 46.0337Z" fill="#57A1D7"/>
</g>
</g>
<defs>
<clipPath id="clip0_1_744">
<rect width="130" height="130" fill="white" transform="translate(0 0.5)"/>
</clipPath>
</defs>
</svg>
