<svg width="367" height="261" viewBox="0 0 367 261" fill="none" xmlns="http://www.w3.org/2000/svg">
<g clip-path="url(#clip0_355_11856)">
<g clip-path="url(#clip1_355_11856)">
<path opacity="0.15" d="M334.739 109.414C340.513 127.384 343.287 145.873 342.773 165.387C342.474 176.58 341.129 187.885 336.869 198.391C315.823 250.184 271.656 250.231 271.656 250.231H98.5583C98.5583 250.231 76.8487 234.661 53.2147 212.069C28.5718 188.507 23.163 158.91 33.42 129.098C41.7246 104.952 61.2857 85.7859 84.7422 75.3745C104.378 66.667 106.629 64.0783 114.869 55.5119C124.332 45.6654 129.637 30.2365 140.109 21.1619C173.879 -8.10483 224.071 -4.25469 262.287 15.975C288.733 29.9824 308.051 52.8008 321.12 77.4549C326.696 87.9887 331.255 98.6071 334.73 109.404L334.739 109.414Z" fill="#709EB3"/>
<path d="M248.117 26.8788H117.579C112.585 26.8788 108.536 30.9585 108.536 35.9911V119.273C108.536 124.305 112.585 128.385 117.579 128.385H248.117C253.111 128.385 257.159 124.305 257.159 119.273V35.9911C257.159 30.9585 253.111 26.8788 248.117 26.8788Z" fill="#CCE7FB"/>
<path d="M248.117 129.054H117.579C112.226 129.054 107.873 124.667 107.873 119.273V36.0011C107.873 30.6071 112.226 26.2204 117.579 26.2204H248.117C253.47 26.2204 257.823 30.6071 257.823 36.0011V119.273C257.823 124.667 253.47 129.054 248.117 129.054ZM117.579 27.5477C112.955 27.5477 109.2 31.3414 109.2 35.9917V119.273C109.2 123.933 112.964 127.717 117.579 127.717H248.117C252.741 127.717 256.496 123.924 256.496 119.273V36.0011C256.496 31.3414 252.732 27.5571 248.117 27.5571H117.579V27.5477Z" fill="#231F20"/>
<path d="M108.912 85.3507C107.174 83.5057 105.577 81.8489 103.438 80.4839C101.42 79.1943 88.6313 71.061 89.7336 68.557C90.7331 66.2977 97.8887 70.8162 97.8887 70.8162C97.8887 70.8162 86.1278 59.6141 88.1736 57.6937C89.5748 56.3758 101.065 66.5331 101.065 66.5331C101.065 66.5331 89.5001 53.307 91.3684 51.8291C94.5258 49.3251 104.671 62.6735 104.671 62.6735C104.671 62.6735 95.5814 48.1578 98.4679 46.8023C101.102 45.5691 112.415 64.3679 113.676 64.0667C114.246 63.9349 115.918 54.126 118.206 54.7755C122.905 56.1123 118.225 63.3984 119.44 70.7974C120.561 77.6034 125.624 83.0821 129.547 88.2125C129.631 88.316 120.458 96.7788 118.786 96.1952C117.067 95.5927 108.949 85.3978 108.902 85.3507H108.912Z" fill="#F8A99C"/>
<path d="M118.897 96.8753C118.776 96.8753 118.673 96.8565 118.571 96.8282C117.104 96.3105 112.284 90.6059 108.5 85.9179L108.407 85.805C106.548 83.8375 105.081 82.3408 103.073 81.0511L102.914 80.9476C87.7996 71.261 88.7618 69.0959 89.1168 68.2864C89.3129 67.8345 89.6866 67.5144 90.1817 67.3638C91.1906 67.0532 92.7506 67.4956 94.2453 68.1357C91.1999 64.9728 87.2578 60.4543 87.2578 58.3174C87.2578 57.7432 87.5007 57.4043 87.7062 57.2066C88.603 56.3688 91.3307 57.7432 95.8426 61.2827C93.1243 57.8091 90.3498 53.8177 90.4993 52.1892C90.546 51.7185 90.7702 51.4549 90.9477 51.3043C91.4148 50.9278 92.0033 50.7866 92.6759 50.8713C94.8244 51.1443 97.8791 53.9025 100.439 56.6418C98.5704 53.0647 96.8142 49.0074 97.3279 47.2283C97.5054 46.6164 97.8884 46.3246 98.178 46.1928C99.9809 45.3455 102.905 48.8568 109.201 57.5643C110.78 59.7483 112.545 62.1864 113.405 63.0901C113.545 62.6571 113.722 62.0452 113.881 61.4804C114.899 57.922 116.179 53.5165 118.374 54.1284C121.709 55.0697 121.158 58.3739 120.523 62.1958C120.093 64.7939 119.598 67.731 120.084 70.6868C121.009 76.3255 124.699 80.9852 128.267 85.5037C128.884 86.2756 129.481 87.0476 130.061 87.8006C130.238 88.036 130.238 88.3843 130.061 88.6196C129.995 88.7138 121.578 96.8659 118.879 96.8659L118.897 96.8753ZM109.388 84.8919C109.388 84.8919 109.444 84.9578 109.528 85.0707C115.086 91.9803 118.29 95.3221 119 95.5668C120.224 95.6515 126.978 89.8622 128.678 88.1772C128.211 87.5747 127.725 86.9534 127.239 86.3415C123.736 81.9078 119.776 76.8903 118.795 70.9127C118.272 67.7498 118.785 64.6904 119.234 61.9887C119.888 58.0821 120.121 56.0205 118.038 55.4275C117.608 55.3145 116.768 56.3217 115.18 61.8663C114.544 64.0691 114.395 64.5962 113.844 64.728C113.04 64.9351 112.34 64.1444 108.164 58.3645C105.539 54.7403 100.084 47.2094 98.7479 47.4259C98.7292 47.4259 98.6731 47.4636 98.6264 47.6236C98.0286 49.6758 102.363 57.7338 105.24 62.3276C105.427 62.6288 105.352 63.0242 105.063 63.2313C104.773 63.4384 104.371 63.3725 104.157 63.0901C101.952 60.1907 95.5811 52.594 92.5358 52.208C92.2181 52.1704 91.9753 52.2174 91.7884 52.3681C91.4802 53.5353 96.618 60.426 101.578 66.1024C101.812 66.366 101.793 66.7614 101.55 67.0155C101.307 67.2603 100.906 67.2791 100.644 67.0438C95.7959 62.7606 89.8921 58.2515 88.603 58.2515C88.6123 58.2703 88.6123 58.2986 88.6123 58.3362C88.6123 60.3131 94.5909 66.752 98.3555 70.3479C98.5984 70.5833 98.6358 70.9692 98.4209 71.2422C98.2154 71.5152 97.8324 71.5811 97.5428 71.4022C95.5344 70.1314 91.8632 68.2675 90.5834 68.6629C90.4246 68.71 90.3779 68.7853 90.3498 68.8512C90.3498 68.87 89.6586 70.8751 103.652 79.8462L103.811 79.9497C105.941 81.3147 107.538 82.9432 109.407 84.9201L109.388 84.8919Z" fill="#231F20"/>
<path d="M113.274 68.5257C113.032 68.2527 112.611 68.2339 112.34 68.4881C110.481 70.2013 110.108 72.6395 109.93 73.8067C109.912 73.8067 109.883 73.8067 109.865 73.7973C108.641 73.5902 106.081 73.176 103.727 73.9856C103.382 74.108 103.195 74.4845 103.316 74.8328C103.41 75.1058 103.671 75.2847 103.942 75.2847C104.017 75.2847 104.082 75.2752 104.157 75.247C106.203 74.541 108.529 74.9269 109.65 75.1152C110.323 75.2282 110.575 75.2658 110.846 75.0587C111.107 74.8516 111.154 74.5692 111.238 74.0044C111.387 72.9878 111.714 70.8697 113.228 69.4671C113.499 69.2223 113.517 68.7987 113.265 68.5257H113.274Z" fill="#231F20"/>
<path d="M235.946 46.6965L221.037 47.5814C219.636 47.6661 218.478 48.7299 218.263 50.1325L213.33 82.7881C213.153 83.993 214.134 85.0473 215.329 84.9438L231.621 83.607L237.917 48.9464C238.141 47.732 237.17 46.6212 235.937 46.6965H235.946Z" fill="#231F20"/>
<path d="M237.73 71.5938C237.207 69.664 236.674 67.7343 236.151 65.7951C235.722 64.2136 235.525 61.7567 234.675 60.3729C233.508 58.4713 230.014 58.9797 230.397 62.1238C230.294 61.2954 229.36 60.8906 228.529 60.8624C227.716 60.8341 226.417 61.1919 226.016 62.2744C225.726 63.0557 225.829 64.656 225.829 64.656C225.829 64.656 224.045 63.6864 222.559 64.6466C220.635 65.8892 221.952 71.029 222.569 72.9588C222.942 74.1261 223.475 75.2933 223.353 76.5077C223.232 77.6844 222.522 78.6916 221.906 79.6989C218.001 86.0342 218.561 93.1791 217.085 100.192C216.945 100.851 227.847 104.221 227.828 104.409C228.239 99.5897 228.361 94.271 230.042 89.6866C231.042 86.9755 232.732 83.8785 234.292 81.4592C234.675 80.8662 235.124 80.2919 235.581 79.7177C236.815 78.1645 238.094 76.6018 238.206 74.5591C238.263 73.5518 237.992 72.5634 237.73 71.5938Z" fill="#F8A99C"/>
<path d="M234.313 73.3549L233.92 71.8299C232.93 67.9986 232.146 64.9769 230.427 60.3737C230.296 60.0254 229.913 59.8559 229.577 59.9877C229.231 60.1195 229.063 60.5054 229.194 60.8443C230.885 65.3817 231.66 68.3752 232.641 72.1688L233.033 73.6938C233.108 73.9951 233.379 74.1927 233.668 74.1927C233.724 74.1927 233.78 74.1927 233.836 74.1739C234.191 74.0798 234.397 73.7127 234.313 73.3549Z" fill="#231F20"/>
<path d="M225.635 62.8297C225.504 62.4814 225.121 62.312 224.785 62.4438C224.439 62.5755 224.271 62.9615 224.402 63.3004C225.495 66.1998 227.036 71.5749 227.923 75.1615C227.998 75.4627 228.269 75.6698 228.568 75.6698C228.624 75.6698 228.671 75.6698 228.727 75.651C229.082 75.5662 229.297 75.1991 229.213 74.8414C228.316 71.2266 226.756 65.7856 225.644 62.8297H225.635Z" fill="#231F20"/>
<path d="M180.299 80.9913C179.459 79.8522 179.617 76.1151 179.907 73.1121C185.857 69.9774 187.987 61.3075 184.69 55.3111C179.972 46.7354 168.043 48.1568 163.046 55.7253C158.954 61.9194 162.756 69.3373 168.65 72.6226C168.436 75.5785 167.81 79.9181 167.324 81.4055C167.277 81.5561 159.907 81.349 169.146 88.9081C172.639 91.7698 179.636 99.263 184.008 101.899C191.107 80.4265 180.981 81.9138 180.29 80.9818L180.299 80.9913Z" fill="#F8A99C"/>
<path d="M184.353 49.7935C183.138 47.9955 181.242 46.7529 179.234 45.981C176.216 44.8325 172.863 44.8043 169.771 45.6986C171.433 40.6341 170.527 35.1177 165.034 32.7644C160.326 30.7499 154.488 31.5594 150.658 34.9765C146.837 38.4031 145.371 44.3336 147.388 49.0686C149.341 53.6436 154.516 56.6277 159.383 55.8746C158.365 59.48 158.636 63.4808 160.196 66.8696C164.549 76.3114 170.013 60.7226 166.931 58.115C167.949 58.9811 169.584 59.6306 171.48 60.0072C176.627 61.0427 183.652 60.0731 185.249 56.0064C186.043 53.9825 185.586 51.6009 184.371 49.8029L184.353 49.7935Z" fill="#231F20"/>
<path d="M215.629 90.2869C213.704 96.4716 210.977 107.429 207.838 113.03C207.838 107.89 205.96 100.679 204.709 97.4317C203.092 93.2333 201.019 89.1478 197.329 86.4273C195.096 84.7799 192.481 83.7539 189.8 83.0949C188.538 82.7843 181.252 81.8241 180.85 80.6474C182.737 86.192 184.092 92.612 182.812 98.3354C178.524 91.6424 172.48 85.0153 166.1 80.3179C163.587 81.6358 161.598 82.0688 159.43 82.7372C153.536 84.5822 149.837 87.6793 147.165 91.7365C144.895 94.8713 143.223 98.0719 140.943 101.16C136.572 92.1884 131.079 83.5562 125.119 75.5547C118.141 80.4874 113.367 83.8292 107.155 88.8372C117.141 99.305 133.685 128.383 133.685 128.383H222.691L235.947 91.2376C235.947 91.2376 220.823 90.494 215.619 90.2774L215.629 90.2869Z" fill="#709EB3"/>
<path d="M193.702 91.9375C193.403 91.7304 192.992 91.8057 192.787 92.107C192.581 92.4082 192.656 92.8224 192.955 93.0295C198.354 96.7761 200.269 105.568 198.345 117.768C198.121 119.218 197.859 120.734 197.607 122.174C197.168 124.753 196.785 126.984 196.654 128.321C196.617 128.688 196.888 129.017 197.252 129.046C197.271 129.046 197.299 129.046 197.317 129.046C197.654 129.046 197.943 128.782 197.971 128.443C198.093 127.154 198.485 124.838 198.906 122.4C199.158 120.95 199.419 119.435 199.644 117.975C201.652 105.239 199.541 95.9854 193.693 91.9281L193.702 91.9375Z" fill="#231F20"/>
<path d="M215.899 89.9866C215.544 89.8831 215.18 90.0902 215.077 90.4479C211.2 104.248 207.492 113.784 203.736 119.583C203.54 119.893 203.624 120.308 203.933 120.505C204.045 120.581 204.166 120.609 204.297 120.609C204.512 120.609 204.727 120.505 204.848 120.308C208.678 114.387 212.433 104.738 216.357 90.8056C216.46 90.4479 216.254 90.0807 215.899 89.9866Z" fill="#231F20"/>
<path d="M180.624 80.0194C180.279 80.1418 180.092 80.5183 180.213 80.8666C182.315 87.0419 183.053 92.21 182.446 96.5873C178.093 90.1578 172.339 84.0861 166.481 79.7747C166.182 79.5582 165.771 79.624 165.557 79.9159C165.342 80.2171 165.407 80.6313 165.697 80.8478C171.843 85.3757 177.878 91.8805 182.241 98.6865C182.362 98.8748 182.577 98.9877 182.792 98.9877C182.829 98.9877 182.866 98.9877 182.904 98.9783C183.165 98.9312 183.371 98.7335 183.436 98.47C184.548 93.509 183.903 87.6067 181.456 80.4148C181.334 80.0665 180.961 79.8782 180.615 80.0006L180.624 80.0194Z" fill="#231F20"/>
<path d="M222.69 127.727H156.981C157.776 125.289 160.036 118.37 160.933 115.329C161.036 114.981 160.84 114.605 160.485 114.501C160.139 114.397 159.765 114.595 159.663 114.953C158.71 118.172 156.225 125.788 155.58 127.727H134.057C132.208 124.508 117.504 99.1005 108.116 88.915C113.814 84.3494 118.41 81.1018 124.697 76.668L124.959 76.4797C130.807 84.3965 135.72 92.2851 139.578 99.9477C139.831 100.456 141.306 103.12 141.306 103.12C142.558 105.473 143.38 107.036 144.875 110.227C144.987 110.472 145.221 110.613 145.473 110.613C145.566 110.613 145.66 110.594 145.753 110.547C146.08 110.387 146.229 109.992 146.071 109.662C144.557 106.443 143.726 104.871 142.474 102.499C142.474 102.499 140.671 99.1946 140.354 98.5733C136.44 90.9201 131.498 83.0504 125.631 75.1712C125.417 74.8794 125.015 74.8229 124.725 75.0206L123.931 75.576C117.42 80.1698 112.721 83.4928 106.724 88.3314C106.584 88.4443 106.491 88.6232 106.481 88.8115C106.472 88.9997 106.537 89.1786 106.668 89.3198C116.486 99.6088 132.936 128.442 133.105 128.734C133.226 128.941 223.353 128.772 223.353 128.405C223.353 128.038 223.054 127.736 222.69 127.736V127.727Z" fill="#231F20"/>
<path d="M124.641 159.464C118.868 168.021 102.912 179.148 102.062 179.035C101.259 178.931 88.5543 160.989 84.6963 151.933L105.995 155.473L124.641 159.464Z" fill="#D9D9D9"/>
<path d="M124.638 160.329C124.582 160.329 124.517 160.329 124.461 160.31L105.815 156.319L84.5539 152.789C84.0868 152.713 83.7692 152.261 83.8439 151.791C83.9186 151.32 84.367 150.991 84.8341 151.075L106.133 154.615L124.816 158.616C125.283 158.719 125.572 159.171 125.479 159.642C125.395 160.046 125.04 160.329 124.638 160.329Z" fill="#231F20"/>
<path d="M125.657 115.991C115.587 110.174 94.8769 116.678 92.5229 131.147C91.6448 136.56 93.6158 142.095 97.1656 146.218C95.9232 152.864 93.6438 160.489 87.8428 158.983L102.481 181.67L119.744 166.034C115.475 163.417 116.979 156.394 118.128 150.925C124.518 147.79 129.3 141.031 129.132 133.792C128.973 126.713 130.515 118.806 125.638 115.991H125.657Z" fill="#F8A99C"/>
<path d="M122.752 109.987C112.028 109.921 102.108 109.149 91.3555 110.034C91.8225 109.997 85.7973 131.092 93.6161 130.678C97.4088 130.471 105.723 126.48 105.414 122.441C105.713 126.376 115.438 125.811 117.904 125.952C123.537 126.273 128.32 126.216 132.206 121.33C134.924 117.913 136.241 113.602 137.493 109.403C133.168 109.742 128.077 110.025 122.752 109.987Z" fill="#231F20"/>
<path d="M111.299 132.993C111.299 133.699 111.869 134.273 112.569 134.273C113.27 134.273 113.84 133.699 113.84 132.993C113.84 132.287 113.27 131.713 112.569 131.713C111.869 131.713 111.299 132.287 111.299 132.993Z" fill="#231F20"/>
<path d="M123.189 132.107C122.489 132.107 121.919 132.681 121.919 133.387C121.919 134.093 122.489 134.668 123.189 134.668C123.89 134.668 124.46 134.093 124.46 133.387C124.46 132.681 123.89 132.107 123.189 132.107Z" fill="#231F20"/>
<path d="M126.227 128.976L122.733 127.799C122.275 127.649 121.799 127.893 121.65 128.345C121.5 128.797 121.743 129.287 122.191 129.437L125.685 130.614C125.778 130.642 125.872 130.661 125.956 130.661C126.32 130.661 126.647 130.435 126.769 130.068C126.918 129.616 126.675 129.127 126.227 128.976Z" fill="#231F20"/>
<path d="M110.067 130.075C110.132 130.075 110.198 130.075 110.263 130.056C110.665 129.962 111.085 129.878 111.506 129.783C112.58 129.557 113.682 129.322 114.486 128.983C114.925 128.795 115.121 128.287 114.934 127.844C114.747 127.402 114.243 127.195 113.804 127.392C113.159 127.675 112.141 127.882 111.151 128.089C110.712 128.183 110.282 128.268 109.871 128.371C109.404 128.484 109.123 128.946 109.226 129.416C109.32 129.812 109.675 130.085 110.067 130.085V130.075Z" fill="#231F20"/>
<path d="M121.519 136.109C121.174 135.14 120.819 134.142 120.679 133.436C120.585 132.965 120.128 132.673 119.66 132.767C119.193 132.862 118.894 133.323 118.997 133.793C119.165 134.612 119.539 135.676 119.903 136.693C120.202 137.54 120.511 138.406 120.679 139.084C120.436 139.319 119.922 139.705 119.567 139.969C119.165 140.27 118.745 140.581 118.409 140.882C118.044 141.193 118.007 141.739 118.315 142.106C118.483 142.303 118.726 142.407 118.969 142.407C119.165 142.407 119.362 142.341 119.53 142.2C119.847 141.927 120.23 141.644 120.604 141.362C121.856 140.421 122.612 139.856 122.435 139.018C122.267 138.199 121.893 137.135 121.529 136.109H121.519Z" fill="#231F20"/>
<path d="M115.68 145.054C115.344 144.837 114.811 144.96 114.363 144.941C113.765 144.913 113.251 144.592 112.971 144.216C112.728 143.886 112.756 142.992 112.205 142.879C110.972 142.625 111.037 144.367 111.215 144.818C111.57 145.684 112.504 146.823 113.952 146.871C114.363 146.88 114.923 146.71 115.362 146.447C115.988 146.07 116.362 145.506 115.68 145.073V145.054Z" fill="#231F20"/>
<path d="M112.85 151.539H106.722C106.245 151.539 105.862 151.925 105.862 152.405C105.862 152.885 106.245 153.271 106.722 153.271H112.85C113.326 153.271 113.709 152.885 113.709 152.405C113.709 151.925 113.326 151.539 112.85 151.539Z" fill="#231F20"/>
<path d="M38.661 175.269C41.1832 171.852 44.1351 168.793 47.5541 166.214C54.5135 160.97 63.0703 158.805 71.6178 158.174C74.4763 157.958 77.4282 158.984 80.268 158.438C83.7991 157.751 84.1354 155.313 84.6866 151.933C84.6866 151.914 104.453 172.869 104.453 172.869L124.631 159.464C124.631 159.464 123.837 163.437 124.042 163.936C124.687 165.47 126.733 166.421 128.078 167.136C131.525 168.981 134.972 170.149 138.849 172.219C146.546 176.343 150.554 185.549 151.796 194.304C152.431 198.775 152.422 203.275 152.16 207.784C151.889 212.444 151.357 217.103 150.974 221.754C150.227 230.894 153.795 250.22 153.795 250.22H14.4385C14.4385 250.22 21.0242 218.92 25.9005 203.934C29.1513 193.937 32.4956 183.61 38.661 175.269V175.269Z" fill="#D9D9D9"/>
<path d="M109.927 170.3C109.647 170.3 109.376 170.159 109.208 169.914C108.946 169.519 109.059 168.973 109.451 168.709C114.252 165.518 124.052 158.806 124.154 158.74C124.444 158.542 124.827 158.542 125.117 158.74C125.406 158.938 125.556 159.286 125.481 159.634C125.154 161.272 124.827 163.306 124.874 163.72C125.294 164.699 126.901 165.537 128.078 166.158L128.489 166.375C129.348 166.836 130.282 167.288 131.413 167.805C131.842 168.003 132.039 168.511 131.842 168.954C131.646 169.387 131.133 169.585 130.703 169.387C129.535 168.86 128.573 168.38 127.676 167.909L127.274 167.692C125.873 166.958 123.949 165.941 123.248 164.275C123.174 164.096 123.015 163.72 123.407 161.348C120.362 163.428 113.991 167.777 110.394 170.159C110.245 170.253 110.086 170.3 109.918 170.3H109.927Z" fill="#231F20"/>
<path d="M98.9041 167.843C98.6799 167.843 98.4463 167.749 98.2782 167.57C95.4944 164.624 88.1146 156.801 85.2468 153.77C84.733 156.453 83.8642 158.627 80.4359 159.286C78.7171 159.616 76.9982 159.418 75.3355 159.23C74.065 159.089 72.86 158.947 71.6829 159.032C71.2158 159.07 70.7394 159.107 70.2724 159.154C69.8146 159.211 69.3756 158.853 69.3382 158.373C69.2915 157.893 69.6371 157.469 70.1136 157.432C70.59 157.385 71.0757 157.347 71.5615 157.309C72.8973 157.206 74.2425 157.366 75.5316 157.517C77.1384 157.705 78.6517 157.874 80.109 157.592C82.8647 157.055 83.2384 155.493 83.8082 151.991L83.8362 151.793C83.8923 151.464 84.1165 151.2 84.4341 151.106C84.7766 150.999 86.7072 152.81 90.2258 156.537L99.5206 166.384C99.8476 166.732 99.8382 167.278 99.4926 167.608C99.3244 167.768 99.1096 167.843 98.9041 167.843Z" fill="#231F20"/>
<path d="M110.898 169.282L105.993 176.041C105.993 176.041 105.031 181.633 104.387 184.41C102.714 191.639 101.874 199.349 100.435 206.607C98.8751 214.486 96.4183 222.29 94.4285 230.065C94.167 231.101 93.8961 232.155 93.3636 233.078C92.7657 234.123 91.869 234.951 90.9815 235.761C87.7213 238.735 84.3864 241.635 80.9861 244.449C80.6125 239.582 80.108 234.735 79.4915 229.896C79.4167 229.322 79.342 228.729 79.4821 228.164C79.6036 227.674 79.8745 227.241 80.1454 226.818C84.7788 219.55 88.123 212.81 91.0749 204.686C93.9521 196.77 101.472 174.723 101.472 174.723L97.0255 164.387L110.477 168.153C110.972 168.275 111.187 168.868 110.888 169.282H110.898Z" fill="#709EB3"/>
<path d="M65.0393 189.7C65.1794 189.785 65.3289 189.822 65.4783 189.822C65.7679 189.822 66.0575 189.672 66.2163 189.399C66.9823 188.118 67.3747 186.65 67.356 185.163L85.3757 187.751C85.8428 187.817 86.2819 187.488 86.3472 187.017C86.4126 186.546 86.0857 186.104 85.6186 186.038L66.5339 183.299C66.263 183.261 65.9921 183.355 65.8053 183.543C65.6091 183.741 65.525 184.014 65.5624 184.287C65.7773 185.727 65.4783 187.262 64.7404 188.504C64.4975 188.919 64.6283 189.446 65.0299 189.691L65.0393 189.7Z" fill="#231F20"/>
<path d="M152.981 239.42C152.916 238.949 152.477 238.62 152.01 238.677C151.543 238.742 151.207 239.175 151.272 239.656C151.842 243.929 152.468 247.629 152.767 249.351H49.4122C49.5337 249.229 49.6271 249.078 49.6644 248.9C50.9069 242.018 52.7098 235.109 54.522 228.369C54.6528 228.265 56.1755 220.16 67.7776 207.452C68.0952 207.103 68.0579 206.548 67.7029 206.228C67.3479 205.908 66.8061 205.946 66.4885 206.303C62.6024 210.728 59.5851 214.286 57.175 218.39C58.4922 213.326 59.7252 208.195 60.65 203.065C60.7341 202.594 60.4259 202.143 59.9588 202.058C59.501 201.973 59.0433 202.284 58.9592 202.754C57.5767 210.426 55.4935 218.136 53.4851 225.601C51.4674 233.094 49.3749 240.851 47.983 248.589C47.9269 248.881 48.039 249.163 48.2445 249.351H15.5026C16.6983 243.779 22.4153 217.43 26.7124 204.204L26.7591 204.053C28.5994 198.396 30.4957 192.644 32.8965 187.203C28.1229 200.42 25.3485 214.145 24.4611 228.821C24.4331 229.301 24.7974 229.705 25.2644 229.734C25.2831 229.734 25.3018 229.734 25.3205 229.734C25.7689 229.734 26.1519 229.376 26.1799 228.915C27.3289 209.805 31.7194 192.324 39.5943 175.483C39.5943 175.465 39.5943 175.446 39.6037 175.427C42.1072 172.104 44.947 169.223 48.0577 166.879L48.394 166.635C48.777 166.352 48.8611 165.806 48.5808 165.42C48.3006 165.034 47.7681 164.95 47.3758 165.232L47.0208 165.496C43.6672 168.018 40.6219 171.125 37.9502 174.73C31.7288 183.137 28.3565 193.491 25.1056 203.498L25.0589 203.639C20.2294 218.494 13.6436 249.7 13.5782 250.02C13.5222 250.274 13.5876 250.538 13.7557 250.745C13.9145 250.952 14.1667 251.065 14.4283 251.065H153.803C154.056 251.065 154.299 250.952 154.467 250.754C154.626 250.556 154.7 250.293 154.654 250.039C154.654 249.992 153.766 245.228 152.991 239.401L152.981 239.42Z" fill="#231F20"/>
<path d="M79.4272 226.347C79.1563 226.78 78.8106 227.316 78.6518 227.947C78.4743 228.672 78.5677 229.378 78.6518 229.999C79.2684 234.809 79.7728 239.695 80.1465 244.515C80.1838 244.967 80.5575 245.315 81.0059 245.315C81.0246 245.315 81.0526 245.315 81.0713 245.315C81.5477 245.277 81.9027 244.863 81.8653 244.383C81.4916 239.535 80.9872 234.631 80.3613 229.783C80.2959 229.265 80.2305 228.775 80.3333 228.371C80.4267 228.013 80.6602 227.646 80.8844 227.279C85.5645 219.936 88.9648 213.055 91.8981 204.978C94.7472 197.136 102.22 175.222 102.295 174.996C102.37 174.789 102.361 174.563 102.267 174.356L97.8953 164.518C97.6991 164.085 97.1947 163.888 96.7556 164.085C96.3259 164.283 96.1298 164.791 96.3259 165.234L100.558 174.76C99.6141 177.519 92.935 197.08 90.282 204.385C87.3861 212.339 84.0419 219.117 79.4365 226.347H79.4272Z" fill="#231F20"/>
<path d="M349.255 116.343C337.523 116.757 326.892 127.846 315.617 124.542C309.619 122.791 305.257 117.247 299.241 115.562C295.972 114.649 292.375 114.987 289.33 116.503C286.425 117.943 284.042 120.391 280.978 121.455C275.813 123.243 270.142 120.636 265.845 117.247C261.548 113.858 257.83 109.575 252.907 107.202C245.677 103.719 236.616 105.094 230.207 109.942C224.715 113.745 217.055 125.126 220.679 131.791C222.958 135.989 229.32 140.046 232.795 143.36C237.092 147.455 243.379 161.5 278.755 166.122C286.266 167.101 293.795 164.23 301.249 162.874C306.845 161.858 312.478 160.681 318.167 160.888C323.856 161.095 329.713 162.865 333.711 166.941C331.721 148.886 337.485 130.096 349.255 116.334V116.343Z" fill="#231F20"/>
<path d="M256.953 154.071C256.084 151.774 255.43 149.402 254.982 146.992C258.989 142.813 261.278 136.92 260.335 131.159C257.551 114.007 235.495 110.581 226.957 121.359C224.809 124.08 225.528 128.664 225.425 133.032C225.341 136.788 226.957 142.172 228.919 145.364C231.086 148.884 233.58 151.115 236.85 152.141C236.99 152.96 237.084 153.789 237.055 154.617C236.981 156.98 236.299 159.258 234.739 161.065C233.805 162.148 232.011 162.967 230.703 163.551C229.891 163.918 225.603 165.462 225.603 165.462C225.603 165.462 245.22 189.918 251.862 201.751C257.074 188.515 263.044 173.538 267.415 158.853C263.044 160.03 258.391 157.865 256.944 154.081L256.953 154.071Z" fill="#F8A99C"/>
<path d="M257.138 111.514C253.85 109.029 249.487 108.417 245.396 108.812C240.818 109.264 236.381 110.94 232.579 113.547C229.45 115.694 226.741 118.48 224.742 121.718C224.34 122.358 223.957 123.083 224.041 123.836C224.377 126.877 233.065 126.067 234.961 125.954C237.427 125.813 247.161 126.378 247.451 122.443C247.152 126.482 256.624 135.048 260.426 135.255C269.712 135.754 260.51 114.065 257.138 111.514Z" fill="#231F20"/>
<path d="M231.934 132.627C231.934 131.949 231.383 131.394 230.71 131.394C230.037 131.394 229.486 131.949 229.486 132.627C229.486 133.305 230.037 133.86 230.71 133.86C231.383 133.86 231.934 133.305 231.934 132.627Z" fill="#231F20"/>
<path d="M241.585 132.414C241.585 131.736 241.034 131.181 240.361 131.181C239.689 131.181 239.138 131.736 239.138 132.414C239.138 133.092 239.689 133.647 240.361 133.647C241.034 133.647 241.585 133.092 241.585 132.414Z" fill="#231F20"/>
<path d="M230.87 129.853C231.327 129.957 231.794 129.665 231.897 129.194C232 128.723 231.71 128.262 231.243 128.159C231.066 128.121 229.478 127.782 228.226 128.177C227.768 128.319 227.525 128.808 227.666 129.269C227.778 129.637 228.123 129.872 228.488 129.872C228.572 129.872 228.665 129.862 228.749 129.834C229.44 129.618 230.515 129.778 230.879 129.853H230.87Z" fill="#231F20"/>
<path d="M244.35 127.545C242.323 127.235 240.651 127.235 239.221 127.555C238.754 127.658 238.465 128.12 238.568 128.59C238.661 128.995 239.016 129.268 239.408 129.268C239.474 129.268 239.53 129.268 239.595 129.249C240.81 128.976 242.276 128.976 244.088 129.259C244.555 129.324 244.995 129.004 245.069 128.534C245.144 128.063 244.817 127.621 244.35 127.545Z" fill="#231F20"/>
<path d="M244.227 141.892C244.171 141.779 244.097 141.675 244.003 141.591C243.742 141.346 243.275 141.308 243.05 141.581C242.817 141.854 243.004 142.749 242.817 143.116C242.527 143.709 242.275 143.803 241.658 144.123C241.285 144.311 240.892 144.518 240.64 144.857C239.603 146.288 241.808 146.815 242.761 146.345C244.283 145.592 244.508 144.076 244.386 142.56C244.368 142.334 244.321 142.099 244.218 141.892H244.227Z" fill="#231F20"/>
<path d="M235.007 139.832C234.502 139.464 233.559 138.768 233.11 138.382C233.297 137.77 233.652 137.13 234.016 136.461C234.511 135.567 235.016 134.645 235.203 133.647C235.296 133.176 234.988 132.724 234.521 132.63C234.063 132.545 233.605 132.847 233.512 133.317C233.372 134.042 232.951 134.814 232.503 135.624C232.008 136.518 231.504 137.44 231.317 138.438C231.186 139.116 231.532 139.427 233.988 141.234C234.343 141.498 234.642 141.714 234.782 141.827C234.941 141.959 235.128 142.025 235.324 142.025C235.576 142.025 235.819 141.912 235.997 141.705C236.296 141.338 236.24 140.792 235.866 140.481C235.717 140.359 235.399 140.123 235.007 139.832Z" fill="#231F20"/>
<path d="M262.325 173.23C259.476 181.796 254.496 190.56 251.106 198.919C244.94 196.105 231.862 178.567 234.496 178.511C240.886 178.379 259.186 175.498 262.325 173.23Z" fill="#35A2DB"/>
<path d="M313.954 175.423C311.6 171.978 308.798 168.843 305.304 166.216C299.886 162.14 293.412 159.862 286.78 158.799C280.876 157.857 274.851 158.309 268.965 157.452C266.686 157.123 265.864 156.445 264.734 158.883C263.547 161.444 263.062 164.644 262.071 167.337C260.922 170.443 259.773 173.54 258.624 176.647C256.308 182.888 253.982 189.176 250.563 194.871C242.66 184.686 234.766 174.491 226.863 164.306C225.938 163.11 219.717 168.382 218.288 169.248C215.261 171.093 212.468 173.295 210.049 175.903C205.312 180.977 202.052 187.397 201.071 194.316C200.436 198.787 200.445 203.287 200.707 207.796C200.978 212.456 201.51 217.116 201.893 221.766C202.641 230.906 199.072 250.232 199.072 250.232H319.139C324.622 250.232 329.125 250.712 333.067 246.213C342.913 234.982 331.759 215.788 326.995 204.407C322.903 194.636 319.839 184.046 313.963 175.432L313.954 175.423Z" fill="#25536A"/>
<path d="M250.133 236.252C241.006 237.043 231.758 236.318 222.865 234.115C218.437 239.584 208.928 250.222 208.928 250.222H222.118C222.118 250.222 223.725 246.033 225.107 244.978C226.499 243.924 228.62 243.632 229.909 244.809C230.581 245.421 232.636 250.222 232.636 250.222H252.739L250.133 236.252Z" fill="#F8A99C"/>
<path d="M336.411 225.449C336.28 224.988 335.804 224.715 335.355 224.847C334.898 224.978 334.627 225.449 334.758 225.91C337.158 234.637 336.392 241.085 332.413 245.632C329.078 249.435 325.332 249.397 320.587 249.369H253.487C253.132 246.978 252.777 244.587 252.412 242.205L252.095 240.115C251.983 239.39 251.796 238.562 251.6 237.677C251.161 235.757 250.628 233.403 250.908 231.784C257.083 230.25 263.146 229.44 269.554 228.584C271.207 228.367 272.87 228.141 274.533 227.906C278.214 227.388 281.838 226.409 285.332 225.468C291.908 223.698 298.13 222.022 304.846 223.03C305.304 223.105 305.752 222.776 305.827 222.295C305.892 221.825 305.575 221.382 305.108 221.307C303.137 221.015 301.194 220.949 299.279 221.043C299.279 221.025 299.279 220.996 299.26 220.978L293.225 207.864C292.31 205.878 291.366 203.835 290.862 201.717C290.619 200.691 290.47 199.646 290.32 198.554C290.124 197.133 289.918 195.655 289.479 194.234C289.339 193.782 288.854 193.518 288.405 193.659C287.947 193.801 287.695 194.29 287.835 194.742C288.237 196.032 288.424 197.378 288.62 198.79C288.769 199.882 288.928 201.011 289.19 202.122C289.732 204.41 290.712 206.537 291.665 208.599L297.448 221.166C293.141 221.571 288.975 222.691 284.893 223.792C281.436 224.724 277.868 225.684 274.299 226.193C272.637 226.428 270.983 226.644 269.33 226.87C265.631 227.36 261.857 227.887 258.083 228.546C256.625 224.14 255.822 220.121 254.897 215.489L254.729 214.623C254.309 212.543 253.804 209.06 253.253 205.379C252.665 201.388 252.057 197.284 251.562 194.883C254.888 189.216 257.205 182.994 259.437 176.96L262.884 167.65C263.305 166.52 263.762 164.976 264.239 163.338C264.93 160.994 265.64 158.575 266.312 157.116C266.509 156.683 266.322 156.165 265.892 155.968C265.462 155.76 264.949 155.949 264.752 156.391C264.024 157.963 263.295 160.448 262.585 162.849C262.109 164.459 261.66 165.974 261.268 167.047L257.821 176.357C255.701 182.081 253.515 187.983 250.46 193.349C246.779 188.595 243.005 183.69 239.231 178.795C235.149 173.486 231.058 168.177 227.088 163.056C226.798 162.679 226.256 162.614 225.882 162.905C225.509 163.197 225.443 163.743 225.733 164.12C229.703 169.241 233.785 174.55 237.868 179.859C241.903 185.112 245.948 190.355 249.871 195.42C249.871 195.429 249.89 195.439 249.899 195.448C250.385 197.83 250.964 201.783 251.534 205.643C252.085 209.352 252.599 212.854 253.02 214.981L253.197 215.847C254.075 220.262 254.925 224.451 256.364 228.876C254.225 229.28 252.095 229.713 249.974 230.259C249.685 230.335 249.451 230.551 249.367 230.843C248.956 232.18 249.077 233.818 249.367 235.474C240.521 236.171 231.684 235.456 223.061 233.319C222.744 233.243 222.398 233.356 222.193 233.611C218.213 238.524 210.021 247.731 208.535 249.397H200.081C200.333 247.929 200.829 245.029 201.324 241.574C201.389 241.104 201.062 240.661 200.595 240.595C200.109 240.529 199.689 240.859 199.623 241.33C198.923 246.272 198.222 250.065 198.213 250.103C198.166 250.357 198.232 250.621 198.4 250.818C198.568 251.016 198.801 251.129 199.063 251.129L321.95 251.148C321.95 251.148 329.779 251.845 333.702 246.818C337.812 241.556 338.989 234.815 336.411 225.487V225.449ZM223.183 235.088C231.88 237.188 240.801 237.875 249.713 237.15C249.778 237.461 249.853 237.762 249.918 238.054C250.114 238.901 250.292 239.701 250.395 240.36L250.712 242.459C251.058 244.756 251.403 247.053 251.749 249.359H233.206C232.478 247.684 231.142 244.775 230.488 244.173C228.788 242.619 226.181 243.081 224.584 244.285C223.323 245.246 222.043 248.107 221.529 249.35H210.852C213.524 246.347 219.689 239.353 223.183 235.079V235.088ZM225.621 245.669C226.676 244.869 228.358 244.558 229.32 245.443C229.619 245.754 230.497 247.533 231.31 249.35H223.398C224.042 247.891 224.939 246.178 225.612 245.66L225.621 245.669Z" fill="#25536A"/>
<path d="M127.537 183.235H230.219C233.04 183.235 235.338 185.542 235.338 188.394V249.921H122.418V188.394C122.418 185.551 124.707 183.235 127.537 183.235Z" fill="#231F20"/>
<path d="M365.185 251.556H1.82845C1.09981 251.556 0.501953 250.963 0.501953 250.22C0.501953 249.476 1.09047 248.883 1.82845 248.883H365.185C365.913 248.883 366.511 249.476 366.511 250.22C366.511 250.963 365.923 251.556 365.185 251.556Z" fill="#231F20"/>
<path d="M56.1488 256.423C59.5539 252.496 59.1556 246.532 55.2591 243.1C51.3627 239.669 45.4436 240.07 42.0385 243.997C38.6334 247.923 39.0317 253.888 42.9282 257.319C46.8247 260.751 52.7437 260.349 56.1488 256.423Z" fill="#709EB3"/>
<path d="M49.0876 260.998C43.1931 260.998 38.3916 256.169 38.3916 250.22C38.3916 244.27 43.1931 239.441 49.0876 239.441C54.9821 239.441 59.7836 244.28 59.7836 250.22C59.7836 256.159 54.9914 260.998 49.0876 260.998ZM49.0876 242.114C44.6504 242.114 41.0446 245.748 41.0446 250.22C41.0446 254.691 44.6504 258.325 49.0876 258.325C53.5248 258.325 57.1307 254.691 57.1307 250.22C57.1307 245.748 53.5248 242.114 49.0876 242.114Z" fill="#231F20"/>
<path d="M180.746 194.361C162.489 194.361 147.688 202.916 147.688 213.472C147.688 220.547 154.345 226.698 164.217 230.005L158.707 237.993L173.961 232.178C176.15 232.444 178.419 232.583 180.746 232.583C199.002 232.583 213.804 224.027 213.804 213.472C213.804 202.916 199.002 194.361 180.746 194.361Z" fill="#D9D9D9"/>
<path d="M171.205 207.211L166.319 220.534H163.074L158.187 207.211H161.05L164.715 217.805L168.361 207.211H171.205ZM178.992 220.668C177.745 220.668 176.599 220.375 175.556 219.79C174.512 219.204 173.685 218.396 173.075 217.366C172.464 216.322 172.158 215.145 172.158 213.834C172.158 212.536 172.464 211.372 173.075 210.341C173.685 209.298 174.512 208.483 175.556 207.898C176.599 207.313 177.745 207.02 178.992 207.02C180.252 207.02 181.397 207.313 182.428 207.898C183.471 208.483 184.292 209.298 184.89 210.341C185.501 211.372 185.806 212.536 185.806 213.834C185.806 215.145 185.501 216.322 184.89 217.366C184.292 218.396 183.471 219.204 182.428 219.79C181.384 220.375 180.239 220.668 178.992 220.668ZM178.992 218.282C179.793 218.282 180.5 218.104 181.111 217.747C181.721 217.378 182.199 216.857 182.542 216.182C182.886 215.508 183.057 214.725 183.057 213.834C183.057 212.944 182.886 212.167 182.542 211.506C182.199 210.831 181.721 210.316 181.111 209.959C180.5 209.603 179.793 209.425 178.992 209.425C178.19 209.425 177.477 209.603 176.854 209.959C176.243 210.316 175.766 210.831 175.422 211.506C175.079 212.167 174.907 212.944 174.907 213.834C174.907 214.725 175.079 215.508 175.422 216.182C175.766 216.857 176.243 217.378 176.854 217.747C177.477 218.104 178.19 218.282 178.992 218.282ZM190.467 207.211V220.534H187.794V207.211H190.467ZM202.823 211.334C202.823 212.046 202.651 212.715 202.307 213.338C201.976 213.962 201.448 214.464 200.723 214.846C200.01 215.228 199.107 215.419 198.012 215.419H195.779V220.534H193.107V207.211H198.012C199.043 207.211 199.921 207.389 200.647 207.745C201.372 208.102 201.913 208.592 202.269 209.215C202.638 209.839 202.823 210.545 202.823 211.334ZM197.898 213.262C198.636 213.262 199.183 213.096 199.539 212.765C199.896 212.422 200.074 211.945 200.074 211.334C200.074 210.036 199.349 209.387 197.898 209.387H195.779V213.262H197.898Z" fill="#25536A"/>
</g>
</g>
<defs>
<clipPath id="clip0_355_11856">
<rect width="366" height="261" fill="white" transform="translate(0.5)"/>
</clipPath>
<clipPath id="clip1_355_11856">
<rect width="366" height="261" fill="white" transform="translate(0.5)"/>
</clipPath>
</defs>
</svg>
