<svg width="366" height="260" viewBox="0 0 366 260" fill="none" xmlns="http://www.w3.org/2000/svg">
<g clip-path="url(#clip0_1_773)">
<mask id="mask0_1_773" style="mask-type:luminance" maskUnits="userSpaceOnUse" x="0" y="0" width="366" height="260">
<path d="M365.766 0.693359H0.251465V259.305H365.766V0.693359Z" fill="white"/>
</mask>
<g mask="url(#mask0_1_773)">
<g style="mix-blend-mode:hard-light" opacity="0.35">
<path d="M334.046 109.107C339.812 126.913 342.583 145.232 342.07 164.568C341.771 175.658 340.428 186.861 336.174 197.27C315.155 248.589 271.047 248.636 271.047 248.636H98.1783C98.1783 248.636 76.4975 233.208 52.8948 210.823C28.2846 187.476 22.883 158.151 33.1264 128.611C41.42 104.686 60.9552 85.6955 84.3806 75.3794C103.99 66.7515 106.239 64.1865 114.467 55.6986C123.917 45.9421 129.216 30.6545 139.674 21.6629C173.399 -7.33606 223.524 -3.52115 261.69 16.5235C288.101 30.4026 307.393 53.0123 320.445 77.4407C326.014 87.8781 330.567 98.3994 334.037 109.098L334.046 109.107Z" fill="#32274F"/>
</g>
<path d="M247.543 27.3217H117.178C112.19 27.3217 108.147 31.3641 108.147 36.3506V118.87C108.147 123.857 112.19 127.899 117.178 127.899H247.543C252.53 127.899 256.573 123.857 256.573 118.87V36.3506C256.573 31.3641 252.53 27.3217 247.543 27.3217Z" fill="#E8DFFF"/>
<path d="M247.542 128.562H117.177C111.832 128.562 107.484 124.215 107.484 118.871V36.3604C107.484 31.0158 111.832 26.6693 117.177 26.6693H247.542C252.888 26.6693 257.235 31.0158 257.235 36.3604V118.871C257.235 124.215 252.888 128.562 247.542 128.562ZM117.177 27.9844C112.559 27.9844 108.809 31.7434 108.809 36.3511V118.871C108.809 123.488 112.569 127.237 117.177 127.237H247.542C252.16 127.237 255.911 123.478 255.911 118.871V36.3604C255.911 31.7434 252.151 27.9937 247.542 27.9937H117.177V27.9844Z" fill="#231F20"/>
<path d="M108.517 85.2628C106.781 83.4347 105.186 81.793 103.05 80.4406C101.035 79.1627 88.2632 71.1038 89.364 68.6228C90.3622 66.3842 97.5083 70.8613 97.5083 70.8613C97.5083 70.8613 85.763 59.7617 87.8061 57.8589C89.2054 56.5531 100.68 66.6174 100.68 66.6174C100.68 66.6174 89.1308 53.5124 90.9966 52.048C94.1499 49.5669 104.281 62.7931 104.281 62.7931C104.281 62.7931 95.2041 48.4103 98.0868 47.0671C100.718 45.8452 112.015 64.4721 113.275 64.1736C113.844 64.043 115.514 54.3238 117.799 54.9674C122.492 56.2919 117.818 63.5113 119.031 70.8427C120.15 77.5864 125.207 83.0149 129.125 88.0984C129.209 88.201 120.048 96.5863 118.378 96.008C116.661 95.4111 108.554 85.3095 108.507 85.2628H108.517Z" fill="#F8A99C"/>
<path d="M118.49 96.6812C118.369 96.6812 118.266 96.6625 118.164 96.6346C116.699 96.1216 111.885 90.4691 108.107 85.8241L108.014 85.7122C106.157 83.7627 104.693 82.2797 102.687 81.0018L102.528 80.8992C87.4337 71.3013 88.3946 69.156 88.7491 68.3539C88.945 67.9062 89.3181 67.589 89.8126 67.4398C90.8201 67.132 92.3781 67.5704 93.8708 68.2046C90.8295 65.0706 86.8926 60.5935 86.8926 58.4762C86.8926 57.9072 87.1351 57.5714 87.3404 57.3755C88.236 56.5454 90.9601 57.9072 95.466 61.4143C92.7513 57.9725 89.9805 54.0176 90.1298 52.404C90.1764 51.9376 90.4003 51.6765 90.5776 51.5272C91.044 51.1541 91.6318 51.0142 92.3035 51.0982C94.4492 51.3687 97.4998 54.1016 100.056 56.8159C98.1901 53.2715 96.4363 49.2513 96.9494 47.4885C97.1266 46.8822 97.5091 46.593 97.7983 46.4625C99.5988 45.623 102.519 49.1021 108.807 57.73C110.383 59.8939 112.147 62.3097 113.005 63.2051C113.145 62.7761 113.322 62.1698 113.481 61.6102C114.497 58.0844 115.776 53.7192 117.968 54.3255C121.298 55.2582 120.748 58.5321 120.114 62.319C119.684 64.8934 119.19 67.8036 119.675 70.7324C120.599 76.3195 124.284 80.9365 127.847 85.4137C128.463 86.1785 129.06 86.9434 129.639 87.6896C129.816 87.9228 129.816 88.2679 129.639 88.5011C129.573 88.5943 121.168 96.6719 118.472 96.6719L118.49 96.6812ZM108.993 84.8074C108.993 84.8074 109.049 84.8727 109.133 84.9846C114.684 91.831 117.884 95.1422 118.593 95.3847C119.815 95.4686 126.56 89.7323 128.258 88.0627C127.791 87.4657 127.306 86.8501 126.821 86.2438C123.323 81.8506 119.367 76.8791 118.388 70.9562C117.865 67.8222 118.378 64.7908 118.826 62.1138C119.479 58.243 119.712 56.2003 117.632 55.6126C117.203 55.5007 116.363 56.4987 114.777 61.9926C114.143 64.1752 113.994 64.6975 113.443 64.8281C112.641 65.0333 111.941 64.2498 107.771 58.5228C105.15 54.9317 99.7015 47.4698 98.3674 47.6843C98.3487 47.6843 98.2928 47.7217 98.2461 47.8802C97.6491 49.9136 101.978 57.8978 104.851 62.4496C105.038 62.7481 104.963 63.1399 104.674 63.3451C104.385 63.5503 103.984 63.485 103.769 63.2051C101.567 60.3323 95.2048 52.8051 92.1635 52.4227C91.8463 52.3854 91.6038 52.432 91.4172 52.5812C91.1093 53.7378 96.2404 60.5655 101.194 66.1899C101.427 66.4511 101.409 66.8428 101.166 67.0947C100.924 67.3372 100.522 67.3558 100.261 67.1227C95.4194 62.8787 89.5234 58.4109 88.236 58.4109C88.2453 58.4295 88.2453 58.4575 88.2453 58.4948C88.2453 60.4536 94.2159 66.8335 97.9756 70.3966C98.2181 70.6298 98.2554 71.0122 98.0409 71.2827C97.8356 71.5532 97.4531 71.6185 97.1639 71.4412C95.1582 70.182 91.4918 68.3352 90.2137 68.727C90.0551 68.7736 90.0085 68.8482 89.9805 68.9135C89.9805 68.9322 89.2902 70.9189 103.265 79.8079L103.424 79.9105C105.551 81.263 107.146 82.8766 109.012 84.8354L108.993 84.8074Z" fill="#231F20"/>
<path d="M112.874 68.5889C112.631 68.3184 112.212 68.2998 111.941 68.5516C110.085 70.2492 109.711 72.665 109.534 73.8216C109.516 73.8216 109.488 73.8216 109.469 73.8123C108.247 73.6071 105.691 73.1967 103.34 73.9988C102.994 74.1201 102.808 74.4932 102.929 74.8383C103.022 75.1088 103.284 75.286 103.554 75.286C103.629 75.286 103.694 75.2767 103.769 75.2487C105.812 74.5491 108.135 74.9316 109.254 75.1181C109.926 75.23 110.178 75.2674 110.448 75.0622C110.71 74.857 110.756 74.5771 110.84 74.0175C110.99 73.0101 111.316 70.9115 112.827 69.5217C113.098 69.2792 113.117 68.8594 112.865 68.5889H112.874Z" fill="#231F20"/>
<path d="M235.385 46.9591L220.496 47.8359C219.097 47.9198 217.94 48.9738 217.725 50.3636L212.8 82.7204C212.622 83.9143 213.602 84.9589 214.796 84.8563L231.066 83.5318L237.354 49.1883C237.578 47.9851 236.608 46.8845 235.376 46.9591H235.385Z" fill="#231F20"/>
<path d="M237.166 71.6304C236.644 69.7183 236.112 67.8061 235.589 65.8847C235.16 64.3177 234.964 61.8832 234.115 60.5121C232.949 58.628 229.46 59.1317 229.843 62.247C229.74 61.4262 228.807 61.0251 227.977 60.9971C227.165 60.9692 225.868 61.3236 225.467 62.3962C225.178 63.1704 225.281 64.7561 225.281 64.7561C225.281 64.7561 223.499 63.7954 222.016 64.7467C220.094 65.978 221.409 71.0707 222.025 72.9829C222.398 74.1394 222.93 75.296 222.809 76.4993C222.687 77.6652 221.978 78.6632 221.363 79.6613C217.463 85.9386 218.023 93.0181 216.549 99.967C216.409 100.62 227.296 103.959 227.277 104.146C227.688 99.3701 227.809 94.1001 229.488 89.5576C230.486 86.8714 232.175 83.8026 233.733 81.4055C234.115 80.8179 234.563 80.2489 235.02 79.6799C236.252 78.1409 237.53 76.5926 237.642 74.5685C237.698 73.5705 237.427 72.5911 237.166 71.6304Z" fill="#F8A99C"/>
<path d="M233.753 73.3743L233.361 71.8633C232.372 68.067 231.588 65.0729 229.872 60.5118C229.741 60.1667 229.359 59.9988 229.023 60.1294C228.678 60.26 228.51 60.6424 228.64 60.9782C230.329 65.474 231.103 68.4401 232.083 72.1991L232.475 73.7101C232.549 74.0086 232.82 74.2045 233.109 74.2045C233.165 74.2045 233.221 74.2045 233.277 74.1858C233.631 74.0925 233.837 73.7288 233.753 73.3743Z" fill="#231F20"/>
<path d="M225.086 62.9475C224.955 62.6024 224.573 62.4345 224.237 62.5651C223.892 62.6957 223.724 63.0781 223.854 63.4139C224.946 66.2867 226.485 71.6127 227.371 75.1664C227.446 75.4649 227.717 75.6701 228.015 75.6701C228.071 75.6701 228.118 75.6701 228.174 75.6514C228.528 75.5675 228.743 75.2037 228.659 74.8493C227.763 71.2676 226.205 65.8763 225.095 62.9475H225.086Z" fill="#231F20"/>
<path d="M179.811 80.9384C178.972 79.8097 179.13 76.1068 179.419 73.1313C185.362 70.0253 187.489 61.4348 184.196 55.4932C179.485 46.9959 167.571 48.4044 162.58 55.9036C158.494 62.041 162.291 69.391 168.178 72.6463C167.963 75.5751 167.338 79.875 166.853 81.3488C166.806 81.498 159.446 81.2928 168.672 88.7827C172.161 91.6182 179.149 99.0429 183.515 101.655C190.605 80.3787 180.492 81.8524 179.802 80.929L179.811 80.9384Z" fill="#F8A99C"/>
<path d="M183.86 50.0267C182.647 48.2451 180.753 47.0139 178.748 46.2491C175.734 45.1111 172.385 45.0831 169.297 45.9692C170.958 40.9511 170.053 35.4852 164.567 33.1534C159.866 31.1573 154.035 31.9595 150.21 35.3453C146.394 38.7405 144.93 44.6168 146.945 49.3085C148.895 53.8416 154.063 56.7984 158.923 56.0522C157.906 59.6246 158.177 63.5887 159.735 66.9466C164.082 76.302 169.54 60.8558 166.461 58.2721C167.478 59.1302 169.111 59.7738 171.005 60.1469C176.145 61.1729 183.16 60.2122 184.756 56.1828C185.549 54.1774 185.092 51.8175 183.879 50.036L183.86 50.0267Z" fill="#231F20"/>
<path d="M215.092 90.1526C213.17 96.2807 210.446 107.138 207.311 112.688C207.311 107.595 205.436 100.45 204.186 97.2321C202.572 93.072 200.501 89.0239 196.816 86.3283C194.587 84.696 191.974 83.6793 189.297 83.0264C188.037 82.7186 180.761 81.7672 180.36 80.6013C182.244 86.0951 183.597 92.4564 182.319 98.1275C178.037 91.4957 172.001 84.9292 165.629 80.2748C163.119 81.5807 161.132 82.0097 158.968 82.672C153.081 84.5002 149.387 87.5689 146.719 91.589C144.452 94.695 142.782 97.8663 140.506 100.926C136.14 92.0367 130.654 83.4835 124.702 75.5552C117.733 80.4427 112.966 83.754 106.762 88.7161C116.735 99.0882 133.257 127.901 133.257 127.901H222.145L235.383 91.0946C235.383 91.0946 220.279 90.3578 215.083 90.1432L215.092 90.1526Z" fill="#80C9FF"/>
<path d="M193.198 91.7848C192.899 91.5796 192.489 91.6542 192.283 91.9526C192.078 92.2511 192.153 92.6615 192.451 92.8667C197.843 96.579 199.756 105.291 197.834 117.379C197.61 118.816 197.349 120.317 197.097 121.744C196.659 124.3 196.276 126.511 196.146 127.835C196.108 128.199 196.379 128.525 196.743 128.553C196.761 128.553 196.789 128.553 196.808 128.553C197.144 128.553 197.433 128.292 197.461 127.956C197.582 126.679 197.974 124.384 198.394 121.968C198.646 120.532 198.907 119.03 199.131 117.584C201.137 104.964 199.028 95.7955 193.188 91.7754L193.198 91.7848Z" fill="#231F20"/>
<path d="M215.364 89.8535C215.009 89.7509 214.645 89.9561 214.543 90.3105C210.671 103.984 206.968 113.433 203.217 119.179C203.021 119.487 203.105 119.897 203.413 120.093C203.525 120.168 203.646 120.196 203.777 120.196C203.992 120.196 204.206 120.093 204.327 119.897C208.152 114.03 211.903 104.47 215.821 90.6649C215.923 90.3105 215.718 89.9467 215.364 89.8535Z" fill="#231F20"/>
<path d="M180.136 79.9754C179.791 80.0966 179.604 80.4697 179.726 80.8149C181.825 86.9336 182.562 92.0544 181.955 96.3916C177.608 90.021 171.861 84.0048 166.012 79.7329C165.713 79.5183 165.303 79.5836 165.088 79.8728C164.874 80.1713 164.939 80.5817 165.228 80.7962C171.367 85.2827 177.393 91.7279 181.75 98.4716C181.871 98.6582 182.086 98.7701 182.3 98.7701C182.338 98.7701 182.375 98.7701 182.412 98.7608C182.674 98.7141 182.879 98.5183 182.944 98.2571C184.054 93.3416 183.411 87.4933 180.966 80.3671C180.845 80.022 180.472 79.8355 180.127 79.9567L180.136 79.9754Z" fill="#231F20"/>
<path d="M222.145 127.247H156.524C157.317 124.831 159.575 117.975 160.471 114.962C160.573 114.617 160.377 114.244 160.023 114.142C159.678 114.039 159.305 114.235 159.202 114.589C158.25 117.779 155.769 125.325 155.125 127.247H133.631C131.784 124.057 117.1 98.882 107.724 88.7897C113.415 84.2659 118.004 81.048 124.283 76.6548L124.544 76.4682C130.384 84.3125 135.291 92.1289 139.144 99.7214C139.396 100.225 140.87 102.865 140.87 102.865C142.12 105.197 142.941 106.745 144.434 109.907C144.546 110.149 144.779 110.289 145.031 110.289C145.124 110.289 145.218 110.271 145.311 110.224C145.637 110.066 145.787 109.674 145.628 109.347C144.117 106.157 143.286 104.6 142.036 102.249C142.036 102.249 140.236 98.9752 139.919 98.3596C136.01 90.7764 131.075 82.9787 125.216 75.1717C125.001 74.8825 124.6 74.8266 124.311 75.0225L123.518 75.5728C117.016 80.1245 112.323 83.4171 106.334 88.2114C106.194 88.3233 106.101 88.5006 106.091 88.6871C106.082 88.8736 106.147 89.0509 106.278 89.1908C116.083 99.3856 132.511 127.955 132.679 128.245C132.8 128.45 222.808 128.282 222.808 127.918C222.808 127.554 222.509 127.256 222.145 127.256V127.247Z" fill="#231F20"/>
<path d="M124.224 158.702C118.459 167.181 102.525 178.206 101.676 178.094C100.874 177.992 88.1859 160.213 84.333 151.241L105.603 154.748L124.224 158.702Z" fill="#D9D9D9"/>
<path d="M124.225 159.559C124.169 159.559 124.104 159.559 124.048 159.541L105.427 155.586L84.194 152.088C83.7276 152.013 83.4104 151.566 83.485 151.099C83.5596 150.633 84.0074 150.307 84.4739 150.39L105.744 153.898L124.403 157.862C124.869 157.964 125.158 158.412 125.065 158.878C124.981 159.279 124.626 159.559 124.225 159.559Z" fill="#231F20"/>
<path d="M125.243 115.627C115.186 109.863 94.5033 116.308 92.1524 130.645C91.2755 136.008 93.2439 141.492 96.789 145.578C95.5482 152.163 93.2719 159.718 87.4785 158.226L102.097 180.705L119.337 165.212C115.074 162.619 116.576 155.661 117.724 150.241C124.105 147.135 128.881 140.438 128.713 133.266C128.555 126.251 130.094 118.416 125.224 115.627H125.243Z" fill="#F8A99C"/>
<path d="M122.342 109.676C111.632 109.611 101.725 108.846 90.9869 109.723C91.4534 109.686 85.4361 130.588 93.2446 130.178C97.0322 129.973 105.335 126.018 105.027 122.017C105.326 125.915 115.037 125.356 117.5 125.496C123.126 125.813 127.902 125.757 131.783 120.916C134.498 117.53 135.813 113.258 137.063 109.098C132.744 109.434 127.66 109.714 122.342 109.676Z" fill="#231F20"/>
<path d="M110.903 132.47C110.903 133.17 111.472 133.739 112.172 133.739C112.872 133.739 113.441 133.17 113.441 132.47C113.441 131.771 112.872 131.202 112.172 131.202C111.472 131.202 110.903 131.771 110.903 132.47Z" fill="#231F20"/>
<path d="M122.78 131.595C122.08 131.595 121.511 132.164 121.511 132.863C121.511 133.563 122.08 134.132 122.78 134.132C123.48 134.132 124.049 133.563 124.049 132.863C124.049 132.164 123.48 131.595 122.78 131.595Z" fill="#231F20"/>
<path d="M125.813 128.489L122.323 127.323C121.866 127.173 121.391 127.416 121.241 127.864C121.092 128.311 121.335 128.796 121.782 128.946L125.271 130.112C125.365 130.14 125.458 130.158 125.542 130.158C125.906 130.158 126.232 129.934 126.354 129.571C126.503 129.123 126.26 128.638 125.813 128.489Z" fill="#231F20"/>
<path d="M109.673 129.58C109.738 129.58 109.803 129.58 109.869 129.561C110.27 129.468 110.69 129.384 111.109 129.291C112.182 129.067 113.283 128.834 114.085 128.498C114.524 128.311 114.72 127.808 114.533 127.369C114.347 126.931 113.843 126.726 113.404 126.921C112.761 127.201 111.744 127.406 110.755 127.612C110.316 127.705 109.887 127.789 109.477 127.891C109.01 128.003 108.731 128.46 108.833 128.927C108.926 129.319 109.281 129.589 109.673 129.589V129.58Z" fill="#231F20"/>
<path d="M121.111 135.56C120.766 134.599 120.411 133.61 120.271 132.911C120.178 132.444 119.721 132.155 119.255 132.248C118.788 132.342 118.49 132.799 118.592 133.265C118.76 134.077 119.133 135.131 119.497 136.138C119.796 136.977 120.104 137.836 120.271 138.507C120.029 138.74 119.516 139.123 119.161 139.384C118.76 139.682 118.34 139.99 118.005 140.289C117.641 140.597 117.603 141.138 117.911 141.501C118.079 141.697 118.322 141.8 118.564 141.8C118.76 141.8 118.956 141.734 119.124 141.595C119.441 141.324 119.824 141.044 120.197 140.764C121.447 139.832 122.203 139.272 122.025 138.442C121.857 137.63 121.484 136.576 121.12 135.56H121.111Z" fill="#231F20"/>
<path d="M115.28 144.419C114.944 144.204 114.412 144.325 113.964 144.307C113.367 144.279 112.854 143.962 112.574 143.589C112.332 143.262 112.36 142.376 111.809 142.264C110.578 142.012 110.643 143.738 110.82 144.186C111.175 145.044 112.108 146.172 113.554 146.219C113.964 146.228 114.524 146.06 114.963 145.799C115.588 145.426 115.961 144.866 115.28 144.437V144.419Z" fill="#231F20"/>
<path d="M112.453 150.845H106.333C105.857 150.845 105.475 151.227 105.475 151.703C105.475 152.179 105.857 152.561 106.333 152.561H112.453C112.929 152.561 113.311 152.179 113.311 151.703C113.311 151.227 112.929 150.845 112.453 150.845Z" fill="#231F20"/>
<path d="M38.3594 174.363C40.8782 170.977 43.8262 167.946 47.2407 165.39C54.1909 160.195 62.7364 158.05 71.2725 157.425C74.1272 157.21 77.0752 158.227 79.9113 157.686C83.4377 157.005 83.7735 154.589 84.3239 151.241C84.3239 151.222 104.064 171.985 104.064 171.985L124.215 158.702C124.215 158.702 123.422 162.639 123.628 163.133C124.271 164.653 126.314 165.595 127.658 166.304C131.1 168.132 134.543 169.289 138.414 171.341C146.101 175.426 150.104 184.549 151.344 193.223C151.979 197.654 151.969 202.112 151.708 206.58C151.438 211.197 150.906 215.814 150.523 220.422C149.777 229.479 153.341 248.628 153.341 248.628H14.1689C14.1689 248.628 20.746 217.614 25.6158 202.765C28.8623 192.859 32.2021 182.627 38.3594 174.363Z" fill="#D9D9D9"/>
<path d="M109.531 169.437C109.251 169.437 108.981 169.297 108.813 169.055C108.552 168.663 108.664 168.122 109.055 167.861C113.851 164.699 123.637 158.048 123.739 157.983C124.029 157.787 124.411 157.787 124.7 157.983C124.989 158.179 125.139 158.524 125.064 158.869C124.738 160.492 124.411 162.507 124.458 162.917C124.878 163.887 126.482 164.718 127.658 165.333L128.068 165.548C128.926 166.005 129.859 166.452 130.988 166.965C131.417 167.161 131.613 167.665 131.417 168.103C131.221 168.532 130.708 168.728 130.279 168.532C129.113 168.01 128.152 167.534 127.256 167.068L126.855 166.854C125.456 166.126 123.534 165.119 122.834 163.468C122.76 163.29 122.601 162.917 122.993 160.567C119.952 162.628 113.589 166.937 109.998 169.297C109.848 169.391 109.69 169.437 109.522 169.437H109.531Z" fill="#231F20"/>
<path d="M98.5245 167.002C98.3006 167.002 98.0674 166.909 97.8995 166.732C95.1194 163.812 87.7494 156.061 84.8854 153.058C84.3723 155.716 83.5047 157.871 80.0809 158.524C78.3643 158.85 76.6478 158.654 74.9872 158.468C73.7184 158.328 72.5149 158.188 71.3395 158.272C70.873 158.309 70.3972 158.346 69.9308 158.393C69.4737 158.449 69.0352 158.095 68.9979 157.619C68.9512 157.143 69.2964 156.723 69.7722 156.686C70.248 156.64 70.7331 156.602 71.2182 156.565C72.5523 156.462 73.8957 156.621 75.1831 156.77C76.7877 156.957 78.299 157.125 79.7543 156.845C82.5064 156.313 82.8796 154.765 83.4487 151.295L83.4767 151.099C83.5326 150.773 83.7565 150.511 84.0737 150.418C84.4158 150.312 86.3438 152.106 89.8578 155.8L99.1403 165.557C99.4668 165.902 99.4574 166.443 99.1123 166.769C98.9443 166.928 98.7298 167.002 98.5245 167.002Z" fill="#231F20"/>
<path d="M110.501 168.431L105.603 175.128C105.603 175.128 104.642 180.669 103.998 183.42C102.329 190.584 101.489 198.223 100.052 205.414C98.4943 213.221 96.0407 220.954 94.0536 228.658C93.7924 229.684 93.5219 230.729 92.9901 231.643C92.3931 232.678 91.4975 233.499 90.6112 234.301C87.3553 237.249 84.0248 240.122 80.629 242.91C80.2559 238.088 79.7521 233.285 79.1364 228.49C79.0617 227.921 78.9871 227.334 79.127 226.774C79.2483 226.289 79.5189 225.86 79.7894 225.44C84.4167 218.24 87.7565 211.561 90.7045 203.512C93.5778 195.667 101.088 173.822 101.088 173.822L96.6471 163.581L110.081 167.312C110.576 167.433 110.79 168.021 110.492 168.431H110.501Z" fill="#00B4FF"/>
<path d="M64.7043 188.663C64.8442 188.747 64.9935 188.784 65.1427 188.784C65.4319 188.784 65.7211 188.635 65.8797 188.364C66.6447 187.096 67.0365 185.641 67.0179 184.167L85.0137 186.732C85.4802 186.797 85.9187 186.471 85.984 186.004C86.0493 185.538 85.7228 185.1 85.2563 185.034L66.1969 182.32C65.9264 182.283 65.6558 182.376 65.4692 182.563C65.2733 182.758 65.1894 183.029 65.2267 183.299C65.4413 184.726 65.1427 186.247 64.4057 187.478C64.1632 187.888 64.2938 188.411 64.6949 188.653L64.7043 188.663Z" fill="#231F20"/>
<path d="M152.529 237.93C152.464 237.463 152.025 237.137 151.559 237.193C151.092 237.258 150.757 237.687 150.822 238.163C151.391 242.398 152.016 246.063 152.315 247.77H49.0971C49.2184 247.649 49.3117 247.5 49.349 247.323C50.5898 240.504 52.3903 233.658 54.2002 226.979C54.3308 226.877 55.8514 218.846 67.4382 206.254C67.7554 205.909 67.7181 205.359 67.3636 205.041C67.009 204.724 66.468 204.762 66.1508 205.116C62.2699 209.5 59.2565 213.026 56.8496 217.092C58.165 212.074 59.3965 206.991 60.3201 201.907C60.404 201.441 60.0962 200.993 59.6297 200.909C59.1726 200.825 58.7155 201.133 58.6315 201.6C57.2508 209.201 55.1704 216.841 53.1646 224.237C51.1495 231.662 49.0598 239.348 47.6698 247.015C47.6138 247.304 47.7258 247.584 47.931 247.77H15.2324C16.4266 242.248 22.136 216.141 26.4274 203.036L26.474 202.887C28.3119 197.281 30.2057 191.582 32.6033 186.191C27.8361 199.286 25.0653 212.886 24.1791 227.427C24.1511 227.903 24.5149 228.304 24.9814 228.332C25 228.332 25.0187 228.332 25.0373 228.332C25.4851 228.332 25.8676 227.977 25.8956 227.52C27.0431 208.586 31.4278 191.265 39.2922 174.578C39.2922 174.559 39.2922 174.541 39.3016 174.522C41.8018 171.23 44.6378 168.375 47.7444 166.053L48.0803 165.81C48.4628 165.53 48.5467 164.989 48.2668 164.607C47.987 164.225 47.4552 164.141 47.0634 164.421L46.7089 164.682C43.3597 167.181 40.3184 170.259 37.6503 173.832C31.4371 182.161 28.0693 192.421 24.8228 202.336L24.7761 202.476C19.953 217.195 13.3759 248.115 13.3106 248.432C13.2547 248.684 13.32 248.945 13.4879 249.151C13.6465 249.356 13.8984 249.468 14.1596 249.468H153.35C153.602 249.468 153.845 249.356 154.012 249.16C154.171 248.964 154.246 248.703 154.199 248.451C154.199 248.404 153.313 243.685 152.538 237.911L152.529 237.93Z" fill="#231F20"/>
<path d="M79.072 224.973C78.8014 225.402 78.4563 225.934 78.2977 226.559C78.1204 227.277 78.2137 227.977 78.2977 228.592C78.9134 233.358 79.4172 238.199 79.7903 242.975C79.8277 243.423 80.2008 243.768 80.6486 243.768C80.6673 243.768 80.6953 243.768 80.7139 243.768C81.1897 243.731 81.5442 243.32 81.5069 242.844C81.1337 238.041 80.63 233.181 80.0049 228.378C79.9396 227.865 79.8743 227.38 79.9769 226.978C80.0702 226.624 80.3034 226.26 80.5273 225.897C85.2012 218.621 88.597 211.803 91.5264 203.8C94.3717 196.03 101.835 174.316 101.91 174.092C101.984 173.887 101.975 173.663 101.882 173.458L97.5157 163.711C97.3198 163.282 96.816 163.086 96.3775 163.282C95.9484 163.478 95.7525 163.981 95.9484 164.42L100.174 173.859C99.2322 176.592 92.5619 195.974 89.9124 203.212C87.0204 211.094 83.6806 217.81 79.0813 224.973H79.072Z" fill="#231F20"/>
<path d="M348.543 115.973C336.825 116.383 326.209 127.371 314.949 124.097C308.959 122.362 304.603 116.868 298.595 115.199C295.329 114.294 291.738 114.63 288.696 116.131C285.795 117.558 283.416 119.984 280.356 121.038C275.197 122.81 269.534 120.226 265.243 116.868C260.952 113.51 257.239 109.266 252.322 106.916C245.102 103.465 236.052 104.827 229.652 109.63C224.167 113.398 216.517 124.675 220.137 131.279C222.413 135.439 228.766 139.459 232.237 142.742C236.528 146.8 242.807 160.716 278.136 165.296C285.637 166.266 293.156 163.421 300.6 162.078C306.189 161.071 311.814 159.905 317.495 160.11C323.177 160.315 329.026 162.069 333.019 166.108C331.032 148.218 336.788 129.6 348.543 115.963V115.973Z" fill="#231F20"/>
<path d="M256.363 153.356C255.495 151.08 254.842 148.73 254.394 146.342C258.396 142.2 260.682 136.362 259.74 130.653C256.96 113.659 234.934 110.263 226.407 120.943C224.261 123.639 224.98 128.181 224.877 132.509C224.793 136.231 226.407 141.566 228.366 144.728C230.53 148.217 233.021 150.427 236.286 151.444C236.426 152.255 236.52 153.076 236.492 153.897C236.417 156.238 235.736 158.495 234.178 160.286C233.245 161.359 231.454 162.17 230.148 162.749C229.336 163.113 225.054 164.642 225.054 164.642C225.054 164.642 244.645 188.875 251.278 200.599C256.484 187.485 262.445 172.645 266.811 158.094C262.445 159.26 257.799 157.115 256.353 153.365L256.363 153.356Z" fill="#F8A99C"/>
<path d="M256.548 111.188C253.264 108.726 248.907 108.119 244.821 108.511C240.25 108.959 235.818 110.619 232.021 113.203C228.896 115.33 226.191 118.09 224.194 121.299C223.793 121.933 223.411 122.652 223.495 123.398C223.83 126.41 232.507 125.608 234.4 125.496C236.863 125.356 246.584 125.916 246.873 122.017C246.575 126.019 256.035 134.507 259.832 134.712C269.105 135.206 259.915 113.716 256.548 111.188Z" fill="#231F20"/>
<path d="M231.378 132.11C231.378 131.438 230.827 130.888 230.156 130.888C229.484 130.888 228.934 131.438 228.934 132.11C228.934 132.781 229.484 133.332 230.156 133.332C230.827 133.332 231.378 132.781 231.378 132.11Z" fill="#231F20"/>
<path d="M241.015 131.895C241.015 131.223 240.465 130.673 239.793 130.673C239.121 130.673 238.571 131.223 238.571 131.895C238.571 132.567 239.121 133.117 239.793 133.117C240.465 133.117 241.015 132.567 241.015 131.895Z" fill="#231F20"/>
<path d="M230.315 129.358C230.772 129.461 231.238 129.172 231.341 128.705C231.443 128.239 231.154 127.782 230.688 127.679C230.51 127.642 228.925 127.306 227.674 127.698C227.217 127.838 226.975 128.323 227.115 128.78C227.227 129.144 227.572 129.377 227.936 129.377C228.02 129.377 228.113 129.368 228.197 129.34C228.887 129.125 229.96 129.284 230.324 129.358H230.315Z" fill="#231F20"/>
<path d="M243.776 127.073C241.752 126.765 240.082 126.765 238.655 127.082C238.188 127.185 237.899 127.642 238.002 128.108C238.095 128.51 238.449 128.78 238.841 128.78C238.907 128.78 238.963 128.78 239.028 128.761C240.241 128.491 241.705 128.491 243.515 128.771C243.982 128.836 244.42 128.519 244.495 128.052C244.569 127.586 244.243 127.148 243.776 127.073Z" fill="#231F20"/>
<path d="M243.654 141.289C243.598 141.177 243.523 141.074 243.43 140.99C243.169 140.748 242.702 140.71 242.478 140.981C242.245 141.251 242.432 142.137 242.245 142.501C241.956 143.089 241.704 143.182 241.088 143.499C240.715 143.686 240.323 143.891 240.072 144.227C239.036 145.645 241.238 146.167 242.189 145.701C243.71 144.954 243.934 143.453 243.813 141.951C243.794 141.727 243.747 141.494 243.645 141.289H243.654Z" fill="#231F20"/>
<path d="M234.446 139.245C233.942 138.881 233 138.191 232.552 137.809C232.738 137.203 233.093 136.568 233.457 135.906C233.951 135.02 234.455 134.106 234.641 133.117C234.735 132.651 234.427 132.203 233.96 132.11C233.503 132.026 233.046 132.324 232.953 132.791C232.813 133.509 232.393 134.274 231.945 135.076C231.451 135.962 230.947 136.876 230.761 137.865C230.63 138.536 230.975 138.844 233.429 140.635C233.783 140.896 234.082 141.111 234.222 141.223C234.38 141.353 234.567 141.419 234.763 141.419C235.015 141.419 235.257 141.307 235.434 141.101C235.733 140.738 235.677 140.197 235.304 139.889C235.155 139.768 234.837 139.534 234.446 139.245Z" fill="#231F20"/>
<path d="M261.727 172.339C258.882 180.827 253.909 189.511 250.523 197.793C244.366 195.004 231.305 177.627 233.936 177.571C240.317 177.441 258.593 174.587 261.727 172.339Z" fill="#35A2DB"/>
<path d="M313.286 174.513C310.935 171.099 308.136 167.993 304.647 165.391C299.237 161.352 292.771 159.095 286.148 158.041C280.252 157.108 274.234 157.556 268.357 156.707C266.081 156.38 265.26 155.709 264.131 158.125C262.946 160.662 262.461 163.833 261.472 166.501C260.325 169.579 259.177 172.647 258.03 175.726C255.716 181.91 253.393 188.14 249.979 193.783C242.086 183.691 234.203 173.59 226.311 163.497C225.387 162.313 219.174 167.536 217.747 168.394C214.724 170.222 211.935 172.405 209.518 174.989C204.788 180.016 201.533 186.377 200.553 193.233C199.919 197.664 199.928 202.122 200.189 206.59C200.46 211.207 200.992 215.824 201.374 220.432C202.12 229.489 198.557 248.638 198.557 248.638H318.464C323.94 248.638 328.437 249.114 332.374 244.655C342.206 233.527 331.067 214.509 326.31 203.232C322.223 193.55 319.163 183.057 313.295 174.522L313.286 174.513Z" fill="#614B98"/>
<path d="M249.552 234.784C240.437 235.568 231.201 234.85 222.32 232.667C217.898 238.086 208.401 248.626 208.401 248.626H221.574C221.574 248.626 223.178 244.476 224.559 243.431C225.949 242.386 228.067 242.097 229.354 243.263C230.026 243.869 232.078 248.626 232.078 248.626H252.154L249.552 234.784Z" fill="#F8A99C"/>
<path d="M335.715 224.078C335.585 223.621 335.109 223.351 334.661 223.481C334.204 223.612 333.933 224.078 334.064 224.535C336.462 233.182 335.697 239.571 331.722 244.076C328.392 247.844 324.651 247.807 319.912 247.779H252.901C252.546 245.41 252.192 243.041 251.828 240.681L251.511 238.61C251.399 237.892 251.212 237.071 251.016 236.195C250.578 234.292 250.046 231.96 250.326 230.356C256.492 228.835 262.547 228.033 268.947 227.184C270.598 226.97 272.259 226.746 273.919 226.513C277.595 226 281.215 225.03 284.704 224.097C291.271 222.343 297.484 220.683 304.192 221.681C304.649 221.756 305.097 221.429 305.172 220.954C305.237 220.487 304.92 220.049 304.453 219.974C302.485 219.685 300.544 219.62 298.632 219.713C298.632 219.694 298.632 219.666 298.613 219.648L292.587 206.655C291.672 204.687 290.73 202.663 290.226 200.564C289.984 199.547 289.835 198.512 289.685 197.43C289.489 196.021 289.284 194.557 288.846 193.149C288.706 192.701 288.221 192.44 287.773 192.58C287.316 192.72 287.064 193.205 287.204 193.652C287.605 194.93 287.792 196.264 287.987 197.663C288.137 198.745 288.295 199.864 288.557 200.965C289.098 203.232 290.077 205.339 291.029 207.382L296.803 219.834C292.503 220.235 288.342 221.345 284.265 222.437C280.813 223.36 277.25 224.311 273.686 224.815C272.025 225.048 270.374 225.263 268.723 225.487C265.028 225.972 261.26 226.494 257.491 227.147C256.035 222.782 255.233 218.799 254.309 214.21L254.141 213.352C253.722 211.29 253.218 207.839 252.667 204.192C252.08 200.237 251.473 196.171 250.979 193.792C254.3 188.177 256.614 182.012 258.843 176.033L262.286 166.808C262.706 165.689 263.163 164.159 263.638 162.536C264.329 160.214 265.038 157.816 265.709 156.371C265.905 155.942 265.719 155.429 265.29 155.233C264.861 155.027 264.347 155.214 264.152 155.652C263.424 157.21 262.696 159.673 261.987 162.051C261.511 163.646 261.064 165.148 260.672 166.211L257.229 175.436C255.112 181.107 252.929 186.955 249.878 192.272C246.202 187.561 242.433 182.702 238.664 177.852C234.588 172.591 230.501 167.33 226.537 162.256C226.247 161.883 225.706 161.818 225.333 162.107C224.96 162.396 224.895 162.937 225.184 163.31C229.149 168.384 233.226 173.645 237.302 178.906C241.333 184.11 245.372 189.306 249.29 194.324C249.29 194.333 249.309 194.342 249.318 194.352C249.803 196.712 250.382 200.629 250.951 204.453C251.501 208.128 252.014 211.598 252.434 213.706L252.611 214.564C253.488 218.939 254.337 223.09 255.774 227.473C253.638 227.875 251.511 228.304 249.393 228.845C249.104 228.919 248.87 229.134 248.786 229.423C248.376 230.747 248.497 232.37 248.786 234.012C239.952 234.702 231.126 233.993 222.516 231.876C222.198 231.801 221.853 231.913 221.648 232.165C217.674 237.034 209.492 246.156 208.009 247.807H199.566C199.818 246.352 200.312 243.479 200.807 240.056C200.872 239.59 200.546 239.151 200.079 239.086C199.594 239.021 199.174 239.347 199.109 239.814C198.409 244.71 197.71 248.469 197.7 248.507C197.654 248.759 197.719 249.02 197.887 249.216C198.055 249.411 198.288 249.523 198.549 249.523L321.274 249.542C321.274 249.542 329.092 250.232 333.01 245.251C337.115 240.037 338.29 233.359 335.715 224.116V224.078ZM222.637 233.63C231.322 235.71 240.232 236.39 249.132 235.672C249.197 235.98 249.272 236.279 249.337 236.568C249.533 237.407 249.71 238.2 249.813 238.853L250.13 240.933C250.475 243.209 250.82 245.485 251.165 247.77H232.647C231.919 246.11 230.585 243.227 229.932 242.63C228.234 241.091 225.632 241.548 224.036 242.742C222.777 243.694 221.499 246.529 220.986 247.761H210.323C212.991 244.785 219.148 237.855 222.637 233.62V233.63ZM225.072 244.114C226.126 243.321 227.805 243.013 228.766 243.89C229.065 244.197 229.942 245.96 230.753 247.761H222.852C223.495 246.315 224.391 244.617 225.063 244.104L225.072 244.114Z" fill="#231F20"/>
<path d="M127.118 182.254H229.663C232.481 182.254 234.776 184.539 234.776 187.366V248.33H122.005V187.366C122.005 184.549 124.291 182.254 127.118 182.254Z" fill="#231F20"/>
<path d="M364.452 249.95H1.57669C0.849017 249.95 0.251953 249.363 0.251953 248.626C0.251953 247.889 0.839688 247.302 1.57669 247.302H364.452C365.179 247.302 365.776 247.889 365.776 248.626C365.776 249.363 365.189 249.95 364.452 249.95Z" fill="#231F20"/>
<path d="M55.8236 254.771C59.2242 250.881 58.8264 244.97 54.9351 241.57C51.0438 238.171 45.1326 238.568 41.732 242.459C38.3314 246.349 38.7292 252.26 42.6205 255.659C46.5118 259.059 52.423 258.662 55.8236 254.771Z" fill="#00B4FF"/>
<path d="M48.7712 259.305C42.8845 259.305 38.0894 254.52 38.0894 248.625C38.0894 242.73 42.8845 237.945 48.7712 237.945C54.6579 237.945 59.453 242.739 59.453 248.625C59.453 254.511 54.6672 259.305 48.7712 259.305ZM48.7712 240.594C44.3399 240.594 40.7388 244.194 40.7388 248.625C40.7388 253.055 44.3399 256.656 48.7712 256.656C53.2025 256.656 56.8036 253.055 56.8036 248.625C56.8036 244.194 53.2025 240.594 48.7712 240.594Z" fill="#231F20"/>
<path d="M180.257 193.28C162.024 193.28 147.243 201.757 147.243 212.216C147.243 219.227 153.892 225.321 163.75 228.598L158.247 236.512L173.482 230.751C175.667 231.015 177.933 231.152 180.257 231.152C198.49 231.152 213.271 222.675 213.271 212.216C213.271 201.757 198.49 193.28 180.257 193.28Z" fill="#D9D9D9"/>
<path d="M170.747 206.101L165.86 219.424H162.615L157.729 206.101H160.592L164.257 216.695L167.903 206.101H170.747ZM178.533 219.558C177.286 219.558 176.141 219.265 175.097 218.68C174.054 218.095 173.227 217.287 172.616 216.256C172.005 215.212 171.7 214.035 171.7 212.725C171.7 211.427 172.005 210.262 172.616 209.232C173.227 208.188 174.054 207.374 175.097 206.788C176.141 206.203 177.286 205.91 178.533 205.91C179.793 205.91 180.938 206.203 181.969 206.788C183.013 207.374 183.833 208.188 184.431 209.232C185.042 210.262 185.348 211.427 185.348 212.725C185.348 214.035 185.042 215.212 184.431 216.256C183.833 217.287 183.013 218.095 181.969 218.68C180.926 219.265 179.78 219.558 178.533 219.558ZM178.533 217.172C179.335 217.172 180.041 216.994 180.652 216.638C181.263 216.269 181.74 215.747 182.084 215.072C182.427 214.398 182.599 213.615 182.599 212.725C182.599 211.834 182.427 211.058 182.084 210.396C181.74 209.721 181.263 209.206 180.652 208.85C180.041 208.493 179.335 208.315 178.533 208.315C177.732 208.315 177.019 208.493 176.395 208.85C175.785 209.206 175.307 209.721 174.964 210.396C174.62 211.058 174.448 211.834 174.448 212.725C174.448 213.615 174.62 214.398 174.964 215.072C175.307 215.747 175.785 216.269 176.395 216.638C177.019 216.994 177.732 217.172 178.533 217.172ZM190.008 206.101V219.424H187.336V206.101H190.008ZM202.364 210.224C202.364 210.937 202.192 211.605 201.849 212.228C201.518 212.852 200.99 213.354 200.264 213.736C199.552 214.118 198.648 214.309 197.554 214.309H195.321V219.424H192.648V206.101H197.554C198.585 206.101 199.463 206.279 200.188 206.636C200.913 206.992 201.454 207.482 201.81 208.105C202.18 208.729 202.364 209.435 202.364 210.224ZM197.439 212.152C198.177 212.152 198.725 211.987 199.081 211.656C199.437 211.312 199.615 210.835 199.615 210.224C199.615 208.926 198.89 208.277 197.439 208.277H195.321V212.152H197.439Z" fill="#614B98"/>
</g>
</g>
<defs>
<clipPath id="clip0_1_773">
<rect width="366" height="259" fill="white" transform="translate(0 0.5)"/>
</clipPath>
</defs>
</svg>
