<svg width="95" height="95" viewBox="0 0 95 95" fill="none" xmlns="http://www.w3.org/2000/svg">
<g clip-path="url(#clip0_1_833)">
<path opacity="0.1" d="M47.5 94.3371C73.3674 94.3371 94.337 73.3674 94.337 47.5001C94.337 21.6327 73.3674 0.663086 47.5 0.663086C21.6327 0.663086 0.663025 21.6327 0.663025 47.5001C0.663025 73.3674 21.6327 94.3371 47.5 94.3371Z" fill="#D9D9D9"/>
<path d="M63.7824 36.3551L61.6028 33.8196C59.7548 31.8786 57.5313 30.3339 55.0674 29.2796C52.6035 28.2252 49.9508 27.6832 47.2708 27.6865C36.3319 27.6865 27.4569 36.5615 27.4569 47.5004C27.4569 58.4393 36.3319 67.3143 47.2708 67.3143C51.3688 67.314 55.3659 66.0437 58.7122 63.6782C62.0585 61.3127 64.5895 57.9682 65.9567 54.1051" stroke="#D9D9D9" stroke-width="4.97778" stroke-miterlimit="10" stroke-linecap="round"/>
<path d="M59.3464 41.7113L67.8981 33.1597V41.7113H59.3464Z" fill="black"/>
<path d="M69.3303 31.7274C69.3297 31.728 69.3291 31.7286 69.3285 31.7292M59.3464 41.7113L67.8981 33.1597V41.7113H59.3464Z" stroke="#D9D9D9" stroke-width="4.97778"/>
</g>
<defs>
<clipPath id="clip0_1_833">
<rect width="95" height="94" fill="white" transform="translate(0 0.5)"/>
</clipPath>
</defs>
</svg>
