<svg width="265" height="265" viewBox="0 0 265 265" fill="none" xmlns="http://www.w3.org/2000/svg">
<g clip-path="url(#clip0_1_909)">
<mask id="mask0_1_909" style="mask-type:luminance" maskUnits="userSpaceOnUse" x="0" y="0" width="265" height="265">
<path d="M265 0.5H0V264.5H265V0.5Z" fill="white"/>
</mask>
<g mask="url(#mask0_1_909)">
<path d="M141.039 249.644C120.006 253.85 77.3803 262.375 48.8642 241.974C-2.88968 204.948 0.757141 79.027 66.0079 25.8382C71.6491 21.2399 101.076 -1.82722 141.37 0.689305C211.261 5.05517 273.21 83.8559 261.043 147.009C253.922 183.969 222.77 208.535 209.945 218.648C204.66 222.816 179.743 241.904 141.039 249.645V249.644Z" fill="#2B2933"/>
<path d="M218.04 16.636L53.5841 6.58443C49.7964 6.38938 46.3869 10.7562 46.3869 14.4229V238.159C46.3869 243.244 51.3033 244.268 55.0911 243.86L218.04 226.278C221.017 225.957 223.419 223.079 223.419 219.848V22.7618C223.419 19.5316 221.017 16.7891 218.04 16.636Z" fill="#97A6B7"/>
<path d="M220.745 14.8588L55.9639 6.29482C52.1761 6.09794 49.0913 8.93348 49.0913 12.6285V238.113C49.0913 241.808 52.1761 244.469 55.9639 244.057L220.745 226.139C223.721 225.815 226.124 222.915 226.124 219.659V21.033C226.124 17.7782 223.721 15.0138 220.745 14.8588Z" fill="#D8DEE8"/>
<path opacity="0.74" d="M55.9641 240.999C53.9206 241.216 52.2545 239.774 52.2545 237.783V12.7786C52.2545 10.7871 53.9206 9.25038 55.9641 9.35246L220.745 17.5765C222.354 17.6567 223.66 19.1552 223.66 20.9161V219.916C223.66 221.677 222.355 223.249 220.745 223.421L55.9641 240.999Z" fill="#D9D9D9"/>
<path d="M210.124 218.084L69.1862 232.431V24.8447L210.124 30.4529V218.084Z" fill="#D9D9D9"/>
<path d="M100.329 124.485V136.446L88.5361 136.866V124.791L100.329 124.485ZM101.647 123.13L87.2184 123.504V138.235L101.647 137.72V123.13Z" fill="#D8DEE8"/>
<path d="M197.438 134.305L106.96 137.533V122.992L197.438 120.642V134.305Z" fill="#D8DEE8"/>
<path d="M100.329 145.767V157.726L88.5361 158.313V146.239L100.329 145.767ZM101.647 144.393L87.2184 144.971V159.702L101.647 158.984V144.393Z" fill="#D8DEE8"/>
<path d="M197.438 154.215L106.96 158.719V144.178L197.438 140.552V154.215Z" fill="#D8DEE8"/>
<path d="M100.329 167.045V179.002L88.5361 179.755V167.683L100.329 167.045ZM101.647 165.65L87.2184 166.432V181.163L101.647 180.242V165.65Z" fill="#D8DEE8"/>
<path d="M197.438 174.123L106.96 179.902V165.363L197.438 160.459V174.123Z" fill="#D8DEE8"/>
<path d="M100.329 188.324V200.279L88.5361 201.199V189.129L100.329 188.324ZM101.647 186.91L87.2184 187.895V202.626L101.647 201.501V186.909V186.91Z" fill="#D8DEE8"/>
<path d="M197.438 194.031L106.96 201.087V186.548L197.438 180.367V194.031Z" fill="#D8DEE8"/>
<path d="M144.595 108.872L87.2203 109.848V41.0977L144.595 42.7137V108.872Z" fill="#D8DEE8"/>
<path d="M197.439 52.6018L153.604 51.6275V42.9678L197.439 44.2028V52.6018Z" fill="#D8DEE8"/>
<path d="M197.439 71.266L153.604 70.8713V66.541L197.439 67.066V71.266Z" fill="#D8DEE8"/>
<path d="M197.439 78.1867L153.604 78.0071V73.6777L197.439 73.9876V78.1867Z" fill="#D8DEE8"/>
<path d="M197.439 85.1082L153.604 85.1438V80.8135L197.439 80.9092V85.1082Z" fill="#D8DEE8"/>
<path d="M116.853 113.801C119.609 114.753 122.677 113.1 123.705 110.109C124.734 107.117 123.333 103.921 120.577 102.969C120.434 102.92 120.29 102.882 120.146 102.846C120.41 101.234 120.555 99.6252 120.581 98.0329C120.728 98.0119 120.876 97.9891 121.024 97.9545C123.925 97.2836 125.883 94.2531 125.395 91.1869C124.908 88.1208 122.16 86.1785 119.259 86.8502C119.107 86.8858 118.96 86.9304 118.814 86.9778C118.295 85.4967 117.669 84.0667 116.939 82.6995C117.063 82.601 117.187 82.5008 117.305 82.3905C119.574 80.2759 119.895 76.6811 118.021 74.3615C116.149 72.0418 112.791 71.875 110.522 73.9896C110.406 74.0981 110.299 74.2129 110.192 74.3287C109.047 73.3671 107.818 72.4994 106.51 71.7329C106.573 71.5852 106.636 71.4357 106.689 71.2817C107.718 68.2903 109.144 64.9808 106.373 64.0721C99.9638 61.9703 97.7356 64.8432 96.708 67.8346C96.6543 67.9895 96.6116 68.1454 96.5716 68.3012C95.071 68.098 93.5686 68.0223 92.0763 68.0725C92.0635 67.9157 92.0499 67.7589 92.0244 67.6021C91.537 64.536 92.2163 62.745 89.2597 63.0977C82.8128 63.867 81.0303 66.966 81.5178 70.033C81.5432 70.1934 81.5787 70.3484 81.616 70.5024C80.2009 71.1286 78.8286 71.8678 77.5099 72.7154C77.4244 72.5878 77.3353 72.4611 77.238 72.3399C75.3655 70.0202 72.0078 69.8534 69.7388 71.968C67.4698 74.0826 67.1488 77.6774 69.0222 79.997C69.1177 80.1155 69.2204 80.2249 69.3232 80.3333C68.3647 81.6039 67.4907 82.9601 66.7068 84.3939C66.5713 84.3328 66.4349 84.2735 66.2921 84.2243C63.5356 83.2728 60.4672 84.9252 59.4395 87.9166C58.4109 90.908 59.8115 94.1045 62.5679 95.056C62.7107 95.1053 62.8553 95.1436 62.999 95.1791C62.7353 96.7915 62.5898 98.4002 62.5643 99.9925C62.417 100.014 62.2687 100.036 62.1205 100.071C59.2194 100.743 57.2623 103.772 57.7498 106.838C58.2372 109.905 60.9846 111.846 63.8857 111.175C64.0376 111.14 64.1849 111.095 64.3313 111.048C64.8497 112.529 65.4763 113.959 66.2057 115.326C66.082 115.424 65.9583 115.525 65.8401 115.635C63.571 117.749 63.25 121.344 65.1235 123.664C66.996 125.984 72.1988 126.458 74.4669 124.345C74.5834 124.236 72.8463 123.813 72.9518 123.698C74.0968 124.659 75.3264 125.527 76.6332 126.293C76.5696 126.441 76.5077 126.591 76.4541 126.745C75.4255 129.737 76.826 132.933 79.5825 133.885C82.339 134.836 85.4074 133.184 86.4351 130.193C86.4887 130.038 86.5315 129.882 86.5715 129.726C88.072 129.929 89.5744 130.005 91.0668 129.955C91.0795 130.111 91.0932 130.268 91.1186 130.425C91.6061 133.491 94.3535 135.433 97.2546 134.762C100.156 134.09 102.113 131.06 101.625 127.994C101.6 127.834 101.564 127.679 101.527 127.525C102.942 126.899 104.315 126.159 105.633 125.312C105.719 125.439 105.808 125.566 105.905 125.687C107.778 128.007 111.135 128.174 113.404 126.059C115.673 123.945 115.994 120.35 114.121 118.03C114.024 117.912 113.923 117.802 113.819 117.695C114.777 116.424 115.651 115.068 116.435 113.634C116.571 113.695 116.707 113.755 116.85 113.804L116.853 113.801ZM84.8117 118.676C74.8043 115.22 69.7179 103.615 73.452 92.7546C77.1861 81.8947 88.3258 75.8918 98.3331 79.3481C108.341 82.8043 113.427 94.4098 109.693 105.27C105.959 116.13 94.8191 122.133 84.8117 118.676Z" fill="#5834D3"/>
<path d="M121.025 97.9525C123.926 97.2817 125.883 94.2511 125.396 91.185C124.908 88.1188 122.161 86.1765 119.26 86.8483C119.108 86.8829 118.961 86.9285 118.814 86.9759C118.296 85.4948 117.669 84.0647 116.94 82.6975C117.064 82.6 117.187 82.4988 117.305 82.3885C119.574 80.274 122.093 75.5772 119.993 73.4627C116.007 69.4486 112.793 71.8731 110.524 73.9877C110.407 74.0961 110.3 74.2101 110.194 74.3258C109.049 73.3642 107.819 72.4965 106.512 71.73C106.576 71.5823 106.639 71.4329 106.691 71.2788C107.252 69.651 107.087 67.9648 106.38 66.6104C104.546 71.2305 102.747 75.8634 100.994 80.5146C109.211 84.9534 113.08 95.4169 109.694 105.268C106.823 113.616 99.5779 119.087 91.8341 119.605C91.6149 120.541 91.403 121.482 91.1593 122.413C90.4963 124.941 89.6915 127.438 88.8848 129.932C89.6142 129.967 90.3436 129.974 91.0702 129.949C91.082 130.106 91.0966 130.263 91.122 130.419C91.6095 133.486 93.8339 135.839 99.1187 134.815C102.042 134.249 102.115 131.056 101.628 127.989C101.602 127.828 101.567 127.673 101.53 127.519C102.945 126.893 104.318 126.154 105.636 125.306C105.721 125.434 105.81 125.56 105.908 125.682C107.78 128.002 113.209 128.342 115.478 126.228C117.747 124.113 115.996 120.344 114.123 118.024C114.027 117.905 113.925 117.796 113.821 117.688C114.78 116.418 115.655 115.061 116.438 113.628C116.573 113.689 116.71 113.748 116.853 113.797C119.609 114.75 122.677 113.096 123.705 110.105C124.734 107.114 123.333 103.917 120.577 102.966C120.434 102.916 120.29 102.878 120.146 102.842C120.409 101.23 120.555 99.6214 120.58 98.0291C120.728 98.0081 120.876 97.9853 121.024 97.9507L121.025 97.9525Z" fill="#5834D3"/>
<path d="M123.837 97.8829C126.738 97.2121 128.694 94.1834 128.205 91.1181C127.721 88.052 124.973 86.107 122.069 86.7814C121.918 86.8161 121.771 86.8598 121.625 86.91C121.107 85.4288 120.479 83.996 119.751 82.6298C119.874 82.5322 119.997 82.432 120.118 82.3217C122.386 80.2062 122.706 76.6105 120.834 74.2909C118.96 71.9712 115.603 71.8053 113.335 73.9181C113.217 74.0275 113.111 74.1423 113.003 74.2581C111.859 73.2974 110.631 72.4279 109.324 71.6631C109.386 71.5146 109.449 71.366 109.501 71.212C110.53 68.2188 109.129 65.0232 106.374 64.0735C103.617 63.1201 100.55 64.7744 99.521 67.764C99.4691 67.918 99.4246 68.0738 99.3855 68.2297C97.884 68.0283 96.3798 67.9508 94.8902 68.0018C94.8756 67.8469 94.8601 67.6892 94.8383 67.5324C94.35 64.4663 91.6035 62.5258 88.7024 63.1957C85.7986 63.8666 83.8433 66.8953 84.3308 69.9615C84.3562 70.1246 84.3917 70.2796 84.429 70.4309C83.0121 71.0579 81.6416 71.799 80.322 72.6457C80.2374 72.5172 80.1465 72.3896 80.0501 72.2702C78.8733 70.8137 77.1126 70.2048 75.4083 70.4792C74.3925 70.6369 73.3967 71.1062 72.5509 71.8965C70.2828 74.012 69.9627 77.604 71.8343 79.9273C71.9307 80.044 72.0316 80.1533 72.1371 80.2618C71.1786 81.5324 70.3019 82.8877 69.5198 84.3232C69.3852 84.2622 69.2469 84.2011 69.1042 84.1546C66.3477 83.2013 63.2802 84.8555 62.2507 87.8451C61.2212 90.8356 62.6226 94.0339 65.3782 94.9836C65.521 95.0338 65.6665 95.0739 65.8111 95.1067C65.5455 96.7209 65.4028 98.3277 65.3773 99.921C65.2273 99.9419 65.0808 99.9656 64.9326 99.9994C62.0315 100.67 60.0735 103.699 60.5619 106.769C61.0502 109.835 63.7967 111.776 66.6978 111.105C66.8488 111.068 66.9961 111.024 67.1425 110.977C67.66 112.458 68.2875 113.888 69.0187 115.253C68.8932 115.354 68.7704 115.454 68.6531 115.563C66.384 117.676 66.0639 121.271 67.9355 123.591C69.8071 125.914 73.1666 126.08 75.4347 123.963C75.5493 123.854 75.6602 123.742 75.7639 123.624C76.9089 124.589 78.1393 125.454 79.4471 126.222C79.3844 126.368 79.3216 126.516 79.267 126.674C78.2412 129.664 79.6417 132.859 82.3982 133.812C85.1547 134.762 88.2222 133.112 89.2508 130.118C89.3026 129.964 89.3444 129.808 89.3863 129.653C90.8878 129.857 92.3883 129.932 93.8816 129.88C93.8934 130.039 93.908 130.193 93.9334 130.35C94.4218 133.419 97.1692 135.36 100.069 134.689C102.97 134.016 104.928 130.986 104.44 127.92C104.415 127.76 104.38 127.605 104.342 127.451C105.755 126.823 107.13 126.086 108.45 125.238C108.534 125.367 108.621 125.491 108.722 125.614C110.593 127.934 113.953 128.099 116.221 125.984C117.998 124.33 118.58 121.765 117.851 119.62C117.648 119.021 117.344 118.461 116.938 117.957C116.842 117.837 116.74 117.728 116.636 117.622C117.593 116.349 118.467 114.994 119.253 113.561C119.387 113.622 119.522 113.68 119.666 113.73C122.422 114.68 125.493 113.03 126.518 110.036C127.548 107.046 126.147 103.85 123.391 102.898C123.247 102.848 123.106 102.811 122.962 102.774C123.223 101.161 123.37 99.5537 123.395 97.9595C123.542 97.9395 123.692 97.9185 123.84 97.8811L123.837 97.8829ZM112.504 105.201C109.972 112.567 104.03 117.698 97.3502 119.158C94.1799 119.853 90.845 119.72 87.6247 118.609C77.6155 115.15 72.5291 103.548 76.2632 92.6868C77.932 87.8305 81.0795 83.9486 84.9473 81.4476C89.7273 78.3487 95.6113 77.367 101.145 79.2802C111.154 82.7346 116.238 94.342 112.504 105.203V105.201Z" fill="url(#paint0_linear_1_909)"/>
<g style="mix-blend-mode:soft-light" opacity="0.3">
<path d="M116.221 125.985C113.953 128.101 110.593 127.935 108.722 125.615C108.622 125.492 108.534 125.368 108.45 125.24C107.13 126.086 105.755 126.825 104.342 127.452C104.38 127.607 104.415 127.762 104.44 127.921C104.928 130.987 102.97 134.016 100.069 134.691C97.1683 135.361 94.4218 133.42 93.9334 130.351C93.9089 130.194 93.8934 130.04 93.8816 129.882C92.3883 129.933 90.8877 129.858 89.3863 129.654C89.3444 129.81 89.3035 129.966 89.2508 130.12C88.2222 133.113 85.1538 134.764 82.3982 133.814C79.6417 132.86 78.2412 129.665 79.267 126.675C79.3216 126.518 79.3843 126.369 79.4471 126.223C78.1402 125.455 76.9089 124.59 75.7639 123.626C75.6602 123.743 75.5493 123.855 75.4347 123.965C73.1666 126.08 69.8071 125.914 67.9355 123.592C66.0639 121.272 66.384 117.677 68.6531 115.565C68.7713 115.455 68.8931 115.354 69.0186 115.254C68.2875 113.888 67.66 112.459 67.1425 110.978C66.9961 111.026 66.8487 111.069 66.6978 111.107C63.7967 111.778 61.0502 109.836 60.5618 106.77C60.0735 103.701 62.0324 100.671 64.9326 100.001C65.0808 99.9669 65.2272 99.9432 65.3773 99.9223C65.4027 98.3281 65.5455 96.7222 65.8111 95.108C65.6665 95.0752 65.5219 95.0351 65.3782 94.9849C62.6217 94.0352 61.2212 90.836 62.2507 87.8464C63.2801 84.8559 66.3476 83.2025 69.1041 84.1559C69.2469 84.2024 69.3851 84.2635 69.5197 84.3245C70.3018 82.889 71.1785 81.5337 72.1371 80.2631C72.0325 80.1546 71.9306 80.0453 71.8342 79.9286C69.9626 77.6053 70.2828 74.0142 72.5509 71.8978C73.3957 71.1066 74.3925 70.6382 75.4083 70.4805C79.3489 73.2094 83.1685 76.8643 84.9473 81.448C81.0795 83.9499 77.932 87.8318 76.2632 92.6871C72.529 103.548 77.6155 115.151 87.6247 118.609C90.8459 119.721 94.1808 119.853 97.3501 119.159C102.267 121.978 108.96 122.647 117.848 119.623C118.577 121.769 117.995 124.334 116.218 125.987L116.221 125.985Z" fill="#D9D9D9"/>
</g>
<path d="M246.527 115.123C251.46 116.586 256.741 113.433 258.322 108.08C259.904 102.727 257.186 97.2007 252.254 95.7369C251.998 95.6613 251.741 95.6048 251.484 95.5537C251.825 92.6899 251.956 89.8435 251.878 87.0344C252.136 86.986 252.396 86.9341 252.655 86.8612C257.718 85.4521 260.932 79.9587 259.836 74.5912C258.739 69.2236 253.745 66.0144 248.682 67.4226C248.418 67.4964 248.161 67.5876 247.907 67.6833C246.88 65.1121 245.664 62.6402 244.272 60.2877C244.483 60.1054 244.692 59.9186 244.893 59.7144C248.729 55.8107 249.016 49.4478 245.535 45.5039C242.053 41.5601 236.122 41.5273 232.286 45.431C232.09 45.6315 231.909 45.8412 231.731 46.0535C229.637 44.4476 227.402 43.0129 225.039 41.7642C225.14 41.499 225.238 41.231 225.32 40.954C226.901 35.601 229.16 29.6556 224.205 28.2693C212.743 25.0628 209.037 30.3 207.456 35.6539C207.374 35.9309 207.31 36.2089 207.251 36.4869C204.59 36.2454 201.937 36.229 199.308 36.4341C199.275 36.1588 199.237 35.8835 199.181 35.6092C198.084 30.2416 199.144 27.0315 193.959 27.8837C182.652 29.7422 179.751 35.344 180.848 40.7115C180.905 40.9922 180.979 41.2629 181.057 41.5309C178.611 42.745 176.248 44.155 173.99 45.7509C173.829 45.5322 173.663 45.3162 173.481 45.1093C169.999 41.1654 164.068 41.1326 160.232 45.0373C156.396 48.941 156.109 55.3039 159.59 59.2478C159.768 59.4501 159.956 59.6351 160.147 59.8165C158.556 62.1307 157.12 64.5898 155.85 67.1783C155.607 67.0817 155.361 66.9878 155.105 66.9122C150.173 65.4484 144.892 68.6011 143.31 73.955C141.729 79.308 144.446 84.8341 149.379 86.2979C149.634 86.3736 149.891 86.4301 150.148 86.4811C149.807 89.3449 149.676 92.1914 149.754 95.0005C149.496 95.0488 149.237 95.1007 148.978 95.1727C143.915 96.5818 140.7 102.075 141.797 107.444C142.894 112.811 147.887 116.02 152.95 114.611C153.215 114.537 153.471 114.446 153.725 114.352C154.753 116.923 155.969 119.395 157.361 121.748C157.15 121.93 156.941 122.117 156.74 122.321C152.904 126.225 152.616 132.588 156.098 136.532C159.579 140.476 168.786 140.909 172.622 137.005C172.818 136.804 169.724 136.195 169.902 135.982C171.995 137.588 174.231 139.023 176.594 140.271C176.493 140.537 176.394 140.805 176.313 141.082C174.731 146.435 177.448 151.961 182.381 153.425C187.314 154.888 192.595 151.735 194.176 146.382C194.258 146.105 194.322 145.827 194.381 145.549C197.042 145.79 199.696 145.807 202.324 145.602C202.358 145.877 202.396 146.152 202.451 146.427C203.548 151.795 208.542 155.004 213.605 153.595C218.667 152.186 221.882 146.693 220.786 141.325C220.728 141.044 220.655 140.774 220.576 140.506C223.023 139.292 225.385 137.882 227.644 136.286C227.805 136.504 227.971 136.72 228.153 136.926C231.634 140.87 237.565 140.903 241.401 136.999C245.237 133.096 245.525 126.733 242.043 122.789C241.865 122.587 241.676 122.402 241.486 122.22C243.077 119.906 244.513 117.447 245.783 114.858C246.027 114.955 246.272 115.049 246.528 115.124L246.527 115.123ZM190.42 126.209C172.509 120.894 162.646 100.83 168.387 81.3943C174.128 61.9584 193.302 50.5106 211.212 55.8243C229.122 61.139 238.987 81.2029 233.245 100.639C227.503 120.075 208.33 131.523 190.42 126.209Z" fill="#5834D3"/>
<path d="M252.655 86.8621C257.718 85.453 260.933 79.9597 259.836 74.5912C258.739 69.2237 253.745 66.0144 248.683 67.4235C248.418 67.4974 248.162 67.5885 247.908 67.6842C246.88 65.113 245.664 62.6411 244.272 60.2887C244.483 60.1064 244.692 59.9195 244.893 59.7154C248.729 55.8116 252.805 47.336 248.939 43.7704C241.601 37.0038 236.123 41.5282 232.287 45.4329C232.09 45.6334 231.909 45.843 231.731 46.0554C229.637 44.4494 227.402 43.0157 225.039 41.7661C225.141 41.5009 225.238 41.2329 225.32 40.9558C226.181 38.0428 225.76 35.0824 224.411 32.75C221.535 41.0369 218.722 49.3448 215.992 57.6801C230.821 64.8669 238.453 83.0121 233.246 100.641C228.833 115.581 216.482 125.79 202.872 127.306C202.558 128.974 202.258 130.648 201.899 132.31C200.926 136.817 199.701 141.282 198.471 145.742C199.76 145.748 201.046 145.702 202.324 145.603C202.358 145.878 202.395 146.153 202.452 146.428C203.549 151.796 207.653 155.772 216.89 153.556C222 152.33 221.882 146.695 220.785 141.326C220.728 141.045 220.654 140.775 220.576 140.507C223.022 139.293 225.385 137.883 227.643 136.287C227.804 136.505 227.97 136.721 228.152 136.927C231.634 140.871 241.231 141.05 245.067 137.146C248.903 133.241 245.524 126.734 242.043 122.79C241.865 122.587 241.676 122.402 241.485 122.221C243.077 119.907 244.513 117.448 245.783 114.86C246.026 114.957 246.272 115.051 246.527 115.126C251.46 116.59 256.741 113.436 258.323 108.084C259.904 102.731 257.187 97.2044 252.254 95.7406C251.998 95.665 251.741 95.6084 251.485 95.5574C251.826 92.6936 251.957 89.8471 251.878 87.038C252.137 86.9897 252.396 86.9369 252.655 86.8649V86.8621Z" fill="#5834D3"/>
<path d="M257.206 95.3969C256.95 95.3204 256.696 95.2648 256.438 95.2119C256.78 92.3508 256.909 89.5016 256.833 86.6953C257.091 86.6461 257.35 86.5932 257.607 86.5194C262.671 85.113 265.884 79.6178 264.788 74.2512C263.692 68.8845 258.698 65.6717 253.636 67.0817C253.372 67.1582 253.114 67.2485 252.859 67.3424C251.834 64.7711 250.618 62.3011 249.226 59.9459C249.436 59.7636 249.644 59.5777 249.846 59.3735C253.682 55.4698 253.97 49.106 250.487 45.1639C247.007 41.2192 241.077 41.1864 237.24 45.0901C237.042 45.2906 236.86 45.5021 236.685 45.7145C234.591 44.1048 232.355 42.6729 229.991 41.4224C230.095 41.1572 230.192 40.892 230.273 40.6149C231.854 35.261 229.137 29.7358 224.204 28.272C219.271 26.8082 213.989 29.96 212.408 35.3111C212.326 35.5919 212.262 35.8698 212.205 36.1451C209.543 35.9054 206.889 35.8872 204.26 36.0932C204.226 35.8179 204.191 35.5426 204.132 35.2692C203.036 29.8989 198.042 26.6897 192.98 28.0997C187.919 29.5097 184.702 35.0012 185.798 40.3715C185.856 40.6513 185.932 40.923 186.008 41.1909C185.888 41.2502 185.768 41.3103 185.648 41.3759C183.331 42.5444 181.088 43.8916 178.943 45.41C178.778 45.1904 178.613 44.9744 178.431 44.7702C174.951 40.8254 169.017 40.7926 165.185 44.6964C161.348 48.6001 161.061 54.9639 164.541 58.9087C164.72 59.1092 164.907 59.2924 165.098 59.4774C163.508 61.7916 162.07 64.2507 160.802 66.8365C160.558 66.7408 160.313 66.6478 160.057 66.5713C155.124 65.1075 149.842 68.2593 148.26 73.6141C146.679 78.968 149.396 84.4932 154.329 85.957C154.585 86.0336 154.843 86.0892 155.097 86.1384C154.759 89.0031 154.626 91.8486 154.706 94.6587C154.448 94.7079 154.189 94.7607 153.929 94.8309C148.868 96.2409 145.651 101.736 146.747 107.103C147.844 112.469 152.838 115.679 157.899 114.269C158.167 114.196 158.421 114.105 158.676 114.012C159.705 116.58 160.918 119.053 162.313 121.405C162.103 121.588 161.892 121.777 161.69 121.98C157.857 125.884 157.566 132.245 161.05 136.19C164.529 140.135 170.462 140.168 174.299 136.264C174.494 136.063 174.676 135.852 174.854 135.639C176.945 137.245 179.181 138.681 181.545 139.929C181.445 140.194 181.347 140.463 181.263 140.74C179.681 146.094 182.398 151.619 187.331 153.083C192.264 154.547 197.546 151.395 199.127 146.04C199.208 145.763 199.273 145.485 199.333 145.21C201.991 145.449 204.645 145.467 207.274 145.262C207.309 145.537 207.347 145.812 207.402 146.086C208.499 151.452 213.493 154.665 218.555 153.255C223.269 151.943 226.379 147.091 225.901 142.095C225.867 141.725 225.812 141.353 225.737 140.983C225.678 140.703 225.606 140.432 225.526 140.164C227.973 138.951 230.335 137.54 232.595 135.945C232.756 136.161 232.92 136.377 233.103 136.585C236.586 140.529 242.516 140.562 246.352 136.658C250.189 132.755 250.477 126.391 246.994 122.446C246.817 122.246 246.627 122.062 246.436 121.877C248.027 119.563 249.465 117.105 250.735 114.518C250.976 114.614 251.224 114.707 251.481 114.784C256.411 116.246 261.692 113.095 263.273 107.741C264.855 102.387 262.138 96.8616 257.205 95.3978L257.206 95.3969ZM238.198 100.297C233.121 117.477 217.557 128.415 201.643 127.054C199.551 126.876 197.455 126.487 195.374 125.87C177.463 120.552 167.598 100.491 173.34 81.0525C176.651 69.8434 184.428 61.2939 193.856 57.0821C200.775 53.9868 208.584 53.2321 216.167 55.4834C234.074 60.7999 243.94 80.862 238.198 100.297Z" fill="url(#paint1_linear_1_909)"/>
<g style="mix-blend-mode:soft-light" opacity="0.3">
<path d="M218.555 153.252C213.494 154.662 208.499 151.449 207.403 146.083C207.347 145.809 207.31 145.534 207.274 145.259C204.645 145.464 201.992 145.447 199.333 145.207C199.273 145.482 199.209 145.76 199.128 146.037C197.546 151.391 192.264 154.544 187.332 153.08C182.399 151.616 179.681 146.092 181.263 140.737C181.348 140.46 181.445 140.191 181.546 139.926C179.181 138.678 176.945 137.243 174.854 135.637C174.676 135.849 174.494 136.06 174.299 136.261C170.463 140.165 164.529 140.131 161.05 136.187C157.567 132.242 157.857 125.881 161.69 121.978C161.892 121.774 162.102 121.585 162.313 121.402C160.918 119.05 159.706 116.577 158.676 114.009C158.422 114.103 158.166 114.194 157.9 114.266C152.839 115.676 147.844 112.466 146.747 107.1C145.651 101.733 148.867 96.2371 153.929 94.828C154.189 94.7578 154.447 94.705 154.707 94.6558C154.627 91.8457 154.759 89.0002 155.098 86.1355C154.843 86.0863 154.585 86.0307 154.329 85.9541C149.396 84.4903 146.679 78.966 148.261 73.6112C149.842 68.2573 155.124 65.1046 160.057 66.5684C160.313 66.6449 160.558 66.7379 160.803 66.8336C162.069 64.2469 163.507 61.7887 165.099 59.4745C164.908 59.2904 164.72 59.1063 164.541 58.9058C161.062 54.961 161.349 48.5972 165.185 44.6935C169.018 40.7897 174.951 40.8225 178.431 44.7673C178.614 44.9715 178.778 45.1875 178.943 45.4071C181.088 43.8887 183.33 42.5415 185.648 41.373C189.329 46.0306 192.365 51.3097 193.855 57.0792C184.428 61.2911 176.65 69.8405 173.339 81.0496C167.597 100.488 177.462 120.55 195.374 125.867C197.454 126.484 199.551 126.874 201.642 127.052C207.369 134.732 215.441 140.3 225.902 142.091C226.38 147.086 223.27 151.938 218.556 153.25L218.555 153.252Z" fill="#D9D9D9"/>
</g>
<path d="M246.234 128.364L246.558 123.574C246.558 123.574 245.941 122.505 245.752 119.949C245.562 117.393 246.15 118.441 246.4 119.516C246.47 119.815 246.639 120.077 246.847 120.299C247.368 120.855 248.081 120.228 248.239 119.481L249.482 116.904C249.482 116.904 250.839 118.695 249.193 123.309C248.677 124.754 248.853 128.335 248.853 128.335L246.235 128.363L246.234 128.364Z" fill="url(#paint2_linear_1_909)"/>
<path d="M162.28 126.481L161.392 121.735C161.392 121.735 162.671 120.024 162.239 118.159C161.807 116.295 162.097 116.968 161.569 118.114C161.042 119.259 160.292 117.208 159.723 115.347C159.155 113.485 158.612 116.25 158.668 117.917C158.725 119.583 158.72 120.573 159.625 121.847C160.53 123.122 160.041 127.403 160.041 127.403L162.28 126.481Z" fill="url(#paint3_linear_1_909)"/>
<path d="M221.911 259.517C222.019 258.492 224.476 258.867 226.085 259.133C227.693 259.399 228.362 260.098 228.574 260.724C228.786 261.349 228.494 262.838 227.04 262.107C225.847 261.507 221.816 260.423 221.911 259.517Z" fill="#26264F"/>
<path d="M225.158 255.737L226.04 259.797C226.04 259.797 227.138 260.668 227.544 260.3L227.426 255.683L225.158 255.738V255.737Z" fill="url(#paint4_linear_1_909)"/>
<path d="M217.18 252.827L220.881 254.754L220.109 256.645L216.357 255.389L217.18 252.827Z" fill="url(#paint5_linear_1_909)"/>
<path d="M216.455 260.32C216.455 260.32 218.952 261.152 220.177 259.723C220.966 258.804 221.679 257.202 222.087 256.174C222.309 255.617 222.063 254.984 221.523 254.725C220.738 254.348 219.665 253.926 219.18 254.158C218.368 254.546 218.902 257.526 218.509 258.266C218.115 259.006 216.42 259.384 216.455 260.321V260.32Z" fill="#26264F"/>
<path d="M215.072 192.828C215.021 202.101 215.566 212.886 217.298 224.783C219.103 237.184 221.803 248.071 224.634 257.211C224.954 257.393 225.529 257.663 226.296 257.737C227.193 257.825 227.899 257.599 228.255 257.458C229.2 252.74 229.794 248.744 230.174 245.772C231.18 237.923 231.667 233.902 230.914 229.14C230.207 224.671 229.376 224.96 228.657 220.025C228.017 215.636 228.222 212.309 228.55 207.437C228.776 204.092 229.234 199.585 230.242 194.268C225.184 193.788 220.128 193.308 215.071 192.828H215.072Z" fill="#474747"/>
<path style="mix-blend-mode:multiply" opacity="0.3" d="M225.354 253.991C224.565 250.664 226.657 249.31 226.705 245.158C226.764 240.086 223.669 239.723 223.073 233.975C222.593 229.356 224.54 229.091 224.409 223.507C224.269 217.571 222.031 216.218 222.757 212.71C223.16 210.759 224.488 208.151 228.702 205.5C228.964 202.425 229.418 198.625 230.244 194.268C225.186 193.788 220.13 193.308 215.072 192.828C215.021 202.101 215.566 212.886 217.298 224.783C219.103 237.184 221.803 248.071 224.634 257.211C224.954 257.393 225.529 257.663 226.296 257.737C226.702 257.777 227.062 257.747 227.376 257.695C226.481 256.699 225.705 255.477 225.354 253.991Z" fill="url(#paint6_linear_1_909)"/>
<path d="M202.823 190.361C202.488 192.574 201.898 195.918 200.846 199.912C198.476 208.918 196.267 211.703 195.332 217.633C194.242 224.547 195.766 230.152 196.347 232.284C200.305 246.836 213.37 254.374 216.837 256.238C217.33 254.952 217.823 253.667 218.315 252.383C217.497 251.116 216.296 249.084 215.214 246.428C213.366 241.891 213.397 239.295 212.226 234.873C210.114 226.894 208.034 227.862 207.821 223.858C207.483 217.513 212.723 215.317 218.107 203.596C219.651 200.237 220.613 197.387 221.155 195.632C215.045 193.876 208.934 192.12 202.824 190.362L202.823 190.361Z" fill="#474747"/>
<path d="M245.536 126.391C246.84 126.271 248.144 126.15 249.448 126.028C250.913 128.422 255.092 135.957 253.52 145.538C253.148 147.809 251.693 155.328 244.888 160.926C240.015 164.935 234.832 165.946 232.467 166.255C231.702 177.486 231.435 184.584 231.533 188.849C231.545 189.363 231.651 193.678 230.698 199.171C230.408 200.844 230.257 201.69 229.995 202.14C226.366 208.38 208.409 202.018 203.61 199.541C202.362 198.896 201.109 198.033 200.643 196.624C200.045 194.814 200.841 193.264 201.215 191.886C202.134 188.504 200.275 185.777 196.647 178.847C195.113 175.917 192.895 171.524 190.341 165.843C186.888 166.603 178.79 167.833 171.231 163.568C160.125 157.3 154.605 141.655 159.06 125.412C160.247 125.158 161.435 124.904 162.624 124.649C163.178 127.898 164.374 132.303 167.126 136.851C168.796 139.61 170.186 141.908 172.774 143.316C176.836 145.526 180.692 143.825 186.226 142.848C194.947 141.31 202.065 142.59 210.711 144.145C220.157 145.843 222.632 147.98 229.681 147.136C232.815 146.76 236.743 146.24 240.124 143.373C246.775 137.732 245.706 127.763 245.538 126.393L245.536 126.391Z" fill="#614B98"/>
<path d="M209.127 136.522C209.127 136.522 208.402 138.773 209.136 139.854C209.87 140.935 212.289 145.05 213.15 145.302C213.64 145.445 214.875 145.719 215.846 145.929C216.357 146.039 216.419 146.759 215.926 146.935C214.921 147.293 213.172 147.603 210.218 147.37C205.949 147.032 202.622 145.169 201.182 144.224C200.977 144.09 201.1 143.773 201.342 143.808L203.254 144.083C204.892 144.319 206.341 143.005 206.269 141.348L206.222 140.269L209.127 136.522Z" fill="url(#paint7_linear_1_909)"/>
<path d="M207.05 141.012C206.796 140.849 204.666 140.441 204.449 139.263C204.153 137.664 205.692 135.848 205.888 135.551C206.71 134.313 206.907 134.151 207.263 133.956L207.756 133.71C207.756 133.71 207.784 133.702 207.814 133.694C208.123 133.615 209.148 133.676 209.35 133.739C209.999 133.94 210.459 136.704 209.912 140.503C209.927 140.651 209.94 140.801 209.953 140.951C209.984 141.341 207.021 141.147 207.05 141.012Z" fill="url(#paint8_linear_1_909)"/>
<path d="M205.542 133.316C205.418 133.776 206.587 134.79 207.087 135.227C207.148 135.279 207.322 135.457 207.472 135.733C207.494 135.773 207.512 135.82 207.527 135.879C207.718 136.648 206.456 137.418 206.655 137.772C206.798 138.029 207.631 137.779 207.708 137.997C207.779 138.202 207.076 138.548 207.157 138.793C207.217 138.978 207.643 138.852 207.878 139.149C207.994 139.295 207.947 139.4 208.046 139.828C208.102 140.069 208.187 140.336 208.258 140.487C208.603 141.218 209.735 141.577 209.982 141.319C210.051 141.247 210.004 141.177 210.09 140.923C210.09 140.923 210.17 140.687 210.363 140.425C210.638 140.048 211.241 139.816 211.86 139.448C213.008 138.769 213.361 138.132 213.469 137.916C213.481 137.892 213.492 137.87 213.502 137.849C213.52 137.812 213.536 137.775 213.551 137.739C213.834 136.997 212.962 135.615 212.962 135.615C212.262 134.524 211.336 133.76 210.588 133.264C209.185 132.887 208.023 132.843 207.215 132.878C206.556 132.906 205.64 132.953 205.54 133.317L205.542 133.316Z" fill="#474747"/>
<path d="M204.833 137.215C204.833 137.215 205.669 138.371 206.959 137.139L207.54 137.355C207.54 137.355 205.873 140.455 205.563 140.433C205.253 140.412 204.361 140.143 204.361 140.143C204.031 139.977 203.864 139.6 203.967 139.244C204.153 138.596 204.592 137.664 204.833 137.215Z" fill="#474747"/>
<path d="M207.223 137.54C207.549 137.168 208.022 137.588 207.979 138.104C207.935 138.62 207.388 139.111 206.915 138.965C206.44 138.819 206.786 138.041 207.223 137.541V137.54Z" fill="url(#paint9_linear_1_909)"/>
<path style="mix-blend-mode:multiply" opacity="0.3" d="M225.253 199.931C218.904 201.699 211.894 198.006 210.385 193.514C209.27 190.194 212.329 187.307 210.538 183.845C208.814 180.511 205.211 181.708 203.012 178.306C200.614 174.598 203.928 171.683 201.91 166.791C200.391 163.112 196.395 159.621 192.255 159.346C187.334 159.02 185.189 163.435 181.022 162.227C178.846 161.597 178.988 160.263 176.05 157.867C170.95 153.707 167.251 155.053 163.021 152.078C161.778 151.204 160.414 149.901 159.199 147.872C161.38 154.759 165.579 160.377 171.23 163.566C178.788 167.832 186.887 166.602 190.34 165.841C192.893 171.522 195.111 175.916 196.646 178.846C200.273 185.776 202.132 188.503 201.214 191.885C200.84 193.262 200.043 194.813 200.642 196.623C201.107 198.032 202.36 198.895 203.608 199.54C208.407 202.017 226.364 208.38 229.993 202.139C230.255 201.69 230.405 200.844 230.696 199.17C230.877 198.127 231.02 197.128 231.132 196.187C229.745 197.74 227.835 199.211 225.251 199.93L225.253 199.931Z" fill="url(#paint10_linear_1_909)"/>
<path d="M100.732 166.622C100.732 166.622 80.7965 181.357 66.6321 172.434L64.6786 190.839C64.6786 190.839 92.7427 198.714 100.895 169.974L100.732 166.622Z" fill="url(#paint11_linear_1_909)"/>
<path d="M149.148 200.912C152.769 200.587 155.642 197.253 155.567 193.466C155.513 190.773 153.984 188.575 151.809 187.645C151.776 187.631 151.748 187.62 151.715 187.61C150.848 187.256 149.884 187.101 148.874 187.191C148.684 187.21 148.5 187.238 148.313 187.271C147.936 185.393 147.418 183.558 146.763 181.786C146.932 181.688 147.098 181.584 147.26 181.472C150.356 179.299 151.345 175.006 149.472 171.885C148.774 170.725 147.778 169.892 146.641 169.416C145.193 168.8 143.513 168.771 141.941 169.383C141.434 169.582 140.942 169.845 140.467 170.176C140.309 170.288 140.162 170.407 140.014 170.53C138.791 169.175 137.447 167.917 135.997 166.771C136.098 166.605 136.198 166.436 136.288 166.256C137.954 162.973 140.104 159.398 137.518 157.718C137.493 157.699 137.464 157.682 137.435 157.668C137.332 157.606 137.223 157.545 137.115 157.491C129.718 153.869 126.543 156.968 124.799 160.41C124.766 160.475 124.738 160.54 124.709 160.605C124.655 160.721 124.604 160.836 124.558 160.952C122.778 160.454 120.976 160.112 119.16 159.921C119.171 159.729 119.182 159.539 119.178 159.344C119.117 156.24 119.858 154.248 118.132 153.61C117.83 153.498 117.445 153.361 116.97 153.335C116.913 153.332 116.855 153.328 116.798 153.328H116.466C108.638 153.328 105.995 156.687 106.071 160.46C106.074 160.658 106.093 160.879 106.11 161.073C105.142 161.347 104.186 161.674 103.244 162.032C103.241 162.032 103.237 162.035 103.233 162.035C102.403 162.349 101.586 162.699 100.777 163.073C100.694 162.904 100.608 162.742 100.511 162.576C99.813 161.415 98.8172 160.586 97.6804 160.11C96.4863 159.602 95.134 159.494 93.818 159.815C93.0232 160.006 92.2356 160.355 91.5053 160.871C88.4087 163.044 87.4202 167.337 89.2936 170.454C89.3909 170.613 89.4946 170.764 89.6028 170.912C88.3878 172.13 87.2365 173.446 86.1651 174.848C86.0287 175.024 85.895 175.201 85.7623 175.381C85.6077 175.283 85.4531 175.189 85.2876 175.104C85.1621 175.039 85.0393 174.982 84.9101 174.931C81.8072 173.608 78.0594 175.107 76.3842 178.416C74.6399 181.858 75.7985 185.959 78.9734 187.574C79.1353 187.657 79.3044 187.725 79.4736 187.794C78.8833 189.701 78.4377 191.617 78.1394 193.539C77.9594 193.539 77.7766 193.542 77.5929 193.561C73.9715 193.885 71.0986 197.216 71.1741 201.006C71.2105 202.801 71.9007 204.376 73.0048 205.501C74.2307 206.751 75.9604 207.539 77.8666 207.369C78.0248 207.355 78.1867 207.389 78.345 207.389H78.3522C78.3777 207.389 78.4023 207.29 78.4277 207.286C78.4314 207.301 78.435 207.267 78.435 207.282C78.4386 207.285 78.4386 207.267 78.4386 207.271C78.816 209.126 79.3271 210.925 79.971 212.684C79.971 212.687 79.9747 212.689 79.9747 212.693C79.8091 212.79 79.6436 212.888 79.4817 213C77.702 214.251 76.6152 216.177 76.3751 218.182C76.1951 219.663 76.4761 221.187 77.27 222.509C78.7233 224.924 82.7648 226.491 85.9551 225.771H85.9623C86.6999 225.771 87.3902 225.514 87.9904 225.186C88.0549 225.251 88.1159 225.341 88.1814 225.41C88.1886 225.421 88.1995 225.431 88.2068 225.439C88.6852 225.904 89.1781 226.361 89.6883 226.801C89.7138 226.827 89.7383 226.849 89.7638 226.87C90.0839 227.147 90.4113 227.418 90.745 227.681C90.7414 227.685 90.7414 227.688 90.7378 227.692C90.6405 227.858 90.5404 228.031 90.454 228.203C90.1084 228.884 89.8784 229.59 89.7529 230.297C89.5692 231.335 89.6164 232.377 89.8684 233.346C90.0557 234.056 90.354 234.729 90.7569 235.332C90.9979 235.695 91.2752 236.031 91.5945 236.337C92.0119 236.741 92.4975 237.137 93.0405 237.414C94.2382 238.027 95.5541 238.023 96.82 238.023H96.8273C98.909 237.663 100.859 236.243 101.941 234.106C102.035 233.929 102.11 233.67 102.186 233.49C103.099 233.746 104.016 234.059 104.94 234.059H104.944C105.11 234.059 105.275 234.059 105.441 234.419H105.448C105.462 234.419 105.481 234.344 105.498 234.344C105.516 234.347 105.534 234.309 105.548 234.313C105.673 234.335 105.803 234.335 105.933 234.353C106.041 234.371 106.152 234.378 106.26 234.393C106.698 234.461 107.096 234.51 107.539 234.557C107.524 234.745 107.476 234.901 107.476 235.088V235.127C107.476 235.173 107.524 235.213 107.527 235.254C107.528 235.289 107.55 235.324 107.554 235.358C107.554 235.395 107.565 235.426 107.569 235.463C107.58 235.629 107.603 235.791 107.625 235.95C107.629 236 107.639 236.047 107.646 236.097C108.001 238.346 109.42 240.138 111.34 240.952C111.412 240.984 111.488 241.013 111.567 241.042C111.676 241.082 111.787 241.121 111.902 241.158C111.935 241.172 111.97 241.183 112.007 241.19C112.711 241.392 113.47 241.471 114.257 241.403C114.423 241.388 114.585 241.366 114.743 241.338C114.787 241.331 114.833 241.324 114.876 241.313C118.199 240.689 120.744 237.525 120.673 233.956C120.669 233.823 120.662 233.694 120.651 233.563C120.647 233.524 120.643 233.48 120.64 233.441C120.636 233.419 120.636 233.398 120.633 233.373C122.449 232.854 124.232 232.191 125.965 231.387C126.048 231.556 126.135 231.726 126.232 231.888C126.276 231.96 126.322 232.032 126.372 232.104C126.534 232.353 126.71 232.587 126.904 232.803C126.904 232.803 126.906 232.806 126.911 232.811C127.875 233.906 129.166 234.577 130.551 234.771C131.177 234.865 131.824 234.858 132.471 234.746C133.42 234.591 134.366 234.212 135.236 233.599C138.188 231.526 139.224 227.526 137.689 224.452C137.65 224.372 137.61 224.293 137.563 224.214C137.527 224.145 137.488 224.077 137.449 224.012C137.352 223.854 137.248 223.702 137.14 223.558C138.509 222.181 139.793 220.689 140.98 219.09C141.135 219.187 141.289 219.281 141.455 219.364C142.264 219.775 143.124 219.984 143.99 220.009C144.411 220.027 144.828 219.998 145.245 219.926C147.327 219.573 149.273 218.193 150.359 216.052C152.1 212.61 150.945 208.512 147.77 206.897C147.608 206.814 147.439 206.742 147.271 206.674C147.86 204.771 148.307 202.85 148.605 200.929C148.785 200.929 148.968 200.925 149.151 200.911L149.148 200.912ZM86.7272 223.941C86.7663 223.984 86.8063 224.028 86.8463 224.071C86.749 224.01 86.699 223.962 86.7272 223.941ZM101.906 219.869C90.3849 214.005 86.1806 199.12 92.5139 186.622C95.7506 180.235 101.108 175.709 107.114 173.586C110.973 172.227 115.097 171.86 119.096 172.635C121.055 173.009 122.983 173.662 124.835 174.602C125.985 175.189 127.069 175.864 128.068 176.624C128.165 176.692 128.263 176.768 128.359 176.844C128.783 177.172 129.189 177.517 129.585 177.874C129.747 178.022 129.905 178.17 130.063 178.325C130.089 178.347 130.113 178.371 130.139 178.397C130.304 178.555 130.466 178.718 130.625 178.883C130.646 178.905 130.671 178.926 130.689 178.952C130.84 179.107 130.987 179.262 131.131 179.424C131.167 179.464 131.203 179.503 131.239 179.546C131.383 179.705 131.52 179.863 131.653 180.026C131.681 180.055 131.707 180.083 131.729 180.116C131.865 180.274 131.995 180.437 132.121 180.602C132.663 181.291 133.164 182.008 133.62 182.758C133.728 182.928 133.828 183.104 133.929 183.277C133.958 183.323 133.983 183.371 134.008 183.417C134.099 183.568 134.181 183.72 134.26 183.875C134.307 183.954 134.35 184.037 134.393 184.12C134.469 184.264 134.544 184.408 134.612 184.553C134.886 185.101 135.137 185.659 135.367 186.229C135.457 186.445 135.54 186.665 135.623 186.885C135.695 187.083 135.766 187.285 135.835 187.487C135.888 187.634 135.936 187.782 135.982 187.93C136.015 188.031 136.047 188.131 136.076 188.232C136.115 188.351 136.147 188.467 136.18 188.582C136.217 188.701 136.248 188.816 136.278 188.932C136.32 189.069 136.357 189.209 136.389 189.347C136.511 189.823 136.619 190.302 136.713 190.785C136.763 191.052 136.81 191.315 136.853 191.582C136.896 191.838 136.932 192.093 136.964 192.353C136.968 192.386 136.971 192.418 136.975 192.454C137.001 192.638 137.021 192.821 137.04 193.006C137.054 193.135 137.065 193.262 137.076 193.391C137.087 193.496 137.094 193.6 137.101 193.708C137.116 193.867 137.127 194.029 137.134 194.191C137.39 198.704 136.469 203.425 134.229 207.847C132.865 210.539 131.122 212.9 129.115 214.892C128.903 215.101 128.69 215.307 128.475 215.508C128.255 215.71 128.036 215.905 127.813 216.1C127.69 216.205 127.568 216.312 127.442 216.414C127.341 216.5 127.237 216.583 127.133 216.666C126.907 216.85 126.677 217.03 126.443 217.206C124.437 218.724 122.25 219.916 119.967 220.764C119.593 220.901 119.218 221.031 118.841 221.149C118.456 221.272 118.068 221.384 117.676 221.485C117.669 221.488 117.661 221.488 117.654 221.492C117.424 221.55 117.19 221.608 116.957 221.658C116.719 221.715 116.478 221.766 116.237 221.809C114.529 222.145 112.789 222.285 111.052 222.228C110.814 222.22 110.581 222.209 110.347 222.188C110.311 222.188 110.271 222.185 110.235 222.181C107.39 221.983 104.571 221.226 101.906 219.871V219.869Z" fill="#5834D3"/>
<path d="M148.601 200.93C148.302 202.851 147.856 204.771 147.267 206.675C147.436 206.743 147.605 206.815 147.766 206.898C150.942 208.512 152.096 212.61 150.355 216.053C149.269 218.194 147.324 219.573 145.241 219.927C144.824 219.999 144.407 220.028 143.986 220.01C143.12 219.985 142.26 219.776 141.451 219.365C141.285 219.282 141.131 219.188 140.976 219.09C139.789 220.691 138.505 222.183 137.136 223.559C137.244 223.703 137.347 223.855 137.445 224.013C137.484 224.078 137.524 224.146 137.559 224.215C137.606 224.29 137.653 224.37 137.696 224.449C139.444 227.57 140.662 232.082 137.707 234.159C136.811 234.786 135.635 235.121 134.366 235.208C133.122 235.291 131.755 235.136 130.519 234.772C129.102 234.361 127.969 233.684 126.89 232.797V232.616H126.944C126.724 232.616 126.533 232.258 126.368 232.017C126.318 231.945 126.271 231.916 126.228 231.844C126.131 231.682 126.044 231.535 125.961 231.366C124.228 232.17 122.445 232.844 120.628 233.363C120.632 233.388 120.632 233.415 120.636 233.437C120.639 233.476 120.697 233.522 120.7 233.562C120.711 233.659 120.776 233.756 120.776 233.878V233.957C120.776 237.72 120.096 241.627 116.493 241.627H116.482C114.681 241.728 113.199 241.566 112.002 241.191C111.965 241.184 111.93 241.173 111.897 241.159C111.782 241.122 111.671 241.083 111.562 241.043C111.483 241.014 111.408 240.985 111.336 240.953C109.038 240.008 107.937 238.206 107.643 236.098C107.635 236.048 107.628 236.001 107.625 235.951C107.603 235.763 107.585 235.576 107.575 235.384C107.575 235.377 107.575 235.366 107.571 235.359C107.56 235.261 107.51 235.193 107.506 235.088C107.503 234.893 107.47 234.746 107.47 234.551V234.548C107.111 234.505 106.64 234.447 106.2 234.382C106.092 234.367 106.007 234.349 105.902 234.332C105.773 234.314 105.654 234.375 105.528 234.354C105.499 234.346 105.471 234.418 105.442 234.418H105.435C105.269 234.058 105.104 234.058 104.938 234.058H104.934C106.326 231.175 107.779 228.347 109.005 225.403C109.454 224.322 109.984 223.248 110.343 222.16C110.346 222.157 110.346 222.169 110.346 222.166C110.346 222.18 110.731 222.198 110.99 222.209C111.016 222.212 111.037 222.215 111.059 222.215C112.799 222.276 114.525 222.137 116.233 221.806C116.474 221.759 116.712 221.709 116.953 221.655C117.186 221.605 117.42 221.548 117.65 221.49C117.657 221.487 117.665 221.487 117.672 221.483C118.064 221.382 118.452 221.271 118.837 221.148C119.214 221.028 119.589 220.902 119.963 220.762C122.254 219.923 124.44 218.726 126.453 217.205C126.687 217.028 126.91 216.847 127.136 216.664C127.241 216.581 127.341 216.498 127.438 216.412C127.564 216.31 127.687 216.203 127.808 216.098C128.031 215.903 128.25 215.709 128.471 215.507C128.686 215.305 128.899 215.099 129.111 214.89C131.117 212.897 132.861 210.537 134.224 207.845C136.464 203.423 137.386 198.701 137.13 194.19C137.123 194.027 137.112 193.865 137.097 193.706C137.09 193.598 137.083 193.494 137.072 193.389C137.061 193.26 137.05 193.133 137.036 193.004C137.017 192.82 136.996 192.636 136.971 192.452C136.967 192.416 136.964 192.384 136.96 192.351C136.927 192.091 136.892 191.836 136.849 191.58C136.806 191.313 136.759 191.05 136.709 190.783C136.615 190.3 136.508 189.821 136.385 189.345C136.353 189.208 136.317 189.068 136.273 188.93C136.244 188.815 136.213 188.7 136.176 188.58C136.143 188.465 136.112 188.35 136.072 188.23C136.042 188.129 136.011 188.029 135.978 187.928C135.931 187.78 135.884 187.632 135.831 187.485C135.762 187.283 135.69 187.081 135.619 186.883C135.536 186.664 135.453 186.444 135.363 186.227C135.133 185.657 134.881 185.099 134.608 184.551C134.54 184.407 134.465 184.263 134.389 184.118C134.346 184.035 134.303 183.952 134.256 183.873C134.177 183.718 134.094 183.566 134.004 183.415C133.979 183.369 133.954 183.321 133.925 183.275C133.824 183.102 133.724 182.925 133.616 182.756C133.16 182.007 132.659 181.29 132.116 180.601C131.991 180.435 131.861 180.273 131.724 180.114C131.703 180.081 131.677 180.053 131.649 180.024C131.516 179.861 131.379 179.703 131.235 179.544C131.2 179.501 131.163 179.461 131.127 179.422C130.983 179.26 130.836 179.105 130.685 178.95C130.667 178.924 130.641 178.903 130.62 178.882C130.462 178.716 130.3 178.554 130.135 178.395C130.109 178.369 130.085 178.345 130.059 178.323C129.901 178.168 129.743 178.02 129.581 177.873C129.185 177.516 128.779 177.17 128.355 176.842C128.258 176.766 128.16 176.69 128.064 176.622C127.992 176.565 127.924 176.51 127.852 176.46C128.089 176.028 128.327 175.591 128.564 175.159C131.232 170.268 133.943 165.407 136.691 160.56C137.317 162.315 137.234 164.379 136.284 166.254C136.194 166.435 136.094 166.603 135.993 166.769C137.443 167.915 138.787 169.173 140.01 170.528C140.158 170.406 140.305 170.287 140.463 170.174C140.895 169.872 141.352 169.562 141.826 169.273C144.754 167.486 148.433 166.379 151.999 171.132C154.182 174.041 150.352 179.295 147.256 181.469C147.094 181.581 146.928 181.685 146.759 181.783C147.414 183.556 147.931 185.39 148.309 187.268C148.496 187.235 148.679 187.203 148.87 187.189C149.88 187.098 150.844 187.253 151.711 187.607C151.744 187.618 151.772 187.629 151.805 187.643C153.98 188.572 155.509 190.771 155.562 193.463C155.638 197.251 152.765 200.584 149.144 200.909C148.96 200.923 148.777 200.927 148.597 200.927L148.601 200.93Z" fill="#5834D3"/>
<path d="M152.561 201.296C156.182 200.975 159.055 197.641 158.976 193.854C158.9 190.062 155.905 187.255 152.287 187.58C152.125 187.59 151.967 187.616 151.809 187.644C151.779 187.648 151.755 187.655 151.726 187.659C151.722 187.641 151.719 187.626 151.715 187.609C151.337 185.749 150.823 183.933 150.176 182.17C150.345 182.073 150.511 181.972 150.673 181.86C153.769 179.687 154.758 175.394 152.884 172.273C152.629 171.851 152.334 171.47 152.003 171.134C150.604 169.696 148.612 169.083 146.641 169.415C145.692 169.574 144.75 169.956 143.879 170.565C143.721 170.673 143.574 170.795 143.423 170.918C142.948 170.392 142.451 169.876 141.941 169.383C141.905 169.343 141.866 169.308 141.829 169.275C141.06 168.532 140.254 167.826 139.409 167.159C139.51 166.993 139.61 166.824 139.7 166.644C141.369 163.354 140.383 159.458 137.518 157.717C137.492 157.698 137.464 157.681 137.435 157.667C137.331 157.605 137.223 157.544 137.115 157.49C133.943 155.876 129.955 157.357 128.211 160.798C128.121 160.979 128.045 161.158 127.97 161.339C126.891 161.036 125.802 160.791 124.708 160.603C123.996 160.481 123.284 160.38 122.572 160.308C122.583 160.117 122.594 159.922 122.59 159.731C122.529 156.754 120.677 154.329 118.131 153.608C117.758 153.496 117.369 153.366 116.97 153.333C116.913 153.33 116.855 153.326 116.797 153.326H116.779C116.675 153.326 116.571 153.376 116.466 153.376C116.28 153.376 116.089 153.409 115.898 153.426C112.28 153.747 109.407 157.095 109.483 160.883C109.486 161.082 109.501 161.283 109.523 161.474C107.707 161.992 105.923 162.659 104.19 163.463C104.107 163.294 104.021 163.128 103.923 162.966C103.722 162.63 103.495 162.324 103.244 162.043C103.24 162.04 103.237 162.036 103.233 162.032C101.827 160.446 99.7446 159.758 97.6811 160.108C96.9117 160.234 96.1459 160.508 95.4229 160.933C95.2538 161.031 95.0846 161.138 94.9191 161.254C91.8225 163.431 90.8339 167.72 92.7074 170.841C92.8047 170.999 92.9084 171.151 93.0166 171.298C91.647 172.671 90.3592 174.164 89.1724 175.763C89.0215 175.67 88.8632 175.576 88.7013 175.489C87.8919 175.078 87.0325 174.869 86.1658 174.844C85.7484 174.826 85.3283 174.855 84.9108 174.927C82.8282 175.28 80.8793 176.664 79.7971 178.801C78.0528 182.243 79.2114 186.345 82.3826 187.96C82.5481 188.043 82.7173 188.111 82.8864 188.179C82.2971 190.082 81.8506 192.003 81.5523 193.924C81.3722 193.924 81.1894 193.928 81.0021 193.946C77.3844 194.267 74.5115 197.601 74.587 201.392C74.6406 204.081 76.1621 206.275 78.3375 207.205C78.3411 207.205 78.3411 207.279 78.3447 207.279C78.3775 207.293 78.4057 207.385 78.4384 207.385H78.442C79.3087 207.745 80.2655 207.823 81.2795 207.734C81.4668 207.719 81.6532 207.655 81.837 207.619C82.2144 209.496 82.7364 211.314 83.3866 213.09C83.2211 213.188 83.0556 213.28 82.8937 213.392C79.7971 215.568 78.8049 219.778 80.682 222.898C81.8506 224.841 83.8577 225.767 85.9539 225.767H85.9612C86.7024 225.767 87.45 225.687 88.1802 225.407C88.1875 225.407 88.1984 225.403 88.2057 225.399C88.7132 225.204 89.2088 224.977 89.6835 224.647C89.8454 224.534 89.9927 224.431 90.1401 224.307C91.3632 225.663 92.7037 226.928 94.157 228.074C94.0524 228.24 93.956 228.42 93.866 228.596C92.1217 232.038 93.2803 236.139 96.4515 237.753C96.5706 237.814 96.6961 237.873 96.818 237.926C96.8216 237.926 96.8216 237.93 96.8253 237.93C99.9283 239.253 103.676 237.753 105.351 234.445C105.384 234.38 105.416 234.315 105.445 234.25C105.499 234.134 105.549 234.019 105.596 233.903C107.376 234.401 109.177 234.746 110.99 234.934C110.979 235.129 110.971 235.32 110.975 235.515C111.029 238.207 112.558 240.326 114.74 241.256C114.784 241.274 114.83 241.292 114.873 241.31C115.38 241.508 115.92 241.623 116.484 241.623H116.494C116.876 241.983 117.267 241.745 117.667 241.71C117.89 241.688 118.109 241.66 118.329 241.616C121.475 241.007 123.879 238.142 124.041 234.797C124.048 234.65 124.014 234.498 124.014 234.343V233.742C125.092 233.465 125.944 233.158 126.887 232.801C126.89 232.801 126.897 232.709 126.901 232.709C126.912 232.706 126.93 232.974 126.945 232.614H126.948C127.765 232.614 128.574 232.053 129.376 231.682C129.458 231.852 129.545 232.069 129.642 232.231C130.34 233.391 131.333 234.246 132.469 234.722C133.07 234.982 133.709 235.144 134.367 235.194C135.803 235.302 137.309 234.919 138.644 233.982C139.467 233.405 140.14 232.68 140.646 231.865C141.916 229.85 142.186 227.303 141.243 225.149C141.131 224.893 141.002 224.645 140.854 224.4C140.761 224.241 140.653 224.09 140.549 223.942C140.578 223.913 140.61 223.881 140.635 223.852C141.822 222.659 142.941 221.373 143.987 220.006C144.123 219.833 144.257 219.654 144.389 219.477C144.544 219.574 144.699 219.668 144.864 219.751C144.99 219.816 145.112 219.873 145.242 219.924C148.345 221.247 152.089 219.751 153.764 216.439C155.508 212.997 154.35 208.899 151.178 207.284C151.013 207.198 150.847 207.129 150.678 207.061C151.268 205.158 151.71 203.237 152.009 201.316C152.192 201.316 152.375 201.312 152.559 201.294L152.561 201.296ZM111.052 222.225C111.037 222.225 111.019 222.221 111.004 222.218C111.001 222.218 110.997 222.218 110.993 222.214C109.055 221.836 107.149 221.19 105.315 220.253C93.7969 214.393 89.5926 199.509 95.9259 187.009C98.666 181.599 102.931 177.523 107.821 175.115C111.363 173.367 115.237 172.499 119.095 172.633C122.216 172.737 125.327 173.501 128.246 174.99C128.354 175.043 128.462 175.102 128.566 175.159C139.843 181.127 143.911 195.85 137.635 208.234C133.69 216.019 126.588 221.046 119.007 222.311C116.374 222.751 113.685 222.736 111.049 222.225H111.052Z" fill="url(#paint12_linear_1_909)"/>
<g style="mix-blend-mode:soft-light" opacity="0.3">
<path d="M140.648 231.87C140.141 232.685 139.469 233.413 138.646 233.99C137.311 234.926 135.804 235.316 134.369 235.207C133.125 235.29 131.788 235.135 130.551 234.772C129.167 234.576 127.875 233.907 126.911 232.811C125.965 233.171 125.012 233.485 124.046 233.763C124.064 233.953 124.082 234.148 124.085 234.346C124.088 234.501 124.085 234.652 124.077 234.8C123.934 238.162 121.488 241.01 118.331 241.618C118.112 241.662 117.892 241.69 117.669 241.712C117.269 241.748 116.877 241.986 116.496 241.626H116.485C114.684 241.727 113.202 241.565 112.005 241.19C111.968 241.183 111.933 241.172 111.9 241.157C111.786 241.121 111.674 241.082 111.565 241.041C111.486 241.012 111.411 240.984 111.339 240.951C109.041 240.007 107.94 238.205 107.646 236.097C107.639 236.047 107.631 235.999 107.628 235.949C107.606 235.761 107.543 235.575 107.532 235.383C107.525 235.286 107.473 235.217 107.473 235.127V234.533C107.114 234.486 106.643 234.439 106.203 234.37C106.095 234.356 106.011 234.345 105.903 234.328C105.774 234.309 105.658 234.288 105.532 234.267C105.518 234.263 105.507 234.259 105.489 234.259C105.47 234.259 105.456 234.256 105.441 234.252C105.413 234.317 105.382 234.381 105.349 234.447C103.673 237.756 99.9274 239.255 96.8245 237.932C95.5549 238.148 94.2389 237.983 93.0385 237.37C92.4956 237.093 92.0099 236.743 91.5934 236.336C91.2733 236.029 90.9968 235.694 90.7558 235.33C90.3493 234.729 90.051 234.058 89.8673 233.344C89.6154 232.374 89.569 231.334 89.7518 230.295C89.8773 229.593 90.111 228.89 90.453 228.212C90.543 228.035 90.644 227.865 90.744 227.697L90.7367 227.69C90.4057 227.43 90.0819 227.153 89.7618 226.867C89.7364 226.846 89.7118 226.825 89.6863 226.799C89.1761 226.342 88.6832 225.866 88.2049 225.401C88.1976 225.405 88.1867 225.408 88.1794 225.408C87.4491 225.689 86.7016 225.768 85.9604 225.768H85.9531C82.7638 226.489 78.7213 224.921 77.2681 222.507C76.4732 221.184 76.1931 219.66 76.3732 218.179C76.6105 216.157 77.6964 214.214 79.4798 212.96C79.6417 212.847 79.8036 212.764 79.9691 212.672C79.9691 212.668 79.9727 212.668 79.9727 212.668C79.3288 210.909 78.8186 209.179 78.4403 207.323C78.4367 207.319 78.4367 207.388 78.4367 207.388H78.433C78.4039 207.388 78.3794 207.388 78.3503 207.377C78.3466 207.377 78.3466 207.388 78.343 207.388H78.3357C78.1811 207.388 78.0192 207.351 77.8646 207.366C75.9585 207.535 74.2287 206.794 73.0028 205.544C71.8988 204.419 71.2085 202.822 71.1721 201.028C71.0967 197.236 73.9696 193.895 77.5909 193.57C77.7746 193.552 77.9574 193.543 78.1375 193.543C78.4358 191.621 78.8814 189.702 79.4716 187.795C79.3025 187.727 79.1333 187.657 78.9714 187.574C75.7957 185.96 74.638 181.857 76.3823 178.415C78.0584 175.107 81.8052 173.607 84.9082 174.93C85.3256 174.858 85.7458 174.829 86.1632 174.847C87.2345 173.445 88.3859 172.129 89.6009 170.911C89.4926 170.764 89.389 170.612 89.2916 170.454C87.4182 167.337 88.4068 163.044 91.5034 160.871C92.2337 160.356 93.0212 160.006 93.8161 159.814C94.3335 160.164 94.8692 160.539 95.4203 160.936C99.5519 163.938 104.393 168.281 107.111 173.586C107.363 174.087 107.604 174.598 107.819 175.118C102.929 177.525 98.6642 181.602 95.9241 187.011C89.5918 199.51 93.7951 214.395 105.313 220.256C107.147 221.193 109.053 221.838 110.992 222.216C111.017 222.22 111.038 222.22 111.06 222.22C112.8 222.281 114.527 222.141 116.234 221.809C116.475 221.762 116.713 221.711 116.954 221.658C117.188 221.607 117.421 221.549 117.651 221.492C118.086 221.78 118.54 222.058 119.007 222.314C123.564 224.837 129.666 225.835 137.685 224.455C137.689 224.455 137.692 224.455 137.696 224.451C138.649 224.289 139.627 224.091 140.634 223.857C140.649 223.857 140.66 223.853 140.674 223.85C140.905 224.285 141.096 224.722 141.243 225.154C142.027 227.457 141.671 229.731 140.646 231.872L140.648 231.87Z" fill="#D9D9D9"/>
</g>
<path d="M25.6821 255.879C25.5948 255.851 25.4193 255.798 25.1974 255.825C24.9173 255.86 24.7236 256.005 24.6126 256.09C24.5081 256.17 23.6477 256.851 23.6577 257.785C23.6659 258.531 24.2216 258.578 24.7736 259.823C25.2229 260.835 24.9655 261.054 25.3747 261.576C26.0577 262.448 27.5565 262.834 28.2022 262.26C28.5032 261.992 28.5432 261.583 28.5541 261.473C28.6532 260.457 27.5965 260.166 27.3655 259.023C27.1327 257.877 28.0294 257.344 27.5992 256.694C27.4246 256.429 26.8435 256.246 25.6821 255.879Z" fill="url(#paint13_linear_1_909)"/>
<path d="M26.5196 254.122C25.562 255.005 25.1455 255.987 25.4456 256.489C25.5575 256.676 25.7648 256.79 25.8567 256.841C26.4987 257.194 27.1826 256.936 27.3127 256.884L28.5468 255.147L26.5196 254.122Z" fill="url(#paint14_linear_1_909)"/>
<path d="M2.1913 260.854C1.883 260.745 1.54469 260.813 1.30006 261.03C0.921734 261.367 0.374257 261.894 0.0823294 262.349C-0.390574 263.089 1.4101 263.443 3.27352 263.832C5.13695 264.221 7.44326 264.834 7.37506 264.27C7.30594 263.707 6.77119 262.85 4.97052 261.933C4.49307 261.689 2.98069 261.132 2.1913 260.854Z" fill="url(#paint15_linear_1_909)"/>
<path d="M2.37753 258.79L1.59814 261.266C1.59814 261.266 2.02103 262.069 3.146 261.595L4.44375 259.435L2.37753 258.79Z" fill="url(#paint16_linear_1_909)"/>
<path d="M71.8913 152.403C71.8922 152.411 68.2081 157.723 64.6786 158.763L73.9839 160.28C73.9839 160.28 72.7698 159.869 72.7698 158.161C72.7698 157.095 73.5974 154.535 73.5974 154.535L71.8913 152.404V152.403Z" fill="url(#paint17_linear_1_909)"/>
<path d="M51.9243 206.817C52.8692 210.489 54.1052 215.883 55.0628 222.524C56.7252 234.043 55.7067 236.519 55.1701 237.599C53.1766 241.614 49.8763 242.389 41.5596 247.366C35.6255 250.917 31.0966 254.237 28.2728 256.421C27.8535 256.354 27.2042 256.198 26.5067 255.795C25.8846 255.437 25.4563 255.017 25.1916 254.712C25.9537 251.009 27.3697 248.553 28.4728 247.032C29.7797 245.232 30.9392 244.345 36.5777 239.841C40.5819 236.644 42.5854 235.041 42.69 234.847C46.1167 228.469 35.0626 220.003 37.5744 213.371C38.5148 210.887 41.6287 207.941 51.9243 206.815V206.817Z" fill="#474747"/>
<path style="mix-blend-mode:multiply" opacity="0.3" d="M28.4728 247.032C29.7797 245.232 30.9392 244.345 36.5777 239.841C40.5819 236.644 42.5854 235.041 42.69 234.847C46.1167 228.469 35.0626 220.003 37.5744 213.371C38.5148 210.887 41.6287 207.941 51.9243 206.815C52.4036 208.677 52.9575 210.984 53.5113 213.669C49.7299 215.617 48.5613 217.557 48.3366 219.133C47.8019 222.886 52.4564 225.503 51.3259 228.721C50.4092 231.333 46.8488 231.018 46.144 233.715C45.4601 236.33 48.4949 237.822 47.9374 239.908C47.0271 243.316 38.3693 241.419 33.7867 245.9C32.3125 247.342 30.8565 249.849 30.7501 254.551C29.8179 255.236 28.9894 255.865 28.2728 256.42C27.8535 256.353 27.2042 256.197 26.5067 255.794C25.8846 255.436 25.4563 255.016 25.1916 254.711C25.9537 251.008 27.3697 248.552 28.4728 247.032Z" fill="url(#paint18_linear_1_909)"/>
<path d="M53.8178 208.149C50.7476 210.257 46.4733 213.311 41.5605 217.238C34.4869 222.89 26.8796 228.969 19.2776 238.08C15.1524 243.024 9.77044 250.367 4.85951 260.344C4.51301 260.417 3.85913 260.506 3.08248 260.305C2.15213 260.064 1.55736 259.542 1.3 259.286C0.408751 251.935 1.71651 246.775 2.99427 243.506C5.83715 236.233 9.11383 236.83 14.7532 226.228C16.2811 223.355 18.0108 219.608 21.6894 213.126C23.0963 210.648 24.1676 208.864 25.9147 206.852C28.7021 203.643 31.6732 201.624 33.8058 200.404C40.4765 202.986 47.1471 205.568 53.8178 208.149Z" fill="#474747"/>
<path d="M75.0909 150.525C75.3846 149.558 74.6935 148.103 73.5567 147.682C72.7127 147.37 71.9224 147.738 71.3459 148.006C71.0794 148.13 69.2123 149.026 69.1168 150.598C69.0868 151.097 69.2951 151.698 69.6207 152.123C69.788 152.342 70.0627 152.594 70.6438 153.058C71.1594 153.47 71.1303 153.459 71.2858 153.577C71.6596 153.861 72.3553 154.319 73.5049 154.745C73.4776 154.464 73.4621 154.111 73.493 153.711C73.5049 153.557 73.5576 152.952 73.7622 152.395C74.176 151.265 74.8617 151.281 75.0909 150.525Z" fill="#474747"/>
<path d="M72.0967 154.41C72.0967 154.41 73.5045 155.57 75.2479 154.832C76.8085 154.171 75.7963 150.5 74.5121 150.093C74.0838 149.958 73.3654 150.09 72.8652 150.439C72.5696 150.645 72.5059 150.82 72.0167 151.147C71.5656 151.449 71.4064 151.442 71.3 151.621C71.1673 151.844 71.1645 152.279 71.8421 153.22C71.4301 153.017 71.0227 153.026 70.8062 153.239C70.7717 153.273 70.688 153.386 70.6653 153.521C70.5843 154.008 71.14 154.402 72.0958 154.409L72.0967 154.41Z" fill="url(#paint19_linear_1_909)"/>
<path d="M110.584 156.342L112.773 154.087C112.773 154.087 115.504 152.751 117.497 153.75C119.491 154.749 117.75 154.61 116.727 154.746C115.704 154.882 114.165 155.805 113.174 156.342C112.182 156.879 111.119 157.595 111.119 157.595L110.584 156.342Z" fill="url(#paint20_linear_1_909)"/>
<path d="M110.388 155.08C111.096 155.968 111.804 156.856 112.514 157.743C110.573 164.373 107.46 168.017 104.94 170.128C96.8843 176.875 88.523 173.278 77.8281 181.414C74.5277 183.924 72.4479 186.455 70.7163 188.561C62.9088 198.059 63.3981 204.206 56.6738 208.071C52.9706 210.199 49.4074 210.298 47.0756 210.362C40.4241 210.547 31.3679 207.962 29.9447 202.635C29.6737 201.622 29.7528 200.782 29.801 200.357C31.1042 188.839 44.7075 173.045 50.1968 166.865C54.0255 162.555 57.3258 159.071 62.4214 158.209C64.5558 157.848 66.2801 158.079 69.7296 158.542C76.0019 159.383 77.9581 160.791 83.4647 161.952C87.1797 162.735 91.3295 163.61 95.9276 162.912C98.6404 162.5 104.366 161.108 110.389 155.079L110.388 155.08Z" fill="#614B98"/>
<g style="mix-blend-mode:multiply" opacity="0.3">
<path d="M44.1507 203.954C46.2342 199.549 43.8824 196.246 46.5425 192.967C49.7574 189.005 54.5419 192.17 59.2982 188.373C64.8212 183.963 62.5522 176.356 67.2703 174.59C70.235 173.479 71.5755 176.316 76.0399 175.589C80.869 174.801 80.9645 171.211 85.8063 169.596C91.0674 167.841 93.5346 171.222 100.555 170.794C101.954 170.709 103.469 170.463 105.075 170.011C105.031 170.05 104.984 170.091 104.941 170.128C96.885 176.875 88.5237 173.278 77.8288 181.414C74.5285 183.924 72.4486 186.455 70.717 188.561C62.9096 198.059 63.3988 204.206 56.6745 208.071C52.9713 210.199 49.4081 210.298 47.0764 210.362C44.4854 210.434 41.5334 210.081 38.806 209.313C41.7589 207.648 43.3131 205.726 44.1516 203.952L44.1507 203.954Z" fill="#614B98"/>
</g>
</g>
</g>
<defs>
<linearGradient id="paint0_linear_1_909" x1="140.89" y1="45.985" x2="22.8391" y2="163.35" gradientUnits="userSpaceOnUse">
<stop offset="0.163" stop-color="#6533E2"/>
<stop offset="0.334" stop-color="#7349DE"/>
<stop offset="0.715" stop-color="#1F97EF"/>
<stop offset="1" stop-color="#57A1D7"/>
</linearGradient>
<linearGradient id="paint1_linear_1_909" x1="287.038" y1="-2.17745" x2="80.0565" y2="202.915" gradientUnits="userSpaceOnUse">
<stop offset="0.163" stop-color="#6533E2"/>
<stop offset="0.334" stop-color="#7349DE"/>
<stop offset="0.715" stop-color="#1F97EF"/>
<stop offset="1" stop-color="#57A1D7"/>
</linearGradient>
<linearGradient id="paint2_linear_1_909" x1="248.311" y1="126.226" x2="250.092" y2="150.845" gradientUnits="userSpaceOnUse">
<stop stop-color="#FFC444"/>
<stop offset="1" stop-color="#F36F56"/>
</linearGradient>
<linearGradient id="paint3_linear_1_909" x1="161.501" y1="132.458" x2="163.32" y2="157.596" gradientUnits="userSpaceOnUse">
<stop stop-color="#FFC444"/>
<stop offset="1" stop-color="#F36F56"/>
</linearGradient>
<linearGradient id="paint4_linear_1_909" x1="224.285" y1="248.34" x2="228.519" y2="264.452" gradientUnits="userSpaceOnUse">
<stop stop-color="#FFC444"/>
<stop offset="1" stop-color="#F36F56"/>
</linearGradient>
<linearGradient id="paint5_linear_1_909" x1="217.36" y1="250.214" x2="221.563" y2="266.208" gradientUnits="userSpaceOnUse">
<stop stop-color="#FFC444"/>
<stop offset="1" stop-color="#F36F56"/>
</linearGradient>
<linearGradient id="paint6_linear_1_909" x1="239.411" y1="241.25" x2="216.441" y2="211.585" gradientUnits="userSpaceOnUse">
<stop stop-color="#444B8C"/>
<stop offset="1" stop-color="#3E4177"/>
</linearGradient>
<linearGradient id="paint7_linear_1_909" x1="207.688" y1="141.474" x2="210.998" y2="153.931" gradientUnits="userSpaceOnUse">
<stop stop-color="#FFC444"/>
<stop offset="1" stop-color="#F36F56"/>
</linearGradient>
<linearGradient id="paint8_linear_1_909" x1="249.353" y1="296.412" x2="252.663" y2="308.868" gradientUnits="userSpaceOnUse">
<stop stop-color="#FFC444"/>
<stop offset="1" stop-color="#F36F56"/>
</linearGradient>
<linearGradient id="paint9_linear_1_909" x1="333.217" y1="376.182" x2="342.702" y2="394.029" gradientUnits="userSpaceOnUse">
<stop stop-color="#FFC444"/>
<stop offset="1" stop-color="#F36F56"/>
</linearGradient>
<linearGradient id="paint10_linear_1_909" x1="183.083" y1="111.684" x2="200.283" y2="197.142" gradientUnits="userSpaceOnUse">
<stop stop-color="#FF9085"/>
<stop offset="1" stop-color="#FB6FBB"/>
</linearGradient>
<linearGradient id="paint11_linear_1_909" x1="108.356" y1="186.729" x2="77.353" y2="177.077" gradientUnits="userSpaceOnUse">
<stop stop-color="#FFC444"/>
<stop offset="1" stop-color="#F36F56"/>
</linearGradient>
<linearGradient id="paint12_linear_1_909" x1="174.674" y1="132.265" x2="29.0909" y2="278.367" gradientUnits="userSpaceOnUse">
<stop offset="0.163" stop-color="#6533E2"/>
<stop offset="0.334" stop-color="#7349DE"/>
<stop offset="0.715" stop-color="#1F97EF"/>
<stop offset="1" stop-color="#57A1D7"/>
</linearGradient>
<linearGradient id="paint13_linear_1_909" x1="31.4015" y1="288.639" x2="25.8776" y2="258.423" gradientUnits="userSpaceOnUse">
<stop stop-color="#311944"/>
<stop offset="1" stop-color="#893976"/>
</linearGradient>
<linearGradient id="paint14_linear_1_909" x1="25.9622" y1="265.183" x2="24.6231" y2="278.141" gradientUnits="userSpaceOnUse">
<stop stop-color="#FFC444"/>
<stop offset="1" stop-color="#F36F56"/>
</linearGradient>
<linearGradient id="paint15_linear_1_909" x1="7.05039" y1="281.895" x2="3.44815" y2="262.19" gradientUnits="userSpaceOnUse">
<stop stop-color="#311944"/>
<stop offset="1" stop-color="#893976"/>
</linearGradient>
<linearGradient id="paint16_linear_1_909" x1="2.72857" y1="263.19" x2="1.39313" y2="276.106" gradientUnits="userSpaceOnUse">
<stop stop-color="#FFC444"/>
<stop offset="1" stop-color="#F36F56"/>
</linearGradient>
<linearGradient id="paint17_linear_1_909" x1="66.5866" y1="166.508" x2="71.7885" y2="153.326" gradientUnits="userSpaceOnUse">
<stop stop-color="#FFC444"/>
<stop offset="1" stop-color="#F36F56"/>
</linearGradient>
<linearGradient id="paint18_linear_1_909" x1="55.4966" y1="251.307" x2="0.342503" y2="184.71" gradientUnits="userSpaceOnUse">
<stop stop-color="#444B8C"/>
<stop offset="1" stop-color="#26264F"/>
</linearGradient>
<linearGradient id="paint19_linear_1_909" x1="80.8728" y1="154.392" x2="67.9238" y2="150.956" gradientUnits="userSpaceOnUse">
<stop stop-color="#FFC444"/>
<stop offset="1" stop-color="#F36F56"/>
</linearGradient>
<linearGradient id="paint20_linear_1_909" x1="127.667" y1="145.127" x2="103.912" y2="163.054" gradientUnits="userSpaceOnUse">
<stop stop-color="#FFC444"/>
<stop offset="0.81" stop-color="#F57F53"/>
<stop offset="1" stop-color="#F36F56"/>
</linearGradient>
<clipPath id="clip0_1_909">
<rect width="265" height="264" fill="white" transform="translate(0 0.5)"/>
</clipPath>
</defs>
</svg>
