<svg width="266" height="265" viewBox="0 0 266 265" fill="none" xmlns="http://www.w3.org/2000/svg">
<g clip-path="url(#clip0_355_11858)">
<path opacity="0.15" d="M141.539 249.644C120.507 253.85 77.8808 262.375 49.3647 241.974C-2.38922 204.948 1.2576 79.027 66.5084 25.8382C72.1496 21.2399 101.576 -1.82722 141.87 0.689305C211.762 5.05517 273.71 83.8559 261.543 147.009C254.422 183.969 223.271 208.535 210.446 218.648C205.16 222.816 180.244 241.904 141.539 249.645V249.644Z" fill="#709EB3"/>
<path d="M218.54 16.636L54.084 6.58452C50.2962 6.38947 46.8867 10.7562 46.8867 14.423V238.16C46.8867 243.245 51.8031 244.268 55.5909 243.86L218.54 226.278C221.517 225.957 223.919 223.079 223.919 219.848V22.7619C223.919 19.5317 221.517 16.7892 218.54 16.636Z" fill="#97A6B7"/>
<path d="M221.244 14.8588L56.4634 6.29482C52.6756 6.09794 49.5908 8.93348 49.5908 12.6285V238.113C49.5908 241.808 52.6756 244.469 56.4634 244.057L221.244 226.139C224.221 225.815 226.623 222.915 226.623 219.659V21.033C226.623 17.7782 224.221 15.0138 221.244 14.8588Z" fill="#D8DEE8"/>
<path opacity="0.74" d="M56.4635 240.999C54.42 241.217 52.7539 239.775 52.7539 237.783V12.7787C52.7539 10.7872 54.42 9.2505 56.4635 9.35258L221.244 17.5766C222.853 17.6568 224.16 19.1553 224.16 20.9162V219.916C224.16 221.677 222.854 223.249 221.244 223.421L56.4635 241V240.999Z" fill="#D9D9D9"/>
<path d="M210.624 218.084L69.6855 232.431V24.8445L210.624 30.4527V218.084Z" fill="#D9D9D9"/>
<path d="M100.828 124.485V136.447L89.0355 136.867V124.792L100.828 124.485ZM102.146 123.13L87.7178 123.505V138.236L102.146 137.721V123.129V123.13Z" fill="#D8DEE8"/>
<path d="M197.937 134.305L107.459 137.533V122.992L197.937 120.641V134.305Z" fill="#D8DEE8"/>
<path d="M100.828 145.766V157.726L89.0355 158.313V146.239L100.828 145.765V145.766ZM102.146 144.392L87.7178 144.971V159.702L102.146 158.983V144.392Z" fill="#D8DEE8"/>
<path d="M197.937 154.215L107.459 158.719V144.178L197.937 140.551V154.215Z" fill="#D8DEE8"/>
<path d="M100.828 167.045V179.002L89.0355 179.755V167.683L100.828 167.044V167.045ZM102.146 165.65L87.7178 166.432V181.163L102.146 180.242V165.65Z" fill="#D8DEE8"/>
<path d="M197.937 174.123L107.459 179.902V165.363L197.937 160.459V174.123Z" fill="#D8DEE8"/>
<path d="M100.828 188.323V200.279L89.0355 201.198V189.129L100.828 188.323ZM102.146 186.91L87.7178 187.895V202.626L102.146 201.5V186.909V186.91Z" fill="#D8DEE8"/>
<path d="M197.937 194.031L107.459 201.087V186.548L197.937 180.367V194.031Z" fill="#D8DEE8"/>
<path d="M145.094 108.872L87.7197 109.848V41.0977L145.094 42.7137V108.872Z" fill="#D8DEE8"/>
<path d="M197.938 52.6021L154.104 51.6278V42.968L197.938 44.2031V52.6021Z" fill="#D8DEE8"/>
<path d="M197.938 71.2655L154.104 70.8709V66.5406L197.938 67.0656V71.2655Z" fill="#D8DEE8"/>
<path d="M197.938 78.1872L154.104 78.0076V73.6782L197.938 73.9881V78.1872Z" fill="#D8DEE8"/>
<path d="M197.938 85.1086L154.104 85.1442V80.8138L197.938 80.9095V85.1086Z" fill="#D8DEE8"/>
<path d="M117.353 113.801C120.11 114.753 123.177 113.1 124.206 110.109C125.234 107.117 123.834 103.921 121.077 102.969C120.935 102.92 120.79 102.882 120.646 102.846C120.91 101.234 121.056 99.6253 121.081 98.033C121.228 98.012 121.377 97.9892 121.525 97.9546C124.426 97.2838 126.383 94.2532 125.896 91.1871C125.408 88.1209 122.661 86.1786 119.76 86.8504C119.608 86.8859 119.46 86.9306 119.314 86.978C118.796 85.4968 118.169 84.0668 117.44 82.6996C117.563 82.6012 117.687 82.5009 117.805 82.3906C120.074 80.276 120.395 76.6813 118.522 74.3616C116.649 72.042 113.292 71.8752 111.023 73.9897C110.906 74.0982 110.799 74.213 110.693 74.3288C109.548 73.3672 108.318 72.4995 107.01 71.733C107.074 71.5853 107.137 71.4358 107.189 71.2818C108.218 68.2904 109.645 64.9809 106.874 64.0722C100.464 61.9704 98.2361 64.8433 97.2084 67.8347C97.1548 67.9896 97.112 68.1455 97.072 68.3014C95.5715 68.0981 94.0691 68.0224 92.5767 68.0726C92.564 67.9158 92.5503 67.759 92.5249 67.6023C92.0374 64.5361 92.7168 62.7451 89.7602 63.0979C83.3132 63.8671 81.5308 66.9661 82.0182 70.0331C82.0437 70.1935 82.0792 70.3485 82.1164 70.5025C80.7014 71.1287 79.329 71.8679 78.0104 72.7155C77.9249 72.5879 77.8357 72.4612 77.7384 72.34C75.8659 70.0204 72.5083 69.8536 70.2393 71.9681C67.9702 74.0827 67.6492 77.6775 69.5226 79.9971C69.6181 80.1156 69.7209 80.225 69.8237 80.3335C68.8651 81.604 67.9912 82.9603 67.2072 84.394C67.0717 84.3329 66.9353 84.2737 66.7925 84.2245C64.036 83.2729 60.9676 84.9254 59.94 87.9168C58.9114 90.9081 60.3119 94.1046 63.0684 95.0562C63.2112 95.1054 63.3558 95.1437 63.4995 95.1792C63.2357 96.7916 63.0902 98.4003 63.0648 99.9926C62.9174 100.014 62.7692 100.036 62.621 100.071C59.7199 100.743 57.7628 103.772 58.2502 106.839C58.7377 109.905 61.4851 111.846 64.3862 111.175C64.538 111.141 64.6854 111.095 64.8318 111.048C65.3502 112.529 65.9768 113.959 66.7061 115.326C66.5824 115.424 66.4588 115.525 66.3405 115.635C64.0715 117.75 63.7505 121.344 65.6239 123.664C67.4964 125.984 72.6993 126.459 74.9674 124.345C75.0838 124.236 73.3468 123.813 73.4523 123.698C74.5973 124.659 75.8268 125.527 77.1337 126.294C77.07 126.441 77.0082 126.591 76.9545 126.746C75.9259 129.737 77.3265 132.933 80.083 133.885C82.8394 134.837 85.9079 133.184 86.9355 130.193C86.9892 130.038 87.0319 129.882 87.0719 129.726C88.5725 129.929 90.0749 130.005 91.5672 129.955C91.58 130.112 91.5936 130.268 91.6191 130.425C92.1065 133.491 94.8539 135.433 97.755 134.762C100.656 134.09 102.613 131.06 102.126 127.994C102.1 127.834 102.065 127.679 102.028 127.525C103.443 126.899 104.816 126.16 106.134 125.312C106.219 125.44 106.308 125.566 106.406 125.687C108.278 128.007 111.636 128.174 113.905 126.059C116.174 123.945 116.495 120.35 114.621 118.03C114.525 117.912 114.423 117.802 114.319 117.695C115.278 116.424 116.152 115.068 116.936 113.634C117.071 113.695 117.208 113.755 117.351 113.804L117.353 113.801ZM85.3122 118.677C75.3048 115.22 70.2184 103.615 73.9525 92.7548C77.6866 81.8948 88.8262 75.8919 98.8336 79.3482C108.841 82.8044 113.927 94.41 110.193 105.27C106.459 116.13 95.3196 122.133 85.3122 118.677Z" fill="#204A5F"/>
<path d="M121.526 97.9531C124.427 97.2822 126.384 94.2517 125.897 91.1855C125.409 88.1194 122.662 86.1771 119.761 86.8488C119.609 86.8835 119.462 86.929 119.315 86.9764C118.797 85.4953 118.17 84.0653 117.441 82.6981C117.564 82.6005 117.688 82.4994 117.806 82.3891C120.075 80.2745 122.594 75.5778 120.494 73.4632C116.508 69.4492 113.294 71.8736 111.025 73.9882C110.908 74.0967 110.801 74.2106 110.695 74.3264C109.55 73.3648 108.32 72.4971 107.013 71.7305C107.077 71.5829 107.14 71.4334 107.192 71.2794C107.753 69.6515 107.588 67.9653 106.881 66.6109C105.047 71.2311 103.248 75.864 101.495 80.5151C109.712 84.9539 113.581 95.4174 110.194 105.268C107.324 113.616 100.079 119.088 92.335 119.606C92.1159 120.542 91.904 121.482 91.6602 122.414C90.9973 124.941 90.1924 127.439 89.3857 129.932C90.1151 129.968 90.8445 129.974 91.5711 129.95C91.5829 130.106 91.5975 130.263 91.6229 130.42C92.1104 133.486 94.3349 135.84 99.6196 134.816C102.543 134.25 102.616 131.056 102.129 127.989C102.103 127.829 102.068 127.674 102.03 127.52C103.446 126.894 104.819 126.154 106.137 125.307C106.222 125.434 106.311 125.561 106.408 125.682C108.281 128.003 113.71 128.343 115.979 126.228C118.248 124.114 116.497 120.345 114.624 118.024C114.528 117.906 114.426 117.796 114.322 117.689C115.281 116.418 116.156 115.062 116.939 113.628C117.074 113.689 117.211 113.749 117.353 113.798C120.11 114.75 123.177 113.097 124.206 110.105C125.235 107.114 123.834 103.918 121.078 102.966C120.935 102.917 120.791 102.879 120.647 102.843C120.91 101.231 121.056 99.6219 121.081 98.0296C121.229 98.0087 121.377 97.9859 121.525 97.9513L121.526 97.9531Z" fill="#204A5F"/>
<path d="M124.337 97.8831C127.239 97.2122 129.194 94.1835 128.705 91.1183C128.221 88.0521 125.473 86.1071 122.57 86.7816C122.418 86.8162 122.271 86.8599 122.125 86.9101C121.607 85.429 120.979 83.9962 120.251 82.6299C120.374 82.5324 120.497 82.4321 120.618 82.3218C122.886 80.2063 123.206 76.6106 121.335 74.291C119.46 71.9713 116.103 71.8055 113.835 73.9182C113.717 74.0276 113.611 74.1424 113.503 74.2582C112.359 73.2975 111.131 72.428 109.824 71.6633C109.887 71.5147 109.949 71.3661 110.001 71.2121C111.03 68.2189 109.629 65.0233 106.874 64.0736C104.117 63.1202 101.05 64.7745 100.021 67.7641C99.9693 67.9181 99.9247 68.074 99.8856 68.2298C98.3841 68.0284 96.8799 67.9509 95.3903 68.002C95.3757 67.847 95.3603 67.6893 95.3384 67.5326C94.8501 64.4664 92.1036 62.5259 89.2025 63.1959C86.2987 63.8667 84.3434 66.8955 84.8309 69.9616C84.8563 70.1247 84.8918 70.2797 84.9291 70.431C83.5122 71.0581 82.1417 71.7991 80.8221 72.6458C80.7375 72.5173 80.6466 72.3897 80.5502 72.2703C79.3734 70.8138 77.6127 70.2049 75.9084 70.4793C74.8926 70.637 73.8968 71.1064 73.051 71.8966C70.7829 74.0121 70.4628 77.6041 72.3344 79.9274C72.4308 80.0441 72.5317 80.1535 72.6372 80.2619C71.6787 81.5325 70.802 82.8878 70.0199 84.3234C69.8853 84.2623 69.7471 84.2012 69.6043 84.1548C66.8478 83.2014 63.7803 84.8557 62.7508 87.8452C61.7213 90.8357 63.1228 94.034 65.8783 94.9837C66.0211 95.0339 66.1666 95.074 66.3112 95.1068C66.0457 96.721 65.9029 98.3279 65.8774 99.9211C65.7274 99.942 65.581 99.9658 65.4327 99.9995C62.5316 100.67 60.5736 103.699 61.062 106.769C61.5504 109.835 64.2968 111.776 67.1979 111.106C67.3489 111.068 67.4962 111.024 67.6426 110.977C68.1601 112.458 68.7876 113.888 69.5188 115.253C69.3933 115.354 69.2705 115.454 69.1532 115.563C66.8842 117.676 66.564 121.271 68.4357 123.591C70.3073 125.914 73.6667 126.08 75.9348 123.963C76.0494 123.854 76.1604 123.742 76.264 123.624C77.409 124.589 78.6395 125.454 79.9472 126.222C79.8845 126.368 79.8217 126.516 79.7672 126.674C78.7413 129.664 80.1418 132.859 82.8983 133.813C85.6548 134.762 88.7223 133.112 89.7509 130.118C89.8027 129.964 89.8446 129.809 89.8864 129.653C91.3879 129.857 92.8884 129.932 94.3817 129.881C94.3935 130.039 94.4081 130.193 94.4336 130.35C94.9219 133.419 97.6693 135.36 100.569 134.689C103.47 134.016 105.429 130.986 104.94 127.92C104.915 127.761 104.88 127.605 104.842 127.451C106.255 126.824 107.63 126.086 108.95 125.239C109.034 125.367 109.121 125.491 109.222 125.614C111.093 127.934 114.453 128.1 116.721 125.984C118.498 124.33 119.08 121.765 118.351 119.62C118.148 119.022 117.844 118.461 117.439 117.957C117.342 117.837 117.24 117.728 117.136 117.622C118.093 116.349 118.967 114.994 119.753 113.561C119.888 113.622 120.022 113.68 120.166 113.731C122.922 114.68 125.993 113.03 127.018 110.036C128.048 107.046 126.647 103.85 123.891 102.898C123.747 102.848 123.606 102.811 123.462 102.774C123.724 101.161 123.87 99.5538 123.895 97.9596C124.042 97.9396 124.192 97.9186 124.34 97.8812L124.337 97.8831ZM113.004 105.201C110.472 112.568 104.53 117.698 97.8503 119.158C94.68 119.853 91.3451 119.721 88.1248 118.609C78.1156 115.151 73.0292 103.548 76.7633 92.6869C78.4321 87.8306 81.5797 83.9488 85.4475 81.4477C90.2274 78.3488 96.1115 77.3672 101.645 79.2803C111.654 82.7347 116.738 94.3421 113.004 105.203V105.201Z" fill="url(#paint0_linear_355_11858)"/>
<g style="mix-blend-mode:soft-light" opacity="0.3">
<path d="M116.721 125.986C114.453 128.101 111.093 127.935 109.222 125.615C109.122 125.492 109.034 125.368 108.95 125.24C107.63 126.087 106.255 126.825 104.842 127.452C104.88 127.607 104.915 127.762 104.94 127.921C105.429 130.988 103.47 134.016 100.569 134.691C97.6684 135.362 94.9219 133.42 94.4335 130.351C94.409 130.195 94.3935 130.041 94.3817 129.882C92.8884 129.933 91.3879 129.858 89.8864 129.654C89.8445 129.81 89.8036 129.966 89.7509 130.12C88.7223 133.113 85.6539 134.764 82.8983 133.814C80.1418 132.861 78.7413 129.665 79.7671 126.676C79.8217 126.518 79.8845 126.369 79.9472 126.223C78.6404 125.455 77.409 124.59 76.264 123.626C76.1603 123.743 76.0494 123.855 75.9348 123.965C73.6667 126.08 70.3072 125.914 68.4356 123.592C66.564 121.272 66.8841 117.678 69.1532 115.565C69.2714 115.456 69.3933 115.354 69.5188 115.254C68.7876 113.889 68.1601 112.46 67.6426 110.978C67.4962 111.026 67.3489 111.07 67.1979 111.107C64.2968 111.778 61.5503 109.836 61.062 106.77C60.5736 103.701 62.5325 100.672 65.4327 100.001C65.5809 99.9672 65.7273 99.9435 65.8774 99.9225C65.9029 98.3284 66.0457 96.7224 66.3112 95.1082C66.1666 95.0754 66.022 95.0353 65.8783 94.9852C63.1218 94.0354 61.7213 90.8362 62.7508 87.8466C63.7803 84.8562 66.8478 83.2028 69.6042 84.1562C69.747 84.2027 69.8853 84.2637 70.0199 84.3248C70.802 82.8893 71.6787 81.5339 72.6372 80.2634C72.5326 80.1549 72.4308 80.0455 72.3344 79.9288C70.4628 77.6055 70.7829 74.0144 73.051 71.898C73.8959 71.1069 74.8926 70.6384 75.9084 70.4807C79.849 73.2096 83.6686 76.8645 85.4474 81.4482C81.5796 83.9502 78.4321 87.8321 76.7633 92.6874C73.0292 103.548 78.1156 115.151 88.1248 118.609C91.346 119.721 94.6809 119.853 97.8503 119.159C102.768 121.978 109.46 122.647 118.348 119.624C119.077 121.769 118.495 124.334 116.718 125.987L116.721 125.986Z" fill="#D9D9D9"/>
</g>
<path d="M247.027 115.123C251.959 116.587 257.241 113.433 258.822 108.08C260.404 102.727 257.686 97.2012 252.753 95.7374C252.498 95.6617 252.24 95.6052 251.984 95.5542C252.325 92.6904 252.456 89.8439 252.378 87.0348C252.636 86.9865 252.895 86.9346 253.154 86.8616C258.217 85.4525 261.432 79.9592 260.335 74.5916C259.239 69.2241 254.245 66.0149 249.182 67.423C248.917 67.4969 248.661 67.588 248.407 67.6837C247.38 65.1125 246.164 62.6406 244.771 60.2882C244.982 60.1059 245.191 59.919 245.392 59.7149C249.228 55.8111 249.516 49.4483 246.035 45.5044C242.553 41.5605 236.622 41.5277 232.786 45.4315C232.59 45.632 232.409 45.8416 232.23 46.054C230.137 44.448 227.901 43.0134 225.539 41.7647C225.64 41.4995 225.738 41.2315 225.82 40.9544C227.401 35.6014 229.66 29.656 224.705 28.2697C213.242 25.0632 209.537 30.3004 207.956 35.6543C207.874 35.9314 207.81 36.2094 207.751 36.4874C205.09 36.2458 202.436 36.2294 199.808 36.4345C199.775 36.1593 199.737 35.884 199.681 35.6097C198.584 30.2421 199.644 27.032 194.459 27.8842C183.152 29.7426 180.251 35.3444 181.348 40.712C181.405 40.9927 181.479 41.2634 181.557 41.5314C179.11 42.7454 176.748 44.1554 174.49 45.7514C174.329 45.5327 174.163 45.3166 173.98 45.1097C170.499 41.1659 164.568 41.1331 160.732 45.0377C156.896 48.9415 156.608 55.3044 160.09 59.2482C160.268 59.4506 160.456 59.6356 160.647 59.817C159.056 62.1311 157.62 64.5903 156.35 67.1788C156.106 67.0822 155.861 66.9883 155.605 66.9126C150.673 65.4488 145.391 68.6016 143.81 73.9554C142.228 79.3084 144.946 84.8346 149.879 86.2984C150.134 86.374 150.391 86.4305 150.648 86.4816C150.307 89.3453 150.176 92.1918 150.254 95.0009C149.996 95.0492 149.737 95.1012 149.478 95.1732C144.415 96.5823 141.2 102.076 142.297 107.444C143.393 112.812 148.387 116.021 153.45 114.612C153.715 114.538 153.971 114.447 154.225 114.352C155.252 116.923 156.468 119.395 157.861 121.748C157.65 121.931 157.44 122.118 157.24 122.322C153.404 126.226 153.116 132.588 156.597 136.532C160.079 140.476 169.286 140.909 173.122 137.005C173.318 136.805 170.223 136.195 170.402 135.983C172.495 137.589 174.731 139.023 177.093 140.272C176.992 140.537 176.894 140.805 176.812 141.082C175.231 146.435 177.948 151.961 182.881 153.425C187.814 154.889 193.095 151.735 194.676 146.382C194.758 146.105 194.822 145.827 194.881 145.549C197.542 145.791 200.196 145.807 202.824 145.602C202.857 145.877 202.896 146.153 202.951 146.428C204.048 151.795 209.042 155.005 214.104 153.596C219.167 152.186 222.382 146.693 221.285 141.326C221.228 141.045 221.154 140.774 221.076 140.506C223.522 139.292 225.885 137.882 228.143 136.286C228.304 136.505 228.471 136.721 228.653 136.927C232.134 140.871 238.065 140.904 241.901 137C245.737 133.096 246.025 126.733 242.543 122.789C242.365 122.588 242.176 122.403 241.986 122.221C243.577 119.906 245.013 117.447 246.283 114.859C246.527 114.955 246.772 115.049 247.028 115.125L247.027 115.123ZM190.919 126.209C173.009 120.894 163.145 100.831 168.887 81.3947C174.628 61.9589 193.801 50.511 211.712 55.8248C229.622 61.1395 239.487 81.2033 233.744 100.639C228.003 120.075 208.83 131.523 190.919 126.208V126.209Z" fill="#204A5F"/>
<path d="M253.155 86.8623C258.217 85.4532 261.432 79.9599 260.335 74.5914C259.239 69.2239 254.245 66.0146 249.182 67.4238C248.918 67.4976 248.661 67.5887 248.407 67.6844C247.38 65.1132 246.164 62.6414 244.771 60.2889C244.982 60.1066 245.192 59.9198 245.393 59.7156C249.229 55.8118 253.305 47.3362 249.439 43.7706C242.1 37.004 236.622 41.5284 232.786 45.4331C232.59 45.6336 232.409 45.8433 232.23 46.0556C230.137 44.4496 227.902 43.0159 225.539 41.7663C225.641 41.5011 225.738 41.2331 225.82 40.956C226.68 38.043 226.26 35.0826 224.91 32.7502C222.035 41.0372 219.222 49.3451 216.492 57.6803C231.321 64.8671 238.953 83.0124 233.746 100.642C229.332 115.581 216.982 125.791 203.371 127.306C203.058 128.974 202.758 130.649 202.398 132.31C201.425 136.817 200.2 141.283 198.971 145.742C200.259 145.748 201.545 145.702 202.824 145.603C202.858 145.878 202.895 146.153 202.951 146.429C204.048 151.796 208.152 155.772 217.389 153.556C222.5 152.33 222.381 146.695 221.284 141.326C221.227 141.046 221.154 140.775 221.075 140.507C223.522 139.293 225.884 137.883 228.143 136.287C228.303 136.506 228.47 136.722 228.652 136.928C232.133 140.871 241.73 141.05 245.566 137.146C249.402 133.242 246.024 126.734 242.542 122.79C242.364 122.588 242.175 122.403 241.985 122.221C243.576 119.907 245.012 117.448 246.282 114.86C246.526 114.957 246.771 115.051 247.027 115.127C251.96 116.59 257.241 113.437 258.822 108.084C260.404 102.731 257.686 97.2046 252.754 95.7408C252.498 95.6652 252.241 95.6087 251.984 95.5576C252.325 92.6938 252.456 89.8474 252.378 87.0382C252.636 86.9899 252.895 86.9371 253.155 86.8651V86.8623Z" fill="#204A5F"/>
<path d="M257.706 95.3977C257.449 95.3212 257.196 95.2656 256.937 95.2127C257.279 92.3516 257.409 89.5024 257.332 86.6961C257.59 86.6468 257.85 86.594 258.106 86.5202C263.171 85.1138 266.384 79.6186 265.288 74.252C264.191 68.8853 259.197 65.6725 254.135 67.0825C253.872 67.159 253.613 67.2493 253.359 67.3432C252.333 64.7719 251.117 62.3019 249.726 59.9467C249.936 59.7644 250.143 59.5785 250.345 59.3743C254.182 55.4706 254.469 49.1068 250.986 45.1647C247.507 41.22 241.576 41.1872 237.739 45.0909C237.541 45.2914 237.359 45.5029 237.185 45.7153C235.09 44.1056 232.855 42.6737 230.49 41.4232C230.594 41.158 230.691 40.8928 230.772 40.6157C232.354 35.2618 229.636 29.7366 224.704 28.2728C219.771 26.809 214.489 29.9608 212.907 35.3119C212.826 35.5926 212.762 35.8706 212.705 36.1459C210.043 35.9062 207.389 35.888 204.76 36.094C204.725 35.8187 204.691 35.5434 204.632 35.27C203.536 29.8997 198.541 26.6905 193.479 28.1005C188.418 29.5105 185.202 35.002 186.297 40.3723C186.356 40.6521 186.431 40.9237 186.507 41.1917C186.387 41.251 186.267 41.3111 186.147 41.3767C183.83 42.5452 181.587 43.8924 179.442 45.4108C179.278 45.1912 179.113 44.9752 178.93 44.771C175.451 40.8262 169.517 40.7934 165.684 44.6972C161.847 48.6009 161.56 54.9647 165.04 58.9095C165.22 59.11 165.407 59.2932 165.598 59.4782C164.007 61.7924 162.569 64.2515 161.302 66.8373C161.057 66.7416 160.812 66.6486 160.556 66.5721C155.623 65.1083 150.341 68.2601 148.76 73.6149C147.178 78.9688 149.896 84.494 154.828 85.9578C155.085 86.0344 155.342 86.09 155.597 86.1392C155.259 89.0039 155.126 91.8494 155.206 94.6594C154.948 94.7087 154.688 94.7615 154.428 94.8317C149.367 96.2417 146.151 101.737 147.246 107.104C148.343 112.47 153.338 115.679 158.399 114.269C158.666 114.196 158.921 114.106 159.175 114.012C160.204 116.581 161.417 119.054 162.812 121.406C162.602 121.588 162.391 121.778 162.189 121.981C158.356 125.885 158.066 132.246 161.549 136.191C165.029 140.136 170.962 140.168 174.799 136.265C174.993 136.064 175.175 135.853 175.353 135.64C177.444 137.246 179.68 138.682 182.045 139.93C181.944 140.195 181.847 140.464 181.762 140.741C180.181 146.095 182.897 151.62 187.831 153.084C192.763 154.547 198.045 151.396 199.627 146.041C199.708 145.764 199.772 145.486 199.832 145.211C202.491 145.45 205.144 145.468 207.774 145.262C207.808 145.538 207.846 145.813 207.902 146.086C208.999 151.453 213.992 154.666 219.054 153.256C223.769 151.943 226.878 147.092 226.401 142.096C226.366 141.726 226.311 141.354 226.236 140.984C226.178 140.704 226.106 140.433 226.026 140.165C228.472 138.952 230.834 137.541 233.094 135.946C233.255 136.162 233.42 136.378 233.602 136.585C237.085 140.53 243.015 140.563 246.852 136.659C250.689 132.755 250.976 126.392 247.493 122.447C247.317 122.246 247.127 122.062 246.936 121.878C248.526 119.564 249.965 117.106 251.234 114.519C251.475 114.615 251.724 114.708 251.98 114.784C256.91 116.247 262.191 113.095 263.773 107.742C265.354 102.388 262.638 96.8624 257.704 95.3986L257.706 95.3977ZM238.697 100.298C233.621 117.478 218.057 128.416 202.142 127.055C200.051 126.877 197.954 126.487 195.874 125.87C177.962 120.553 168.098 100.492 173.839 81.0533C177.15 69.8442 184.928 61.2947 194.355 57.0829C201.275 53.9876 209.083 53.2329 216.666 55.4842C234.574 60.8007 244.439 80.8628 238.697 100.298Z" fill="url(#paint1_linear_355_11858)"/>
<g style="mix-blend-mode:soft-light" opacity="0.3">
<path d="M219.055 153.252C213.994 154.662 208.999 151.45 207.902 146.083C207.847 145.809 207.809 145.534 207.774 145.259C205.145 145.464 202.491 145.447 199.833 145.207C199.773 145.482 199.708 145.76 199.627 146.037C198.046 151.391 192.764 154.544 187.831 153.08C182.898 151.616 180.181 146.092 181.762 140.737C181.847 140.46 181.944 140.191 182.045 139.926C179.681 138.678 177.444 137.243 175.354 135.637C175.175 135.849 174.994 136.061 174.799 136.261C170.962 140.165 165.029 140.131 161.549 136.187C158.066 132.242 158.356 125.881 162.19 121.978C162.392 121.774 162.602 121.585 162.813 121.403C161.418 119.05 160.205 116.577 159.176 114.009C158.921 114.103 158.666 114.194 158.399 114.266C153.338 115.676 148.344 112.467 147.247 107.1C146.15 101.733 149.367 96.2373 154.429 94.8282C154.689 94.758 154.947 94.7052 155.206 94.6559C155.126 91.8459 155.259 89.0004 155.597 86.1357C155.343 86.0864 155.084 86.0308 154.829 85.9543C149.896 84.4905 147.179 78.9662 148.76 73.6114C150.342 68.2575 155.624 65.1048 160.556 66.5686C160.813 66.6451 161.057 66.7381 161.302 66.8338C162.569 64.2471 164.007 61.7889 165.598 59.4747C165.407 59.2906 165.22 59.1065 165.041 58.906C161.561 54.9612 161.849 48.5974 165.685 44.6937C169.518 40.7899 175.451 40.8227 178.93 44.7675C179.113 44.9717 179.278 45.1877 179.442 45.4073C181.588 43.8888 183.83 42.5417 186.148 41.3732C189.828 46.0308 192.865 51.3099 194.354 57.0794C184.927 61.2912 177.15 69.8407 173.839 81.0497C168.096 100.488 177.962 120.55 195.873 125.867C197.954 126.484 200.05 126.874 202.142 127.052C207.869 134.733 215.941 140.3 226.402 142.091C226.879 147.086 223.77 151.938 219.055 153.251L219.055 153.252Z" fill="#D9D9D9"/>
</g>
<path d="M246.734 128.364L247.058 123.575C247.058 123.575 246.441 122.505 246.252 119.949C246.063 117.393 246.65 118.441 246.9 119.516C246.97 119.816 247.139 120.077 247.347 120.299C247.868 120.856 248.581 120.229 248.739 119.481L249.982 116.905C249.982 116.905 251.339 118.696 249.693 123.309C249.177 124.754 249.353 128.335 249.353 128.335L246.736 128.363L246.734 128.364Z" fill="url(#paint2_linear_355_11858)"/>
<path d="M162.78 126.482L161.892 121.736C161.892 121.736 163.171 120.025 162.739 118.16C162.307 116.295 162.597 116.969 162.069 118.115C161.542 119.26 160.791 117.209 160.223 115.347C159.655 113.486 159.112 116.251 159.168 117.918C159.224 119.584 159.22 120.574 160.125 121.848C161.03 123.123 160.54 127.404 160.54 127.404L162.779 126.482H162.78Z" fill="url(#paint3_linear_355_11858)"/>
<path d="M222.411 259.519C222.519 258.493 224.975 258.868 226.584 259.134C228.193 259.4 228.861 260.099 229.073 260.725C229.285 261.351 228.993 262.839 227.54 262.108C226.347 261.508 222.314 260.425 222.41 259.519H222.411Z" fill="#26264F"/>
<path d="M225.657 255.738L226.539 259.798C226.539 259.798 227.638 260.669 228.044 260.301L227.925 255.684L225.657 255.739V255.738Z" fill="url(#paint4_linear_355_11858)"/>
<path d="M217.679 252.828L221.38 254.755L220.609 256.646L216.856 255.39L217.679 252.828Z" fill="url(#paint5_linear_355_11858)"/>
<path d="M216.955 260.321C216.955 260.321 219.451 261.153 220.677 259.724C221.465 258.805 222.178 257.203 222.587 256.175C222.809 255.617 222.562 254.985 222.022 254.726C221.237 254.349 220.165 253.927 219.679 254.159C218.867 254.547 219.402 257.527 219.008 258.267C218.614 259.007 216.919 259.385 216.955 260.321V260.321Z" fill="#26264F"/>
<path d="M215.573 192.829C215.522 202.102 216.066 212.886 217.798 224.783C219.603 237.185 222.303 248.072 225.134 257.212C225.454 257.393 226.029 257.663 226.796 257.738C227.693 257.825 228.399 257.599 228.755 257.458C229.701 252.74 230.294 248.745 230.675 245.772C231.68 237.924 232.167 233.902 231.414 229.14C230.707 224.671 229.876 224.96 229.157 220.026C228.517 215.637 228.722 212.309 229.05 207.438C229.276 204.092 229.734 199.585 230.742 194.269C225.685 193.788 220.628 193.308 215.571 192.829H215.573Z" fill="#474747"/>
<path style="mix-blend-mode:multiply" opacity="0.3" d="M225.855 253.992C225.065 250.664 227.157 249.311 227.205 245.159C227.264 240.087 224.169 239.724 223.573 233.975C223.094 229.356 225.041 229.092 224.909 223.507C224.77 217.572 222.532 216.218 223.257 212.71C223.66 210.76 224.988 208.152 229.202 205.501C229.464 202.425 229.918 198.626 230.744 194.269C225.686 193.789 220.63 193.308 215.573 192.829C215.522 202.102 216.066 212.886 217.798 224.783C219.603 237.185 222.303 248.072 225.134 257.212C225.454 257.393 226.029 257.663 226.796 257.738C227.202 257.777 227.562 257.748 227.876 257.696C226.981 256.7 226.206 255.478 225.854 253.992H225.855Z" fill="url(#paint6_linear_355_11858)"/>
<path d="M203.323 190.362C202.988 192.575 202.398 195.919 201.347 199.913C198.976 208.918 196.767 211.704 195.832 217.634C194.742 224.548 196.267 230.153 196.847 232.285C200.806 246.837 213.87 254.375 217.337 256.238C217.83 254.953 218.323 253.668 218.815 252.384C217.997 251.117 216.796 249.085 215.714 246.428C213.866 241.892 213.897 239.296 212.726 234.874C210.615 226.895 208.534 227.863 208.321 223.859C207.984 217.513 213.223 215.318 218.608 203.596C220.151 200.238 221.113 197.388 221.655 195.633C215.545 193.877 209.434 192.12 203.324 190.363L203.323 190.362Z" fill="#474747"/>
<path d="M246.035 126.392C247.34 126.271 248.644 126.15 249.948 126.029C251.413 128.423 255.592 135.958 254.02 145.539C253.648 147.809 252.193 155.329 245.388 160.927C240.515 164.935 235.332 165.946 232.967 166.256C232.202 177.487 231.935 184.584 232.033 188.849C232.045 189.363 232.151 193.679 231.198 199.171C230.908 200.845 230.757 201.691 230.495 202.141C226.865 208.381 208.909 202.019 204.11 199.541C202.862 198.897 201.609 198.034 201.143 196.625C200.545 194.815 201.34 193.264 201.715 191.887C202.634 188.505 200.775 185.778 197.147 178.848C195.613 175.917 193.395 171.524 190.841 165.843C187.388 166.603 179.29 167.834 171.731 163.568C160.625 157.3 155.105 141.656 159.559 125.413C160.747 125.159 161.935 124.904 163.123 124.65C163.678 127.898 164.874 132.303 167.626 136.852C169.296 139.611 170.686 141.908 173.274 143.317C177.336 145.527 181.192 143.825 186.726 142.849C195.446 141.31 202.565 142.59 211.211 144.145C220.657 145.844 223.132 147.98 230.18 147.136C233.315 146.761 237.243 146.241 240.623 143.373C247.275 137.732 246.205 127.764 246.038 126.394L246.035 126.392Z" fill="#25536A"/>
<path d="M209.627 136.523C209.627 136.523 208.902 138.774 209.636 139.855C210.37 140.936 212.788 145.051 213.65 145.302C214.14 145.445 215.375 145.72 216.346 145.929C216.857 146.04 216.919 146.76 216.426 146.936C215.421 147.294 213.672 147.604 210.718 147.37C206.449 147.033 203.122 145.17 201.682 144.225C201.477 144.091 201.6 143.774 201.842 143.808L203.754 144.084C205.392 144.32 206.841 143.005 206.769 141.348L206.722 140.269L209.626 136.523H209.627Z" fill="url(#paint7_linear_355_11858)"/>
<path d="M207.551 141.012C207.296 140.849 205.166 140.441 204.949 139.263C204.653 137.664 206.192 135.847 206.388 135.551C207.21 134.313 207.407 134.151 207.763 133.956L208.256 133.71C208.256 133.71 208.285 133.702 208.314 133.694C208.623 133.614 209.648 133.675 209.851 133.738C210.499 133.94 210.959 136.704 210.413 140.503C210.427 140.651 210.44 140.8 210.453 140.951C210.484 141.341 207.521 141.146 207.551 141.011V141.012Z" fill="url(#paint8_linear_355_11858)"/>
<path d="M206.041 133.316C205.917 133.777 207.086 134.79 207.587 135.227C207.648 135.28 207.821 135.457 207.971 135.734C207.993 135.774 208.011 135.82 208.026 135.879C208.217 136.648 206.955 137.418 207.154 137.773C207.297 138.03 208.13 137.779 208.207 137.997C208.279 138.202 207.575 138.548 207.656 138.793C207.717 138.978 208.142 138.853 208.377 139.149C208.493 139.296 208.446 139.4 208.545 139.828C208.601 140.069 208.686 140.336 208.757 140.487C209.102 141.218 210.234 141.577 210.481 141.319C210.55 141.247 210.503 141.178 210.59 140.923C210.59 140.923 210.67 140.687 210.862 140.425C211.137 140.048 211.74 139.816 212.359 139.449C213.507 138.769 213.86 138.133 213.968 137.917C213.98 137.892 213.991 137.87 214.001 137.849C214.019 137.813 214.035 137.775 214.05 137.739C214.333 136.997 213.461 135.615 213.461 135.615C212.761 134.524 211.835 133.76 211.087 133.264C209.684 132.887 208.522 132.843 207.714 132.878C207.055 132.906 206.139 132.953 206.04 133.317L206.041 133.316Z" fill="#474747"/>
<path d="M205.333 137.215C205.333 137.215 206.168 138.371 207.459 137.139L208.04 137.355C208.04 137.355 206.373 140.455 206.063 140.433C205.753 140.412 204.861 140.143 204.861 140.143C204.53 139.977 204.364 139.6 204.467 139.244C204.653 138.596 205.092 137.663 205.333 137.215V137.215Z" fill="#474747"/>
<path d="M207.722 137.541C208.048 137.169 208.522 137.589 208.478 138.105C208.434 138.621 207.888 139.111 207.414 138.965C206.939 138.819 207.285 138.042 207.722 137.541V137.541Z" fill="url(#paint9_linear_355_11858)"/>
<path style="mix-blend-mode:multiply" opacity="0.3" d="M225.752 199.931C219.403 201.7 212.393 198.006 210.885 193.515C209.77 190.194 212.828 187.308 211.037 183.846C209.313 180.512 205.71 181.709 203.511 178.306C201.114 174.598 204.428 171.684 202.41 166.792C200.891 163.112 196.895 159.621 192.754 159.347C187.833 159.021 185.688 163.436 181.522 162.228C179.346 161.597 179.487 160.264 176.549 157.868C171.45 153.708 167.75 155.053 163.521 152.079C162.277 151.205 160.913 149.902 159.698 147.873C161.879 154.76 166.079 160.378 171.729 163.567C179.287 167.833 187.387 166.602 190.839 165.842C193.393 171.523 195.611 175.916 197.145 178.847C200.773 185.776 202.632 188.503 201.713 191.886C201.339 193.263 200.543 194.813 201.141 196.624C201.607 198.033 202.86 198.896 204.108 199.54C208.907 202.018 226.863 208.38 230.493 202.14C230.755 201.69 230.905 200.845 231.196 199.17C231.377 198.128 231.52 197.129 231.632 196.188C230.245 197.74 228.335 199.211 225.75 199.93L225.752 199.931Z" fill="url(#paint10_linear_355_11858)"/>
<path d="M101.232 166.622C101.232 166.622 81.2966 181.356 67.1322 172.433L65.1787 190.839C65.1787 190.839 93.2428 198.714 101.395 169.974L101.231 166.622H101.232Z" fill="url(#paint11_linear_355_11858)"/>
<path d="M149.648 200.911C153.269 200.587 156.142 197.253 156.067 193.465C156.013 190.773 154.484 188.575 152.309 187.645C152.276 187.63 152.248 187.619 152.215 187.609C151.349 187.256 150.385 187.101 149.374 187.191C149.184 187.209 149 187.237 148.813 187.27C148.436 185.393 147.918 183.558 147.263 181.785C147.433 181.688 147.598 181.584 147.76 181.472C150.857 179.299 151.845 175.006 149.972 171.885C149.274 170.725 148.278 169.892 147.142 169.416C145.693 168.8 144.013 168.771 142.442 169.383C141.934 169.582 141.442 169.844 140.967 170.176C140.809 170.288 140.662 170.407 140.515 170.53C139.291 169.174 137.947 167.916 136.498 166.771C136.599 166.605 136.699 166.435 136.789 166.256C138.454 162.973 140.605 159.397 138.018 157.717C137.993 157.699 137.965 157.682 137.935 157.667C137.832 157.606 137.724 157.545 137.615 157.49C130.218 153.868 127.043 156.968 125.299 160.41C125.266 160.474 125.238 160.539 125.209 160.605C125.155 160.721 125.104 160.835 125.058 160.951C123.278 160.454 121.477 160.112 119.66 159.92C119.671 159.729 119.682 159.538 119.679 159.343C119.618 156.24 120.358 154.247 118.632 153.609C118.33 153.497 117.945 153.361 117.471 153.335C117.413 153.331 117.355 153.328 117.298 153.328H116.967C109.138 153.328 106.496 156.686 106.571 160.46C106.575 160.658 106.593 160.878 106.61 161.072C105.642 161.347 104.686 161.674 103.744 162.031C103.741 162.031 103.737 162.035 103.734 162.035C102.903 162.348 102.087 162.698 101.277 163.073C101.194 162.903 101.108 162.741 101.011 162.575C100.313 161.415 99.3174 160.586 98.1806 160.11C96.9865 159.601 95.6342 159.494 94.3182 159.815C93.5234 160.006 92.7358 160.355 92.0055 160.871C88.9089 163.044 87.9204 167.337 89.7938 170.454C89.8911 170.613 89.9948 170.764 90.103 170.912C88.888 172.129 87.7367 173.445 86.6654 174.847C86.5289 175.024 86.3953 175.201 86.2625 175.38C86.1079 175.283 85.9533 175.189 85.7878 175.103C85.6623 175.039 85.5395 174.981 85.4103 174.93C82.3074 173.608 78.5596 175.107 76.8844 178.416C75.1401 181.857 76.2988 185.959 79.4736 187.574C79.6355 187.657 79.8046 187.725 79.9738 187.793C79.3836 189.7 78.9379 191.617 78.6396 193.538C78.4596 193.538 78.2768 193.542 78.0931 193.56C74.4717 193.885 71.5988 197.215 71.6743 201.006C71.7107 202.801 72.4009 204.376 73.505 205.5C74.7309 206.751 76.4606 207.538 78.3668 207.369C78.525 207.354 78.6869 207.389 78.8452 207.389H78.8524C78.8779 207.389 78.9025 207.289 78.9279 207.286C78.9316 207.3 78.9352 207.267 78.9352 207.281C78.9388 207.285 78.9388 207.267 78.9388 207.27C79.3163 209.126 79.8274 210.924 80.4712 212.683C80.4712 212.687 80.4749 212.689 80.4749 212.693C80.3094 212.79 80.1438 212.888 79.982 213C78.2022 214.25 77.1154 216.177 76.8753 218.181C76.6953 219.662 76.9763 221.186 77.7702 222.509C79.2235 224.923 83.265 226.491 86.4553 225.77H86.4626C87.2001 225.77 87.8904 225.514 88.4906 225.186C88.5552 225.251 88.6161 225.341 88.6816 225.409C88.6889 225.42 88.6998 225.431 88.707 225.438C89.1854 225.903 89.6783 226.361 90.1885 226.801C90.214 226.826 90.2385 226.848 90.264 226.869C90.5841 227.146 90.9115 227.417 91.2453 227.681C91.2416 227.684 91.2416 227.688 91.238 227.691C91.1407 227.857 91.0406 228.031 90.9542 228.203C90.6087 228.884 90.3786 229.59 90.2531 230.296C90.0694 231.335 90.1167 232.376 90.3686 233.345C90.5559 234.055 90.8542 234.729 91.2571 235.331C91.4981 235.695 91.7755 236.03 92.0947 236.337C92.5121 236.74 92.9977 237.137 93.5407 237.414C94.7384 238.026 96.0543 238.023 97.3203 238.023H97.3275C99.4092 237.663 101.359 236.243 102.441 234.105C102.535 233.929 102.61 233.67 102.686 233.489C103.599 233.745 104.517 234.059 105.441 234.059H105.444C105.61 234.059 105.775 234.059 105.941 234.419H105.948C105.963 234.419 105.981 234.343 105.998 234.343C106.016 234.347 106.034 234.309 106.048 234.312C106.174 234.334 106.304 234.335 106.433 234.352C106.541 234.371 106.652 234.378 106.76 234.392C107.198 234.461 107.596 234.51 108.039 234.557C108.024 234.744 107.976 234.901 107.976 235.088V235.127C107.976 235.173 108.024 235.213 108.027 235.254C108.028 235.288 108.051 235.324 108.054 235.358C108.054 235.394 108.065 235.426 108.069 235.463C108.08 235.628 108.103 235.791 108.125 235.949C108.129 235.999 108.139 236.047 108.146 236.097C108.502 238.345 109.92 240.137 111.84 240.951C111.912 240.984 111.988 241.012 112.068 241.042C112.176 241.082 112.288 241.121 112.402 241.157C112.435 241.172 112.47 241.183 112.507 241.19C113.212 241.392 113.97 241.471 114.758 241.402C114.923 241.388 115.085 241.366 115.243 241.338C115.287 241.33 115.333 241.323 115.376 241.312C118.699 240.689 121.245 237.524 121.173 233.956C121.169 233.823 121.162 233.693 121.151 233.563C121.147 233.524 121.144 233.48 121.14 233.441C121.136 233.419 121.136 233.398 121.133 233.373C122.949 232.854 124.732 232.19 126.466 231.387C126.548 231.556 126.635 231.726 126.732 231.888C126.776 231.96 126.822 232.032 126.872 232.104C127.034 232.353 127.211 232.587 127.404 232.803C127.404 232.803 127.407 232.805 127.412 232.81C128.376 233.906 129.666 234.577 131.051 234.771C131.677 234.865 132.324 234.857 132.971 234.745C133.92 234.59 134.866 234.212 135.736 233.599C138.688 231.526 139.724 227.526 138.189 224.451C138.15 224.372 138.11 224.293 138.064 224.213C138.027 224.145 137.988 224.077 137.949 224.012C137.852 223.853 137.748 223.702 137.64 223.558C139.009 222.181 140.294 220.689 141.48 219.089C141.635 219.187 141.79 219.281 141.955 219.364C142.765 219.775 143.624 219.983 144.491 220.009C144.912 220.027 145.328 219.998 145.746 219.926C147.827 219.572 149.774 218.192 150.859 216.051C152.6 212.61 151.445 208.512 148.27 206.897C148.108 206.814 147.939 206.742 147.771 206.673C148.36 204.77 148.807 202.85 149.105 200.928C149.285 200.928 149.468 200.925 149.652 200.91L149.648 200.911ZM87.2274 223.941C87.2665 223.984 87.3065 224.027 87.3465 224.07C87.2492 224.009 87.1992 223.962 87.2274 223.941ZM102.407 219.868C90.8851 214.005 86.6808 199.12 93.0141 186.621C96.2508 180.235 101.608 175.709 107.614 173.586C111.473 172.227 115.597 171.859 119.596 172.634C121.556 173.009 123.484 173.661 125.335 174.602C126.486 175.189 127.569 175.863 128.568 176.624C128.666 176.692 128.763 176.768 128.859 176.843C129.283 177.171 129.69 177.517 130.085 177.874C130.247 178.022 130.405 178.169 130.564 178.324C130.589 178.346 130.614 178.371 130.639 178.396C130.805 178.555 130.966 178.717 131.125 178.883C131.147 178.905 131.171 178.926 131.189 178.951C131.34 179.106 131.488 179.261 131.631 179.424C131.668 179.464 131.703 179.503 131.739 179.546C131.883 179.704 132.021 179.863 132.153 180.025C132.181 180.054 132.207 180.083 132.229 180.115C132.365 180.274 132.495 180.436 132.621 180.602C133.164 181.29 133.664 182.008 134.12 182.758C134.229 182.927 134.329 183.104 134.43 183.276C134.459 183.323 134.483 183.37 134.509 183.417C134.599 183.568 134.682 183.719 134.761 183.874C134.807 183.954 134.851 184.036 134.893 184.119C134.969 184.263 135.044 184.407 135.113 184.552C135.386 185.1 135.637 185.659 135.867 186.229C135.957 186.445 136.04 186.664 136.123 186.885C136.195 187.083 136.267 187.285 136.335 187.486C136.388 187.634 136.436 187.782 136.482 187.929C136.515 188.03 136.547 188.131 136.576 188.232C136.615 188.35 136.648 188.466 136.68 188.582C136.717 188.7 136.749 188.816 136.778 188.932C136.82 189.069 136.857 189.209 136.89 189.347C137.011 189.822 137.12 190.302 137.213 190.785C137.263 191.052 137.311 191.314 137.353 191.581C137.396 191.838 137.433 192.093 137.464 192.353C137.468 192.385 137.472 192.417 137.475 192.454C137.501 192.638 137.522 192.821 137.54 193.005C137.554 193.135 137.565 193.261 137.576 193.391C137.587 193.496 137.594 193.599 137.602 193.708C137.616 193.867 137.627 194.029 137.634 194.191C137.89 198.704 136.969 203.425 134.729 207.846C133.366 210.539 131.622 212.899 129.615 214.892C129.403 215.101 129.19 215.307 128.975 215.508C128.756 215.71 128.536 215.905 128.313 216.1C128.19 216.204 128.068 216.312 127.943 216.413C127.842 216.5 127.737 216.583 127.633 216.666C127.407 216.85 127.177 217.029 126.943 217.206C124.937 218.724 122.75 219.916 120.467 220.764C120.093 220.9 119.719 221.031 119.341 221.149C118.957 221.271 118.568 221.383 118.176 221.484C118.169 221.488 118.162 221.488 118.154 221.492C117.924 221.549 117.691 221.608 117.457 221.658C117.22 221.715 116.979 221.766 116.738 221.809C115.03 222.144 113.289 222.285 111.552 222.227C111.315 222.22 111.081 222.209 110.847 222.188C110.811 222.188 110.772 222.184 110.735 222.181C107.891 221.983 105.071 221.226 102.407 219.87V219.868Z" fill="#204A5F"/>
<path d="M149.101 200.929C148.803 202.851 148.356 204.771 147.767 206.674C147.936 206.743 148.105 206.815 148.266 206.898C151.442 208.512 152.596 212.61 150.855 216.052C149.769 218.193 147.824 219.573 145.741 219.927C145.324 219.999 144.908 220.028 144.486 220.01C143.62 219.984 142.76 219.775 141.951 219.364C141.785 219.281 141.631 219.188 141.476 219.09C140.289 220.691 139.005 222.183 137.636 223.559C137.744 223.703 137.848 223.854 137.945 224.013C137.984 224.078 138.024 224.146 138.059 224.214C138.106 224.29 138.153 224.369 138.196 224.449C139.944 227.569 141.162 232.082 138.207 234.158C137.311 234.785 136.135 235.121 134.866 235.207C133.622 235.29 132.256 235.135 131.019 234.772C129.602 234.361 128.47 233.683 127.39 232.797V232.616H127.444C127.225 232.616 127.034 232.258 126.868 232.016C126.818 231.944 126.771 231.916 126.728 231.844C126.631 231.682 126.544 231.534 126.462 231.366C124.728 232.169 122.945 232.844 121.129 233.363C121.132 233.388 121.132 233.414 121.136 233.436C121.14 233.476 121.197 233.522 121.2 233.561C121.211 233.659 121.276 233.755 121.276 233.877V233.957C121.276 237.719 120.597 241.627 116.993 241.627H116.983C115.181 241.728 113.699 241.566 112.502 241.191C112.465 241.184 112.43 241.173 112.397 241.158C112.283 241.122 112.171 241.083 112.063 241.042C111.983 241.013 111.908 240.985 111.836 240.952C109.538 240.008 108.438 238.206 108.143 236.098C108.136 236.048 108.128 236 108.125 235.95C108.103 235.762 108.085 235.576 108.075 235.384C108.075 235.377 108.075 235.366 108.071 235.359C108.06 235.261 108.01 235.193 108.006 235.088C108.003 234.893 107.97 234.745 107.97 234.551V234.547C107.611 234.505 107.14 234.446 106.7 234.382C106.592 234.367 106.507 234.349 106.402 234.331C106.273 234.313 106.154 234.374 106.028 234.353C105.999 234.346 105.971 234.418 105.942 234.418H105.935C105.769 234.058 105.604 234.058 105.438 234.058H105.435C106.826 231.175 108.279 228.347 109.505 225.403C109.954 224.322 110.484 223.248 110.843 222.16C110.847 222.156 110.847 222.169 110.847 222.165C110.847 222.18 111.231 222.197 111.49 222.208C111.516 222.212 111.537 222.215 111.559 222.215C113.299 222.276 115.025 222.137 116.733 221.805C116.974 221.759 117.212 221.709 117.453 221.655C117.686 221.605 117.92 221.547 118.15 221.49C118.158 221.486 118.165 221.486 118.172 221.483C118.564 221.381 118.952 221.27 119.337 221.147C119.714 221.028 120.089 220.902 120.463 220.762C122.754 219.922 124.94 218.725 126.954 217.204C127.187 217.027 127.41 216.847 127.637 216.664C127.741 216.581 127.841 216.498 127.938 216.411C128.064 216.31 128.187 216.203 128.309 216.098C128.531 215.903 128.751 215.709 128.971 215.506C129.186 215.305 129.399 215.099 129.611 214.89C131.617 212.897 133.361 210.537 134.725 207.845C136.965 203.422 137.886 198.701 137.63 194.189C137.623 194.027 137.612 193.865 137.597 193.706C137.59 193.598 137.583 193.494 137.572 193.389C137.561 193.259 137.55 193.133 137.536 193.003C137.517 192.819 137.497 192.636 137.471 192.452C137.467 192.415 137.464 192.384 137.46 192.351C137.427 192.091 137.392 191.836 137.349 191.58C137.306 191.313 137.259 191.05 137.209 190.783C137.116 190.3 137.008 189.821 136.885 189.345C136.853 189.208 136.817 189.068 136.774 188.93C136.744 188.814 136.713 188.699 136.676 188.58C136.644 188.464 136.612 188.349 136.572 188.23C136.543 188.129 136.511 188.029 136.478 187.927C136.431 187.78 136.384 187.632 136.331 187.484C136.262 187.283 136.191 187.081 136.119 186.883C136.036 186.663 135.953 186.444 135.863 186.227C135.633 185.657 135.381 185.098 135.108 184.55C135.04 184.406 134.965 184.262 134.889 184.118C134.846 184.035 134.803 183.952 134.756 183.872C134.677 183.717 134.595 183.566 134.505 183.415C134.479 183.368 134.455 183.321 134.425 183.274C134.324 183.101 134.224 182.924 134.116 182.756C133.66 182.007 133.159 181.289 132.617 180.6C132.491 180.434 132.361 180.272 132.225 180.114C132.203 180.081 132.177 180.052 132.149 180.023C132.016 179.861 131.879 179.702 131.735 179.544C131.7 179.501 131.663 179.461 131.627 179.422C131.483 179.26 131.336 179.105 131.185 178.95C131.167 178.924 131.141 178.903 131.121 178.881C130.962 178.715 130.8 178.553 130.635 178.395C130.609 178.369 130.585 178.344 130.559 178.323C130.401 178.168 130.243 178.02 130.081 177.872C129.685 177.516 129.279 177.17 128.855 176.841C128.758 176.766 128.661 176.69 128.564 176.622C128.492 176.564 128.424 176.51 128.352 176.46C128.59 176.028 128.827 175.591 129.064 175.159C131.733 170.268 134.444 165.406 137.191 160.559C137.817 162.315 137.734 164.379 136.784 166.254C136.694 166.434 136.594 166.603 136.493 166.769C137.943 167.915 139.287 169.172 140.51 170.528C140.658 170.406 140.805 170.286 140.963 170.174C141.395 169.872 141.852 169.562 142.327 169.273C145.254 167.485 148.933 166.379 152.499 171.132C154.682 174.041 150.852 179.295 147.756 181.469C147.594 181.581 147.428 181.685 147.259 181.782C147.914 183.555 148.432 185.39 148.809 187.268C148.996 187.235 149.179 187.203 149.37 187.188C150.38 187.098 151.344 187.253 152.211 187.607C152.244 187.618 152.272 187.628 152.305 187.642C154.48 188.572 156.009 190.77 156.063 193.463C156.138 197.251 153.265 200.584 149.644 200.908C149.46 200.923 149.277 200.927 149.097 200.927L149.101 200.929Z" fill="#204A5F"/>
<path d="M153.061 201.296C156.682 200.975 159.555 197.641 159.476 193.854C159.401 190.062 156.405 187.255 152.787 187.579C152.625 187.59 152.467 187.616 152.309 187.644C152.28 187.648 152.255 187.655 152.226 187.658C152.223 187.64 152.219 187.626 152.215 187.608C151.838 185.749 151.323 183.932 150.677 182.17C150.846 182.072 151.011 181.972 151.173 181.86C154.27 179.687 155.258 175.394 153.385 172.273C153.129 171.851 152.835 171.469 152.504 171.134C151.105 169.696 149.112 169.083 147.142 169.415C146.192 169.573 145.25 169.955 144.38 170.564C144.221 170.673 144.074 170.795 143.923 170.918C143.448 170.392 142.952 169.876 142.442 169.383C142.405 169.343 142.366 169.307 142.33 169.274C141.56 168.532 140.755 167.825 139.91 167.159C140.011 166.993 140.111 166.824 140.201 166.644C141.87 163.354 140.884 159.457 138.018 157.716C137.993 157.698 137.965 157.681 137.935 157.666C137.832 157.605 137.724 157.544 137.615 157.489C134.443 155.875 130.455 157.356 128.711 160.798C128.621 160.978 128.546 161.158 128.47 161.338C127.391 161.036 126.302 160.791 125.209 160.603C124.497 160.481 123.785 160.38 123.073 160.308C123.084 160.116 123.094 159.922 123.091 159.731C123.03 156.754 121.177 154.328 118.632 153.607C118.258 153.495 117.87 153.366 117.471 153.333C117.413 153.329 117.355 153.326 117.298 153.326H117.28C117.175 153.326 117.071 153.376 116.967 153.376C116.78 153.376 116.589 153.409 116.398 153.426C112.781 153.747 109.908 157.095 109.983 160.883C109.987 161.081 110.001 161.283 110.023 161.473C108.207 161.992 106.424 162.659 104.69 163.463C104.608 163.293 104.521 163.128 104.424 162.965C104.223 162.63 103.995 162.324 103.744 162.043C103.741 162.039 103.737 162.036 103.734 162.032C102.328 160.446 100.245 159.758 98.1815 160.108C97.4121 160.234 96.6464 160.508 95.9234 160.933C95.7542 161.03 95.5851 161.138 95.4195 161.254C92.3229 163.43 91.3344 167.719 93.2078 170.84C93.3051 170.999 93.4088 171.15 93.517 171.298C92.1474 172.671 90.8597 174.163 89.6728 175.763C89.5219 175.669 89.3636 175.575 89.2018 175.489C88.3924 175.078 87.533 174.869 86.6663 174.843C86.2488 174.825 85.8287 174.854 85.4113 174.926C83.3287 175.28 81.3797 176.664 80.2975 178.801C78.5532 182.243 79.7119 186.344 82.883 187.959C83.0486 188.042 83.2177 188.111 83.3869 188.179C82.7975 190.082 82.351 192.002 82.0527 193.924C81.8727 193.924 81.6899 193.927 81.5025 193.946C77.8848 194.266 75.0119 197.601 75.0874 201.391C75.141 204.08 76.6625 206.275 78.8379 207.205C78.8415 207.205 78.8415 207.278 78.8452 207.278C78.8779 207.293 78.9061 207.385 78.9388 207.385H78.9425C79.8092 207.745 80.7659 207.823 81.7799 207.733C81.9672 207.719 82.1537 207.655 82.3374 207.618C82.7148 209.496 83.2368 211.313 83.887 213.09C83.7215 213.187 83.556 213.279 83.3941 213.392C80.2975 215.568 79.3053 219.777 81.1824 222.898C82.351 224.84 84.3581 225.766 86.4544 225.766H86.4616C87.2028 225.766 87.9504 225.687 88.6807 225.406C88.6879 225.406 88.6988 225.403 88.7061 225.399C89.2136 225.204 89.7092 224.977 90.1839 224.646C90.3458 224.534 90.4932 224.43 90.6405 224.307C91.8637 225.662 93.2042 226.928 94.6574 228.073C94.5529 228.239 94.4564 228.42 94.3664 228.596C92.6221 232.037 93.7807 236.139 96.9519 237.753C97.0711 237.814 97.1966 237.872 97.3184 237.926C97.3221 237.926 97.3221 237.93 97.3257 237.93C100.429 239.252 104.176 237.753 105.852 234.444C105.884 234.38 105.916 234.315 105.945 234.249C105.999 234.134 106.05 234.019 106.096 233.903C107.876 234.401 109.678 234.746 111.49 234.934C111.479 235.129 111.472 235.319 111.476 235.514C111.529 238.207 113.058 240.326 115.241 241.256C115.284 241.274 115.331 241.292 115.373 241.309C115.881 241.508 116.42 241.623 116.984 241.623H116.995C117.376 241.983 117.768 241.745 118.167 241.71C118.39 241.688 118.609 241.659 118.829 241.616C121.976 241.007 124.379 238.141 124.541 234.797C124.549 234.649 124.514 234.498 124.514 234.343V233.742C125.593 233.465 126.445 233.157 127.387 232.801C127.391 232.801 127.398 232.709 127.401 232.709C127.412 232.705 127.431 232.974 127.445 232.613H127.449C128.265 232.613 129.074 232.053 129.876 231.682C129.959 231.851 130.045 232.068 130.143 232.23C130.84 233.391 131.833 234.246 132.969 234.721C133.57 234.981 134.209 235.143 134.868 235.194C136.303 235.302 137.809 234.918 139.144 233.981C139.967 233.404 140.64 232.68 141.147 231.865C142.416 229.85 142.686 227.303 141.743 225.148C141.631 224.892 141.502 224.644 141.355 224.399C141.261 224.241 141.154 224.089 141.049 223.942C141.078 223.912 141.11 223.881 141.136 223.851C142.323 222.658 143.441 221.372 144.487 220.006C144.623 219.833 144.757 219.653 144.89 219.476C145.044 219.574 145.199 219.668 145.365 219.751C145.49 219.815 145.613 219.873 145.742 219.924C148.845 221.246 152.589 219.751 154.264 216.439C156.009 212.997 154.85 208.899 151.679 207.284C151.513 207.197 151.348 207.129 151.179 207.061C151.769 205.157 152.211 203.237 152.509 201.316C152.693 201.316 152.876 201.312 153.059 201.294L153.061 201.296ZM111.552 222.224C111.537 222.224 111.519 222.221 111.505 222.217C111.501 222.217 111.497 222.217 111.494 222.214C109.556 221.835 107.65 221.19 105.815 220.253C94.2973 214.392 90.093 199.508 96.4263 187.009C99.1664 181.599 103.432 177.523 108.322 175.115C111.864 173.367 115.737 172.498 119.595 172.632C122.716 172.737 125.827 173.501 128.747 174.989C128.855 175.043 128.962 175.101 129.067 175.159C140.344 181.127 144.411 195.85 138.136 208.234C134.19 216.018 127.089 221.046 119.508 222.311C116.875 222.75 114.186 222.736 111.549 222.224H111.552Z" fill="url(#paint12_linear_355_11858)"/>
<g style="mix-blend-mode:soft-light" opacity="0.3">
<path d="M141.148 231.871C140.641 232.685 139.969 233.413 139.146 233.99C137.812 234.927 136.305 235.316 134.87 235.207C133.626 235.29 132.288 235.135 131.051 234.772C129.667 234.577 128.375 233.907 127.411 232.811C126.466 233.171 125.512 233.485 124.546 233.763C124.564 233.953 124.582 234.148 124.585 234.346C124.589 234.501 124.585 234.652 124.578 234.8C124.434 238.162 121.988 241.01 118.831 241.619C118.612 241.662 118.393 241.691 118.169 241.712C117.77 241.748 117.378 241.986 116.997 241.626H116.986C115.184 241.727 113.703 241.565 112.505 241.19C112.469 241.183 112.433 241.172 112.4 241.157C112.286 241.121 112.174 241.082 112.066 241.042C111.987 241.012 111.911 240.984 111.839 240.951C109.541 240.007 108.441 238.205 108.146 236.097C108.139 236.047 108.131 235.999 108.128 235.949C108.106 235.762 108.043 235.575 108.032 235.383C108.025 235.286 107.973 235.217 107.973 235.127V234.533C107.614 234.486 107.143 234.439 106.704 234.371C106.595 234.356 106.511 234.345 106.404 234.328C106.274 234.31 106.158 234.289 106.032 234.267C106.018 234.263 106.007 234.259 105.989 234.259C105.971 234.259 105.956 234.256 105.942 234.252C105.913 234.317 105.882 234.382 105.85 234.447C104.174 237.756 100.428 239.255 97.3247 237.933C96.0551 238.149 94.7392 237.983 93.5387 237.37C92.9958 237.093 92.5102 236.743 92.0936 236.336C91.7735 236.029 91.497 235.694 91.256 235.33C90.8495 234.729 90.5512 234.058 90.3675 233.344C90.1156 232.375 90.0692 231.334 90.252 230.296C90.3775 229.593 90.6113 228.89 90.9532 228.212C91.0432 228.035 91.1442 227.866 91.2442 227.697L91.2369 227.69C90.9059 227.43 90.5822 227.153 90.262 226.868C90.2366 226.846 90.212 226.825 90.1866 226.799C89.6764 226.342 89.1835 225.866 88.7051 225.401C88.6978 225.405 88.6869 225.408 88.6796 225.408C87.9494 225.689 87.2018 225.768 86.4606 225.768H86.4533C83.264 226.489 79.2215 224.922 77.7683 222.507C76.9734 221.185 76.6933 219.66 76.8734 218.179C77.1108 216.157 78.1966 214.214 79.98 212.96C80.1419 212.848 80.3038 212.765 80.4693 212.672C80.4693 212.668 80.4729 212.668 80.4729 212.668C79.829 210.909 79.3189 209.179 78.9405 207.323C78.9369 207.32 78.9369 207.388 78.9369 207.388H78.9333C78.9042 207.388 78.8796 207.388 78.8505 207.377C78.8469 207.377 78.8469 207.388 78.8432 207.388H78.8359C78.6813 207.388 78.5195 207.351 78.3649 207.366C76.4587 207.536 74.729 206.795 73.503 205.544C72.399 204.419 71.7087 202.822 71.6724 201.028C71.5969 197.236 74.4698 193.895 78.0911 193.57C78.2748 193.552 78.4576 193.543 78.6377 193.543C78.936 191.622 79.3816 189.702 79.9718 187.795C79.8027 187.727 79.6335 187.657 79.4716 187.574C76.2959 185.96 75.1382 181.857 76.8825 178.416C78.5586 175.107 82.3054 173.608 85.4084 174.93C85.8258 174.858 86.246 174.829 86.6634 174.847C87.7347 173.445 88.8861 172.129 90.1011 170.912C89.9928 170.764 89.8892 170.613 89.7919 170.454C87.9184 167.337 88.907 163.044 92.0036 160.871C92.7339 160.356 93.5214 160.006 94.3163 159.815C94.8337 160.165 95.3694 160.539 95.9205 160.936C100.052 163.938 104.893 168.281 107.611 173.586C107.863 174.087 108.104 174.598 108.32 175.118C103.429 177.525 99.1645 181.602 96.4243 187.011C90.092 199.51 94.2954 214.395 105.813 220.256C107.648 221.193 109.553 221.838 111.492 222.216C111.517 222.22 111.538 222.22 111.56 222.22C113.301 222.281 115.027 222.141 116.735 221.809C116.976 221.762 117.213 221.711 117.454 221.658C117.688 221.608 117.921 221.549 118.152 221.492C118.586 221.78 119.04 222.058 119.508 222.314C124.064 224.837 130.166 225.835 138.185 224.455C138.189 224.455 138.193 224.455 138.196 224.451C139.149 224.289 140.127 224.091 141.135 223.857C141.149 223.857 141.16 223.853 141.175 223.85C141.405 224.285 141.596 224.722 141.743 225.154C142.527 227.457 142.171 229.731 141.147 231.872L141.148 231.871Z" fill="#D9D9D9"/>
</g>
<path d="M26.1817 255.878C26.0944 255.851 25.9189 255.797 25.697 255.824C25.4169 255.859 25.2232 256.005 25.1122 256.089C25.0076 256.17 24.1473 256.85 24.1573 257.784C24.1655 258.53 24.7212 258.577 25.2732 259.822C25.7224 260.834 25.4651 261.053 25.8743 261.575C26.5573 262.448 28.056 262.833 28.7017 262.259C29.0028 261.991 29.0428 261.582 29.0537 261.472C29.1528 260.456 28.0961 260.165 27.8651 259.022C27.6323 257.876 28.5289 257.344 28.0988 256.693C27.9242 256.428 27.3431 256.245 26.1817 255.878Z" fill="url(#paint13_linear_355_11858)"/>
<path d="M27.0196 254.122C26.062 255.005 25.6454 255.987 25.9455 256.489C26.0574 256.676 26.2648 256.79 26.3566 256.841C26.9987 257.194 27.6826 256.936 27.8126 256.884L29.0467 255.147L27.0196 254.122Z" fill="url(#paint14_linear_355_11858)"/>
<path d="M2.6913 260.853C2.383 260.745 2.04469 260.812 1.80006 261.03C1.42173 261.367 0.874257 261.893 0.58233 262.349C0.109426 263.089 1.9101 263.443 3.77352 263.832C5.63695 264.221 7.94326 264.834 7.87506 264.269C7.80594 263.706 7.27119 262.849 5.47052 261.933C4.99307 261.689 3.48069 261.131 2.6913 260.853Z" fill="url(#paint15_linear_355_11858)"/>
<path d="M2.87704 258.789L2.09766 261.265C2.09766 261.265 2.52054 262.069 3.64551 261.595L4.94327 259.435L2.87704 258.79V258.789Z" fill="url(#paint16_linear_355_11858)"/>
<path d="M72.3914 152.403C72.3923 152.411 68.7082 157.723 65.1787 158.763L74.484 160.28C74.484 160.28 73.2699 159.869 73.2699 158.161C73.2699 157.095 74.0975 154.535 74.0975 154.535L72.3914 152.404V152.403Z" fill="url(#paint17_linear_355_11858)"/>
<path d="M52.4241 206.817C53.369 210.488 54.6049 215.883 55.5626 222.524C57.225 234.043 56.2065 236.518 55.6699 237.598C53.6764 241.613 50.3761 242.389 42.0593 247.366C36.1253 250.917 31.5963 254.237 28.7726 256.421C28.3533 256.353 27.704 256.198 27.0064 255.795C26.3844 255.436 25.9561 255.016 25.6914 254.712C26.4535 251.009 27.8695 248.552 28.9726 247.032C30.2795 245.232 31.439 244.344 37.0775 239.841C41.0817 236.643 43.0852 235.041 43.1898 234.847C46.6165 228.468 35.5624 220.003 38.0742 213.37C39.0146 210.886 42.1285 207.941 52.4241 206.815V206.817Z" fill="#474747"/>
<path style="mix-blend-mode:multiply" opacity="0.3" d="M28.9726 247.032C30.2795 245.232 31.439 244.344 37.0775 239.841C41.0817 236.643 43.0852 235.041 43.1898 234.847C46.6165 228.468 35.5624 220.003 38.0742 213.37C39.0146 210.886 42.1285 207.941 52.4241 206.815C52.9034 208.676 53.4572 210.984 54.0111 213.668C50.2297 215.617 49.0611 217.556 48.8364 219.132C48.3017 222.886 52.9561 225.502 51.8257 228.721C50.909 231.332 47.3486 231.018 46.6438 233.715C45.9599 236.33 48.9947 237.822 48.4372 239.907C47.5268 243.315 38.8691 241.418 34.2864 245.9C32.8123 247.342 31.3563 249.848 31.2498 254.551C30.3177 255.236 29.4892 255.865 28.7726 256.42C28.3533 256.352 27.704 256.197 27.0064 255.794C26.3844 255.436 25.9561 255.015 25.6914 254.711C26.4535 251.008 27.8695 248.551 28.9726 247.031V247.032Z" fill="url(#paint18_linear_355_11858)"/>
<path d="M54.3178 208.149C51.2475 210.257 46.9732 213.311 42.0604 217.238C34.9869 222.89 27.3795 228.969 19.7776 238.08C15.6524 243.024 10.2704 250.368 5.35945 260.344C5.01295 260.417 4.35907 260.506 3.58242 260.305C2.65207 260.065 2.0573 259.542 1.79993 259.286C0.908692 251.935 2.21645 246.775 3.4942 243.506C6.33709 236.233 9.61377 236.83 15.2531 226.228C16.781 223.355 18.5107 219.608 22.1894 213.126C23.5963 210.648 24.6676 208.864 26.4146 206.852C29.202 203.643 32.1731 201.624 34.3057 200.404C40.9764 202.987 47.6471 205.569 54.3178 208.15V208.149Z" fill="#474747"/>
<path d="M75.5912 150.525C75.8849 149.558 75.1938 148.103 74.057 147.682C73.213 147.369 72.4227 147.737 71.8461 148.005C71.5797 148.129 69.7126 149.025 69.6171 150.598C69.5871 151.097 69.7954 151.698 70.1209 152.122C70.2883 152.341 70.5629 152.594 71.1441 153.058C71.6597 153.47 71.6306 153.459 71.7861 153.577C72.1599 153.861 72.8556 154.318 74.0051 154.745C73.9778 154.464 73.9624 154.11 73.9933 153.71C74.0051 153.556 74.0579 152.952 74.2625 152.395C74.6763 151.265 75.3611 151.28 75.5903 150.525H75.5912Z" fill="#474747"/>
<path d="M72.5974 154.409C72.5974 154.409 74.0052 155.57 75.7486 154.831C77.3092 154.171 76.297 150.499 75.0129 150.093C74.5845 149.957 73.8661 150.089 73.3659 150.438C73.0703 150.644 73.0067 150.819 72.5174 151.146C72.0663 151.448 71.9072 151.442 71.8008 151.62C71.668 151.844 71.6653 152.278 72.3428 153.219C71.9308 153.016 71.5234 153.025 71.3069 153.238C71.2724 153.272 71.1887 153.385 71.166 153.52C71.085 154.008 71.6407 154.401 72.5965 154.409L72.5974 154.409Z" fill="url(#paint19_linear_355_11858)"/>
<path d="M111.084 156.341L113.273 154.087C113.273 154.087 116.004 152.75 117.997 153.749C119.991 154.748 118.25 154.61 117.227 154.746C116.204 154.881 114.665 155.805 113.674 156.341C112.683 156.878 111.62 157.595 111.62 157.595L111.084 156.341Z" fill="url(#paint20_linear_355_11858)"/>
<path d="M110.888 155.08C111.596 155.968 112.304 156.855 113.014 157.743C111.073 164.373 107.96 168.017 105.44 170.128C97.3844 176.875 89.0231 173.278 78.3281 181.414C75.0278 183.924 72.948 186.455 71.2164 188.561C63.4089 198.059 63.8982 204.206 57.1739 208.071C53.4707 210.199 49.9075 210.298 47.5757 210.362C40.9242 210.547 31.868 207.961 30.4448 202.635C30.1738 201.621 30.2529 200.782 30.3011 200.356C31.6043 188.839 45.2076 173.045 50.6969 166.865C54.5256 162.555 57.8259 159.071 62.9215 158.209C65.0559 157.848 66.7802 158.079 70.2297 158.542C76.502 159.383 78.4582 160.791 83.9648 161.952C87.6798 162.735 91.8296 163.61 96.4276 162.912C99.1405 162.5 104.866 161.108 110.889 155.079L110.888 155.08Z" fill="#25536A"/>
<g style="mix-blend-mode:multiply" opacity="0.3">
<path d="M44.6504 203.953C46.7339 199.548 44.3821 196.245 47.0422 192.967C50.257 189.005 55.0415 192.169 59.7979 188.372C65.3208 183.962 63.0518 176.355 67.7699 174.589C70.7347 173.479 72.0752 176.315 76.5396 175.588C81.3687 174.801 81.4642 171.21 86.306 169.595C91.567 167.841 94.0343 171.221 101.055 170.794C102.454 170.708 103.969 170.463 105.575 170.011C105.53 170.049 105.484 170.09 105.44 170.127C97.3847 176.874 89.0233 173.277 78.3284 181.413C75.0281 183.923 72.9482 186.454 71.2167 188.561C63.4092 198.058 63.8985 204.206 57.1742 208.07C53.471 210.199 49.9078 210.297 47.576 210.362C44.9851 210.434 42.033 210.08 39.3057 209.313C42.2586 207.647 43.8128 205.725 44.6513 203.952L44.6504 203.953Z" fill="#25536A"/>
</g>
</g>
<defs>
<linearGradient id="paint0_linear_355_11858" x1="141.39" y1="45.9851" x2="23.3393" y2="163.35" gradientUnits="userSpaceOnUse">
<stop offset="0.135417" stop-color="#214F65"/>
<stop offset="0.598958" stop-color="#296583"/>
<stop offset="0.942708" stop-color="#367897"/>
</linearGradient>
<linearGradient id="paint1_linear_355_11858" x1="287.538" y1="-2.17666" x2="80.5559" y2="202.916" gradientUnits="userSpaceOnUse">
<stop offset="0.135417" stop-color="#214F65"/>
<stop offset="0.598958" stop-color="#296583"/>
<stop offset="0.942708" stop-color="#367897"/>
</linearGradient>
<linearGradient id="paint2_linear_355_11858" x1="248.811" y1="126.226" x2="250.592" y2="150.845" gradientUnits="userSpaceOnUse">
<stop stop-color="#FFC444"/>
<stop offset="1" stop-color="#F36F56"/>
</linearGradient>
<linearGradient id="paint3_linear_355_11858" x1="162.001" y1="132.459" x2="163.82" y2="157.597" gradientUnits="userSpaceOnUse">
<stop stop-color="#FFC444"/>
<stop offset="1" stop-color="#F36F56"/>
</linearGradient>
<linearGradient id="paint4_linear_355_11858" x1="224.785" y1="248.341" x2="229.019" y2="264.453" gradientUnits="userSpaceOnUse">
<stop stop-color="#FFC444"/>
<stop offset="1" stop-color="#F36F56"/>
</linearGradient>
<linearGradient id="paint5_linear_355_11858" x1="217.86" y1="250.215" x2="222.062" y2="266.209" gradientUnits="userSpaceOnUse">
<stop stop-color="#FFC444"/>
<stop offset="1" stop-color="#F36F56"/>
</linearGradient>
<linearGradient id="paint6_linear_355_11858" x1="239.911" y1="241.251" x2="216.941" y2="211.586" gradientUnits="userSpaceOnUse">
<stop stop-color="#444B8C"/>
<stop offset="1" stop-color="#3E4177"/>
</linearGradient>
<linearGradient id="paint7_linear_355_11858" x1="208.188" y1="141.475" x2="211.498" y2="153.932" gradientUnits="userSpaceOnUse">
<stop stop-color="#FFC444"/>
<stop offset="1" stop-color="#F36F56"/>
</linearGradient>
<linearGradient id="paint8_linear_355_11858" x1="249.853" y1="296.412" x2="253.163" y2="308.867" gradientUnits="userSpaceOnUse">
<stop stop-color="#FFC444"/>
<stop offset="1" stop-color="#F36F56"/>
</linearGradient>
<linearGradient id="paint9_linear_355_11858" x1="333.716" y1="376.182" x2="343.201" y2="394.029" gradientUnits="userSpaceOnUse">
<stop stop-color="#FFC444"/>
<stop offset="1" stop-color="#F36F56"/>
</linearGradient>
<linearGradient id="paint10_linear_355_11858" x1="183.582" y1="111.685" x2="200.782" y2="197.143" gradientUnits="userSpaceOnUse">
<stop stop-color="#FF9085"/>
<stop offset="1" stop-color="#FB6FBB"/>
</linearGradient>
<linearGradient id="paint11_linear_355_11858" x1="108.856" y1="186.729" x2="77.8531" y2="177.077" gradientUnits="userSpaceOnUse">
<stop stop-color="#FFC444"/>
<stop offset="1" stop-color="#F36F56"/>
</linearGradient>
<linearGradient id="paint12_linear_355_11858" x1="175.175" y1="132.264" x2="29.5913" y2="278.367" gradientUnits="userSpaceOnUse">
<stop offset="0.135417" stop-color="#214F65"/>
<stop offset="0.598958" stop-color="#296583"/>
<stop offset="0.942708" stop-color="#367897"/>
</linearGradient>
<linearGradient id="paint13_linear_355_11858" x1="31.9011" y1="288.638" x2="26.3772" y2="258.422" gradientUnits="userSpaceOnUse">
<stop stop-color="#311944"/>
<stop offset="1" stop-color="#893976"/>
</linearGradient>
<linearGradient id="paint14_linear_355_11858" x1="26.4621" y1="265.183" x2="25.123" y2="278.141" gradientUnits="userSpaceOnUse">
<stop stop-color="#FFC444"/>
<stop offset="1" stop-color="#F36F56"/>
</linearGradient>
<linearGradient id="paint15_linear_355_11858" x1="7.55039" y1="281.895" x2="3.94813" y2="262.19" gradientUnits="userSpaceOnUse">
<stop stop-color="#311944"/>
<stop offset="1" stop-color="#893976"/>
</linearGradient>
<linearGradient id="paint16_linear_355_11858" x1="3.22808" y1="263.189" x2="1.89263" y2="276.105" gradientUnits="userSpaceOnUse">
<stop stop-color="#FFC444"/>
<stop offset="1" stop-color="#F36F56"/>
</linearGradient>
<linearGradient id="paint17_linear_355_11858" x1="67.0867" y1="166.508" x2="72.2886" y2="153.326" gradientUnits="userSpaceOnUse">
<stop stop-color="#FFC444"/>
<stop offset="1" stop-color="#F36F56"/>
</linearGradient>
<linearGradient id="paint18_linear_355_11858" x1="55.9964" y1="251.307" x2="0.842284" y2="184.709" gradientUnits="userSpaceOnUse">
<stop stop-color="#444B8C"/>
<stop offset="1" stop-color="#26264F"/>
</linearGradient>
<linearGradient id="paint19_linear_355_11858" x1="81.3735" y1="154.391" x2="68.4245" y2="150.956" gradientUnits="userSpaceOnUse">
<stop stop-color="#FFC444"/>
<stop offset="1" stop-color="#F36F56"/>
</linearGradient>
<linearGradient id="paint20_linear_355_11858" x1="128.168" y1="145.127" x2="104.412" y2="163.054" gradientUnits="userSpaceOnUse">
<stop stop-color="#FFC444"/>
<stop offset="0.81" stop-color="#F57F53"/>
<stop offset="1" stop-color="#F36F56"/>
</linearGradient>
<clipPath id="clip0_355_11858">
<rect width="265" height="264" fill="white" transform="translate(0.5 0.5)"/>
</clipPath>
</defs>
</svg>
