<svg width="291" height="199" viewBox="0 0 291 199" fill="none" xmlns="http://www.w3.org/2000/svg">
<g clip-path="url(#clip0_355_11857)">
<g clip-path="url(#clip1_355_11857)">
<path opacity="0.15" d="M276.383 83.0757C276.014 82.6769 275.64 82.2842 275.253 81.8977C252.193 58.644 215.451 71.5839 189.058 55.5762C178.857 49.3855 171.743 39.3232 163.315 30.8746C125.597 -6.92647 52.1876 -14.2339 18.8769 32.8564C3.02254 55.2633 -1.56865 84.1801 1.30391 111.471C4.8762 145.401 29.9191 175.876 63.2175 185.245C74.2412 188.343 95.5829 191.975 95.5829 191.975H260.583C260.583 191.975 267.083 184.042 268.336 182.103C279.243 165.237 288.149 149.493 290.162 129.509C291.795 113.306 287.646 95.2854 276.389 83.0696L276.383 83.0757Z" fill="#709EB3"/>
<path d="M207.417 41.153H174.714C170.135 41.153 166.422 44.865 166.422 49.4422V63.3698C166.422 67.9469 170.135 71.6589 174.714 71.6589H193.994L203.188 80.85V71.6589H207.417C211.996 71.6589 215.71 67.9469 215.71 63.3698V49.4422C215.71 44.865 211.996 41.153 207.417 41.153V41.153Z" fill="#D9D9D9"/>
<path d="M203.194 81.2837C203.084 81.2837 202.967 81.2408 202.887 81.1549L193.822 72.0927H174.72C169.908 72.0927 165.992 68.1782 165.992 63.3679V49.4403C165.992 44.63 169.908 40.7155 174.72 40.7155H207.423C212.236 40.7155 216.152 44.63 216.152 49.4403V63.3679C216.152 68.1782 212.236 72.0927 207.423 72.0927H203.63V80.8481C203.63 81.026 203.526 81.1855 203.36 81.2469C203.305 81.2714 203.25 81.2776 203.194 81.2776V81.2837ZM174.72 41.5868C170.387 41.5868 166.864 45.1086 166.864 49.4403V63.3679C166.864 67.6996 170.387 71.2214 174.72 71.2214H194C194.116 71.2214 194.227 71.2644 194.307 71.3503L202.759 79.7989V71.6571C202.759 71.4178 202.955 71.2214 203.194 71.2214H207.423C211.757 71.2214 215.28 67.6996 215.28 63.3679V49.4403C215.28 45.1086 211.757 41.5868 207.423 41.5868H174.72Z" fill="#231F20"/>
<path d="M206.626 49.3408H175.506C175.267 49.3408 175.07 49.1443 175.07 48.9049C175.07 48.6655 175.267 48.469 175.506 48.469H206.626C206.865 48.469 207.061 48.6655 207.061 48.9049C207.061 49.1443 206.865 49.3408 206.626 49.3408Z" fill="#231F20"/>
<path d="M206.626 56.2314H175.506C175.267 56.2314 175.07 56.0349 175.07 55.7955C175.07 55.5561 175.267 55.3596 175.506 55.3596H206.626C206.865 55.3596 207.061 55.5561 207.061 55.7955C207.061 56.0349 206.865 56.2314 206.626 56.2314Z" fill="#231F20"/>
<path d="M197.781 63.1219H175.506C175.267 63.1219 175.07 62.9255 175.07 62.6861C175.07 62.4467 175.267 62.2502 175.506 62.2502H197.781C198.02 62.2502 198.217 62.4467 198.217 62.6861C198.217 62.9255 198.02 63.1219 197.781 63.1219Z" fill="#231F20"/>
<path d="M39.6723 35.623H106.159C109.062 35.623 111.419 37.979 111.419 40.8811V82.5353C111.419 85.4374 109.062 87.7934 106.159 87.7934H39.6723C36.7691 87.7934 34.4121 85.4374 34.4121 82.5353V40.875C34.4121 37.9729 36.7691 35.6168 39.6723 35.6168V35.623Z" fill="#CCE7FB"/>
<path d="M106.153 88.2213H39.6726C36.5361 88.2213 33.9766 85.6689 33.9766 82.5275V40.8733C33.9766 37.7381 36.53 35.1796 39.6726 35.1796H106.159C109.295 35.1796 111.855 37.732 111.855 40.8733V82.5275C111.855 85.6628 109.302 88.2213 106.159 88.2213H106.153ZM39.6726 36.0569C37.0149 36.0569 34.8482 38.2228 34.8482 40.8795V82.5336C34.8482 85.1903 37.0149 87.3562 39.6726 87.3562H106.159C108.817 87.3562 110.983 85.1903 110.983 82.5336V40.8733C110.983 38.2167 108.817 36.0508 106.159 36.0508H39.6726V36.0569Z" fill="#231F20"/>
<path d="M69.4047 47.4394C68.0421 40.3037 57.049 41.3161 57.0674 48.599C57.0674 50.6421 58.2582 52.5441 59.94 53.6915C60.0627 55.0781 60.3819 56.8329 60.1978 58.5263C57.0367 60.3854 62.3706 64.7109 64.5066 67.2756C65.3598 64.3919 67.6677 60.8148 68.128 57.5998C67.3423 56.2193 66.839 54.9002 66.5505 53.8019C68.5822 52.4337 69.8712 49.8752 69.4047 47.4455V47.4394Z" fill="#F8A99C"/>
<path d="M131.441 30.169C126.488 34.7215 121.412 39.1453 116.213 43.4156C115.857 44.5814 119.632 49.0664 120.553 50.0236C120.553 50.0236 127.74 46.1582 128.501 45.8637C130.858 44.9556 135.363 43.9003 137.61 42.6793C137.776 42.5873 131.349 30.2487 131.447 30.1628L131.441 30.169Z" fill="#F8A99C"/>
<path d="M152.446 12.2052C149.322 9.94123 145.523 8.67117 141.576 8.67117V27.1637L152.446 12.2052Z" fill="#25536A"/>
<path d="M159.272 21.7817C159.235 21.6712 159.198 21.5608 159.161 21.4504C157.909 17.5972 155.509 14.4252 152.446 12.2041L141.576 27.1625L159.168 32.8747C160.303 29.3959 160.42 25.5489 159.278 21.7817H159.272Z" fill="#709EB3"/>
<path d="M141.574 27.1606L130.704 42.1191C133.828 44.3831 137.628 45.6531 141.574 45.6531C143.354 45.6531 145.165 45.3954 146.957 44.8494C148.983 44.2358 150.824 43.2971 152.445 42.1191C155.63 39.806 157.963 36.548 159.16 32.8728L141.568 27.1606H141.574Z" fill="#25536A"/>
<path d="M159.688 21.6521L159.577 21.3146C158.331 17.4799 155.956 14.2097 152.703 11.8536C149.487 9.52214 145.534 8.23367 141.581 8.23367C139.715 8.23367 137.861 8.50977 136.069 9.05584C134.05 9.66939 132.159 10.6081 130.447 11.8536C127.243 14.179 124.806 17.5413 123.572 21.3146C122.363 25.0144 122.326 28.9411 123.462 32.6715L123.572 33.009C124.818 36.8437 127.193 40.1139 130.447 42.47C133.663 44.8015 137.616 46.0899 141.569 46.0899C143.435 46.0899 145.288 45.8138 147.08 45.2678C149.1 44.6542 150.99 43.7155 152.703 42.47C155.907 40.1446 158.344 36.7823 159.577 33.009C160.787 29.3092 160.823 25.3825 159.688 21.6521ZM142.011 25.8243V9.10492C145.497 9.19082 148.953 10.3136 151.837 12.3015L142.011 25.8243ZM152.193 41.7705C150.561 42.9547 148.762 43.8505 146.835 44.4395C145.129 44.961 143.355 45.2248 141.581 45.2248C137.953 45.2248 134.326 44.0897 131.324 42.0221L141.753 27.6772L149.769 30.2787L158.626 33.1562C157.411 36.5921 155.146 39.6415 152.206 41.7766L152.193 41.7705ZM158.884 32.3279L150.788 29.7019L142.281 26.9409L152.543 12.8231C155.465 15.0503 157.607 18.0751 158.749 21.5907L158.859 21.9159C159.897 25.3334 159.909 28.9288 158.884 32.3341V32.3279Z" fill="#D9D9D9"/>
<path d="M127.396 34.1647C127.285 33.5266 128.157 29.7962 127.255 28.8943C125.168 26.7959 124.161 30.4956 123.873 31.6368C123.32 33.7966 122.749 35.9501 121.51 37.8521C120.11 39.9934 117.851 41.3985 115.703 42.687C116.348 43.8834 116.857 45.1412 117.557 46.3069L126.125 41.4414C128.47 38.4657 127.899 37.0729 127.39 34.1647H127.396Z" fill="#F8A99C"/>
<path d="M127.967 34.8942C127.918 34.6366 127.869 34.3727 127.82 34.0905C127.795 33.9555 127.863 33.4033 127.918 32.9616C128.151 30.9982 128.28 29.3109 127.568 28.5869C126.936 27.9488 126.304 27.7095 125.69 27.8752C124.751 28.1329 124.02 29.3232 123.456 31.5258C122.952 33.4892 122.388 35.7164 121.148 37.6123C119.761 39.7413 117.385 41.1648 115.483 42.3121C115.286 42.4348 115.213 42.6864 115.323 42.8889C115.587 43.3797 115.832 43.8828 116.072 44.3798C116.416 45.0915 116.772 45.8278 117.189 46.5272C117.269 46.6622 117.416 46.7358 117.563 46.7358C117.637 46.7358 117.717 46.7174 117.784 46.6745C117.993 46.5518 118.054 46.2818 117.932 46.0793C117.533 45.4167 117.189 44.6988 116.851 44.0055C116.667 43.619 116.477 43.2324 116.281 42.8459C118.196 41.6863 120.467 40.2506 121.878 38.0847C123.198 36.0661 123.781 33.7653 124.297 31.7344C124.917 29.317 125.573 28.8017 125.917 28.7096C126.206 28.6299 126.555 28.7955 126.948 29.1943C127.427 29.679 127.175 31.8203 127.053 32.8511C126.967 33.5874 126.924 33.9862 126.967 34.2316C127.016 34.5138 127.065 34.7838 127.114 35.0415C127.556 37.4344 127.783 38.6308 125.788 41.1648C125.641 41.355 125.672 41.6249 125.862 41.7722C126.052 41.9194 126.322 41.8888 126.47 41.6986C128.704 38.8578 128.415 37.2748 127.967 34.882V34.8942Z" fill="#231F20"/>
<path d="M119.27 38.2036C113.875 41.4247 109.646 44.5293 104.072 47.4437C98.8122 50.1924 93.5581 52.7202 87.948 54.6836C84.1548 56.015 80.0608 56.7145 76.7217 57.371C75.2486 57.6593 73.5975 57.5673 72.0998 57.6348C70.995 57.6839 69.1106 58.144 68.1593 57.4078C66.8396 60.2792 65.5199 63.1506 64.2003 66.0159C62.4755 63.666 61.0269 61.1136 59.9037 58.4263C58.7805 59.0276 57.6388 59.3957 56.491 59.9295C52.3172 61.3959 48.9597 64.9668 48.3275 69.4212C48.1127 70.9182 48.1127 72.4214 48.2048 73.9308C48.2968 75.4892 48.4748 77.0476 48.6037 78.6061C48.8554 81.6677 47.6523 87.7848 47.6523 87.7848H84.8361C84.8361 87.7848 85.1307 85.3061 85.3026 84.1771C86.3031 77.7103 88.2488 73.4829 93.331 69.1083C98.9534 64.2734 120.541 51.3459 125.746 48.7567C126.408 48.4254 120.019 38.9275 119.27 38.1974V38.2036Z" fill="#709EB3"/>
<path d="M65.8702 37.3863C63.016 37.4722 60.659 38.8343 58.1916 41.0922C52.4771 46.3074 55.7671 49.774 56.743 50.1605C57.277 50.3753 61.2483 46.5283 60.88 45.0067C62.5066 45.792 70.1176 45.8657 70.6516 43.2335C71.4557 40.2823 69.4731 37.2759 65.8702 37.3802V37.3863Z" fill="#231F20"/>
<path d="M119.577 37.8851C119.436 37.7502 119.221 37.7256 119.049 37.8238C117.024 39.0325 115.145 40.235 113.335 41.4008C110.253 43.3764 107.344 45.2416 103.876 47.0516C99.334 49.4261 93.8712 52.1441 87.8131 54.267C84.5231 55.4205 81.0183 56.0954 77.9248 56.6906L76.6481 56.936C75.6599 57.1323 74.5551 57.1446 73.4871 57.1569C73.0144 57.1569 72.548 57.1691 72.0938 57.1875C71.836 57.1998 71.5291 57.2305 71.2099 57.2673C70.2401 57.3777 69.0309 57.5127 68.4355 57.0526C68.3312 56.9728 68.1961 56.9421 68.0673 56.9728C67.9384 57.0035 67.834 57.0955 67.7788 57.2121L64.1328 65.1453C62.6167 62.9918 61.3339 60.6787 60.3211 58.249C60.272 58.1385 60.18 58.0465 60.0634 58.0097C59.9467 57.9667 59.8178 57.979 59.7135 58.0342C59.0567 58.384 58.4 58.6539 57.7064 58.9362C57.246 59.1264 56.7857 59.3104 56.356 59.5129C51.8508 61.0959 48.5363 64.9613 47.9041 69.3543C47.7138 70.6918 47.6708 72.1521 47.7752 73.9498C47.8304 74.9438 47.9286 75.9377 48.0207 76.9317C48.0759 77.5023 48.1312 78.0668 48.1741 78.6374C48.4197 81.6008 47.2412 87.6321 47.2289 87.6934C47.2043 87.8223 47.235 87.9511 47.321 88.0554C47.4008 88.1536 47.5296 88.2149 47.6585 88.2149H84.8423C85.0633 88.2149 85.2474 88.0493 85.2719 87.8284C85.2719 87.8039 85.5666 85.3435 85.7384 84.2391C86.7819 77.4962 88.9179 73.4835 93.6257 69.4341C99.2112 64.6299 120.768 51.7208 125.948 49.1438C126.077 49.0825 126.206 48.8862 126.231 48.745C126.439 47.432 120.043 38.333 119.583 37.8851H119.577ZM49.0396 78.5699C48.9905 77.9993 48.9352 77.4287 48.8861 76.8581C48.7941 75.8764 48.702 74.8886 48.6406 73.9069C48.5424 72.1705 48.5792 70.7655 48.7634 69.4831C49.3465 65.4092 52.44 61.8199 56.6813 60.3228C57.1355 60.1142 57.5836 59.9301 58.0317 59.7461C58.578 59.5252 59.1365 59.292 59.6951 59.0221C60.806 61.5867 63.9241 66.3233 63.9548 66.3479C64.4029 72.2748 65.5077 80.4167 66.7967 87.3437H55.1469C53.9745 81.472 53.551 75.4776 53.8947 69.5261C53.907 69.2868 53.7228 69.0782 53.4835 69.0659C53.2441 69.0414 53.0354 69.2377 53.0231 69.477C52.6733 75.4408 53.0906 81.4536 54.2568 87.3437H48.168C48.4565 85.7853 49.2421 81.1591 49.0273 78.5637L49.0396 78.5699ZM93.0549 68.7776C88.1752 72.9804 85.9533 77.1342 84.8791 84.1103C84.7441 84.9815 84.5477 86.6074 84.4556 87.3498H67.6806C66.3548 80.2878 65.2254 71.9251 64.7957 65.9613C64.7957 65.9184 68.368 58.0158 68.368 58.0158C69.2273 58.3717 70.3628 58.249 71.302 58.1385C71.6027 58.1017 71.8851 58.0711 72.1306 58.0588C72.5725 58.0404 73.0329 58.0342 73.4932 58.0281C74.598 58.0158 75.7458 57.9974 76.8138 57.7888L78.0905 57.5434C81.2148 56.9421 84.7502 56.2611 88.1015 55.083C94.2149 52.9417 99.7084 50.2114 104.281 47.8186C107.78 45.9902 110.708 44.1127 113.807 42.1248C115.52 41.0265 117.294 39.8915 119.19 38.7502C120.424 40.278 124.874 47.0639 125.328 48.4751C119.749 51.3097 98.6036 63.998 93.0549 68.7714V68.7776Z" fill="#231F20"/>
<path d="M82.6882 61.2506C82.7373 61.0174 82.59 60.7843 82.3567 60.7352C82.1235 60.68 81.8902 60.8334 81.8411 61.0665C80.4049 67.6377 81.0677 74.6567 83.7193 80.8413C83.7869 81.007 83.9526 81.1052 84.1183 81.1052C84.1736 81.1052 84.2349 81.0929 84.2902 81.0684C84.5111 80.9763 84.6155 80.7186 84.5173 80.4978C81.9393 74.4849 81.2887 67.6499 82.6882 61.2506Z" fill="#231F20"/>
<path d="M77.5619 66.1207C77.5804 65.9858 77.5374 65.8446 77.4392 65.7465C77.341 65.6483 77.1998 65.6054 77.0709 65.6238L70.6322 66.5441C70.3928 66.5809 70.2271 66.7956 70.2639 67.0349C70.3007 67.2742 70.5156 67.4337 70.7549 67.4031L76.6719 66.5564C76.6965 67.0227 76.8315 67.4767 77.077 67.8816C77.1568 68.0166 77.3041 68.0902 77.4515 68.0902C77.5251 68.0902 77.6049 68.0718 77.6724 68.0289C77.875 67.9062 77.9425 67.6362 77.8197 67.4337C77.5865 67.0472 77.4944 66.5686 77.5619 66.1207Z" fill="#231F20"/>
<path d="M36.99 42.1874C45.5647 42.1874 52.519 46.1939 52.519 51.133C52.519 54.44 49.3886 57.3237 44.7545 58.8699V64.4655L40.1756 59.8884C39.1444 60.0111 38.0825 60.0786 36.99 60.0786C28.4152 60.0786 21.4609 56.0721 21.4609 51.133C21.4609 46.1939 28.4152 42.1874 36.99 42.1874V42.1874Z" fill="#D9D9D9"/>
<path d="M44.7547 64.8956C44.6442 64.8956 44.5276 64.8526 44.4478 64.7667L40.0162 60.3369C39.0096 60.4473 37.9968 60.5087 36.9902 60.5087C28.1884 60.5087 21.0254 56.2997 21.0254 51.1275C21.0254 45.9552 28.1884 41.7462 36.9902 41.7462C45.792 41.7462 52.955 45.9552 52.955 51.1275C52.955 54.4284 49.9904 57.49 45.1905 59.1773V64.46C45.1905 64.6379 45.0862 64.7974 44.9205 64.8588C44.8652 64.8833 44.81 64.8895 44.7547 64.8895V64.8956ZM40.1758 59.4472C40.2924 59.4472 40.4029 59.4902 40.4827 59.5761L44.3189 63.4108V58.8644C44.3189 58.6803 44.4356 58.5085 44.6136 58.4533C49.2232 56.9194 52.0835 54.1093 52.0835 51.1275C52.0835 46.4338 45.3133 42.6175 36.9841 42.6175C28.6549 42.6175 21.8847 46.4338 21.8847 51.1275C21.8847 55.8211 28.6549 59.6374 36.9841 59.6374C38.0275 59.6374 39.0833 59.5761 40.1206 59.4534C40.139 59.4534 40.1574 59.4534 40.1697 59.4534L40.1758 59.4472Z" fill="#231F20"/>
<path d="M45.2636 48.3285H29.5627C29.3234 48.3285 29.127 48.5249 29.127 48.7644C29.127 49.0038 29.3234 49.2002 29.5627 49.2002H45.2636C45.503 49.2002 45.6994 49.0038 45.6994 48.7644C45.6994 48.5249 45.503 48.3285 45.2636 48.3285Z" fill="#231F20"/>
<path d="M36.824 52.213H29.5627C29.3234 52.213 29.127 52.4095 29.127 52.6489C29.127 52.8883 29.3234 53.0848 29.5627 53.0848H36.824C37.0633 53.0848 37.2597 52.8883 37.2597 52.6489C37.2597 52.4095 37.0633 52.213 36.824 52.213Z" fill="#231F20"/>
<path d="M77.7713 161.947C77.7713 161.634 77.5196 161.383 77.2066 161.383C76.8936 161.383 76.6419 161.634 76.6419 161.947C76.6419 170.715 69.5035 177.85 60.7323 177.85C51.9612 177.85 44.8227 170.715 44.8227 161.947C44.8227 161.634 44.5711 161.383 44.2581 161.383C43.945 161.383 43.6934 161.634 43.6934 161.947C43.6934 171.15 51.0344 178.654 60.1676 178.955V191.98C60.1676 192.293 60.4193 192.545 60.7323 192.545C61.0454 192.545 61.297 192.293 61.297 191.98V178.955C70.4303 178.654 77.7713 171.15 77.7713 161.947Z" fill="#231F20"/>
<path d="M70.4181 155.909H51.0344C50.7214 155.909 50.4697 156.161 50.4697 156.473V163.259C50.4697 167.935 54.2753 171.733 58.9462 171.733H62.5063C67.1834 171.733 70.9828 167.929 70.9828 163.259V156.473C70.9828 156.161 70.7311 155.909 70.4181 155.909Z" fill="#231F20"/>
<path d="M70.4178 143.224C70.4178 138.855 66.8762 135.315 62.506 135.315H58.946C54.5758 135.315 51.0342 138.855 51.0342 143.224V156.47H70.4178V143.224Z" fill="#709EB3"/>
<path d="M70.4181 157.037H51.0344C50.7214 157.037 50.4697 156.786 50.4697 156.473V143.226C50.4697 138.551 54.2753 134.753 58.9462 134.753H62.5063C67.1834 134.753 70.9828 138.557 70.9828 143.226V156.473C70.9828 156.786 70.7311 157.037 70.4181 157.037ZM51.5991 155.908H69.8534V143.232C69.8534 139.183 66.5573 135.888 62.5063 135.888H58.9462C54.8952 135.888 51.5991 139.183 51.5991 143.232V155.908Z" fill="#231F20"/>
<path d="M238.457 101.264C238.04 101.172 237.635 101.049 237.242 100.871C233.835 99.319 233.179 94.8585 231.098 91.7416C228.864 88.3978 224.8 86.6062 220.792 86.2994C213.77 85.7656 206.325 87.5204 202.679 94.0731C200.273 98.3987 199.721 103.485 199.438 108.424C198.745 120.75 199.457 133.163 201.58 145.323C202.464 148.863 226.071 151.477 226.071 151.477H280.214C280.214 151.477 267.465 147.373 267.238 138.372C267.103 133.15 268.889 124.708 263.77 121.106C260.106 118.529 256.073 122.186 252.593 119.996C246.952 116.437 251.378 105.277 245.424 102.264C243.318 101.196 240.734 101.767 238.451 101.27L238.457 101.264Z" fill="#231F20"/>
<path d="M221.817 120.469C221.627 118.763 221.345 116.205 221.111 114.082C225.862 110.916 228.962 104.805 226.961 98.7122C225.365 93.859 220.584 90.2267 215.477 89.9997C209.179 89.7175 204.913 94.9634 203.766 101.277C203.054 105.191 203.594 109.793 205.889 112.364C207.141 113.763 208.51 114.738 209.928 115.376C210.53 118.377 211.002 122.573 209.357 124.107C208.645 124.77 207.737 125.175 207.013 125.819C205.177 127.439 205.926 146.183 209.505 146.348C217.736 146.729 225.169 131.955 226.611 125.96C223.45 125.193 222.173 123.757 221.811 120.469H221.817Z" fill="#F8A99C"/>
<path d="M150.463 121.289C149.499 119.577 148.609 118.037 147.253 116.607C145.602 114.865 140.415 110.76 140.888 108.005C141.023 107.202 155.926 99.1886 157.669 99.6426C162.193 100.814 161.112 109.067 161.149 112.546C161.211 118 163.353 122.436 165.495 127.351C165.538 127.443 157.024 132.038 155.877 131.284C154.698 130.504 150.487 121.332 150.463 121.295V121.289Z" fill="#F8A99C"/>
<path d="M159.8 179.71C160.26 179.428 160.745 179.207 161.267 179.097C164.201 178.483 170.142 182.766 173.334 183.361C174.561 183.594 187.58 182.545 187.58 182.545L187.666 191.981H146.333C146.333 191.981 149.746 187.619 152.311 185.692C154.717 183.889 159.229 180.06 159.8 179.71Z" fill="#F8A99C"/>
<path d="M169.651 190.603C167.19 190.247 163.532 187.468 161.985 185.627C161.887 185.51 161.746 185.437 161.592 185.424C161.445 185.418 161.291 185.461 161.175 185.566C159.585 186.964 157.811 188.124 155.902 189.02C155.62 189.155 155.497 189.486 155.632 189.768C155.767 190.051 156.099 190.173 156.381 190.038C158.222 189.179 159.941 188.081 161.494 186.774C163.286 188.701 166.852 191.339 169.485 191.719C169.51 191.719 169.541 191.719 169.565 191.719C169.841 191.719 170.081 191.517 170.124 191.235C170.167 190.928 169.952 190.64 169.645 190.597L169.651 190.603Z" fill="#231F20"/>
<path d="M248.756 167.973C247.885 163.831 246.614 157.076 245.485 151.327C245.528 150.713 245.577 150.1 245.601 149.48C245.841 143.602 245.08 135.939 241.569 130.994C240.648 129.693 239.506 128.576 238.23 127.625C236.793 126.564 234.682 125.312 233.006 124.692C229.686 123.453 226.58 122.57 223.1 122.109C222.234 121.993 218.65 129.576 217.784 131.294C215.832 135.196 212.923 142.878 211.327 143.124C210.437 143.259 209.719 142.62 209.43 141.823C207.282 135.92 209.633 129.675 209.258 123.619C204.262 123.754 199.505 127.797 195.865 130.846C190.482 135.356 185.947 140.774 180.134 144.762C179.428 145.247 178.722 145.731 178.029 146.234L167.355 120.913L149.751 127.552C149.751 127.552 154.25 139.043 155.06 141.019C157.847 147.817 160.357 156.174 164.746 162.089C166.692 164.715 169.466 166.181 172.676 166.801C174.266 167.107 176.408 166.874 177.703 166.586V166.567C180.447 166.052 182.595 164.868 185.253 163.561C190.685 160.898 195.393 158.481 199.935 154.407C200.843 160.911 201.905 167.439 203.427 173.832C192.563 174.531 179.342 174.396 179.342 174.396V191.981H257.177C257.177 191.981 251.721 182.066 248.756 167.973Z" fill="#25536A"/>
<path d="M215.752 98.5506C217.428 98.8145 218.999 98.839 220.675 98.6979C219.699 98.7777 219.834 104.649 219.877 105.281C220.055 107.883 221.258 111.859 222.522 114.141C222.602 114.288 233.073 109.76 230.55 97.6119C229.789 93.949 227.04 91.0837 224.339 88.4945C219.76 84.1076 205.735 81.6841 204.513 90.4824C204.145 93.1207 206.612 95.262 209.006 96.4339C211.13 97.4708 213.413 98.1825 215.746 98.5568L215.752 98.5506Z" fill="#231F20"/>
<path d="M157.662 73.4551H105.121C101.291 73.4551 98.1855 76.5592 98.1855 80.3882V102.985C98.1855 106.814 101.291 109.919 105.121 109.919H157.662C161.493 109.919 164.598 106.814 164.598 102.985V80.3882C164.598 76.5592 161.493 73.4551 157.662 73.4551Z" fill="#CCE7FB"/>
<path d="M157.663 110.491H105.116C100.979 110.491 97.6152 107.129 97.6152 102.994V80.3905C97.6152 76.2552 100.979 72.8929 105.116 72.8929H157.663C161.8 72.8929 165.163 76.2552 165.163 80.3905V102.994C165.163 107.129 161.8 110.491 157.663 110.491ZM105.116 74.028C101.605 74.028 98.7446 76.881 98.7446 80.3966V103C98.7446 106.509 101.605 109.369 105.116 109.369H157.663C161.174 109.369 164.034 106.516 164.034 103V80.3966C164.034 76.8871 161.174 74.028 157.663 74.028H105.116Z" fill="#231F20"/>
<path d="M151.873 92.5695C152.365 87.4084 148.579 82.8262 143.415 82.3349C138.252 81.8437 133.668 85.6293 133.176 90.7904C132.684 95.9516 136.471 100.534 141.634 101.025C146.797 101.516 151.382 97.7307 151.873 92.5695Z" fill="#709EB3"/>
<path d="M142.528 101.648C137.035 101.648 132.566 97.1812 132.566 91.6898C132.566 86.1985 137.035 81.7319 142.528 81.7319C148.022 81.7319 152.49 86.1985 152.49 91.6898C152.49 97.1812 148.022 101.648 142.528 101.648ZM142.528 82.8669C137.661 82.8669 133.702 86.8244 133.702 91.6898C133.702 96.5553 137.661 100.513 142.528 100.513C147.396 100.513 151.355 96.5553 151.355 91.6898C151.355 86.8244 147.396 82.8669 142.528 82.8669Z" fill="#231F20"/>
<path d="M146.045 91.1269H143.093V88.1757C143.093 87.8628 142.841 87.6112 142.528 87.6112C142.215 87.6112 141.963 87.8628 141.963 88.1757V91.1269H139.011C138.698 91.1269 138.446 91.3785 138.446 91.6914C138.446 92.0043 138.698 92.2558 139.011 92.2558H141.963V95.207C141.963 95.5199 142.215 95.7715 142.528 95.7715C142.841 95.7715 143.093 95.5199 143.093 95.207V92.2558H146.045C146.358 92.2558 146.61 92.0043 146.61 91.6914C146.61 91.3785 146.358 91.1269 146.045 91.1269Z" fill="#231F20"/>
<path d="M122.106 91.4146C123.604 90.6477 124.635 89.1138 124.635 87.3161C124.635 84.7637 122.567 82.696 120.013 82.696C117.46 82.696 115.391 84.7637 115.391 87.3161C115.391 89.1076 116.423 90.6477 117.92 91.4146C113.888 92.2552 110.855 95.8261 110.855 100.109V100.293H129.165V100.109C129.165 95.8261 126.133 92.2552 122.1 91.4146H122.106Z" fill="#231F20"/>
<path d="M161.321 107.81C161.616 104.736 160.008 92.1338 156.503 96.0912C155.852 96.8275 155.662 97.8582 155.496 98.8277C154.576 104.288 153.661 109.915 154.901 115.308L163.261 122.198C160.094 114.602 161.42 109.503 161.321 107.81Z" fill="#F8A99C"/>
<path d="M163.783 121.978C161.297 116.014 161.641 111.621 161.819 109.259C161.868 108.664 161.905 108.192 161.887 107.817C162.089 105.467 161.242 96.1108 158.462 94.8959C157.915 94.6566 157.056 94.6076 156.08 95.712C155.301 96.5955 155.098 97.7796 154.938 98.7306C154.061 103.94 153.066 109.848 154.349 115.432C154.417 115.738 154.724 115.922 155.024 115.855C155.331 115.787 155.522 115.481 155.448 115.18C154.214 109.818 155.19 104.026 156.049 98.9208C156.221 97.8901 156.399 97.0556 156.921 96.4666C157.559 95.7488 157.891 95.8899 158.001 95.939C159.837 96.7366 161.003 105.13 160.751 107.756C160.751 107.787 160.751 107.817 160.751 107.842C160.77 108.143 160.733 108.597 160.69 109.173C160.499 111.634 160.143 116.205 162.734 122.414C162.826 122.629 163.034 122.764 163.255 122.764C163.329 122.764 163.403 122.751 163.47 122.721C163.759 122.598 163.894 122.273 163.777 121.984L163.783 121.978Z" fill="#231F20"/>
<path d="M206.459 99.0213L208.166 99.6352C208.227 99.6597 208.294 99.672 208.356 99.672C208.589 99.672 208.804 99.5308 208.89 99.2975C208.994 99.0028 208.841 98.6775 208.552 98.5731L206.846 97.9592C206.551 97.8549 206.226 98.0022 206.122 98.2969C206.017 98.5915 206.171 98.9169 206.459 99.0213Z" fill="#231F20"/>
<path d="M215.28 100.824L213.573 100.204C213.279 100.1 212.954 100.247 212.849 100.542C212.745 100.836 212.898 101.162 213.187 101.266L214.893 101.886C214.955 101.911 215.022 101.923 215.083 101.923C215.317 101.923 215.531 101.782 215.617 101.548C215.722 101.254 215.574 100.928 215.28 100.824Z" fill="#231F20"/>
<path d="M213.027 102.045C212.628 102.045 212.309 102.364 212.309 102.763C212.309 103.162 212.628 103.481 213.027 103.481C213.426 103.481 213.746 103.162 213.746 102.763C213.746 102.364 213.426 102.045 213.027 102.045Z" fill="#231F20"/>
<path d="M207.258 100.569C207.258 100.17 206.939 99.8505 206.54 99.8505C206.141 99.8505 205.821 100.17 205.821 100.569C205.821 100.968 206.141 101.287 206.54 101.287C206.939 101.287 207.258 100.968 207.258 100.569Z" fill="#231F20"/>
<path d="M209.867 102.281C210.015 102.005 209.91 101.661 209.634 101.514C209.358 101.367 209.014 101.471 208.867 101.747C208.449 102.533 207.786 103.269 206.896 103.944L206.798 104.017C206.013 104.668 207.203 106.748 207.216 106.772C207.32 106.944 207.504 107.036 207.694 107.036C207.799 107.036 207.903 107.005 207.995 106.95C208.259 106.784 208.339 106.435 208.173 106.171C208.014 105.919 207.713 105.134 207.664 104.784C208.64 104.03 209.382 103.189 209.867 102.281Z" fill="#231F20"/>
<path d="M212.29 108.401C212.29 108.401 212.235 108.425 212.211 108.45C212.174 108.48 212.149 108.523 212.125 108.56C211.873 108.99 211.695 109.505 211.21 109.689C210.811 109.843 210.326 109.53 209.964 109.892C209.602 110.26 209.786 110.898 210.24 111.088C210.559 111.223 210.934 111.156 211.253 111.027C212.1 110.689 212.769 109.843 212.738 108.928C212.738 108.775 212.708 108.615 212.603 108.499C212.524 108.407 212.389 108.364 212.278 108.395L212.29 108.401Z" fill="#231F20"/>
<path d="M160.935 128.892C157.338 130.26 153.729 131.72 150.2 133.223C149.911 133.346 149.776 133.677 149.899 133.966C149.991 134.18 150.2 134.309 150.421 134.309C150.494 134.309 150.568 134.297 150.642 134.266C154.159 132.769 157.755 131.321 161.334 129.953C161.629 129.843 161.77 129.517 161.659 129.223C161.549 128.928 161.223 128.781 160.929 128.898L160.935 128.892Z" fill="#231F20"/>
<path d="M179.153 156.25C179.067 156.55 179.233 156.863 179.533 156.949C179.589 156.968 179.644 156.974 179.693 156.974C179.939 156.974 180.159 156.814 180.233 156.569C180.921 154.256 180.896 152.157 180.153 149.93C180.153 149.857 167.877 120.688 167.877 120.688C167.761 120.406 167.442 120.271 167.159 120.381L149.556 127.02C149.261 127.131 149.114 127.456 149.224 127.75C149.335 128.045 149.66 128.192 149.955 128.082L167.049 121.639L178.625 149.09C179.742 151.587 179.902 153.728 179.153 156.25Z" fill="#231F20"/>
<path d="M200.023 155.668C200.023 155.668 200.085 155.668 200.115 155.662C200.422 155.613 200.637 155.325 200.588 155.018C200.072 151.772 199.851 148.705 199.907 145.637C199.907 145.324 199.667 145.066 199.354 145.06C199.028 145.017 198.783 145.299 198.777 145.612C198.721 148.748 198.949 151.877 199.471 155.19C199.514 155.466 199.753 155.668 200.029 155.668H200.023Z" fill="#231F20"/>
<path d="M242.035 130.669C241.115 129.368 239.948 128.196 238.574 127.171C237.205 126.159 235.014 124.834 233.215 124.159C229.502 122.778 226.408 121.968 223.186 121.545C222.449 121.459 221.731 121.981 217.717 130.178L217.293 131.037C216.765 132.092 216.176 133.399 215.556 134.786C214.359 137.442 212.137 142.394 211.26 142.559C210.652 142.651 210.173 142.16 209.983 141.627C208.688 138.074 209.081 134.436 209.486 130.589C209.731 128.288 209.983 125.914 209.842 123.582C209.823 123.269 209.584 123.036 209.24 123.054C208.927 123.073 208.694 123.343 208.712 123.656C208.854 125.895 208.602 128.221 208.363 130.472C207.957 134.282 207.534 138.221 208.921 142.019C209.345 143.179 210.357 143.854 211.438 143.682C212.806 143.473 214.298 140.357 216.594 135.258C217.214 133.884 217.797 132.583 218.312 131.552L218.742 130.681C221.105 125.852 222.603 123.165 223.18 122.686C226.273 123.104 229.256 123.889 232.828 125.22C234.529 125.852 236.603 127.116 237.911 128.079C239.194 129.03 240.274 130.116 241.127 131.319C245.104 136.927 245.196 145.872 245.055 149.456C244.73 157.487 243.054 165.825 240.065 174.243C239.85 174.844 239.617 175.55 239.359 176.323C237.776 181.103 235.13 189.11 230.674 190.999C230.214 191.196 229.164 191.367 228.876 191.41H179.932V174.961C181.067 174.967 183.197 174.979 185.885 174.961L186.585 186.183C186.604 186.484 186.855 186.711 187.15 186.711C187.162 186.711 187.174 186.711 187.187 186.711C187.5 186.692 187.733 186.422 187.714 186.109L187.015 174.949C196.51 174.857 211.671 174.39 216.452 172.415C216.471 172.427 216.477 172.445 216.495 172.458C219 174.114 221.099 176.924 221.97 179.79C222.044 180.035 222.271 180.189 222.511 180.189C222.566 180.189 222.621 180.182 222.676 180.164C222.977 180.072 223.143 179.759 223.051 179.458C222.136 176.464 220.08 173.642 217.52 171.801C217.631 171.709 217.729 171.611 217.797 171.513C218.736 170.132 219.239 168.494 219.644 167.071C221.258 161.334 222.185 155.413 222.4 149.462C222.431 148.572 222.474 147.462 223.088 146.848C223.309 146.627 223.309 146.271 223.088 146.05C222.867 145.83 222.511 145.83 222.29 146.05C221.357 146.977 221.308 148.394 221.271 149.425C221.062 155.284 220.147 161.119 218.558 166.77C218.165 168.169 217.711 169.642 216.864 170.881C215.507 172.881 199.984 173.691 186.953 173.826L186.88 172.623C186.861 172.311 186.597 172.071 186.278 172.096C185.965 172.114 185.732 172.384 185.75 172.697L185.824 173.838C183.553 173.857 181.374 173.851 179.385 173.832C179.244 173.857 179.091 173.893 178.98 173.998C178.87 174.102 178.814 174.249 178.814 174.397V191.981C178.814 192.294 179.066 192.546 179.379 192.546H228.968C229.115 192.521 230.447 192.337 231.134 192.049C236.063 189.956 238.702 181.968 240.452 176.685C240.703 175.918 240.937 175.219 241.145 174.63C244.171 166.107 245.878 157.653 246.203 149.511C246.35 145.811 246.246 136.565 242.066 130.675L242.035 130.669Z" fill="#231F20"/>
<path d="M160.719 188.969H146.056L132.466 162.377C132.036 161.537 131.183 161.015 130.244 161.015H87.0821C86.5972 161.015 86.1614 161.261 85.9097 161.672C85.6581 162.083 85.6397 162.586 85.8606 163.016L99.4807 189.668V191.975C99.4807 192.288 99.7324 192.54 100.045 192.54H160.719C161.032 192.54 161.284 192.288 161.284 191.975V189.533C161.284 189.22 161.032 188.969 160.719 188.969Z" fill="#25536A"/>
<path d="M47.7309 121.982C47.4914 121.982 47.2949 122.179 47.2949 122.418V124.743C47.2949 124.983 47.4914 125.179 47.7309 125.179C47.9704 125.179 48.1669 124.983 48.1669 124.743V122.418C48.1669 122.179 47.9704 121.982 47.7309 121.982Z" fill="#231F20"/>
<path d="M53.642 120.679C53.4026 120.679 53.2061 120.875 53.2061 121.114V124.74C53.2061 124.98 53.4026 125.176 53.642 125.176C53.8815 125.176 54.078 124.98 54.078 124.74V121.114C54.078 120.875 53.8815 120.679 53.642 120.679Z" fill="#231F20"/>
<path d="M59.5454 118.352C59.3059 118.352 59.1094 118.548 59.1094 118.787V124.745C59.1094 124.984 59.3059 125.181 59.5454 125.181C59.7849 125.181 59.9814 124.984 59.9814 124.745V118.787C59.9814 118.548 59.7849 118.352 59.5454 118.352Z" fill="#231F20"/>
<path d="M65.4575 116.529C65.218 116.529 65.0215 116.725 65.0215 116.964V124.744C65.0215 124.983 65.218 125.18 65.4575 125.18C65.697 125.18 65.8935 124.983 65.8935 124.744V116.964C65.8935 116.725 65.697 116.529 65.4575 116.529Z" fill="#231F20"/>
<path d="M71.3628 114.448C71.1233 114.448 70.9268 114.644 70.9268 114.883V124.743C70.9268 124.983 71.1233 125.179 71.3628 125.179C71.6022 125.179 71.7988 124.983 71.7988 124.743V114.883C71.7988 114.644 71.6022 114.448 71.3628 114.448Z" fill="#231F20"/>
<path d="M270.208 192.848H14.4146C13.9358 192.848 13.543 192.461 13.543 191.976C13.543 191.491 13.9297 191.104 14.4146 191.104H270.208C270.687 191.104 271.079 191.491 271.079 191.976C271.079 192.461 270.693 192.848 270.208 192.848Z" fill="#231F20"/>
<path d="M30.6847 198.138C34.0848 198.138 36.8411 195.383 36.8411 191.984C36.8411 188.585 34.0848 185.83 30.6847 185.83C27.2846 185.83 24.5283 188.585 24.5283 191.984C24.5283 195.383 27.2846 198.138 30.6847 198.138Z" fill="#709EB3"/>
<path d="M30.6852 199.002C26.8121 199.002 23.6572 195.848 23.6572 191.977C23.6572 188.105 26.8121 184.951 30.6852 184.951C34.5582 184.951 37.7131 188.105 37.7131 191.977C37.7131 195.848 34.5644 199.002 30.6852 199.002ZM30.6852 186.694C27.7697 186.694 25.4004 189.062 25.4004 191.977C25.4004 194.891 27.7697 197.259 30.6852 197.259C33.6007 197.259 35.97 194.891 35.97 191.977C35.97 189.062 33.6007 186.694 30.6852 186.694Z" fill="#231F20"/>
</g>
</g>
<defs>
<clipPath id="clip0_355_11857">
<rect width="290" height="199" fill="white" transform="translate(0.5)"/>
</clipPath>
<clipPath id="clip1_355_11857">
<rect width="290" height="199" fill="white" transform="translate(0.5)"/>
</clipPath>
</defs>
</svg>
