<svg width="290" height="200" viewBox="0 0 290 200" fill="none" xmlns="http://www.w3.org/2000/svg">
<g clip-path="url(#clip0_1_837)">
<mask id="mask0_1_837" style="mask-type:luminance" maskUnits="userSpaceOnUse" x="0" y="0" width="290" height="200">
<path d="M290 0.5H0V199.5H290V0.5Z" fill="white"/>
</mask>
<g mask="url(#mask0_1_837)">
<mask id="mask1_1_837" style="mask-type:luminance" maskUnits="userSpaceOnUse" x="0" y="0" width="290" height="200">
<path d="M290 0.5H0V199.5H290V0.5Z" fill="white"/>
</mask>
<g mask="url(#mask1_1_837)">
<path d="M275.883 83.5757C275.514 83.1769 275.14 82.7842 274.753 82.3977C251.693 59.144 214.951 72.0839 188.558 56.0762C178.357 49.8855 171.243 39.8232 162.815 31.3746C125.097 -6.42648 51.6876 -13.7339 18.3769 33.3564C2.52254 55.7633 -2.06865 84.6801 0.803907 111.971C4.3762 145.901 29.4191 176.376 62.7175 185.745C73.7412 188.843 95.0829 192.475 95.0829 192.475H260.083C260.083 192.475 266.583 184.542 267.836 182.603C278.743 165.737 287.649 149.993 289.662 130.009C291.295 113.806 287.146 95.7854 275.889 83.5696L275.883 83.5757Z" fill="#2B2933"/>
<path d="M206.917 41.6533H174.214C169.635 41.6533 165.922 45.3653 165.922 49.9424V63.8701C165.922 68.4472 169.635 72.1592 174.214 72.1592H193.494L202.688 81.3502V72.1592H206.917C211.496 72.1592 215.21 68.4472 215.21 63.8701V49.9424C215.21 45.3653 211.496 41.6533 206.917 41.6533Z" fill="#D9D9D9"/>
<path d="M202.694 81.784C202.584 81.784 202.467 81.741 202.388 81.6551L193.322 72.593H174.22C169.408 72.593 165.492 68.6785 165.492 63.8682V49.9406C165.492 45.1303 169.408 41.2158 174.22 41.2158H206.923C211.736 41.2158 215.652 45.1303 215.652 49.9406V63.8682C215.652 68.6785 211.736 72.593 206.923 72.593H203.13V81.3484C203.13 81.5263 203.026 81.6858 202.86 81.7472C202.805 81.7717 202.75 81.7779 202.694 81.7779V81.784ZM174.22 42.0871C169.887 42.0871 166.364 45.6089 166.364 49.9406V63.8682C166.364 68.1999 169.887 71.7217 174.22 71.7217H193.5C193.616 71.7217 193.727 71.7647 193.807 71.8506L202.259 80.2992V72.1573C202.259 71.918 202.455 71.7217 202.694 71.7217H206.923C211.257 71.7217 214.78 68.1999 214.78 63.8682V49.9406C214.78 45.6089 211.257 42.0871 206.923 42.0871H174.22Z" fill="#231F20"/>
<path d="M206.125 49.8415H175.006C174.767 49.8415 174.57 49.645 174.57 49.4056C174.57 49.1662 174.767 48.9697 175.006 48.9697H206.125C206.365 48.9697 206.561 49.1662 206.561 49.4056C206.561 49.645 206.365 49.8415 206.125 49.8415Z" fill="#231F20"/>
<path d="M206.125 56.7321H175.006C174.767 56.7321 174.57 56.5356 174.57 56.2962C174.57 56.0568 174.767 55.8604 175.006 55.8604H206.125C206.365 55.8604 206.561 56.0568 206.561 56.2962C206.561 56.5356 206.365 56.7321 206.125 56.7321Z" fill="#231F20"/>
<path d="M197.281 63.6227H175.006C174.767 63.6227 174.57 63.4263 174.57 63.1868C174.57 62.9474 174.767 62.751 175.006 62.751H197.281C197.52 62.751 197.716 62.9474 197.716 63.1868C197.716 63.4263 197.52 63.6227 197.281 63.6227Z" fill="#231F20"/>
<path d="M39.1726 36.1233H105.659C108.562 36.1233 110.919 38.4794 110.919 41.3815V83.0356C110.919 85.9377 108.562 88.2938 105.659 88.2938H39.1726C36.2693 88.2938 33.9124 85.9377 33.9124 83.0356V41.3753C33.9124 38.4732 36.2693 36.1172 39.1726 36.1172V36.1233Z" fill="#CCE7FB"/>
<path d="M105.653 88.7214H39.1728C36.0363 88.7214 33.4768 86.169 33.4768 83.0276V41.3735C33.4768 38.2382 36.0302 35.6797 39.1728 35.6797H105.659C108.796 35.6797 111.355 38.2321 111.355 41.3735V83.0276C111.355 86.1629 108.802 88.7214 105.659 88.7214H105.653ZM39.1728 36.5571C36.5151 36.5571 34.3484 38.7229 34.3484 41.3796V83.0338C34.3484 85.6904 36.5151 87.8563 39.1728 87.8563H105.659C108.317 87.8563 110.484 85.6904 110.484 83.0338V41.3735C110.484 38.7168 108.317 36.5509 105.659 36.5509H39.1728V36.5571Z" fill="#231F20"/>
<path d="M68.9051 47.9388C67.5424 40.8031 56.5494 41.8155 56.5678 49.0984C56.5678 51.1415 57.7585 53.0435 59.4403 54.1909C59.5631 55.5775 59.8823 57.3323 59.6981 59.0257C56.5371 60.8847 61.871 65.2103 64.007 67.775C64.8601 64.8913 67.168 61.3142 67.6284 58.0992C66.8427 56.7187 66.3394 55.3996 66.0509 54.3013C68.0826 52.9331 69.3715 50.3746 68.9051 47.9449V47.9388Z" fill="#F8A99C"/>
<path d="M130.941 30.6682C125.988 35.2208 120.911 39.6445 115.713 43.9149C115.357 45.0806 119.131 49.5657 120.052 50.5228C120.052 50.5228 127.24 46.6575 128.001 46.3629C130.358 45.4549 134.863 44.3996 137.11 43.1786C137.275 43.0866 130.849 30.748 130.947 30.6621L130.941 30.6682Z" fill="#F8A99C"/>
<path d="M151.946 12.705C148.822 10.4409 145.022 9.1709 141.076 9.1709V27.6634L151.946 12.705Z" fill="#614B98"/>
<path d="M158.772 22.2817C158.735 22.1712 158.698 22.0608 158.661 21.9504C157.409 18.0972 155.009 14.9252 151.946 12.7041L141.076 27.6625L158.667 33.3747C159.803 29.8959 159.919 26.0489 158.778 22.2817H158.772Z" fill="#57A1D7"/>
<path d="M141.074 27.6602L130.204 42.6186C133.328 44.8826 137.127 46.1527 141.074 46.1527C142.854 46.1527 144.665 45.895 146.457 45.3489C148.483 44.7354 150.324 43.7966 151.944 42.6186C155.13 40.3055 157.462 37.0475 158.659 33.3723L141.068 27.6602H141.074Z" fill="#614B98"/>
<path d="M159.188 22.1518L159.078 21.8144C157.832 17.9797 155.456 14.7094 152.203 12.3534C148.987 10.0219 145.034 8.7334 141.081 8.7334C139.215 8.7334 137.361 9.0095 135.569 9.55556C133.55 10.1691 131.659 11.1079 129.947 12.3534C126.743 14.6787 124.306 18.041 123.072 21.8144C121.863 25.5141 121.826 29.4408 122.962 33.1712L123.072 33.5087C124.318 37.3434 126.694 40.6136 129.947 42.9697C133.163 45.3012 137.116 46.5897 141.069 46.5897C142.935 46.5897 144.788 46.3136 146.581 45.7675C148.6 45.1539 150.491 44.2152 152.203 42.9697C155.407 40.6443 157.844 37.2821 159.078 33.5087C160.287 29.809 160.324 25.8822 159.188 22.1518ZM141.511 26.324V9.60464C144.997 9.69054 148.453 10.8133 151.338 12.8013L141.511 26.324ZM151.694 42.2702C150.061 43.4544 148.263 44.3502 146.335 44.9392C144.629 45.4607 142.855 45.7245 141.081 45.7245C137.454 45.7245 133.826 44.5895 130.825 42.5218L141.253 28.1769L149.269 30.7784L158.126 33.6559C156.911 37.0918 154.646 40.1412 151.706 42.2764L151.694 42.2702ZM158.384 32.8277L150.288 30.2016L141.781 27.4406L152.043 13.3228C154.965 15.55 157.107 18.5748 158.249 22.0905L158.359 22.4156C159.397 25.8331 159.409 29.4286 158.384 32.8338V32.8277Z" fill="#D9D9D9"/>
<path d="M126.896 34.6646C126.785 34.0265 127.657 30.2961 126.755 29.3942C124.668 27.2958 123.661 30.9955 123.373 32.1368C122.82 34.2965 122.249 36.45 121.01 38.3521C119.61 40.4934 117.351 41.8984 115.203 43.1869C115.848 44.3833 116.357 45.6411 117.057 46.8068L125.625 41.9413C127.97 38.9656 127.399 37.5728 126.89 34.6646H126.896Z" fill="#F8A99C"/>
<path d="M127.467 35.3942C127.418 35.1365 127.369 34.8726 127.32 34.5904C127.295 34.4554 127.363 33.9032 127.418 33.4615C127.651 31.4981 127.78 29.8108 127.068 29.0868C126.436 28.4487 125.804 28.2094 125.19 28.3751C124.251 28.6328 123.52 29.8231 122.956 32.0257C122.452 33.9891 121.888 36.2163 120.648 38.1122C119.261 40.2412 116.885 41.6647 114.983 42.812C114.786 42.9347 114.712 43.1863 114.823 43.3888C115.087 43.8796 115.332 44.3827 115.572 44.8797C115.916 45.5914 116.272 46.3277 116.689 47.0271C116.769 47.1621 116.916 47.2357 117.063 47.2357C117.137 47.2357 117.217 47.2173 117.284 47.1744C117.493 47.0517 117.554 46.7817 117.432 46.5792C117.033 45.9166 116.689 45.1987 116.351 44.5054C116.167 44.1189 115.977 43.7323 115.78 43.3458C117.696 42.1862 119.967 40.7505 121.378 38.5846C122.698 36.566 123.281 34.2652 123.797 32.2344C124.417 29.817 125.073 29.3016 125.417 29.2095C125.706 29.1298 126.055 29.2954 126.448 29.6942C126.927 30.1789 126.675 32.3202 126.553 33.351C126.467 34.0873 126.424 34.4861 126.467 34.7315C126.516 35.0138 126.565 35.2837 126.614 35.5414C127.056 37.9343 127.283 39.1307 125.288 41.6647C125.141 41.8549 125.172 42.1248 125.362 42.2721C125.552 42.4193 125.822 42.3887 125.969 42.1985C128.204 39.3577 127.915 37.7747 127.467 35.3819V35.3942Z" fill="#231F20"/>
<path d="M118.77 38.7034C113.375 41.9246 109.146 45.0291 103.572 47.9435C98.3122 50.6922 93.0581 53.2201 87.448 55.1835C83.6548 56.5149 79.5608 57.2143 76.2217 57.8708C74.7486 58.1592 73.0975 58.0672 71.5998 58.1346C70.495 58.1837 68.6106 58.6439 67.6593 57.9076C66.3396 60.7791 65.0199 63.6505 63.7003 66.5158C61.9755 64.1659 60.527 61.6135 59.4037 58.9261C58.2805 59.5274 57.1388 59.8955 55.991 60.4293C51.8172 61.8957 48.4597 65.4666 47.8275 69.921C47.6127 71.4181 47.6127 72.9213 47.7048 74.4306C47.7968 75.9891 47.9748 77.5475 48.1037 79.1059C48.3554 82.1675 47.1523 88.2847 47.1523 88.2847H84.3361C84.3361 88.2847 84.6307 85.8059 84.8026 84.677C85.8031 78.2101 87.7488 73.9827 92.831 69.6081C98.4534 64.7733 120.041 51.8457 125.246 49.2565C125.908 48.9252 119.519 39.4274 118.77 38.6973V38.7034Z" fill="#57A1D7"/>
<path d="M65.3705 37.8857C62.5164 37.9716 60.1594 39.3337 57.6919 41.5916C51.9775 46.8068 55.2675 50.2734 56.2434 50.6599C56.7774 50.8747 60.7487 47.0277 60.3804 45.5061C62.0069 46.2914 69.618 46.365 70.152 43.7329C70.9561 40.7817 68.9735 37.7753 65.3705 37.8796V37.8857Z" fill="#231F20"/>
<path d="M119.077 38.3847C118.936 38.2498 118.721 38.2252 118.549 38.3234C116.524 39.5321 114.645 40.7346 112.835 41.9004C109.753 43.876 106.844 45.7412 103.376 47.5512C98.834 49.9257 93.3712 52.6437 87.3131 54.7666C84.0231 55.9201 80.5183 56.595 77.4248 57.1902L76.1481 57.4356C75.1599 57.6319 74.0551 57.6442 72.9871 57.6565C72.5144 57.6565 72.048 57.6687 71.5937 57.6871C71.336 57.6994 71.0291 57.7301 70.7099 57.7669C69.7401 57.8773 68.5309 58.0123 67.9355 57.5522C67.8312 57.4724 67.6961 57.4417 67.5673 57.4724C67.4384 57.5031 67.334 57.5951 67.2788 57.7117L63.6328 65.6449C62.1167 63.4914 60.8339 61.1783 59.8211 58.7486C59.772 58.6381 59.68 58.5461 59.5634 58.5093C59.4467 58.4663 59.3178 58.4786 59.2135 58.5338C58.5567 58.8836 57.9 59.1535 57.2064 59.4358C56.746 59.626 56.2857 59.81 55.856 60.0125C51.3508 61.5955 48.0363 65.4609 47.4041 69.8539C47.2138 71.1915 47.1708 72.6517 47.2752 74.4494C47.3304 75.4434 47.4286 76.4373 47.5207 77.4313C47.5759 78.0019 47.6312 78.5664 47.6741 79.137C47.9197 82.1004 46.7412 88.1317 46.7289 88.193C46.7043 88.3219 46.735 88.4507 46.821 88.555C46.9008 88.6532 47.0296 88.7145 47.1585 88.7145H84.3423C84.5633 88.7145 84.7474 88.5489 84.7719 88.328C84.7719 88.3035 85.0666 85.8431 85.2384 84.7387C86.2819 77.9958 88.4179 73.9831 93.1257 69.9337C98.7112 65.1295 120.268 52.2204 125.448 49.6434C125.577 49.5821 125.706 49.3858 125.731 49.2446C125.939 47.9316 119.543 38.8326 119.083 38.3847H119.077ZM48.5396 79.0695C48.4905 78.4989 48.4352 77.9283 48.3861 77.3577C48.2941 76.376 48.202 75.3882 48.1406 74.4065C48.0424 72.6701 48.0792 71.2651 48.2634 69.9828C48.8465 65.9088 51.94 62.3195 56.1813 60.8224C56.6355 60.6138 57.0836 60.4297 57.5317 60.2457C58.078 60.0248 58.6365 59.7916 59.1951 59.5217C60.306 62.0863 63.4241 66.823 63.4548 66.8475C63.9029 72.7744 65.0077 80.9163 66.2967 87.8433H54.6469C53.4745 81.9716 53.051 75.9772 53.3947 70.0257C53.407 69.7864 53.2228 69.5778 52.9835 69.5655C52.7441 69.541 52.5354 69.7373 52.5231 69.9766C52.1733 75.9404 52.5906 81.9532 53.7568 87.8433H47.668C47.9565 86.2849 48.7421 81.6587 48.5273 79.0633L48.5396 79.0695ZM92.5549 69.2772C87.6752 73.48 85.4533 77.6338 84.3791 84.6099C84.2441 85.4811 84.0477 87.107 83.9556 87.8494H67.1806C65.8548 80.7874 64.7254 72.4247 64.2957 66.461C64.2957 66.418 67.868 58.5154 67.868 58.5154C68.7273 58.8713 69.8628 58.7486 70.802 58.6381C71.1027 58.6013 71.3851 58.5707 71.6306 58.5584C72.0725 58.54 72.5329 58.5338 72.9932 58.5277C74.098 58.5154 75.2458 58.497 76.3138 58.2884L77.5905 58.043C80.7148 57.4417 84.2502 56.7607 87.6015 55.5826C93.7149 53.4413 99.2084 50.711 103.781 48.3182C107.28 46.4898 110.208 44.6123 113.307 42.6244C115.02 41.5261 116.794 40.3911 118.69 39.2498C119.924 40.7776 124.374 47.5635 124.828 48.9747C119.249 51.8093 98.1036 64.4976 92.5549 69.271V69.2772Z" fill="#231F20"/>
<path d="M82.1882 61.7503C82.2373 61.5171 82.09 61.284 81.8568 61.2349C81.6235 61.1797 81.3903 61.3331 81.3412 61.5662C79.9049 68.1374 80.5678 75.1565 83.2194 81.3411C83.2869 81.5067 83.4526 81.6049 83.6184 81.6049C83.6736 81.6049 83.735 81.5926 83.7902 81.5681C84.0112 81.4761 84.1156 81.2184 84.0173 80.9975C81.4394 74.9847 80.7888 68.1497 82.1882 61.7503Z" fill="#231F20"/>
<path d="M77.0621 66.6203C77.0805 66.4853 77.0375 66.3442 76.9393 66.246C76.8411 66.1478 76.7 66.1049 76.5711 66.1233L70.1323 67.0436C69.893 67.0804 69.7272 67.2952 69.7641 67.5345C69.8009 67.7738 70.0157 67.9333 70.2551 67.9026L76.1721 67.0559C76.1966 67.5222 76.3317 67.9762 76.5772 68.3812C76.657 68.5162 76.8043 68.5898 76.9516 68.5898C77.0253 68.5898 77.1051 68.5714 77.1726 68.5284C77.3751 68.4057 77.4426 68.1358 77.3199 67.9333C77.0866 67.5467 76.9946 67.0682 77.0621 66.6203Z" fill="#231F20"/>
<path d="M36.4903 42.6875C45.065 42.6875 52.0193 46.694 52.0193 51.6331C52.0193 54.9402 48.889 57.8239 44.2548 59.37V64.9656L39.6759 60.3885C38.6447 60.5112 37.5829 60.5787 36.4903 60.5787C27.9156 60.5787 20.9613 56.5722 20.9613 51.6331C20.9613 46.694 27.9156 42.6875 36.4903 42.6875Z" fill="#D9D9D9"/>
<path d="M44.2551 65.3955C44.1446 65.3955 44.028 65.3525 43.9482 65.2666L39.5166 60.8368C38.5099 60.9472 37.4972 61.0086 36.4906 61.0086C27.6887 61.0086 20.5257 56.7996 20.5257 51.6273C20.5257 46.4551 27.6887 42.2461 36.4906 42.2461C45.2924 42.2461 52.4554 46.4551 52.4554 51.6273C52.4554 54.9282 49.4907 57.9899 44.6909 59.6772V64.9598C44.6909 65.1378 44.5865 65.2973 44.4208 65.3587C44.3656 65.3832 44.3103 65.3893 44.2551 65.3893V65.3955ZM39.6762 59.9471C39.7928 59.9471 39.9033 59.9901 39.983 60.076L43.8193 63.9107V59.3642C43.8193 59.1802 43.9359 59.0084 44.1139 58.9532C48.7235 57.4193 51.5838 54.6092 51.5838 51.6273C51.5838 46.9336 44.8136 43.1173 36.4844 43.1173C28.1552 43.1173 21.385 46.9336 21.385 51.6273C21.385 56.321 28.1552 60.1373 36.4844 60.1373C37.5279 60.1373 38.5836 60.076 39.6209 59.9533C39.6393 59.9533 39.6577 59.9533 39.67 59.9533L39.6762 59.9471Z" fill="#231F20"/>
<path d="M44.7642 48.8281H29.0633C28.8239 48.8281 28.6275 49.0246 28.6275 49.264C28.6275 49.5034 28.8239 49.6999 29.0633 49.6999H44.7642C45.0035 49.6999 45.2 49.5034 45.2 49.264C45.2 49.0246 45.0035 48.8281 44.7642 48.8281Z" fill="#231F20"/>
<path d="M36.3245 52.7129H29.0633C28.8239 52.7129 28.6275 52.9093 28.6275 53.1488C28.6275 53.3882 28.8239 53.5846 29.0633 53.5846H36.3245C36.5638 53.5846 36.7603 53.3882 36.7603 53.1488C36.7603 52.9093 36.5638 52.7129 36.3245 52.7129Z" fill="#231F20"/>
<path d="M77.2709 162.447C77.2709 162.134 77.0193 161.883 76.7063 161.883C76.3932 161.883 76.1416 162.134 76.1416 162.447C76.1416 171.215 69.0031 178.351 60.232 178.351C51.4608 178.351 44.3224 171.215 44.3224 162.447C44.3224 162.134 44.0708 161.883 43.7577 161.883C43.4447 161.883 43.193 162.134 43.193 162.447C43.193 171.651 50.534 179.154 59.6673 179.455V192.481C59.6673 192.794 59.9189 193.045 60.232 193.045C60.545 193.045 60.7967 192.794 60.7967 192.481V179.455C69.93 179.154 77.2709 171.651 77.2709 162.447Z" fill="#231F20"/>
<path d="M69.9177 156.409H50.5341C50.221 156.409 49.9694 156.661 49.9694 156.974V163.76C49.9694 168.435 53.7749 172.233 58.4459 172.233H62.0059C66.683 172.233 70.4824 168.429 70.4824 163.76V156.974C70.4824 156.661 70.2308 156.409 69.9177 156.409Z" fill="#231F20"/>
<path d="M69.9172 143.724C69.9172 139.356 66.3756 135.815 62.0054 135.815H58.4454C54.0751 135.815 50.5335 139.356 50.5335 143.724V156.971H69.9172V143.724Z" fill="#57A1D7"/>
<path d="M69.9177 157.537H50.5341C50.221 157.537 49.9694 157.286 49.9694 156.973V143.726C49.9694 139.051 53.7749 135.253 58.4459 135.253H62.0059C66.683 135.253 70.4824 139.057 70.4824 143.726V156.973C70.4824 157.286 70.2308 157.537 69.9177 157.537ZM51.0987 156.408H69.353V143.732C69.353 139.683 66.0569 136.388 62.0059 136.388H58.4459C54.3948 136.388 51.0987 139.683 51.0987 143.732V156.408Z" fill="#231F20"/>
<path d="M237.958 101.763C237.54 101.671 237.135 101.549 236.742 101.371C233.336 99.8183 232.679 95.3578 230.598 92.2409C228.364 88.8971 224.301 87.1055 220.293 86.7987C213.271 86.2649 205.825 88.0197 202.18 94.5725C199.773 98.898 199.221 103.984 198.939 108.923C198.245 121.25 198.957 133.662 201.081 145.823C201.965 149.363 225.571 151.977 225.571 151.977H279.714C279.714 151.977 266.966 147.872 266.739 138.871C266.604 133.65 268.39 125.207 263.271 121.606C259.606 119.029 255.574 122.685 252.093 120.495C246.453 116.936 250.878 105.776 244.924 102.763C242.819 101.696 240.235 102.266 237.952 101.769L237.958 101.763Z" fill="#231F20"/>
<path d="M221.318 120.968C221.128 119.263 220.845 116.704 220.612 114.581C225.363 111.415 228.462 105.304 226.461 99.2116C224.866 94.3584 220.084 90.7262 214.977 90.4992C208.68 90.2169 204.414 95.4628 203.266 101.776C202.554 105.691 203.094 110.292 205.39 112.863C206.642 114.262 208.011 115.238 209.429 115.876C210.03 118.876 210.503 123.073 208.858 124.607C208.146 125.269 207.237 125.674 206.513 126.318C204.678 127.938 205.427 146.682 209.005 146.848C217.236 147.228 224.669 132.454 226.112 126.46C222.95 125.693 221.674 124.257 221.312 120.968H221.318Z" fill="#F8A99C"/>
<path d="M149.963 121.789C148.999 120.077 148.109 118.537 146.753 117.107C145.102 115.365 139.915 111.26 140.388 108.505C140.523 107.702 155.426 99.6886 157.169 100.143C161.693 101.314 160.612 109.567 160.649 113.046C160.71 118.5 162.853 122.936 164.995 127.851C165.038 127.943 156.524 132.538 155.377 131.784C154.198 131.004 149.987 121.832 149.963 121.795V121.789Z" fill="#F8A99C"/>
<path d="M159.3 180.21C159.76 179.927 160.245 179.707 160.767 179.596C163.701 178.983 169.642 183.265 172.834 183.86C174.062 184.093 187.08 183.044 187.08 183.044L187.166 192.481H145.833C145.833 192.481 149.246 188.118 151.812 186.192C154.218 184.388 158.729 180.559 159.3 180.21Z" fill="#F8A99C"/>
<path d="M169.151 191.102C166.69 190.746 163.032 187.967 161.485 186.126C161.387 186.009 161.246 185.936 161.092 185.923C160.945 185.917 160.791 185.96 160.675 186.065C159.085 187.463 157.311 188.623 155.402 189.519C155.12 189.654 154.997 189.985 155.132 190.267C155.267 190.55 155.599 190.672 155.881 190.537C157.722 189.678 159.441 188.58 160.994 187.273C162.786 189.2 166.352 191.838 168.985 192.218C169.01 192.218 169.041 192.218 169.065 192.218C169.341 192.218 169.581 192.016 169.624 191.734C169.667 191.427 169.452 191.139 169.145 191.096L169.151 191.102Z" fill="#231F20"/>
<path d="M248.257 168.473C247.385 164.331 246.115 157.576 244.985 151.827C245.028 151.213 245.077 150.6 245.102 149.98C245.341 144.102 244.58 136.439 241.069 131.494C240.149 130.193 239.007 129.076 237.73 128.125C236.294 127.064 234.183 125.812 232.507 125.193C229.186 123.953 226.081 123.07 222.6 122.61C221.735 122.493 218.15 130.076 217.285 131.794C215.333 135.697 212.424 143.378 210.828 143.624C209.938 143.759 209.22 143.121 208.931 142.323C206.783 136.421 209.134 130.175 208.759 124.119C203.763 124.254 199.006 128.297 195.366 131.347C189.983 135.856 185.447 141.274 179.635 145.262C178.929 145.747 178.223 146.231 177.529 146.734L166.855 121.413L149.252 128.052C149.252 128.052 153.751 139.544 154.561 141.519C157.348 148.317 159.858 156.674 164.247 162.589C166.192 165.215 168.967 166.681 172.177 167.301C173.767 167.608 175.909 167.374 177.204 167.086V167.068C179.948 166.552 182.096 165.368 184.754 164.061C190.186 161.398 194.894 158.981 199.436 154.907C200.344 161.411 201.406 167.939 202.928 174.332C192.064 175.032 178.843 174.897 178.843 174.897V192.481H256.678C256.678 192.481 251.222 182.566 248.257 168.473Z" fill="#614B98"/>
<path d="M215.252 99.05C216.927 99.3138 218.499 99.3384 220.174 99.1973C219.199 99.277 219.334 105.149 219.377 105.781C219.555 108.382 220.758 112.358 222.022 114.64C222.102 114.788 232.573 110.26 230.05 98.1113C229.289 94.4483 226.54 91.5831 223.839 88.9939C219.26 84.6069 205.235 82.1834 204.013 90.9818C203.645 93.6201 206.112 95.7614 208.506 96.9332C210.63 97.9701 212.913 98.6819 215.246 99.0561L215.252 99.05Z" fill="#231F20"/>
<path d="M157.162 73.9551H104.621C100.791 73.9551 97.6855 77.0592 97.6855 80.8882V103.485C97.6855 107.314 100.791 110.419 104.621 110.419H157.162C160.993 110.419 164.098 107.314 164.098 103.485V80.8882C164.098 77.0592 160.993 73.9551 157.162 73.9551Z" fill="#CCE7FB"/>
<path d="M157.163 110.991H104.616C100.479 110.991 97.1155 107.629 97.1155 103.494V80.8902C97.1155 76.7549 100.479 73.3926 104.616 73.3926H157.163C161.3 73.3926 164.664 76.7549 164.664 80.8902V103.494C164.664 107.629 161.3 110.991 157.163 110.991ZM104.616 74.5277C101.105 74.5277 98.2449 77.3807 98.2449 80.8963V103.5C98.2449 107.009 101.105 109.868 104.616 109.868H157.163C160.674 109.868 163.534 107.015 163.534 103.5V80.8963C163.534 77.3868 160.674 74.5277 157.163 74.5277H104.616Z" fill="#231F20"/>
<path d="M151.373 93.0699C151.865 87.9088 148.079 83.3266 142.915 82.8353C137.752 82.344 133.168 86.1297 132.676 91.2908C132.184 96.4519 135.971 101.034 141.134 101.525C146.297 102.017 150.882 98.231 151.373 93.0699Z" fill="#57A1D7"/>
<path d="M142.028 102.147C136.535 102.147 132.066 97.6807 132.066 92.1894C132.066 86.6981 136.535 82.2314 142.028 82.2314C147.522 82.2314 151.99 86.6981 151.99 92.1894C151.99 97.6807 147.522 102.147 142.028 102.147ZM142.028 83.3665C137.161 83.3665 133.202 87.3239 133.202 92.1894C133.202 97.0549 137.161 101.012 142.028 101.012C146.896 101.012 150.855 97.0549 150.855 92.1894C150.855 87.3239 146.896 83.3665 142.028 83.3665Z" fill="#231F20"/>
<path d="M145.545 91.627H142.593V88.6758C142.593 88.3629 142.341 88.1113 142.028 88.1113C141.715 88.1113 141.463 88.3629 141.463 88.6758V91.627H138.511C138.198 91.627 137.946 91.8786 137.946 92.1915C137.946 92.5044 138.198 92.7559 138.511 92.7559H141.463V95.7071C141.463 96.02 141.715 96.2716 142.028 96.2716C142.341 96.2716 142.593 96.02 142.593 95.7071V92.7559H145.545C145.858 92.7559 146.11 92.5044 146.11 92.1915C146.11 91.8786 145.858 91.627 145.545 91.627Z" fill="#231F20"/>
<path d="M121.606 91.9149C123.104 91.1479 124.135 89.6141 124.135 87.8163C124.135 85.264 122.067 83.1963 119.513 83.1963C116.96 83.1963 114.891 85.264 114.891 87.8163C114.891 89.6079 115.923 91.1479 117.42 91.9149C113.388 92.7555 110.355 96.3263 110.355 100.609V100.793H128.665V100.609C128.665 96.3263 125.633 92.7555 121.6 91.9149H121.606Z" fill="#231F20"/>
<path d="M160.821 108.311C161.116 105.237 159.507 92.6343 156.003 96.5917C155.352 97.328 155.162 98.3587 154.996 99.3282C154.075 104.789 153.161 110.415 154.401 115.808L162.761 122.698C159.593 115.103 160.919 110.004 160.821 108.311Z" fill="#F8A99C"/>
<path d="M163.283 122.478C160.797 116.515 161.141 112.122 161.319 109.759C161.368 109.164 161.405 108.692 161.386 108.318C161.589 105.968 160.742 96.6109 157.962 95.3961C157.415 95.1568 156.556 95.1077 155.58 96.2121C154.8 97.0957 154.598 98.2798 154.438 99.2308C153.561 104.44 152.566 110.348 153.849 115.932C153.917 116.239 154.224 116.423 154.524 116.355C154.831 116.288 155.021 115.981 154.948 115.68C153.714 110.318 154.69 104.526 155.549 99.421C155.721 98.3903 155.899 97.5558 156.421 96.9668C157.059 96.2489 157.391 96.3901 157.501 96.4392C159.336 97.2368 160.503 105.63 160.251 108.256C160.251 108.287 160.251 108.318 160.251 108.342C160.269 108.643 160.233 109.097 160.19 109.673C159.999 112.134 159.643 116.705 162.234 122.914C162.326 123.129 162.534 123.264 162.755 123.264C162.829 123.264 162.903 123.251 162.97 123.221C163.259 123.098 163.394 122.773 163.277 122.485L163.283 122.478Z" fill="#231F20"/>
<path d="M205.96 99.5213L207.666 100.135C207.727 100.16 207.795 100.172 207.856 100.172C208.089 100.172 208.304 100.031 208.39 99.7975C208.495 99.5028 208.341 99.1775 208.053 99.0731L206.346 98.4592C206.052 98.3549 205.726 98.5022 205.622 98.7969C205.518 99.0915 205.671 99.4169 205.96 99.5213Z" fill="#231F20"/>
<path d="M214.78 101.324L213.074 100.704C212.779 100.6 212.454 100.747 212.349 101.042C212.245 101.337 212.398 101.662 212.687 101.766L214.393 102.386C214.455 102.411 214.522 102.423 214.583 102.423C214.817 102.423 215.032 102.282 215.117 102.049C215.222 101.754 215.074 101.429 214.78 101.324Z" fill="#231F20"/>
<path d="M212.527 102.545C212.128 102.545 211.809 102.864 211.809 103.263C211.809 103.662 212.128 103.981 212.527 103.981C212.926 103.981 213.246 103.662 213.246 103.263C213.246 102.864 212.926 102.545 212.527 102.545Z" fill="#231F20"/>
<path d="M206.759 101.069C206.759 100.67 206.439 100.351 206.04 100.351C205.641 100.351 205.322 100.67 205.322 101.069C205.322 101.468 205.641 101.787 206.04 101.787C206.439 101.787 206.759 101.468 206.759 101.069Z" fill="#231F20"/>
<path d="M209.367 102.781C209.515 102.505 209.41 102.161 209.134 102.014C208.858 101.867 208.514 101.971 208.367 102.247C207.949 103.033 207.286 103.769 206.396 104.444L206.298 104.517C205.513 105.168 206.703 107.248 206.716 107.272C206.82 107.444 207.004 107.536 207.194 107.536C207.299 107.536 207.403 107.505 207.495 107.45C207.759 107.284 207.839 106.935 207.673 106.671C207.514 106.419 207.213 105.634 207.164 105.284C208.14 104.53 208.882 103.689 209.367 102.781Z" fill="#231F20"/>
<path d="M211.791 108.901C211.791 108.901 211.736 108.925 211.711 108.95C211.674 108.98 211.65 109.023 211.625 109.06C211.373 109.49 211.195 110.005 210.711 110.189C210.312 110.343 209.827 110.03 209.465 110.392C209.102 110.76 209.287 111.398 209.741 111.588C210.06 111.723 210.434 111.656 210.754 111.527C211.601 111.189 212.27 110.343 212.239 109.428C212.239 109.275 212.208 109.115 212.104 108.999C212.024 108.907 211.889 108.864 211.779 108.895L211.791 108.901Z" fill="#231F20"/>
<path d="M160.435 129.391C156.838 130.76 153.229 132.22 149.699 133.723C149.411 133.846 149.276 134.177 149.399 134.465C149.491 134.68 149.699 134.809 149.92 134.809C149.994 134.809 150.068 134.797 150.141 134.766C153.658 133.269 157.255 131.821 160.834 130.453C161.128 130.342 161.269 130.017 161.159 129.723C161.048 129.428 160.723 129.281 160.428 129.397L160.435 129.391Z" fill="#231F20"/>
<path d="M178.653 156.75C178.567 157.05 178.733 157.363 179.033 157.449C179.089 157.467 179.144 157.474 179.193 157.474C179.439 157.474 179.659 157.314 179.733 157.069C180.421 154.756 180.396 152.657 179.653 150.43C179.653 150.356 167.377 121.188 167.377 121.188C167.261 120.906 166.942 120.771 166.659 120.881L149.056 127.52C148.761 127.63 148.614 127.956 148.724 128.25C148.835 128.545 149.16 128.692 149.455 128.581L166.549 122.139L178.125 149.589C179.242 152.087 179.402 154.228 178.653 156.75Z" fill="#231F20"/>
<path d="M199.523 156.168C199.523 156.168 199.584 156.168 199.615 156.162C199.922 156.113 200.137 155.825 200.088 155.518C199.572 152.272 199.351 149.205 199.406 146.137C199.406 145.824 199.167 145.566 198.854 145.56C198.528 145.517 198.282 145.799 198.276 146.112C198.221 149.247 198.448 152.377 198.97 155.69C199.013 155.966 199.253 156.168 199.529 156.168H199.523Z" fill="#231F20"/>
<path d="M241.535 131.168C240.615 129.867 239.449 128.696 238.074 127.671C236.705 126.659 234.514 125.333 232.715 124.658C229.002 123.278 225.908 122.468 222.686 122.045C221.949 121.959 221.231 122.48 217.217 130.677L216.793 131.536C216.265 132.592 215.676 133.898 215.056 135.285C213.859 137.942 211.637 142.893 210.76 143.059C210.152 143.151 209.673 142.66 209.483 142.126C208.188 138.574 208.581 134.935 208.986 131.088C209.231 128.788 209.483 126.413 209.342 124.082C209.323 123.769 209.084 123.536 208.74 123.554C208.427 123.572 208.194 123.842 208.212 124.155C208.354 126.395 208.102 128.72 207.863 130.972C207.458 134.782 207.034 138.721 208.421 142.519C208.845 143.678 209.857 144.353 210.938 144.182C212.307 143.973 213.798 140.856 216.094 135.758C216.714 134.383 217.297 133.082 217.812 132.052L218.242 131.18C220.605 126.352 222.103 123.664 222.68 123.186C225.773 123.603 228.756 124.388 232.329 125.72C234.029 126.352 236.103 127.616 237.411 128.579C238.694 129.53 239.774 130.616 240.627 131.819C244.604 137.426 244.697 146.372 244.555 149.955C244.23 157.987 242.554 166.325 239.565 174.743C239.35 175.344 239.117 176.05 238.859 176.823C237.276 181.602 234.63 189.609 230.174 191.499C229.714 191.695 228.664 191.867 228.376 191.91H179.432V175.461C180.567 175.467 182.697 175.479 185.385 175.461L186.085 186.682C186.104 186.983 186.355 187.21 186.65 187.21C186.662 187.21 186.674 187.21 186.687 187.21C187 187.192 187.233 186.922 187.215 186.609L186.515 175.448C196.01 175.356 211.171 174.89 215.952 172.914C215.971 172.927 215.977 172.945 215.995 172.957C218.5 174.614 220.599 177.424 221.47 180.289C221.544 180.535 221.771 180.688 222.011 180.688C222.066 180.688 222.121 180.682 222.176 180.664C222.477 180.571 222.643 180.259 222.551 179.958C221.636 176.964 219.58 174.141 217.02 172.301C217.131 172.209 217.229 172.111 217.297 172.012C218.236 170.632 218.739 168.994 219.144 167.57C220.758 161.834 221.685 155.913 221.9 149.961C221.931 149.072 221.974 147.961 222.588 147.348C222.809 147.127 222.809 146.771 222.588 146.55C222.367 146.329 222.011 146.329 221.79 146.55C220.857 147.476 220.808 148.894 220.771 149.924C220.562 155.784 219.648 161.619 218.058 167.27C217.665 168.669 217.211 170.141 216.364 171.38C215.007 173.381 199.484 174.191 186.453 174.325L186.38 173.123C186.361 172.81 186.097 172.571 185.778 172.595C185.465 172.614 185.232 172.884 185.25 173.197L185.324 174.338C183.053 174.356 180.874 174.35 178.885 174.332C178.744 174.356 178.591 174.393 178.48 174.497C178.37 174.602 178.315 174.749 178.315 174.896V192.481C178.315 192.793 178.566 193.045 178.879 193.045H228.468C228.615 193.02 229.947 192.836 230.634 192.548C235.563 190.456 238.203 182.467 239.952 177.185C240.204 176.418 240.437 175.718 240.645 175.129C243.671 166.607 245.378 158.152 245.703 150.01C245.85 146.311 245.746 137.064 241.566 131.174L241.535 131.168Z" fill="#231F20"/>
<path d="M160.219 189.469H145.556L131.966 162.878C131.536 162.037 130.683 161.516 129.744 161.516H86.5821C86.0972 161.516 85.6614 161.761 85.4097 162.172C85.1581 162.583 85.1397 163.086 85.3606 163.516L98.9807 190.169V192.476C98.9807 192.788 99.2324 193.04 99.5454 193.04H160.219C160.532 193.04 160.784 192.788 160.784 192.476V190.034C160.784 189.721 160.532 189.469 160.219 189.469Z" fill="#614B98"/>
<path d="M47.2309 122.483C46.9914 122.483 46.7949 122.68 46.7949 122.919V125.244C46.7949 125.484 46.9914 125.68 47.2309 125.68C47.4704 125.68 47.6669 125.484 47.6669 125.244V122.919C47.6669 122.68 47.4704 122.483 47.2309 122.483Z" fill="#231F20"/>
<path d="M53.1422 121.179C52.9027 121.179 52.7062 121.375 52.7062 121.614V125.24C52.7062 125.48 52.9027 125.676 53.1422 125.676C53.3817 125.676 53.5782 125.48 53.5782 125.24V121.614C53.5782 121.375 53.3817 121.179 53.1422 121.179Z" fill="#231F20"/>
<path d="M59.0458 118.853C58.8063 118.853 58.6098 119.049 58.6098 119.288V125.246C58.6098 125.485 58.8063 125.681 59.0458 125.681C59.2853 125.681 59.4818 125.485 59.4818 125.246V119.288C59.4818 119.049 59.2853 118.853 59.0458 118.853Z" fill="#231F20"/>
<path d="M64.9571 117.029C64.7176 117.029 64.5211 117.226 64.5211 117.465V125.245C64.5211 125.484 64.7176 125.68 64.9571 125.68C65.1966 125.68 65.3931 125.484 65.3931 125.245V117.465C65.3931 117.226 65.1966 117.029 64.9571 117.029Z" fill="#231F20"/>
<path d="M70.8626 114.948C70.6231 114.948 70.4266 115.145 70.4266 115.384V125.244C70.4266 125.483 70.6231 125.679 70.8626 125.679C71.1021 125.679 71.2986 125.483 71.2986 125.244V115.384C71.2986 115.145 71.1021 114.948 70.8626 114.948Z" fill="#231F20"/>
<path d="M269.708 193.347H13.9144C13.4357 193.347 13.0428 192.96 13.0428 192.475C13.0428 191.99 13.4295 191.604 13.9144 191.604H269.708C270.186 191.604 270.579 191.99 270.579 192.475C270.579 192.96 270.193 193.347 269.708 193.347Z" fill="#231F20"/>
<path d="M30.1844 198.637C33.5845 198.637 36.3408 195.882 36.3408 192.483C36.3408 189.084 33.5845 186.329 30.1844 186.329C26.7843 186.329 24.028 189.084 24.028 192.483C24.028 195.882 26.7843 198.637 30.1844 198.637Z" fill="#57A1D7"/>
<path d="M30.1853 199.502C26.3123 199.502 23.1573 196.348 23.1573 192.476C23.1573 188.605 26.3123 185.451 30.1853 185.451C34.0584 185.451 37.2133 188.605 37.2133 192.476C37.2133 196.348 34.0645 199.502 30.1853 199.502ZM30.1853 187.194C27.2698 187.194 24.9005 189.562 24.9005 192.476C24.9005 195.391 27.2698 197.759 30.1853 197.759C33.1008 197.759 35.4701 195.391 35.4701 192.476C35.4701 189.562 33.1008 187.194 30.1853 187.194Z" fill="#231F20"/>
</g>
</g>
</g>
<defs>
<clipPath id="clip0_1_837">
<rect width="290" height="199" fill="white" transform="translate(0 0.5)"/>
</clipPath>
</defs>
</svg>
