<svg width="95" height="95" viewBox="0 0 95 95" fill="none" xmlns="http://www.w3.org/2000/svg">
<g clip-path="url(#clip0_1_978)">
<mask id="mask0_1_978" style="mask-type:luminance" maskUnits="userSpaceOnUse" x="0" y="0" width="95" height="95">
<path d="M94.5 0.5H0.5V94.5H94.5V0.5Z" fill="white"/>
</mask>
<g mask="url(#mask0_1_978)">
<path opacity="0.1" d="M47.5605 94.6133C73.5179 94.6133 94.5605 73.5707 94.5605 47.6133C94.5605 21.6559 73.5179 0.613281 47.5605 0.613281C21.6031 0.613281 0.560486 21.6559 0.560486 47.6133C0.560486 73.5707 21.6031 94.6133 47.5605 94.6133Z" fill="#D9D9D9"/>
<path d="M47.5601 6.33594C40.7332 6.33594 34.0117 8.01959 27.9909 11.2378C21.9701 14.4559 16.8359 19.1093 13.0431 24.7857C9.25031 30.462 6.91594 36.9862 6.24678 43.7802C5.57763 50.5742 6.59435 57.4284 9.20689 63.7356C11.8194 70.0429 15.9471 75.6084 21.2244 79.9394C26.5017 84.2703 32.7656 87.2329 39.4613 88.5648C46.157 89.8967 53.0779 89.5567 59.6108 87.5749C66.1437 85.5932 72.0871 82.0309 76.9144 77.2035L73.4283 73.7174C69.1743 77.9714 63.9367 81.1107 58.1797 82.8571C52.4226 84.6035 46.3237 84.9031 40.4231 83.7294C34.5226 82.5557 29.0026 79.945 24.352 76.1284C19.7015 72.3118 16.064 67.4071 13.7617 61.849C11.4594 56.2908 10.5635 50.2506 11.1531 44.2634C11.7428 38.2763 13.8 32.5269 17.1424 27.5247C20.4847 22.5225 25.0092 18.4217 30.315 15.5857C35.6207 12.7498 41.544 11.2661 47.5601 11.2661V6.33594Z" fill="#BDBBC4"/>
<path d="M68.4448 38.0439C68.446 39.5035 68.1582 40.9489 67.5978 42.2966C67.0375 43.6444 66.2158 44.8678 65.1801 45.8963L59.1414 51.9349C57.0609 54.0132 54.2404 55.1806 51.2997 55.1806C48.3589 55.1806 45.5385 54.0132 43.4579 51.9349C43.2866 51.7797 43.1485 51.5912 43.0522 51.381C42.9559 51.1707 42.9033 50.9431 42.8976 50.712C42.8919 50.4808 42.9332 50.2508 43.0191 50.0361C43.105 49.8214 43.2336 49.6264 43.3971 49.4629C43.5606 49.2994 43.7556 49.1708 43.9703 49.0849C44.185 48.9991 44.415 48.9577 44.6461 48.9634C44.8773 48.9691 45.1049 49.0217 45.3152 49.118C45.5254 49.2143 45.7139 49.3524 45.8691 49.5237C47.3124 50.9584 49.2647 51.7636 51.2997 51.7636C53.3346 51.7636 55.2869 50.9584 56.7302 49.5237L62.7689 43.4851C63.5073 42.7776 64.097 41.9299 64.5035 40.9915C64.91 40.0531 65.125 39.043 65.136 38.0205C65.1469 36.9979 64.9536 35.9834 64.5673 35.0366C64.1811 34.0897 63.6096 33.2295 62.8865 32.5064C62.1634 31.7833 61.3032 31.2118 60.3563 30.8255C59.4094 30.4393 58.395 30.2459 57.3724 30.2569C56.3498 30.2679 55.3398 30.4829 54.4014 30.8893C53.463 31.2958 52.6152 31.8856 51.9078 32.624L47.6829 36.8489C47.3581 37.1432 46.9327 37.3012 46.4947 37.2905C46.0566 37.2797 45.6395 37.1008 45.3296 36.791C45.0198 36.4811 44.8409 36.064 44.8301 35.626C44.8194 35.1879 44.9774 34.7625 45.2717 34.4377L49.4966 30.2128C51.0511 28.67 53.0266 27.6208 55.1753 27.1967C57.3239 26.7727 59.55 26.9927 61.574 27.8292C63.5981 28.6657 65.33 30.0815 66.5523 31.8987C67.7747 33.716 68.433 35.8538 68.4448 38.0439ZM47.6829 58.5711L43.4579 62.796C42.0074 64.1857 40.0702 64.9519 38.0615 64.9303C36.0528 64.9088 34.1324 64.1013 32.712 62.6809C31.2916 61.2604 30.4841 59.3401 30.4625 57.3314C30.441 55.3227 31.2072 53.3855 32.5969 51.9349L38.6355 45.8963C40.0788 44.4616 42.0311 43.6564 44.0661 43.6564C46.101 43.6564 48.0534 44.4616 49.4966 45.8963C49.8213 46.1905 50.2468 46.3486 50.6848 46.3378C51.1229 46.327 51.54 46.1482 51.8499 45.8383C52.1597 45.5285 52.3385 45.1113 52.3493 44.6733C52.3601 44.2352 52.202 43.8098 51.9078 43.4851C49.8273 41.4068 47.0068 40.2394 44.0661 40.2394C41.1253 40.2394 38.3049 41.4068 36.2243 43.4851L30.1857 49.5237C29.1001 50.5408 28.23 51.7657 27.6273 53.1257C27.0246 54.4857 26.7015 55.953 26.6773 57.4404C26.653 58.9278 26.9281 60.4048 27.4861 61.7838C28.0442 63.1627 28.8738 64.4153 29.9257 65.4672C30.9775 66.5191 32.2302 67.3487 33.6091 67.9067C34.988 68.4648 36.4651 68.7399 37.9525 68.7156C39.4399 68.6914 40.9072 68.3683 42.2672 67.7656C43.6272 67.1628 44.8521 66.2928 45.8691 65.2072L50.0941 60.9823C50.3883 60.6575 50.5464 60.2321 50.5356 59.7941C50.5248 59.356 50.346 58.9389 50.0361 58.629C49.7263 58.3192 49.3091 58.1403 48.8711 58.1295C48.433 58.1188 48.0076 58.2768 47.6829 58.5711Z" fill="#D9D9D9"/>
</g>
</g>
<defs>
<clipPath id="clip0_1_978">
<rect width="95" height="94" fill="white" transform="translate(0 0.5)"/>
</clipPath>
</defs>
</svg>
