<svg width="95" height="94" viewBox="0 0 95 94" fill="none" xmlns="http://www.w3.org/2000/svg">
<g clip-path="url(#clip0_11663_1046)">
<mask id="mask0_11663_1046" style="mask-type:luminance" maskUnits="userSpaceOnUse" x="0" y="0" width="95" height="94">
<path d="M94.5 0H0.5V94H94.5V0Z" fill="white"/>
</mask>
<g mask="url(#mask0_11663_1046)">
<path opacity="0.1" d="M47.5605 94.1133C73.5179 94.1133 94.5605 73.0707 94.5605 47.1133C94.5605 21.1559 73.5179 0.113281 47.5605 0.113281C21.6032 0.113281 0.560547 21.1559 0.560547 47.1133C0.560547 73.0707 21.6032 94.1133 47.5605 94.1133Z" fill="#D9D9D9"/>
<path d="M68.4448 37.5438C68.446 39.0034 68.1582 40.4488 67.5978 41.7966C67.0375 43.1443 66.2158 44.3678 65.1801 45.3962L59.1414 51.4349C57.0609 53.5132 54.2404 54.6806 51.2997 54.6806C48.3589 54.6806 45.5385 53.5132 43.4579 51.4349C43.2866 51.2796 43.1485 51.0912 43.0522 50.8809C42.9559 50.6707 42.9033 50.4431 42.8976 50.2119C42.8919 49.9807 42.9332 49.7508 43.0191 49.5361C43.105 49.3214 43.2336 49.1263 43.3971 48.9628C43.5606 48.7993 43.7556 48.6707 43.9703 48.5849C44.185 48.499 44.415 48.4577 44.6461 48.4634C44.8773 48.4691 45.1049 48.5217 45.3152 48.618C45.5254 48.7143 45.7139 48.8523 45.8691 49.0237C47.3124 50.4583 49.2647 51.2636 51.2997 51.2636C53.3346 51.2636 55.2869 50.4583 56.7302 49.0237L62.7689 42.985C63.5073 42.2776 64.097 41.4298 64.5035 40.4914C64.91 39.5531 65.125 38.543 65.136 37.5204C65.1469 36.4978 64.9536 35.4834 64.5673 34.5365C64.1811 33.5897 63.6096 32.7294 62.8865 32.0063C62.1634 31.2832 61.3032 30.7118 60.3563 30.3255C59.4094 29.9392 58.395 29.7459 57.3724 29.7569C56.3498 29.7678 55.3398 29.9828 54.4014 30.3893C53.463 30.7958 52.6152 31.3855 51.9078 32.124L47.6829 36.3489C47.3581 36.6431 46.9327 36.8012 46.4947 36.7904C46.0566 36.7796 45.6395 36.6008 45.3296 36.291C45.0198 35.9811 44.8409 35.564 44.8301 35.1259C44.8194 34.6879 44.9774 34.2624 45.2717 33.9377L49.4966 29.7128C51.0511 28.17 53.0266 27.1207 55.1753 26.6967C57.3239 26.2726 59.55 26.4927 61.574 27.3292C63.5981 28.1657 65.33 29.5814 66.5523 31.3987C67.7747 33.2159 68.433 35.3538 68.4448 37.5438ZM47.6829 58.071L43.4579 62.296C42.0074 63.6856 40.0702 64.4518 38.0615 64.4303C36.0528 64.4088 34.1324 63.6013 32.712 62.1808C31.2916 60.7604 30.4841 58.84 30.4625 56.8313C30.441 54.8227 31.2072 52.8855 32.5969 51.4349L38.6355 45.3962C40.0788 43.9616 42.0311 43.1564 44.0661 43.1564C46.101 43.1564 48.0534 43.9616 49.4966 45.3962C49.8213 45.6905 50.2468 45.8485 50.6848 45.8378C51.1229 45.827 51.54 45.6481 51.8499 45.3383C52.1597 45.0284 52.3385 44.6113 52.3493 44.1732C52.3601 43.7352 52.202 43.3098 51.9078 42.985C49.8273 40.9067 47.0068 39.7393 44.0661 39.7393C41.1253 39.7393 38.3049 40.9067 36.2243 42.985L30.1857 49.0237C29.1001 50.0407 28.23 51.2656 27.6273 52.6256C27.0246 53.9857 26.7015 55.453 26.6773 56.9403C26.653 58.4277 26.9281 59.9048 27.4861 61.2837C28.0442 62.6627 28.8738 63.9153 29.9257 64.9672C30.9775 66.019 32.2302 66.8487 33.6091 67.4067C34.988 67.9648 36.4651 68.2398 37.9525 68.2156C39.4399 68.1913 40.9072 67.8682 42.2672 67.2655C43.6272 66.6628 44.8521 65.7928 45.8691 64.7072L50.0941 60.4822C50.3883 60.1575 50.5464 59.7321 50.5356 59.294C50.5248 58.856 50.346 58.4388 50.0361 58.129C49.7263 57.8191 49.3091 57.6403 48.8711 57.6295C48.433 57.6187 48.0076 57.7768 47.6829 58.071Z" fill="#D9D9D9"/>
</g>
</g>
<defs>
<clipPath id="clip0_11663_1046">
<rect width="95" height="94" fill="white"/>
</clipPath>
</defs>
</svg>
