<svg xmlns="http://www.w3.org/2000/svg" viewBox="0 0 94 94">
  <path fill="white" d="M67.9,37.2c0,1.5-.3,2.9-.8,4.3-.6,1.3-1.4,2.6-2.4,3.6l-6,6c-2.1,2.1-4.9,3.2-7.8,3.2s-5.8-1.2-7.8-3.2c-.2-.2-.3-.3-.4-.6,0-.2-.1-.4-.2-.7,0-.2,0-.5.1-.7,0-.2.2-.4.4-.6.2-.2.4-.3.6-.4.2,0,.4-.1.7-.1.2,0,.5,0,.7.2.2,0,.4.2.6.4,1.4,1.4,3.4,2.2,5.4,2.2s4-.8,5.4-2.2l6-6c.7-.7,1.3-1.6,1.7-2.5s.6-1.9.6-3c0-1-.2-2-.6-3-.4-.9-1-1.8-1.7-2.5-.7-.7-1.6-1.3-2.5-1.7-.9-.4-2-.6-3-.6-1,0-2,.2-3,.6-.9.4-1.8,1-2.5,1.7l-4.2,4.2c-.3.3-.8.5-1.2.4-.4,0-.9-.2-1.2-.5-.3-.3-.5-.7-.5-1.2,0-.4.1-.9.4-1.2l4.2-4.2c1.6-1.5,3.5-2.6,5.7-3,2.1-.4,4.4-.2,6.4.6,2,.8,3.8,2.3,5,4.1,1.2,1.8,1.9,4,1.9,6.1h0ZM47.1,57.7l-4.2,4.2c-1.5,1.4-3.4,2.2-5.4,2.1-2,0-3.9-.8-5.3-2.2-1.4-1.4-2.2-3.3-2.2-5.3,0-2,.7-3.9,2.1-5.4l6-6c1.4-1.4,3.4-2.2,5.4-2.2s4,.8,5.4,2.2c.3.3.8.5,1.2.4.4,0,.9-.2,1.2-.5.3-.3.5-.7.5-1.2,0-.4-.1-.9-.4-1.2-2.1-2.1-4.9-3.2-7.8-3.2s-5.8,1.2-7.8,3.2l-6,6c-1.1,1-2,2.2-2.6,3.6-.6,1.4-.9,2.8-1,4.3,0,1.5.3,3,.8,4.3.6,1.4,1.4,2.6,2.4,3.7,1.1,1.1,2.3,1.9,3.7,2.4,1.4.6,2.9.8,4.3.8,1.5,0,3-.3,4.3-.9,1.4-.6,2.6-1.5,3.6-2.6l4.2-4.2c.3-.3.5-.8.4-1.2,0-.4-.2-.9-.5-1.2-.3-.3-.7-.5-1.2-.5-.4,0-.9.1-1.2.4h0Z"/>
</svg>
