<svg width="34" height="33" viewBox="0 0 34 33" fill="none" xmlns="http://www.w3.org/2000/svg">
<path d="M18.0933 6.5H15.8833L8.86328 22.75H12.1133L13.2995 19.5H20.677L21.8633 22.75H25.1133L18.0933 6.5ZM14.2258 17.0625L16.9883 9.75L19.7508 17.0625H14.2258ZM25.7633 29.9L28.3633 32.5H20.2383V24.375L23.4883 27.625C27.372 25.3662 29.9883 21.0438 29.9883 16.25C29.9883 9.08375 24.1545 3.25 16.9883 3.25C9.82203 3.25 3.98828 9.08375 3.98828 16.25C3.98828 21.0438 6.60453 25.2363 10.4883 27.495V31.135C4.75203 28.6163 0.738281 22.9125 0.738281 16.25C0.738281 7.3125 8.05078 0 16.9883 0C25.9258 0 33.2383 7.3125 33.2383 16.25C33.2383 21.9862 30.2645 27.0075 25.7633 29.9Z" fill="url(#paint0_linear_998_237)"/>
<defs>
<linearGradient id="paint0_linear_998_237" x1="39.2833" y1="-7.735" x2="-14.1142" y2="48.4575" gradientUnits="userSpaceOnUse">
<stop offset="0.163" stop-color="#6533E2"/>
<stop offset="0.334" stop-color="#7349DE"/>
<stop offset="0.715" stop-color="#1F97EF"/>
<stop offset="1" stop-color="#57A1D7"/>
</linearGradient>
</defs>
</svg>
