<svg width="44" height="44" viewBox="0 0 44 44" fill="none" xmlns="http://www.w3.org/2000/svg">
<path d="M41.1522 29.7668C38.1941 29.7668 35.3322 29.2952 32.6627 28.4464C32.2445 28.3074 31.7948 28.2868 31.3652 28.3869C30.9356 28.487 30.5435 28.7037 30.2337 29.0123L26.458 33.6571C19.652 30.4741 13.2789 24.4617 9.88795 17.5534L14.5776 13.6395C15.2269 12.9793 15.4193 12.0598 15.1548 11.2346C14.2649 8.61744 13.808 5.81167 13.808 2.9116C13.808 1.6384 12.7258 0.577393 11.4271 0.577393H3.10602C1.80735 0.577393 0.244141 1.14326 0.244141 2.9116C0.244141 24.8154 18.8343 43.0175 41.1522 43.0175C42.8597 43.0175 43.5331 41.5321 43.5331 40.2353V32.101C43.5331 30.8278 42.4508 29.7668 41.1522 29.7668Z" fill="url(#paint0_linear_2_2448)"/>
<path d="M43.5332 8.42431L35.6863 0.577393V5.06134C27.8394 6.18233 24.4765 11.7873 23.3555 17.3922C26.1579 13.4687 30.0814 11.6752 35.6863 11.6752V16.2712L43.5332 8.42431Z" fill="url(#paint1_linear_2_2448)"/>
<defs>
<linearGradient id="paint0_linear_2_2448" x1="55.8076" y1="21.4378" x2="-20.1822" y2="21.4378" gradientUnits="userSpaceOnUse">
<stop offset="0.163" stop-color="#6533E2"/>
<stop offset="0.334" stop-color="#7349DE"/>
<stop offset="0.715" stop-color="#1F97EF"/>
</linearGradient>
<linearGradient id="paint1_linear_2_2448" x1="47.2863" y1="-3.42453" x2="20.36" y2="30.5784" gradientUnits="userSpaceOnUse">
<stop offset="0.163" stop-color="#6533E2"/>
<stop offset="0.334" stop-color="#7349DE"/>
<stop offset="0.715" stop-color="#1F97EF"/>
<stop offset="1" stop-color="#57A1D7"/>
</linearGradient>
</defs>
</svg>
