<svg width="372" height="235" viewBox="0 0 372 235" fill="none" xmlns="http://www.w3.org/2000/svg">
<g clip-path="url(#clip0_355_11828)">
<mask id="mask0_355_11828" style="mask-type:luminance" maskUnits="userSpaceOnUse" x="0" y="-1" width="372" height="237">
<path d="M371.129 -0.337891H0.5V235.112H371.129V-0.337891Z" fill="white"/>
</mask>
<g mask="url(#mask0_355_11828)">
<path d="M258.775 111.081H84.9473V235.052H258.775V111.081Z" fill="#204A5F"/>
<path d="M275.7 67.2533H243.542V37.8524C243.542 31.921 248.342 27.1123 254.264 27.1123C257.224 27.1123 259.908 28.3161 261.845 30.2586C263.759 32.1753 264.961 34.8291 264.987 37.7535V37.8524L264.979 56.5133C264.979 56.604 264.979 56.7013 264.987 56.792V57.3574L265.019 57.3412C265.437 62.8871 270.058 67.2533 275.7 67.2533Z" fill="#FFE0E0"/>
<path d="M286.415 50.0264V56.5232C286.415 59.4881 285.222 62.176 283.274 64.1089C281.345 66.0579 278.661 67.2552 275.701 67.2552C270.057 67.2552 265.436 62.8888 265.021 57.3431L286.415 50.028V50.0264Z" fill="#F4EFFF"/>
<path d="M254.266 27.1123C254.036 27.1123 253.816 27.1204 253.594 27.1366C253.447 27.1447 253.308 27.1528 253.169 27.1691C253.014 27.1852 252.867 27.2014 252.711 27.2257C252.621 27.2338 252.532 27.25 252.441 27.2662C252.327 27.2824 252.211 27.3068 252.107 27.331C251.943 27.3634 251.788 27.3958 251.625 27.438C251.394 27.4947 251.166 27.5611 250.937 27.6421C250.822 27.6745 250.707 27.7166 250.602 27.7572C250.495 27.7895 250.381 27.8397 250.275 27.8803C250.12 27.937 249.973 28.0034 249.826 28.0763C249.695 28.133 249.564 28.1914 249.433 28.2642C249.4 28.2804 249.359 28.2967 249.318 28.321C249.203 28.3776 249.088 28.4441 248.975 28.5089C248.525 28.7633 248.091 29.05 247.69 29.3692C247.576 29.4599 247.453 29.5571 247.348 29.6479C247.217 29.7548 247.102 29.8601 246.979 29.9751C246.856 30.0902 246.741 30.2052 246.628 30.3186C246.309 30.6459 246.007 30.991 245.729 31.3587C245.605 31.5224 245.49 31.6779 245.377 31.8416C245.019 32.3908 244.706 32.9643 244.438 33.5702C244.373 33.7177 244.315 33.8732 244.25 34.0288C244.078 34.4954 243.931 34.9798 243.816 35.4707C243.784 35.6424 243.752 35.8061 243.718 35.9697C243.661 36.3051 243.611 36.6502 243.587 36.9937V187.644H100.24V43.8566C100.24 34.6072 107.723 27.1123 116.957 27.1123H254.267H254.266Z" fill="#FFF5F5"/>
<path d="M225.959 42.4648H117.184V48.1986H225.959V42.4648Z" fill="#FFC1C1"/>
<path d="M217.53 59.2578H117.184V64.9916H217.53V59.2578Z" fill="#FFC1C1"/>
<path d="M212.241 76.0508H117.184V81.7848H212.241V76.0508Z" fill="#FFC1C1"/>
<path d="M225.959 92.8447H117.184V98.5787H225.959V92.8447Z" fill="#FFC1C1"/>
<path d="M218.19 109.843H159.218V115.576H218.19V109.843Z" fill="#FFC1C1"/>
<path d="M171.086 142.041C170.435 142.041 169.835 141.819 169.424 141.253C168.92 140.553 168.956 139.595 168.979 138.961L169.534 124.144L170.351 124.175L169.796 138.992C169.77 139.682 169.774 140.339 170.088 140.773C170.783 141.734 172.454 140.903 172.782 140.726C174.429 139.841 175.611 138.176 176.755 136.565C178.027 134.775 179.341 132.925 181.33 132.055C182.508 131.538 183.377 132.297 184.074 132.9C184.471 133.244 184.844 133.568 185.239 133.686C186.279 133.995 187.314 133.725 188.41 133.437C189.377 133.183 190.381 132.918 191.412 133.079C192.354 133.223 193.115 133.599 193.851 133.963C194.937 134.501 195.878 134.966 197.236 134.636C199.109 134.184 200.85 133.116 202.532 132.083C203.021 131.783 203.506 131.485 203.997 131.198C205.888 130.098 208.732 128.709 211.559 129.359L211.377 130.158C208.826 129.574 206.178 130.876 204.407 131.907C203.922 132.19 203.441 132.486 202.958 132.781C201.22 133.847 199.424 134.95 197.426 135.431C195.777 135.828 194.611 135.255 193.487 134.697C192.807 134.362 192.104 134.014 191.287 133.889C190.423 133.758 189.545 133.988 188.615 134.229C187.458 134.532 186.267 134.845 185.005 134.472C184.44 134.304 183.979 133.905 183.536 133.519C182.806 132.886 182.326 132.514 181.653 132.805C179.872 133.585 178.68 135.263 177.418 137.04C176.22 138.727 174.982 140.471 173.165 141.447C172.52 141.793 171.771 142.043 171.082 142.043L171.086 142.041Z" fill="#204A5F"/>
<path opacity="0.3" d="M243.583 116.273V187.649H100.236V110.055L145.014 147.369C147.484 149.433 150.722 150.22 153.912 149.768C154.836 149.637 155.785 149.589 156.733 149.612L187.256 150.473C188.311 150.505 189.357 150.637 190.379 150.859C193.545 151.547 196.858 150.915 199.465 148.983L243.58 116.271L243.583 116.273Z" fill="#86A7FF"/>
<path d="M150.307 162.476L149.112 163.804L95.1654 223.719L84.9512 235.057V111.08L150.307 162.476Z" fill="#25536A"/>
<path d="M258.775 111.081L193.417 162.476L258.775 235.053V111.081Z" fill="#25536A"/>
<path d="M149.112 163.804L95.1654 223.719L84.9512 225.971V203.943C111.915 184.586 142.169 162.14 149.08 161.657L149.112 163.804Z" fill="#204A5F"/>
<path d="M194.614 163.804L248.56 223.719L258.775 225.971V203.943C231.811 184.586 201.557 162.14 194.646 161.657L194.614 163.804Z" fill="#204A5F"/>
<path d="M258.775 235.052H84.9473L84.9799 218.744L144.877 164.318C148.02 161.462 152.112 159.881 156.355 159.881H186.89C191.07 159.881 195.106 161.417 198.233 164.195L258.945 218.182L258.775 235.055V235.052Z" fill="#25536A"/>
<path opacity="0.4" d="M268.331 226.296C279.988 214.619 279.988 195.687 268.33 184.01C256.673 172.334 237.772 172.334 226.114 184.01C214.457 195.687 214.457 214.619 226.114 226.296C237.772 237.972 256.673 237.972 268.331 226.296Z" fill="#5B4DAD"/>
<path d="M277.327 226.296C288.984 214.619 288.984 195.688 277.327 184.012C265.669 172.335 246.768 172.335 235.11 184.012C223.453 195.688 223.453 214.619 235.11 226.296C246.768 237.973 265.669 237.973 277.327 226.296Z" fill="#26AB23"/>
<path d="M255.58 221.355C254.163 221.355 252.806 220.76 251.833 219.686L241.272 208.005C240.363 206.999 240.44 205.445 241.444 204.534C242.45 203.624 244.001 203.7 244.909 204.706L255.47 216.386C255.491 216.409 255.531 216.447 255.612 216.436C255.696 216.423 255.717 216.373 255.73 216.344L267.098 190.422C267.644 189.179 269.087 188.615 270.332 189.16C271.572 189.706 272.136 191.155 271.591 192.398L260.223 218.32C259.53 219.902 258.101 221.011 256.4 221.287C256.127 221.332 255.852 221.354 255.578 221.354L255.58 221.355Z" fill="white"/>
<path d="M49.0273 218.409L49.9817 234.93H75.3364L63.8859 225.509L63.205 218.409L58.7066 214.042L49.0273 218.409Z" fill="#204A5F"/>
<path d="M18.6301 211.039L14.541 225.784L35.3958 234.931L29.2621 221.005L30.7616 214.725L25.5823 207.897L18.6301 211.039Z" fill="#204A5F"/>
<path d="M26.6722 137.855C26.6722 137.855 24.2184 148.094 25.0368 170.623C25.0368 170.623 17.813 195.881 18.6298 211.036L30.7613 214.722C37.1166 200.577 42.3444 186.967 45.1233 174.523C46.5095 170.122 46.4836 165.397 45.0489 161.012L39.2128 143.179L26.6722 137.854V137.855Z" fill="#709EB3"/>
<path d="M65.1268 171.093L63.2052 218.41H49.0323C45.3363 203.001 43.9614 189.845 43.4794 181.029C43.0782 173.6 43.3079 169.258 43.3079 169.258C34.1964 158.485 28.7825 150.703 25.6332 144.944C20.9553 136.399 21.2416 132.287 21.7641 129.387C22.4677 125.529 24.97 120.532 26.6636 117.46C27.613 115.755 28.307 114.642 28.307 114.642L52.0248 122.294L49.1957 132.542L49.1472 132.713C48.7218 134.254 48.9353 135.908 49.7278 137.292L62.1683 158.992C64.2694 162.662 65.3015 166.856 65.1283 171.092L65.1268 171.093Z" fill="#709EB3"/>
<path d="M57.7515 218.718C57.7515 218.718 57.7385 218.718 57.7321 218.718C57.5622 218.709 57.4345 218.561 57.4458 218.393C57.4749 217.918 60.3994 170.87 56.9281 163.382C56.3183 162.066 55.2847 160.388 54.0878 158.443C49.0783 150.31 40.6914 136.696 42.4529 117.076C42.4674 116.907 42.613 116.78 42.7862 116.798C42.9544 116.812 43.0789 116.961 43.0643 117.131C41.3223 136.547 49.6412 150.051 54.6103 158.119C55.8186 160.08 56.8603 161.773 57.4862 163.121C61.0221 170.75 58.1817 216.486 58.0588 218.428C58.0491 218.592 57.9132 218.717 57.7531 218.717L57.7515 218.718Z" fill="white"/>
<path opacity="0.6" d="M52.0244 122.294L49.1952 132.542C38.285 128.044 30.4255 121.204 26.6631 117.46C27.6126 115.755 28.3065 114.642 28.3065 114.642L52.0244 122.294Z" fill="#709EB3"/>
<path d="M56.033 226.172L55.792 222.068L63.6079 221.927C63.8101 221.93 63.9169 222.058 63.9201 222.228C63.9233 222.398 63.789 222.537 63.6192 222.541L56.4423 222.67L56.6105 225.53L63.8732 225.203C64.0365 225.196 64.187 225.328 64.1935 225.496C64.2016 225.666 64.0705 225.808 63.9007 225.817L56.033 226.172Z" fill="white"/>
<path d="M29.2621 221.311C29.2315 221.311 29.1991 221.306 29.1683 221.297L22.4395 219.145L24.1184 215.223L30.0483 217.369C30.2084 217.428 30.2893 217.602 30.2327 217.763C30.1745 217.922 29.9998 218.008 29.8396 217.948L24.4549 215.999L23.2709 218.768L29.356 220.712C29.5177 220.764 29.6067 220.937 29.5549 221.097C29.5129 221.227 29.3932 221.311 29.2621 221.311Z" fill="white"/>
<path d="M60.4057 76.9602L59.9641 78.615L58.1978 85.3079L57.0041 89.797L46.3721 85.9719L51.4996 75.4621L54.0019 71.8408L60.4057 76.9602Z" fill="#F9B384"/>
<path d="M59.9645 78.6153L58.1982 85.3081C55.0651 81.9004 55.704 77.6475 55.704 77.6475L59.9645 78.6153Z" fill="#204A5F"/>
<path d="M68.3844 67.5422C68.3844 67.5422 67.7034 82.6967 60.0687 81.3992C52.434 80.1016 52.5715 67.0642 52.5715 67.0642L62.5225 63.8563L68.3844 67.5422Z" fill="#F9B384"/>
<path d="M57.7859 69.8287C57.7859 69.8287 62.1646 65.3068 68.384 67.541C68.384 67.541 71.1273 68.701 72.2013 66.449C72.2013 66.449 63.4101 54.7758 56.5081 60.4074C56.5081 60.4074 44.1372 63.1212 51.4986 75.4607L57.7859 69.8287Z" fill="#102048"/>
<path d="M58.3425 72.833C59.6235 72.6284 60.4721 71.2706 60.238 69.8003C60.0039 68.3299 58.7758 67.3038 57.4949 67.5084C56.2139 67.713 55.3653 69.0708 55.5994 70.5412C55.8334 72.0115 57.0616 73.0376 58.3425 72.833Z" fill="#F9B384"/>
<path d="M68.6356 75.4053C68.7559 74.661 68.2507 73.9591 67.5073 73.839C66.7639 73.7186 66.0637 74.2243 65.9435 74.9693C65.8232 75.7135 66.3284 76.4154 67.0718 76.5357C67.8152 76.656 68.5154 76.1502 68.6356 75.4053Z" fill="#F9B384"/>
<path opacity="0.4" d="M62.0101 76.1439C63.309 76.1439 64.362 75.0892 64.362 73.7882C64.362 72.4872 63.309 71.4325 62.0101 71.4325C60.7112 71.4325 59.6582 72.4872 59.6582 73.7882C59.6582 75.0892 60.7112 76.1439 62.0101 76.1439Z" fill="#EB5D60"/>
<path d="M106.141 98.2991C106.141 98.2991 107.548 100.232 104.677 102.167C104.677 102.167 106.96 103.732 99.0919 106.311C98.217 106.598 97.2187 106.893 96.0734 107.204L92.916 95.7188C92.916 95.7188 106.96 90.9667 107.31 92.4908C107.662 94.0142 104.8 96.0716 104.8 96.0716C104.8 96.0716 109.831 94.8357 106.141 98.2991Z" fill="#F9B384"/>
<path d="M92.9166 95.7185L76.288 97.8516C76.288 97.8516 52.3652 80.7849 47.4592 82.4234C42.5532 84.0611 25.9897 110.685 25.9897 110.685C25.9897 110.685 21.4914 112.119 21.6952 113.961C21.899 115.805 50.9337 130.892 54.819 127.068C57.2614 124.664 60.0662 105.496 60.0662 105.496L70.6464 109.904C73.7828 111.212 77.2491 111.507 80.5618 110.75L96.0754 107.205L92.9151 95.7147L92.9166 95.7185Z" fill="#25536A"/>
<g opacity="0.8">
<path d="M91.8648 105.979C91.2944 103.743 90.7358 101.56 90.23 99.4602C90.0889 98.8757 89.9596 98.2792 89.8304 97.6799C89.7205 97.1726 89.6068 96.6638 89.4873 96.1572L88.876 96.2345C88.9985 96.7581 89.1166 97.2847 89.2303 97.8098C89.361 98.4137 89.4902 99.0153 89.6343 99.605C90.1424 101.706 90.7002 103.89 91.2713 106.129C91.4459 106.811 91.6212 107.498 91.7957 108.185L92.3944 108.049C92.2176 107.357 92.0415 106.666 91.867 105.979H91.8648Z" fill="white"/>
<path d="M63.4 89.332C63.1477 89.3855 62.8953 89.442 62.6414 89.4954C58.0331 90.458 53.1044 91.2357 48.2826 90.4194C45.8385 90.0042 43.5902 89.1568 41.6734 87.9788C41.544 88.1377 41.4162 88.2952 41.2852 88.4601C43.2845 89.7012 45.6315 90.5925 48.1807 91.0248C53.1012 91.8596 58.0994 91.0723 62.766 90.0986C63.2285 90.0013 63.6912 89.8988 64.1538 89.7985C63.9031 89.6433 63.6524 89.4873 63.3984 89.3335L63.4 89.332Z" fill="white"/>
<path d="M57.03 118.84C55.6455 118.955 54.2139 119.073 52.8228 118.944C48.7386 118.563 45.1153 116.017 42.744 114.135C41.9046 113.468 41.0812 112.775 40.2579 112.082C38.1648 110.32 36.0006 108.499 33.5646 107.139C32.159 106.357 30.7323 105.801 29.3299 105.457C29.2086 105.644 29.0954 105.817 28.9805 105.997C30.3942 106.321 31.8403 106.883 33.2669 107.677C35.6512 109.007 37.7928 110.809 39.8649 112.554C40.6914 113.251 41.5195 113.947 42.3639 114.618C44.795 116.548 48.5186 119.159 52.7662 119.556C54.2107 119.689 55.6697 119.569 57.0802 119.453C57.2193 119.441 57.36 119.435 57.4991 119.423C57.5476 119.216 57.5946 119.007 57.6414 118.798C57.4376 118.814 57.2338 118.824 57.0284 118.84H57.03Z" fill="white"/>
</g>
<path d="M60.0682 105.498L55.7607 103.605C55.7607 103.605 56.8607 110.459 58.9376 111.439L60.0682 105.498Z" fill="#204A5F"/>
<path d="M99.091 106.311C98.2153 106.598 97.2178 106.893 96.0724 107.204L92.915 95.7189L99.0887 106.311H99.091Z" fill="#E28B6D"/>
<path d="M288.32 116.396L298.339 120.902L305.806 96.2855L296.026 93.7112C293.442 99.4979 290.806 106.904 288.32 116.396Z" fill="#E28B6D"/>
<path d="M296.026 93.7102L305.806 96.2853L314.152 73.3208C314.152 73.3208 304.065 71.955 296.028 93.7102H296.026Z" fill="#204A5F"/>
<path d="M284.163 107.862L276.938 127.797L303.927 138.175L309.38 117.42L284.163 107.862Z" fill="#204A5F"/>
<path d="M293.042 134.427C292.844 134.99 291.23 135.665 290.193 134.743C288.173 134.384 286.809 134.129 285.55 132.734C284.417 132.298 283.909 131.065 284.427 130.025C285.418 128.034 286.953 125.228 287.684 125.339C288.602 125.479 287.938 128.312 287.938 128.312C287.938 128.312 289.467 124.715 290.917 125.192C291.564 125.404 290.008 128.829 289.85 129.189C290.094 128.861 292.034 126.248 292.776 126.797C293.519 127.355 291.711 130.443 291.52 130.77C291.73 130.508 293.432 128.452 294.261 129.132C294.621 129.433 294.056 131.522 293.043 134.427H293.042Z" fill="#E28B6D"/>
<path d="M343.73 203.025C343.73 203.025 356.817 201.592 362.337 189.509L347.82 190.328L343.73 203.025Z" fill="#204A5F"/>
<path d="M358.18 189.646L345.64 197.428L351.28 205.728L363.374 197.476L358.18 189.646Z" fill="#E28B6D"/>
<path d="M371.13 209.17L363.374 197.477L351.279 205.728L353.34 208.761L352.114 224.94L371.13 209.17Z" fill="#204A5F"/>
<path d="M359.454 208.054L353.313 208.366L353.355 209.183L359.495 208.871L359.454 208.054Z" fill="white"/>
<path d="M322.467 211.765L308.698 210.945V222.11L323.51 221.168L322.467 211.765Z" fill="#E28B6D"/>
<path d="M308.698 222.11V224.735L298.339 235.112H325.055L323.509 221.169L308.698 222.11Z" fill="#204A5F"/>
<path d="M308.587 224.57L308.176 225.28L314.043 228.691L314.453 227.982L308.587 224.57Z" fill="white"/>
<path d="M321.771 140.482C321.559 145.561 321.517 150.919 321.608 156.317C321.69 161.002 321.861 165.722 322.105 170.333C323.283 193.246 326.007 213.538 326.007 213.538L304.743 216.274C294.659 145.823 301.202 116.055 301.202 116.055L310.469 114.162L318.698 112.482L327.922 110.598C327.807 110.769 327.692 110.949 327.588 111.139C326.18 113.441 325.069 116.505 324.21 120.142C322.861 125.803 322.109 132.831 321.773 140.483L321.771 140.482Z" fill="#709EB3"/>
<path d="M322.106 170.333C313.192 151.352 316.537 136.263 316.537 136.263L321.771 140.481C321.559 145.56 321.517 150.919 321.608 156.317C321.69 161.002 321.862 165.721 322.106 170.333Z" fill="#313131"/>
<path d="M362.337 189.508C352.114 193.4 343.731 203.026 343.731 203.026C334.906 187.404 327.373 171.716 321.608 156.315C316.807 143.503 313.232 130.887 311.164 118.682C310.91 117.167 310.674 115.659 310.468 114.16C310.444 114.02 310.42 113.873 310.403 113.734L318.697 112.48L327.587 111.137L332.077 110.456C332.559 113.324 333.206 116.321 333.982 119.409C341.719 150.244 362.337 189.507 362.337 189.507V189.508Z" fill="#709EB3"/>
<g opacity="0.8">
<path d="M344.347 150.233C344.218 149.909 344.086 149.586 343.959 149.26C342.283 148.186 340.68 147.007 339.3 145.587C335.446 141.626 333.495 135.759 334.213 130.275C334.435 128.585 334.911 126.928 335.6 125.358C335.512 125.06 335.428 124.762 335.342 124.464C334.466 126.275 333.863 128.215 333.603 130.194C332.863 135.862 334.878 141.924 338.86 146.015C340.481 147.679 342.382 149.017 344.347 150.231V150.233Z" fill="white"/>
<path d="M355.046 174.697C354.96 174.516 354.874 174.334 354.789 174.149C352.532 175.073 349.83 175.232 347.023 175.39C344.191 175.55 341.263 175.717 338.694 176.72C336.085 177.739 334.062 179.557 332.593 181.786C332.698 182.004 332.805 182.221 332.91 182.438C334.329 180.168 336.316 178.31 338.917 177.294C341.396 176.326 344.273 176.163 347.057 176.004C349.824 175.847 352.651 175.68 355.044 174.697H355.046Z" fill="white"/>
<path d="M306.055 172.364C312.856 175.823 318.367 181.622 323.237 187.061C323.21 186.725 323.182 186.388 323.155 186.049C318.381 180.747 312.979 175.196 306.331 171.816C304.209 170.737 302.025 169.945 299.845 169.438C299.858 169.651 299.871 169.865 299.884 170.081C301.956 170.578 304.033 171.337 306.053 172.364H306.055Z" fill="white"/>
<path d="M324.867 203.965C323.165 204.372 321.303 204.27 319.766 203.909C318.167 203.533 316.599 202.912 315.082 202.313C313.468 201.673 311.797 201.014 310.063 200.634C307.646 200.106 305.115 200.171 302.703 200.753C302.728 200.955 302.754 201.163 302.777 201.366C305.12 200.791 307.583 200.72 309.931 201.234C311.618 201.603 313.266 202.255 314.857 202.884C316.396 203.492 317.984 204.121 319.626 204.507C321.22 204.881 323.149 204.988 324.934 204.578C324.912 204.378 324.889 204.169 324.867 203.965Z" fill="white"/>
<path d="M304.213 146.292C304.436 150.582 302.494 154.803 299.297 157.593C299.305 157.852 299.315 158.12 299.324 158.382C302.883 155.478 305.067 150.905 304.824 146.26C304.609 142.13 302.485 138.261 299.317 135.684C299.307 135.938 299.297 136.197 299.287 136.456C302.126 138.919 304.012 142.489 304.212 146.291L304.213 146.292Z" fill="white"/>
</g>
<path opacity="0.4" d="M333.981 119.411C330.727 120.001 327.415 120.189 324.208 120.14C319.44 120.057 314.917 119.427 311.163 118.682C305.225 117.511 301.201 116.053 301.201 116.053L310.468 114.16C310.443 114.02 310.419 113.873 310.403 113.734L318.696 112.48L327.921 110.596C327.806 110.767 327.691 110.947 327.586 111.137L332.076 110.456C332.558 113.324 333.205 116.321 333.981 119.409V119.411Z" fill="#3683BC"/>
<path d="M321.608 156.724C321.439 156.724 321.282 156.62 321.222 156.453L315.315 139.812L308.215 135.518C308.022 135.402 307.959 135.149 308.077 134.956C308.195 134.764 308.447 134.702 308.638 134.819L315.988 139.263L321.994 156.177C322.071 156.391 321.958 156.626 321.747 156.701C321.701 156.717 321.655 156.724 321.609 156.724H321.608Z" fill="#474747"/>
<path d="M335.552 113.636C321.853 118.854 298.339 115.922 298.339 115.922C299.296 105.953 299.361 76.4613 314.697 72.7754L321.55 73.4964C325.142 74.906 327.946 80.2797 330.057 86.6599C331.325 90.4612 332.339 94.6236 333.14 98.5215C334.825 106.672 335.553 113.636 335.553 113.636H335.552Z" fill="#25536A"/>
<path d="M333.138 98.5227C326.686 94.7622 325.327 86.292 325.327 86.292L330.055 86.6619C331.323 90.4625 332.337 94.6248 333.138 98.5227Z" fill="#204A5F"/>
<path d="M321.546 73.4915L320.626 86.7007L334.702 94.2299L337.552 80.5441C325.176 73.2209 321.546 73.4915 321.546 73.4915Z" fill="#25536A"/>
<path d="M348.36 91.6483C348.026 92.1549 347.648 92.6317 347.223 93.0655C346.455 93.8691 345.546 94.5235 344.532 95.0144C343.035 95.7438 341.398 96.055 339.779 95.9562C338.422 95.8738 337.087 95.4972 335.854 94.8414L334.7 94.2271L337.555 80.5384C338.315 80.9974 339.11 81.472 339.951 81.9889C339.951 81.9889 351.09 66.2197 351.907 66.5307C352.643 66.8013 351.392 69.2429 351.139 69.7257C351.621 69.0128 355.236 63.7051 356.202 64.0729C356.971 64.3597 355.998 66.7187 355.875 67.0054C356.097 66.6863 358.035 63.8266 359.204 64.5152C359.745 64.8344 357.658 67.9305 357.454 68.2432C357.708 67.997 360.023 65.753 360.595 66.4254C361.184 67.1059 358.936 69.784 358.682 70.087C358.911 69.8828 360.889 68.1541 361.521 68.9885C362.347 70.0611 352.222 85.7487 348.36 91.6483Z" fill="#E28B6D"/>
<path opacity="0.4" d="M347.223 93.0662C346.455 93.8698 345.545 94.5249 344.531 95.0159C343.035 95.7445 341.398 96.0557 339.779 95.9569C339.706 95.6621 339.672 95.359 339.672 95.0478C339.672 92.8203 341.479 91.0088 343.705 91.0088C345.209 91.0088 346.526 91.8369 347.221 93.0647L347.223 93.0662Z" fill="#EB5D60"/>
<path d="M313.079 113.148C307.034 113.148 301.617 112.76 298.961 112.532C298.78 112.516 298.67 112.506 298.641 112.506C298.474 112.498 298.34 112.358 298.345 112.192C298.348 112.025 298.481 111.892 298.649 111.892C298.67 111.892 298.794 111.902 299.015 111.922C305.069 112.442 325.542 113.797 334.812 109.463C334.963 109.392 335.149 109.459 335.22 109.612C335.291 109.766 335.224 109.95 335.071 110.021C329.765 112.499 320.898 113.149 313.081 113.149L313.079 113.148Z" fill="#86A7FF"/>
<path d="M316.288 82.088C313.035 82.088 311.597 79.9363 311.576 79.9036C311.485 79.761 311.525 79.5716 311.666 79.481C311.809 79.3889 311.996 79.429 312.09 79.5716C312.197 79.7335 314.764 83.5118 321.229 80.0143C321.378 79.9363 321.563 79.9898 321.645 80.1383C321.726 80.2876 321.669 80.474 321.52 80.555C319.421 81.6906 317.685 82.0895 316.288 82.0895V82.088Z" fill="#86A7FF"/>
<path d="M327.054 47.8134C328.772 46.8461 331.09 46.7586 332.612 48.0111C333.406 48.664 333.915 49.6005 334.653 50.3182C336.233 51.8557 338.69 52.2413 340.204 53.8452C341.374 55.083 341.791 56.8895 341.675 58.5891C341.557 60.2886 340.961 61.9168 340.327 63.4981C339.423 65.7567 338.38 68.0508 336.573 69.6774C335.882 70.2996 335.073 70.818 334.169 71.0254C333.265 71.2344 332.254 71.0999 331.518 70.5345C330.741 69.9367 330.358 68.9354 330.292 67.9552C330.226 66.975 330.432 66.0013 330.64 65.0422C331.133 65.3468 331.8 65.3403 332.288 65.0276C332.777 64.7149 333.061 64.1105 332.992 63.5354C332.875 62.5584 331.913 61.9444 331.05 61.4714C329.622 60.6872 328.194 59.9031 326.764 59.1189C325.928 58.6604 325.074 58.1872 324.444 57.4695C323.393 56.2706 322.551 53.633 323.246 52.1198C324.017 50.4397 325.438 48.7223 327.051 47.8134H327.054Z" fill="#FBB81D"/>
<path d="M310.096 55.7759C310.096 55.7759 310.009 46.0695 322.043 48.6277C324.079 49.0603 325.86 50.1604 327.169 51.7821C329.128 54.2092 330.382 64.4129 324.783 67.2449C317.763 70.7947 310.096 55.7759 310.096 55.7759Z" fill="#FBC343"/>
<path d="M322.566 63.9678L322.287 73.7162C322.213 76.1904 320.259 78.1973 317.789 78.3288C317.707 78.337 317.626 78.337 317.544 78.337C314.779 78.337 312.579 75.9617 312.815 73.1687L312.832 73.0131L313.469 65.6073L314.279 65.4599L322.564 63.9693L322.566 63.9678Z" fill="#E28B6D"/>
<path d="M318.442 67.4501C318.442 67.4501 316.938 71.2025 312.831 73.0122L313.468 65.6064L314.279 65.459L318.442 67.4501Z" fill="#204A5F"/>
<path d="M310.096 55.7761C310.096 55.7761 307.029 68.5754 313.47 69.191C319.911 69.8051 322.569 63.9693 322.569 63.9693L323.387 56.6996L319.4 50.9658L313.061 52.9117L310.096 55.7793V55.7761Z" fill="#E28B6D"/>
<path d="M310.096 55.7763C310.096 55.7763 316.021 52.4469 318.172 56.9023C319.672 60.0081 321.956 61.7158 324.204 60.6919C326.452 59.668 324.613 52.2946 324.613 52.2946L316.229 50.1447L311.22 53.0123L310.096 55.7763Z" fill="#FBC343"/>
<path d="M324.492 62.1343C325.266 60.7929 324.995 59.1865 323.888 58.5463C322.781 57.9061 321.257 58.4744 320.484 59.8158C319.711 61.1572 319.981 62.7636 321.088 63.4038C322.195 64.044 323.719 63.4756 324.492 62.1343Z" fill="#E28B6D"/>
<path d="M321.854 62.0925C321.854 62.0925 321.844 62.0925 321.839 62.0925C321.728 62.0844 321.644 61.9872 321.65 61.8738C321.702 61.1464 322.161 59.7725 323.523 59.7725C323.637 59.7725 323.727 59.8648 323.727 59.9766C323.727 60.0884 323.634 60.1807 323.523 60.1807C322.2 60.1807 322.063 61.8317 322.056 61.9029C322.048 62.0099 321.959 62.0925 321.852 62.0925H321.854Z" fill="#204A5F"/>
<path d="M311.072 60.373C311.072 60.6614 310.84 60.8963 310.55 60.8963C310.261 60.8963 310.027 60.663 310.027 60.373C310.027 60.0829 310.261 59.8496 310.55 59.8496C310.84 59.8496 311.072 60.0829 311.072 60.373Z" fill="#204A5F"/>
<path d="M314.544 60.9139C314.864 60.9139 315.123 60.6543 315.123 60.3339C315.123 60.0136 314.864 59.7539 314.544 59.7539C314.224 59.7539 313.965 60.0136 313.965 60.3339C313.965 60.6543 314.224 60.9139 314.544 60.9139Z" fill="#204A5F"/>
<path d="M312.165 63.5613C311.712 63.5613 311.404 63.4187 311.251 63.1368C310.846 62.398 311.783 61.0128 311.975 60.7422C312.04 60.6499 312.168 60.6288 312.261 60.6937C312.353 60.7584 312.375 60.8864 312.31 60.9788C311.812 61.6787 311.411 62.5763 311.61 62.9376C311.695 63.0947 311.92 63.1628 312.268 63.1466C312.271 63.1466 312.276 63.1466 312.279 63.1466C312.388 63.1466 312.477 63.2308 312.483 63.3409C312.488 63.4544 312.403 63.5499 312.29 63.5565C312.247 63.558 312.206 63.5597 312.166 63.5597L312.165 63.5613Z" fill="#204A5F"/>
<path opacity="0.4" d="M318.142 64.3664C319.075 63.9795 319.517 62.9085 319.131 61.9744C318.745 61.0402 317.675 60.5967 316.743 60.9836C315.81 61.3705 315.368 62.4414 315.754 63.3756C316.14 64.3097 317.209 64.7534 318.142 64.3664Z" fill="#EB5D60"/>
<path d="M312.418 65.3339C311.866 65.3339 311.485 65.1411 311.456 65.1266C311.355 65.0747 311.317 64.9516 311.369 64.8511C311.42 64.7507 311.543 64.7102 311.644 64.762C311.69 64.7863 312.793 65.329 313.936 64.276C314.02 64.1998 314.147 64.2063 314.225 64.2889C314.301 64.3716 314.294 64.5012 314.212 64.5789C313.565 65.1751 312.921 65.3339 312.418 65.3339Z" fill="#204A5F"/>
<path d="M311.695 59.2193C311.31 59.1367 310.961 59.0265 310.637 59.0314C310.476 59.0201 310.326 59.0411 310.172 59.0833C310.01 59.1092 309.864 59.1967 309.673 59.2712L309.654 59.2793C309.589 59.3036 309.517 59.2728 309.492 59.208C309.48 59.1756 309.481 59.1416 309.494 59.1124C309.584 58.9066 309.738 58.7123 309.955 58.5923C310.167 58.4757 310.419 58.4141 310.658 58.4239C311.136 58.4676 311.558 58.6652 311.836 59.0265C311.878 59.0816 311.868 59.1594 311.813 59.2015C311.784 59.2242 311.747 59.2323 311.711 59.2242L311.694 59.221L311.695 59.2193Z" fill="#204A5F"/>
<path d="M313.211 59.0407C313.494 58.5499 314.012 58.2063 314.626 58.1416C314.931 58.1205 315.248 58.1885 315.505 58.3376C315.767 58.4818 315.966 58.6957 316.109 58.9338C316.145 58.9922 316.126 59.0683 316.068 59.1039C316.032 59.125 315.99 59.1266 315.954 59.112L315.941 59.1056C315.704 59.0019 315.502 58.8819 315.286 58.8285C315.081 58.7523 314.874 58.7329 314.667 58.7491C314.249 58.7572 313.822 58.9711 313.387 59.2027L313.373 59.2108C313.313 59.2433 313.24 59.2206 313.207 59.1606C313.187 59.1218 313.19 59.078 313.21 59.0424L313.211 59.0407Z" fill="#204A5F"/>
</g>
</g>
<defs>
<clipPath id="clip0_355_11828">
<rect width="371" height="235" fill="white" transform="translate(0.5)"/>
</clipPath>
</defs>
</svg>
