<svg width="410" height="229" viewBox="0 0 410 229" fill="none" xmlns="http://www.w3.org/2000/svg">
<g style="mix-blend-mode:soft-light" opacity="0.2" clip-path="url(#clip0_1055_10673)">
<path d="M195.662 40.1242L195.185 39.5563C195.315 39.4447 208.57 28.4354 227.725 22.85C245.422 17.6888 271.921 16.2286 297.653 38.5701L297.164 39.1307C271.694 17.0167 245.473 18.4548 227.957 23.5559C208.947 29.0914 195.793 40.0141 195.662 40.1242Z" fill="#DADADA"/>
<path d="M400.065 182.812C397.3 153.417 385.883 131.107 356.305 114.744C347.582 109.919 336.66 107.56 331.429 99.084C326.237 90.6693 328.165 79.9226 327.137 70.0917C324.497 44.8724 300.348 25.3721 275.082 22.7027C249.815 20.0332 224.681 31.4535 205.488 48.0702C191.088 60.5382 178.474 76.4534 160.33 82.2912C130.409 91.9196 97.8528 70.4425 67.148 77.1769C50.6259 80.8002 36.7652 92.3452 26.6425 105.873C9.70424 128.509 5.48253 157.129 10.663 184.903C13.4966 200.096 20.4298 215.495 30.3658 227.322L386.38 226.579C396.79 216.19 401.25 195.415 400.065 182.812Z" fill="#F6F5F5"/>
<path d="M144.988 69.5214C160.181 69.5214 172.497 57.2304 172.497 42.0686C172.497 26.9068 160.181 14.6157 144.988 14.6157C129.796 14.6157 117.48 26.9068 117.48 42.0686C117.48 57.2304 129.796 69.5214 144.988 69.5214Z" fill="#F6F5F5"/>
<path d="M198.9 25.6248C203.352 21.1816 203.352 13.9776 198.9 9.53437C194.448 5.09112 187.229 5.09111 182.777 9.53436C178.325 13.9776 178.325 21.1816 182.777 25.6248C187.229 30.0681 194.448 30.0681 198.9 25.6248Z" fill="#F6F5F5"/>
<path d="M373.377 105.02C377.829 100.577 377.829 93.3731 373.377 88.9299C368.924 84.4866 361.706 84.4866 357.254 88.9299C352.802 93.3731 352.802 100.577 357.254 105.02C361.706 109.464 368.924 109.464 373.377 105.02Z" fill="#F6F5F5"/>
<path d="M398.356 227.001L397.7 226.653C411.072 201.497 412.488 174.454 401.585 152.462C390.121 129.339 366.722 113.782 335.699 108.656L335.821 107.924C367.086 113.089 390.679 128.789 402.251 152.131C413.263 174.341 411.844 201.629 398.357 227L398.356 227.001Z" fill="#DADADA"/>
<path d="M32.4462 228.068C16.3373 210.756 5.70872 189.905 1.70758 167.772C-2.01712 147.162 0.390039 126.712 8.48496 110.19C20.9913 84.6635 45.1952 71.5116 74.8824 74.0974L74.8177 74.837C45.4481 72.2762 21.5162 85.2813 9.15255 110.515C1.12674 126.897 -1.25835 147.184 2.4384 167.64C6.41307 189.634 16.9784 210.355 32.9888 227.565L32.4447 228.069L32.4462 228.068Z" fill="#DADADA"/>
</g>
<g clip-path="url(#clip1_1055_10673)">
<path d="M274.697 107.187H108.272V225.878H274.697V107.187Z" fill="#102048"/>
<path d="M290.902 65.2255H260.113V37.0766C260.113 31.3978 264.71 26.7939 270.379 26.7939C273.213 26.7939 275.782 27.9465 277.638 29.8063C279.47 31.6413 280.62 34.1821 280.645 36.982V37.0766L280.637 54.9428C280.637 55.0297 280.637 55.1228 280.645 55.2096V55.751L280.676 55.7355C281.076 61.0451 285.5 65.2255 290.902 65.2255Z" fill="#CEBBFF"/>
<path d="M301.16 48.7314V54.9516C301.16 57.7902 300.017 60.3636 298.152 62.2141C296.305 64.0802 293.735 65.2265 290.901 65.2265C285.498 65.2265 281.074 61.0461 280.676 55.7365L301.16 48.733V48.7314Z" fill="#F4EFFF"/>
<path d="M270.379 26.7939C270.159 26.7939 269.949 26.8017 269.736 26.8172C269.596 26.825 269.462 26.8327 269.329 26.8482C269.181 26.8637 269.04 26.8793 268.891 26.9025C268.804 26.9103 268.719 26.9258 268.632 26.9413C268.522 26.9568 268.412 26.9801 268.312 27.0034C268.155 27.0344 268.007 27.0654 267.85 27.1057C267.63 27.16 267.412 27.2236 267.192 27.3012C267.082 27.3322 266.972 27.3725 266.872 27.4113C266.769 27.4423 266.659 27.4904 266.559 27.5292C266.41 27.5835 266.269 27.6471 266.128 27.7169C266.003 27.7712 265.877 27.827 265.752 27.8968C265.721 27.9123 265.681 27.9278 265.642 27.9511C265.532 28.0054 265.422 28.069 265.314 28.131C264.883 28.3746 264.468 28.6491 264.084 28.9547C263.974 29.0416 263.856 29.1346 263.756 29.2215C263.63 29.3239 263.52 29.4247 263.403 29.5348C263.285 29.645 263.175 29.7551 263.067 29.8637C262.761 30.177 262.472 30.5074 262.205 30.8595C262.088 31.0162 261.978 31.1651 261.869 31.3218C261.526 31.8476 261.227 32.3967 260.97 32.9769C260.908 33.118 260.852 33.2669 260.79 33.4158C260.626 33.8626 260.485 34.3264 260.375 34.7964C260.344 34.9608 260.313 35.1175 260.281 35.2741C260.226 35.5952 260.178 35.9256 260.155 36.2545V180.489H122.913V42.8252C122.913 33.9696 130.077 26.7939 138.918 26.7939H270.381H270.379Z" fill="#E8DFFF"/>
<path d="M243.279 41.4922H139.136V46.9817H243.279V41.4922Z" fill="#ADC3FF"/>
<path d="M235.209 57.5698H139.136V63.0594H235.209V57.5698Z" fill="#ADC3FF"/>
<path d="M230.145 73.6479H139.136V79.1375H230.145V73.6479Z" fill="#ADC3FF"/>
<path d="M243.279 89.7271H139.136V95.2166H243.279V89.7271Z" fill="#ADC3FF"/>
<path d="M235.84 106H179.38V111.49H235.84V106Z" fill="#ADC3FF"/>
<path d="M190.742 136.828C190.119 136.828 189.544 136.616 189.151 136.073C188.668 135.403 188.702 134.486 188.725 133.879L189.256 119.692L190.038 119.722L189.507 133.909C189.482 134.57 189.486 135.198 189.786 135.613C190.452 136.533 192.052 135.738 192.366 135.568C193.943 134.722 195.075 133.127 196.17 131.585C197.387 129.871 198.646 128.1 200.549 127.267C201.678 126.772 202.51 127.498 203.177 128.076C203.557 128.405 203.914 128.715 204.292 128.829C205.288 129.123 206.279 128.866 207.327 128.59C208.254 128.346 209.215 128.093 210.202 128.247C211.105 128.385 211.832 128.745 212.537 129.094C213.578 129.609 214.478 130.054 215.778 129.738C217.572 129.305 219.238 128.283 220.849 127.293C221.316 127.006 221.781 126.721 222.252 126.446C224.062 125.393 226.785 124.064 229.492 124.686L229.317 125.45C226.874 124.892 224.339 126.137 222.643 127.126C222.179 127.395 221.719 127.679 221.256 127.962C219.593 128.982 217.874 130.039 215.96 130.499C214.382 130.879 213.265 130.33 212.189 129.797C211.538 129.476 210.865 129.142 210.082 129.023C209.256 128.897 208.415 129.117 207.524 129.348C206.417 129.638 205.277 129.938 204.068 129.581C203.527 129.42 203.086 129.038 202.661 128.669C201.963 128.062 201.503 127.706 200.859 127.985C199.154 128.731 198.012 130.338 196.804 132.04C195.657 133.654 194.472 135.325 192.733 136.259C192.115 136.591 191.398 136.83 190.738 136.83L190.742 136.828Z" fill="#102048"/>
<path opacity="0.3" d="M260.152 112.157V180.493H122.91V106.204L165.781 141.928C168.146 143.905 171.246 144.658 174.3 144.226C175.184 144.1 176.094 144.053 177.001 144.077L206.224 144.9C207.234 144.931 208.236 145.057 209.214 145.27C212.245 145.929 215.417 145.324 217.913 143.473L260.149 112.155L260.152 112.157Z" fill="#86A7FF"/>
<path d="M170.849 156.392L169.705 157.662L118.056 215.026L108.276 225.881V107.185L170.849 156.392Z" fill="#614B98"/>
<path d="M274.697 107.186L212.123 156.392L274.697 225.878V107.186Z" fill="#614B98"/>
<path d="M169.705 157.662L118.056 215.026L108.276 217.182V196.092C134.092 177.559 163.058 156.069 169.674 155.607L169.705 157.662Z" fill="#7760B0"/>
<path d="M213.27 157.662L264.918 215.026L274.698 217.182V196.092C248.882 177.559 219.916 156.069 213.3 155.607L213.27 157.662Z" fill="#7760B0"/>
<path d="M274.698 225.877H108.273L108.304 210.263L165.651 158.155C168.66 155.421 172.578 153.907 176.64 153.907H205.875C209.877 153.907 213.74 155.377 216.734 158.037L274.861 209.725L274.698 225.879V225.877Z" fill="#614B98"/>
<path opacity="0.4" d="M283.844 217.493C295.006 206.314 295.006 188.188 283.844 177.009C272.683 165.829 254.587 165.829 243.426 177.009C232.265 188.188 232.265 206.314 243.426 217.493C254.587 228.672 272.683 228.672 283.844 217.493Z" fill="#5B4DAD"/>
<path d="M292.457 217.493C303.618 206.313 303.618 188.188 292.457 177.008C281.295 165.829 263.2 165.829 252.038 177.008C240.877 188.188 240.877 206.313 252.038 217.493C263.2 228.672 281.296 228.672 292.457 217.493Z" fill="#26AB23"/>
<path d="M271.636 212.761C270.279 212.761 268.98 212.192 268.049 211.163L257.938 199.979C257.068 199.016 257.14 197.529 258.102 196.657C259.065 195.785 260.55 195.858 261.419 196.821L271.53 208.004C271.55 208.025 271.589 208.063 271.667 208.052C271.747 208.039 271.767 207.991 271.78 207.963L282.663 183.145C283.185 181.955 284.568 181.415 285.759 181.936C286.947 182.459 287.487 183.847 286.966 185.037L276.082 209.856C275.417 211.37 274.05 212.432 272.421 212.696C272.159 212.739 271.896 212.759 271.634 212.759L271.636 212.761Z" fill="white"/>
<path d="M73.8809 209.945L74.7946 225.762H99.0695L88.1067 216.742L87.4547 209.945L83.1479 205.763L73.8809 209.945Z" fill="#102048"/>
<path d="M44.7802 202.888L40.8652 217.005L60.8318 225.763L54.9594 212.429L56.395 206.416L51.4362 199.88L44.7802 202.888Z" fill="#102048"/>
<path d="M52.4793 132.822C52.4793 132.822 50.13 142.625 50.9136 164.194C50.9136 164.194 43.9974 188.377 44.7794 202.886L56.3942 206.415C62.4788 192.872 67.484 179.842 70.1446 167.928C71.4718 163.715 71.447 159.19 70.0734 154.993L64.4859 137.919L52.4793 132.82V132.822Z" fill="#4E9AD2"/>
<path d="M89.2955 164.644L87.4557 209.945H73.8865C70.3478 195.192 69.0315 182.597 68.57 174.157C68.1859 167.043 68.4059 162.886 68.4059 162.886C59.6824 152.573 54.4991 145.122 51.4839 139.608C47.0052 131.427 47.2793 127.49 47.7795 124.714C48.4532 121.02 50.8489 116.235 52.4704 113.294C53.3794 111.662 54.0438 110.597 54.0438 110.597L76.7515 117.923L74.0429 127.734L73.9964 127.898C73.5891 129.373 73.7936 130.957 74.5524 132.282L86.463 153.058C88.4747 156.571 89.4627 160.587 89.297 164.642L89.2955 164.644Z" fill="#80C9FF"/>
<path d="M82.2353 210.24C82.2353 210.24 82.2229 210.24 82.2167 210.24C82.0541 210.23 81.9317 210.089 81.9426 209.928C81.9704 209.473 84.7704 164.429 81.447 157.26C80.8632 156 79.8736 154.393 78.7276 152.532C73.9314 144.745 65.9017 131.711 67.5882 112.926C67.6022 112.765 67.7415 112.642 67.9072 112.659C68.0683 112.673 68.1875 112.816 68.1736 112.979C66.5057 131.568 74.4704 144.497 79.2278 152.222C80.3846 154.099 81.382 155.719 81.9813 157.01C85.3666 164.314 82.6472 208.102 82.5295 209.962C82.5202 210.119 82.3901 210.238 82.2368 210.238L82.2353 210.24Z" fill="#4E9AD2"/>
<path opacity="0.6" d="M76.7508 117.923L74.0423 127.734C63.5967 123.428 56.0719 116.879 52.4697 113.294C53.3788 111.662 54.0431 110.597 54.0431 110.597L76.7508 117.923Z" fill="#4E9AD2"/>
<path d="M80.5882 217.378L80.3574 213.448L87.8404 213.313C88.034 213.317 88.1362 213.439 88.1393 213.602C88.1424 213.765 88.0139 213.898 87.8513 213.901L80.98 214.025L81.141 216.763L88.0944 216.45C88.2508 216.444 88.3949 216.569 88.4011 216.731C88.4088 216.894 88.2834 217.03 88.1208 217.038L80.5882 217.378Z" fill="white"/>
<path d="M54.9589 212.723C54.9295 212.723 54.8985 212.719 54.8691 212.709L48.4268 210.649L50.0342 206.894L55.7116 208.949C55.8649 209.005 55.9423 209.173 55.8881 209.326C55.8324 209.478 55.6651 209.56 55.5118 209.503L50.3564 207.637L49.2228 210.288L55.0487 212.149C55.2036 212.199 55.2888 212.365 55.2392 212.519C55.199 212.643 55.0844 212.723 54.9589 212.723Z" fill="white"/>
<path d="M84.7739 74.5203L84.3511 76.104L82.66 82.5119L81.5171 86.8102L71.3379 83.1479L76.2471 73.0855L78.6428 69.6187L84.7739 74.5203Z" fill="#F9B384"/>
<path d="M84.3521 76.1048L82.661 82.5126C79.6613 79.2505 80.273 75.1787 80.273 75.1787L84.3521 76.1048Z" fill="#102048"/>
<path d="M92.4121 65.5035C92.4121 65.5035 91.7601 80.013 84.4506 78.7706C77.141 77.5281 77.2726 65.0459 77.2726 65.0459L86.7998 61.9746L92.4121 65.5035Z" fill="#F9B384"/>
<path d="M82.2662 67.6921C82.2662 67.6921 86.4584 63.3628 92.4129 65.5019C92.4129 65.5019 95.0394 66.6125 96.0677 64.4564C96.0677 64.4564 87.6509 53.2803 81.0428 58.6721C81.0428 58.6721 69.1988 61.2703 76.2467 73.0839L82.2662 67.6921Z" fill="#102048"/>
<path d="M82.7978 70.5689C84.0242 70.373 84.8367 69.073 84.6125 67.6653C84.3884 66.2575 83.2126 65.2751 81.9862 65.471C80.7598 65.6669 79.9473 66.9669 80.1714 68.3746C80.3955 69.7823 81.5714 70.7647 82.7978 70.5689Z" fill="#F9B384"/>
<path d="M92.6532 73.0316C92.7683 72.3187 92.2847 71.6473 91.5729 71.5319C90.8612 71.4166 90.1908 71.901 90.0757 72.6139C89.9605 73.3269 90.4442 73.9983 91.1559 74.1136C91.8677 74.229 92.538 73.7445 92.6532 73.0316Z" fill="#F9B384"/>
<path opacity="0.4" d="M86.3103 73.7378C87.5539 73.7378 88.562 72.7281 88.562 71.4824C88.562 70.2368 87.5539 69.2271 86.3103 69.2271C85.0667 69.2271 84.0586 70.2368 84.0586 71.4824C84.0586 72.7281 85.0667 73.7378 86.3103 73.7378Z" fill="#EB5D60"/>
<path d="M128.563 94.9492C128.563 94.9492 129.91 96.7998 127.162 98.6519C127.162 98.6519 129.347 100.15 121.814 102.62C120.976 102.894 120.021 103.177 118.924 103.474L115.901 92.4782C115.901 92.4782 129.347 87.9287 129.683 89.3883C130.019 90.8464 127.279 92.8164 127.279 92.8164C127.279 92.8164 132.095 91.6329 128.563 94.9492Z" fill="#F9B384"/>
<path d="M115.902 92.4789L99.9816 94.5218C99.9816 94.5218 77.0772 78.1819 72.3802 79.7501C67.6832 81.3183 51.8251 106.809 51.8251 106.809C51.8251 106.809 47.5183 108.181 47.7135 109.945C47.9086 111.71 75.7067 126.155 79.4265 122.494C81.765 120.192 84.4503 101.84 84.4503 101.84L94.5799 106.061C97.5828 107.313 100.901 107.595 104.073 106.871L118.926 103.477L115.9 92.4758L115.902 92.4789Z" fill="#6837E2"/>
<g opacity="0.8">
<path d="M114.895 102.303C114.348 100.162 113.814 98.073 113.329 96.0627C113.195 95.5027 113.071 94.9319 112.947 94.358C112.842 93.8725 112.733 93.3854 112.619 92.8999L112.033 92.9744C112.151 93.4754 112.264 93.9795 112.372 94.4821C112.498 95.0607 112.622 95.6361 112.76 96.2008C113.246 98.2126 113.78 100.304 114.327 102.447C114.494 103.1 114.661 103.758 114.828 104.416L115.401 104.285C115.233 103.623 115.064 102.961 114.897 102.303H114.895Z" fill="white"/>
<path d="M87.6417 86.3646C87.4002 86.4157 87.1586 86.47 86.9154 86.5212C82.5034 87.4426 77.7847 88.1872 73.1682 87.4054C70.8282 87.0083 68.6756 86.197 66.8404 85.0693C66.7165 85.2213 66.5942 85.3718 66.4688 85.53C68.3829 86.7182 70.6299 87.5714 73.0706 87.9855C77.7816 88.7844 82.5669 88.0305 87.0347 87.0983C87.4776 87.0052 87.9205 86.9075 88.3634 86.8113C88.1234 86.6624 87.8833 86.5135 87.6402 86.3661L87.6417 86.3646Z" fill="white"/>
<path d="M81.5434 114.615C80.2178 114.725 78.8473 114.839 77.5154 114.715C73.6051 114.35 70.1362 111.913 67.8659 110.111C67.0621 109.472 66.2738 108.809 65.4856 108.145C63.4817 106.458 61.4096 104.714 59.0773 103.413C57.7316 102.664 56.3657 102.132 55.023 101.803C54.9068 101.981 54.7984 102.147 54.6885 102.319C56.042 102.63 57.4265 103.168 58.7924 103.928C61.0751 105.201 63.1255 106.926 65.1093 108.597C65.9006 109.264 66.6935 109.931 67.5019 110.573C69.8295 112.42 73.3945 114.921 77.4612 115.301C78.8442 115.428 80.241 115.313 81.5914 115.202C81.7246 115.191 81.8594 115.185 81.9925 115.174C82.039 114.975 82.0839 114.775 82.1288 114.575C81.9337 114.59 81.7386 114.6 81.5419 114.615H81.5434Z" fill="white"/>
</g>
<path d="M84.4512 101.842L80.3271 100.03C80.3271 100.03 81.3802 106.592 83.3687 107.53L84.4512 101.842Z" fill="#4C17D1"/>
<path d="M121.812 102.62C120.974 102.895 120.019 103.177 118.922 103.475L115.899 92.479L121.811 102.62H121.812Z" fill="#E28B6D"/>
<path d="M302.983 112.273L312.576 116.586L319.724 93.018L310.361 90.5532C307.886 96.094 305.364 103.184 302.983 112.273Z" fill="#E28B6D"/>
<path d="M310.361 90.5532L319.724 93.018L327.715 71.0319C327.715 71.0319 318.058 69.7243 310.363 90.5532H310.361Z" fill="#102048"/>
<path d="M299.004 104.104L292.086 123.189L317.927 133.125L323.147 113.254L299.004 104.104Z" fill="#102048"/>
<path d="M307.504 129.536C307.315 130.075 305.769 130.721 304.777 129.838C302.842 129.495 301.537 129.25 300.331 127.915C299.247 127.497 298.76 126.317 299.256 125.321C300.205 123.415 301.675 120.728 302.375 120.835C303.253 120.969 302.618 123.681 302.618 123.681C302.618 123.681 304.081 120.238 305.469 120.694C306.088 120.897 304.599 124.176 304.448 124.521C304.682 124.207 306.539 121.705 307.25 122.231C307.961 122.765 306.229 125.721 306.047 126.035C306.248 125.783 307.877 123.815 308.672 124.466C309.015 124.755 308.475 126.754 307.505 129.536H307.504Z" fill="#E28B6D"/>
<path d="M356.033 195.214C356.033 195.214 368.562 193.841 373.847 182.273L359.948 183.058L356.033 195.214Z" fill="#102048"/>
<path d="M369.869 182.405L357.862 189.855L363.262 197.802L374.842 189.902L369.869 182.405Z" fill="#E28B6D"/>
<path d="M382.268 201.097L374.842 189.902L363.263 197.802L365.236 200.706L364.062 216.196L382.268 201.097Z" fill="#102048"/>
<path d="M371.089 200.028L365.21 200.327L365.25 201.109L371.128 200.81L371.089 200.028Z" fill="white"/>
<path d="M335.675 203.581L322.493 202.796V213.485L336.674 212.584L335.675 203.581Z" fill="#E28B6D"/>
<path d="M322.494 213.485V215.998L312.576 225.933H338.155L336.675 212.583L322.494 213.485Z" fill="#102048"/>
<path d="M322.387 215.841L321.993 216.52L327.61 219.786L328.003 219.107L322.387 215.841Z" fill="white"/>
<path d="M335.009 135.333C334.806 140.196 334.766 145.325 334.853 150.494C334.932 154.98 335.096 159.498 335.33 163.913C336.457 185.849 339.065 205.278 339.065 205.278L318.707 207.898C309.052 140.447 315.317 111.946 315.317 111.946L324.189 110.134L332.067 108.526L340.899 106.722C340.789 106.886 340.679 107.058 340.578 107.24C339.231 109.444 338.167 112.377 337.344 115.86C336.053 121.279 335.333 128.008 335.011 135.334L335.009 135.333Z" fill="#80C9FF"/>
<path d="M335.33 163.913C326.795 145.741 329.998 131.294 329.998 131.294L335.009 135.333C334.806 140.196 334.766 145.326 334.853 150.494C334.932 154.98 335.096 159.499 335.33 163.913Z" fill="#3683BC"/>
<path d="M373.848 182.273C364.061 185.999 356.034 195.214 356.034 195.214C347.585 180.258 340.373 165.238 334.853 150.492C330.257 138.226 326.835 126.147 324.854 114.462C324.611 113.012 324.385 111.568 324.188 110.133C324.165 109.999 324.141 109.858 324.126 109.725L332.066 108.524L340.577 107.238L344.876 106.587C345.338 109.332 345.957 112.202 346.7 115.159C354.108 144.68 373.848 182.271 373.848 182.271V182.273Z" fill="#80C9FF"/>
<g opacity="0.8">
<path d="M356.624 144.669C356.5 144.359 356.375 144.05 356.253 143.738C354.648 142.71 353.114 141.58 351.793 140.222C348.102 136.429 346.234 130.812 346.922 125.562C347.134 123.944 347.59 122.357 348.249 120.854C348.166 120.568 348.085 120.283 348.003 119.998C347.164 121.732 346.586 123.588 346.338 125.484C345.629 130.91 347.559 136.714 351.371 140.631C352.923 142.224 354.743 143.505 356.624 144.667V144.669Z" fill="white"/>
<path d="M366.867 168.091C366.785 167.917 366.703 167.744 366.621 167.567C364.46 168.451 361.872 168.603 359.186 168.755C356.474 168.909 353.671 169.068 351.212 170.029C348.714 171.004 346.776 172.745 345.37 174.879C345.471 175.087 345.573 175.295 345.674 175.503C347.032 173.329 348.935 171.55 351.425 170.578C353.798 169.652 356.553 169.495 359.218 169.343C361.868 169.193 364.573 169.033 366.865 168.091H366.867Z" fill="white"/>
<path d="M319.963 165.857C326.475 169.169 331.751 174.72 336.414 179.928C336.388 179.607 336.361 179.284 336.335 178.96C331.763 173.883 326.593 168.568 320.228 165.333C318.196 164.3 316.105 163.541 314.018 163.056C314.03 163.26 314.042 163.465 314.055 163.671C316.039 164.148 318.027 164.874 319.961 165.857H319.963Z" fill="white"/>
<path d="M337.973 196.113C336.344 196.503 334.562 196.405 333.091 196.059C331.559 195.699 330.058 195.105 328.606 194.531C327.06 193.918 325.46 193.287 323.8 192.924C321.487 192.418 319.063 192.481 316.754 193.037C316.777 193.231 316.802 193.43 316.825 193.625C319.068 193.075 321.426 193.006 323.675 193.498C325.288 193.852 326.867 194.475 328.39 195.079C329.863 195.66 331.384 196.262 332.956 196.631C334.483 196.99 336.329 197.092 338.038 196.7C338.017 196.509 337.995 196.309 337.973 196.113Z" fill="white"/>
<path d="M318.199 140.896C318.413 145.004 316.553 149.044 313.493 151.716C313.5 151.964 313.51 152.22 313.519 152.471C316.926 149.691 319.017 145.312 318.784 140.865C318.578 136.911 316.545 133.207 313.511 130.739C313.502 130.983 313.493 131.231 313.483 131.479C316.201 133.837 318.007 137.256 318.197 140.895L318.199 140.896Z" fill="white"/>
</g>
<path opacity="0.4" d="M346.7 115.16C343.584 115.725 340.413 115.905 337.343 115.858C332.778 115.779 328.448 115.176 324.853 114.462C319.168 113.341 315.315 111.945 315.315 111.945L324.188 110.133C324.164 109.999 324.141 109.858 324.126 109.725L332.066 108.524L340.897 106.72C340.787 106.885 340.677 107.057 340.577 107.238L344.876 106.587C345.337 109.332 345.957 112.202 346.7 115.159V115.16Z" fill="#3683BC"/>
<path d="M334.853 150.885C334.692 150.885 334.542 150.784 334.485 150.624L328.829 134.692L322.031 130.582C321.846 130.47 321.786 130.228 321.899 130.043C322.012 129.859 322.254 129.8 322.436 129.911L329.473 134.166L335.223 150.36C335.296 150.565 335.189 150.79 334.986 150.861C334.943 150.877 334.898 150.885 334.855 150.885H334.853Z" fill="#3683BC"/>
<path d="M348.204 109.63C335.089 114.626 312.576 111.819 312.576 111.819C313.493 102.274 313.555 74.0387 328.238 70.5098L334.799 71.2C338.237 72.5495 340.922 77.6947 342.943 83.8032C344.158 87.4422 345.129 91.4271 345.895 95.1592C347.509 102.963 348.206 109.63 348.206 109.63H348.204Z" fill="#1F3C88"/>
<path d="M345.893 95.1609C339.716 91.5606 338.415 83.4512 338.415 83.4512L342.942 83.8048C344.156 87.4439 345.127 91.4288 345.893 95.1609Z" fill="#102048"/>
<path d="M334.795 71.1946L333.914 83.8412L347.39 91.0494L350.119 77.9468C338.27 70.9355 334.795 71.1946 334.795 71.1946Z" fill="#1F3C88"/>
<path d="M360.467 88.5784C360.146 89.0639 359.786 89.5199 359.378 89.9356C358.643 90.705 357.772 91.3317 356.801 91.8017C355.369 92.4997 353.802 92.7975 352.251 92.7029C350.952 92.6238 349.674 92.2639 348.493 91.6357L347.389 91.0478L350.122 77.9421C350.85 78.381 351.61 78.8355 352.416 79.3303C352.416 79.3303 363.081 64.2329 363.863 64.5307C364.568 64.7898 363.369 67.1274 363.127 67.5896C363.589 66.9071 367.05 61.8255 367.975 62.1776C368.71 62.4522 367.78 64.7107 367.662 64.9852C367.874 64.6796 369.729 61.9418 370.849 62.6011C371.366 62.9067 369.368 65.8709 369.173 66.1703C369.417 65.9345 371.633 63.7862 372.181 64.4299C372.745 65.0814 370.592 67.6455 370.349 67.9355C370.569 67.7401 372.463 66.085 373.067 66.8838C373.858 67.9107 364.164 82.9306 360.467 88.5784Z" fill="#E28B6D"/>
<path opacity="0.4" d="M359.377 89.9363C358.642 90.7057 357.772 91.3323 356.801 91.8023C355.368 92.5003 353.801 92.7982 352.251 92.7035C352.181 92.4212 352.148 92.1312 352.148 91.8333C352.148 89.7005 353.878 87.9663 356.009 87.9663C357.449 87.9663 358.71 88.759 359.376 89.9347L359.377 89.9363Z" fill="#EB5D60"/>
<path d="M326.688 109.163C320.9 109.163 315.714 108.792 313.171 108.574C312.998 108.558 312.892 108.549 312.865 108.549C312.705 108.541 312.577 108.408 312.581 108.248C312.584 108.088 312.711 107.961 312.872 107.961C312.892 107.961 313.012 107.97 313.222 107.989C319.019 108.487 338.62 109.785 347.495 105.636C347.639 105.568 347.817 105.631 347.886 105.779C347.954 105.926 347.89 106.101 347.743 106.169C342.663 108.543 334.174 109.165 326.689 109.165L326.688 109.163Z" fill="#86A7FF"/>
<path d="M329.76 79.4265C326.645 79.4265 325.269 77.3666 325.248 77.3356C325.162 77.1991 325.2 77.0176 325.335 76.9307C325.471 76.8423 325.651 76.8811 325.741 77.0176C325.843 77.1727 328.301 80.79 334.491 77.441C334.633 77.3666 334.81 77.4178 334.889 77.5605C334.966 77.7032 334.912 77.8816 334.769 77.9591C332.759 79.0465 331.098 79.4281 329.76 79.4281V79.4265Z" fill="#86A7FF"/>
<path d="M340.068 46.612C341.713 45.6859 343.932 45.6022 345.39 46.8012C346.15 47.4263 346.638 48.3229 347.344 49.01C348.857 50.4821 351.209 50.8513 352.659 52.3869C353.779 53.572 354.178 55.3015 354.067 56.9287C353.954 58.5559 353.384 60.1148 352.777 61.6287C351.911 63.791 350.912 65.9875 349.182 67.5449C348.521 68.1405 347.747 68.6369 346.881 68.8354C346.015 69.0355 345.047 68.9068 344.343 68.3654C343.599 67.793 343.232 66.8344 343.169 65.896C343.105 64.9575 343.304 64.0253 343.502 63.107C343.974 63.3986 344.612 63.3924 345.08 63.093C345.547 62.7937 345.82 62.2151 345.753 61.6644C345.642 60.7291 344.721 60.1412 343.895 59.6882C342.528 58.9375 341.16 58.1867 339.791 57.4359C338.991 56.997 338.173 56.544 337.57 55.8569C336.564 54.709 335.757 52.1837 336.423 50.7349C337.162 49.1264 338.521 47.4822 340.065 46.612H340.068Z" fill="#FBB81D"/>
<path d="M323.832 54.2363C323.832 54.2363 323.748 44.9433 335.27 47.3926C337.22 47.8068 338.925 48.86 340.178 50.4127C342.053 52.7364 343.254 62.5056 337.894 65.217C331.173 68.6156 323.832 54.2363 323.832 54.2363Z" fill="#FBC343"/>
<path d="M335.771 62.0786L335.504 71.4119C335.433 73.7806 333.562 75.7024 331.198 75.8281C331.119 75.8358 331.041 75.8358 330.962 75.8358C328.316 75.8358 326.209 73.5618 326.436 70.8876L326.451 70.7387L327.061 63.6484L327.837 63.5072L335.769 62.0802L335.771 62.0786Z" fill="#E28B6D"/>
<path d="M331.823 65.4113C331.823 65.4113 330.383 69.0037 326.451 70.7364L327.061 63.646L327.837 63.5049L331.823 65.4113Z" fill="#102048"/>
<path d="M323.832 54.2353C323.832 54.2353 320.896 66.4894 327.063 67.0789C333.23 67.6668 335.774 62.0795 335.774 62.0795L336.558 55.1194L332.74 49.6299L326.671 51.4928L323.832 54.2384V54.2353Z" fill="#E28B6D"/>
<path d="M323.832 54.2356C323.832 54.2356 329.505 51.0479 331.564 55.3136C333 58.2872 335.187 59.9221 337.339 58.9418C339.492 57.9615 337.731 50.9021 337.731 50.9021L329.704 48.8438L324.908 51.5893L323.832 54.2356Z" fill="#FBC343"/>
<path d="M337.616 60.3231C338.357 59.0388 338.097 57.5009 337.037 56.8879C335.977 56.275 334.518 56.8191 333.778 58.1034C333.038 59.3876 333.297 60.9256 334.357 61.5386C335.417 62.1515 336.876 61.6073 337.616 60.3231Z" fill="#E28B6D"/>
<path d="M335.09 60.2818C335.09 60.2818 335.081 60.2818 335.076 60.2818C334.969 60.274 334.889 60.181 334.895 60.0724C334.944 59.3759 335.384 58.0605 336.688 58.0605C336.797 58.0605 336.883 58.149 336.883 58.256C336.883 58.363 336.795 58.4514 336.688 58.4514C335.421 58.4514 335.29 60.0321 335.284 60.1003C335.276 60.2027 335.191 60.2818 335.088 60.2818H335.09Z" fill="#102048"/>
<path d="M324.767 58.6363C324.767 58.9124 324.544 59.1373 324.267 59.1373C323.99 59.1373 323.767 58.9139 323.767 58.6363C323.767 58.3586 323.99 58.1353 324.267 58.1353C324.544 58.1353 324.767 58.3586 324.767 58.6363Z" fill="#102048"/>
<path d="M328.091 59.1546C328.397 59.1546 328.645 58.906 328.645 58.5993C328.645 58.2926 328.397 58.0439 328.091 58.0439C327.784 58.0439 327.536 58.2926 327.536 58.5993C327.536 58.906 327.784 59.1546 328.091 59.1546Z" fill="#102048"/>
<path d="M325.813 61.6892C325.379 61.6892 325.085 61.5527 324.938 61.2828C324.551 60.5754 325.447 59.2492 325.632 58.9902C325.694 58.9017 325.816 58.8816 325.906 58.9436C325.994 59.0057 326.014 59.1282 325.952 59.2166C325.475 59.8867 325.091 60.7461 325.282 61.092C325.364 61.2424 325.579 61.3076 325.912 61.2921C325.915 61.2921 325.92 61.2921 325.923 61.2921C326.026 61.2921 326.112 61.3727 326.118 61.4782C326.123 61.5868 326.04 61.6783 325.934 61.6845C325.892 61.6861 325.853 61.6876 325.814 61.6876L325.813 61.6892Z" fill="#102048"/>
<path opacity="0.4" d="M331.536 62.4601C332.429 62.0896 332.853 61.0643 332.483 60.1699C332.113 59.2756 331.09 58.8509 330.197 59.2213C329.304 59.5918 328.88 60.6171 329.25 61.5115C329.62 62.4058 330.643 62.8305 331.536 62.4601Z" fill="#EB5D60"/>
<path d="M326.056 63.3852C325.528 63.3852 325.163 63.2006 325.135 63.1867C325.039 63.137 325.002 63.0191 325.051 62.923C325.101 62.8268 325.218 62.788 325.314 62.8376C325.359 62.8609 326.416 63.3806 327.509 62.3723C327.589 62.2994 327.712 62.3056 327.786 62.3847C327.859 62.4638 327.853 62.5879 327.774 62.6624C327.154 63.2332 326.538 63.3852 326.056 63.3852Z" fill="#102048"/>
<path d="M325.364 57.5311C324.995 57.452 324.661 57.3465 324.351 57.3512C324.196 57.3403 324.052 57.3605 323.905 57.4008C323.75 57.4257 323.611 57.5094 323.428 57.5808L323.41 57.5885C323.348 57.6118 323.278 57.5823 323.255 57.5203C323.242 57.4892 323.244 57.4567 323.256 57.4288C323.343 57.2318 323.49 57.0456 323.698 56.9308C323.9 56.8191 324.142 56.7602 324.371 56.7695C324.828 56.8114 325.232 57.0006 325.499 57.3465C325.539 57.3993 325.53 57.4737 325.477 57.5141C325.449 57.5358 325.413 57.5435 325.379 57.5358L325.362 57.5327L325.364 57.5311Z" fill="#102048"/>
<path d="M326.815 57.3611C327.086 56.8911 327.581 56.5622 328.17 56.5002C328.461 56.48 328.764 56.5452 329.011 56.6879C329.262 56.8259 329.452 57.0307 329.59 57.2587C329.624 57.3145 329.605 57.3874 329.55 57.4216C329.516 57.4417 329.475 57.4433 329.441 57.4293L329.429 57.4231C329.201 57.3238 329.008 57.209 328.802 57.1579C328.605 57.085 328.407 57.0663 328.209 57.0819C327.809 57.0896 327.4 57.2944 326.984 57.5162L326.97 57.5239C326.912 57.555 326.843 57.5332 326.812 57.4758C326.792 57.4386 326.795 57.3967 326.813 57.3626L326.815 57.3611Z" fill="#102048"/>
</g>
<defs>
<clipPath id="clip0_1055_10673">
<rect width="409.6" height="221.867" fill="white" transform="translate(0 6.20068)"/>
</clipPath>
<clipPath id="clip1_1055_10673">
<rect width="354.844" height="225.422" fill="white" transform="translate(27.4209 0.511719)"/>
</clipPath>
</defs>
</svg>
