<svg width="32" height="32" viewBox="0 0 32 32" fill="none" xmlns="http://www.w3.org/2000/svg">
<path d="M31.054 30.0853L28.9929 18.2008H29.689C30.249 18.2008 30.7001 17.7497 30.7001 17.1897V9.72305C30.7001 9.16305 30.249 8.71194 29.689 8.71194H20.1223V1.63416C20.1223 1.07416 19.6712 0.623047 19.1112 0.623047H12.889C12.329 0.623047 11.8779 1.07416 11.8779 1.63416V8.71194H2.31122C1.75122 8.71194 1.30011 9.16305 1.30011 9.72305V17.1897C1.30011 17.7497 1.75122 18.2008 2.31122 18.2008H3.00733L0.94622 30.0853C0.934553 30.1436 0.930664 30.2019 0.930664 30.2564C0.930664 30.8164 1.38178 31.2675 1.94178 31.2675H30.0584C30.1168 31.2675 30.1751 31.2636 30.2296 31.2519C30.7818 31.1586 31.1512 30.6336 31.054 30.0853ZM4.02233 11.4342H14.6001V3.34527H17.4001V11.4342H27.9779V15.4786H4.02233V11.4342ZM22.2223 28.5453V22.4786C22.2223 22.3075 22.0823 22.1675 21.9112 22.1675H20.0446C19.8734 22.1675 19.7334 22.3075 19.7334 22.4786V28.5453H12.2668V22.4786C12.2668 22.3075 12.1268 22.1675 11.9557 22.1675H10.089C9.91789 22.1675 9.77789 22.3075 9.77789 22.4786V28.5453H3.97566L5.72955 18.4342H26.2668L28.0207 28.5453H22.2223Z" fill="url(#paint0_linear_1055_9162)"/>
<defs>
<linearGradient id="paint0_linear_1055_9162" x1="39.6154" y1="15.6856" x2="-13.2907" y2="15.6856" gradientUnits="userSpaceOnUse">
<stop offset="0.163" stop-color="#6533E2"/>
<stop offset="0.334" stop-color="#7349DE"/>
<stop offset="0.715" stop-color="#1F97EF"/>
</linearGradient>
</defs>
</svg>
