<svg width="169" height="155" viewBox="0 0 169 155" fill="none" xmlns="http://www.w3.org/2000/svg">
<g clip-path="url(#clip0_2_10064)">
<path d="M163.529 73.9303C163.93 74.75 164.317 75.5845 164.68 76.4337C169.019 86.5605 169.402 98.0617 166.889 108.753C159.115 141.823 132.249 148.745 132.249 148.745H60.5889C60.5889 148.745 44.185 147.591 36.3431 145.333C1.93349 135.432 -13.3145 88.5338 14.3454 63.293C23.4413 54.9923 34.6875 49.4994 44.7042 42.3424C51.1698 37.7232 56.5969 32.2942 62.2249 26.7374C66.9761 22.0447 74.3626 19.821 80.8771 18.7165C90.8351 17.023 101.141 18.1766 110.712 21.2789C122.213 25.0047 135.722 32.6918 142.251 43.1082C148.878 53.6865 157.994 62.6745 163.524 73.9303H163.529Z" fill="#EAE2FF"/>
<path d="M146.257 51.7346C147.653 49.4422 148.167 46.7179 148.383 44.0377C148.877 37.8575 147.898 31.5596 145.542 25.8262C142.211 30.2588 138.826 34.7994 137.117 40.0763C135.765 44.2586 135.5 49.3784 137.563 53.3938C139.806 57.7577 144.2 55.1069 146.257 51.7346Z" fill="#80C9FF"/>
<path d="M155.014 68.8073C157.924 65.1601 159.192 60.4968 160.187 55.9316C156.058 57.2668 151.919 58.8474 148.505 61.5374C146.163 63.3831 140.178 69.7645 143.244 73.0338C146.31 76.3079 153.099 71.1979 155.014 68.8073Z" fill="#80C9FF"/>
<path d="M116.202 47.3252C117.505 51.532 118.813 55.7634 120.777 59.7051C121.164 60.4807 121.737 61.5214 122.452 62.6651C124.544 66.008 128.07 71.3143 132.454 71.6432C139.165 72.1537 136.76 63.7647 134.438 60.4169C129.956 53.952 122.697 51.1835 116.197 47.3203L116.202 47.3252Z" fill="#80C9FF"/>
<path d="M149.304 83.5439C146.982 84.9331 140.86 89.9793 143.235 93.278C145.616 96.5816 152.321 92.7773 154.32 90.8432C157.362 87.9029 159.047 83.8482 160.467 79.8574C156.593 80.579 152.689 81.5215 149.304 83.5439Z" fill="#80C9FF"/>
<path d="M115.6 71.6934C117.084 75.4044 118.583 79.135 120.645 82.5564C121.051 83.2289 121.644 84.1272 122.379 85.109C124.514 87.9757 128.095 92.5163 132.087 92.4967C138.19 92.4623 135.403 85.055 133.057 82.1981C128.526 76.6807 121.761 74.7123 115.6 71.6983V71.6934Z" fill="#80C9FF"/>
<path d="M160.731 79.6355C160.648 79.5422 160.525 79.4931 160.403 79.5177C156.602 80.2245 152.6 81.167 149.127 83.2483C147.217 84.3921 143.068 87.7447 142.437 90.8176C142.231 91.819 142.407 92.7173 142.956 93.4831C143.044 93.6058 143.147 93.6991 143.245 93.8071C142.226 94.8134 141.232 95.8491 140.301 96.9389C139.684 97.6653 139.204 98.4606 138.856 99.3196C138.871 95.4613 138.881 92.1872 138.856 90.4544V90.0175C138.817 87.946 138.787 85.8058 138.91 83.7196C139.047 81.3977 140.13 79.4489 141.173 77.8536C142.04 76.5233 142.966 75.2323 143.945 73.9806C144.504 74.28 145.135 74.4469 145.86 74.4469C145.929 74.4469 146.002 74.4469 146.071 74.4469C149.598 74.3095 153.884 70.7899 155.289 69.0276C158.341 65.2086 159.595 60.3048 160.53 56.0096C160.555 55.8869 160.516 55.7593 160.423 55.6758C160.33 55.5924 160.197 55.5629 160.085 55.6022C156.029 56.9128 151.797 58.5082 148.295 61.2669C146.37 62.7837 142.319 67.0249 142.059 70.461C141.976 71.5753 142.29 72.5178 142.995 73.2737C143.108 73.3964 143.24 73.4897 143.362 73.5928C142.383 74.8445 141.457 76.1355 140.585 77.4707C140.056 78.2806 139.522 79.1789 139.091 80.1754C139.473 72.1398 140.066 64.06 140.864 56.0194C143.103 55.9507 145.317 53.9479 146.551 51.9206C148.148 49.3042 148.554 46.1872 148.726 44.0715C149.225 37.8374 148.236 31.4854 145.86 25.698C145.811 25.5802 145.709 25.5017 145.581 25.4869C145.459 25.4722 145.336 25.5213 145.258 25.6244C141.947 30.0324 138.523 34.5927 136.779 39.9776C135.202 44.8471 135.378 49.9227 137.249 53.5601C138.121 55.2537 139.248 55.828 140.169 55.9802C139.385 63.8783 138.797 71.8158 138.415 79.714C137.935 77.0142 137.058 74.3536 135.853 72.0122C135.746 71.8011 135.628 71.5949 135.511 71.3887C135.951 71.104 136.319 70.7261 136.588 70.245C138.082 67.6237 136.461 62.7493 134.717 60.236C131.19 55.1555 125.915 52.2937 120.811 49.5251C119.342 48.7299 117.823 47.9052 116.373 47.0413C116.251 46.9677 116.094 46.9775 115.982 47.0658C115.869 47.1542 115.82 47.3064 115.864 47.4438C117.152 51.6015 118.48 55.9016 120.463 59.8777C120.914 60.776 121.512 61.8412 122.153 62.8671C124.872 67.2065 128.217 71.6882 132.425 72.0072C132.63 72.022 132.831 72.0318 133.022 72.0318C133.733 72.0318 134.355 71.9189 134.889 71.7078C135.001 71.9189 135.124 72.1251 135.231 72.3361C137.078 75.9146 138.165 80.465 138.131 84.5C138.131 84.554 138.121 88.27 138.146 90.0371V90.474C138.18 92.2166 138.17 95.5251 138.156 99.4178C137.548 97.0567 136.559 94.7397 135.202 92.5651C135.094 92.3884 134.977 92.2215 134.864 92.0497C135.236 91.7601 135.53 91.3919 135.741 90.9403C136.907 88.4516 135.08 84.1417 133.311 81.9868C129.745 77.6425 124.759 75.4434 119.934 73.313C118.548 72.6994 117.118 72.0711 115.742 71.3937C115.609 71.3298 115.458 71.3544 115.355 71.4526C115.252 71.5507 115.217 71.7029 115.271 71.8354C116.741 75.5023 118.259 79.2919 120.341 82.7476C120.811 83.533 121.433 84.446 122.09 85.3296C124.862 89.0505 128.212 92.8548 132.043 92.8548H132.077C132.949 92.8498 133.679 92.6977 134.271 92.413C134.384 92.5848 134.502 92.7566 134.609 92.9333C136.632 96.178 137.837 99.7614 138.097 103.296C138.097 103.345 138.111 115.641 138.229 118.248C138.239 118.434 138.391 118.582 138.577 118.582H138.592C138.783 118.572 138.929 118.41 138.925 118.218C138.807 115.528 138.856 102.662 138.861 102.628C138.925 100.62 139.586 98.8631 140.825 97.4101C141.756 96.3203 142.745 95.2846 143.769 94.2783C144.278 94.6317 144.886 94.8575 145.606 94.9213C145.767 94.9361 145.929 94.941 146.095 94.941C149.23 94.941 153.159 92.4621 154.56 91.1122C157.753 88.0245 159.453 83.7539 160.795 79.9938C160.839 79.876 160.814 79.7435 160.731 79.6502V79.6355ZM143.499 72.7976C142.926 72.184 142.681 71.4378 142.75 70.515C142.99 67.339 146.953 63.2108 148.721 61.8118C151.973 59.2494 155.902 57.708 159.717 56.4514C158.811 60.5208 157.567 65.0564 154.746 68.5908C153.32 70.3726 149.196 73.6222 146.042 73.7499C145.415 73.7793 144.866 73.6566 144.386 73.4308C145.968 71.4624 147.687 69.602 149.529 67.8741C149.666 67.7415 149.676 67.5206 149.544 67.3832C149.412 67.2408 149.196 67.2359 149.054 67.3685C147.168 69.1356 145.415 71.0402 143.798 73.0577C143.7 72.9743 143.593 72.9006 143.504 72.8074L143.499 72.7976ZM132.484 71.3004C128.58 71.0059 125.371 66.6763 122.746 62.4843C122.114 61.478 121.526 60.4373 121.085 59.5537C119.268 55.9016 117.995 51.9452 116.795 48.082C118.019 48.7888 119.268 49.4662 120.483 50.124C125.513 52.8533 130.72 55.6758 134.149 60.6238C135.746 62.926 137.318 67.555 135.986 69.8916C135.78 70.2499 135.506 70.5395 135.173 70.7604C133.257 67.3734 130.892 64.3692 128.78 61.8363C128.658 61.689 128.438 61.6694 128.291 61.7921C128.144 61.9148 128.124 62.1357 128.247 62.283C130.333 64.7865 132.67 67.7514 134.555 71.0795C133.987 71.2906 133.297 71.3691 132.479 71.3053L132.484 71.3004ZM132.082 92.1479H132.052C128.526 92.1479 125.322 88.486 122.653 84.9026C122.011 84.0386 121.399 83.1403 120.939 82.3746C119.038 79.228 117.608 75.7723 116.251 72.395C117.382 72.9301 118.538 73.4406 119.665 73.9364C124.416 76.0324 129.324 78.2021 132.787 82.4187C134.394 84.3773 136.152 88.432 135.124 90.6311C134.972 90.9551 134.756 91.2201 134.487 91.441C132.513 88.5301 130.157 85.9972 128.065 83.8668C127.928 83.7294 127.713 83.7294 127.576 83.8668C127.438 83.9994 127.438 84.2202 127.576 84.3577C129.638 86.4586 131.959 88.9572 133.899 91.8092C133.409 92.0301 132.807 92.143 132.087 92.1479H132.082ZM137.871 53.2362C136.084 49.7657 135.927 44.8864 137.445 40.1887C139.086 35.113 142.29 30.7393 145.449 26.5325C147.619 32.0598 148.51 38.0926 148.035 44.0175C147.776 47.2671 147.114 49.6626 145.958 51.5574C144.646 53.7172 142.642 55.2144 140.933 55.3077C141.344 51.2236 141.805 47.1493 142.324 43.0996C142.348 42.9081 142.216 42.7363 142.025 42.7118C141.839 42.6872 141.663 42.8247 141.638 43.0112C141.119 47.0806 140.654 51.1794 140.242 55.2831C139.277 55.1064 138.484 54.4241 137.871 53.2362ZM154.079 90.5967C152.595 92.0301 148.515 94.4845 145.669 94.2145C145.131 94.1654 144.67 94.0083 144.278 93.7678C145.924 92.197 147.663 90.7244 149.505 89.3892C149.661 89.2763 149.696 89.0603 149.583 88.9032C149.47 88.7461 149.25 88.7118 149.098 88.8247C147.202 90.1893 145.42 91.7061 143.739 93.3211C143.666 93.2426 143.583 93.1689 143.514 93.0757C143.073 92.467 142.941 91.7748 143.112 90.96C143.695 88.1374 147.731 84.8927 149.48 83.8472C152.683 81.9328 156.377 81.0001 159.933 80.3178C158.649 83.857 157.004 87.7644 154.075 90.5967H154.079Z" fill="#231F20"/>
<path d="M146.373 108.568H130.66V148.727H146.373V108.568Z" fill="white"/>
<path d="M146.374 108.225H130.66C130.469 108.225 130.312 108.382 130.312 108.573V148.732C130.312 148.923 130.469 149.08 130.66 149.08H146.374C146.565 149.08 146.721 148.923 146.721 148.732V108.573C146.721 108.382 146.565 108.225 146.374 108.225ZM136.758 108.922H142.827L141.348 148.383H138.145L136.758 108.922ZM137.449 148.383H133.673L134.966 108.922H136.063L137.449 148.383ZM131.003 108.922H134.265L132.972 148.383H130.998V108.922H131.003ZM146.021 148.383H142.039L143.518 108.922H146.021V148.383Z" fill="#231F20"/>
<path d="M84.5099 11.7509L87.2969 8.95779L91.2106 8.84489L94.0221 11.7509L94.0368 13.4984H101.835C101.835 13.2579 101.844 13.0124 101.849 12.7719C101.849 12.713 101.756 11.4269 101.56 11.2207C101.007 10.6464 99.8166 11.4514 99.3072 10.9409C99.1211 10.7544 98.9693 10.1653 98.8517 9.91991C98.7439 9.6892 98.3472 9.0216 98.4109 8.76635C98.6019 8.0644 99.4444 7.69133 99.6403 6.98938C99.8068 6.3856 99.4297 5.75237 98.9595 5.33513C98.4745 4.90315 97.9064 4.56936 97.4361 4.11775C97.0051 3.70542 96.5055 3.082 95.8197 3.30781C95.3397 3.46489 95.3054 3.83304 95.0115 4.18157C94.8499 4.37301 94.6148 4.52027 94.3601 4.52027C94.1789 4.52027 94.0074 4.44664 93.8409 4.37301C93.5568 4.24538 93.2678 4.11775 92.9837 3.99012C92.6066 3.82323 92.2 3.62197 92.0286 3.2489C91.9061 2.97892 91.9355 2.66476 91.9698 2.37023C91.9992 2.07571 92.0286 1.76155 91.9061 1.49157C91.671 0.971237 90.951 1.13323 90.4905 1.13323C89.5501 1.13323 88.6097 1.13323 87.6692 1.12832C87.3949 1.12832 87.0912 1.13814 86.8806 1.31485C86.4251 1.69773 86.5916 2.55677 86.6014 3.07219C86.6014 3.22927 86.6014 3.39617 86.5181 3.5287C86.4398 3.64651 86.3026 3.71033 86.1753 3.76923C85.4748 4.08339 84.7793 4.40246 84.0789 4.71662C83.785 4.56936 83.5694 4.29938 83.3735 4.0343C83.1727 3.76923 82.967 3.49434 82.6731 3.34217C82.1735 3.082 81.7228 3.39617 81.3751 3.74469C80.7236 4.39264 80.0722 5.04551 79.4207 5.69347C79.0191 6.09598 78.5782 6.64576 78.7888 7.17591C79.0191 7.75514 79.935 7.81896 80.1162 8.39328C80.2191 8.72708 79.8762 9.29649 79.7538 9.61066C79.5138 9.969 79.5285 10.7495 79.1611 11.0047C78.8378 11.2256 78.0247 11.0293 77.6525 11.0146C77.3537 10.9998 77.0108 11.0047 76.81 11.2256C76.6239 11.4269 76.6239 11.7312 76.6386 12.0061C76.6483 12.281 76.663 12.8995 76.6679 13.5082H84.5295V11.7607L84.5099 11.7509Z" fill="#80C9FF"/>
<path d="M101.83 13.8414H94.0318C93.8408 13.8414 93.684 13.6892 93.684 13.4978L93.6693 11.8877L91.0635 9.19283L87.4389 9.29591L84.8527 11.8877V13.4929C84.8527 13.6843 84.6959 13.8414 84.5049 13.8414H76.6434C76.4523 13.8414 76.3005 13.6892 76.2956 13.4978C76.2907 12.894 76.2809 12.2804 76.2662 12.0055C76.2564 11.7405 76.2368 11.2938 76.5307 10.9747C76.8589 10.6213 77.3732 10.6409 77.6426 10.6507C77.7454 10.6507 77.8875 10.6704 78.0393 10.69C78.2744 10.7194 78.8181 10.7931 78.9455 10.6998C79.0532 10.6262 79.1267 10.3317 79.1904 10.096C79.2492 9.86533 79.3079 9.6248 79.4255 9.43336C79.4549 9.35481 79.4941 9.27137 79.5382 9.17319C79.6165 9.00138 79.8027 8.59887 79.7635 8.47615C79.7145 8.31416 79.499 8.19144 79.2688 8.0589C78.9602 7.88219 78.6075 7.68093 78.4459 7.28332C78.1177 6.45865 78.9014 5.68306 79.1561 5.42781L81.1105 3.47903C81.6983 2.88998 82.2762 2.7329 82.8101 3.0127C83.1775 3.20414 83.4175 3.52321 83.6281 3.80301C83.7849 4.01408 83.922 4.18589 84.0837 4.3037L86.0135 3.42994C86.0772 3.40049 86.185 3.3514 86.2144 3.31213C86.2437 3.26795 86.2388 3.13051 86.2388 3.05688C86.2388 2.96852 86.229 2.86543 86.2242 2.76235C86.1899 2.21257 86.136 1.45662 86.6405 1.02956C86.9589 0.759576 87.3703 0.759576 87.6544 0.759576H90.4757C90.559 0.759576 90.6423 0.759576 90.7305 0.759576C91.2007 0.735032 91.9109 0.690853 92.2048 1.3339C92.3713 1.70206 92.3273 2.10458 92.2979 2.39419C92.2734 2.63472 92.244 2.9047 92.3272 3.09615C92.4399 3.3514 92.7583 3.50848 93.1061 3.66065L93.9632 4.04354C94.0955 4.10244 94.2326 4.16135 94.3453 4.16135C94.4726 4.16135 94.6147 4.0779 94.7322 3.94536C94.8155 3.84719 94.8694 3.74901 94.9282 3.65574C95.0702 3.41522 95.2515 3.11578 95.6972 2.96852C96.5005 2.70345 97.0834 3.28268 97.5095 3.70483L97.6613 3.857C97.9014 4.08281 98.1659 4.28407 98.4499 4.49023C98.6998 4.67677 98.9447 4.85839 99.1798 5.06456C99.8557 5.66343 100.15 6.41447 99.9635 7.07224C99.841 7.50912 99.5373 7.82328 99.263 8.10308C99.0279 8.34852 98.8026 8.57923 98.734 8.8443C98.734 8.9572 98.9643 9.39408 99.0524 9.56098C99.0916 9.63952 99.1259 9.70825 99.1504 9.75733C99.1896 9.84569 99.2386 9.96841 99.2875 10.1059C99.3463 10.2678 99.4688 10.6065 99.5373 10.6802C99.6598 10.8029 99.9929 10.7538 100.311 10.7047C100.791 10.6311 101.384 10.5427 101.795 10.9649C102.124 11.3036 102.182 12.7517 102.182 12.7615L102.168 13.488C102.168 13.6794 102.011 13.8316 101.82 13.8316L101.83 13.8414ZM94.3747 13.1444H101.487L101.497 12.7566C101.492 12.5259 101.389 11.6079 101.286 11.4312C101.154 11.2987 100.86 11.333 100.424 11.3969C99.9537 11.4705 99.4247 11.549 99.0524 11.176C98.8859 11.0091 98.7732 10.7244 98.641 10.3464C98.6018 10.2335 98.5626 10.1304 98.5283 10.0568C98.5087 10.0126 98.4793 9.95859 98.4402 9.88987C98.1757 9.38427 97.9846 8.97684 98.0679 8.66759C98.1854 8.2258 98.494 7.90673 98.7683 7.62202C99.0034 7.38149 99.2239 7.15078 99.2973 6.88571C99.4247 6.42428 99.0818 5.90887 98.7193 5.58489C98.5038 5.39345 98.2736 5.22164 98.0385 5.04983C97.7495 4.83876 97.4556 4.61786 97.1862 4.3577L97.0246 4.19571C96.5984 3.77355 96.285 3.50357 95.9176 3.62629C95.7266 3.69011 95.658 3.78828 95.5257 4.00918C95.4523 4.13189 95.3739 4.26443 95.2612 4.39206C95.0114 4.68658 94.6784 4.85348 94.3453 4.85348C94.0857 4.85348 93.8653 4.75531 93.684 4.67186L92.822 4.28897C92.4644 4.13189 91.9256 3.89136 91.6905 3.37104C91.5289 3.00779 91.5729 2.62 91.6023 2.31074C91.6317 2.02604 91.6513 1.79042 91.568 1.6137C91.4799 1.42226 91.1811 1.42226 90.7647 1.4468C90.6619 1.45171 90.5639 1.45171 90.466 1.45662H87.6446C87.4046 1.4468 87.194 1.45662 87.0764 1.5548C86.8413 1.75605 86.8756 2.30584 86.905 2.70835C86.9148 2.82616 86.9197 2.93907 86.9197 3.03724C86.9197 3.20905 86.9295 3.46921 86.7776 3.69501C86.6405 3.89627 86.4299 3.99445 86.2878 4.05826L84.1914 5.00565C84.0983 5.04983 83.9906 5.04983 83.8926 5.00074C83.5155 4.81421 83.2608 4.48042 83.0648 4.21534C82.8885 3.97972 82.7073 3.73919 82.482 3.62629C82.3007 3.53303 82.0558 3.50357 81.5905 3.965L79.6361 5.91377C79.1561 6.38992 78.9749 6.75317 79.0826 7.01825C79.1512 7.19005 79.3716 7.31768 79.6018 7.45022C79.9202 7.63184 80.2876 7.84292 80.4149 8.26507C80.5325 8.64304 80.3219 9.09465 80.1553 9.4579C80.1112 9.55116 80.0721 9.63461 80.0476 9.70334C80.0378 9.72788 80.028 9.75242 80.0133 9.77206C79.9496 9.87023 79.8957 10.0666 79.8516 10.2531C79.7586 10.6164 79.6557 11.0336 79.3324 11.2594C78.9847 11.4999 78.4312 11.4263 77.9463 11.3674C77.8189 11.3527 77.7014 11.333 77.6132 11.333C77.3683 11.3232 77.1332 11.333 77.0352 11.4361C76.9421 11.5343 76.947 11.7601 76.9519 11.9663C76.9617 12.1921 76.9715 12.6437 76.9764 13.1346H84.1473V11.7356C84.1473 11.6423 84.1816 11.5539 84.2502 11.4901L87.0372 8.69704C87.1009 8.63323 87.1842 8.59887 87.2724 8.59396L91.186 8.48106C91.2742 8.48106 91.377 8.51542 91.4456 8.58905L94.2571 11.495C94.3208 11.5588 94.3551 11.6472 94.3551 11.7356L94.3649 13.1395L94.3747 13.1444Z" fill="#231F20"/>
<path d="M107.616 13.4746H54.0058C51.9552 13.4746 50.293 15.1405 50.293 17.1955V51.2132C50.293 53.2681 51.9552 54.934 54.0058 54.934H107.616C109.667 54.934 111.329 53.2681 111.329 51.2132V17.1955C111.329 15.1405 109.667 13.4746 107.616 13.4746Z" fill="white"/>
<g clip-path="url(#clip1_2_10064)">
<path d="M106.824 20.2079C106.824 19.9876 106.805 19.8269 106.766 19.6602H104.199V20.6544H105.706C105.675 20.9015 105.511 21.2735 105.147 21.5236L105.142 21.5569L105.953 22.173L106.01 22.1785C106.526 21.7111 106.824 21.0235 106.824 20.2079Z" fill="#4285F4"/>
<path d="M104.198 22.827C104.936 22.827 105.556 22.5888 106.008 22.178L105.146 21.5231C104.915 21.6809 104.605 21.791 104.198 21.791C103.475 21.791 102.862 21.3237 102.643 20.6777L102.611 20.6804L101.767 21.3204L101.756 21.3505C102.205 22.2256 103.129 22.827 104.198 22.827Z" fill="#34A853"/>
<path d="M102.643 20.6771C102.586 20.5105 102.552 20.3318 102.552 20.1473C102.552 19.9627 102.586 19.7841 102.64 19.6174L102.639 19.5819L101.784 18.9316L101.756 18.9447C101.571 19.3078 101.465 19.7157 101.465 20.1473C101.465 20.5789 101.571 20.9867 101.756 21.3499L102.643 20.6771Z" fill="#FBBC05"/>
<path d="M104.198 18.5046C104.711 18.5046 105.058 18.722 105.255 18.9035L106.027 18.1653C105.553 17.7337 104.936 17.4688 104.198 17.4688C103.129 17.4688 102.205 18.07 101.756 18.9452L102.64 19.618C102.862 18.972 103.475 18.5046 104.198 18.5046Z" fill="#EB4335"/>
</g>
<path d="M107.615 55.2814H54.0098C51.7713 55.2814 49.9492 53.4554 49.9492 51.2121V17.1944C49.9492 14.9511 51.7713 13.125 54.0098 13.125H107.62C109.859 13.125 111.681 14.9511 111.681 17.1944V51.2121C111.681 53.4554 109.859 55.2814 107.62 55.2814H107.615ZM54.0098 13.822C52.1534 13.822 50.6399 15.3339 50.6399 17.1993V51.2121C50.6399 53.0725 52.1534 54.5893 54.0098 54.5893H107.62C109.477 54.5893 110.99 53.0725 110.99 51.2121V17.1944C110.99 15.3339 109.477 13.8171 107.62 13.8171H54.0098V13.822Z" fill="#231F20"/>
<path d="M106.106 25.8379H102.178V37.9085H106.106V25.8379Z" fill="white"/>
<path d="M61.4151 90.6018C65.8871 90.1796 67.8121 85.0696 68.6007 80.3572C69.3452 75.9197 69.1493 72.5523 69.1493 72.5523C69.1493 72.5523 56.0125 72.297 53.2401 78.4379C52.3829 80.3376 52.3829 82.4778 53.0001 84.4266C52.089 86.1495 51.2661 88.0983 49.9877 89.5121C49.1354 90.4545 48.0481 91.2056 47.1468 92.1088C45.3932 93.8661 43.0862 96.6347 45.021 99.094C46.5051 100.984 64.2854 105.245 67.5623 96.8899C67.8856 96.0652 63.5752 94.9559 61.6111 93.8023C61.0821 93.4931 60.7196 93.1789 60.651 92.8598C60.5726 92.4917 60.6902 92.1088 60.8224 91.7554C60.9841 91.3332 61.1898 90.9601 61.4102 90.6018H61.4151Z" fill="#F8A99C"/>
<path d="M64.8496 68.2713C60.4854 69.3463 52.4965 68.6149 49.9984 73.2831C49.2 74.7754 49.3078 85.933 52.6973 84.8825C54.5929 84.2935 58.3106 78.7662 57.6444 76.7683C58.291 78.7122 63.9239 77.7648 65.1925 77.5194C68.0873 76.9598 69.7282 75.7375 71.0752 72.7775C72.0205 70.706 72.1381 68.3695 72.2409 66.0918C70.0907 66.8183 67.5485 67.6086 64.8496 68.2762V68.2713Z" fill="#231F20"/>
<path d="M62.8072 80.3111C62.4889 80.2718 62.1999 80.4976 62.1607 80.8167C62.1215 81.1357 62.3468 81.4254 62.6652 81.4646C62.9836 81.5039 63.2726 81.2781 63.3117 80.959C63.3509 80.64 63.1256 80.3503 62.8072 80.3111Z" fill="#231F20"/>
<path d="M66.7447 80.3755C66.4263 80.3363 66.1374 80.5621 66.0982 80.8811C66.059 81.2002 66.2843 81.4898 66.6027 81.5291C66.9211 81.5684 67.2101 81.3426 67.2492 81.0235C67.2884 80.7044 67.0631 80.4148 66.7447 80.3755Z" fill="#231F20"/>
<path d="M61.8075 85.8304C61.7291 85.6929 61.7536 85.5162 61.7047 85.3641C61.6557 85.2119 61.4353 85.1382 61.3373 85.261C60.774 85.9482 61.6459 87.573 62.4786 87.4552C62.4884 87.4552 62.4982 87.4552 62.5031 87.4552C62.7578 87.4061 63.0076 87.2588 63.1251 87.0281C63.6982 85.9335 62.072 86.3016 61.8075 85.8353V85.8304Z" fill="#231F20"/>
<path d="M67.7301 78.4317C67.7301 78.4317 67.7203 78.4317 67.7154 78.4317C67.2403 78.4464 66.7651 78.5102 66.3047 78.6231C66.0647 78.682 65.9129 78.9275 65.9716 79.168C66.0206 79.3742 66.2068 79.5116 66.4076 79.5116C66.4419 79.5116 66.4811 79.5116 66.5153 79.4969C66.917 79.3987 67.3284 79.3447 67.7399 79.33C67.9897 79.3251 68.1856 79.114 68.1758 78.8637C68.1709 78.6182 67.9701 78.4219 67.7252 78.4219L67.7301 78.4317Z" fill="#231F20"/>
<path d="M64.2802 79.1342C64.29 78.8838 64.0941 78.6777 63.8442 78.6679C63.1242 78.6433 62.3993 78.6973 61.6842 78.8299C61.4393 78.874 61.2776 79.1096 61.3217 79.3551C61.3609 79.576 61.5519 79.7282 61.7625 79.7282C61.787 79.7282 61.8164 79.7282 61.8409 79.7183C62.4924 79.6005 63.1536 79.5514 63.81 79.5711C64.0745 79.5809 64.2655 79.3845 64.2753 79.1342H64.2802Z" fill="#231F20"/>
<path d="M65.4277 81.1367C65.3542 80.8962 65.1044 80.7587 64.8644 80.8324C64.6244 80.906 64.4921 81.1564 64.5607 81.3969C64.7468 82.0203 65.0113 82.6143 65.2024 83.0462C65.2856 83.2377 65.3885 83.4635 65.4375 83.596C65.2905 83.7776 64.884 84.1801 64.2227 84.5925C64.0121 84.725 63.9484 85.0048 64.0807 85.2159C64.164 85.3533 64.3109 85.427 64.4627 85.427C64.546 85.427 64.6244 85.4024 64.7028 85.3583C65.3248 84.9705 66.28 84.2243 66.3583 83.758C66.4024 83.5076 66.28 83.2328 66.0302 82.6781C65.8391 82.2461 65.5991 81.7061 65.4277 81.1416V81.1367Z" fill="#231F20"/>
<path d="M63.8349 96.8014C63.9818 103.865 61.856 119.932 60.3817 126.843C57.913 127.01 55.4345 127.03 52.961 126.897C51.129 120.486 46.946 103.153 46.7207 96.4922C54.0532 99.0938 57.8738 101.7 63.8349 96.7965V96.8014Z" fill="#009CDA"/>
<path d="M101.907 148.677L101.52 134.127C101.52 134.127 94.3789 134.176 91.3861 134.24C86.6937 134.348 82.251 134.049 77.5586 133.985C78.8517 128.772 79.5228 123.401 79.5424 118.031C79.5571 113.834 79.1603 109.554 77.5194 105.696C76.5006 103.3 74.6687 100.88 72.4155 98.9853C71.9404 98.5435 71.4114 98.1557 70.853 97.7924C70.8285 97.7777 70.804 97.7581 70.7796 97.7385C68.0023 95.9713 64.4413 95.0043 61.8012 93.2715C62.7025 93.8605 63.3637 99.5547 60.7334 102.765C60.2289 103.379 59.9742 104.139 59.8567 104.93C59.0925 110.045 58.6958 115.169 57.9758 120.309C56.6239 129.925 54.0376 138.992 51.373 148.304C51.4024 148.201 57.5398 148.672 57.5398 148.672H101.902L101.907 148.677Z" fill="#614B98"/>
<path d="M69.2217 140.149C70.696 140.738 72.3957 141.146 73.9729 141.131C76.3583 141.111 80.9773 139.634 82.1038 139.84C83.4851 140.095 92.5614 148.676 92.5614 148.676H66.7285V138.5C66.7285 138.5 68.5702 139.889 69.2217 140.149Z" fill="#F8A99C"/>
<path d="M62.037 135.162C59.9945 135.122 57.9863 135.088 55.9878 134.769C55.6596 134.715 55.3364 134.661 55.0131 134.607C55.6155 132.619 56.1935 130.626 56.5609 128.584C57.6042 122.791 56.9185 116.891 56.2523 111.099C55.9878 108.816 56.2523 104.418 54.9249 102.882C54.4743 102.361 48.5328 96.5738 46.9801 91.2969C45.78 92.5535 42.3024 93.6138 41.7048 93.8396C40.8231 94.1783 39.9708 94.5857 39.1381 95.0275C32.0652 98.5864 27.8528 105.405 26.0111 113.048C25.3596 115.752 24.9776 118.501 24.762 121.27C23.3318 125.457 21.7742 129.536 20.5496 133.826C19.139 138.755 16.5527 148.68 16.5527 148.68H70.1876V135.216C70.1876 135.216 64.7947 135.216 62.037 135.166V135.162Z" fill="#614B98"/>
<path d="M77.5751 133.562C76.5661 133.704 74.073 134.185 72.7358 135.525C72.5594 135.702 72.5594 135.987 72.7358 136.164C72.8239 136.252 72.9415 136.296 73.0542 136.296C73.1668 136.296 73.2844 136.252 73.3725 136.164C74.166 135.368 75.7873 134.725 77.7025 134.455C77.9474 134.421 78.1188 134.19 78.0846 133.945C78.0503 133.699 77.8201 133.533 77.5751 133.562Z" fill="#231F20"/>
<path d="M58.5406 115.861C58.5406 115.861 58.5749 115.861 58.5945 115.861C58.8198 115.861 59.0157 115.69 59.0402 115.459C59.1284 114.678 59.2165 113.898 59.3047 113.122C59.6035 110.457 59.9072 107.698 60.3088 104.993C60.4313 104.179 60.686 103.54 61.0876 103.049C62.8754 100.87 63.3016 97.4339 62.9293 94.9942C62.8118 94.2235 62.562 93.2271 62.0526 92.8933C61.8517 92.7607 61.5872 92.8196 61.4452 93.0209C61.308 93.2222 61.3619 93.502 61.5529 93.6492C61.6656 93.7327 61.935 94.2775 62.0721 95.4213C62.3122 97.4388 62.0134 100.492 60.3872 102.48C59.8778 103.103 59.5594 103.884 59.4124 104.866C59.0059 107.585 58.6973 110.354 58.4034 113.029C58.3153 113.809 58.232 114.585 58.1438 115.366C58.1144 115.616 58.2908 115.837 58.5406 115.866V115.861Z" fill="#231F20"/>
<path d="M70.5362 120.907C70.6293 120.539 70.7223 120.166 70.8105 119.788C71.364 117.51 71.942 115.154 73.1469 113.255C73.2792 113.044 73.2204 112.764 73.0098 112.631C72.7992 112.494 72.52 112.558 72.3877 112.769C71.0995 114.796 70.5068 117.226 69.9337 119.577C69.8407 119.95 69.7525 120.323 69.6594 120.686C68.8463 123.897 67.9696 127.097 67.0536 130.2C66.603 131.726 66.1132 133.219 65.5744 134.75C65.2021 134.75 64.825 134.75 64.4576 134.745C64.4576 134.534 64.4576 134.323 64.4527 134.117C64.4527 133.871 64.247 133.675 64.0021 133.675C64.0021 133.675 63.9972 133.675 63.9923 133.675C63.7425 133.675 63.5465 133.886 63.5514 134.136C63.5514 134.333 63.5514 134.539 63.5563 134.735C62.9931 134.73 62.4592 134.721 62.0036 134.716C59.9513 134.676 58.0165 134.642 56.0622 134.333C55.8858 134.303 55.7095 134.269 55.5332 134.24L55.7242 133.616C56.2483 131.932 56.6597 130.602 57.0075 128.668C58.0606 122.832 57.3749 116.872 56.7038 111.051C56.6352 110.462 56.6059 109.706 56.5667 108.91C56.4638 106.53 56.3462 103.835 55.2687 102.588C55.2197 102.529 55.107 102.411 54.9454 102.244C50.8505 97.9638 48.3182 94.2381 47.4169 91.1701C47.3483 90.9296 47.0985 90.797 46.8585 90.8658C46.6185 90.9345 46.4814 91.1897 46.5548 91.4253C47.4953 94.6308 50.1011 98.4841 54.2939 102.868C54.4409 103.025 54.5437 103.128 54.5878 103.182C55.4597 104.188 55.5772 106.829 55.6654 108.95C55.6997 109.764 55.734 110.535 55.8124 111.213C56.4687 116.907 57.1496 122.797 56.1209 128.506C55.783 130.386 55.3764 131.692 54.8621 133.346L54.6368 134.082C53.3927 133.866 52.1534 133.641 50.9436 133.41C48.2643 132.904 45.4919 132.384 42.7098 132.06C42.4551 131.157 42.3375 127.092 42.3473 125.782C42.3669 122.498 43.5914 115.213 44.9531 113.102C45.0903 112.891 45.0266 112.612 44.8209 112.479C44.6103 112.342 44.3311 112.405 44.1988 112.612C42.7343 114.879 41.4705 122.311 41.451 125.777C41.4265 129.66 41.6322 131.427 41.8673 132.232C38.9284 133.444 36.4107 135.845 35.005 137.754C34.858 137.955 34.9021 138.24 35.1029 138.387C35.1813 138.446 35.2793 138.476 35.3674 138.476C35.5046 138.476 35.6417 138.412 35.7299 138.289C37.1063 136.419 39.5994 134.038 42.4943 132.944C45.2862 133.258 48.0831 133.783 50.7868 134.294C52.4669 134.613 54.2058 134.937 55.9348 135.211C57.9479 135.531 59.917 135.57 62.0428 135.609C62.4934 135.619 63.0175 135.624 63.5759 135.629C63.571 136.807 63.5416 138.019 63.5123 139.207C63.4682 140.925 63.4241 142.697 63.4535 144.342C63.4535 144.587 63.6592 144.784 63.9041 144.784C63.9041 144.784 63.909 144.784 63.9139 144.784C64.1637 144.784 64.3596 144.572 64.3547 144.322C64.3253 142.697 64.3694 140.935 64.4135 139.227C64.4429 138.034 64.4723 136.817 64.4772 135.634C66.5344 135.648 68.8072 135.653 69.7525 135.653V148.21H31.0962C30.7387 148.048 29.2692 147.336 28.1867 146.158C25.7622 143.522 25.1744 139.826 25.1107 137.19L25.0715 135.678C24.8805 128.202 24.6895 120.466 26.4479 113.142C28.4953 104.625 33.271 98.2338 39.8982 95.1364C40.1236 95.0333 40.2215 94.7633 40.1187 94.5375C40.0109 94.3117 39.7415 94.2135 39.5211 94.3166C32.6441 97.5318 27.692 104.144 25.576 112.931C23.7833 120.372 23.9841 128.167 24.1703 135.702L24.2094 137.214C24.278 140.007 24.905 143.929 27.5255 146.777C28.8872 148.259 30.7534 149.054 30.8317 149.089C30.8856 149.113 30.9444 149.123 31.0081 149.123H70.1933C70.4432 149.123 70.644 148.922 70.644 148.671V135.207C70.644 135.089 70.595 134.971 70.5117 134.888C70.4285 134.804 70.3109 134.755 70.1933 134.755C70.164 134.755 68.4888 134.755 66.5344 134.745C67.0389 133.302 67.4994 131.888 67.9304 130.445C68.8512 127.333 69.7329 124.123 70.546 120.898L70.5362 120.907Z" fill="#231F20"/>
<path d="M144.228 120.711C144.007 120.353 143.625 120.137 143.209 120.137H103.436C102.594 120.137 101.834 120.603 101.447 121.354L88.9081 145.962H75.3549C75.1051 145.962 74.9043 146.163 74.9043 146.413V148.671C74.9043 148.922 75.1051 149.123 75.3549 149.123H131.267C131.517 149.123 131.718 148.922 131.718 148.671V146.521L144.277 121.879C144.468 121.506 144.453 121.064 144.233 120.706L144.228 120.711Z" fill="#231F20"/>
<path d="M87.3125 94.2715L107.587 86.719L111.675 97.7389C112.093 98.8662 111.519 100.122 110.394 100.541L94.1959 106.575C93.0711 106.994 91.8178 106.419 91.3997 105.291L87.3125 94.2715Z" fill="white"/>
<path d="M111.993 97.6201L107.908 86.6C107.899 86.5705 107.879 86.5411 107.859 86.5165C107.859 86.5116 107.859 86.5018 107.85 86.4969C107.85 86.4969 107.85 86.4969 107.845 86.4969C107.81 86.4625 107.776 86.4282 107.727 86.4085C107.717 86.4036 107.703 86.4085 107.688 86.3987C107.673 86.3938 107.659 86.3889 107.644 86.3889C107.58 86.3791 107.521 86.3742 107.458 86.3987L87.1843 93.9533C87.1206 93.9778 87.0765 94.022 87.0374 94.0711C87.0276 94.0809 87.0227 94.0907 87.0129 94.1055C86.9786 94.1595 86.959 94.2184 86.959 94.2773C86.959 94.2773 86.959 94.2822 86.959 94.2871C86.959 94.2969 86.9639 94.3018 86.9639 94.3067C86.9639 94.3411 86.9639 94.3705 86.9786 94.4049L91.0636 105.425C91.4408 106.441 92.4057 107.074 93.4344 107.074C93.7233 107.074 94.0221 107.025 94.3111 106.917L110.504 100.884C111.136 100.649 111.641 100.183 111.92 99.5689C112.199 98.9553 112.224 98.2681 111.993 97.6349V97.6201ZM106.787 87.3903L100.351 98.3368L88.3452 94.2626L106.787 87.3903ZM111.293 99.2646C111.092 99.7113 110.725 100.05 110.269 100.222L94.076 106.255C93.1307 106.608 92.0776 106.122 91.7249 105.175L87.8945 94.8418L100.404 99.0879C100.439 99.0977 100.478 99.1075 100.517 99.1075C100.635 99.1075 100.752 99.0437 100.816 98.9357L107.521 87.5326L111.352 97.8656C111.523 98.327 111.504 98.8228 111.298 99.2695L111.293 99.2646Z" fill="#231F20"/>
<path d="M155.867 149.433H5.72874C5.34669 149.433 5.0332 149.124 5.0332 148.736C5.0332 148.348 5.34179 148.039 5.72874 148.039H155.867C156.249 148.039 156.563 148.348 156.563 148.736C156.563 149.124 156.254 149.433 155.867 149.433Z" fill="#231F20"/>
<path d="M35.4273 148.74C35.4273 151.459 33.228 153.663 30.5144 153.663C27.8008 153.663 25.6016 151.459 25.6016 148.74C25.6016 146.02 27.8008 143.816 30.5144 143.816C33.228 143.816 35.4273 146.02 35.4273 148.74Z" fill="#00B4FF"/>
<path d="M30.5088 154.356C27.418 154.356 24.9004 151.833 24.9004 148.736C24.9004 145.638 27.418 143.115 30.5088 143.115C33.5995 143.115 36.1172 145.638 36.1172 148.736C36.1172 151.833 33.5995 154.356 30.5088 154.356ZM30.5088 144.509C28.1822 144.509 26.2915 146.404 26.2915 148.736C26.2915 151.067 28.1822 152.962 30.5088 152.962C32.8354 152.962 34.7261 151.067 34.7261 148.736C34.7261 146.404 32.8354 144.509 30.5088 144.509Z" fill="#231F20"/>
<path d="M63.041 42.3015V41.0966C63.041 39.4989 63.6757 37.9665 64.8055 36.8368C65.9353 35.707 67.4676 35.0723 69.0654 35.0723C70.6631 35.0723 72.1955 35.707 73.3252 36.8368C74.455 37.9665 75.0897 39.4989 75.0897 41.0966V42.3015" stroke="black" stroke-width="0.765449" stroke-linecap="round"/>
<path d="M69.0638 35.073C70.0225 35.073 70.9419 34.6922 71.6198 34.0143C72.2976 33.3364 72.6785 32.417 72.6785 31.4584C72.6785 30.4997 72.2976 29.5803 71.6198 28.9024C70.9419 28.2246 70.0225 27.8438 69.0638 27.8438C68.1052 27.8438 67.1858 28.2246 66.5079 28.9024C65.83 29.5803 65.4492 30.4997 65.4492 31.4584C65.4492 32.417 65.83 33.3364 66.5079 34.0143C67.1858 34.6922 68.1052 35.073 69.0638 35.073V35.073Z" stroke="black" stroke-width="0.765449" stroke-linecap="round" stroke-linejoin="round"/>
<path d="M79.9084 24.9514V45.1933C79.9084 45.385 79.8322 45.5689 79.6967 45.7045C79.5611 45.8401 79.3772 45.9162 79.1855 45.9162H58.9436C58.7519 45.9162 58.568 45.8401 58.4324 45.7045C58.2969 45.5689 58.2207 45.385 58.2207 45.1933V24.9514C58.2207 24.7597 58.2969 24.5758 58.4324 24.4403C58.568 24.3047 58.7519 24.2285 58.9436 24.2285H79.1855C79.3772 24.2285 79.5611 24.3047 79.6967 24.4403C79.8322 24.5758 79.9084 24.7597 79.9084 24.9514V24.9514Z" stroke="black" stroke-width="0.765449" stroke-linecap="round" stroke-linejoin="round"/>
<path d="M84.2461 27.8008H102.617" stroke="black" stroke-width="0.765449" stroke-linecap="round"/>
<path d="M84.2461 33.9258H102.617" stroke="black" stroke-width="0.765449" stroke-linecap="round"/>
<path d="M84.2461 40.5586H97.0036" stroke="black" stroke-width="0.765449" stroke-linecap="round"/>
<path fill-rule="evenodd" clip-rule="evenodd" d="M15.6067 72.4876L16.585 72.2255L16.3229 71.2472C16.1838 70.7283 16.2566 70.1754 16.5252 69.7101C16.7938 69.2449 17.2363 68.9054 17.7552 68.7663L25.5815 66.6693C26.1004 66.5302 26.6533 66.603 27.1186 66.8716C27.5838 67.1402 27.9233 67.5827 28.0624 68.1016L30.6837 77.8845C30.8227 78.4034 30.7499 78.9563 30.4813 79.4216C30.2127 79.8868 29.7703 80.2263 29.2514 80.3654L21.425 82.4624C20.9061 82.6015 20.3532 82.5287 19.888 82.2601C19.4227 81.9914 19.0832 81.549 18.9442 81.0301L18.6821 80.0518L17.7038 80.3139M16.6552 76.4008L17.6335 76.1386L16.6552 76.4008ZM16.131 74.4442L17.1093 74.1821L16.131 74.4442ZM17.1795 78.3574L18.1578 78.0952L17.1795 78.3574Z" fill="white"/>
<path d="M15.6067 72.4876L16.585 72.2255L16.3229 71.2472C16.1838 70.7283 16.2566 70.1754 16.5252 69.7101C16.7938 69.2449 17.2363 68.9054 17.7552 68.7663L25.5815 66.6693C26.1004 66.5302 26.6533 66.603 27.1186 66.8716C27.5838 67.1402 27.9233 67.5827 28.0624 68.1016L30.6837 77.8845C30.8227 78.4034 30.7499 78.9563 30.4813 79.4216C30.2127 79.8868 29.7703 80.2263 29.2514 80.3654L21.425 82.4624C20.9061 82.6015 20.3532 82.5287 19.888 82.2601C19.4227 81.9914 19.0832 81.549 18.9442 81.0301L18.6821 80.0518L17.7038 80.3139M16.6552 76.4008L17.6335 76.1386M16.131 74.4442L17.1093 74.1821M17.1795 78.3574L18.1578 78.0952" stroke="black" stroke-width="0.510299" stroke-linecap="round" stroke-linejoin="round"/>
<path d="M23.5032 74.5666C24.5837 74.2771 25.225 73.1664 24.9355 72.0858C24.6459 71.0052 23.5352 70.3639 22.4546 70.6535C21.374 70.943 20.7328 72.0537 21.0223 73.1343C21.3119 74.2149 22.4226 74.8562 23.5032 74.5666Z" stroke="black" stroke-width="0.510299" stroke-linecap="round" stroke-linejoin="round"/>
<path d="M15.6067 72.4876L16.585 72.2255L16.3229 71.2472C16.1838 70.7283 16.2566 70.1754 16.5252 69.7101C16.7938 69.2449 17.2363 68.9054 17.7552 68.7663L25.5815 66.6693C26.1004 66.5302 26.6533 66.603 27.1186 66.8716C27.5838 67.1402 27.9233 67.5827 28.0624 68.1016L30.6837 77.8845C30.8227 78.4034 30.7499 78.9563 30.4813 79.4216C30.2127 79.8868 29.7703 80.2263 29.2514 80.3654L21.425 82.4624C20.9061 82.6015 20.3532 82.5287 19.888 82.2601C19.4227 81.9914 19.0832 81.549 18.9442 81.0301L18.6821 80.0518L17.7038 80.3139M16.6552 76.4008L17.6335 76.1386M16.131 74.4442L17.1093 74.1821M17.1795 78.3574L18.1578 78.0952" stroke="black" stroke-width="0.510299" stroke-linecap="round" stroke-linejoin="round"/>
<path fill-rule="evenodd" clip-rule="evenodd" d="M27.2245 76.7156L26.9624 75.7373C26.8233 75.2184 26.4838 74.776 26.0186 74.5073C25.5533 74.2387 25.0004 74.1659 24.4815 74.305L22.5249 74.8293C22.006 74.9683 21.5636 75.3078 21.295 75.773C21.0264 76.2383 20.9536 76.7912 21.0926 77.3101L21.3548 78.2884C21.4243 78.5478 21.594 78.7691 21.8266 78.9034C22.0593 79.0377 22.3357 79.0741 22.5952 79.0045L26.5083 77.956C26.7678 77.8865 26.989 77.7168 27.1233 77.4841C27.2576 77.2515 27.294 76.9751 27.2245 76.7156Z" stroke="black" stroke-width="0.510299" stroke-linecap="round" stroke-linejoin="round"/>
</g>
<defs>
<clipPath id="clip0_2_10064">
<rect width="168.399" height="153.6" fill="white" transform="translate(0.046875 0.755859)"/>
</clipPath>
<clipPath id="clip1_2_10064">
<rect width="6.12359" height="6.12359" fill="white" transform="translate(101.082 17.0859)"/>
</clipPath>
</defs>
</svg>
