<svg width="34" height="35" viewBox="0 0 34 35" fill="none" xmlns="http://www.w3.org/2000/svg">
<g clip-path="url(#clip0_355_11817)">
<path fill-rule="evenodd" clip-rule="evenodd" d="M13.5327 1.09235C12.1697 1.44543 11.6123 1.65029 10.3629 2.25742C5.54877 4.59683 2.31696 9.07242 1.53222 14.4865C1.32473 15.9179 1.40244 18.3447 1.70125 19.7675C1.96023 21.0006 2.48778 22.5722 2.95554 23.5043C3.1423 23.8764 3.29514 24.2407 3.29514 24.3136C3.29514 24.3866 2.74188 25.6909 2.0656 27.2121C1.38933 28.7332 0.791783 30.1092 0.737725 30.2696C0.474547 31.0503 0.717936 32.0427 1.33973 32.7243C1.8707 33.3064 2.45095 33.569 3.20947 33.5705C3.70293 33.5714 4.15972 33.4364 7.2213 32.3846C10.3358 31.3147 10.7031 31.2067 10.9479 31.2892C11.0973 31.3396 11.6439 31.5341 12.1625 31.7216C15.4787 32.9206 18.9711 32.9507 22.4715 31.8101C25.9218 30.6859 29.0562 28.2194 30.9822 25.1126C32.2233 23.1106 33.1082 20.5721 33.325 18.3915C33.3681 17.9579 33.3448 17.8156 33.178 17.4907C32.6967 16.5538 31.5019 16.468 30.8637 17.3244C30.7675 17.4535 30.6415 17.9293 30.5357 18.5635C30.2228 20.4398 29.7182 21.8767 28.8632 23.3262C27.4083 25.7925 25.1295 27.791 22.5625 28.8514C20.8503 29.5588 19.315 29.8591 17.4221 29.8569C15.3737 29.8546 13.658 29.4796 11.8551 28.6405C10.8837 28.1882 10.5822 28.1399 10.0817 28.3559C9.48572 28.6132 3.60946 30.7075 3.57639 30.6745C3.55831 30.6563 4.15903 29.3053 4.91138 27.6722C5.66374 26.039 6.3048 24.5864 6.33599 24.4441C6.40829 24.1141 6.24766 23.6246 5.94114 23.2406C5.42669 22.5962 4.69935 20.6981 4.39874 19.2156C4.17814 18.1279 4.09795 16.128 4.23108 15.0345C4.43446 13.364 4.88671 11.9295 5.69912 10.3779C6.31106 9.20914 6.98742 8.30068 8.00698 7.27825C9.89283 5.38684 11.9072 4.31069 14.9259 3.58186C16.2354 3.26577 16.4542 1.54971 15.2545 1.00386C14.7956 0.79505 14.6513 0.802516 13.5327 1.09235ZM21.1145 2.56742C20.9967 2.61453 20.81 2.73761 20.6994 2.84094C20.0381 3.45948 20.1215 4.42784 20.8849 4.99497C21.114 5.16516 21.2481 5.17589 23.4492 5.2L25.7719 5.22549L23.0639 7.9464C20.15 10.8742 20.162 10.8583 20.2849 11.6169C20.4254 12.4846 21.5431 12.9906 22.271 12.516C22.4123 12.4238 23.7038 11.1918 25.1409 9.77824L27.7539 7.20813L27.7967 9.53844C27.8378 11.7763 27.8471 11.8795 28.0306 12.1372C28.5928 12.9267 29.8182 12.8519 30.3193 11.9973C30.4902 11.7059 30.4953 11.5788 30.4953 7.57761V3.45802L30.2939 3.13352C30.1831 2.955 29.9437 2.73297 29.7619 2.64002C29.4463 2.47876 29.2467 2.47129 25.3799 2.47644C22.9019 2.47979 21.2454 2.51515 21.1145 2.56742Z" fill="url(#paint0_linear_355_11817)"/>
</g>
<defs>
<linearGradient id="paint0_linear_355_11817" x1="39.4282" y1="-6.92587" x2="-14.3162" y2="49.6316" gradientUnits="userSpaceOnUse">
<stop offset="0.135417" stop-color="#214F65"/>
<stop offset="0.598958" stop-color="#296583"/>
<stop offset="0.942708" stop-color="#367897"/>
</linearGradient>
<clipPath id="clip0_355_11817">
<rect width="33" height="34" fill="white" transform="translate(0.5 0.5)"/>
</clipPath>
</defs>
</svg>
