<svg width="33" height="34" viewBox="0 0 33 34" fill="none" xmlns="http://www.w3.org/2000/svg">
<path fill-rule="evenodd" clip-rule="evenodd" d="M13.0337 0.592347C11.6707 0.94543 11.1133 1.15029 9.86388 1.75742C5.04975 4.09683 1.81794 8.57242 1.0332 13.9865C0.825711 15.4179 0.903413 17.8447 1.20223 19.2675C1.46121 20.5006 1.98876 22.0722 2.45652 23.0043C2.64328 23.3764 2.79612 23.7407 2.79612 23.8136C2.79612 23.8866 2.24286 25.1909 1.56658 26.7121C0.890306 28.2332 0.292759 29.6092 0.238701 29.7696C-0.0244763 30.5503 0.218912 31.5427 0.840703 32.2243C1.37168 32.8064 1.95193 33.069 2.71045 33.0705C3.20391 33.0714 3.6607 32.9364 6.72228 31.8846C9.83681 30.8147 10.2041 30.7067 10.4489 30.7892C10.5983 30.8396 11.1449 31.0341 11.6635 31.2216C14.9797 32.4206 18.4721 32.4507 21.9725 31.3101C25.4228 30.1859 28.5572 27.7194 30.4832 24.6126C31.7243 22.6106 32.6092 20.0721 32.826 17.8915C32.8691 17.4579 32.8458 17.3156 32.679 16.9907C32.1977 16.0538 31.0029 15.968 30.3647 16.8244C30.2685 16.9535 30.1425 17.4293 30.0367 18.0635C29.7238 19.9398 29.2192 21.3767 28.3642 22.8262C26.9093 25.2925 24.6305 27.291 22.0635 28.3514C20.3513 29.0588 18.816 29.3591 16.9231 29.3569C14.8747 29.3546 13.159 28.9796 11.3561 28.1405C10.3847 27.6882 10.0832 27.6399 9.58271 27.8559C8.9867 28.1132 3.11044 30.2075 3.07737 30.1745C3.05929 30.1563 3.66001 28.8053 4.41236 27.1722C5.16472 25.539 5.80578 24.0864 5.83697 23.9441C5.90927 23.6141 5.74864 23.1246 5.44212 22.7406C4.92767 22.0962 4.20033 20.1981 3.89972 18.7156C3.67912 17.6279 3.59893 15.628 3.73206 14.5345C3.93544 12.864 4.38769 11.4295 5.2001 9.8779C5.81204 8.70914 6.4884 7.80068 7.50796 6.77825C9.39381 4.88684 11.4082 3.81069 14.4269 3.08186C15.7364 2.76577 15.9552 1.04971 14.7555 0.503861C14.2966 0.29505 14.1523 0.302516 13.0337 0.592347ZM20.6155 2.06742C20.4977 2.11453 20.311 2.23761 20.2004 2.34094C19.5391 2.95948 19.6225 3.92784 20.3859 4.49497C20.615 4.66516 20.7491 4.67589 22.9502 4.7L25.2729 4.72549L22.5649 7.4464C19.651 10.3742 19.663 10.3583 19.7859 11.1169C19.9264 11.9846 21.0441 12.4906 21.772 12.016C21.9133 11.9238 23.2048 10.6918 24.6419 9.27824L27.2549 6.70813L27.2977 9.03844C27.3388 11.2763 27.3481 11.3795 27.5316 11.6372C28.0938 12.4267 29.3192 12.3519 29.8203 11.4973C29.9912 11.2059 29.9963 11.0788 29.9963 7.07761V2.95802L29.7949 2.63352C29.6841 2.455 29.4447 2.23297 29.2629 2.14002C28.9473 1.97876 28.7477 1.97129 24.8809 1.97644C22.4029 1.97979 20.7464 2.01515 20.6155 2.06742Z" fill="url(#paint0_linear_1055_17263)"/>
<defs>
<linearGradient id="paint0_linear_1055_17263" x1="38.9292" y1="-7.42587" x2="-14.8152" y2="49.1316" gradientUnits="userSpaceOnUse">
<stop offset="0.163" stop-color="#6533E2"/>
<stop offset="0.334" stop-color="#7349DE"/>
<stop offset="0.715" stop-color="#1F97EF"/>
<stop offset="1" stop-color="#57A1D7"/>
</linearGradient>
</defs>
</svg>
