<svg width="35" height="35" viewBox="0 0 35 35" fill="none" xmlns="http://www.w3.org/2000/svg">
<path fill-rule="evenodd" clip-rule="evenodd" d="M18.5864 1.52682C18.7501 1.64901 18.9897 1.89055 19.1189 2.06353C19.3502 2.37328 19.3538 2.48523 19.3538 9.42186C19.3538 16.3585 19.3502 16.4704 19.1189 16.7802C18.6726 17.3777 18.3086 17.5643 17.5882 17.5643C16.8679 17.5643 16.5039 17.3778 16.0576 16.7803C15.8275 16.4723 15.822 16.329 15.7892 9.72672C15.7709 6.02028 15.7857 2.82265 15.8223 2.62086C15.9045 2.16693 16.3808 1.58569 16.8422 1.37638C17.3033 1.1673 18.2094 1.24542 18.5864 1.52682ZM9.51656 4.59006C9.94143 4.80974 10.31 5.36194 10.38 5.88362C10.4821 6.64502 10.2549 7.04792 9.15787 8.05029C4.7053 12.1189 3.58333 18.2275 6.31388 23.5351C8.7207 28.2137 14.0654 30.9934 19.2399 30.2578C21.4604 29.9423 23.8302 28.9397 25.5172 27.6024C28.981 24.8565 30.839 20.2682 30.2278 15.9699C29.8002 12.9632 28.2427 10.0114 26.0841 8.11669C24.9951 7.16078 24.7799 6.54059 25.2091 5.59562C25.4649 5.0326 25.9873 4.63653 26.5788 4.55727C27.3683 4.45136 27.783 4.69255 29.1427 6.04806C31.4859 8.38407 32.9759 11.1127 33.6614 14.3236C34.0062 15.9379 34.0338 18.8525 33.7201 20.5251C33.0907 23.8821 31.5719 26.7579 29.1494 29.1797C26.7268 31.6018 23.8487 33.121 20.4928 33.7491C18.9296 34.0416 16.2432 34.0413 14.6837 33.7483C7.91516 32.4767 2.72449 27.2876 1.45638 20.5251C1.14553 18.8677 1.17047 15.9366 1.50877 14.3542C2.26556 10.8145 4.01857 7.78393 6.69409 5.38984C7.9065 4.30502 8.59039 4.1112 9.51656 4.59006Z" fill="url(#paint0_linear_355_11813)"/>
<defs>
<linearGradient id="paint0_linear_355_11813" x1="40.021" y1="-6.52728" x2="-13.7231" y2="50.0127" gradientUnits="userSpaceOnUse">
<stop offset="0.135417" stop-color="#214F65"/>
<stop offset="0.598958" stop-color="#296583"/>
<stop offset="0.942708" stop-color="#367897"/>
</linearGradient>
</defs>
</svg>
