<svg width="321" height="179" viewBox="0 0 321 179" fill="none" xmlns="http://www.w3.org/2000/svg">
<g clip-path="url(#clip0_355_11835)">
<g clip-path="url(#clip1_355_11835)">
<path d="M92.1481 102.026C96.4918 102.026 100.013 98.5008 100.013 94.1517C100.013 89.8026 96.4918 86.277 92.1481 86.277C87.8044 86.277 84.2832 89.8026 84.2832 94.1517C84.2832 98.5008 87.8044 102.026 92.1481 102.026Z" fill="#709EB3"/>
<path d="M91.0749 115.902C91.5582 117.456 91.7285 119.09 91.5761 120.711C91.4236 122.331 90.9514 123.905 90.1868 125.341C89.4222 126.778 88.3805 128.048 87.122 129.078C85.8634 130.108 84.4132 130.878 82.8553 131.342C81.2975 131.807 79.663 131.957 78.0467 131.785C76.4303 131.612 74.8643 131.12 73.4394 130.336C72.0144 129.553 70.759 128.495 69.7458 127.222C68.7326 125.949 67.9819 124.488 67.5371 122.922C67.5371 122.922 70.8011 121.947 72.3798 116.194C73.29 112.897 72.842 97.6819 72.842 97.6819C72.842 97.6819 80.3869 110.27 82.6553 112.47C87.2562 116.899 91.0749 115.902 91.0749 115.902Z" fill="#709EB3"/>
<path d="M213.415 153.495C216.643 153.409 219.872 153.438 223.093 153.438H232.771L242.449 153.487H247.292C248.907 153.431 250.524 153.502 252.128 153.701C252.151 153.706 252.172 153.72 252.187 153.739C252.201 153.759 252.208 153.783 252.206 153.807C252.202 153.827 252.192 153.844 252.179 153.858C252.165 153.872 252.147 153.882 252.128 153.886C250.521 154.073 248.901 154.132 247.285 154.063H242.449H232.771L223.079 153.999C219.85 153.999 216.629 153.999 213.4 153.864C213.352 153.861 213.307 153.839 213.274 153.803C213.241 153.768 213.223 153.721 213.223 153.672C213.223 153.648 213.228 153.623 213.237 153.601C213.247 153.578 213.262 153.558 213.28 153.541C213.298 153.525 213.319 153.512 213.342 153.504C213.365 153.496 213.39 153.493 213.415 153.495Z" fill="#15181A"/>
<path d="M202.186 62.5876C203.978 62.5164 205.08 62.5093 206.36 62.495L210.122 62.4523L217.596 62.3882C222.573 62.3882 227.487 62.3882 232.529 62.3882L247.619 62.4381C252.672 62.4381 257.733 62.4381 262.801 62.4381L262.765 62.8368C259.487 62.0607 256.166 61.5552 252.86 60.95L247.882 60.0671L242.904 59.227C242.867 59.2203 242.833 59.2035 242.805 59.1783C242.778 59.1531 242.758 59.1206 242.748 59.0846C242.088 56.7432 240.701 54.6732 238.787 53.175C236.838 51.7137 234.45 50.9603 232.017 51.039C229.586 51.0166 227.205 51.7207 225.176 53.061C223.153 54.4115 221.532 56.2834 220.483 58.4794C220.469 58.5087 220.45 58.5348 220.425 58.5557C220.4 58.5766 220.371 58.5919 220.34 58.6004C217.304 59.3124 214.303 60.0244 211.302 60.6794L202.186 62.5876ZM201.475 62.6659L210.826 60.3448C213.976 59.583 217.126 58.9208 220.241 58.2088L220.099 58.3298C221.175 56.0591 222.843 54.121 224.927 52.7193C227.025 51.3262 229.486 50.5833 232.003 50.5833C234.527 50.5066 237.003 51.287 239.028 52.7976C240.029 53.5635 240.888 54.4984 241.567 55.5602C242.263 56.6058 242.791 57.7542 243.132 58.9635L242.989 58.814L247.967 59.7752L252.945 60.7079C256.252 61.306 259.537 62.0038 262.9 62.431C262.926 62.4344 262.952 62.4431 262.974 62.4566C262.997 62.4701 263.016 62.488 263.031 62.5094C263.047 62.5307 263.058 62.555 263.063 62.5807C263.069 62.6064 263.069 62.633 263.064 62.6588C263.057 62.7066 263.033 62.7503 262.996 62.7817C262.96 62.8131 262.913 62.8302 262.865 62.8297C257.773 62.7917 252.677 62.7798 247.576 62.7941L232.202 62.8439C227.053 62.8439 221.834 62.8866 216.636 62.8439L208.863 62.7798L205.009 62.7371C203.665 62.7442 202.221 62.7371 201.475 62.6659Z" fill="#15181A"/>
<path d="M148.41 72.35C144.634 68.9609 138.22 67.544 135.703 70.449L127.283 78.758C124.922 81.485 126.935 87.1098 131.785 91.3248C136.634 95.5398 142.451 96.7431 144.841 94.0162L152.158 84.7602C154.647 81.8623 152.528 76.0666 148.41 72.35Z" fill="#25536A"/>
<path d="M163.579 157.982C163.281 157.969 162.989 157.897 162.718 157.771C162.448 157.645 162.205 157.467 162.004 157.247C161.802 157.026 161.646 156.769 161.544 156.488C161.443 156.207 161.397 155.909 161.41 155.611L166.061 58.1736L169.887 58.3445L165.947 155.782C165.938 156.082 165.87 156.378 165.745 156.652C165.621 156.926 165.443 157.173 165.223 157.378C165.003 157.582 164.744 157.741 164.462 157.845C164.18 157.949 163.88 157.995 163.579 157.982Z" fill="#709EB3"/>
<path d="M140.176 157.853C139.887 157.769 139.617 157.629 139.383 157.44C139.149 157.251 138.954 157.017 138.811 156.752C138.667 156.487 138.577 156.196 138.547 155.897C138.516 155.597 138.546 155.294 138.633 155.005L168.101 55.4963L171.778 56.5715L142.999 156.337C142.822 156.91 142.426 157.391 141.898 157.674C141.37 157.958 140.751 158.022 140.176 157.853Z" fill="#709EB3"/>
<path d="M201.098 157.853C200.814 157.95 200.513 157.991 200.214 157.972C199.914 157.953 199.621 157.875 199.352 157.743C199.083 157.611 198.842 157.427 198.643 157.201C198.445 156.976 198.293 156.713 198.196 156.429L163.572 57.4607L167.192 56.2004L202.491 154.962C202.687 155.53 202.65 156.153 202.389 156.695C202.128 157.236 201.664 157.652 201.098 157.853Z" fill="#709EB3"/>
<path d="M246.609 88.7885L228.831 74.5485C223.242 69.6642 212.056 73.7297 204.852 81.7326C198.296 89.0163 195.53 101.419 201.119 106.304L217.112 122.68C222.36 127.265 233.233 123.392 241.389 114.043C249.546 104.695 251.864 93.3453 246.609 88.7885ZM239.206 111.985C231.576 120.736 221.571 124.488 216.856 120.366C212.141 116.243 214.495 105.805 222.125 97.0548C229.756 88.3043 239.754 84.5592 244.468 88.6746C249.183 92.7899 246.829 103.199 239.206 111.95V111.985Z" fill="#25536A"/>
<path d="M231.787 105.747C235.528 101.454 236.609 96.268 234.2 94.1634C231.792 92.0588 226.806 93.8329 223.064 98.1259C219.322 102.419 218.242 107.605 220.65 109.71C223.059 111.814 228.045 110.04 231.787 105.747Z" fill="#15181A"/>
<path d="M222.843 73.5154C217.268 69.0085 187.487 45.84 172.703 45.1921C157.919 44.5441 139.06 72.0629 139.06 72.0629C139.06 72.0629 136.785 75.8009 140.774 79.5745C145.546 84.0815 149.307 82.7358 149.307 82.7358C149.307 82.7358 160.5 68.3677 168.202 70.5108C175.903 72.6539 201.844 100.977 201.844 100.977L222.843 73.5154Z" fill="#25536A"/>
<path d="M172.312 72.7627C169.418 70.9399 163.345 65.721 166.901 55.4967C168.671 50.3845 173.5 44.8167 177.255 45.9843C179.617 46.7423 181.921 47.6753 184.145 48.7754C184.145 48.7754 184.287 43.6988 177.432 41.335C175.299 40.623 165.642 40.1531 160.287 52.7768C155.694 63.5992 160.465 69.9431 164.22 72.2999C167.975 74.6566 172.312 72.7627 172.312 72.7627Z" fill="#709EB3"/>
<path d="M219.722 94.67C222.623 91.3646 226.128 88.6436 230.047 86.6529C232.021 85.6503 234.157 85.0066 236.355 84.7519C237.471 84.5955 238.607 84.6682 239.694 84.9657C240.78 85.2631 241.795 85.7791 242.677 86.482C243.473 87.2686 244.1 88.21 244.52 89.2484C244.939 90.2867 245.142 91.4 245.116 92.5198C245.112 94.7046 244.732 96.8724 243.992 98.9278C243.273 100.986 242.334 102.96 241.19 104.816C240.039 106.662 238.753 108.421 237.343 110.078C235.909 111.714 234.347 113.233 232.671 114.62C230.986 115.995 229.16 117.189 227.224 118.18C225.286 119.217 223.179 119.899 221.002 120.195C219.886 120.431 218.731 120.407 217.626 120.123C216.521 119.84 215.496 119.305 214.632 118.56C213.767 117.816 213.085 116.881 212.64 115.83C212.194 114.779 211.997 113.639 212.063 112.499C212.021 110.278 212.373 108.067 213.102 105.969C214.543 101.803 216.793 97.963 219.722 94.67ZM220.561 95.382C219.184 97.0127 217.916 98.7324 216.764 100.53C215.635 102.338 214.703 104.262 213.983 106.269C213.247 108.253 212.869 110.353 212.867 112.47C212.776 113.518 212.93 114.573 213.318 115.551C213.706 116.528 214.316 117.402 215.101 118.102C215.886 118.801 216.822 119.308 217.837 119.581C218.852 119.854 219.916 119.887 220.945 119.675C223.07 119.422 225.134 118.793 227.039 117.817C234.733 113.754 240.65 106.981 243.651 98.8068C244.371 96.7859 244.718 94.6507 244.675 92.5056C244.752 91.4487 244.58 90.3885 244.174 89.4098C243.769 88.4311 243.14 87.561 242.338 86.8691C241.537 86.1772 240.585 85.6827 239.558 85.4251C238.531 85.1675 237.459 85.154 236.426 85.3856C234.323 85.6776 232.289 86.3405 230.417 87.3436C226.651 89.3807 223.307 92.1158 220.561 95.4034V95.382ZM169.439 73.6732C171.95 80.5297 174.346 87.429 176.764 94.3212L184.024 114.969L191.249 135.653L194.854 145.991C196.035 149.451 197.343 152.862 198.289 156.4C198.294 156.425 198.289 156.45 198.276 156.471C198.262 156.492 198.242 156.508 198.218 156.514C198.196 156.518 198.174 156.514 198.155 156.504C198.136 156.494 198.12 156.477 198.111 156.457C196.647 153.104 195.537 149.622 194.307 146.183L190.687 135.852L183.441 115.204L176.238 94.4849C173.834 87.5856 171.409 80.7006 169.126 73.7728C169.119 73.7504 169.115 73.7266 169.116 73.7028C169.118 73.6791 169.124 73.6558 169.134 73.6343C169.144 73.6128 169.158 73.5935 169.176 73.5776C169.194 73.5617 169.214 73.5494 169.237 73.5414C169.259 73.5335 169.283 73.53 169.307 73.5313C169.33 73.5325 169.354 73.5384 169.375 73.5487C169.397 73.5589 169.416 73.5733 169.432 73.591C169.448 73.6087 169.46 73.6294 169.468 73.6518L169.439 73.6732ZM165.116 80.0028C165.045 86.3183 164.696 92.6124 164.405 98.9207L163.587 117.824L162.698 136.728L162.243 146.176L162.015 150.904C162.022 152.492 161.819 154.075 161.411 155.61C161.404 155.617 161.395 155.62 161.386 155.62C161.377 155.62 161.368 155.617 161.361 155.61C161.1 154.043 161.047 152.449 161.205 150.868L161.425 146.141L161.873 136.692L162.79 117.789L163.779 98.8922C164.127 92.5981 164.376 86.2898 164.91 80.0028C164.913 79.9777 164.926 79.9548 164.946 79.9389C164.966 79.923 164.991 79.9153 165.016 79.9174C165.04 79.9171 165.064 79.9257 165.082 79.9414C165.1 79.9571 165.112 79.9789 165.116 80.0028ZM177.382 41.4409C176.522 41.25 175.637 41.19 174.758 41.2629C173.882 41.323 173.013 41.466 172.163 41.6901C170.467 42.1521 168.866 42.9114 167.434 43.9329C164.606 46.065 162.397 48.9136 161.034 52.185C160.272 53.7763 159.69 55.448 159.299 57.169C158.887 58.8759 158.738 60.636 158.858 62.388C159.138 65.9044 160.791 69.1687 163.459 71.4731C163.499 71.507 163.529 71.5521 163.544 71.6027C163.559 71.6533 163.559 71.7072 163.544 71.7579L151.256 113.453L145.098 134.3L142.019 144.724L140.476 149.943C139.957 151.673 139.431 153.41 138.783 155.105C138.769 155.152 138.737 155.191 138.694 155.215C138.65 155.238 138.599 155.243 138.552 155.229C138.505 155.215 138.466 155.183 138.442 155.139C138.419 155.096 138.414 155.045 138.428 154.998C138.805 153.225 139.31 151.481 139.85 149.743L141.393 144.531L144.486 134.115L150.666 113.275L163.054 71.5941L163.146 71.886C161.651 70.785 160.415 69.369 159.525 67.7377C158.636 66.1065 158.114 64.2998 157.998 62.4449C157.863 60.6049 158.017 58.7551 158.453 56.9625C158.854 55.1796 159.455 53.4479 160.245 51.8005C161.71 48.4207 164.046 45.4916 167.014 43.3135C168.519 42.2704 170.209 41.5237 171.992 41.1134C173.782 40.6687 175.657 40.7105 177.425 41.2344C177.439 41.2383 177.451 41.2451 177.462 41.2543C177.473 41.2634 177.482 41.2748 177.488 41.2876C177.494 41.3004 177.497 41.3143 177.497 41.3285C177.498 41.3427 177.495 41.3567 177.489 41.3697C177.481 41.3957 177.463 41.4175 177.439 41.4308C177.415 41.444 177.388 41.4476 177.361 41.4409H177.382ZM198.289 103.876C197.465 103.127 196.804 102.215 196.347 101.198C195.891 100.182 195.649 99.0813 195.637 97.9666C195.573 95.7515 195.906 93.5428 196.618 91.4447C198.055 87.2759 200.295 83.4297 203.21 80.1239C206.062 76.7552 209.561 73.995 213.5 72.0071C215.486 71.0198 217.631 70.393 219.836 70.1559C220.945 70.0182 222.07 70.1123 223.141 70.4322C224.212 70.752 225.205 71.2907 226.058 72.0142C226.081 72.0369 226.093 72.0676 226.093 72.0996C226.093 72.1317 226.081 72.1624 226.058 72.1851C226.047 72.1961 226.035 72.2048 226.021 72.2108C226.007 72.2167 225.992 72.2198 225.976 72.2198C225.961 72.2198 225.946 72.2167 225.932 72.2108C225.918 72.2048 225.905 72.1961 225.894 72.1851C225.036 71.5731 224.064 71.1394 223.036 70.9095C222.008 70.6796 220.944 70.6582 219.907 70.8465C217.813 71.1608 215.791 71.843 213.934 72.8615C210.182 74.8989 206.831 77.6008 204.042 80.8359C202.639 82.4466 201.364 84.1655 200.23 85.9765L199.427 87.3649C199.171 87.8348 198.943 88.3119 198.716 88.7889C198.238 89.7395 197.82 90.7192 197.464 91.7224C196.713 93.7098 196.313 95.8132 196.284 97.9381C196.232 98.9938 196.395 100.049 196.761 101.04C197.128 102.031 197.691 102.938 198.417 103.705C198.428 103.715 198.436 103.726 198.442 103.739C198.448 103.752 198.451 103.766 198.451 103.78C198.451 103.794 198.448 103.808 198.442 103.821C198.436 103.834 198.428 103.845 198.417 103.855C198.401 103.872 198.38 103.883 198.357 103.887C198.334 103.891 198.31 103.887 198.289 103.876ZM125.365 80.8216C124.662 81.7745 124.365 82.9678 124.54 84.1396C124.682 85.3139 125.037 86.4525 125.585 87.5002C127.851 91.7376 131.602 94.9863 136.117 96.6209C137.227 97.0053 138.398 97.1861 139.573 97.1549C140.149 97.1572 140.72 97.0458 141.253 96.8271C141.786 96.6085 142.271 96.2868 142.68 95.8804C142.698 95.8617 142.72 95.8468 142.744 95.8366C142.767 95.8264 142.793 95.8212 142.819 95.8212C142.845 95.8212 142.87 95.8264 142.894 95.8366C142.918 95.8468 142.94 95.8617 142.958 95.8804C142.99 95.9168 143.007 95.9637 143.007 96.0122C143.007 96.0606 142.99 96.1075 142.958 96.1439C142.09 97.0984 140.881 97.6715 139.594 97.7388C138.343 97.8121 137.089 97.6527 135.896 97.2688C133.55 96.48 131.382 95.2357 129.516 93.6071C127.65 91.9786 126.124 89.9977 125.023 87.7779C124.489 86.6595 124.161 85.4533 124.056 84.2179C123.949 82.9505 124.345 81.6919 125.159 80.7148C125.169 80.7027 125.182 80.693 125.197 80.6864C125.212 80.6797 125.228 80.6763 125.244 80.6763C125.26 80.6763 125.276 80.6797 125.291 80.6864C125.305 80.693 125.318 80.7027 125.329 80.7148C125.34 80.7255 125.349 80.7382 125.355 80.7523C125.361 80.7663 125.364 80.7814 125.364 80.7967C125.364 80.812 125.361 80.8271 125.355 80.8412C125.349 80.8553 125.34 80.868 125.329 80.8786L125.365 80.8216ZM134.225 71.8576C133.562 72.7792 133.281 73.9228 133.443 75.0473C133.596 76.1748 133.94 77.268 134.46 78.2798C135.538 80.3017 136.985 82.1033 138.727 83.5913C140.454 85.0918 142.449 86.2514 144.607 87.0089C145.671 87.3894 146.792 87.5868 147.921 87.5928C149.062 87.6175 150.171 87.2136 151.029 86.4607C151.037 86.4522 151.049 86.4474 151.061 86.4474C151.073 86.4474 151.084 86.4522 151.093 86.4607C151.101 86.4692 151.106 86.4807 151.106 86.4927C151.106 86.5047 151.101 86.5163 151.093 86.5248C150.71 86.9984 150.234 87.3882 149.695 87.6699C149.155 87.9516 148.564 88.1193 147.957 88.1624C146.757 88.2686 145.549 88.1355 144.401 87.7708C142.116 87.032 140.013 85.8189 138.229 84.2108C137.335 83.4179 136.509 82.5509 135.761 81.6191C135.024 80.677 134.398 79.6519 133.898 78.5646C133.371 77.4762 133.057 76.2967 132.974 75.09C132.921 74.4822 132.99 73.87 133.177 73.2892C133.364 72.7085 133.665 72.1709 134.062 71.708C134.072 71.6959 134.084 71.6859 134.099 71.6786C134.113 71.6713 134.128 71.6668 134.144 71.6655C134.16 71.6642 134.176 71.666 134.191 71.6709C134.206 71.6757 134.22 71.6835 134.232 71.6938C134.244 71.7041 134.254 71.7167 134.262 71.7308C134.269 71.745 134.273 71.7604 134.275 71.7763C134.276 71.7922 134.274 71.8081 134.269 71.8233C134.265 71.8385 134.257 71.8525 134.247 71.8647L134.225 71.8576Z" fill="#15181A"/>
<path d="M139.28 73.1257C138.866 73.6832 138.687 74.3813 138.782 75.0695C138.873 75.7592 139.079 76.4285 139.394 77.0488C140.734 79.5342 142.949 81.4322 145.609 82.3746C146.261 82.5947 146.947 82.7006 147.635 82.6879C148.303 82.6858 148.946 82.4315 149.434 81.9759C149.448 81.9617 149.465 81.9504 149.483 81.9427C149.502 81.935 149.521 81.931 149.541 81.931C149.561 81.931 149.581 81.935 149.599 81.9427C149.617 81.9504 149.634 81.9617 149.648 81.9759C149.673 82.0044 149.687 82.0411 149.687 82.0791C149.687 82.1171 149.673 82.1538 149.648 82.1824C149.142 82.7298 148.443 83.0569 147.699 83.0937C146.958 83.1358 146.215 83.0392 145.509 82.8089C142.721 81.8519 140.422 79.8336 139.109 77.1912C138.783 76.5224 138.588 75.7975 138.533 75.0552C138.472 74.31 138.701 73.5699 139.173 72.9904C139.18 72.9827 139.189 72.9765 139.199 72.9723C139.209 72.9681 139.219 72.9659 139.23 72.9659C139.241 72.9659 139.251 72.9681 139.261 72.9723C139.271 72.9765 139.28 72.9827 139.287 72.9904C139.3 73.0049 139.308 73.024 139.308 73.0438C139.308 73.0637 139.3 73.0827 139.287 73.0972L139.28 73.1257ZM38.9776 43.3784C42.2203 43.3 44.8158 43.236 47.2407 43.2075L54.4585 43.1292L61.5696 43.0793H68.6238L82.7607 43.1505H97.1323L126.032 43.2288C135.682 43.2644 145.367 43.2288 155.038 43.2288L154.988 43.6276L131.962 37.5186C131.922 37.5061 131.886 37.4818 131.86 37.4488C131.833 37.4158 131.817 37.3757 131.813 37.3335C131.422 34.8397 130.38 32.4939 128.791 30.5339C127.163 28.6051 124.988 27.2171 122.554 26.5538C120.126 25.8434 117.561 25.7335 115.081 26.2334C112.598 26.7281 110.27 27.8095 108.29 29.3876C108.251 29.4241 108.2 29.4445 108.147 29.4445C108.094 29.4445 108.043 29.4241 108.005 29.3876C107.984 29.3579 107.969 29.3238 107.962 29.2879C107.166 25.6907 105.12 22.4936 102.188 20.2668C100.727 19.195 99.073 18.4142 97.3172 17.9671C95.5483 17.5243 93.7285 17.3184 91.9056 17.3548C90.0801 17.3444 88.2618 17.584 86.5012 18.0668C84.7491 18.5491 83.1152 19.3877 81.7012 20.5303C80.3213 21.7208 79.1933 23.1757 78.3836 24.8093C77.5739 26.443 77.0989 28.2223 76.9865 30.0426C76.9856 30.0694 76.9793 30.0958 76.968 30.1201C76.9567 30.1444 76.9406 30.1662 76.9207 30.1842C76.9008 30.2021 76.8774 30.2159 76.8521 30.2246C76.8267 30.2333 76.7999 30.2368 76.7732 30.2348C76.7421 30.231 76.7122 30.2208 76.6853 30.2049C76.6584 30.189 76.635 30.1676 76.6167 30.1423C75.3104 28.3872 73.5139 27.0591 71.454 26.326C69.3834 25.6305 67.1494 25.5883 65.054 26.2049C62.9172 26.7299 61.0502 28.0286 59.8132 29.8504C58.6115 31.7138 57.9697 33.8836 57.9643 36.1017C57.9735 36.127 57.9735 36.1548 57.9643 36.18C56.6045 37.2681 55.1254 38.1973 53.5554 38.9497C52.009 39.7164 50.418 40.3892 48.7909 40.9647C47.1767 41.5699 45.5198 42.0398 43.8558 42.4884C43.0238 42.7091 42.1776 42.8942 41.3456 43.1007C40.562 43.2369 39.7714 43.3296 38.9776 43.3784ZM38.5723 43.414C39.4552 43.1296 40.3524 42.892 41.2603 42.702C42.0923 42.5097 42.9314 42.3246 43.7634 42.1181C45.4203 41.6838 47.0772 41.2281 48.6843 40.6443C50.3035 40.0857 51.8874 39.4295 53.4274 38.6792C54.9731 37.9502 56.4308 37.0472 57.7723 35.9878L57.7296 36.0804C57.705 33.8237 58.3268 31.6073 59.5216 29.6937C60.7846 27.8003 62.706 26.4451 64.9118 25.8916C67.0795 25.2362 69.3964 25.266 71.5465 25.9771C73.6897 26.7213 75.5619 28.0899 76.9225 29.9073L76.5527 30.0141C76.6415 28.1221 77.0955 26.2652 77.8896 24.546C78.6669 22.8051 79.8292 21.264 81.2887 20.039C82.7493 18.8306 84.4442 17.9385 86.2665 17.4188C88.0827 16.9032 89.9609 16.6397 91.8487 16.6356C93.7344 16.5837 95.6187 16.7824 97.4523 17.2266C100.244 17.8984 102.77 19.3946 104.702 21.5211C106.635 23.6476 107.885 26.3064 108.29 29.1526L107.955 29.0316C109.969 27.365 112.359 26.2162 114.917 25.6851C117.475 25.154 120.123 25.2567 122.633 25.9842C125.179 26.6602 127.457 28.1015 129.161 30.1138C130.831 32.1436 131.872 34.6187 132.154 37.2338L132.005 37.0558L155.081 43.2217C155.133 43.2352 155.179 43.2689 155.207 43.3156C155.235 43.3622 155.243 43.4181 155.23 43.4709C155.217 43.5136 155.19 43.5509 155.155 43.5778C155.119 43.6046 155.076 43.6195 155.031 43.6204C145.324 43.5848 135.632 43.5492 125.911 43.5848L96.6772 43.6632H81.9927L67.0594 43.7272H59.5856L52.1545 43.6774L44.8443 43.5991C42.4549 43.5564 40.1723 43.4923 38.5723 43.414ZM70.6149 147.722C76.0123 147.637 81.4096 147.665 86.8069 147.672H102.992L119.177 147.729H127.269C129.964 147.729 132.666 147.665 135.362 147.95C135.385 147.953 135.407 147.965 135.423 147.984C135.439 148.002 135.447 148.025 135.447 148.049C135.443 148.071 135.433 148.09 135.417 148.105C135.402 148.121 135.383 148.131 135.362 148.135C132.666 148.405 129.964 148.292 127.269 148.306H119.177H102.992L86.7998 148.235C81.4096 148.235 76.0123 148.235 70.6149 148.085C70.573 148.077 70.5352 148.054 70.5081 148.021C70.481 147.988 70.4661 147.946 70.4661 147.904C70.4661 147.861 70.481 147.819 70.5081 147.786C70.5352 147.753 70.573 147.73 70.6149 147.722ZM207.511 147.765C213.989 147.693 220.467 147.765 226.946 147.765L246.38 147.829L265.808 147.936L275.522 147.985C278.764 148.028 282 147.936 285.242 148.235C285.254 148.235 285.266 148.239 285.277 148.244C285.287 148.25 285.296 148.258 285.304 148.267C285.311 148.276 285.316 148.287 285.319 148.299C285.322 148.31 285.323 148.323 285.321 148.334C285.319 148.356 285.31 148.377 285.294 148.393C285.278 148.409 285.257 148.418 285.235 148.42C282 148.683 278.757 148.562 275.522 148.569H265.808L246.373 148.484L226.946 148.363C220.467 148.32 213.989 148.306 207.511 148.178C207.486 148.178 207.462 148.173 207.439 148.163C207.417 148.153 207.397 148.139 207.38 148.121C207.363 148.103 207.35 148.081 207.342 148.058C207.334 148.035 207.331 148.01 207.333 147.985C207.327 147.959 207.326 147.931 207.332 147.904C207.338 147.877 207.35 147.852 207.367 147.831C207.385 147.809 207.406 147.792 207.431 147.781C207.456 147.769 207.484 147.764 207.511 147.765ZM280.926 108.619H272.57C272.524 108.619 272.478 108.607 272.438 108.583C272.398 108.559 272.365 108.525 272.343 108.484C272.318 108.443 272.306 108.396 272.306 108.348C272.306 108.301 272.318 108.254 272.343 108.213L276.517 100.972C276.542 100.932 276.577 100.9 276.618 100.877C276.659 100.854 276.705 100.842 276.752 100.842C276.799 100.842 276.845 100.854 276.886 100.877C276.927 100.9 276.962 100.932 276.986 100.972L281.161 108.213C281.185 108.254 281.198 108.301 281.198 108.348C281.198 108.396 281.185 108.443 281.161 108.484C281.138 108.525 281.103 108.56 281.062 108.584C281.021 108.608 280.974 108.62 280.926 108.619ZM273.04 108.078H280.457L276.752 101.67L273.04 108.078ZM206.01 33.6097H197.655C197.608 33.6091 197.561 33.5964 197.52 33.5727C197.479 33.549 197.445 33.5152 197.42 33.4744C197.399 33.4325 197.388 33.3862 197.388 33.3392C197.388 33.2922 197.399 33.2458 197.42 33.2039L201.602 25.9557C201.628 25.9175 201.663 25.8863 201.704 25.8647C201.745 25.8432 201.79 25.8319 201.836 25.8319C201.882 25.8319 201.928 25.8432 201.969 25.8647C202.01 25.8863 202.045 25.9175 202.071 25.9557L206.245 33.2039C206.27 33.2448 206.282 33.2915 206.282 33.3392C206.282 33.3868 206.27 33.4336 206.245 33.4744C206.222 33.5162 206.188 33.5508 206.147 33.5746C206.105 33.5985 206.058 33.6106 206.01 33.6097ZM198.124 33.0686H205.541L201.836 26.6606L198.124 33.0686ZM93.5127 115.397C93.7407 115.897 93.9148 116.42 94.0318 116.956C94.0887 117.405 94.1243 117.804 94.174 118.224C94.2238 118.644 94.174 119.064 94.174 119.477C94.174 119.89 94.1172 120.31 94.0816 120.723C93.886 122.38 93.3768 123.984 92.5812 125.451C91.7904 126.918 90.7184 128.214 89.4266 129.266C88.1348 130.318 86.6484 131.105 85.0527 131.581C83.4569 132.057 81.783 132.214 80.1268 132.041C78.4706 131.869 76.8646 131.371 75.4007 130.577C72.4374 128.976 70.2208 126.273 69.2283 123.051C69.1954 122.942 69.205 122.824 69.255 122.721C69.3051 122.618 69.392 122.537 69.4985 122.496H69.5412C70.0113 122.311 70.4484 122.052 70.8354 121.727C71.2487 121.388 71.6274 121.009 71.966 120.595C72.6424 119.728 73.1908 118.769 73.5945 117.747C73.8079 117.238 73.993 116.717 74.1492 116.187C74.2274 115.924 74.27 115.661 74.3269 115.397L74.4478 114.578C74.5758 113.468 74.654 112.343 74.7109 111.218C74.9172 106.718 74.9172 102.19 74.8674 97.6897C74.8664 97.676 74.8683 97.6623 74.8728 97.6494C74.8774 97.6365 74.8846 97.6246 74.8939 97.6146C74.9032 97.6046 74.9146 97.5966 74.9271 97.5911C74.9397 97.5857 74.9532 97.5829 74.9669 97.5829C74.9851 97.5837 75.0028 97.5886 75.0188 97.5973C75.0348 97.6059 75.0487 97.618 75.0594 97.6328C77.47 101.47 79.9234 105.287 82.5332 108.975C83.1945 109.886 83.8558 110.812 84.574 111.645C85.3167 112.458 86.1575 113.176 87.0772 113.781C87.9765 114.386 88.9618 114.852 89.9998 115.162C90.5103 115.31 91.0345 115.405 91.5643 115.447C91.8223 115.465 92.0813 115.465 92.3394 115.447C92.4673 115.454 92.5955 115.454 92.7234 115.447H92.9012H92.9865H93.0292C93.0951 115.436 93.1623 115.436 93.2283 115.447C93.3193 115.413 93.4157 115.396 93.5127 115.397ZM92.9438 116.415C93.0056 116.457 93.0762 116.484 93.15 116.494C93.1995 116.502 93.25 116.502 93.2994 116.494H93.2354H93.1074H92.8727C92.7163 116.494 92.5598 116.494 92.4034 116.494C92.0968 116.502 91.7899 116.486 91.486 116.444C90.8864 116.377 90.2954 116.249 89.7225 116.059C88.5994 115.682 87.5396 115.138 86.5794 114.443C85.6208 113.767 84.749 112.976 83.9838 112.086C83.2727 111.175 82.6327 110.228 81.9927 109.281C79.5038 105.479 77.1927 101.577 74.8816 97.6541L75.0736 97.5972C75.2443 102.118 75.3652 106.64 75.2727 111.168C75.2727 112.3 75.1945 113.439 75.0949 114.578L74.9954 115.433C74.9385 115.725 74.8887 116.024 74.8176 116.301C74.6678 116.861 74.4898 117.412 74.2843 117.953C73.8775 119.05 73.3173 120.083 72.6203 121.022C71.8888 122.015 70.9073 122.797 69.7758 123.286L70.0887 122.709C70.5212 124.209 71.2468 125.607 72.2234 126.823C73.2 128.039 74.4081 129.049 75.7776 129.794C77.1443 130.546 78.6455 131.021 80.1957 131.193C81.7459 131.364 83.3146 131.228 84.8122 130.792C86.3098 130.357 87.7071 129.63 88.9242 128.653C90.1413 127.677 91.1544 126.47 91.9056 125.102C92.6419 123.728 93.0919 122.219 93.2283 120.666C93.2283 120.274 93.2283 119.89 93.2283 119.505C93.2283 119.121 93.1856 118.729 93.15 118.345L92.9509 117.22C92.8857 116.956 92.8833 116.68 92.9438 116.415Z" fill="#15181A"/>
<path d="M80.3719 115.517C81.3309 118.071 82.1126 120.688 82.7114 123.349C83.3372 125.998 83.8563 128.668 84.3114 131.359C84.7665 134.05 85.1292 136.742 85.3923 139.462C85.6772 142.183 85.7912 144.921 85.7336 147.657C85.7199 147.765 85.6672 147.865 85.5854 147.937C85.5036 148.009 85.3983 148.049 85.2892 148.049C85.1801 148.049 85.0748 148.009 84.993 147.937C84.9112 147.865 84.8585 147.765 84.8447 147.657C84.9345 144.961 84.8538 142.261 84.603 139.576C84.3683 136.877 84.0625 134.179 83.6785 131.501C83.2945 128.824 82.811 126.147 82.2563 123.499C81.7259 120.842 81.0131 118.225 80.123 115.667C80.1106 115.627 80.1131 115.584 80.1302 115.546C80.1472 115.508 80.1775 115.477 80.2154 115.46C80.2442 115.454 80.2742 115.456 80.3018 115.466C80.3295 115.476 80.3538 115.494 80.3719 115.517ZM103.668 125.022C103.704 125.218 103.704 125.418 103.668 125.613L103.554 126.432C103.554 126.71 103.554 126.987 103.519 127.265C103.483 127.543 103.554 127.82 103.568 128.091C103.768 130.04 104.637 131.859 106.026 133.238C107.416 134.617 109.241 135.47 111.19 135.651C113.138 135.833 115.088 135.332 116.709 134.233C118.329 133.135 119.518 131.507 120.073 129.629L120.379 130.198C119.544 129.833 118.823 129.25 118.288 128.511C117.776 127.824 117.367 127.066 117.072 126.261C116.923 125.862 116.802 125.457 116.688 125.058C116.639 124.851 116.603 124.631 116.56 124.417L116.489 123.79C116.425 122.957 116.39 122.139 116.375 121.32C116.319 118.03 116.418 114.762 116.56 111.494L116.781 111.565C115.124 114.413 113.439 117.204 111.625 119.953C111.156 120.665 110.701 121.32 110.203 121.975C109.65 122.618 109.017 123.188 108.319 123.669C107.626 124.17 106.861 124.562 106.05 124.83C105.637 124.966 105.21 125.057 104.777 125.101C104.557 125.119 104.336 125.119 104.116 125.101H103.782H103.611H103.526H103.476C103.509 125.106 103.542 125.106 103.575 125.101C103.613 125.083 103.645 125.056 103.668 125.022ZM103.284 124.31C103.341 124.288 103.401 124.273 103.462 124.268C103.506 124.26 103.552 124.26 103.597 124.268H103.689H103.817H104.095C104.284 124.278 104.474 124.278 104.663 124.268C105.047 124.239 105.426 124.167 105.794 124.054C106.553 123.828 107.272 123.487 107.927 123.043C108.592 122.609 109.199 122.092 109.734 121.505C110.253 120.9 110.722 120.23 111.199 119.568C113.076 116.891 114.839 114.129 116.575 111.345C116.593 111.318 116.621 111.3 116.653 111.293C116.685 111.287 116.718 111.292 116.745 111.309C116.762 111.32 116.776 111.334 116.786 111.352C116.796 111.369 116.802 111.389 116.802 111.409C116.802 114.677 116.802 117.952 116.951 121.199C116.994 122.018 117.058 122.829 117.151 123.62L117.236 124.211C117.286 124.396 117.314 124.581 117.371 124.773C117.492 125.15 117.613 125.528 117.769 125.891C118.064 126.612 118.459 127.288 118.943 127.899C119.183 128.191 119.452 128.458 119.746 128.696C120.014 128.919 120.317 129.097 120.642 129.223L120.713 129.259C120.811 129.304 120.889 129.383 120.933 129.481C120.978 129.579 120.985 129.689 120.955 129.793C120.604 130.968 120.025 132.062 119.251 133.013C118.478 133.964 117.524 134.753 116.446 135.335C115.367 135.917 114.185 136.281 112.966 136.405C111.747 136.529 110.516 136.411 109.343 136.058C107.583 135.528 106.019 134.488 104.849 133.069C103.68 131.649 102.957 129.915 102.772 128.084C102.772 127.778 102.729 127.479 102.722 127.172C102.715 126.866 102.722 126.567 102.765 126.261C102.807 125.955 102.843 125.67 102.9 125.35C102.994 125.001 103.123 124.662 103.284 124.339V124.31Z" fill="#15181A"/>
<path d="M113.018 124.503C112.343 126.368 111.767 128.269 111.205 130.199C110.643 132.129 110.146 134.03 109.698 135.966C109.25 137.903 108.866 139.847 108.546 141.79C108.204 143.722 108.038 145.681 108.048 147.643C108.048 147.762 108.001 147.876 107.917 147.96C107.833 148.044 107.719 148.092 107.6 148.092C107.481 148.092 107.367 148.044 107.283 147.96C107.199 147.876 107.152 147.762 107.152 147.643C107.126 145.617 107.309 143.594 107.699 141.605C108.048 139.633 108.517 137.689 109.015 135.753C110.022 131.884 111.261 128.08 112.727 124.361C112.742 124.322 112.772 124.291 112.81 124.274C112.848 124.257 112.891 124.256 112.93 124.272C112.968 124.287 112.999 124.317 113.016 124.355C113.033 124.393 113.034 124.436 113.018 124.475V124.503ZM94.9065 93.232C95.9234 97.6891 96.6416 102.196 97.2816 106.71C97.9216 111.224 98.4407 115.76 98.8958 120.302C99.3509 124.845 99.7278 129.387 99.9767 133.944C100.226 138.501 100.396 143.065 100.261 147.643C100.259 147.702 100.246 147.76 100.222 147.814C100.197 147.867 100.163 147.916 100.12 147.956C100.077 147.996 100.027 148.028 99.9715 148.049C99.9164 148.069 99.8578 148.079 99.7989 148.077C99.7414 148.076 99.6845 148.064 99.6318 148.041C99.579 148.018 99.5314 147.984 99.4917 147.943C99.452 147.901 99.421 147.852 99.4005 147.798C99.38 147.744 99.3704 147.686 99.3723 147.629C99.4363 143.093 99.3083 138.544 99.0736 134.001C98.8389 129.459 98.5616 124.909 98.1705 120.373C97.7794 115.838 97.3314 111.303 96.7483 106.788C96.1652 102.274 95.5323 97.7603 94.6149 93.3103C94.6063 93.2707 94.6133 93.2293 94.6345 93.1947C94.6558 93.1602 94.6895 93.1353 94.7287 93.1252C94.7661 93.1196 94.8042 93.1273 94.8367 93.1468C94.8691 93.1662 94.8937 93.1963 94.9065 93.232Z" fill="#15181A"/>
<path d="M89.503 90.6341C93.0297 90.6341 95.8887 87.7715 95.8887 84.2403C95.8887 80.7091 93.0297 77.8466 89.503 77.8466C85.9762 77.8466 83.1172 80.7091 83.1172 84.2403C83.1172 87.7715 85.9762 90.6341 89.503 90.6341Z" fill="#709EB3"/>
<path d="M96.6787 86.3036C96.6512 86.1071 96.6809 85.9069 96.764 85.7268L96.8423 85.5346C96.892 85.3993 96.9418 85.2712 96.9774 85.1359C97.0607 84.8659 97.1226 84.5897 97.1623 84.31C97.2062 84.0322 97.2252 83.751 97.2192 83.4698V83.0426L97.1694 82.6225C97.0091 81.4791 96.5142 80.4088 95.7472 79.5467C94.9854 78.6609 93.9781 78.0216 92.8529 77.7097C91.7261 77.3859 90.5309 77.3859 89.404 77.7097C88.558 77.9699 87.7774 78.4086 87.115 78.9963C86.4526 79.584 85.9236 80.307 85.5638 81.1166C85.2039 81.9262 85.0216 82.8037 85.029 83.6898C85.0364 84.576 85.2334 85.4502 85.6067 86.2537C86.1084 87.3196 86.8994 88.2226 87.8894 88.8596C87.9356 88.8889 87.9683 88.9354 87.9803 88.9888C87.9923 89.0422 87.9826 89.0982 87.9534 89.1444C87.3009 90.1242 86.8845 91.2424 86.7372 92.4107C86.5899 93.5791 86.7156 94.7657 87.1045 95.8771C87.4933 96.9886 88.1347 97.9944 88.978 98.8153C89.8213 99.6362 90.8435 100.25 91.964 100.608C92.705 100.83 93.4733 100.947 94.2467 100.957C95.0179 100.942 95.7835 100.823 96.5223 100.601C97.9895 100.115 99.2744 99.1936 100.206 97.959C100.676 97.3548 101.041 96.6762 101.287 95.9512C101.547 95.2287 101.689 94.469 101.706 93.7012C101.752 92.167 101.319 90.6566 100.469 89.3794C100.047 88.7449 99.529 88.1803 98.9329 87.7062C98.6348 87.4716 98.3212 87.2575 97.9943 87.0654L97.4894 86.802C97.1994 86.6704 96.9271 86.5029 96.6787 86.3036ZM97.596 85.912C97.7383 85.912 97.8023 85.855 97.9089 85.912L98.4707 86.2181C98.8402 86.4302 99.1942 86.6681 99.5303 86.9301C100.193 87.4748 100.769 88.1184 101.237 88.8383C102.184 90.2828 102.655 91.9889 102.581 93.7155C102.55 94.5715 102.384 95.4173 102.09 96.2217C101.807 97.028 101.391 97.7812 100.86 98.4503C99.8131 99.8045 98.3719 100.8 96.7356 101.298C95.9212 101.528 95.0787 101.643 94.2325 101.64C93.3862 101.623 92.5472 101.479 91.7436 101.213C90.5498 100.812 89.4648 100.14 88.5739 99.2497C87.683 98.359 87.0103 97.2737 86.6086 96.0789C86.207 94.8842 86.0873 93.6125 86.2589 92.3636C86.4305 91.1148 86.8888 89.9227 87.5978 88.881L87.6618 89.1658C86.6314 88.478 85.8154 87.5134 85.3072 86.3827C84.799 85.2519 84.6192 84.0007 84.7884 82.7723C84.9576 81.544 85.469 80.3882 86.2639 79.4374C87.0589 78.4866 88.1052 77.7793 89.2832 77.3964C90.4806 77.0227 91.7587 76.9921 92.9727 77.3079C94.1867 77.6237 95.2882 78.2735 96.1525 79.1836C97.0276 80.1084 97.6263 81.2603 97.8805 82.5086L97.9658 82.9785L98.0014 83.4556C98.0334 83.7752 98.0334 84.0972 98.0014 84.4168C97.9778 84.7398 97.9327 85.0609 97.8663 85.378C97.8663 85.5346 97.788 85.6912 97.7454 85.8479L97.6743 86.0828C97.6245 86.2395 97.7098 85.9974 97.596 85.9404V85.912Z" fill="#15181A"/>
<path d="M66.307 70.2491L62.1328 77.4973H70.4884L66.307 70.2491Z" fill="#25536A"/>
<path d="M50.057 70.2491L45.8828 77.4973H54.2313L50.057 70.2491Z" fill="#25536A"/>
<path d="M58.1852 56.0225L54.0039 63.2635H62.3595L58.1852 56.0225Z" fill="#25536A"/>
</g>
</g>
<defs>
<clipPath id="clip0_355_11835">
<rect width="320" height="178" fill="white" transform="translate(0.5 0.5)"/>
</clipPath>
<clipPath id="clip1_355_11835">
<rect width="320" height="178" fill="white" transform="translate(0.5 0.5)"/>
</clipPath>
</defs>
</svg>
