<svg width="320" height="178" viewBox="0 0 320 178" fill="none" xmlns="http://www.w3.org/2000/svg">
<g clip-path="url(#clip0_1055_8887)">
<path d="M91.6481 101.4C95.9918 101.4 99.513 97.8785 99.513 93.5348C99.513 89.1912 95.9918 85.6699 91.6481 85.6699C87.3044 85.6699 83.7832 89.1912 83.7832 93.5348C83.7832 97.8785 87.3044 101.4 91.6481 101.4Z" fill="#C5DBFF"/>
<path d="M90.5739 115.258C91.0572 116.81 91.2275 118.442 91.0751 120.061C90.9226 121.679 90.4504 123.251 89.6859 124.686C88.9213 126.12 87.8795 127.388 86.621 128.417C85.3625 129.446 83.9122 130.215 82.3544 130.679C80.7965 131.143 79.162 131.293 77.5457 131.121C75.9293 130.948 74.3633 130.457 72.9384 129.674C71.5135 128.892 70.258 127.835 69.2448 126.564C68.2317 125.293 67.4809 123.833 67.0361 122.269C67.0361 122.269 70.3001 121.295 71.8788 115.549C72.789 112.257 72.341 97.0605 72.341 97.0605C72.341 97.0605 79.8859 109.633 82.1544 111.83C86.7552 116.253 90.5739 115.258 90.5739 115.258Z" fill="#C5DBFF"/>
<path d="M212.914 152.804C216.142 152.718 219.371 152.747 222.592 152.747H232.27L241.948 152.797H246.791C248.406 152.74 250.023 152.811 251.627 153.01C251.65 153.015 251.672 153.029 251.686 153.048C251.7 153.068 251.707 153.092 251.705 153.117C251.701 153.136 251.691 153.154 251.678 153.167C251.664 153.181 251.646 153.191 251.627 153.195C250.02 153.382 248.4 153.441 246.784 153.373H241.948H232.27L222.578 153.309C219.349 153.309 216.128 153.309 212.899 153.173C212.851 153.17 212.806 153.148 212.773 153.112C212.74 153.077 212.722 153.03 212.722 152.981C212.722 152.957 212.727 152.932 212.736 152.91C212.746 152.887 212.761 152.867 212.779 152.85C212.797 152.834 212.818 152.821 212.841 152.813C212.864 152.805 212.889 152.802 212.914 152.804Z" fill="#15181A"/>
<path d="M201.686 62.0101C203.478 61.939 204.58 61.9319 205.86 61.9177L209.622 61.875L217.096 61.811C222.073 61.811 226.987 61.811 232.029 61.811L247.119 61.8608C252.172 61.8608 257.233 61.8608 262.301 61.8608L262.265 62.259C258.987 61.4839 255.666 60.979 252.36 60.3746L247.382 59.4928L242.404 58.6537C242.367 58.647 242.333 58.6302 242.305 58.605C242.278 58.5799 242.258 58.5474 242.248 58.5114C241.588 56.173 240.201 54.1055 238.287 52.6092C236.338 51.1497 233.95 50.3973 231.517 50.4759C229.086 50.4536 226.705 51.1568 224.676 52.4954C222.653 53.8442 221.032 55.7137 219.983 57.907C219.969 57.9363 219.95 57.9624 219.925 57.9832C219.9 58.0041 219.871 58.0194 219.84 58.0279C216.804 58.739 213.803 59.4501 210.802 60.1043L201.686 62.0101ZM200.975 62.0883L210.326 59.7701C213.476 59.0092 216.626 58.3479 219.741 57.6368L219.599 57.7577C220.675 55.4898 222.343 53.5541 224.427 52.1541C226.525 50.7628 228.986 50.0208 231.503 50.0208C234.027 49.9442 236.503 50.7236 238.528 52.2323C239.529 52.9972 240.388 53.931 241.067 54.9914C241.763 56.0358 242.291 57.1827 242.632 58.3906L242.489 58.2412L247.467 59.2012L252.445 60.1328C255.752 60.7301 259.037 61.427 262.4 61.8537C262.426 61.8571 262.452 61.8658 262.474 61.8792C262.497 61.8927 262.516 61.9107 262.531 61.932C262.547 61.9533 262.558 61.9776 262.563 62.0032C262.569 62.0289 262.569 62.0555 262.564 62.0812C262.557 62.129 262.533 62.1726 262.496 62.204C262.46 62.2353 262.413 62.2524 262.365 62.2519C257.273 62.214 252.177 62.2021 247.076 62.2163L231.702 62.2661C226.553 62.2661 221.334 62.3088 216.136 62.2661L208.363 62.2021L204.509 62.1594C203.165 62.1666 201.721 62.1594 200.975 62.0883Z" fill="#15181A"/>
<path d="M147.911 71.7603C144.135 68.3755 137.721 66.9603 135.204 69.8617L126.784 78.1603C124.423 80.8839 126.436 86.5017 131.286 90.7115C136.135 94.9212 141.952 96.123 144.342 93.3995L151.659 84.155C154.148 81.2608 152.029 75.4723 147.911 71.7603Z" fill="#614B98"/>
<path d="M163.079 157.285C162.781 157.272 162.489 157.201 162.218 157.075C161.948 156.949 161.705 156.771 161.504 156.551C161.302 156.331 161.146 156.073 161.044 155.793C160.943 155.513 160.897 155.215 160.91 154.917L165.561 57.6016L169.387 57.7722L165.447 155.088C165.438 155.388 165.37 155.684 165.245 155.957C165.121 156.231 164.943 156.477 164.723 156.682C164.503 156.886 164.244 157.045 163.962 157.148C163.68 157.252 163.38 157.298 163.079 157.285Z" fill="#C5DBFF"/>
<path d="M139.677 157.157C139.388 157.073 139.118 156.933 138.884 156.744C138.65 156.555 138.455 156.322 138.312 156.057C138.168 155.792 138.078 155.502 138.048 155.203C138.017 154.903 138.047 154.601 138.134 154.313L167.602 54.9277L171.279 56.0015L142.5 155.642C142.323 156.215 141.927 156.695 141.399 156.978C140.871 157.262 140.252 157.326 139.677 157.157Z" fill="#C5DBFF"/>
<path d="M200.598 157.156C200.314 157.254 200.013 157.294 199.714 157.275C199.414 157.257 199.121 157.179 198.852 157.047C198.583 156.915 198.342 156.731 198.143 156.505C197.945 156.28 197.793 156.018 197.696 155.734L163.072 56.8895L166.692 55.6309L201.991 154.269C202.187 154.837 202.15 155.459 201.889 156C201.628 156.541 201.164 156.956 200.598 157.156Z" fill="#C5DBFF"/>
<path d="M246.109 88.1782L228.331 73.956C222.742 69.0778 211.556 73.1382 204.352 81.1311C197.796 88.4058 195.03 100.793 200.619 105.672L216.612 122.027C221.86 126.607 232.733 122.738 240.889 113.401C249.046 104.064 251.364 92.7293 246.109 88.1782ZM238.706 111.346C231.076 120.086 221.071 123.833 216.356 119.716C211.641 115.599 213.995 105.174 221.625 96.4342C229.256 87.6947 239.254 83.9542 243.968 88.0644C248.683 92.1747 246.329 102.571 238.706 111.311V111.346Z" fill="#614B98"/>
<path d="M231.286 105.116C235.027 100.828 236.108 95.6484 233.699 93.5464C231.291 91.4445 226.305 93.2164 222.563 97.504C218.821 101.792 217.741 106.972 220.149 109.074C222.558 111.175 227.544 109.404 231.286 105.116Z" fill="#15181A"/>
<path d="M222.343 72.9243C216.768 68.4229 186.987 45.2834 172.203 44.6363C157.419 43.9891 138.56 71.4736 138.56 71.4736C138.56 71.4736 136.285 75.2069 140.274 78.9758C145.046 83.4771 148.807 82.1331 148.807 82.1331C148.807 82.1331 160 67.7829 167.702 69.9234C175.403 72.0638 201.344 100.352 201.344 100.352L222.343 72.9243Z" fill="#614B98"/>
<path d="M171.811 72.1724C168.917 70.3519 162.844 65.1395 166.4 54.9279C168.17 49.8222 172.999 44.2613 176.754 45.4275C179.116 46.1846 181.42 47.1163 183.644 48.2151C183.644 48.2151 183.786 43.1448 176.931 40.7839C174.798 40.0728 165.141 39.6035 159.786 52.2115C155.193 63.0204 159.964 69.3564 163.719 71.7102C167.474 74.0639 171.811 72.1724 171.811 72.1724Z" fill="#C5DBFF"/>
<path d="M219.221 94.0525C222.122 90.7512 225.627 88.0336 229.546 86.0454C231.52 85.044 233.656 84.4011 235.854 84.1467C236.97 83.9905 238.106 84.0631 239.193 84.3602C240.28 84.6573 241.294 85.1726 242.176 85.8747C242.972 86.6603 243.599 87.6005 244.019 88.6376C244.438 89.6747 244.641 90.7866 244.615 91.9049C244.611 94.087 244.231 96.2521 243.491 98.305C242.772 100.361 241.833 102.332 240.69 104.186C239.538 106.03 238.252 107.786 236.842 109.441C235.408 111.075 233.846 112.592 232.17 113.978C230.485 115.351 228.659 116.543 226.723 117.533C224.785 118.569 222.678 119.25 220.501 119.546C219.385 119.782 218.23 119.757 217.125 119.474C216.02 119.191 214.996 118.656 214.131 117.913C213.266 117.169 212.584 116.236 212.139 115.186C211.693 114.136 211.496 112.997 211.562 111.859C211.52 109.641 211.872 107.433 212.601 105.338C214.042 101.177 216.292 97.3414 219.221 94.0525ZM220.06 94.7636C218.683 96.3923 217.415 98.1098 216.263 99.9049C215.134 101.711 214.202 103.632 213.482 105.637C212.746 107.619 212.368 109.716 212.366 111.83C212.275 112.877 212.429 113.931 212.817 114.907C213.205 115.883 213.816 116.756 214.6 117.455C215.385 118.154 216.321 118.66 217.336 118.933C218.351 119.205 219.415 119.238 220.444 119.027C222.569 118.774 224.633 118.145 226.538 117.171C234.232 113.112 240.149 106.348 243.15 98.1841C243.87 96.1657 244.217 94.0332 244.174 91.8907C244.251 90.8352 244.079 89.7763 243.673 88.7988C243.268 87.8214 242.639 86.9524 241.837 86.2613C241.036 85.5703 240.084 85.0764 239.057 84.8191C238.03 84.5618 236.958 84.5483 235.925 84.7796C233.822 85.0713 231.788 85.7334 229.916 86.7352C226.151 88.7697 222.806 91.5015 220.06 94.7849V94.7636ZM168.938 73.0818C171.449 79.9298 173.845 86.8205 176.263 93.7041L183.523 114.326L190.748 134.984L194.354 145.309C195.534 148.765 196.842 152.172 197.788 155.706C197.793 155.73 197.788 155.755 197.775 155.776C197.762 155.798 197.741 155.813 197.717 155.82C197.696 155.823 197.673 155.819 197.654 155.809C197.635 155.799 197.619 155.783 197.61 155.763C196.146 152.413 195.036 148.936 193.806 145.501L190.186 135.183L182.94 114.561L175.737 93.8676C173.333 86.9769 170.908 80.1005 168.626 73.1814C168.618 73.159 168.614 73.1352 168.615 73.1115C168.617 73.0877 168.623 73.0645 168.633 73.043C168.643 73.0215 168.657 73.0023 168.675 72.9864C168.693 72.9705 168.713 72.9582 168.736 72.9503C168.758 72.9423 168.782 72.9389 168.806 72.9401C168.829 72.9414 168.853 72.9473 168.874 72.9575C168.896 72.9678 168.915 72.9821 168.931 72.9998C168.947 73.0175 168.959 73.0381 168.967 73.0605L168.938 73.0818ZM164.615 79.4036C164.544 85.7112 164.195 91.9974 163.904 98.2978L163.086 117.178L162.197 136.058L161.742 145.494L161.514 150.216C161.521 151.803 161.318 153.383 160.91 154.917C160.903 154.923 160.894 154.927 160.885 154.927C160.876 154.927 160.867 154.923 160.86 154.917C160.599 153.352 160.546 151.759 160.704 150.181L160.924 145.459L161.372 136.022L162.29 117.142L163.278 98.2694C163.626 91.9832 163.875 85.6827 164.409 79.4036C164.412 79.3785 164.425 79.3556 164.445 79.3398C164.465 79.3239 164.49 79.3162 164.515 79.3183C164.539 79.318 164.563 79.3265 164.581 79.3422C164.599 79.3579 164.611 79.3797 164.615 79.4036ZM176.882 40.8898C176.021 40.6992 175.136 40.6393 174.258 40.7121C173.381 40.7721 172.512 40.9149 171.662 41.1387C169.966 41.6001 168.365 42.3585 166.933 43.3787C164.105 45.5082 161.896 48.3531 160.533 51.6205C159.771 53.2098 159.189 54.8795 158.798 56.5983C158.386 58.3031 158.237 60.0609 158.357 61.8107C158.637 65.3228 160.29 68.583 162.958 70.8845C162.998 70.9184 163.028 70.9634 163.043 71.0139C163.058 71.0645 163.058 71.1184 163.043 71.1689L150.755 112.812L144.597 133.633L141.518 144.044L139.975 149.256C139.456 150.984 138.93 152.719 138.282 154.412C138.268 154.459 138.236 154.498 138.193 154.522C138.149 154.545 138.098 154.55 138.051 154.536C138.004 154.522 137.965 154.49 137.941 154.446C137.918 154.403 137.913 154.352 137.927 154.305C138.304 152.534 138.809 150.792 139.349 149.057L140.892 143.852L143.986 133.448L150.165 112.634L162.553 71.0054L162.645 71.2969C161.15 70.1973 159.914 68.783 159.024 67.1538C158.135 65.5246 157.613 63.7202 157.497 61.8676C157.362 60.0299 157.516 58.1824 157.952 56.3921C158.353 54.6114 158.954 52.8819 159.744 51.2365C161.209 47.8609 163.545 44.9355 166.514 42.7601C168.018 41.7182 169.708 40.9725 171.491 40.5627C173.281 40.1186 175.156 40.1603 176.924 40.6836C176.938 40.6875 176.95 40.6943 176.961 40.7034C176.972 40.7126 176.981 40.7239 176.987 40.7367C176.993 40.7495 176.996 40.7634 176.996 40.7776C176.997 40.7917 176.994 40.8057 176.988 40.8187C176.98 40.8447 176.962 40.8665 176.938 40.8797C176.915 40.8929 176.887 40.8966 176.86 40.8898H176.882ZM197.788 103.247C196.964 102.499 196.303 101.588 195.846 100.573C195.39 99.5571 195.148 98.4583 195.136 97.3449C195.072 95.1326 195.405 92.9267 196.117 90.8312C197.554 86.6675 199.794 82.8262 202.709 79.5245C205.561 76.1601 209.06 73.4032 212.999 71.4178C214.985 70.4318 217.13 69.8058 219.335 69.5689C220.444 69.4315 221.569 69.5254 222.64 69.8449C223.711 70.1643 224.705 70.7024 225.557 71.4249C225.58 71.4476 225.592 71.4783 225.592 71.5103C225.592 71.5423 225.58 71.573 225.557 71.5956C225.546 71.6066 225.534 71.6153 225.52 71.6213C225.506 71.6272 225.491 71.6303 225.475 71.6303C225.46 71.6303 225.445 71.6272 225.431 71.6213C225.417 71.6153 225.404 71.6066 225.394 71.5956C224.535 70.9844 223.563 70.5513 222.535 70.3217C221.507 70.092 220.443 70.0707 219.406 70.2587C217.312 70.5727 215.29 71.2539 213.433 72.2712C209.681 74.306 206.33 77.0045 203.541 80.2356C202.138 81.8443 200.863 83.561 199.73 85.3698L198.926 86.7565C198.67 87.2258 198.442 87.7023 198.215 88.1787C197.737 89.1281 197.319 90.1066 196.963 91.1085C196.212 93.0934 195.812 95.1943 195.783 97.3165C195.731 98.3709 195.894 99.4248 196.26 100.415C196.627 101.405 197.19 102.31 197.916 103.076C197.927 103.086 197.935 103.097 197.941 103.11C197.947 103.123 197.95 103.137 197.95 103.151C197.95 103.165 197.947 103.179 197.941 103.192C197.935 103.205 197.927 103.216 197.916 103.226C197.9 103.243 197.879 103.254 197.856 103.258C197.833 103.262 197.809 103.258 197.788 103.247ZM124.864 80.2214C124.161 81.1731 123.864 82.3649 124.039 83.5352C124.181 84.708 124.536 85.8453 125.084 86.8916C127.35 91.1238 131.101 94.3683 135.616 96.0009C136.726 96.3848 137.897 96.5655 139.072 96.5343C139.648 96.5365 140.219 96.4253 140.752 96.2069C141.285 95.9885 141.77 95.6672 142.179 95.2614C142.197 95.2427 142.219 95.2278 142.243 95.2176C142.266 95.2074 142.292 95.2022 142.318 95.2022C142.344 95.2022 142.37 95.2074 142.393 95.2176C142.417 95.2278 142.439 95.2427 142.457 95.2614C142.489 95.2977 142.506 95.3445 142.506 95.3929C142.506 95.4414 142.489 95.4881 142.457 95.5245C141.589 96.4778 140.38 97.0503 139.093 97.1174C137.842 97.1906 136.588 97.0315 135.395 96.6481C133.049 95.8602 130.881 94.6174 129.015 92.9909C127.15 91.3644 125.623 89.386 124.522 87.1689C123.988 86.0519 123.66 84.8473 123.555 83.6134C123.448 82.3476 123.844 81.0905 124.658 80.1147C124.668 80.1026 124.681 80.0929 124.696 80.0863C124.711 80.0796 124.727 80.0762 124.743 80.0762C124.759 80.0762 124.775 80.0796 124.79 80.0863C124.804 80.0929 124.818 80.1026 124.828 80.1147C124.839 80.1253 124.848 80.138 124.854 80.1521C124.86 80.1661 124.863 80.1812 124.863 80.1965C124.863 80.2118 124.86 80.2269 124.854 80.2409C124.848 80.255 124.839 80.2677 124.828 80.2783L124.864 80.2214ZM133.724 71.2685C133.061 72.189 132.78 73.3311 132.942 74.4543C133.095 75.5804 133.439 76.6722 133.959 77.6827C135.037 79.7021 136.484 81.5014 138.226 82.9876C139.953 84.4862 141.948 85.6443 144.106 86.4009C145.17 86.781 146.291 86.9781 147.42 86.9841C148.561 87.0087 149.67 86.6054 150.528 85.8534C150.536 85.8449 150.548 85.8401 150.56 85.8401C150.572 85.8401 150.583 85.8449 150.592 85.8534C150.6 85.8619 150.605 85.8734 150.605 85.8854C150.605 85.8974 150.6 85.9089 150.592 85.9174C150.209 86.3904 149.733 86.7798 149.194 87.0611C148.654 87.3425 148.063 87.5099 147.456 87.5529C146.256 87.659 145.048 87.5261 143.9 87.1618C141.616 86.424 139.512 85.2124 137.728 83.6063C136.834 82.8144 136.008 81.9485 135.26 81.0178C134.523 80.0769 133.897 79.0531 133.397 77.9672C132.87 76.8801 132.556 75.7021 132.473 74.4969C132.42 73.8899 132.489 73.2784 132.676 72.6984C132.863 72.1184 133.164 71.5815 133.561 71.1192C133.571 71.107 133.583 71.097 133.598 71.0897C133.612 71.0825 133.627 71.078 133.643 71.0767C133.659 71.0754 133.675 71.0772 133.69 71.082C133.705 71.0869 133.719 71.0947 133.731 71.1049C133.743 71.1152 133.753 71.1278 133.761 71.1419C133.768 71.1561 133.772 71.1715 133.774 71.1873C133.775 71.2032 133.773 71.2191 133.768 71.2343C133.764 71.2494 133.756 71.2635 133.746 71.2756L133.724 71.2685Z" fill="#15181A"/>
<path d="M138.781 72.535C138.367 73.0918 138.188 73.789 138.283 74.4764C138.374 75.1652 138.58 75.8337 138.895 76.4533C140.235 78.9355 142.45 80.8312 145.11 81.7724C145.762 81.9922 146.448 82.098 147.136 82.0853C147.804 82.0832 148.447 81.8292 148.935 81.3742C148.949 81.36 148.966 81.3487 148.984 81.341C149.003 81.3333 149.022 81.3293 149.042 81.3293C149.062 81.3293 149.082 81.3333 149.1 81.341C149.118 81.3487 149.135 81.36 149.149 81.3742C149.174 81.4027 149.188 81.4393 149.188 81.4773C149.188 81.5152 149.174 81.5518 149.149 81.5804C148.643 82.1271 147.944 82.4539 147.2 82.4906C146.459 82.5326 145.716 82.4361 145.01 82.2062C142.222 81.2503 139.923 79.2345 138.61 76.5955C138.284 75.9275 138.089 75.2035 138.034 74.4622C137.973 73.7178 138.202 72.9787 138.674 72.3999C138.681 72.3922 138.69 72.386 138.7 72.3818C138.71 72.3776 138.72 72.3754 138.731 72.3754C138.742 72.3754 138.752 72.3776 138.762 72.3818C138.772 72.386 138.781 72.3922 138.788 72.3999C138.801 72.4144 138.809 72.4335 138.809 72.4533C138.809 72.4731 138.801 72.4921 138.788 72.5066L138.781 72.535ZM38.4786 42.8248C41.7212 42.7466 44.3168 42.6826 46.7417 42.6542L53.9595 42.5759L61.0706 42.5262H68.1248L82.2617 42.5973H96.6332L125.533 42.6755C135.183 42.711 144.868 42.6755 154.539 42.6755L154.489 43.0737L131.463 36.9724C131.423 36.9599 131.387 36.9356 131.361 36.9027C131.334 36.8697 131.318 36.8296 131.314 36.7875C130.923 34.2969 129.881 31.9539 128.292 29.9964C126.664 28.07 124.489 26.6837 122.055 26.0213C119.627 25.3118 117.062 25.202 114.582 25.7013C112.099 26.1954 109.771 27.2754 107.791 28.8515C107.752 28.888 107.701 28.9084 107.648 28.9084C107.595 28.9084 107.544 28.888 107.506 28.8515C107.485 28.8218 107.47 28.7879 107.463 28.7519C106.667 25.1592 104.621 21.9661 101.689 19.7422C100.228 18.6716 98.574 17.8919 96.8181 17.4453C95.0492 17.0031 93.2295 16.7974 91.4066 16.8337C89.5811 16.8234 87.7628 17.0626 86.0021 17.5448C84.2501 18.0266 82.6161 18.8641 81.2021 20.0053C79.8223 21.1943 78.6943 22.6474 77.8846 24.279C77.0749 25.9106 76.5999 27.6877 76.4875 29.5057C76.4866 29.5325 76.4803 29.5588 76.469 29.5831C76.4577 29.6074 76.4416 29.6292 76.4217 29.6471C76.4017 29.665 76.3784 29.6788 76.3531 29.6875C76.3277 29.6962 76.3009 29.6996 76.2741 29.6977C76.2431 29.6939 76.2132 29.6837 76.1863 29.6678C76.1594 29.6519 76.136 29.6306 76.1177 29.6053C74.8114 27.8524 73.0148 26.526 70.955 25.7937C68.8844 25.0992 66.6504 25.057 64.555 25.6728C62.4182 26.1972 60.5512 27.4942 59.3141 29.3137C58.1124 31.1748 57.4707 33.3419 57.4652 35.5573C57.4745 35.5825 57.4745 35.6102 57.4652 35.6355C56.1055 36.7221 54.6263 37.6502 53.0564 38.4017C51.51 39.1674 49.919 39.8394 48.2919 40.4142C46.6777 41.0186 45.0208 41.4879 43.3568 41.9359C42.5248 42.1564 41.6786 42.3413 40.8466 42.5475C40.063 42.6836 39.2724 42.7761 38.4786 42.8248ZM38.0732 42.8604C38.9562 42.5764 39.8534 42.339 40.7612 42.1493C41.5932 41.9573 42.4324 41.7724 43.2644 41.5662C44.9212 41.1324 46.5781 40.6773 48.1852 40.0942C49.8045 39.5363 51.3884 38.8809 52.9284 38.1315C54.474 37.4034 55.9317 36.5016 57.2732 35.4435L57.2306 35.5359C57.2059 33.2821 57.8278 31.0685 59.0226 29.1573C60.2856 27.2662 62.207 25.9127 64.4128 25.3599C66.5805 24.7053 68.8973 24.7351 71.0475 25.4453C73.1907 26.1885 75.0628 27.5555 76.4235 29.3706L76.0537 29.4773C76.1425 27.5876 76.5965 25.733 77.3906 24.0159C78.1678 22.2773 79.3302 20.7381 80.7897 19.5146C82.2503 18.3077 83.9452 17.4167 85.7675 16.8977C87.5836 16.3827 89.4619 16.1195 91.3497 16.1155C93.2354 16.0636 95.1197 16.2621 96.9532 16.7057C99.7451 17.3767 102.271 18.871 104.203 20.9948C106.136 23.1187 107.386 25.7741 107.791 28.6168L107.456 28.4959C109.47 26.8314 111.86 25.6841 114.418 25.1536C116.976 24.6232 119.624 24.7257 122.134 25.4524C124.68 26.1275 126.958 27.567 128.662 29.5768C130.332 31.6041 131.373 34.0761 131.655 36.6879L131.506 36.5102L154.582 42.6684C154.634 42.6818 154.68 42.7155 154.708 42.7621C154.736 42.8087 154.744 42.8645 154.731 42.9173C154.718 42.9599 154.691 42.9972 154.655 43.024C154.62 43.0508 154.577 43.0657 154.532 43.0666C144.825 43.031 135.133 42.9955 125.412 43.031L96.1781 43.1093H81.4937L66.5604 43.1733H59.0866L51.6555 43.1235L44.3452 43.0453C41.9559 43.0026 39.6732 42.9386 38.0732 42.8604ZM70.1159 147.038C75.5132 146.953 80.9106 146.981 86.3079 146.988H102.493L118.678 147.045H126.77C129.465 147.045 132.167 146.981 134.863 147.266C134.886 147.269 134.908 147.281 134.924 147.299C134.94 147.318 134.948 147.341 134.948 147.365C134.944 147.386 134.934 147.406 134.918 147.421C134.903 147.436 134.884 147.447 134.863 147.451C132.167 147.721 129.465 147.607 126.77 147.621H118.678H102.493L86.3008 147.55C80.9106 147.55 75.5132 147.55 70.1159 147.401C70.074 147.392 70.0362 147.37 70.0091 147.337C69.9819 147.304 69.9671 147.262 69.9671 147.219C69.9671 147.177 69.9819 147.135 70.0091 147.102C70.0362 147.069 70.074 147.047 70.1159 147.038ZM207.012 147.081C213.49 147.01 219.968 147.081 226.447 147.081L245.881 147.145L265.309 147.251L275.023 147.301C278.265 147.344 281.501 147.251 284.743 147.55C284.755 147.551 284.767 147.554 284.777 147.56C284.788 147.565 284.797 147.573 284.805 147.583C284.812 147.592 284.817 147.603 284.82 147.614C284.823 147.626 284.824 147.638 284.822 147.65C284.82 147.672 284.811 147.693 284.795 147.708C284.779 147.724 284.758 147.733 284.736 147.735C281.501 147.998 278.258 147.877 275.023 147.884H265.309L245.874 147.799L226.447 147.678C219.968 147.635 213.49 147.621 207.012 147.493C206.987 147.493 206.963 147.488 206.94 147.479C206.918 147.469 206.898 147.454 206.881 147.436C206.864 147.418 206.851 147.397 206.843 147.374C206.835 147.35 206.832 147.326 206.834 147.301C206.828 147.275 206.827 147.247 206.833 147.22C206.839 147.193 206.851 147.168 206.868 147.147C206.886 147.126 206.907 147.109 206.932 147.097C206.957 147.086 206.984 147.08 207.012 147.081ZM280.427 107.984H272.071C272.025 107.984 271.979 107.972 271.939 107.948C271.899 107.924 271.866 107.89 271.844 107.849C271.819 107.808 271.807 107.761 271.807 107.714C271.807 107.666 271.819 107.619 271.844 107.579L276.018 100.347C276.043 100.307 276.078 100.274 276.119 100.252C276.16 100.229 276.206 100.217 276.253 100.217C276.3 100.217 276.346 100.229 276.387 100.252C276.428 100.274 276.462 100.307 276.487 100.347L280.662 107.579C280.686 107.619 280.699 107.666 280.699 107.714C280.699 107.761 280.686 107.808 280.662 107.849C280.638 107.891 280.604 107.925 280.563 107.949C280.522 107.973 280.475 107.985 280.427 107.984ZM272.541 107.443H279.958L276.253 101.043L272.541 107.443ZM205.511 33.0684H197.156C197.109 33.0678 197.062 33.0551 197.021 33.0314C196.98 33.0078 196.946 32.974 196.921 32.9333C196.9 32.8914 196.889 32.8451 196.889 32.7982C196.889 32.7512 196.9 32.7049 196.921 32.663L201.103 25.4239C201.129 25.3858 201.164 25.3546 201.205 25.3331C201.245 25.3115 201.291 25.3002 201.337 25.3002C201.383 25.3002 201.429 25.3115 201.47 25.3331C201.511 25.3546 201.546 25.3858 201.572 25.4239L205.746 32.663C205.771 32.7039 205.783 32.7506 205.783 32.7982C205.783 32.8457 205.771 32.8924 205.746 32.9333C205.723 32.9749 205.689 33.0095 205.648 33.0333C205.606 33.0571 205.559 33.0692 205.511 33.0684ZM197.625 32.5279H205.042L201.337 26.1279L197.625 32.5279ZM93.0137 114.754C93.2417 115.253 93.4157 115.775 93.5328 116.311C93.5897 116.759 93.6252 117.157 93.675 117.577C93.7248 117.996 93.675 118.416 93.675 118.828C93.675 119.241 93.6181 119.66 93.5826 120.073C93.387 121.728 92.8778 123.33 92.0821 124.795C91.2914 126.26 90.2194 127.555 88.9276 128.606C87.6357 129.656 86.1494 130.442 84.5537 130.917C82.9579 131.393 81.284 131.549 79.6278 131.377C77.9716 131.205 76.3656 130.708 74.9017 129.915C71.9384 128.315 69.7217 125.616 68.7292 122.398C68.6964 122.289 68.7059 122.171 68.756 122.068C68.8061 121.965 68.893 121.885 68.9995 121.843H69.0421C69.5123 121.659 69.9494 121.4 70.3364 121.075C70.7496 120.737 71.1284 120.358 71.467 119.945C72.1434 119.08 72.6918 118.122 73.0955 117.1C73.3088 116.592 73.494 116.072 73.6501 115.543C73.7284 115.28 73.771 115.017 73.8279 114.754L73.9488 113.936C74.0768 112.827 74.155 111.703 74.2119 110.579C74.4181 106.085 74.4181 101.563 74.3684 97.0684C74.3674 97.0547 74.3692 97.041 74.3738 97.0281C74.3784 97.0152 74.3855 97.0033 74.3949 96.9933C74.4042 96.9833 74.4155 96.9754 74.4281 96.9699C74.4407 96.9645 74.4542 96.9617 74.4679 96.9617C74.4861 96.9625 74.5038 96.9674 74.5198 96.976C74.5358 96.9847 74.5497 96.9968 74.5604 97.0115C76.971 100.844 79.4244 104.656 82.0341 108.34C82.6955 109.25 83.3568 110.174 84.075 111.006C84.8176 111.818 85.6585 112.535 86.5781 113.139C87.4774 113.744 88.4627 114.209 89.5008 114.519C90.0113 114.667 90.5355 114.762 91.0652 114.803C91.3233 114.821 91.5823 114.821 91.8404 114.803C91.9682 114.811 92.0965 114.811 92.2244 114.803H92.4021H92.4875H92.5301C92.5961 114.793 92.6633 114.793 92.7292 114.803C92.8203 114.77 92.9166 114.753 93.0137 114.754ZM92.4448 115.771C92.5066 115.812 92.5772 115.839 92.651 115.849C92.7004 115.857 92.7509 115.857 92.8004 115.849H92.7364H92.6084H92.3737C92.2172 115.849 92.0608 115.849 91.9044 115.849C91.5977 115.857 91.2909 115.841 90.987 115.799C90.3874 115.733 89.7963 115.604 89.2235 115.415C88.1003 115.039 87.0406 114.494 86.0804 113.801C85.1217 113.126 84.25 112.335 83.4848 111.447C82.7737 110.537 82.1337 109.591 81.4937 108.645C79.0048 104.848 76.6937 100.951 74.3826 97.0328L74.5746 96.9759C74.7452 101.491 74.8661 106.007 74.7737 110.53C74.7737 111.66 74.6955 112.798 74.5959 113.936L74.4964 114.789C74.4395 115.081 74.3897 115.379 74.3186 115.657C74.1688 116.215 73.9907 116.766 73.7852 117.307C73.3785 118.402 72.8182 119.434 72.1212 120.371C71.3898 121.364 70.4082 122.144 69.2768 122.633L69.5897 122.057C70.0222 123.554 70.7478 124.951 71.7244 126.165C72.701 127.38 73.9091 128.388 75.2786 129.132C76.6452 129.884 78.1465 130.358 79.6967 130.53C81.2468 130.701 82.8155 130.565 84.3132 130.13C85.8108 129.694 87.208 128.969 88.4251 127.993C89.6422 127.018 90.6553 125.813 91.4066 124.446C92.1429 123.074 92.5928 121.567 92.7292 120.016C92.7292 119.625 92.7292 119.241 92.7292 118.857C92.7292 118.473 92.6866 118.082 92.651 117.698L92.4519 116.574C92.3867 116.311 92.3843 116.035 92.4448 115.771Z" fill="#15181A"/>
<path d="M79.8719 114.873C80.8309 117.424 81.6126 120.038 82.2114 122.696C82.8372 125.341 83.3563 128.008 83.8114 130.696C84.2665 133.384 84.6292 136.072 84.8923 138.788C85.1772 141.507 85.2912 144.24 85.2336 146.973C85.2199 147.081 85.1672 147.181 85.0854 147.253C85.0036 147.325 84.8983 147.365 84.7892 147.365C84.6801 147.365 84.5748 147.325 84.493 147.253C84.4112 147.181 84.3585 147.081 84.3447 146.973C84.4345 144.28 84.3538 141.584 84.103 138.902C83.8683 136.207 83.5625 133.512 83.1785 130.838C82.7945 128.164 82.311 125.49 81.7563 122.845C81.2259 120.192 80.5131 117.578 79.623 115.023C79.6106 114.983 79.6131 114.94 79.6302 114.902C79.6472 114.864 79.6775 114.834 79.7154 114.817C79.7442 114.81 79.7742 114.812 79.8018 114.822C79.8295 114.833 79.8538 114.85 79.8719 114.873ZM103.168 124.367C103.204 124.562 103.204 124.762 103.168 124.957L103.054 125.775C103.054 126.052 103.054 126.329 103.019 126.607C102.983 126.884 103.054 127.161 103.068 127.432C103.268 129.378 104.137 131.195 105.526 132.572C106.916 133.949 108.741 134.801 110.69 134.983C112.638 135.164 114.588 134.663 116.209 133.566C117.829 132.469 119.018 130.844 119.573 128.968L119.879 129.537C119.044 129.171 118.323 128.589 117.788 127.851C117.276 127.165 116.867 126.408 116.572 125.604C116.423 125.206 116.302 124.801 116.188 124.402C116.139 124.196 116.103 123.976 116.06 123.762L115.989 123.137C115.925 122.305 115.89 121.487 115.875 120.669C115.819 117.384 115.918 114.12 116.06 110.856L116.281 110.927C114.624 113.771 112.939 116.559 111.125 119.304C110.656 120.015 110.201 120.669 109.703 121.323C109.15 121.966 108.517 122.535 107.819 123.016C107.126 123.516 106.361 123.907 105.55 124.175C105.137 124.311 104.71 124.402 104.277 124.445C104.057 124.463 103.836 124.463 103.616 124.445H103.282H103.111H103.026H102.976C103.009 124.45 103.042 124.45 103.075 124.445C103.113 124.428 103.145 124.401 103.168 124.367ZM102.784 123.656C102.841 123.633 102.901 123.619 102.962 123.613C103.006 123.605 103.052 123.605 103.097 123.613H103.189H103.317H103.595C103.784 123.624 103.974 123.624 104.163 123.613C104.547 123.585 104.926 123.513 105.294 123.4C106.053 123.174 106.772 122.834 107.427 122.39C108.092 121.956 108.699 121.44 109.234 120.854C109.753 120.249 110.222 119.581 110.699 118.92C112.576 116.246 114.339 113.487 116.075 110.706C116.093 110.68 116.121 110.662 116.153 110.655C116.185 110.648 116.218 110.654 116.245 110.671C116.262 110.681 116.276 110.696 116.286 110.713C116.296 110.731 116.302 110.75 116.302 110.77C116.302 114.034 116.302 117.305 116.451 120.548C116.494 121.366 116.558 122.177 116.651 122.966L116.736 123.556C116.786 123.741 116.814 123.926 116.871 124.118C116.992 124.495 117.113 124.872 117.269 125.234C117.564 125.955 117.959 126.63 118.443 127.24C118.683 127.531 118.952 127.798 119.246 128.036C119.514 128.259 119.817 128.436 120.142 128.562L120.213 128.598C120.311 128.643 120.389 128.722 120.433 128.82C120.478 128.918 120.485 129.028 120.455 129.131C120.104 130.305 119.525 131.398 118.751 132.348C117.978 133.298 117.024 134.086 115.946 134.667C114.867 135.248 113.685 135.611 112.466 135.735C111.247 135.859 110.016 135.741 108.843 135.389C107.083 134.86 105.519 133.821 104.349 132.403C103.18 130.986 102.457 129.253 102.272 127.425C102.272 127.119 102.229 126.82 102.222 126.514C102.215 126.209 102.222 125.91 102.265 125.604C102.307 125.298 102.343 125.014 102.4 124.694C102.494 124.345 102.623 124.007 102.784 123.684V123.656Z" fill="#15181A"/>
<path d="M112.519 123.848C111.844 125.711 111.268 127.61 110.706 129.537C110.144 131.464 109.647 133.363 109.199 135.297C108.751 137.231 108.367 139.173 108.047 141.114C107.705 143.044 107.539 145 107.549 146.959C107.549 147.078 107.502 147.192 107.418 147.276C107.334 147.36 107.22 147.407 107.101 147.407C106.982 147.407 106.868 147.36 106.784 147.276C106.7 147.192 106.653 147.078 106.653 146.959C106.627 144.936 106.81 142.915 107.2 140.929C107.549 138.959 108.018 137.018 108.516 135.084C109.523 131.22 110.762 127.42 112.228 123.706C112.243 123.667 112.273 123.636 112.311 123.62C112.349 123.603 112.392 123.602 112.431 123.617C112.469 123.632 112.5 123.662 112.517 123.7C112.534 123.738 112.535 123.781 112.519 123.82V123.848ZM94.4075 92.6162C95.4243 97.0678 96.1426 101.569 96.7826 106.078C97.4226 110.586 97.9417 115.116 98.3968 119.653C98.8519 124.19 99.2288 128.726 99.4777 133.278C99.7266 137.829 99.8972 142.387 99.7621 146.959C99.7603 147.018 99.7469 147.076 99.7226 147.13C99.6984 147.183 99.6639 147.232 99.6209 147.272C99.578 147.312 99.5275 147.344 99.4725 147.365C99.4174 147.385 99.3587 147.395 99.2999 147.393C99.2423 147.392 99.1855 147.38 99.1328 147.357C99.08 147.334 99.0324 147.3 98.9927 147.259C98.953 147.217 98.9219 147.168 98.9014 147.114C98.8809 147.06 98.8713 147.003 98.8732 146.945C98.9372 142.415 98.8092 137.871 98.5746 133.334C98.3399 128.798 98.0626 124.254 97.6715 119.724C97.2804 115.194 96.8324 110.664 96.2492 106.156C95.6661 101.647 95.0332 97.1389 94.1159 92.6944C94.1073 92.6549 94.1143 92.6135 94.1355 92.5791C94.1567 92.5446 94.1905 92.5197 94.2297 92.5096C94.2671 92.5041 94.3052 92.5117 94.3376 92.5311C94.37 92.5506 94.3947 92.5806 94.4075 92.6162Z" fill="#15181A"/>
<path d="M89.003 90.0216C92.5297 90.0216 95.3887 87.1625 95.3887 83.6358C95.3887 80.109 92.5297 77.25 89.003 77.25C85.4762 77.25 82.6172 80.109 82.6172 83.6358C82.6172 87.1625 85.4762 90.0216 89.003 90.0216Z" fill="#C5DBFF"/>
<path d="M96.1777 85.6965C96.1503 85.5003 96.1799 85.3003 96.2631 85.1205L96.3413 84.9285C96.3911 84.7934 96.4408 84.6654 96.4764 84.5303C96.5598 84.2606 96.6216 83.9848 96.6613 83.7054C96.7052 83.4279 96.7242 83.1471 96.7182 82.8663V82.4396L96.6684 82.02C96.5081 80.878 96.0132 79.8091 95.2462 78.948C94.4844 78.0634 93.4771 77.4249 92.352 77.1134C91.2251 76.7899 90.0299 76.7899 88.9031 77.1134C88.057 77.3732 87.2765 77.8114 86.614 78.3983C85.9516 78.9853 85.4226 79.7074 85.0628 80.516C84.703 81.3246 84.5206 82.201 84.528 83.086C84.5354 83.971 84.7324 84.8442 85.1057 85.6467C85.6074 86.7112 86.3984 87.6131 87.3884 88.2494C87.4346 88.2786 87.4673 88.325 87.4793 88.3783C87.4913 88.4317 87.4816 88.4876 87.4524 88.5338C86.7999 89.5124 86.3836 90.6291 86.2362 91.796C86.0889 92.9629 86.2147 94.1481 86.6035 95.2581C86.9924 96.3681 87.6337 97.3727 88.477 98.1926C89.3203 99.0124 90.3425 99.6253 91.4631 99.9827C92.204 100.205 92.9723 100.322 93.7457 100.331C94.5169 100.317 95.2826 100.197 96.0213 99.9756C97.4886 99.4906 98.7734 98.5704 99.7049 97.3374C100.175 96.734 100.54 96.0561 100.786 95.332C101.046 94.6105 101.188 93.8517 101.205 93.0849C101.251 91.5526 100.818 90.0441 99.968 88.7685C99.5463 88.1347 99.028 87.5709 98.432 87.0974C98.1339 86.8631 97.8203 86.6493 97.4933 86.4574L96.9884 86.1943C96.6985 86.0628 96.4261 85.8956 96.1777 85.6965ZM97.0951 85.3054C97.2373 85.3054 97.3013 85.2485 97.408 85.3054L97.9697 85.6111C98.3392 85.823 98.6933 86.0606 99.0293 86.3223C99.6925 86.8663 100.268 87.5091 100.736 88.228C101.683 89.6708 102.154 91.3747 102.08 93.0991C102.049 93.9541 101.883 94.7988 101.589 95.6023C101.306 96.4075 100.89 97.1598 100.359 97.828C99.3121 99.1805 97.8709 100.174 96.2346 100.672C95.4202 100.902 94.5777 101.017 93.7315 101.014C92.8852 100.997 92.0462 100.853 91.2426 100.587C90.0488 100.187 88.9638 99.5161 88.0729 98.6265C87.182 97.7369 86.5093 96.6529 86.1077 95.4596C85.706 94.2664 85.5863 92.9963 85.7579 91.749C85.9295 90.5017 86.3878 89.3111 87.0969 88.2707L87.1608 88.5551C86.1304 87.8682 85.3144 86.9048 84.8062 85.7755C84.298 84.6461 84.1182 83.3965 84.2874 82.1697C84.4566 80.9429 84.968 79.7885 85.763 78.8389C86.5579 77.8893 87.6043 77.1829 88.7822 76.8005C89.9797 76.4273 91.2577 76.3966 92.4717 76.7121C93.6857 77.0275 94.7872 77.6764 95.6515 78.5854C96.5266 79.509 97.1253 80.6595 97.3795 81.9063L97.4648 82.3756L97.5004 82.852C97.5324 83.1712 97.5324 83.4928 97.5004 83.812C97.4768 84.1347 97.4317 84.4554 97.3653 84.772C97.3653 84.9285 97.2871 85.0849 97.2444 85.2414L97.1733 85.476C97.1235 85.6325 97.2088 85.3907 97.0951 85.3338V85.3054Z" fill="#15181A"/>
<path d="M65.8061 69.6621L61.6318 76.9012H69.9874L65.8061 69.6621Z" fill="#614B98"/>
<path d="M49.557 69.6621L45.3828 76.9012H53.7313L49.557 69.6621Z" fill="#614B98"/>
<path d="M57.6852 55.4531L53.5039 62.6851H61.8595L57.6852 55.4531Z" fill="#614B98"/>
</g>
<defs>
<clipPath id="clip0_1055_8887">
<rect width="320" height="177.778" fill="white"/>
</clipPath>
</defs>
</svg>
