<svg width="244" height="131" viewBox="0 0 244 131" fill="none" xmlns="http://www.w3.org/2000/svg">
<path fill-rule="evenodd" clip-rule="evenodd" d="M173.748 67.6871C173.748 75.0353 172.152 82.0104 169.289 88.2829C169.272 88.3176 169.263 88.3523 169.246 88.3783C168.049 90.9896 166.626 93.4882 165.003 95.8306C163.355 98.2164 161.507 100.455 159.477 102.519C158.67 103.344 157.837 104.133 156.97 104.897C155.781 105.946 154.541 106.944 153.257 107.881C149.24 110.805 144.763 113.138 139.957 114.761C137.84 115.472 135.663 116.045 133.424 116.47C130.397 117.042 127.273 117.346 124.081 117.346C110.868 117.346 98.8524 112.184 89.9599 103.76C82.5423 96.7415 77.2849 87.45 75.2982 77.0046C74.7603 74.1764 74.4654 71.2701 74.4307 68.2944C74.4307 68.0948 74.4307 67.8866 74.4307 67.6871C74.4307 59.5321 76.4 51.8369 79.8789 45.0439C80.1999 44.4193 80.5296 43.8033 80.8766 43.1873C84.2167 37.3053 88.728 32.1694 94.0895 28.1005C97.178 25.7495 100.561 23.7627 104.153 22.1838C110.252 19.5031 116.993 18.0195 124.09 18.0195C133.103 18.0195 141.553 20.4227 148.841 24.6216C150.845 25.7755 152.762 27.0681 154.575 28.4823C157.725 30.9374 160.579 33.7657 163.051 36.8889C163.494 37.4441 163.919 38.008 164.335 38.5893C165.619 40.3591 166.782 42.2157 167.823 44.1503C171.606 51.1602 173.748 59.1764 173.748 67.6871Z" fill="#E1EDFF"/>
<path fill-rule="evenodd" clip-rule="evenodd" d="M153.69 112.244C153.577 112.296 153.464 112.348 153.343 112.4C153.23 112.452 153.109 112.504 152.996 112.556C152.883 112.608 152.762 112.66 152.649 112.704C152.545 112.747 152.432 112.79 152.328 112.834C152.067 112.938 151.799 113.042 151.538 113.146C151.443 113.181 151.347 113.216 151.243 113.25C151.122 113.294 151.009 113.337 150.888 113.372C150.783 113.406 150.671 113.441 150.558 113.485C150.523 113.493 150.497 113.502 150.462 113.511C150.367 113.545 150.263 113.571 150.168 113.606C150.046 113.641 149.925 113.675 149.812 113.719C149.69 113.753 149.569 113.788 149.447 113.823C149.352 113.849 149.257 113.875 149.152 113.901C149.109 113.91 149.066 113.927 149.014 113.936C148.944 113.953 148.866 113.97 148.797 113.988C148.753 113.996 148.71 114.005 148.675 114.022C148.45 114.083 148.224 114.135 147.99 114.187C147.886 114.213 147.79 114.231 147.686 114.257C147.652 114.265 147.608 114.274 147.574 114.283C147.469 114.3 147.365 114.326 147.261 114.343C147.14 114.369 147.018 114.387 146.897 114.413C146.775 114.43 146.654 114.456 146.541 114.474C146.402 114.5 146.255 114.517 146.116 114.543C146.021 114.56 145.925 114.569 145.838 114.586C145.604 114.621 145.37 114.647 145.136 114.673C145.084 114.682 145.023 114.682 144.971 114.69C144.884 114.699 144.789 114.708 144.702 114.716C144.633 114.725 144.563 114.725 144.502 114.734C144.442 114.742 144.372 114.742 144.312 114.751C144.216 114.76 144.129 114.768 144.034 114.768C143.982 114.777 143.93 114.777 143.878 114.777C143.791 114.786 143.704 114.786 143.617 114.795C143.349 114.812 143.08 114.821 142.819 114.829C142.715 114.829 142.611 114.838 142.507 114.838C141.665 114.855 140.824 114.821 139.982 114.76C137.866 115.471 135.688 116.044 133.45 116.469C130.422 117.041 127.299 117.345 124.106 117.345C110.893 117.345 98.8776 112.183 89.9852 103.759C82.5676 96.7407 77.3102 87.4492 75.3235 77.0038L74.5167 68.9008L74.456 68.2935L72.209 45.8065L79.9042 45.0344L89.6469 44.0714L93.2385 43.7157L93.412 43.6983L100.005 43.039L111.535 41.8851L144.606 38.5798L146.307 38.4062L146.333 38.6752L148.589 61.2663L148.615 61.5093L148.901 64.3895L149.083 66.2114L150.506 80.474L150.627 81.6539L150.922 84.6296L153.187 107.308L153.247 107.897L153.69 112.244Z" fill="#C5DBFF"/>
<path fill-rule="evenodd" clip-rule="evenodd" d="M167.111 37.6883L168.118 38.735L167.823 44.1486L166.14 75.0075L166.001 77.5668L165.576 85.4182L165.012 95.8289L161.932 103.09L164.491 105.407L164.439 106.413L164.014 114.247L158.835 109.068C158.731 109.146 158.627 109.233 158.522 109.311C158.427 109.38 158.332 109.458 158.236 109.528C158.236 109.536 158.227 109.536 158.227 109.536C158.123 109.614 158.028 109.684 157.924 109.753C157.802 109.84 157.672 109.927 157.551 110.013C157.49 110.057 157.429 110.1 157.369 110.144C156.978 110.412 156.579 110.664 156.171 110.916C156.033 110.994 155.902 111.08 155.764 111.159C155.66 111.219 155.547 111.28 155.443 111.341C155.391 111.375 155.33 111.401 155.278 111.436C155.2 111.48 155.122 111.523 155.044 111.566C154.948 111.618 154.853 111.67 154.749 111.722C154.514 111.844 154.28 111.965 154.037 112.087C153.933 112.139 153.82 112.191 153.716 112.243H153.708C153.595 112.295 153.482 112.347 153.361 112.399C153.248 112.451 153.126 112.503 153.013 112.555C152.901 112.607 152.779 112.659 152.666 112.703C152.562 112.746 152.45 112.79 152.345 112.833C152.085 112.937 151.816 113.041 151.556 113.145C151.461 113.18 151.365 113.215 151.261 113.249C151.14 113.293 151.027 113.336 150.905 113.371C150.801 113.406 150.688 113.44 150.576 113.484C150.541 113.492 150.515 113.501 150.48 113.51C150.385 113.544 150.281 113.57 150.185 113.605C150.064 113.64 149.942 113.674 149.83 113.718C149.708 113.753 149.587 113.787 149.465 113.822C149.37 113.848 149.274 113.874 149.17 113.9C149.127 113.909 149.083 113.926 149.031 113.935C148.962 113.952 148.884 113.969 148.815 113.987C148.771 113.995 148.728 114.004 148.693 114.022C148.467 114.082 148.242 114.134 148.008 114.186C147.904 114.212 147.808 114.23 147.704 114.256C147.669 114.264 147.626 114.273 147.591 114.282C147.487 114.299 147.383 114.325 147.279 114.343C147.157 114.369 147.036 114.386 146.915 114.412C146.793 114.429 146.672 114.455 146.559 114.473C146.42 114.499 146.273 114.516 146.134 114.542C146.038 114.559 145.943 114.568 145.856 114.585C145.622 114.62 145.388 114.646 145.153 114.672C145.101 114.681 145.041 114.681 144.989 114.69C144.902 114.698 144.806 114.707 144.72 114.716C144.65 114.724 144.581 114.724 144.52 114.733C144.459 114.742 144.39 114.742 144.329 114.75C144.234 114.759 144.147 114.768 144.052 114.768C144 114.776 143.948 114.776 143.895 114.776C143.809 114.785 143.722 114.785 143.635 114.794C143.366 114.811 143.097 114.82 142.837 114.828C142.733 114.828 142.629 114.837 142.525 114.837C141.683 114.854 140.842 114.82 140 114.759C137.883 115.47 135.706 116.043 133.467 116.468C130.44 117.041 127.316 117.344 124.124 117.344C110.911 117.344 98.8954 112.182 90.0029 103.758L90.2892 98.4923V98.4576L91.9983 67.1648L93.2736 43.7061L93.369 41.945L93.8462 33.1133L100.422 33.469L149.092 36.1237L154.228 36.4013L163.086 36.8871L166.556 37.078L167.111 37.6883Z" fill="#C5DBFF"/>
<path fill-rule="evenodd" clip-rule="evenodd" d="M169.289 88.2801C169.064 93.1384 167.745 97.9967 165.09 102.126C164.943 102.369 161.759 102.534 161.603 102.768C166.409 106.733 164.882 105.909 160.561 110.802C159.191 109.483 159.061 108.538 157.352 110.142C150.333 115.547 141.415 114.029 133.433 116.467C119.812 112.173 111.727 96.0621 116.238 82.7277C124.41 54.7144 167.077 59.0869 169.289 88.2801Z" fill="#C5DBFF"/>
<path fill-rule="evenodd" clip-rule="evenodd" d="M148.624 61.51L137.953 62.5684L129.806 63.3839L106.703 65.6916L92.059 67.1578L91.9635 67.1665L89.76 67.3833L74.491 68.9102L74.4302 68.3029L72.0098 44.0808L80.8849 43.1959L93.3343 41.9466L100.11 41.2699L100.197 41.2612L133.268 37.9645L146.142 36.6719L146.342 38.6759L148.606 61.2671L148.624 61.51Z" fill="#C5DBFF"/>
<path fill-rule="evenodd" clip-rule="evenodd" d="M93.5166 41.9297L89.6387 42.3201L89.951 103.743L93.5166 41.9297Z" fill="#95B0DC"/>
<path fill-rule="evenodd" clip-rule="evenodd" d="M168.126 38.7376L167.831 44.1511L166.148 75.01L165.575 85.4207L164.526 85.3687L150.081 84.5792L145.04 84.3016L119.994 82.9395L115.335 82.6792L91.2433 81.3692H91.1826L91.9634 67.1674L93.3342 41.9475L94.0889 28.11L94.4446 21.6641L104.153 22.1933L148.84 24.6311L154.74 24.9521L168.126 38.7376Z" fill="#C5DBFF"/>
<path d="M100.509 31.3485L100.247 36.1562L148.913 38.8111L149.175 34.0034L100.509 31.3485Z" fill="white"/>
<path d="M100.112 41.2626L99.8496 46.0703L129.337 47.6789L129.599 42.8712L100.112 41.2626Z" fill="white"/>
<path d="M99.5191 60.4775L99.2568 65.2852L146.13 67.8417L146.392 63.0341L99.5191 60.4775Z" fill="white"/>
<path d="M99.1782 71.997L98.916 76.8047L113.001 77.5729L113.263 72.7652L99.1782 71.997Z" fill="white"/>
<path fill-rule="evenodd" clip-rule="evenodd" d="M173.905 119.487C172.621 120.771 170.53 120.771 169.237 119.487L163.997 114.247L157.82 108.07C156.961 107.212 156.675 105.988 156.97 104.895C157.005 104.748 157.057 104.609 157.117 104.47C157.273 104.088 157.516 103.724 157.829 103.412C158.141 103.099 158.505 102.865 158.887 102.7C159.078 102.622 159.278 102.561 159.477 102.518C160.527 102.301 161.672 102.596 162.487 103.412L163.476 104.401L164.474 105.407L173.896 114.829C175.197 116.113 175.197 118.203 173.905 119.487Z" fill="#614B98"/>
<path fill-rule="evenodd" clip-rule="evenodd" d="M169.255 87.9116C168.335 121.85 119.145 124.141 115.032 90.4883C112.3 52.793 168.335 49.9821 169.255 87.9116Z" fill="#614B98"/>
<path d="M142.074 110.224C154.536 110.224 164.639 100.121 164.639 87.6589C164.639 75.1965 154.536 65.0938 142.074 65.0938C129.612 65.0938 119.509 75.1965 119.509 87.6589C119.509 100.121 129.612 110.224 142.074 110.224Z" fill="white"/>
<path d="M150.637 81.6464C150.628 81.2386 150.593 80.8482 150.515 80.4665C150.237 78.957 149.483 77.6383 148.233 76.4931C146.663 75.0616 144.572 74.3242 141.944 74.3242C139.454 74.3242 137.458 75.0096 135.94 76.3543C134.838 77.326 134.049 78.6013 133.58 80.1889C133.173 81.5596 134.11 82.9651 135.524 83.1299C136.643 83.26 137.701 82.566 138.014 81.4902C138.291 80.5533 138.69 79.8245 139.237 79.304C139.974 78.6186 140.894 78.2803 141.987 78.2803C143.132 78.2803 144.095 78.6533 144.885 79.4168C145.657 80.1629 146.047 81.0304 146.047 82.0194C146.047 82.54 145.926 83.0258 145.674 83.4683C145.535 83.7112 145.318 83.9888 145.023 84.3011C144.694 84.6568 144.277 85.0559 143.765 85.507C142.672 86.47 141.926 87.2074 141.501 87.7106C140.894 88.448 140.451 89.1768 140.182 89.8968C139.818 90.8338 139.627 91.9529 139.627 93.2456C139.627 94.1479 140.365 94.8853 141.267 94.8853H142.403C143.28 94.8853 144 94.1999 144.043 93.3237C144.078 92.621 144.147 92.0744 144.243 91.71C144.364 91.2589 144.546 90.8598 144.807 90.5128C145.093 90.1224 145.709 89.5151 146.646 88.6823C148.199 87.3028 149.24 86.123 149.769 85.16C149.873 84.9691 149.969 84.7783 150.055 84.5787C150.428 83.7198 150.619 82.8002 150.619 81.8199C150.637 81.7592 150.637 81.7071 150.637 81.6464ZM141.926 96.0738C140.573 96.0738 139.471 97.1756 139.471 98.529C139.471 99.8911 140.573 100.984 141.926 100.984C143.288 100.984 144.381 99.8824 144.381 98.529C144.381 97.1756 143.28 96.0738 141.926 96.0738Z" fill="#614B98"/>
<path fill-rule="evenodd" clip-rule="evenodd" d="M168.126 38.7347L164.335 38.5959L154.106 38.2141L154.575 28.4802L154.74 24.9492L168.126 38.7347Z" fill="#88A5D5"/>
<path d="M0.188695 22.5984C1.94355 22.5618 3.40592 22.5344 4.79597 22.5253L8.94095 22.4887L13.0293 22.4674H17.1177L33.5372 22.504L50.1297 22.5344C55.671 22.5344 61.2218 22.5344 66.7694 22.5344L66.7474 22.7019L53.5388 19.3159C53.5209 19.3106 53.5051 19.3002 53.4933 19.2861C53.4815 19.272 53.4744 19.2548 53.4727 19.2368C53.257 17.8454 52.6585 16.536 51.7399 15.4458C51.2778 14.9098 50.7324 14.4465 50.1234 14.0726C49.5085 13.7024 48.8425 13.4185 48.1453 13.2291C46.747 12.8347 45.2708 12.7741 43.8431 13.0525C42.4168 13.3256 41.0787 13.9249 39.9402 14.8003C39.9233 14.816 39.9007 14.8247 39.8773 14.8247C39.8539 14.8247 39.8314 14.816 39.8144 14.8003C39.805 14.7876 39.7985 14.7731 39.7956 14.7577C39.3481 12.7517 38.1719 10.9678 36.4808 9.73054C35.6375 9.13408 34.6843 8.69899 33.6724 8.44863C32.6525 8.20329 31.6035 8.08964 30.5527 8.11064C29.506 8.1074 28.4638 8.24263 27.455 8.51257C26.4445 8.77983 25.503 9.24862 24.6906 9.88887C23.8925 10.5537 23.2415 11.3679 22.7767 12.2826C22.3119 13.1973 22.0429 14.1935 21.986 15.2114C21.9852 15.223 21.982 15.2343 21.9767 15.2448C21.9714 15.2552 21.964 15.2645 21.9549 15.2721C21.9458 15.2797 21.9353 15.2856 21.9239 15.2893C21.9125 15.293 21.9005 15.2944 21.8885 15.2936C21.8752 15.2919 21.8625 15.2875 21.8511 15.2807C21.8397 15.2739 21.8299 15.2648 21.8225 15.254C21.07 14.2746 20.0348 13.5329 18.8474 13.1226C17.6494 12.7342 16.3568 12.7129 15.1458 13.0617C14.5377 13.2125 13.9611 13.4638 13.4413 13.8046C12.923 14.1476 12.4786 14.5851 12.133 15.0926C11.4479 16.1275 11.0854 17.3316 11.0889 18.5608C11.0935 18.5726 11.0935 18.5856 11.0889 18.5973C10.7092 18.9066 10.3043 19.1856 9.87813 19.4316C9.45672 19.6844 9.01957 19.9097 8.58243 20.1289C7.69661 20.5535 6.78501 20.9256 5.85266 21.2434C4.92491 21.5753 3.96572 21.8341 3.02225 22.0838C2.54422 22.2025 2.06305 22.306 1.58188 22.4187C1.10071 22.5314 0.682444 22.5344 0.188695 22.5984ZM0.0125772 22.5984C0.481167 22.4735 1.02209 22.3182 1.53156 22.233C2.04104 22.1477 2.47504 22.0229 2.96879 21.9072C3.91226 21.6636 4.85573 21.4108 5.7992 21.0881C6.72808 20.7776 7.63655 20.4125 8.51953 19.995C8.95982 19.7788 9.39382 19.5595 9.81209 19.3098C10.2317 19.0751 10.6313 18.8083 11.0071 18.5121L10.9883 18.5486C10.9802 17.3007 11.3426 16.0768 12.0324 15.0226C12.3835 14.4987 12.8364 14.0458 13.3658 13.6889C13.8933 13.3409 14.4783 13.0824 15.0955 12.9247C16.3348 12.5626 17.6593 12.5796 18.8883 12.9734C20.1124 13.3871 21.1812 14.1452 21.9577 15.1505L21.7942 15.1962C21.85 14.147 22.1148 13.1182 22.5741 12.1665C23.0255 11.211 23.6942 10.3668 24.5302 9.69704C25.3605 9.03162 26.3242 8.54017 27.3606 8.25375C28.398 7.96865 29.4712 7.82416 30.5496 7.82442C31.627 7.79694 32.7035 7.90751 33.7511 8.15327C34.8066 8.40488 35.8012 8.8538 36.679 9.47476C37.5525 10.1013 38.2872 10.8914 38.8395 11.798C39.395 12.6978 39.7715 13.6903 39.9497 14.7242L39.8019 14.6724C40.3766 14.2103 41.0109 13.8224 41.6888 13.5184C42.3593 13.2081 43.0656 12.9761 43.7927 12.8272C45.2528 12.5381 46.7635 12.5955 48.1956 12.9947C48.9143 13.188 49.6013 13.478 50.2366 13.8564C50.8708 14.241 51.4386 14.7199 51.9192 15.2753C52.8731 16.3967 53.4697 17.7625 53.6363 19.2063L53.5702 19.1302L66.7788 22.5192C66.8013 22.5249 66.8205 22.539 66.8323 22.5584C66.8441 22.5778 66.8475 22.6009 66.8417 22.6227C66.8362 22.6412 66.8247 22.6575 66.8088 22.669C66.7929 22.6805 66.7735 22.6867 66.7536 22.6867C61.1903 22.6867 55.6333 22.6593 50.0668 22.6867L33.3265 22.7171L16.4164 22.7536H12.1613L7.92515 22.7323L3.73614 22.6958C2.34924 22.6745 1.03467 22.6471 0 22.6136L0.0125772 22.5984Z" fill="#15181A"/>
<path d="M201.363 90.9257C202.464 90.903 203.382 90.8861 204.254 90.8804L206.856 90.8578L209.422 90.8446H211.988L222.294 90.8672L232.709 90.8861C236.187 90.8861 239.671 90.8861 243.153 90.8861L243.139 90.9897L234.848 88.8937C234.837 88.8904 234.827 88.8839 234.82 88.8752C234.812 88.8665 234.808 88.8558 234.807 88.8447C234.671 87.9834 234.296 87.1728 233.719 86.4979C233.429 86.1661 233.087 85.8793 232.705 85.6478C232.319 85.4187 231.901 85.2429 231.463 85.1257C230.585 84.8815 229.659 84.844 228.763 85.0163C227.867 85.1854 227.028 85.5564 226.313 86.0983C226.302 86.108 226.288 86.1134 226.274 86.1134C226.259 86.1134 226.245 86.108 226.234 86.0983C226.228 86.0904 226.224 86.0814 226.222 86.0719C225.941 84.8301 225.203 83.7258 224.142 82.9599C223.612 82.5906 223.014 82.3213 222.379 82.1663C221.739 82.0144 221.08 81.9441 220.421 81.9571C219.764 81.9551 219.11 82.0388 218.477 82.2059C217.842 82.3713 217.251 82.6615 216.741 83.0579C216.24 83.4694 215.832 83.9735 215.54 84.5397C215.248 85.1059 215.08 85.7226 215.044 86.3528C215.043 86.36 215.041 86.367 215.038 86.3734C215.035 86.3799 215.03 86.3856 215.024 86.3904C215.019 86.3951 215.012 86.3987 215.005 86.401C214.998 86.4033 214.99 86.4042 214.983 86.4037C214.974 86.4026 214.966 86.3999 214.959 86.3957C214.952 86.3915 214.946 86.3858 214.941 86.3792C214.469 85.7728 213.819 85.3137 213.074 85.0597C212.322 84.8193 211.511 84.8061 210.751 85.022C210.369 85.1154 210.007 85.271 209.681 85.4819C209.355 85.6943 209.076 85.9651 208.86 86.2793C208.43 86.9199 208.202 87.6653 208.204 88.4262C208.207 88.4335 208.207 88.4415 208.204 88.4488C207.966 88.6403 207.712 88.813 207.444 88.9653C207.18 89.1218 206.905 89.2612 206.631 89.397C206.075 89.6598 205.503 89.8902 204.918 90.0869C204.335 90.2923 203.733 90.4525 203.141 90.6071C202.841 90.6806 202.539 90.7447 202.237 90.8144C201.935 90.8842 201.672 90.8861 201.363 90.9257ZM201.252 90.9257C201.546 90.8484 201.886 90.7522 202.205 90.6995C202.525 90.6467 202.798 90.5694 203.108 90.4978C203.7 90.347 204.292 90.1905 204.884 89.9907C205.467 89.7985 206.037 89.5725 206.592 89.314C206.868 89.1802 207.14 89.0445 207.403 88.8899C207.666 88.7446 207.917 88.5794 208.153 88.3961L208.141 88.4187C208.136 87.6462 208.363 86.8885 208.796 86.2359C209.017 85.9116 209.301 85.6312 209.633 85.4103C209.964 85.1948 210.332 85.0348 210.719 84.9372C211.497 84.7131 212.328 84.7236 213.1 84.9673C213.868 85.2234 214.539 85.6927 215.026 86.3151L214.923 86.3433C214.958 85.6939 215.125 85.057 215.413 84.4678C215.696 83.8764 216.116 83.3538 216.641 82.9391C217.162 82.5272 217.767 82.223 218.417 82.0457C219.068 81.8692 219.742 81.7797 220.419 81.7799C221.095 81.7629 221.771 81.8313 222.428 81.9835C223.091 82.1392 223.715 82.4171 224.266 82.8015C224.814 83.1894 225.275 83.6785 225.622 84.2397C225.971 84.7967 226.207 85.4111 226.319 86.0512L226.226 86.0191C226.587 85.7331 226.985 85.4929 227.411 85.3047C227.831 85.1127 228.275 84.969 228.731 84.8769C229.647 84.6979 230.596 84.7334 231.495 84.9805C231.946 85.1002 232.377 85.2797 232.776 85.514C233.174 85.7521 233.53 86.0485 233.832 86.3924C234.43 87.0865 234.805 87.932 234.909 88.8258L234.868 88.7787L243.158 90.8766C243.173 90.8802 243.185 90.8889 243.192 90.9009C243.199 90.9129 243.202 90.9272 243.198 90.9407C243.195 90.9522 243.187 90.9622 243.177 90.9694C243.167 90.9765 243.155 90.9804 243.143 90.9803C239.651 90.9803 236.163 90.9634 232.669 90.9803L222.162 90.9992L211.548 91.0218H208.877L206.218 91.0086L203.589 90.986C202.719 90.9728 201.894 90.9558 201.244 90.9351L201.252 90.9257Z" fill="#15181A"/>
</svg>
