<svg width="130" height="131" viewBox="0 0 130 131" fill="none" xmlns="http://www.w3.org/2000/svg">
<g clip-path="url(#clip0_355_11836)">
<path fill-rule="evenodd" clip-rule="evenodd" d="M114.831 68.1178C114.831 75.4584 113.237 82.4264 110.377 88.6924C110.359 88.7271 110.351 88.7618 110.333 88.7878C109.137 91.3964 107.716 93.8924 106.095 96.2324C104.449 98.6158 102.603 100.852 100.575 102.914C99.7686 103.738 98.9366 104.526 98.0699 105.289C96.8826 106.338 95.6432 107.334 94.3606 108.27C90.3479 111.191 85.8759 113.522 81.0746 115.143C78.9599 115.854 76.7846 116.426 74.5486 116.85C71.5239 117.422 68.4039 117.726 65.2146 117.726C52.0152 117.726 40.0119 112.569 31.1286 104.154C23.7186 97.1424 18.4666 87.8604 16.4819 77.4258C15.9446 74.6004 15.6499 71.6971 15.6152 68.7244C15.6152 68.5251 15.6152 68.3171 15.6152 68.1178C15.6152 59.9711 17.5826 52.2838 21.0579 45.4978C21.3786 44.8738 21.7079 44.2584 22.0546 43.6431C25.3912 37.7671 29.8979 32.6364 35.2539 28.5718C38.3392 26.2231 41.7192 24.2384 45.3072 22.6611C51.3999 19.9831 58.1339 18.5011 65.2232 18.5011C74.2279 18.5011 82.6692 20.9018 89.9492 25.0964C91.9512 26.2491 93.8666 27.5404 95.6779 28.9531C98.8239 31.4058 101.675 34.2311 104.145 37.3511C104.587 37.9058 105.012 38.4691 105.428 39.0498C106.711 40.8178 107.872 42.6724 108.912 44.6051C112.691 51.6078 114.831 59.6158 114.831 68.1178Z" fill="#E7F1FF"/>
<path fill-rule="evenodd" clip-rule="evenodd" d="M94.7938 112.629C94.6811 112.681 94.5685 112.733 94.4471 112.785C94.3345 112.837 94.2131 112.889 94.1005 112.941C93.9878 112.993 93.8665 113.045 93.7538 113.088C93.6498 113.132 93.5371 113.175 93.4332 113.218C93.1731 113.322 92.9045 113.426 92.6445 113.53C92.5492 113.565 92.4538 113.6 92.3498 113.634C92.2285 113.678 92.1158 113.721 91.9945 113.756C91.8905 113.79 91.7778 113.825 91.6651 113.868C91.6305 113.877 91.6045 113.886 91.5698 113.894C91.4745 113.929 91.3705 113.955 91.2751 113.99C91.1538 114.024 91.0325 114.059 90.9198 114.102C90.7985 114.137 90.6772 114.172 90.5558 114.206C90.4605 114.232 90.3652 114.258 90.2612 114.284C90.2178 114.293 90.1745 114.31 90.1225 114.319C90.0532 114.336 89.9752 114.354 89.9058 114.371C89.8625 114.38 89.8192 114.388 89.7845 114.406C89.5592 114.466 89.3338 114.518 89.0998 114.57C88.9958 114.596 88.9005 114.614 88.7965 114.64C88.7618 114.648 88.7185 114.657 88.6838 114.666C88.5798 114.683 88.4758 114.709 88.3718 114.726C88.2505 114.752 88.1292 114.77 88.0078 114.796C87.8865 114.813 87.7652 114.839 87.6525 114.856C87.5138 114.882 87.3665 114.9 87.2278 114.926C87.1325 114.943 87.0372 114.952 86.9505 114.969C86.7165 115.004 86.4825 115.03 86.2485 115.056C86.1965 115.064 86.1358 115.064 86.0838 115.073C85.9972 115.082 85.9018 115.09 85.8151 115.099C85.7458 115.108 85.6765 115.108 85.6158 115.116C85.5552 115.125 85.4858 115.125 85.4251 115.134C85.3298 115.142 85.2431 115.151 85.1478 115.151C85.0958 115.16 85.0438 115.16 84.9918 115.16C84.9052 115.168 84.8185 115.168 84.7318 115.177C84.4632 115.194 84.1945 115.203 83.9345 115.212C83.8305 115.212 83.7265 115.22 83.6225 115.22C82.7818 115.238 81.9412 115.203 81.1005 115.142C78.9858 115.853 76.8105 116.425 74.5745 116.85C71.5498 117.422 68.4298 117.725 65.2405 117.725C52.0412 117.725 40.0378 112.568 31.1545 104.153C23.7445 97.1416 18.4925 87.8596 16.5078 77.4249L15.7018 69.3303L15.6412 68.7236L13.3965 46.2596L21.0838 45.4883L30.8165 44.5263L34.4045 44.1709L34.5778 44.1536L41.1645 43.4949L52.6825 42.3423L85.7198 39.0403L87.4185 38.8669L87.4445 39.1356L89.6978 61.7036L89.7238 61.9463L90.0098 64.8236L90.1918 66.6436L91.6132 80.8916L91.7345 82.0703L92.0292 85.0429L94.2912 107.698L94.3518 108.287L94.7938 112.629Z" fill="#709EB3"/>
<path fill-rule="evenodd" clip-rule="evenodd" d="M108.2 38.1516L109.206 39.1973L108.911 44.6053L107.23 75.4326L107.091 77.9893L106.666 85.8326L106.103 96.2326L103.026 103.487L105.583 105.801L105.531 106.806L105.106 114.632L99.9322 109.458C99.8282 109.536 99.7242 109.623 99.6202 109.701C99.5249 109.77 99.4296 109.848 99.3342 109.917C99.3342 109.926 99.3256 109.926 99.3256 109.926C99.2216 110.004 99.1262 110.073 99.0222 110.143C98.9009 110.229 98.7709 110.316 98.6496 110.403C98.5889 110.446 98.5282 110.489 98.4676 110.533C98.0776 110.801 97.6789 111.053 97.2716 111.304C97.1329 111.382 97.0029 111.469 96.8642 111.547C96.7602 111.607 96.6476 111.668 96.5436 111.729C96.4916 111.763 96.4309 111.789 96.3789 111.824C96.3009 111.867 96.2229 111.911 96.1449 111.954C96.0496 112.006 95.9542 112.058 95.8502 112.11C95.6162 112.231 95.3822 112.353 95.1396 112.474C95.0356 112.526 94.9229 112.578 94.8189 112.63H94.8102C94.6976 112.682 94.5849 112.734 94.4636 112.786C94.3509 112.838 94.2296 112.89 94.1169 112.942C94.0042 112.994 93.8829 113.046 93.7702 113.089C93.6662 113.133 93.5536 113.176 93.4496 113.219C93.1896 113.323 92.9209 113.427 92.6609 113.531C92.5656 113.566 92.4702 113.601 92.3662 113.635C92.2449 113.679 92.1322 113.722 92.0109 113.757C91.9069 113.791 91.7942 113.826 91.6816 113.869C91.6469 113.878 91.6209 113.887 91.5862 113.895C91.4909 113.93 91.3869 113.956 91.2916 113.991C91.1702 114.025 91.0489 114.06 90.9362 114.103C90.8149 114.138 90.6936 114.173 90.5722 114.207C90.4769 114.233 90.3816 114.259 90.2776 114.285C90.2342 114.294 90.1909 114.311 90.1389 114.32C90.0696 114.337 89.9916 114.355 89.9222 114.372C89.8789 114.381 89.8356 114.389 89.8009 114.407C89.5756 114.467 89.3502 114.519 89.1162 114.571C89.0122 114.597 88.9169 114.615 88.8129 114.641C88.7782 114.649 88.7349 114.658 88.7002 114.667C88.5962 114.684 88.4922 114.71 88.3882 114.727C88.2669 114.753 88.1456 114.771 88.0242 114.797C87.9029 114.814 87.7816 114.84 87.6689 114.857C87.5302 114.883 87.3829 114.901 87.2442 114.927C87.1489 114.944 87.0536 114.953 86.9669 114.97C86.7329 115.005 86.4989 115.031 86.2649 115.057C86.2129 115.065 86.1522 115.065 86.1002 115.074C86.0136 115.083 85.9182 115.091 85.8316 115.1C85.7622 115.109 85.6929 115.109 85.6322 115.117C85.5716 115.126 85.5022 115.126 85.4416 115.135C85.3462 115.143 85.2596 115.152 85.1642 115.152C85.1122 115.161 85.0602 115.161 85.0082 115.161C84.9216 115.169 84.8349 115.169 84.7482 115.178C84.4796 115.195 84.2109 115.204 83.9509 115.213C83.8469 115.213 83.7429 115.221 83.6389 115.221C82.7982 115.239 81.9576 115.204 81.1169 115.143C79.0022 115.854 76.8269 116.426 74.5909 116.851C71.5662 117.423 68.4462 117.726 65.2569 117.726C52.0576 117.726 40.0542 112.569 31.1709 104.154L31.4569 98.8933V98.8586L33.1642 67.598L34.4382 44.1633L34.5336 42.404L35.0102 33.5813L41.5796 33.9366L90.1996 36.5886L95.3302 36.866L104.179 37.3513L107.646 37.542L108.2 38.1516Z" fill="#709EB3"/>
<g style="mix-blend-mode:darken" opacity="0.1">
<path fill-rule="evenodd" clip-rule="evenodd" d="M110.375 88.6916C110.15 93.545 108.832 98.3983 106.18 102.524C106.033 102.766 102.852 102.931 102.696 103.165C107.498 107.126 105.972 106.302 101.656 111.19C100.287 109.873 100.157 108.928 98.4497 110.532C91.4384 115.931 82.5291 114.414 74.5557 116.85C60.9491 112.56 52.8717 96.4656 57.3784 83.145C65.5424 55.1603 108.165 59.5283 110.375 88.6916Z" fill="black"/>
</g>
<path fill-rule="evenodd" clip-rule="evenodd" d="M89.7326 61.9469L79.0726 63.0043L70.9346 63.8189L47.8553 66.1243L33.2259 67.5889L33.1306 67.5976L30.9293 67.8143L15.6759 69.3396L15.6153 68.7329L13.1973 44.5356L22.0633 43.6516L34.4999 42.4036L41.2686 41.7276L41.3553 41.7189L74.3926 38.4256L87.2539 37.1343L87.4533 39.1363L89.7153 61.7043L89.7326 61.9469Z" fill="#709EB3"/>
<g style="mix-blend-mode:darken" opacity="0.1">
<path fill-rule="evenodd" clip-rule="evenodd" d="M34.6806 42.3848L30.8066 42.7748L31.1186 104.135L34.6806 42.3848Z" fill="black"/>
</g>
<path fill-rule="evenodd" clip-rule="evenodd" d="M109.214 39.1978L108.92 44.6058L107.238 75.4332L106.666 85.8332L105.618 85.7812L91.1876 84.9925L86.1523 84.7152L61.1316 83.3545L56.4776 83.0945L32.4103 81.7858H32.3496L33.1296 67.5985L34.4989 42.4045L35.2529 28.5812L35.6083 22.1418L45.3063 22.6705L89.9483 25.1058L95.8416 25.4265L109.214 39.1978Z" fill="#709EB3"/>
<path d="M65.357 40.9923L65.1621 44.5642L101.319 46.5366L101.514 42.9647L65.357 40.9923Z" fill="white"/>
<path d="M65.062 48.3558L64.8672 51.9277L86.7749 53.1228L86.9697 49.5509L65.062 48.3558Z" fill="white"/>
<path d="M40.678 60.9174L40.416 65.7202L87.2408 68.2742L87.5028 63.4714L40.678 60.9174Z" fill="white"/>
<path d="M40.3381 72.4251L40.0762 77.2279L54.147 77.9954L54.4089 73.1926L40.3381 72.4251Z" fill="white"/>
<path fill-rule="evenodd" clip-rule="evenodd" d="M114.986 119.867C113.703 121.15 111.614 121.15 110.323 119.867L105.088 114.632L98.9177 108.462C98.0597 107.604 97.7737 106.382 98.0683 105.29C98.103 105.142 98.155 105.004 98.2157 104.865C98.3717 104.484 98.6143 104.12 98.9263 103.808C99.2383 103.496 99.6023 103.262 99.9837 103.097C100.174 103.019 100.374 102.958 100.573 102.915C101.622 102.698 102.766 102.993 103.58 103.808L104.568 104.796L105.565 105.801L114.977 115.213C116.277 116.496 116.277 118.584 114.986 119.867Z" fill="#25536A"/>
<path fill-rule="evenodd" clip-rule="evenodd" d="M110.341 88.3196C109.422 122.224 60.2818 124.512 56.1738 90.8936C53.4438 53.237 109.422 50.429 110.341 88.3196Z" fill="#25536A"/>
<path d="M83.1895 110.609C95.6391 110.609 105.731 100.517 105.731 88.0672C105.731 75.6175 95.6391 65.5251 83.1895 65.5251C70.7399 65.5251 60.6475 75.6175 60.6475 88.0672C60.6475 100.517 70.7399 110.609 83.1895 110.609Z" fill="white"/>
<g style="mix-blend-mode:darken" opacity="0.1">
<path fill-rule="evenodd" clip-rule="evenodd" d="M109.214 39.197L105.427 39.0583L95.209 38.677L95.677 28.953L95.8417 25.4257L109.214 39.197Z" fill="black"/>
</g>
<path d="M94.7821 86.3067C95.0449 86.1173 95.2399 85.8531 95.3397 85.5511C95.4394 85.2491 95.439 84.9245 95.3384 84.6228C95.2378 84.3211 95.0421 84.0574 94.7787 83.8687C94.5153 83.68 94.1975 83.5757 93.8698 83.5706L87.5048 83.338C87.4735 83.3359 87.4435 83.3251 87.4184 83.3069C87.3933 83.2887 87.3742 83.2639 87.3634 83.2354L85.1639 77.4895C85.0534 77.1972 84.8527 76.9448 84.589 76.7664C84.3252 76.5881 84.0112 76.4924 83.6894 76.4924C83.3676 76.4924 83.0535 76.5881 82.7898 76.7664C82.5261 76.9448 82.3253 77.1972 82.2148 77.4895L80.0225 83.2559C80.0116 83.2844 79.9925 83.3092 79.9674 83.3274C79.9423 83.3456 79.9123 83.3564 79.881 83.3585L73.5161 83.5911C73.1883 83.5963 72.8705 83.7005 72.6071 83.8892C72.3438 84.0779 72.1481 84.3416 72.0475 84.6433C71.9469 84.9451 71.9464 85.2697 72.0462 85.5716C72.1459 85.8736 72.3409 86.1378 72.6038 86.3272L77.5967 90.1236C77.6217 90.1426 77.6404 90.1683 77.6504 90.1975C77.6605 90.2267 77.6615 90.258 77.6533 90.2878L75.9347 96.1773C75.8457 96.4772 75.8543 96.7964 75.9595 97.0913C76.0646 97.3863 76.2611 97.6429 76.5223 97.826C76.7835 98.0091 77.0967 98.11 77.4193 98.1148C77.7419 98.1197 78.0582 98.0283 78.3251 97.8532L83.601 94.433C83.627 94.4156 83.6578 94.4063 83.6894 94.4063C83.721 94.4063 83.7518 94.4156 83.7778 94.433L89.0536 97.8532C89.317 98.0343 89.6322 98.1316 89.9553 98.1316C90.2785 98.1316 90.5937 98.0343 90.857 97.8532C91.1183 97.6718 91.315 97.4165 91.4202 97.1225C91.5253 96.8285 91.5336 96.5102 91.444 96.2115L89.7113 90.3014C89.7022 90.2718 89.7027 90.2401 89.7128 90.2107C89.7229 90.1813 89.7422 90.1557 89.7679 90.1373L94.7821 86.3067Z" fill="#25536A"/>
<path d="M73.2958 97.8666L92.7949 78.2212" stroke="white" stroke-width="2.84444" stroke-linecap="round"/>
<path d="M74.0905 98.9316L94.4069 78.3583" stroke="#25536A" stroke-width="2.13333" stroke-linecap="round"/>
<ellipse opacity="0.9" cx="51.2194" cy="45.473" rx="9.95556" ry="9.6" transform="rotate(3.11808 51.2194 45.473)" fill="white"/>
<path d="M52.0741 40.2531C52.5267 40.3931 52.9072 40.627 53.2183 40.9566C53.5211 41.2773 53.7183 41.6348 53.8224 42.0516C53.8657 42.2251 53.869 42.3033 53.8486 42.6775C53.8283 43.0503 53.8163 43.1297 53.7549 43.2973C53.4566 44.1117 52.7176 44.7259 51.8424 44.8868C50.9296 45.0545 50.0321 44.766 49.4113 44.1052C49.1217 43.797 48.9277 43.4408 48.8247 43.0283C48.7814 42.8547 48.7781 42.7765 48.7985 42.4024C48.8249 41.9174 48.8695 41.7546 49.0728 41.4007C49.4369 40.7669 50.0839 40.3216 50.8376 40.1861C51.129 40.1337 51.1619 40.1325 51.5314 40.1624C51.7686 40.1816 51.9303 40.2086 52.0741 40.2531Z" fill="#709EB3"/>
<path d="M52.047 46.0335C53.3372 46.3174 54.3726 46.9216 55.2186 47.8843C55.4002 48.091 55.7104 48.5206 55.7081 48.5623C55.7057 48.6065 55.3454 49.0023 55.1228 49.2054C54.1933 50.0531 53.1047 50.5341 51.7829 50.681C51.3062 50.734 50.4507 50.6874 49.9825 50.5829C48.4944 50.2509 47.3042 49.4803 46.4753 48.3122C46.3839 48.1834 46.3098 48.0656 46.3107 48.0504C46.3115 48.0352 46.3977 47.9261 46.5021 47.808C47.5094 46.6693 48.9618 45.9876 50.554 45.9063C50.9087 45.8882 51.6888 45.9546 52.047 46.0335Z" fill="#709EB3"/>
</g>
<defs>
<clipPath id="clip0_355_11836">
<rect width="130" height="130" fill="white" transform="translate(0 0.5)"/>
</clipPath>
</defs>
</svg>
