<svg width="131" height="131" viewBox="0 0 131 131" fill="none" xmlns="http://www.w3.org/2000/svg">
<path fill-rule="evenodd" clip-rule="evenodd" d="M114.949 67.6871C114.949 75.0353 113.352 82.0104 110.489 88.2829C110.472 88.3176 110.463 88.3523 110.446 88.3783C109.249 90.9896 107.826 93.4882 106.204 95.8306C104.555 98.2164 102.707 100.455 100.677 102.519C99.8705 103.344 99.0377 104.133 98.1701 104.897C96.9816 105.946 95.7409 106.944 94.457 107.881C90.4402 110.805 85.9636 113.138 81.1573 114.761C79.0405 115.472 76.8629 116.045 74.6246 116.47C71.5969 117.042 68.4737 117.346 65.2811 117.346C52.0682 117.346 40.0525 112.184 31.1601 103.76C23.7425 96.7415 18.4851 87.45 16.4984 77.0046C15.9605 74.1764 15.6656 71.2701 15.6309 68.2944C15.6309 68.0948 15.6309 67.8866 15.6309 67.6871C15.6309 59.5321 17.6002 51.8369 21.0791 45.0439C21.4001 44.4193 21.7298 43.8033 22.0768 43.1873C25.4169 37.3053 29.9282 32.1694 35.2897 28.1005C38.3782 25.7495 41.7616 23.7627 45.3533 22.1838C51.4522 19.5031 58.1931 18.0195 65.2897 18.0195C74.3036 18.0195 82.7536 20.4227 90.0411 24.6216C92.0452 25.7755 93.9625 27.0681 95.7757 28.4823C98.9249 30.9374 101.779 33.7657 104.252 36.8889C104.694 37.4441 105.119 38.008 105.536 38.5893C106.82 40.3591 107.982 42.2157 109.023 44.1503C112.806 51.1602 114.949 59.1764 114.949 67.6871Z" fill="#E1EDFF"/>
<path fill-rule="evenodd" clip-rule="evenodd" d="M94.89 112.244C94.7772 112.296 94.6644 112.348 94.543 112.4C94.4302 112.452 94.3087 112.504 94.1959 112.556C94.0832 112.608 93.9617 112.66 93.8489 112.704C93.7448 112.747 93.632 112.79 93.5279 112.834C93.2677 112.938 92.9987 113.042 92.7385 113.146C92.643 113.181 92.5476 113.216 92.4435 113.25C92.322 113.294 92.2093 113.337 92.0878 113.372C91.9837 113.406 91.8709 113.441 91.7581 113.485C91.7234 113.493 91.6974 113.502 91.6627 113.511C91.5673 113.545 91.4632 113.571 91.3677 113.606C91.2463 113.641 91.1248 113.675 91.012 113.719C90.8906 113.753 90.7691 113.788 90.6477 113.823C90.5522 113.849 90.4568 113.875 90.3527 113.901C90.3093 113.91 90.2659 113.927 90.2139 113.936C90.1445 113.953 90.0664 113.97 89.997 113.988C89.9536 113.996 89.9102 114.005 89.8755 114.022C89.65 114.083 89.4244 114.135 89.1902 114.187C89.086 114.213 88.9906 114.231 88.8865 114.257C88.8518 114.265 88.8084 114.274 88.7737 114.283C88.6696 114.3 88.5655 114.326 88.4614 114.343C88.34 114.369 88.2185 114.387 88.097 114.413C87.9756 114.43 87.8541 114.456 87.7413 114.474C87.6025 114.5 87.455 114.517 87.3162 114.543C87.2208 114.56 87.1254 114.569 87.0386 114.586C86.8044 114.621 86.5701 114.647 86.3359 114.673C86.2838 114.682 86.2231 114.682 86.1711 114.69C86.0843 114.699 85.9889 114.708 85.9021 114.716C85.8327 114.725 85.7633 114.725 85.7026 114.734C85.6419 114.742 85.5724 114.742 85.5117 114.751C85.4163 114.76 85.3295 114.768 85.2341 114.768C85.1821 114.777 85.13 114.777 85.0779 114.777C84.9912 114.786 84.9044 114.786 84.8177 114.795C84.5487 114.812 84.2798 114.821 84.0195 114.829C83.9154 114.829 83.8113 114.838 83.7072 114.838C82.8657 114.855 82.0241 114.821 81.1826 114.76C79.0658 115.471 76.8882 116.044 74.6499 116.469C71.6222 117.041 68.499 117.345 65.3064 117.345C52.0935 117.345 40.0778 112.183 31.1854 103.759C23.7678 96.7407 18.5104 87.4492 16.5237 77.0038L15.7169 68.9008L15.6561 68.2935L13.4092 45.8065L21.1044 45.0344L30.847 44.0714L34.4387 43.7157L34.6122 43.6983L41.2057 43.039L52.7355 41.8851L85.8067 38.5798L87.5071 38.4062L87.5331 38.6752L89.7888 61.2663L89.8148 61.5093L90.1011 64.3895L90.2833 66.2114L91.7061 80.474L91.8275 81.6539L92.1225 84.6296L94.3868 107.308L94.4475 107.897L94.89 112.244Z" fill="#C5DBFF"/>
<path fill-rule="evenodd" clip-rule="evenodd" d="M108.311 37.6902L109.318 38.737L109.023 44.1505L107.34 75.0095L107.201 77.5688L106.776 85.4202L106.212 95.8308L103.132 103.092L105.691 105.409L105.639 106.415L105.214 114.249L100.035 109.07C99.9309 109.148 99.8268 109.235 99.7227 109.313C99.6272 109.382 99.5318 109.46 99.4364 109.53C99.4364 109.538 99.4277 109.538 99.4277 109.538C99.3236 109.616 99.2281 109.686 99.124 109.755C99.0026 109.842 98.8725 109.929 98.751 110.015C98.6903 110.059 98.6295 110.102 98.5688 110.145C98.1784 110.414 97.7793 110.666 97.3716 110.918C97.2328 110.996 97.1026 111.082 96.9638 111.161C96.8597 111.221 96.7469 111.282 96.6428 111.343C96.5908 111.377 96.5301 111.403 96.478 111.438C96.3999 111.482 96.3218 111.525 96.2438 111.568C96.1483 111.62 96.0529 111.672 95.9488 111.724C95.7146 111.846 95.4803 111.967 95.2374 112.089C95.1333 112.141 95.0205 112.193 94.9164 112.245H94.9077C94.795 112.297 94.6822 112.349 94.5607 112.401C94.4479 112.453 94.3265 112.505 94.2137 112.557C94.1009 112.609 93.9794 112.661 93.8667 112.705C93.7626 112.748 93.6498 112.792 93.5457 112.835C93.2854 112.939 93.0165 113.043 92.7562 113.147C92.6608 113.182 92.5653 113.217 92.4612 113.251C92.3398 113.295 92.227 113.338 92.1055 113.373C92.0014 113.408 91.8886 113.442 91.7759 113.486C91.7412 113.494 91.7151 113.503 91.6804 113.512C91.585 113.546 91.4809 113.572 91.3855 113.607C91.264 113.642 91.1425 113.676 91.0298 113.72C90.9083 113.755 90.7868 113.789 90.6654 113.824C90.57 113.85 90.4745 113.876 90.3704 113.902C90.327 113.911 90.2837 113.928 90.2316 113.937C90.1622 113.954 90.0841 113.971 90.0147 113.989C89.9713 113.997 89.928 114.006 89.8933 114.023C89.6677 114.084 89.4421 114.136 89.2079 114.188C89.1038 114.214 89.0083 114.232 88.9042 114.258C88.8695 114.266 88.8262 114.275 88.7915 114.284C88.6874 114.301 88.5832 114.327 88.4791 114.344C88.3577 114.37 88.2362 114.388 88.1148 114.414C87.9933 114.431 87.8719 114.457 87.7591 114.475C87.6203 114.501 87.4728 114.518 87.334 114.544C87.2385 114.561 87.1431 114.57 87.0564 114.587C86.8221 114.622 86.5879 114.648 86.3536 114.674C86.3016 114.683 86.2409 114.683 86.1888 114.691C86.102 114.7 86.0066 114.709 85.9198 114.718C85.8504 114.726 85.781 114.726 85.7203 114.735C85.6596 114.744 85.5902 114.744 85.5294 114.752C85.434 114.761 85.3473 114.77 85.2518 114.77C85.1998 114.778 85.1477 114.778 85.0957 114.778C85.0089 114.787 84.9222 114.787 84.8354 114.796C84.5665 114.813 84.2975 114.822 84.0373 114.83C83.9332 114.83 83.829 114.839 83.7249 114.839C82.8834 114.856 82.0419 114.822 81.2004 114.761C79.0835 115.472 76.9059 116.045 74.6677 116.47C71.6399 117.043 68.5167 117.346 65.3241 117.346C52.1112 117.346 40.0956 112.184 31.2031 103.76L31.4894 98.4942V98.4595L33.1985 67.1668L34.4738 43.7081L34.5692 41.9469L35.0464 33.1152L41.6225 33.4709L90.2923 36.1257L95.4283 36.4033L104.286 36.8891L107.756 37.08L108.311 37.6902Z" fill="#C5DBFF"/>
<path fill-rule="evenodd" clip-rule="evenodd" d="M110.489 88.282C110.264 93.1404 108.945 97.9987 106.29 102.128C106.143 102.371 102.959 102.536 102.803 102.77C107.609 106.735 106.082 105.911 101.762 110.804C100.391 109.485 100.261 108.539 98.5517 110.144C91.5332 115.549 82.6147 114.031 74.6332 116.469C61.0126 112.175 52.927 96.064 57.4383 82.7297C65.6106 54.7163 108.277 59.0888 110.489 88.282Z" fill="#C5DBFF"/>
<path fill-rule="evenodd" clip-rule="evenodd" d="M89.8238 61.51L79.1529 62.5684L71.0065 63.3839L47.9035 65.6916L33.2592 67.1578L33.1637 67.1665L30.9601 67.3833L15.6912 68.9102L15.6304 68.3029L13.21 44.0808L22.0851 43.1959L34.5345 41.9466L41.3101 41.2699L41.3968 41.2612L74.4681 37.9645L87.3426 36.6719L87.5421 38.6759L89.8064 61.2671L89.8238 61.51Z" fill="#C5DBFF"/>
<path fill-rule="evenodd" clip-rule="evenodd" d="M34.7168 41.9277L30.8389 42.3181L31.1512 103.741L34.7168 41.9277Z" fill="#95B0DC"/>
<path fill-rule="evenodd" clip-rule="evenodd" d="M109.326 38.7376L109.031 44.1511L107.348 75.01L106.776 85.4207L105.726 85.3687L91.2812 84.5792L86.2407 84.3016L61.1943 82.9395L56.5356 82.6792L32.4435 81.3692H32.3828L33.1636 67.1674L34.5343 41.9475L35.2891 28.11L35.6448 21.6641L45.3528 22.1933L90.0406 24.6311L95.9399 24.9521L109.326 38.7376Z" fill="#C5DBFF"/>
<path d="M65.4245 40.5338L65.2295 44.1094L101.423 46.0838L101.618 42.5082L65.4245 40.5338Z" fill="white"/>
<path d="M65.1286 47.9049L64.9336 51.4805L86.8638 52.6768L87.0588 49.1012L65.1286 47.9049Z" fill="white"/>
<path d="M40.7193 60.4794L40.457 65.2871L87.3299 67.8437L87.5921 63.036L40.7193 60.4794Z" fill="white"/>
<path d="M40.3784 71.9989L40.1162 76.8066L54.2014 77.5749L54.4637 72.7672L40.3784 71.9989Z" fill="white"/>
<path fill-rule="evenodd" clip-rule="evenodd" d="M115.105 119.489C113.821 120.773 111.73 120.773 110.437 119.489L105.197 114.249L99.0202 108.072C98.1614 107.213 97.8751 105.99 98.17 104.897C98.2047 104.75 98.2568 104.611 98.3175 104.472C98.4737 104.09 98.7166 103.726 99.0289 103.414C99.3412 103.101 99.7056 102.867 100.087 102.702C100.278 102.624 100.478 102.563 100.677 102.52C101.727 102.303 102.872 102.598 103.688 103.414L104.677 104.403L105.674 105.409L115.096 114.831C116.397 116.115 116.397 118.205 115.105 119.489Z" fill="#614B98"/>
<path fill-rule="evenodd" clip-rule="evenodd" d="M110.455 87.9097C109.535 121.848 60.3447 124.139 56.2325 90.4863C53.4997 52.791 109.535 49.9801 110.455 87.9097Z" fill="#614B98"/>
<path d="M83.2741 110.222C95.7365 110.222 105.839 100.119 105.839 87.6569C105.839 75.1945 95.7365 65.0918 83.2741 65.0918C70.8117 65.0918 60.709 75.1945 60.709 87.6569C60.709 100.119 70.8117 110.222 83.2741 110.222Z" fill="white"/>
<path fill-rule="evenodd" clip-rule="evenodd" d="M109.326 38.7366L105.535 38.5978L95.3066 38.2161L95.7751 28.4821L95.94 24.9512L109.326 38.7366Z" fill="#88A5D5"/>
<path d="M94.8787 85.8946C95.1418 85.7051 95.337 85.4406 95.4369 85.1383C95.5367 84.836 95.5363 84.5111 95.4356 84.209C95.3349 83.907 95.139 83.643 94.8753 83.4541C94.6117 83.2652 94.2935 83.1609 93.9655 83.1557L87.594 82.9229C87.5627 82.9208 87.5326 82.91 87.5075 82.8918C87.4824 82.8735 87.4633 82.8487 87.4524 82.8202L85.2507 77.0684C85.1401 76.7758 84.9392 76.5231 84.6752 76.3446C84.4111 76.1661 84.0968 76.0703 83.7746 76.0703C83.4525 76.0703 83.1382 76.1661 82.8741 76.3446C82.6101 76.5231 82.4092 76.7758 82.2986 77.0684L80.104 82.8407C80.0931 82.8692 80.074 82.8941 80.0489 82.9123C80.0237 82.9305 79.9937 82.9413 79.9624 82.9434L73.5909 83.1762C73.2628 83.1814 72.9447 83.2858 72.681 83.4747C72.4174 83.6636 72.2215 83.9276 72.1208 84.2296C72.0201 84.5316 72.0196 84.8565 72.1195 85.1588C72.2194 85.4611 72.4145 85.7256 72.6776 85.9152L77.6757 89.7155C77.7007 89.7345 77.7194 89.7602 77.7295 89.7894C77.7396 89.8186 77.7406 89.85 77.7324 89.8798L76.0121 95.7753C75.9229 96.0756 75.9315 96.3951 76.0368 96.6904C76.142 96.9857 76.3388 97.2424 76.6002 97.4257C76.8617 97.6091 77.1752 97.71 77.4981 97.7149C77.821 97.7198 78.1376 97.6283 78.4049 97.4529L83.6862 94.0293C83.7122 94.0119 83.743 94.0026 83.7746 94.0026C83.8063 94.0026 83.8371 94.0119 83.8631 94.0293L89.1444 97.4529C89.408 97.6343 89.7235 97.7317 90.047 97.7317C90.3705 97.7317 90.686 97.6343 90.9496 97.4529C91.2112 97.2714 91.4081 97.0158 91.5133 96.7215C91.6186 96.4273 91.6269 96.1087 91.5372 95.8096L89.8028 89.8935C89.7936 89.8638 89.7941 89.8321 89.8042 89.8027C89.8144 89.7732 89.8336 89.7476 89.8594 89.7291L94.8787 85.8946Z" fill="#614B98"/>
<path d="M73.3708 97.4665L92.8898 77.8009" stroke="white" stroke-width="2.84444" stroke-linecap="round"/>
<path d="M74.1645 98.5325L94.5017 77.9381" stroke="#614B98" stroke-width="2.13333" stroke-linecap="round"/>
<ellipse opacity="0.9" cx="51.2194" cy="44.973" rx="9.95556" ry="9.6" transform="rotate(3.11808 51.2194 44.973)" fill="white"/>
<path d="M52.1285 39.7938C52.5816 39.9339 52.9624 40.1681 53.2739 40.498C53.577 40.8191 53.7744 41.177 53.8786 41.5941C53.922 41.7679 53.9253 41.8461 53.9048 42.2207C53.8845 42.594 53.8725 42.6733 53.8111 42.8411C53.5125 43.6564 52.7726 44.2712 51.8965 44.4323C50.9828 44.6002 50.0844 44.3113 49.463 43.6499C49.1731 43.3414 48.9789 42.9848 48.8758 42.5718C48.8324 42.3981 48.8291 42.3199 48.8495 41.9453C48.876 41.4599 48.9206 41.2969 49.1241 40.9426C49.4886 40.3081 50.1363 39.8624 50.8907 39.7267C51.1824 39.6743 51.2154 39.6732 51.5852 39.7031C51.8227 39.7223 51.9846 39.7493 52.1285 39.7938Z" fill="#C5DBFF"/>
<path d="M52.1014 45.5801C53.3929 45.8644 54.4294 46.4692 55.2762 47.4329C55.4581 47.6398 55.7686 48.0698 55.7663 48.1116C55.7639 48.1558 55.4032 48.552 55.1803 48.7553C54.2499 49.6039 53.1602 50.0854 51.837 50.2325C51.3598 50.2855 50.5034 50.2388 50.0348 50.1343C48.5452 49.8019 47.3537 49.0305 46.524 47.8612C46.4325 47.7323 46.3584 47.6144 46.3592 47.5991C46.36 47.5839 46.4462 47.4747 46.5508 47.3565C47.5591 46.2166 49.013 45.5342 50.6069 45.4528C50.962 45.4347 51.7428 45.5012 52.1014 45.5801Z" fill="#C5DBFF"/>
</svg>
