<svg width="366" height="260" viewBox="0 0 366 260" fill="none" xmlns="http://www.w3.org/2000/svg">
<g clip-path="url(#clip0_15_2088)">
<g style="mix-blend-mode:soft-light" opacity="0.5">
<path d="M333.795 108.991C339.56 126.797 342.331 145.116 341.818 164.452C341.519 175.542 340.176 186.744 335.922 197.153C314.903 248.473 270.795 248.519 270.795 248.519H97.9264C97.9264 248.519 76.2455 233.092 52.6428 210.706C28.0326 187.36 22.6311 158.034 32.8744 128.494C41.168 104.57 60.7032 85.579 84.1286 75.2629C103.738 66.6351 105.987 64.07 114.215 55.5821C123.665 45.8256 128.964 30.538 139.422 21.5464C173.147 -7.4525 223.272 -3.63759 261.438 16.407C287.849 30.2862 307.141 52.8958 320.193 77.3243C325.762 87.7617 330.315 98.283 333.785 108.982L333.795 108.991Z" fill="#EAE2FF"/>
</g>
<path d="M247.29 27.2051H116.925C111.938 27.2051 107.895 31.2475 107.895 36.234V118.754C107.895 123.74 111.938 127.782 116.925 127.782H247.29C252.278 127.782 256.321 123.74 256.321 118.754V36.234C256.321 31.2475 252.278 27.2051 247.29 27.2051Z" fill="#E8DFFF"/>
<path d="M247.291 128.445H116.925C111.58 128.445 107.232 124.099 107.232 118.754V36.2439C107.232 30.8993 111.58 26.5527 116.925 26.5527H247.291C252.636 26.5527 256.983 30.8993 256.983 36.2439V118.754C256.983 124.099 252.636 128.445 247.291 128.445ZM116.925 27.8679C112.307 27.8679 108.557 31.6268 108.557 36.2346V118.754C108.557 123.371 112.317 127.121 116.925 127.121H247.291C251.908 127.121 255.659 123.362 255.659 118.754V36.2439C255.659 31.6268 251.899 27.8772 247.291 27.8772H116.925V27.8679Z" fill="#231F20"/>
<path d="M108.264 85.1459C106.529 83.3177 104.933 81.6761 102.797 80.3236C100.782 79.0458 88.0103 70.9869 89.1111 68.5058C90.1093 66.2672 97.2554 70.7444 97.2554 70.7444C97.2554 70.7444 85.51 59.6448 87.5531 57.742C88.9525 56.4361 100.427 66.5004 100.427 66.5004C100.427 66.5004 88.8779 53.3954 90.7437 51.931C93.8969 49.4499 104.028 62.6762 104.028 62.6762C104.028 62.6762 94.9511 48.2933 97.8338 46.9502C100.465 45.7283 111.762 64.3551 113.022 64.0566C113.591 63.9261 115.261 54.2069 117.546 54.8505C122.239 56.175 117.565 63.3944 118.778 70.7257C119.897 77.4694 124.954 82.898 128.872 87.9814C128.956 88.084 119.795 96.4694 118.125 95.8911C116.408 95.2941 108.301 85.1925 108.254 85.1459H108.264Z" fill="#F8A99C"/>
<path d="M118.238 96.565C118.117 96.565 118.014 96.5463 117.912 96.5183C116.447 96.0053 111.633 90.3529 107.855 85.7079L107.762 85.596C105.905 83.6465 104.441 82.1635 102.435 80.8856L102.276 80.783C87.1817 71.1851 88.1426 69.0398 88.4971 68.2377C88.693 67.7899 89.0662 67.4728 89.5606 67.3236C90.5682 67.0158 92.1261 67.4542 93.6188 68.0884C90.5775 64.9544 86.6406 60.4773 86.6406 58.3599C86.6406 57.791 86.8832 57.4552 87.0884 57.2593C87.984 56.4292 90.7081 57.791 95.2141 61.2981C92.4993 57.8563 89.7286 53.9014 89.8778 52.2878C89.9245 51.8214 90.1484 51.5603 90.3256 51.411C90.7921 51.0379 91.3798 50.898 92.0515 50.982C94.1972 51.2525 97.2478 53.9854 99.804 56.6997C97.9382 53.1552 96.1843 49.1351 96.6974 47.3723C96.8747 46.766 97.2572 46.4768 97.5464 46.3462C99.3469 45.5068 102.267 48.9859 108.555 57.6137C110.131 59.7777 111.895 62.1935 112.753 63.0889C112.893 62.6599 113.07 62.0536 113.229 61.4939C114.245 57.9682 115.524 53.603 117.716 54.2092C121.046 55.142 120.496 58.4159 119.862 62.2028C119.432 64.7772 118.938 67.6873 119.423 70.6161C120.347 76.2033 124.032 80.8203 127.595 85.2975C128.211 86.0623 128.808 86.8272 129.387 87.5734C129.564 87.8066 129.564 88.1517 129.387 88.3849C129.321 88.4781 120.916 96.5557 118.22 96.5557L118.238 96.565ZM108.741 84.6912C108.741 84.6912 108.797 84.7565 108.881 84.8684C114.432 91.7147 117.632 95.026 118.341 95.2685C119.563 95.3524 126.308 89.6161 128.006 87.9465C127.539 87.3495 127.054 86.7339 126.569 86.1276C123.071 81.7344 119.115 76.7629 118.136 70.84C117.613 67.706 118.126 64.6746 118.574 61.9976C119.227 58.1268 119.46 56.0841 117.38 55.4964C116.951 55.3845 116.111 56.3825 114.525 61.8764C113.891 64.059 113.742 64.5813 113.191 64.7119C112.389 64.9171 111.689 64.1336 107.519 58.4066C104.898 54.8155 99.4495 47.3536 98.1154 47.5681C98.0968 47.5681 98.0408 47.6054 97.9942 47.764C97.3971 49.7974 101.726 57.7816 104.599 62.3334C104.786 62.6319 104.711 63.0236 104.422 63.2288C104.133 63.434 103.732 63.3688 103.517 63.0889C101.315 60.2161 94.9529 52.6889 91.9116 52.3065C91.5944 52.2691 91.3518 52.3158 91.1652 52.465C90.8574 53.6216 95.9884 60.4493 100.942 66.0737C101.175 66.3349 101.157 66.7266 100.914 66.9785C100.672 67.221 100.27 67.2396 100.009 67.0064C95.1674 62.7625 89.2714 58.2946 87.984 58.2946C87.9933 58.3133 87.9933 58.3413 87.9933 58.3786C87.9933 60.3373 93.964 66.7173 97.7236 70.2804C97.9662 70.5135 98.0035 70.896 97.7889 71.1665C97.5837 71.437 97.2012 71.5022 96.912 71.325C94.9062 70.0658 91.2399 68.219 89.9618 68.6108C89.8032 68.6574 89.7565 68.732 89.7286 68.7973C89.7286 68.816 89.0382 70.8027 103.013 79.6917L103.172 79.7943C105.299 81.1468 106.894 82.7604 108.76 84.7192L108.741 84.6912Z" fill="#231F20"/>
<path d="M112.623 68.4729C112.38 68.2024 111.96 68.1838 111.69 68.4356C109.833 70.1332 109.46 72.549 109.283 73.7056C109.264 73.7056 109.236 73.7056 109.217 73.6963C107.995 73.491 105.439 73.0806 103.088 73.8828C102.743 74.0041 102.556 74.3771 102.678 74.7223C102.771 74.9928 103.032 75.17 103.303 75.17C103.377 75.17 103.443 75.1607 103.517 75.1327C105.56 74.4331 107.883 74.8155 109.003 75.0021C109.675 75.114 109.926 75.1513 110.197 74.9461C110.458 74.7409 110.505 74.4611 110.589 73.9015C110.738 72.8941 111.065 70.7954 112.576 69.4056C112.846 69.1631 112.865 68.7434 112.613 68.4729H112.623Z" fill="#231F20"/>
<path d="M235.134 46.8434L220.245 47.7202C218.845 47.8042 217.689 48.8582 217.474 50.2479L212.548 82.6047C212.371 83.7986 213.35 84.8433 214.545 84.7407L230.815 83.4162L237.102 49.0727C237.326 47.8694 236.356 46.7688 235.125 46.8434H235.134Z" fill="#231F20"/>
<path d="M236.916 71.5148C236.393 69.6027 235.861 67.6906 235.339 65.7692C234.91 64.2022 234.714 61.7677 233.865 60.3966C232.699 58.5124 229.21 59.0161 229.592 62.1315C229.49 61.3107 228.557 60.9096 227.726 60.8816C226.915 60.8536 225.618 61.2081 225.217 62.2807C224.928 63.0549 225.03 64.6405 225.03 64.6405C225.03 64.6405 223.248 63.6798 221.765 64.6312C219.843 65.8624 221.159 70.9552 221.774 72.8673C222.148 74.0239 222.679 75.1805 222.558 76.3837C222.437 77.5497 221.728 78.5477 221.112 79.5457C217.212 85.8231 217.772 92.9026 216.298 99.8515C216.158 100.504 227.045 103.844 227.027 104.03C227.437 99.2545 227.558 93.9846 229.238 89.4421C230.236 86.7558 231.924 83.6871 233.482 81.29C233.865 80.7023 234.313 80.1334 234.77 79.5644C236.001 78.0254 237.279 76.477 237.391 74.453C237.447 73.4549 237.177 72.4756 236.916 71.5148Z" fill="#F8A99C"/>
<path d="M233.504 73.2579L233.112 71.7468C232.124 67.9506 231.34 64.9565 229.623 60.3954C229.493 60.0503 229.11 59.8824 228.774 60.013C228.429 60.1435 228.261 60.526 228.392 60.8618C230.08 65.3576 230.855 68.3237 231.834 72.0826L232.226 73.5937C232.301 73.8921 232.571 74.088 232.861 74.088C232.917 74.088 232.972 74.088 233.028 74.0694C233.383 73.9761 233.588 73.6123 233.504 73.2579Z" fill="#231F20"/>
<path d="M224.836 62.8309C224.706 62.4858 224.323 62.3179 223.987 62.4485C223.642 62.5791 223.474 62.9615 223.605 63.2973C224.696 66.1701 226.236 71.4961 227.122 75.0498C227.196 75.3483 227.467 75.5535 227.766 75.5535C227.822 75.5535 227.868 75.5535 227.924 75.5349C228.279 75.4509 228.493 75.0871 228.409 74.7327C227.514 71.151 225.956 65.7597 224.846 62.8309H224.836Z" fill="#231F20"/>
<path d="M179.557 80.8224C178.718 79.6938 178.876 75.9908 179.166 73.0154C185.108 69.9093 187.235 61.3188 183.942 55.3772C179.231 46.88 167.318 48.2884 162.326 55.7876C158.24 61.9251 162.037 69.2751 167.924 72.5303C167.709 75.4591 167.084 79.7591 166.599 81.2328C166.553 81.382 159.192 81.1768 168.418 88.6667C171.907 91.5023 178.895 98.9269 183.261 101.539C190.351 80.2628 180.238 81.7365 179.548 80.8131L179.557 80.8224Z" fill="#F8A99C"/>
<path d="M183.607 49.9101C182.394 48.1286 180.501 46.8973 178.495 46.1325C175.481 44.9945 172.132 44.9666 169.044 45.8527C170.705 40.8345 169.8 35.3687 164.315 33.0368C159.613 31.0408 153.782 31.8429 149.957 35.2288C146.141 38.6239 144.677 44.5002 146.692 49.1919C148.642 53.725 153.81 56.6818 158.67 55.9356C157.654 59.508 157.924 63.4721 159.482 66.83C163.829 76.1854 169.287 60.7392 166.208 58.1555C167.225 59.0136 168.858 59.6572 170.752 60.0303C175.892 61.0563 182.907 60.0956 184.503 56.0662C185.296 54.0608 184.839 51.701 183.626 49.9194L183.607 49.9101Z" fill="#231F20"/>
<path d="M214.84 90.0368C212.918 96.1649 210.194 107.022 207.059 112.572C207.059 107.479 205.184 100.334 203.934 97.1163C202.32 92.9563 200.249 88.9082 196.564 86.2126C194.334 84.5803 191.722 83.5636 189.044 82.9107C187.785 82.6029 180.508 81.6515 180.107 80.4856C181.992 85.9794 183.344 92.3407 182.066 98.0118C177.784 91.38 171.748 84.8135 165.377 80.1591C162.867 81.465 160.88 81.894 158.716 82.5563C152.829 84.3844 149.135 87.4531 146.466 91.4733C144.199 94.5793 142.529 97.7506 140.253 100.81C135.887 91.921 130.402 83.3677 124.45 75.4395C117.481 80.327 112.714 83.6382 106.51 88.6004C116.483 98.9725 133.004 127.785 133.004 127.785H221.892L235.13 90.9789C235.13 90.9789 220.026 90.242 214.83 90.0275L214.84 90.0368Z" fill="#80C9FF"/>
<path d="M192.944 91.6685C192.646 91.4633 192.235 91.5379 192.03 91.8364C191.825 92.1349 191.899 92.5453 192.198 92.7505C197.59 96.4628 199.502 105.175 197.581 117.263C197.357 118.699 197.096 120.201 196.844 121.628C196.405 124.184 196.023 126.394 195.892 127.719C195.855 128.083 196.125 128.409 196.489 128.437C196.508 128.437 196.536 128.437 196.554 128.437C196.89 128.437 197.18 128.176 197.208 127.84C197.329 126.562 197.721 124.268 198.14 121.852C198.392 120.416 198.654 118.914 198.877 117.468C200.883 104.848 198.775 95.6793 192.935 91.6592L192.944 91.6685Z" fill="#231F20"/>
<path d="M215.111 89.7374C214.757 89.6348 214.393 89.84 214.29 90.1944C210.419 103.868 206.715 113.317 202.965 119.063C202.769 119.371 202.853 119.781 203.161 119.977C203.273 120.051 203.394 120.079 203.525 120.079C203.739 120.079 203.954 119.977 204.075 119.781C207.9 113.914 211.65 104.353 215.568 90.5489C215.671 90.1944 215.466 89.8306 215.111 89.7374Z" fill="#231F20"/>
<path d="M179.884 79.8595C179.538 79.9807 179.352 80.3538 179.473 80.6989C181.572 86.8177 182.309 91.9384 181.703 96.2757C177.355 89.9051 171.609 83.8889 165.759 79.6169C165.461 79.4024 165.05 79.4677 164.836 79.7569C164.621 80.0553 164.686 80.4657 164.976 80.6803C171.114 85.1667 177.141 91.612 181.498 98.3557C181.619 98.5422 181.833 98.6542 182.048 98.6542C182.085 98.6542 182.123 98.6542 182.16 98.6448C182.421 98.5982 182.626 98.4023 182.692 98.1412C183.802 93.2256 183.158 87.3773 180.714 80.2512C180.593 79.9061 180.219 79.7195 179.874 79.8408L179.884 79.8595Z" fill="#231F20"/>
<path d="M221.893 127.131H156.272C157.065 124.715 159.323 117.859 160.218 114.846C160.321 114.501 160.125 114.128 159.77 114.026C159.425 113.923 159.052 114.119 158.949 114.473C157.998 117.663 155.516 125.209 154.873 127.131H133.378C131.531 123.941 116.847 98.7659 107.471 88.6736C113.162 84.1499 117.752 80.9319 124.031 76.5387L124.292 76.3521C130.132 84.1965 135.039 92.0129 138.892 99.6054C139.144 100.109 140.618 102.749 140.618 102.749C141.868 105.081 142.689 106.629 144.181 109.791C144.293 110.033 144.527 110.173 144.779 110.173C144.872 110.173 144.965 110.155 145.058 110.108C145.385 109.949 145.534 109.558 145.376 109.231C143.864 106.041 143.034 104.484 141.784 102.133C141.784 102.133 139.983 98.8592 139.666 98.2436C135.757 90.6604 130.822 82.8627 124.963 75.0556C124.749 74.7665 124.348 74.7105 124.059 74.9064L123.266 75.4567C116.763 80.0085 112.071 83.3011 106.081 88.0953C105.941 88.2073 105.848 88.3845 105.839 88.571C105.829 88.7576 105.895 88.9348 106.025 89.0747C115.83 99.2696 132.259 127.839 132.427 128.129C132.548 128.334 222.555 128.166 222.555 127.802C222.555 127.438 222.257 127.14 221.893 127.14V127.131Z" fill="#231F20"/>
<path d="M123.973 158.587C118.208 167.066 102.274 178.091 101.425 177.979C100.623 177.876 87.935 160.098 84.082 151.125L105.352 154.632L123.973 158.587Z" fill="white"/>
<path d="M123.974 159.444C123.918 159.444 123.853 159.444 123.797 159.425L105.176 155.47L83.9426 151.972C83.4761 151.898 83.1589 151.45 83.2335 150.984C83.3082 150.517 83.756 150.191 84.2224 150.275L105.493 153.782L124.151 157.746C124.618 157.849 124.907 158.296 124.813 158.763C124.729 159.164 124.375 159.444 123.974 159.444Z" fill="#231F20"/>
<path d="M124.991 115.512C114.934 109.748 94.2514 116.193 91.9005 130.529C91.0235 135.892 92.992 141.377 96.537 145.462C95.2963 152.047 93.0199 159.603 87.2266 158.11L101.845 180.589L119.086 165.096C114.822 162.503 116.324 155.545 117.472 150.126C123.853 147.02 128.629 140.323 128.461 133.15C128.303 126.136 129.842 118.301 124.972 115.512H124.991Z" fill="#F8A99C"/>
<path d="M122.09 109.561C111.38 109.495 101.473 108.731 90.735 109.607C91.2014 109.57 85.1841 130.473 92.9926 130.062C96.7802 129.857 105.083 125.902 104.775 121.901C105.074 125.8 114.785 125.24 117.248 125.38C122.874 125.697 127.65 125.641 131.531 120.8C134.246 117.414 135.561 113.142 136.811 108.982C132.492 109.318 127.408 109.598 122.09 109.561Z" fill="#231F20"/>
<path d="M110.65 132.354C110.65 133.054 111.219 133.623 111.919 133.623C112.619 133.623 113.188 133.054 113.188 132.354C113.188 131.655 112.619 131.086 111.919 131.086C111.219 131.086 110.65 131.655 110.65 132.354Z" fill="#231F20"/>
<path d="M122.529 131.479C121.829 131.479 121.26 132.047 121.26 132.747C121.26 133.447 121.829 134.016 122.529 134.016C123.228 134.016 123.797 133.447 123.797 132.747C123.797 132.047 123.228 131.479 122.529 131.479Z" fill="#231F20"/>
<path d="M125.561 128.372L122.072 127.206C121.614 127.057 121.139 127.299 120.989 127.747C120.84 128.195 121.083 128.68 121.53 128.829L125.02 129.995C125.113 130.023 125.206 130.042 125.29 130.042C125.654 130.042 125.98 129.818 126.102 129.454C126.251 129.006 126.008 128.521 125.561 128.372Z" fill="#231F20"/>
<path d="M109.421 129.463C109.487 129.463 109.552 129.463 109.617 129.445C110.018 129.351 110.438 129.267 110.858 129.174C111.931 128.95 113.032 128.717 113.834 128.381C114.272 128.195 114.468 127.691 114.282 127.253C114.095 126.814 113.591 126.609 113.153 126.805C112.509 127.085 111.492 127.29 110.503 127.495C110.065 127.588 109.636 127.672 109.225 127.775C108.759 127.887 108.479 128.344 108.582 128.81C108.675 129.202 109.029 129.473 109.421 129.473V129.463Z" fill="#231F20"/>
<path d="M120.859 135.444C120.514 134.483 120.159 133.494 120.019 132.795C119.926 132.329 119.469 132.039 119.002 132.133C118.536 132.226 118.237 132.683 118.34 133.149C118.508 133.961 118.881 135.015 119.245 136.022C119.543 136.862 119.851 137.72 120.019 138.391C119.776 138.625 119.263 139.007 118.909 139.268C118.508 139.567 118.088 139.874 117.752 140.173C117.388 140.481 117.351 141.022 117.659 141.385C117.827 141.581 118.069 141.684 118.312 141.684C118.508 141.684 118.704 141.619 118.872 141.479C119.189 141.208 119.571 140.928 119.944 140.649C121.195 139.716 121.95 139.156 121.773 138.326C121.605 137.515 121.232 136.461 120.868 135.444H120.859Z" fill="#231F20"/>
<path d="M115.027 144.303C114.692 144.088 114.16 144.209 113.712 144.191C113.115 144.163 112.602 143.846 112.322 143.473C112.079 143.146 112.107 142.26 111.557 142.148C110.325 141.896 110.391 143.622 110.568 144.069C110.923 144.928 111.855 146.056 113.301 146.103C113.712 146.112 114.272 145.944 114.71 145.683C115.335 145.31 115.708 144.75 115.027 144.321V144.303Z" fill="#231F20"/>
<path d="M112.201 150.729H106.081C105.605 150.729 105.223 151.111 105.223 151.587C105.223 152.062 105.605 152.445 106.081 152.445H112.201C112.677 152.445 113.059 152.062 113.059 151.587C113.059 151.111 112.677 150.729 112.201 150.729Z" fill="#231F20"/>
<path d="M38.1084 174.248C40.6272 170.862 43.5752 167.83 46.9897 165.275C53.9399 160.079 62.4854 157.934 71.0215 157.309C73.8762 157.095 76.8242 158.111 79.6603 157.57C83.1867 156.889 83.5226 154.474 84.073 151.125C84.073 151.106 103.813 171.869 103.813 171.869L123.964 158.587C123.964 158.587 123.171 162.523 123.377 163.017C124.02 164.538 126.063 165.48 127.407 166.189C130.849 168.017 134.292 169.174 138.163 171.226C145.85 175.311 149.853 184.433 151.093 193.108C151.728 197.538 151.718 201.997 151.457 206.465C151.187 211.082 150.655 215.699 150.272 220.306C149.526 229.363 153.09 248.512 153.09 248.512H13.918C13.918 248.512 20.495 217.499 25.3648 202.65C28.6113 192.744 31.9512 182.512 38.1084 174.248Z" fill="white"/>
<path d="M109.28 169.322C109 169.322 108.729 169.182 108.561 168.939C108.3 168.547 108.412 168.006 108.804 167.745C113.599 164.583 123.385 157.933 123.488 157.868C123.777 157.672 124.16 157.672 124.449 157.868C124.738 158.063 124.887 158.409 124.813 158.754C124.486 160.377 124.16 162.391 124.206 162.802C124.626 163.772 126.231 164.602 127.406 165.218L127.817 165.432C128.675 165.889 129.608 166.337 130.737 166.85C131.166 167.046 131.362 167.549 131.166 167.988C130.97 168.417 130.457 168.613 130.028 168.417C128.862 167.895 127.901 167.419 127.005 166.952L126.604 166.738C125.205 166.01 123.283 165.003 122.583 163.352C122.508 163.175 122.35 162.802 122.742 160.451C119.7 162.513 113.338 166.822 109.746 169.182C109.597 169.275 109.438 169.322 109.27 169.322H109.28Z" fill="#231F20"/>
<path d="M98.2731 166.887C98.0492 166.887 97.8159 166.794 97.648 166.617C94.8679 163.697 87.4979 155.946 84.6339 152.943C84.1208 155.601 83.2532 157.756 79.8294 158.409C78.1128 158.735 76.3963 158.539 74.7357 158.353C73.4669 158.213 72.2635 158.073 71.088 158.157C70.6216 158.194 70.1458 158.232 69.6793 158.278C69.2222 158.334 68.7837 157.98 68.7464 157.504C68.6998 157.028 69.0449 156.609 69.5207 156.571C69.9965 156.525 70.4816 156.487 70.9667 156.45C72.3008 156.347 73.6442 156.506 74.9316 156.655C76.5362 156.842 78.0475 157.01 79.5029 156.73C82.255 156.198 82.6281 154.65 83.1972 151.18L83.2252 150.984C83.2812 150.658 83.5051 150.397 83.8223 150.303C84.1643 150.198 86.0924 151.991 89.6063 155.685L98.8888 165.442C99.2153 165.787 99.206 166.328 98.8608 166.654C98.6929 166.813 98.4783 166.887 98.2731 166.887Z" fill="#231F20"/>
<path d="M110.249 168.315L105.352 175.012C105.352 175.012 104.391 180.553 103.747 183.304C102.077 190.468 101.237 198.107 99.8008 205.298C98.2428 213.105 95.7893 220.838 93.8022 228.542C93.541 229.568 93.2704 230.613 92.7387 231.527C92.1416 232.562 91.246 233.383 90.3597 234.185C87.1039 237.133 83.7734 240.006 80.3776 242.794C80.0044 237.972 79.5006 233.169 78.8849 228.374C78.8103 227.805 78.7356 227.218 78.8756 226.658C78.9969 226.173 79.2674 225.744 79.5379 225.324C84.1652 218.123 87.505 211.445 90.453 203.395C93.3264 195.551 100.836 173.706 100.836 173.706L96.3957 163.465L109.83 167.196C110.324 167.317 110.539 167.905 110.24 168.315H110.249Z" fill="#00B4FF"/>
<path d="M64.4518 188.546C64.5917 188.63 64.741 188.667 64.8903 188.667C65.1795 188.667 65.4687 188.518 65.6273 188.248C66.3923 186.979 66.7841 185.524 66.7654 184.05L84.7613 186.615C85.2278 186.681 85.6662 186.354 85.7315 185.888C85.7968 185.421 85.4703 184.983 85.0039 184.918L65.9445 182.203C65.6739 182.166 65.4034 182.259 65.2168 182.446C65.0209 182.642 64.9369 182.912 64.9742 183.183C65.1888 184.61 64.8903 186.13 64.1533 187.361C63.9107 187.772 64.0413 188.294 64.4425 188.537L64.4518 188.546Z" fill="#231F20"/>
<path d="M152.277 237.813C152.212 237.347 151.773 237.02 151.307 237.076C150.84 237.142 150.505 237.571 150.57 238.046C151.139 242.281 151.764 245.947 152.063 247.654H48.8452C48.9665 247.532 49.0598 247.383 49.0971 247.206C50.3378 240.388 52.1384 233.541 53.9482 226.863C54.0788 226.76 55.5995 218.729 67.1862 206.137C67.5034 205.792 67.4661 205.242 67.1116 204.925C66.7571 204.608 66.216 204.645 65.8988 205C62.0179 209.383 59.0046 212.909 56.5977 216.976C57.9131 211.958 59.1445 206.874 60.0681 201.791C60.1521 201.325 59.8442 200.877 59.3778 200.793C58.9206 200.709 58.4635 201.017 58.3795 201.483C56.9988 209.085 54.9184 216.724 52.9127 224.121C50.8976 231.545 48.8079 239.231 47.4178 246.898C47.3619 247.187 47.4738 247.467 47.679 247.654H14.9805C16.1746 242.132 21.884 216.024 26.1754 202.919L26.2221 202.77C28.0599 197.164 29.9537 191.465 32.3513 186.074C27.5841 199.17 24.8134 212.769 23.9271 227.311C23.8991 227.786 24.2629 228.187 24.7294 228.215C24.7481 228.215 24.7667 228.215 24.7854 228.215C25.2332 228.215 25.6157 227.861 25.6437 227.404C26.7911 208.469 31.1758 191.148 39.0403 174.462C39.0403 174.443 39.0403 174.424 39.0496 174.406C41.5498 171.113 44.3859 168.259 47.4925 165.936L47.8283 165.694C48.2108 165.414 48.2948 164.873 48.0149 164.491C47.735 164.108 47.2033 164.024 46.8114 164.304L46.4569 164.565C43.1078 167.065 40.0665 170.143 37.3983 173.715C31.1852 182.045 27.8173 192.305 24.5708 202.22L24.5242 202.36C19.701 217.078 13.124 247.999 13.0587 248.316C13.0027 248.568 13.068 248.829 13.2359 249.034C13.3945 249.239 13.6464 249.351 13.9076 249.351H153.098C153.35 249.351 153.593 249.239 153.76 249.044C153.919 248.848 153.994 248.586 153.947 248.335C153.947 248.288 153.061 243.568 152.286 237.795L152.277 237.813Z" fill="#231F20"/>
<path d="M78.8205 224.857C78.55 225.286 78.2048 225.818 78.0462 226.443C77.869 227.161 77.9623 227.861 78.0462 228.476C78.6619 233.243 79.1657 238.084 79.5389 242.859C79.5762 243.307 79.9494 243.652 80.3972 243.652C80.4158 243.652 80.4438 243.652 80.4625 243.652C80.9382 243.615 81.2927 243.204 81.2554 242.729C80.8823 237.925 80.3785 233.066 79.7534 228.262C79.6881 227.749 79.6228 227.264 79.7255 226.863C79.8187 226.508 80.052 226.145 80.2759 225.781C84.9498 218.505 88.3456 211.687 91.2749 203.684C94.1203 195.915 101.584 174.2 101.658 173.976C101.733 173.771 101.724 173.547 101.63 173.342L97.2642 163.595C97.0683 163.166 96.5645 162.97 96.126 163.166C95.6969 163.362 95.501 163.866 95.6969 164.304L99.923 173.743C98.9808 176.476 92.3104 195.859 89.661 203.097C86.7689 210.978 83.4291 217.694 78.8299 224.857H78.8205Z" fill="#231F20"/>
<path d="M348.291 115.856C336.573 116.267 325.957 127.255 314.697 123.981C308.707 122.246 304.351 116.752 298.343 115.082C295.078 114.178 291.486 114.513 288.445 116.015C285.543 117.442 283.164 119.867 280.104 120.921C274.945 122.693 269.283 120.11 264.991 116.752C260.7 113.394 256.987 109.15 252.07 106.8C244.85 103.348 235.8 104.71 229.401 109.514C223.915 113.282 216.265 124.559 219.885 131.163C222.161 135.323 228.514 139.343 231.985 142.626C236.276 146.684 242.555 160.6 277.884 165.18C285.385 166.15 292.904 163.305 300.349 161.962C305.937 160.954 311.562 159.789 317.244 159.994C322.925 160.199 328.774 161.953 332.767 165.991C330.78 148.101 336.536 129.484 348.291 115.847V115.856Z" fill="#231F20"/>
<path d="M256.11 153.239C255.243 150.963 254.59 148.613 254.142 146.225C258.144 142.084 260.43 136.245 259.487 130.536C256.707 113.542 234.681 110.147 226.154 120.827C224.009 123.522 224.727 128.065 224.624 132.393C224.541 136.114 226.154 141.45 228.114 144.612C230.278 148.1 232.769 150.311 236.034 151.327C236.174 152.139 236.267 152.96 236.239 153.78C236.165 156.122 235.484 158.379 233.926 160.17C232.993 161.242 231.202 162.054 229.895 162.632C229.084 162.996 224.802 164.526 224.802 164.526C224.802 164.526 244.393 188.758 251.026 200.483C256.232 187.368 262.193 172.528 266.559 157.978C262.193 159.144 257.547 156.998 256.101 153.249L256.11 153.239Z" fill="#F8A99C"/>
<path d="M256.295 111.072C253.011 108.609 248.655 108.003 244.569 108.395C239.997 108.842 235.566 110.503 231.769 113.086C228.644 115.213 225.938 117.974 223.942 121.183C223.541 121.817 223.158 122.535 223.242 123.281C223.578 126.294 232.254 125.492 234.148 125.38C236.611 125.24 246.332 125.8 246.621 121.901C246.322 125.902 255.782 134.39 259.579 134.595C268.852 135.09 259.663 113.599 256.295 111.072Z" fill="#231F20"/>
<path d="M231.124 131.993C231.124 131.322 230.573 130.771 229.902 130.771C229.23 130.771 228.68 131.322 228.68 131.993C228.68 132.665 229.23 133.215 229.902 133.215C230.573 133.215 231.124 132.665 231.124 131.993Z" fill="#231F20"/>
<path d="M240.763 131.779C240.763 131.107 240.212 130.557 239.54 130.557C238.869 130.557 238.318 131.107 238.318 131.779C238.318 132.45 238.869 133 239.54 133C240.212 133 240.763 132.45 240.763 131.779Z" fill="#231F20"/>
<path d="M230.062 129.241C230.519 129.344 230.985 129.054 231.088 128.588C231.19 128.122 230.901 127.665 230.435 127.562C230.258 127.525 228.672 127.189 227.422 127.581C226.964 127.721 226.722 128.206 226.862 128.663C226.974 129.026 227.319 129.26 227.683 129.26C227.767 129.26 227.86 129.25 227.944 129.222C228.634 129.008 229.707 129.166 230.071 129.241H230.062Z" fill="#231F20"/>
<path d="M243.524 126.956C241.499 126.648 239.83 126.648 238.402 126.966C237.936 127.068 237.647 127.525 237.749 127.992C237.842 128.393 238.197 128.663 238.589 128.663C238.654 128.663 238.71 128.663 238.775 128.645C239.988 128.374 241.453 128.374 243.263 128.654C243.729 128.719 244.168 128.402 244.242 127.936C244.317 127.469 243.99 127.031 243.524 126.956Z" fill="#231F20"/>
<path d="M243.4 141.172C243.344 141.06 243.269 140.957 243.176 140.873C242.915 140.631 242.448 140.593 242.225 140.864C241.991 141.134 242.178 142.02 241.991 142.384C241.702 142.972 241.45 143.065 240.835 143.382C240.461 143.569 240.07 143.774 239.818 144.11C238.782 145.528 240.984 146.05 241.935 145.584C243.456 144.837 243.68 143.336 243.559 141.834C243.54 141.61 243.493 141.377 243.391 141.172H243.4Z" fill="#231F20"/>
<path d="M234.193 139.128C233.689 138.764 232.747 138.074 232.299 137.692C232.486 137.085 232.84 136.451 233.204 135.789C233.699 134.903 234.202 133.989 234.389 133C234.482 132.534 234.174 132.086 233.708 131.993C233.251 131.909 232.794 132.207 232.7 132.674C232.56 133.392 232.141 134.157 231.693 134.959C231.198 135.845 230.695 136.759 230.508 137.748C230.377 138.419 230.723 138.727 233.176 140.518C233.531 140.779 233.829 140.994 233.969 141.106C234.128 141.236 234.314 141.301 234.51 141.301C234.762 141.301 235.005 141.189 235.182 140.984C235.481 140.62 235.425 140.079 235.051 139.772C234.902 139.65 234.585 139.417 234.193 139.128Z" fill="#231F20"/>
<path d="M261.475 172.223C258.629 180.711 253.657 189.394 250.271 197.677C244.113 194.888 231.053 177.511 233.683 177.455C240.065 177.325 258.34 174.471 261.475 172.223Z" fill="#35A2DB"/>
<path d="M313.034 174.396C310.683 170.982 307.885 167.876 304.395 165.274C298.985 161.235 292.519 158.978 285.896 157.924C280 156.991 273.983 157.439 268.105 156.59C265.829 156.263 265.008 155.592 263.879 158.008C262.694 160.545 262.209 163.716 261.22 166.384C260.073 169.462 258.925 172.53 257.778 175.608C255.464 181.792 253.141 188.023 249.727 193.666C241.834 183.574 233.951 173.472 226.059 163.38C225.135 162.196 218.922 167.419 217.495 168.277C214.472 170.105 211.683 172.288 209.266 174.871C204.537 179.899 201.281 186.26 200.301 193.116C199.667 197.546 199.676 202.005 199.937 206.473C200.208 211.09 200.74 215.707 201.122 220.315C201.868 229.371 198.305 248.521 198.305 248.521H318.212C323.688 248.521 328.185 248.996 332.122 244.538C341.954 233.41 330.816 214.392 326.058 203.115C321.972 193.433 318.912 182.94 313.044 174.405L313.034 174.396Z" fill="#614B98"/>
<path d="M249.299 234.668C240.185 235.452 230.949 234.733 222.067 232.551C217.645 237.97 208.148 248.51 208.148 248.51H221.321C221.321 248.51 222.926 244.359 224.306 243.315C225.697 242.27 227.814 241.981 229.102 243.147C229.773 243.753 231.826 248.51 231.826 248.51H251.902L249.299 234.668Z" fill="#F8A99C"/>
<path d="M335.463 223.962C335.333 223.505 334.857 223.235 334.409 223.365C333.952 223.496 333.681 223.962 333.812 224.419C336.21 233.066 335.445 239.455 331.47 243.96C328.14 247.728 324.399 247.691 319.66 247.663H252.649C252.294 245.294 251.94 242.925 251.576 240.565L251.259 238.494C251.147 237.776 250.96 236.955 250.764 236.078C250.326 234.176 249.794 231.844 250.074 230.239C256.24 228.719 262.295 227.917 268.695 227.068C270.346 226.854 272.007 226.63 273.667 226.397C277.343 225.884 280.963 224.913 284.452 223.981C291.019 222.227 297.233 220.567 303.94 221.565C304.397 221.64 304.845 221.313 304.92 220.837C304.985 220.371 304.668 219.933 304.201 219.858C302.233 219.569 300.292 219.504 298.38 219.597C298.38 219.578 298.38 219.55 298.361 219.532L292.335 206.539C291.42 204.57 290.478 202.546 289.974 200.448C289.732 199.431 289.583 198.396 289.433 197.314C289.237 195.905 289.032 194.441 288.594 193.032C288.454 192.585 287.969 192.324 287.521 192.463C287.064 192.603 286.812 193.088 286.952 193.536C287.353 194.814 287.54 196.148 287.735 197.547C287.885 198.629 288.043 199.748 288.305 200.849C288.846 203.115 289.825 205.223 290.777 207.266L296.552 219.718C292.251 220.119 288.09 221.229 284.013 222.32C280.561 223.244 276.998 224.195 273.434 224.699C271.773 224.932 270.122 225.147 268.471 225.371C264.777 225.856 261.008 226.378 257.239 227.031C255.783 222.666 254.981 218.683 254.057 214.094L253.889 213.236C253.47 211.174 252.966 207.723 252.415 204.076C251.828 200.121 251.221 196.055 250.727 193.676C254.048 188.061 256.362 181.896 258.591 175.917L262.034 166.692C262.454 165.573 262.911 164.043 263.386 162.42C264.077 160.097 264.786 157.7 265.458 156.254C265.653 155.825 265.467 155.312 265.038 155.117C264.609 154.911 264.096 155.098 263.9 155.536C263.172 157.094 262.444 159.556 261.735 161.935C261.259 163.53 260.812 165.032 260.42 166.095L256.977 175.32C254.86 180.991 252.677 186.839 249.626 192.156C245.95 187.445 242.181 182.586 238.412 177.735C234.336 172.475 230.249 167.214 226.285 162.14C225.995 161.767 225.454 161.702 225.081 161.991C224.708 162.28 224.643 162.821 224.932 163.194C228.897 168.268 232.974 173.529 237.05 178.789C241.081 183.994 245.12 189.19 249.038 194.208C249.038 194.217 249.057 194.226 249.066 194.236C249.551 196.595 250.13 200.513 250.699 204.337C251.249 208.012 251.762 211.482 252.182 213.59L252.359 214.448C253.236 218.823 254.085 222.973 255.522 227.357C253.386 227.758 251.259 228.187 249.141 228.728C248.852 228.803 248.618 229.018 248.535 229.307C248.124 230.631 248.245 232.254 248.535 233.896C239.7 234.586 230.874 233.877 222.264 231.76C221.947 231.685 221.601 231.797 221.396 232.049C217.422 236.918 209.24 246.04 207.757 247.691H199.314C199.566 246.236 200.06 243.363 200.555 239.94C200.62 239.474 200.294 239.035 199.827 238.97C199.342 238.905 198.922 239.231 198.857 239.697C198.157 244.594 197.458 248.353 197.448 248.391C197.402 248.642 197.467 248.904 197.635 249.099C197.803 249.295 198.036 249.407 198.297 249.407L321.022 249.426C321.022 249.426 328.84 250.116 332.758 245.135C336.863 239.921 338.038 233.243 335.463 223.999V223.962ZM222.385 233.513C231.07 235.593 239.98 236.274 248.88 235.556C248.945 235.864 249.02 236.162 249.085 236.452C249.281 237.291 249.458 238.084 249.561 238.737L249.878 240.817C250.223 243.093 250.568 245.369 250.913 247.654H232.395C231.667 245.993 230.333 243.111 229.68 242.514C227.982 240.975 225.38 241.432 223.784 242.626C222.525 243.578 221.247 246.413 220.734 247.644H210.071C212.739 244.669 218.896 237.739 222.385 233.504V233.513ZM224.82 243.997C225.874 243.205 227.553 242.897 228.514 243.774C228.813 244.081 229.69 245.844 230.501 247.644H222.6C223.243 246.199 224.139 244.501 224.811 243.988L224.82 243.997Z" fill="#231F20"/>
<path d="M126.866 182.139H229.412C232.229 182.139 234.524 184.424 234.524 187.25V248.214H121.754V187.25C121.754 184.433 124.04 182.139 126.866 182.139Z" fill="#231F20"/>
<path d="M364.2 249.833H1.32474C0.597064 249.833 0 249.245 0 248.508C0 247.771 0.587735 247.184 1.32474 247.184H364.2C364.927 247.184 365.524 247.771 365.524 248.508C365.524 249.245 364.937 249.833 364.2 249.833Z" fill="#231F20"/>
<path d="M55.5711 254.655C58.9717 250.764 58.5739 244.854 54.6826 241.454C50.7913 238.054 44.8801 238.452 41.4795 242.342C38.079 246.233 38.4768 252.143 42.3681 255.543C46.2594 258.943 52.1706 258.545 55.5711 254.655Z" fill="#00B4FF"/>
<path d="M48.5197 259.188C42.6331 259.188 37.8379 254.403 37.8379 248.508C37.8379 242.613 42.6331 237.828 48.5197 237.828C54.4064 237.828 59.2016 242.622 59.2016 248.508C59.2016 254.394 54.4157 259.188 48.5197 259.188ZM48.5197 240.477C44.0884 240.477 40.4874 244.077 40.4874 248.508C40.4874 252.939 44.0884 256.539 48.5197 256.539C52.9511 256.539 56.5521 252.939 56.5521 248.508C56.5521 244.077 52.9511 240.477 48.5197 240.477Z" fill="#231F20"/>
<path d="M180.006 193.162C161.774 193.162 146.992 201.639 146.992 212.098C146.992 219.109 153.641 225.204 163.499 228.48L157.997 236.395L173.231 230.634C175.417 230.897 177.683 231.035 180.006 231.035C198.239 231.035 213.021 222.558 213.021 212.098C213.021 201.639 198.239 193.162 180.006 193.162Z" fill="white"/>
<path d="M170.496 205.983L165.61 219.307H162.365L157.478 205.983H160.341L164.006 216.577L167.652 205.983H170.496ZM178.283 219.44C177.036 219.44 175.89 219.148 174.847 218.562C173.803 217.977 172.976 217.169 172.366 216.138C171.755 215.095 171.449 213.917 171.449 212.607C171.449 211.309 171.755 210.144 172.366 209.114C172.976 208.07 173.803 207.256 174.847 206.67C175.89 206.085 177.036 205.792 178.283 205.792C179.543 205.792 180.688 206.085 181.719 206.67C182.762 207.256 183.583 208.07 184.181 209.114C184.792 210.144 185.097 211.309 185.097 212.607C185.097 213.917 184.792 215.095 184.181 216.138C183.583 217.169 182.762 217.977 181.719 218.562C180.675 219.148 179.53 219.44 178.283 219.44ZM178.283 217.054C179.084 217.054 179.791 216.876 180.402 216.52C181.012 216.151 181.49 215.629 181.833 214.955C182.177 214.28 182.348 213.498 182.348 212.607C182.348 211.716 182.177 210.94 181.833 210.278C181.49 209.604 181.012 209.088 180.402 208.732C179.791 208.376 179.084 208.197 178.283 208.197C177.481 208.197 176.768 208.376 176.145 208.732C175.534 209.088 175.057 209.604 174.713 210.278C174.37 210.94 174.198 211.716 174.198 212.607C174.198 213.498 174.37 214.28 174.713 214.955C175.057 215.629 175.534 216.151 176.145 216.52C176.768 216.876 177.481 217.054 178.283 217.054ZM189.758 205.983V219.307H187.085V205.983H189.758ZM202.114 210.106C202.114 210.819 201.942 211.487 201.598 212.111C201.267 212.734 200.739 213.237 200.014 213.618C199.301 214 198.398 214.191 197.303 214.191H195.07V219.307H192.398V205.983H197.303C198.334 205.983 199.212 206.161 199.938 206.518C200.663 206.874 201.204 207.364 201.56 207.988C201.929 208.611 202.114 209.317 202.114 210.106ZM197.189 212.034C197.927 212.034 198.474 211.869 198.83 211.538C199.187 211.194 199.365 210.717 199.365 210.106C199.365 208.808 198.64 208.159 197.189 208.159H195.07V212.034H197.189Z" fill="#614B98"/>
</g>
<defs>
<clipPath id="clip0_15_2088">
<rect width="365.515" height="258.612" fill="white" transform="translate(0 0.576172)"/>
</clipPath>
</defs>
</svg>
