<svg width="95" height="94" viewBox="0 0 95 94" fill="none" xmlns="http://www.w3.org/2000/svg">
<circle opacity="0.1" cx="47.5001" cy="47" r="46.837" fill="#25536A"/>
<path d="M63.7825 35.8545L61.603 33.3189C59.755 31.378 57.5314 29.8333 55.0675 28.7789C52.6036 27.7246 49.9509 27.1826 47.2709 27.1859C36.332 27.1859 27.457 36.0609 27.457 46.9998C27.457 57.9387 36.332 66.8137 47.2709 66.8137C51.3689 66.8134 55.3661 65.5431 58.7124 63.1776C62.0587 60.8121 64.5896 57.4676 65.9569 53.6044" stroke="#25536A" stroke-width="4.97778" stroke-miterlimit="10" stroke-linecap="round"/>
<path d="M59.3462 41.2102L67.8979 32.6586V41.2102H59.3462ZM69.3301 31.2263C69.3295 31.2269 69.3289 31.2275 69.3284 31.2281L69.3301 31.2263Z" fill="black" stroke="#25536A" stroke-width="4.97778"/>
</svg>
