<svg width="95" height="94" viewBox="0 0 95 94" fill="none" xmlns="http://www.w3.org/2000/svg">
<circle cx="47.6671" cy="46.837" r="46.837" fill="#E8DFFF"/>
<path d="M63.9485 35.692L61.769 33.1565C59.921 31.2155 57.6974 29.6708 55.2335 28.6165C52.7696 27.5621 50.1169 27.0201 47.4369 27.0235C36.498 27.0235 27.623 35.8984 27.623 46.8373C27.623 57.7763 36.498 66.6512 47.4369 66.6512C51.5349 66.6509 55.5321 65.3806 58.8784 63.0151C62.2247 60.6496 64.7556 57.3051 66.1229 53.442" stroke="url(#paint0_linear_2_26926)" stroke-width="4.97778" stroke-miterlimit="10" stroke-linecap="round"/>
<path d="M59.5132 41.0482L68.0649 32.4966V41.0482H59.5132ZM69.4971 31.0644C69.4965 31.0649 69.4959 31.0655 69.4954 31.0661L69.4971 31.0644Z" fill="black" stroke="url(#paint1_linear_2_26926)" stroke-width="4.97778"/>
<defs>
<linearGradient id="paint0_linear_2_26926" x1="77.0395" y1="46.5015" x2="9.45646" y2="46.5015" gradientUnits="userSpaceOnUse">
<stop offset="0.163" stop-color="#6533E2"/>
<stop offset="0.334" stop-color="#7349DE"/>
<stop offset="0.715" stop-color="#1F97EF"/>
</linearGradient>
<linearGradient id="paint1_linear_2_26926" x1="74.727" y1="36.053" x2="48.8912" y2="36.053" gradientUnits="userSpaceOnUse">
<stop offset="0.163" stop-color="#6533E2"/>
<stop offset="0.334" stop-color="#7349DE"/>
<stop offset="0.715" stop-color="#1F97EF"/>
</linearGradient>
</defs>
</svg>
