<svg width="266" height="265" viewBox="0 0 266 265" fill="none" xmlns="http://www.w3.org/2000/svg">
<g clip-path="url(#clip0_6_29717)">
<path d="M141.546 249.82C120.494 254.023 77.8287 262.543 49.2862 242.155C-2.5154 205.154 1.13478 79.3178 66.4457 26.1648C72.0921 21.5696 101.546 -1.4819 141.877 1.03293C211.833 5.39585 273.839 84.1435 261.66 147.254C254.533 184.189 223.353 208.738 210.516 218.845C205.225 223.01 180.286 242.085 141.546 249.821V249.82Z" fill="#F4F7FA"/>
<path d="M218.618 16.969L54.0105 6.92427C50.2192 6.72935 46.8066 11.0932 46.8066 14.7575V238.343C46.8066 243.425 51.7276 244.448 55.5188 244.04L218.618 226.47C221.598 226.149 224.003 223.273 224.003 220.045V23.0908C224.003 19.8628 221.598 17.122 218.618 16.969Z" fill="#97A6B7"/>
<path d="M221.325 15.1929L56.3926 6.63466C52.6013 6.43791 49.5137 9.27154 49.5137 12.9641V238.297C49.5137 241.989 52.6013 244.648 56.3926 244.237L221.325 226.33C224.305 226.007 226.71 223.109 226.71 219.855V21.3629C226.71 18.1103 224.305 15.3478 221.325 15.1929Z" fill="#D8DEE8"/>
<path opacity="0.74" d="M56.3927 241.18C54.3473 241.398 52.6797 239.957 52.6797 237.967V13.1142C52.6797 11.124 54.3473 9.58834 56.3927 9.69035L221.325 17.9089C222.936 17.989 224.244 19.4864 224.244 21.2462V220.112C224.244 221.872 222.937 223.443 221.325 223.615L56.3927 241.181V241.18Z" fill="white"/>
<path d="M210.695 218.281L69.627 232.619V25.1719L210.695 30.7763V218.281Z" fill="white"/>
<path d="M100.798 124.746V136.699L88.9948 137.119V125.052L100.798 124.746ZM102.117 123.392L87.6758 123.766V138.487L102.117 137.972V123.391V123.392Z" fill="#D8DEE8"/>
<path d="M197.997 134.559L107.436 137.784V123.253L197.997 120.904V134.559Z" fill="#D8DEE8"/>
<path d="M100.798 146.012V157.963L88.9948 158.55V146.484L100.798 146.011V146.012ZM102.117 144.639L87.6758 145.217V159.938L102.117 159.22V144.639Z" fill="#D8DEE8"/>
<path d="M197.997 154.455L107.436 158.956V144.425L197.997 140.801V154.455Z" fill="#D8DEE8"/>
<path d="M100.798 167.276V179.226L88.9948 179.978V167.914L100.798 167.275V167.276ZM102.117 165.883L87.6758 166.664V181.385L102.117 180.464V165.883Z" fill="#D8DEE8"/>
<path d="M197.997 174.35L107.436 180.125V165.596L197.997 160.695V174.35Z" fill="#D8DEE8"/>
<path d="M100.798 188.541V200.488L88.9948 201.407V189.346L100.798 188.541ZM102.117 187.128L87.6758 188.112V202.833L102.117 201.709V187.127V187.128Z" fill="#D8DEE8"/>
<path d="M197.997 194.244L107.436 201.296V186.766L197.997 180.59V194.244Z" fill="#D8DEE8"/>
<path d="M145.105 109.142L87.6777 110.118V41.4141L145.105 43.029V109.142Z" fill="#D8DEE8"/>
<path d="M197.998 52.9108L154.123 51.9371V43.2832L197.998 44.5174V52.9108Z" fill="#D8DEE8"/>
<path d="M197.998 71.5616L154.123 71.1672V66.8398L197.998 67.3645V71.5616Z" fill="#D8DEE8"/>
<path d="M197.998 78.4786L154.123 78.2991V73.9727L197.998 74.2823V78.4786Z" fill="#D8DEE8"/>
<path d="M197.998 85.3954L154.123 85.4309V81.1035L197.998 81.1992V85.3954Z" fill="#D8DEE8"/>
<path d="M117.338 114.069C120.097 115.02 123.167 113.368 124.196 110.379C125.226 107.389 123.824 104.195 121.065 103.244C120.922 103.195 120.777 103.157 120.634 103.121C120.898 101.51 121.043 99.9023 121.069 98.3111C121.216 98.2901 121.365 98.2674 121.513 98.2327C124.417 97.5624 126.376 94.5338 125.888 91.4697C125.4 88.4057 122.65 86.4647 119.746 87.136C119.594 87.1715 119.447 87.2161 119.3 87.2635C118.781 85.7834 118.154 84.3543 117.424 82.988C117.548 82.8896 117.672 82.7894 117.79 82.6792C120.061 80.5661 120.382 76.9737 118.507 74.6556C116.633 72.3375 113.272 72.1709 111.001 74.284C110.885 74.3924 110.777 74.5072 110.671 74.6228C109.525 73.6619 108.294 72.7948 106.985 72.0288C107.049 71.8812 107.112 71.7318 107.164 71.5779C108.194 68.5885 109.622 65.2813 106.848 64.3732C100.433 62.2728 98.2027 65.1437 97.1741 68.1331C97.1204 68.2879 97.0776 68.4437 97.0376 68.5995C95.5356 68.3963 94.0319 68.3207 92.5381 68.3708C92.5254 68.2142 92.5117 68.0575 92.4863 67.9008C91.9983 64.8368 92.6783 63.047 89.719 63.3995C83.2661 64.1682 81.482 67.2651 81.9699 70.3301C81.9954 70.4904 82.0309 70.6452 82.0682 70.7991C80.6518 71.4249 79.2782 72.1636 77.9583 73.0107C77.8728 72.8831 77.7836 72.7565 77.6862 72.6354C75.8119 70.3173 72.4512 70.1506 70.1801 72.2638C67.909 74.3769 67.5876 77.9693 69.4628 80.2874C69.5584 80.4058 69.6612 80.5151 69.7641 80.6235C68.8047 81.8932 67.9299 83.2485 67.1452 84.6813C67.0096 84.6202 66.8731 84.561 66.7302 84.5118C63.9711 83.5609 60.8999 85.2123 59.8713 88.2017C58.8418 91.191 60.2436 94.3853 63.0026 95.3363C63.1455 95.3854 63.2903 95.4237 63.4341 95.4592C63.1701 97.0705 63.0245 98.6781 62.999 100.269C62.8515 100.29 62.7031 100.313 62.5548 100.348C59.651 101.019 57.6921 104.047 58.18 107.111C58.6679 110.175 61.4178 112.115 64.3216 111.444C64.4736 111.41 64.6211 111.364 64.7676 111.317C65.2865 112.797 65.9136 114.226 66.6437 115.592C66.5199 115.691 66.3961 115.791 66.2778 115.901C64.0066 118.014 63.6853 121.607 65.5605 123.925C67.4347 126.243 72.6424 126.717 74.9126 124.605C75.0291 124.497 73.2905 124.074 73.3961 123.959C74.5421 124.919 75.7728 125.787 77.0808 126.553C77.0171 126.7 76.9552 126.85 76.9015 127.004C75.872 129.994 77.2738 133.188 80.0328 134.139C82.7919 135.09 85.8631 133.439 86.8917 130.449C86.9454 130.294 86.9882 130.139 87.0283 129.983C88.5302 130.186 90.034 130.262 91.5277 130.211C91.5405 130.368 91.5541 130.525 91.5796 130.681C92.0675 133.745 94.8174 135.686 97.7212 135.015C100.625 134.344 102.584 131.316 102.096 128.252C102.07 128.092 102.035 127.937 101.998 127.783C103.414 127.157 104.789 126.419 106.108 125.572C106.193 125.699 106.282 125.826 106.38 125.947C108.254 128.265 111.615 128.432 113.886 126.319C116.157 124.205 116.478 120.613 114.603 118.295C114.507 118.177 114.405 118.067 114.301 117.96C115.26 116.69 116.135 115.335 116.92 113.902C117.055 113.963 117.192 114.022 117.335 114.071L117.338 114.069ZM85.2669 118.941C75.2503 115.487 70.1591 103.889 73.8967 93.0364C77.6343 82.1837 88.7842 76.1849 98.8008 79.6388C108.817 83.0927 113.909 94.6905 110.171 105.543C106.433 116.396 95.2835 122.395 85.2669 118.941Z" fill="url(#paint0_linear_6_29717)"/>
<path d="M121.514 98.2312C124.417 97.5609 126.376 94.5323 125.888 91.4682C125.4 88.4042 122.651 86.4632 119.747 87.1345C119.595 87.1691 119.447 87.2146 119.301 87.262C118.782 85.7819 118.155 84.3528 117.425 82.9865C117.548 82.889 117.672 82.7879 117.791 82.6777C120.062 80.5646 122.582 75.871 120.48 73.7579C116.491 69.7465 113.274 72.1693 111.003 74.2825C110.886 74.3909 110.779 74.5047 110.672 74.6204C109.526 73.6595 108.296 72.7924 106.988 72.0263C107.051 71.8788 107.114 71.7294 107.167 71.5755C107.728 69.9487 107.563 68.2637 106.856 66.9102C105.02 71.5272 103.219 76.157 101.464 80.805C109.688 85.2408 113.561 95.6973 110.172 105.542C107.299 113.884 100.047 119.352 92.2958 119.869C92.0764 120.805 91.8643 121.745 91.6203 122.675C90.9567 125.201 90.1512 127.697 89.3438 130.189C90.0738 130.225 90.8038 130.231 91.5311 130.206C91.543 130.363 91.5575 130.52 91.583 130.676C92.0709 133.74 94.2974 136.092 99.587 135.069C102.514 134.504 102.586 131.312 102.098 128.247C102.073 128.087 102.037 127.932 102 127.778C103.417 127.152 104.791 126.414 106.11 125.566C106.196 125.694 106.285 125.821 106.382 125.942C108.256 128.261 113.691 128.6 115.962 126.487C118.233 124.374 116.48 120.608 114.606 118.289C114.509 118.17 114.407 118.061 114.303 117.954C115.263 116.684 116.138 115.329 116.922 113.896C117.058 113.957 117.194 114.016 117.337 114.065C120.096 115.017 123.167 113.365 124.196 110.375C125.226 107.386 123.824 104.192 121.065 103.241C120.922 103.192 120.778 103.153 120.633 103.118C120.897 101.507 121.043 99.899 121.068 98.3077C121.216 98.2868 121.364 98.264 121.513 98.2294L121.514 98.2312Z" fill="url(#paint1_linear_6_29717)"/>
<path d="M124.329 98.1613C127.232 97.4909 129.189 94.4642 128.701 91.401C128.215 88.3369 125.465 86.3932 122.559 87.0672C122.407 87.1018 122.26 87.1456 122.114 87.1957C121.596 85.7155 120.967 84.2837 120.239 82.9184C120.362 82.8209 120.484 82.7207 120.606 82.6105C122.876 80.4964 123.196 76.9032 121.323 74.5851C119.447 72.267 116.087 72.1012 113.817 74.2125C113.698 74.3218 113.592 74.4366 113.484 74.5523C112.339 73.5923 111.11 72.7233 109.802 71.9591C109.864 71.8106 109.927 71.6622 109.979 71.5083C111.009 68.5171 109.607 65.3236 106.849 64.3746C104.09 63.4218 101.019 65.075 99.9897 68.0625C99.9378 68.2165 99.8932 68.3722 99.8541 68.528C98.3512 68.3267 96.8456 68.2493 95.3546 68.3003C95.3401 68.1454 95.3246 67.9879 95.3027 67.8312C94.8139 64.7671 92.0649 62.8279 89.1612 63.4974C86.2547 64.1678 84.2976 67.1945 84.7855 70.2586C84.811 70.4216 84.8465 70.5765 84.8838 70.7277C83.4656 71.3543 82.0938 72.0948 80.773 72.941C80.6884 72.8126 80.5973 72.6851 80.5008 72.5657C79.323 71.1102 77.5607 70.5018 75.8548 70.7759C74.8381 70.9335 73.8413 71.4026 72.9948 72.1923C70.7246 74.3064 70.4041 77.896 72.2775 80.2177C72.374 80.3343 72.475 80.4436 72.5806 80.552C71.6212 81.8217 70.7437 83.1761 69.9608 84.6107C69.8261 84.5497 69.6878 84.4886 69.5448 84.4422C66.7858 83.4895 63.7155 85.1426 62.685 88.1302C61.6546 91.1187 63.0574 94.3148 65.8155 95.2639C65.9584 95.314 66.104 95.3541 66.2488 95.3868C65.983 96.9999 65.84 98.6058 65.8146 100.198C65.6644 100.219 65.5178 100.243 65.3694 100.276C62.4657 100.947 60.5059 103.973 60.9947 107.041C61.4835 110.105 64.2325 112.045 67.1363 111.375C67.2874 111.337 67.4348 111.294 67.5814 111.246C68.0993 112.727 68.7274 114.156 69.4593 115.519C69.3337 115.62 69.2108 115.72 69.0933 115.83C66.8222 117.941 66.5018 121.533 68.3751 123.852C70.2485 126.173 73.611 126.339 75.8812 124.224C75.9959 124.115 76.107 124.003 76.2107 123.885C77.3568 124.849 78.5884 125.713 79.8973 126.481C79.8345 126.627 79.7717 126.775 79.7171 126.933C78.6903 129.92 80.0921 133.114 82.8512 134.067C85.6102 135.016 88.6805 133.366 89.7101 130.375C89.7619 130.221 89.8038 130.065 89.8457 129.91C91.3485 130.114 92.8505 130.188 94.3451 130.137C94.357 130.296 94.3715 130.45 94.397 130.606C94.8858 133.673 97.6358 135.613 100.539 134.943C103.441 134.27 105.402 131.242 104.913 128.178C104.888 128.019 104.853 127.863 104.815 127.709C106.23 127.082 107.606 126.345 108.927 125.498C109.011 125.627 109.098 125.751 109.199 125.874C111.072 128.192 114.435 128.357 116.705 126.243C118.484 124.59 119.066 122.027 118.336 119.884C118.133 119.285 117.829 118.725 117.423 118.222C117.327 118.101 117.225 117.993 117.12 117.887C118.079 116.615 118.953 115.26 119.74 113.829C119.875 113.89 120.009 113.948 120.153 113.998C122.912 114.947 125.985 113.298 127.012 110.306C128.042 107.318 126.641 104.125 123.882 103.173C123.738 103.123 123.597 103.086 123.452 103.049C123.714 101.437 123.861 99.8308 123.886 98.2378C124.033 98.2177 124.183 98.1968 124.331 98.1594L124.329 98.1613ZM112.985 105.474C110.451 112.836 104.503 117.963 97.8169 119.422C94.6437 120.116 91.3058 119.984 88.0825 118.873C78.0641 115.417 72.9729 103.822 76.7105 92.9686C78.3808 88.1156 81.5313 84.2363 85.4027 81.737C90.187 78.6401 96.0765 77.6592 101.615 79.571C111.633 83.0231 116.722 94.6227 112.985 105.476V105.474Z" fill="url(#paint2_linear_6_29717)"/>
<g style="mix-blend-mode:soft-light" opacity="0.3">
<path d="M116.705 126.245C114.435 128.359 111.072 128.193 109.199 125.875C109.099 125.752 109.011 125.628 108.927 125.5C107.606 126.346 106.23 127.084 104.815 127.71C104.853 127.865 104.888 128.02 104.913 128.179C105.402 131.243 103.441 134.27 100.539 134.944C97.6348 135.615 94.8858 133.675 94.397 130.608C94.3724 130.451 94.357 130.297 94.3451 130.139C92.8505 130.19 91.3485 130.115 89.8457 129.911C89.8038 130.067 89.7628 130.222 89.71 130.376C88.6805 133.368 85.6093 135.017 82.8511 134.068C80.0921 133.115 78.6903 129.922 79.7171 126.934C79.7717 126.777 79.8345 126.628 79.8973 126.483C78.5893 125.715 77.3568 124.85 76.2107 123.887C76.107 124.004 75.9959 124.116 75.8812 124.225C73.611 126.34 70.2485 126.174 68.3751 123.853C66.5018 121.535 66.8222 117.942 69.0933 115.831C69.2117 115.722 69.3336 115.621 69.4592 115.521C68.7274 114.156 68.0993 112.728 67.5814 111.248C67.4348 111.295 67.2873 111.339 67.1362 111.376C64.2325 112.047 61.4835 110.107 60.9947 107.042C60.5058 103.976 62.4666 100.948 65.3694 100.278C65.5178 100.244 65.6643 100.22 65.8145 100.199C65.84 98.6063 65.9829 97.0014 66.2487 95.3883C66.104 95.3555 65.9593 95.3154 65.8154 95.2653C63.0564 94.3162 61.6546 91.1191 62.685 88.1316C63.7154 85.1431 66.7858 83.4909 69.5448 84.4436C69.6877 84.49 69.8261 84.5511 69.9608 84.6121C70.7436 83.1775 71.6211 81.8231 72.5806 80.5534C72.4759 80.445 72.3739 80.3357 72.2774 80.2191C70.4041 77.8974 70.7245 74.3087 72.9947 72.1937C73.8404 71.4031 74.838 70.9349 75.8548 70.7773C79.799 73.5044 83.6221 77.1569 85.4026 81.7375C81.5312 84.2377 78.3808 88.117 76.7105 92.9691C72.9729 103.823 78.064 115.418 88.0825 118.873C91.3066 119.985 94.6446 120.117 97.8169 119.423C102.739 122.24 109.437 122.908 118.333 119.887C119.063 122.031 118.481 124.594 116.702 126.247L116.705 126.245Z" fill="white"/>
</g>
<path d="M247.131 115.39C252.069 116.852 257.355 113.701 258.938 108.352C260.52 103.002 257.801 97.4798 252.863 96.017C252.608 95.9414 252.35 95.8849 252.093 95.8339C252.435 92.9721 252.566 90.1275 252.487 87.3203C252.746 87.272 253.005 87.2201 253.265 87.1472C258.332 85.7391 261.55 80.2494 260.452 74.8855C259.354 69.5216 254.356 66.3145 249.289 67.7217C249.024 67.7955 248.767 67.8866 248.513 67.9822C247.485 65.4128 246.267 62.9426 244.874 60.5917C245.085 60.4095 245.294 60.2228 245.496 60.0188C249.335 56.1176 249.623 49.7591 246.138 45.8178C242.654 41.8766 236.717 41.8439 232.877 45.745C232.681 45.9454 232.5 46.1549 232.321 46.3671C230.226 44.7622 227.988 43.3285 225.623 42.0807C225.725 41.8156 225.823 41.5478 225.905 41.2709C227.488 35.9216 229.749 29.9802 224.789 28.5948C213.316 25.3904 209.607 30.6241 208.024 35.9744C207.942 36.2513 207.879 36.5291 207.819 36.8069C205.156 36.5655 202.5 36.5491 199.869 36.7541C199.836 36.479 199.798 36.2039 199.742 35.9298C198.644 30.5658 199.704 27.3578 194.515 28.2095C183.198 30.0667 180.294 35.6647 181.392 41.0287C181.449 41.3092 181.523 41.5797 181.601 41.8475C179.152 43.0607 176.787 44.4698 174.527 46.0647C174.366 45.8461 174.201 45.6302 174.018 45.4235C170.533 41.4822 164.596 41.4495 160.757 45.3515C156.917 49.2526 156.63 55.6112 160.114 59.5524C160.293 59.7546 160.481 59.9395 160.672 60.1208C159.079 62.4334 157.642 64.8909 156.371 67.4776C156.127 67.3811 155.881 67.2873 155.626 67.2117C150.688 65.7489 145.402 68.8995 143.819 74.2497C142.236 79.5991 144.956 85.1215 149.894 86.5843C150.149 86.6599 150.406 86.7164 150.664 86.7674C150.322 89.6293 150.191 92.4738 150.27 95.281C150.011 95.3293 149.752 95.3812 149.492 95.4532C144.425 96.8614 141.207 102.351 142.305 107.716C143.402 113.08 148.401 116.287 153.468 114.879C153.733 114.805 153.99 114.714 154.244 114.619C155.272 117.189 156.489 119.659 157.883 122.011C157.672 122.193 157.462 122.379 157.261 122.583C153.422 126.485 153.134 132.843 156.619 136.784C160.103 140.726 169.319 141.158 173.158 137.257C173.355 137.057 170.257 136.447 170.436 136.235C172.531 137.84 174.769 139.274 177.133 140.522C177.032 140.787 176.934 141.054 176.852 141.331C175.269 146.681 177.989 152.203 182.926 153.666C187.864 155.129 193.15 151.977 194.733 146.628C194.814 146.351 194.878 146.073 194.937 145.795C197.601 146.037 200.257 146.053 202.888 145.848C202.921 146.123 202.96 146.398 203.015 146.673C204.113 152.037 209.111 155.244 214.179 153.836C219.246 152.428 222.464 146.938 221.366 141.575C221.309 141.294 221.235 141.023 221.157 140.756C223.605 139.542 225.97 138.133 228.23 136.538C228.392 136.757 228.558 136.973 228.74 137.179C232.225 141.12 238.162 141.153 242.001 137.252C245.841 133.351 246.128 126.992 242.644 123.051C242.465 122.849 242.276 122.665 242.086 122.482C243.679 120.17 245.116 117.712 246.387 115.126C246.631 115.222 246.876 115.316 247.132 115.391L247.131 115.39ZM190.972 126.468C173.045 121.157 163.173 101.107 168.919 81.684C174.666 62.2613 193.857 50.8211 211.784 56.1313C229.711 61.4424 239.584 81.4927 233.837 100.916C228.09 120.338 208.899 131.778 190.972 126.467V126.468Z" fill="url(#paint3_linear_6_29717)"/>
<path d="M253.265 87.148C258.333 85.7398 261.55 80.2502 260.453 74.8853C259.355 69.5214 254.357 66.3143 249.289 67.7225C249.024 67.7962 248.767 67.8873 248.514 67.983C247.485 65.4135 246.268 62.9433 244.874 60.5924C245.085 60.4102 245.295 60.2235 245.496 60.0195C249.335 56.1184 253.415 47.6484 249.546 44.0852C242.201 37.3232 236.717 41.8446 232.878 45.7466C232.681 45.947 232.5 46.1565 232.322 46.3687C230.226 44.7638 227.989 43.3311 225.624 42.0823C225.726 41.8172 225.823 41.5495 225.905 41.2726C226.766 38.3615 226.346 35.4031 224.995 33.0723C222.117 41.3536 219.301 49.6559 216.569 57.9856C231.411 65.1675 239.05 83.3006 233.838 100.918C229.421 115.848 217.059 126.05 203.436 127.565C203.122 129.232 202.822 130.905 202.462 132.565C201.488 137.069 200.262 141.532 199.031 145.988C200.321 145.994 201.608 145.948 202.888 145.849C202.922 146.124 202.959 146.399 203.016 146.674C204.113 152.038 208.221 156.011 217.467 153.797C222.582 152.572 222.463 146.94 221.366 141.575C221.308 141.295 221.235 141.024 221.156 140.756C223.605 139.543 225.97 138.134 228.23 136.539C228.391 136.758 228.558 136.974 228.74 137.18C232.224 141.121 241.83 141.299 245.67 137.398C249.509 133.496 246.128 126.993 242.643 123.051C242.465 122.849 242.275 122.664 242.085 122.483C243.678 120.17 245.115 117.713 246.386 115.127C246.63 115.224 246.876 115.318 247.132 115.393C252.069 116.856 257.355 113.704 258.938 108.355C260.521 103.006 257.801 97.4833 252.864 96.0205C252.608 95.9449 252.35 95.8884 252.094 95.8374C252.435 92.9755 252.566 90.131 252.488 87.3237C252.746 87.2755 253.006 87.2226 253.265 87.1507V87.148Z" fill="url(#paint4_linear_6_29717)"/>
<path d="M257.821 95.6776C257.564 95.6011 257.31 95.5455 257.052 95.4927C257.394 92.6335 257.523 89.7862 257.447 86.9818C257.705 86.9326 257.965 86.8798 258.221 86.806C263.291 85.4005 266.507 79.9091 265.41 74.5461C264.312 69.183 259.314 65.9723 254.247 67.3814C253.983 67.4579 253.724 67.5481 253.47 67.6419C252.443 65.0724 251.226 62.604 249.833 60.2504C250.043 60.0683 250.251 59.8824 250.453 59.6784C254.293 55.7773 254.581 49.4178 251.095 45.4784C247.612 41.5363 241.676 41.5035 237.836 45.4046C237.637 45.605 237.455 45.8163 237.28 46.0286C235.184 44.42 232.947 42.9891 230.58 41.7394C230.684 41.4744 230.781 41.2093 230.862 40.9324C232.445 35.5821 229.725 30.0606 224.788 28.5978C219.851 27.135 214.564 30.2847 212.981 35.6322C212.899 35.9128 212.835 36.1906 212.778 36.4656C210.113 36.2261 207.457 36.2079 204.826 36.4137C204.791 36.1386 204.757 35.8636 204.697 35.5903C203.601 30.2237 198.601 27.0166 193.535 28.4257C188.469 29.8347 185.249 35.3225 186.346 40.6892C186.405 40.9688 186.48 41.2403 186.557 41.5081C186.436 41.5673 186.316 41.6274 186.196 41.693C183.877 42.8607 181.632 44.2069 179.485 45.7243C179.32 45.5048 179.155 45.2889 178.972 45.0849C175.49 41.1428 169.55 41.11 165.714 45.0111C161.874 48.9123 161.586 55.2718 165.07 59.2139C165.249 59.4143 165.437 59.5973 165.628 59.7822C164.036 62.0949 162.596 64.5523 161.328 67.1364C161.083 67.0407 160.838 66.9478 160.581 66.8713C155.644 65.4085 150.357 68.5582 148.774 73.9094C147.191 79.2597 149.911 84.7812 154.848 86.244C155.105 86.3205 155.363 86.3761 155.617 86.4252C155.279 89.288 155.146 92.1317 155.226 94.9398C154.968 94.989 154.708 95.0418 154.448 95.1119C149.382 96.521 146.162 102.012 147.259 107.375C148.357 112.739 153.356 115.946 158.422 114.537C158.69 114.464 158.944 114.373 159.199 114.28C160.229 116.846 161.443 119.318 162.84 121.668C162.629 121.851 162.418 122.04 162.216 122.243C158.379 126.144 158.089 132.501 161.575 136.443C165.058 140.385 170.996 140.418 174.837 136.517C175.032 136.317 175.214 136.105 175.392 135.893C177.485 137.498 179.723 138.932 182.09 140.179C181.989 140.444 181.891 140.713 181.807 140.99C180.224 146.34 182.943 151.862 187.881 153.325C192.818 154.787 198.105 151.638 199.688 146.287C199.769 146.01 199.834 145.732 199.894 145.457C202.555 145.696 205.211 145.714 207.842 145.509C207.877 145.784 207.915 146.059 207.971 146.332C209.068 151.695 214.067 154.906 219.133 153.497C223.852 152.185 226.964 147.337 226.486 142.344C226.452 141.975 226.397 141.603 226.322 141.233C226.263 140.954 226.192 140.682 226.111 140.414C228.56 139.202 230.924 137.792 233.186 136.198C233.347 136.414 233.512 136.63 233.695 136.838C237.181 140.78 243.116 140.812 246.957 136.911C250.797 133.01 251.085 126.651 247.598 122.709C247.422 122.508 247.232 122.324 247.04 122.14C248.632 119.828 250.073 117.371 251.343 114.786C251.584 114.882 251.833 114.975 252.09 115.051C257.024 116.513 262.31 113.363 263.893 108.013C265.476 102.663 262.757 97.1413 257.819 95.6785L257.821 95.6776ZM238.794 100.574C233.713 117.743 218.135 128.674 202.206 127.314C200.112 127.135 198.014 126.746 195.931 126.13C178.004 120.816 168.13 100.768 173.877 81.3428C177.191 70.1412 184.975 61.5975 194.411 57.3886C201.338 54.2953 209.153 53.5412 216.743 55.7909C234.667 61.1039 244.542 81.1524 238.794 100.574Z" fill="url(#paint5_linear_6_29717)"/>
<g style="mix-blend-mode:soft-light" opacity="0.3">
<path d="M219.134 153.493C214.068 154.902 209.069 151.692 207.971 146.329C207.915 146.055 207.878 145.78 207.843 145.505C205.211 145.71 202.555 145.693 199.894 145.453C199.834 145.728 199.769 146.006 199.688 146.283C198.106 151.633 192.819 154.784 187.881 153.321C182.944 151.858 180.224 146.338 181.807 140.987C181.892 140.71 181.989 140.441 182.09 140.176C179.724 138.929 177.485 137.494 175.392 135.889C175.214 136.102 175.032 136.313 174.837 136.513C170.997 140.415 165.058 140.381 161.575 136.44C158.089 132.498 158.38 126.141 162.216 122.24C162.418 122.037 162.629 121.847 162.84 121.665C161.443 119.314 160.23 116.843 159.2 114.276C158.945 114.37 158.689 114.461 158.422 114.533C153.357 115.942 148.357 112.735 147.26 107.372C146.162 102.009 149.381 96.5166 154.448 95.1084C154.708 95.0383 154.967 94.9855 155.226 94.9363C155.146 92.1282 155.279 89.2845 155.618 86.4217C155.363 86.3726 155.104 86.317 154.849 86.2405C149.911 84.7777 147.191 79.2571 148.774 73.9059C150.357 68.5556 155.644 65.405 160.581 66.8678C160.838 66.9443 161.083 67.0372 161.328 67.1329C162.596 64.5479 164.035 62.0914 165.628 59.7787C165.437 59.5948 165.249 59.4108 165.07 59.2104C161.587 55.2683 161.875 48.9088 165.714 45.0076C169.551 41.1065 175.49 41.1393 178.973 45.0814C179.156 45.2855 179.32 45.5013 179.485 45.7208C181.632 44.2034 183.876 42.8572 186.196 41.6895C189.88 46.3438 192.92 51.6194 194.411 57.3851C184.975 61.5941 177.19 70.1377 173.876 81.3393C168.128 100.765 178.003 120.813 195.931 126.126C198.014 126.743 200.112 127.133 202.205 127.31C207.937 134.986 216.017 140.549 226.488 142.339C226.966 147.331 223.853 152.18 219.135 153.491L219.134 153.493Z" fill="white"/>
</g>
<path d="M246.838 128.622L247.163 123.835C247.163 123.835 246.545 122.767 246.355 120.212C246.166 117.658 246.754 118.706 247.004 119.779C247.074 120.079 247.244 120.341 247.451 120.562C247.973 121.118 248.686 120.492 248.845 119.745L250.089 117.17C250.089 117.17 251.447 118.96 249.8 123.57C249.284 125.014 249.459 128.593 249.459 128.593L246.84 128.621L246.838 128.622Z" fill="url(#paint6_linear_6_29717)"/>
<path d="M162.807 126.741L161.918 121.998C161.918 121.998 163.198 120.288 162.765 118.425C162.333 116.561 162.623 117.234 162.095 118.379C161.567 119.524 160.816 117.474 160.247 115.614C159.679 113.754 159.135 116.516 159.192 118.182C159.248 119.847 159.243 120.837 160.149 122.11C161.055 123.384 160.565 127.662 160.565 127.662L162.806 126.741H162.807Z" fill="url(#paint7_linear_6_29717)"/>
<path d="M222.493 259.688C222.601 258.663 225.06 259.038 226.67 259.304C228.28 259.57 228.949 260.268 229.161 260.894C229.374 261.519 229.081 263.006 227.627 262.276C226.432 261.676 222.396 260.593 222.492 259.688H222.493Z" fill="#26264F"/>
<path d="M225.742 255.91L226.625 259.967C226.625 259.967 227.725 260.838 228.131 260.47L228.012 255.855L225.742 255.911V255.91Z" fill="url(#paint8_linear_6_29717)"/>
<path d="M217.757 253.002L221.461 254.927L220.689 256.817L216.934 255.562L217.757 253.002Z" fill="url(#paint9_linear_6_29717)"/>
<path d="M217.032 260.489C217.032 260.489 219.53 261.321 220.758 259.893C221.547 258.975 222.26 257.373 222.669 256.347C222.891 255.789 222.645 255.157 222.104 254.899C221.318 254.522 220.245 254.1 219.759 254.332C218.946 254.719 219.481 257.698 219.087 258.437C218.693 259.177 216.996 259.554 217.032 260.49V260.489Z" fill="#26264F"/>
<path d="M215.648 193.043C215.597 202.31 216.142 213.087 217.875 224.976C219.682 237.369 222.385 248.249 225.218 257.383C225.539 257.564 226.114 257.834 226.881 257.908C227.78 257.996 228.486 257.77 228.842 257.629C229.789 252.914 230.383 248.921 230.764 245.951C231.77 238.108 232.257 234.089 231.504 229.33C230.796 224.864 229.964 225.153 229.244 220.222C228.605 215.836 228.809 212.51 229.138 207.642C229.364 204.299 229.822 199.795 230.831 194.482C225.769 194.002 220.708 193.522 215.646 193.043H215.648Z" fill="url(#paint10_linear_6_29717)"/>
<path style="mix-blend-mode:multiply" opacity="0.3" d="M225.939 254.165C225.149 250.839 227.243 249.487 227.291 245.338C227.35 240.269 224.253 239.907 223.655 234.162C223.176 229.546 225.125 229.282 224.993 223.701C224.853 217.77 222.613 216.417 223.34 212.911C223.743 210.962 225.072 208.356 229.29 205.706C229.552 202.633 230.006 198.836 230.833 194.482C225.771 194.002 220.71 193.522 215.648 193.043C215.597 202.31 216.142 213.087 217.875 224.976C219.682 237.369 222.385 248.249 225.218 257.383C225.539 257.564 226.114 257.834 226.881 257.908C227.288 257.948 227.649 257.919 227.963 257.867C227.067 256.871 226.291 255.65 225.938 254.165H225.939Z" fill="url(#paint11_linear_6_29717)"/>
<path d="M203.387 190.578C203.052 192.79 202.461 196.132 201.409 200.123C199.036 209.122 196.825 211.905 195.889 217.831C194.798 224.741 196.324 230.342 196.905 232.472C200.867 247.015 213.944 254.547 217.414 256.41C217.907 255.126 218.401 253.841 218.893 252.558C218.075 251.292 216.872 249.262 215.789 246.607C213.94 242.073 213.97 239.479 212.799 235.06C210.685 227.086 208.603 228.054 208.39 224.052C208.052 217.711 213.296 215.517 218.686 203.804C220.23 200.447 221.193 197.599 221.736 195.846C215.62 194.09 209.504 192.335 203.388 190.579L203.387 190.578Z" fill="url(#paint12_linear_6_29717)"/>
<path d="M246.139 126.651C247.444 126.531 248.75 126.409 250.055 126.288C251.521 128.68 255.704 136.21 254.131 145.785C253.759 148.054 252.302 155.568 245.491 161.163C240.614 165.168 235.426 166.179 233.058 166.488C232.293 177.712 232.025 184.804 232.124 189.066C232.135 189.58 232.242 193.893 231.288 199.381C230.998 201.054 230.847 201.899 230.584 202.349C226.951 208.585 208.978 202.227 204.175 199.751C202.926 199.107 201.671 198.245 201.205 196.837C200.606 195.028 201.403 193.478 201.778 192.102C202.697 188.722 200.837 185.997 197.206 179.071C195.67 176.143 193.45 171.753 190.894 166.076C187.438 166.835 179.332 168.065 171.766 163.802C160.65 157.538 155.125 141.905 159.583 125.673C160.772 125.418 161.961 125.164 163.151 124.91C163.706 128.156 164.903 132.558 167.657 137.104C169.329 139.861 170.72 142.157 173.31 143.564C177.376 145.773 181.236 144.072 186.775 143.097C195.503 141.559 202.628 142.838 211.282 144.392C220.737 146.09 223.215 148.225 230.269 147.382C233.407 147.006 237.339 146.486 240.722 143.621C247.38 137.983 246.309 128.022 246.142 126.653L246.139 126.651Z" fill="url(#paint13_linear_6_29717)"/>
<path d="M209.697 136.775C209.697 136.775 208.971 139.024 209.706 140.105C210.441 141.185 212.861 145.297 213.723 145.549C214.214 145.692 215.45 145.966 216.422 146.175C216.934 146.285 216.996 147.005 216.502 147.181C215.497 147.539 213.745 147.848 210.789 147.615C206.516 147.278 203.186 145.417 201.744 144.472C201.539 144.338 201.662 144.021 201.904 144.056L203.819 144.331C205.458 144.567 206.908 143.253 206.836 141.597L206.789 140.519L209.696 136.775H209.697Z" fill="url(#paint14_linear_6_29717)"/>
<path d="M207.618 141.261C207.364 141.098 205.232 140.691 205.014 139.513C204.718 137.915 206.259 136.1 206.455 135.804C207.278 134.566 207.475 134.405 207.831 134.21L208.325 133.964C208.325 133.964 208.353 133.956 208.382 133.948C208.692 133.869 209.718 133.93 209.921 133.992C210.57 134.194 211.03 136.956 210.483 140.753C210.498 140.9 210.51 141.05 210.523 141.2C210.555 141.59 207.589 141.395 207.618 141.26V141.261Z" fill="url(#paint15_linear_6_29717)"/>
<path d="M206.109 133.571C205.984 134.031 207.155 135.044 207.655 135.48C207.716 135.533 207.89 135.71 208.04 135.986C208.062 136.026 208.08 136.073 208.095 136.132C208.286 136.9 207.024 137.67 207.222 138.024C207.366 138.281 208.2 138.03 208.276 138.248C208.348 138.453 207.644 138.799 207.725 139.044C207.786 139.229 208.212 139.103 208.446 139.399C208.563 139.546 208.516 139.651 208.615 140.078C208.671 140.319 208.756 140.586 208.827 140.736C209.172 141.467 210.305 141.826 210.553 141.568C210.622 141.496 210.575 141.427 210.661 141.173C210.661 141.173 210.741 140.937 210.934 140.674C211.209 140.298 211.813 140.066 212.432 139.699C213.581 139.019 213.934 138.384 214.043 138.168C214.055 138.143 214.066 138.121 214.076 138.1C214.094 138.064 214.11 138.027 214.125 137.99C214.408 137.249 213.536 135.868 213.536 135.868C212.835 134.778 211.908 134.014 211.159 133.519C209.754 133.142 208.592 133.098 207.783 133.133C207.124 133.161 206.206 133.207 206.107 133.572L206.109 133.571Z" fill="#26264F"/>
<path d="M205.399 137.467C205.399 137.467 206.235 138.622 207.527 137.391L208.109 137.606C208.109 137.606 206.44 140.704 206.13 140.682C205.819 140.661 204.926 140.393 204.926 140.393C204.596 140.227 204.429 139.85 204.532 139.495C204.719 138.847 205.158 137.914 205.399 137.466V137.467Z" fill="#26264F"/>
<path d="M207.791 137.792C208.117 137.42 208.591 137.84 208.548 138.356C208.504 138.871 207.957 139.361 207.482 139.216C207.007 139.07 207.353 138.293 207.791 137.793V137.792Z" fill="url(#paint16_linear_6_29717)"/>
<path style="mix-blend-mode:multiply" opacity="0.3" d="M225.837 200.141C219.483 201.908 212.466 198.217 210.956 193.728C209.84 190.41 212.902 187.526 211.109 184.066C209.383 180.734 205.777 181.93 203.576 178.53C201.176 174.825 204.493 171.912 202.473 167.023C200.953 163.346 196.954 159.858 192.809 159.584C187.884 159.258 185.736 163.67 181.566 162.463C179.388 161.833 179.53 160.5 176.589 158.105C171.485 153.948 167.782 155.293 163.549 152.321C162.304 151.447 160.939 150.145 159.723 148.117C161.905 154.999 166.109 160.614 171.765 163.801C179.33 168.064 187.437 166.834 190.892 166.074C193.448 171.752 195.668 176.142 197.204 179.07C200.835 185.995 202.696 188.721 201.776 192.101C201.402 193.477 200.605 195.026 201.204 196.835C201.67 198.243 202.924 199.106 204.173 199.75C208.976 202.226 226.95 208.584 230.583 202.348C230.845 201.899 230.995 201.053 231.286 199.38C231.467 198.338 231.61 197.34 231.722 196.4C230.334 197.951 228.423 199.421 225.836 200.14L225.837 200.141Z" fill="url(#paint17_linear_6_29717)"/>
<path d="M101.202 166.854C101.202 166.854 81.2479 181.578 67.0705 172.661L65.1152 191.055C65.1152 191.055 93.2053 198.924 101.365 170.204L101.201 166.854H101.202Z" fill="url(#paint18_linear_6_29717)"/>
<path d="M149.662 201.12C153.287 200.795 156.163 197.464 156.087 193.679C156.033 190.988 154.503 188.791 152.326 187.862C152.293 187.848 152.265 187.837 152.232 187.827C151.365 187.473 150.4 187.319 149.388 187.409C149.198 187.427 149.014 187.455 148.827 187.488C148.449 185.612 147.931 183.778 147.276 182.007C147.445 181.909 147.611 181.805 147.773 181.693C150.872 179.522 151.862 175.232 149.986 172.113C149.288 170.954 148.291 170.121 147.154 169.646C145.704 169.03 144.022 169.001 142.449 169.613C141.941 169.811 141.449 170.074 140.974 170.405C140.815 170.517 140.668 170.636 140.52 170.759C139.296 169.404 137.951 168.147 136.5 167.002C136.601 166.837 136.701 166.667 136.791 166.488C138.458 163.207 140.611 159.634 138.022 157.955C137.996 157.937 137.968 157.919 137.939 157.905C137.835 157.844 137.727 157.783 137.619 157.728C130.214 154.108 127.037 157.206 125.291 160.646C125.258 160.71 125.23 160.775 125.201 160.841C125.147 160.956 125.096 161.071 125.05 161.187C123.268 160.689 121.465 160.348 119.647 160.156C119.658 159.965 119.669 159.775 119.665 159.58C119.604 156.478 120.345 154.487 118.618 153.85C118.315 153.738 117.93 153.601 117.455 153.576C117.398 153.572 117.34 153.568 117.282 153.568H116.951C109.115 153.568 106.47 156.925 106.546 160.696C106.549 160.893 106.567 161.114 106.585 161.308C105.616 161.582 104.659 161.909 103.716 162.266C103.713 162.266 103.709 162.27 103.706 162.27C102.874 162.583 102.057 162.933 101.247 163.307C101.164 163.138 101.078 162.976 100.98 162.81C100.282 161.65 99.2853 160.821 98.1474 160.346C96.9522 159.838 95.5987 159.73 94.2815 160.051C93.4859 160.242 92.6976 160.591 91.9667 161.106C88.8672 163.278 87.8778 167.568 89.7529 170.683C89.8503 170.842 89.9541 170.993 90.0624 171.14C88.8463 172.357 87.6939 173.672 86.6216 175.073C86.485 175.25 86.3512 175.427 86.2183 175.606C86.0636 175.509 85.9088 175.415 85.7432 175.329C85.6176 175.265 85.4947 175.207 85.3654 175.156C82.2596 173.835 78.5083 175.333 76.8316 178.639C75.0857 182.079 76.2454 186.177 79.4232 187.791C79.5852 187.874 79.7545 187.943 79.9238 188.011C79.333 189.916 78.887 191.832 78.5884 193.752C78.4082 193.752 78.2253 193.756 78.0414 193.774C74.4167 194.098 71.5411 197.426 71.6167 201.214C71.6531 203.008 72.344 204.582 73.4491 205.706C74.6761 206.955 76.4074 207.742 78.3154 207.573C78.4738 207.558 78.6358 207.593 78.7942 207.593H78.8014C78.8269 207.593 78.8515 207.494 78.877 207.49C78.8806 207.505 78.8843 207.471 78.8843 207.486C78.8879 207.489 78.8879 207.471 78.8879 207.475C79.2657 209.329 79.7773 211.126 80.4217 212.884C80.4217 212.888 80.4254 212.89 80.4254 212.893C80.2597 212.991 80.094 213.088 79.932 213.2C78.1506 214.45 77.0628 216.375 76.8225 218.378C76.6423 219.858 76.9236 221.381 77.7182 222.703C79.1728 225.116 83.2181 226.682 86.4113 225.962H86.4186C87.1568 225.962 87.8477 225.706 88.4485 225.378C88.5131 225.443 88.5741 225.533 88.6396 225.601C88.6469 225.612 88.6579 225.623 88.6651 225.63C89.1439 226.095 89.6373 226.552 90.148 226.992C90.1735 227.018 90.198 227.039 90.2235 227.06C90.5439 227.337 90.8716 227.608 91.2057 227.871C91.2021 227.875 91.2021 227.878 91.1984 227.882C91.101 228.048 91.0009 228.221 90.9144 228.393C90.5685 229.073 90.3382 229.779 90.2126 230.485C90.0287 231.523 90.0761 232.564 90.3282 233.532C90.5157 234.241 90.8143 234.915 91.2175 235.517C91.4588 235.88 91.7364 236.215 92.0559 236.521C92.4737 236.925 92.9598 237.321 93.5032 237.598C94.702 238.21 96.0192 238.206 97.2863 238.206H97.2936C99.3772 237.847 101.329 236.428 102.412 234.292C102.506 234.115 102.581 233.856 102.657 233.676C103.571 233.932 104.489 234.245 105.414 234.245H105.418C105.583 234.245 105.749 234.245 105.915 234.605H105.922C105.937 234.605 105.955 234.529 105.972 234.529C105.99 234.533 106.009 234.495 106.022 234.498C106.148 234.52 106.278 234.521 106.407 234.538C106.516 234.557 106.627 234.564 106.735 234.579C107.174 234.647 107.571 234.696 108.015 234.742C108 234.93 107.952 235.087 107.952 235.273V235.313C107.952 235.358 108 235.398 108.003 235.439C108.004 235.474 108.027 235.509 108.03 235.543C108.03 235.58 108.041 235.611 108.045 235.648C108.056 235.814 108.079 235.976 108.101 236.134C108.105 236.184 108.115 236.232 108.122 236.282C108.478 238.529 109.898 240.32 111.82 241.133C111.892 241.166 111.968 241.194 112.047 241.223C112.156 241.263 112.268 241.302 112.382 241.339C112.415 241.353 112.45 241.364 112.487 241.372C113.192 241.573 113.952 241.652 114.74 241.584C114.905 241.569 115.068 241.547 115.226 241.519C115.27 241.512 115.316 241.505 115.359 241.494C118.685 240.871 121.233 237.708 121.161 234.142C121.157 234.009 121.15 233.88 121.139 233.75C121.135 233.71 121.132 233.667 121.128 233.628C121.124 233.606 121.124 233.585 121.121 233.559C122.939 233.041 124.724 232.378 126.459 231.575C126.541 231.744 126.628 231.913 126.725 232.076C126.769 232.147 126.815 232.219 126.866 232.291C127.028 232.54 127.204 232.774 127.398 232.99C127.398 232.99 127.4 232.992 127.405 232.997C128.37 234.092 129.662 234.763 131.048 234.957C131.674 235.05 132.323 235.043 132.97 234.931C133.92 234.776 134.867 234.398 135.738 233.785C138.693 231.714 139.729 227.716 138.193 224.644C138.154 224.565 138.114 224.485 138.067 224.406C138.031 224.338 137.992 224.27 137.953 224.205C137.855 224.046 137.751 223.895 137.643 223.751C139.014 222.375 140.299 220.884 141.487 219.285C141.642 219.383 141.797 219.477 141.962 219.56C142.772 219.97 143.633 220.179 144.5 220.205C144.922 220.223 145.339 220.194 145.756 220.122C147.84 219.768 149.788 218.389 150.875 216.25C152.617 212.81 151.461 208.715 148.283 207.101C148.121 207.018 147.952 206.946 147.784 206.878C148.373 204.976 148.82 203.057 149.119 201.137C149.299 201.137 149.482 201.133 149.666 201.119L149.662 201.12ZM87.1841 224.134C87.2233 224.177 87.2633 224.22 87.3034 224.263C87.206 224.202 87.1559 224.155 87.1841 224.134ZM102.377 220.064C90.8452 214.205 86.6371 199.33 92.9762 186.84C96.2158 180.457 101.578 175.934 107.59 173.813C111.452 172.455 115.58 172.088 119.582 172.862C121.544 173.236 123.474 173.888 125.327 174.828C126.479 175.415 127.563 176.089 128.563 176.849C128.661 176.917 128.758 176.992 128.854 177.068C129.279 177.396 129.686 177.741 130.082 178.098C130.244 178.246 130.402 178.393 130.56 178.548C130.586 178.57 130.61 178.595 130.636 178.62C130.802 178.779 130.964 178.941 131.122 179.107C131.144 179.128 131.168 179.149 131.187 179.175C131.338 179.33 131.485 179.484 131.629 179.647C131.665 179.687 131.701 179.726 131.737 179.769C131.881 179.927 132.019 180.086 132.151 180.248C132.18 180.277 132.205 180.305 132.227 180.338C132.364 180.496 132.494 180.659 132.619 180.824C133.163 181.512 133.663 182.229 134.12 182.978C134.229 183.148 134.329 183.325 134.43 183.497C134.459 183.543 134.484 183.591 134.509 183.637C134.599 183.788 134.682 183.939 134.761 184.094C134.808 184.174 134.851 184.256 134.894 184.339C134.97 184.483 135.045 184.627 135.113 184.772C135.387 185.319 135.639 185.878 135.869 186.447C135.959 186.663 136.042 186.882 136.125 187.103C136.197 187.3 136.269 187.503 136.337 187.704C136.391 187.851 136.438 187.999 136.484 188.147C136.517 188.248 136.549 188.348 136.578 188.449C136.617 188.567 136.65 188.683 136.683 188.799C136.719 188.917 136.751 189.033 136.78 189.149C136.823 189.285 136.859 189.425 136.892 189.563C137.014 190.038 137.122 190.518 137.216 191C137.266 191.267 137.314 191.529 137.356 191.796C137.399 192.052 137.436 192.307 137.467 192.567C137.471 192.6 137.475 192.632 137.478 192.668C137.504 192.852 137.525 193.035 137.543 193.219C137.558 193.348 137.568 193.475 137.579 193.604C137.59 193.709 137.598 193.813 137.605 193.921C137.619 194.08 137.63 194.242 137.638 194.404C137.893 198.914 136.971 203.632 134.729 208.05C133.365 210.741 131.62 213.1 129.611 215.091C129.399 215.3 129.186 215.506 128.97 215.707C128.751 215.908 128.531 216.103 128.307 216.298C128.185 216.403 128.063 216.51 127.937 216.611C127.836 216.698 127.731 216.781 127.627 216.864C127.401 217.048 127.17 217.227 126.937 217.404C124.928 218.92 122.739 220.112 120.454 220.959C120.08 221.095 119.705 221.226 119.328 221.344C118.943 221.466 118.554 221.578 118.162 221.679C118.154 221.683 118.147 221.683 118.14 221.686C117.909 221.744 117.675 221.802 117.441 221.852C117.204 221.91 116.963 221.961 116.721 222.003C115.012 222.339 113.27 222.479 111.531 222.422C111.294 222.414 111.06 222.403 110.826 222.382C110.789 222.382 110.75 222.379 110.714 222.375C107.866 222.177 105.045 221.421 102.377 220.066V220.064Z" fill="url(#paint19_linear_6_29717)"/>
<path d="M149.115 201.138C148.816 203.058 148.369 204.977 147.779 206.879C147.949 206.947 148.118 207.019 148.279 207.102C151.458 208.715 152.613 212.81 150.871 216.251C149.784 218.39 147.837 219.769 145.752 220.123C145.334 220.194 144.918 220.224 144.496 220.205C143.629 220.18 142.768 219.971 141.958 219.561C141.793 219.478 141.638 219.384 141.483 219.286C140.295 220.886 139.01 222.377 137.639 223.752C137.747 223.896 137.851 224.047 137.949 224.206C137.988 224.27 138.028 224.339 138.063 224.407C138.11 224.483 138.157 224.562 138.2 224.641C139.949 227.76 141.169 232.269 138.211 234.344C137.314 234.971 136.137 235.306 134.867 235.393C133.622 235.476 132.254 235.321 131.016 234.957C129.598 234.547 128.464 233.87 127.384 232.984V232.803H127.438C127.218 232.803 127.027 232.445 126.861 232.204C126.811 232.132 126.764 232.104 126.721 232.032C126.624 231.87 126.537 231.722 126.455 231.554C124.72 232.357 122.935 233.031 121.117 233.549C121.12 233.575 121.12 233.601 121.124 233.623C121.128 233.662 121.185 233.709 121.189 233.748C121.2 233.845 121.264 233.942 121.264 234.064V234.143C121.264 237.903 120.584 241.808 116.978 241.808H116.967C115.164 241.909 113.681 241.747 112.482 241.372C112.445 241.365 112.41 241.354 112.377 241.34C112.263 241.303 112.151 241.264 112.042 241.224C111.963 241.195 111.887 241.167 111.816 241.134C109.515 240.19 108.414 238.389 108.119 236.283C108.112 236.233 108.104 236.185 108.101 236.135C108.079 235.947 108.061 235.761 108.051 235.569C108.051 235.562 108.051 235.551 108.047 235.544C108.036 235.447 107.986 235.378 107.982 235.273C107.979 235.079 107.946 234.931 107.946 234.737V234.733C107.586 234.691 107.115 234.632 106.675 234.568C106.567 234.553 106.481 234.535 106.377 234.517C106.247 234.499 106.128 234.56 106.003 234.539C105.973 234.532 105.945 234.604 105.916 234.604H105.909C105.743 234.244 105.578 234.244 105.412 234.244H105.408C106.801 231.363 108.256 228.537 109.483 225.595C109.932 224.515 110.462 223.442 110.822 222.354C110.825 222.35 110.825 222.363 110.825 222.36C110.825 222.374 111.21 222.391 111.47 222.402C111.495 222.406 111.516 222.409 111.538 222.409C113.28 222.47 115.008 222.331 116.717 222C116.959 221.953 117.196 221.903 117.437 221.849C117.671 221.799 117.905 221.742 118.136 221.685C118.143 221.681 118.15 221.681 118.157 221.677C118.55 221.576 118.938 221.465 119.323 221.342C119.701 221.223 120.076 221.097 120.45 220.957C122.743 220.118 124.932 218.922 126.947 217.402C127.181 217.225 127.404 217.045 127.631 216.862C127.735 216.779 127.835 216.696 127.933 216.609C128.058 216.508 128.181 216.401 128.303 216.296C128.526 216.101 128.746 215.907 128.966 215.705C129.182 215.504 129.395 215.298 129.607 215.089C131.615 213.097 133.361 210.739 134.725 208.048C136.967 203.629 137.889 198.911 137.634 194.402C137.626 194.24 137.615 194.078 137.601 193.919C137.594 193.811 137.586 193.707 137.575 193.602C137.564 193.473 137.553 193.347 137.539 193.217C137.521 193.033 137.5 192.85 137.474 192.666C137.471 192.63 137.467 192.598 137.463 192.565C137.431 192.305 137.395 192.05 137.352 191.794C137.31 191.528 137.262 191.265 137.212 190.998C137.118 190.516 137.011 190.037 136.888 189.561C136.855 189.424 136.82 189.284 136.776 189.147C136.747 189.031 136.715 188.916 136.679 188.797C136.646 188.681 136.614 188.566 136.574 188.447C136.545 188.346 136.513 188.246 136.48 188.145C136.433 187.997 136.387 187.85 136.333 187.702C136.265 187.501 136.193 187.299 136.121 187.101C136.038 186.881 135.955 186.662 135.865 186.445C135.635 185.876 135.382 185.317 135.109 184.77C135.041 184.626 134.966 184.482 134.89 184.337C134.847 184.255 134.804 184.172 134.757 184.092C134.678 183.938 134.595 183.786 134.505 183.635C134.479 183.589 134.455 183.541 134.426 183.495C134.325 183.322 134.225 183.145 134.116 182.977C133.659 182.228 133.159 181.511 132.615 180.822C132.49 180.657 132.359 180.495 132.223 180.336C132.201 180.303 132.176 180.275 132.147 180.246C132.014 180.084 131.877 179.925 131.733 179.767C131.698 179.724 131.661 179.684 131.625 179.645C131.481 179.483 131.334 179.328 131.182 179.173C131.164 179.147 131.139 179.126 131.118 179.105C130.959 178.939 130.797 178.777 130.632 178.618C130.606 178.593 130.582 178.568 130.556 178.546C130.398 178.391 130.239 178.244 130.077 178.096C129.681 177.74 129.275 177.394 128.85 177.066C128.753 176.991 128.656 176.915 128.559 176.847C128.487 176.789 128.419 176.735 128.347 176.685C128.585 176.253 128.822 175.817 129.06 175.385C131.73 170.497 134.444 165.639 137.194 160.795C137.82 162.549 137.737 164.612 136.787 166.486C136.697 166.666 136.597 166.835 136.496 167C137.947 168.145 139.292 169.402 140.516 170.757C140.664 170.635 140.811 170.515 140.97 170.403C141.402 170.101 141.859 169.791 142.334 169.503C145.264 167.716 148.946 166.611 152.516 171.361C154.701 174.267 150.868 179.518 147.769 181.691C147.606 181.803 147.441 181.906 147.272 182.004C147.927 183.775 148.445 185.609 148.823 187.485C149.01 187.452 149.193 187.421 149.384 187.406C150.396 187.316 151.36 187.471 152.228 187.824C152.261 187.835 152.289 187.846 152.322 187.86C154.499 188.789 156.029 190.986 156.083 193.676C156.158 197.462 153.283 200.793 149.658 201.117C149.474 201.132 149.291 201.135 149.111 201.135L149.115 201.138Z" fill="url(#paint20_linear_6_29717)"/>
<path d="M153.078 201.504C156.703 201.183 159.579 197.851 159.499 194.067C159.424 190.278 156.425 187.472 152.804 187.797C152.642 187.808 152.484 187.833 152.326 187.861C152.296 187.865 152.272 187.872 152.243 187.876C152.239 187.858 152.235 187.843 152.232 187.826C151.854 185.968 151.339 184.152 150.692 182.391C150.861 182.293 151.027 182.193 151.189 182.081C154.288 179.91 155.278 175.62 153.402 172.501C153.147 172.079 152.852 171.698 152.52 171.362C151.12 169.925 149.126 169.313 147.153 169.645C146.203 169.803 145.26 170.185 144.389 170.793C144.231 170.902 144.083 171.024 143.932 171.147C143.457 170.621 142.96 170.105 142.449 169.613C142.413 169.573 142.374 169.537 142.337 169.504C141.567 168.762 140.761 168.056 139.915 167.39C140.016 167.224 140.116 167.055 140.206 166.876C141.877 163.587 140.89 159.694 138.022 157.954C137.996 157.936 137.968 157.918 137.939 157.904C137.835 157.843 137.727 157.782 137.618 157.727C134.443 156.114 130.452 157.594 128.706 161.033C128.616 161.214 128.54 161.393 128.465 161.574C127.385 161.271 126.295 161.026 125.2 160.839C124.488 160.717 123.775 160.615 123.062 160.543C123.073 160.352 123.084 160.158 123.08 159.967C123.019 156.992 121.165 154.568 118.617 153.848C118.243 153.736 117.855 153.606 117.455 153.574C117.398 153.57 117.339 153.566 117.282 153.566H117.264C117.159 153.566 117.055 153.617 116.951 153.617C116.764 153.617 116.573 153.649 116.382 153.667C112.761 153.987 109.885 157.333 109.961 161.118C109.964 161.317 109.979 161.518 110.001 161.708C108.183 162.227 106.398 162.893 104.663 163.697C104.58 163.527 104.494 163.362 104.396 163.199C104.195 162.864 103.967 162.558 103.716 162.278C103.713 162.274 103.709 162.27 103.705 162.267C102.298 160.682 100.214 159.994 98.1481 160.344C97.378 160.47 96.6116 160.744 95.8879 161.168C95.7186 161.266 95.5493 161.373 95.3836 161.489C92.2841 163.664 91.2947 167.95 93.1698 171.069C93.2672 171.228 93.371 171.379 93.4793 171.526C92.1085 172.898 90.8195 174.39 89.6316 175.989C89.4805 175.895 89.3221 175.801 89.1601 175.714C88.35 175.304 87.4897 175.095 86.6223 175.07C86.2044 175.051 85.7839 175.08 85.3661 175.152C83.2816 175.506 81.3309 176.888 80.2476 179.024C78.5017 182.464 79.6614 186.563 82.8355 188.177C83.0012 188.259 83.1705 188.328 83.3398 188.396C82.75 190.298 82.303 192.217 82.0045 194.137C81.8242 194.137 81.6413 194.141 81.4538 194.159C77.8327 194.48 74.9572 197.811 75.0327 201.6C75.0864 204.287 76.6093 206.48 78.7867 207.409C78.7903 207.409 78.7903 207.483 78.7939 207.483C78.8267 207.497 78.8549 207.589 78.8877 207.589H78.8913C79.7588 207.949 80.7164 208.026 81.7314 207.937C81.9189 207.923 82.1055 207.859 82.2894 207.822C82.6671 209.699 83.1896 211.515 83.8405 213.29C83.6748 213.388 83.5091 213.48 83.3471 213.592C80.2476 215.767 79.2545 219.973 81.1333 223.092C82.303 225.033 84.312 225.958 86.4102 225.958H86.4174C87.1593 225.958 87.9076 225.879 88.6385 225.598C88.6458 225.598 88.6567 225.595 88.664 225.591C89.1719 225.396 89.668 225.169 90.1432 224.839C90.3052 224.727 90.4527 224.623 90.6001 224.5C91.8245 225.854 93.1662 227.119 94.6208 228.264C94.5161 228.429 94.4196 228.61 94.3295 228.785C92.5836 232.225 93.7433 236.324 96.9174 237.937C97.0367 237.998 97.1623 238.056 97.2843 238.11C97.2879 238.11 97.2879 238.113 97.2915 238.113C100.397 239.435 104.149 237.937 105.825 234.63C105.858 234.566 105.89 234.501 105.919 234.435C105.973 234.32 106.024 234.205 106.07 234.089C107.852 234.587 109.655 234.932 111.469 235.119C111.458 235.314 111.451 235.505 111.454 235.7C111.508 238.39 113.038 240.508 115.223 241.437C115.267 241.455 115.313 241.473 115.356 241.491C115.864 241.689 116.404 241.804 116.968 241.804H116.979C117.36 242.164 117.753 241.926 118.152 241.891C118.375 241.869 118.595 241.841 118.815 241.797C121.964 241.188 124.37 238.325 124.532 234.983C124.54 234.835 124.505 234.684 124.505 234.529V233.928C125.585 233.651 126.437 233.344 127.381 232.988C127.384 232.988 127.391 232.896 127.395 232.896C127.406 232.892 127.424 233.161 127.439 232.8H127.442C128.26 232.8 129.069 232.24 129.872 231.87C129.955 232.039 130.041 232.256 130.139 232.418C130.837 233.577 131.831 234.432 132.968 234.907C133.569 235.167 134.209 235.329 134.868 235.379C136.305 235.487 137.812 235.104 139.148 234.168C139.972 233.591 140.646 232.867 141.153 232.053C142.424 230.039 142.694 227.494 141.75 225.341C141.638 225.085 141.509 224.837 141.361 224.592C141.268 224.433 141.16 224.282 141.055 224.135C141.085 224.106 141.116 224.074 141.142 224.045C142.33 222.852 143.449 221.567 144.496 220.202C144.633 220.029 144.767 219.849 144.9 219.672C145.054 219.77 145.209 219.864 145.375 219.947C145.5 220.011 145.623 220.069 145.752 220.12C148.858 221.441 152.606 219.947 154.283 216.637C156.029 213.197 154.869 209.102 151.695 207.488C151.529 207.402 151.363 207.333 151.194 207.265C151.785 205.363 152.227 203.444 152.526 201.524C152.71 201.524 152.893 201.52 153.077 201.502L153.078 201.504ZM111.531 222.419C111.516 222.419 111.498 222.415 111.484 222.411C111.48 222.411 111.476 222.411 111.473 222.408C109.533 222.03 107.625 221.385 105.789 220.449C94.2603 214.592 90.0522 199.718 96.3913 187.227C99.1339 181.821 103.403 177.747 108.298 175.341C111.843 173.594 115.72 172.726 119.581 172.86C122.705 172.965 125.819 173.728 128.741 175.215C128.85 175.269 128.957 175.327 129.062 175.385C140.349 181.349 144.421 196.062 138.139 208.437C134.19 216.217 127.082 221.241 119.494 222.505C116.859 222.944 114.167 222.93 111.528 222.419H111.531Z" fill="url(#paint21_linear_6_29717)"/>
<g style="mix-blend-mode:soft-light" opacity="0.3">
<path d="M141.155 232.058C140.647 232.872 139.974 233.599 139.15 234.176C137.815 235.112 136.307 235.501 134.87 235.393C133.625 235.476 132.286 235.321 131.048 234.957C129.663 234.762 128.37 234.093 127.405 232.998C126.458 233.358 125.505 233.671 124.537 233.949C124.555 234.139 124.573 234.334 124.576 234.532C124.58 234.687 124.576 234.838 124.569 234.986C124.425 238.346 121.977 241.191 118.817 241.8C118.597 241.843 118.378 241.872 118.154 241.893C117.755 241.929 117.362 242.167 116.981 241.807H116.97C115.167 241.908 113.684 241.746 112.485 241.372C112.449 241.364 112.413 241.353 112.38 241.339C112.266 241.302 112.154 241.263 112.045 241.223C111.966 241.194 111.891 241.166 111.819 241.133C109.518 240.189 108.417 238.389 108.122 236.282C108.115 236.232 108.107 236.184 108.104 236.134C108.082 235.947 108.019 235.76 108.008 235.569C108.001 235.471 107.949 235.403 107.949 235.313V234.719C107.59 234.672 107.118 234.625 106.678 234.557C106.57 234.542 106.485 234.531 106.378 234.514C106.249 234.496 106.132 234.475 106.007 234.453C105.992 234.449 105.981 234.446 105.963 234.446C105.945 234.446 105.93 234.442 105.916 234.438C105.887 234.503 105.856 234.568 105.824 234.633C104.146 237.939 100.397 239.438 97.2907 238.116C96.02 238.332 94.7028 238.166 93.5013 237.554C92.9578 237.277 92.4718 236.928 92.0549 236.52C91.7344 236.214 91.4577 235.879 91.2165 235.516C90.8096 234.915 90.511 234.244 90.3272 233.531C90.075 232.562 90.0286 231.522 90.2116 230.484C90.3372 229.782 90.5711 229.08 90.9134 228.402C91.0035 228.225 91.1045 228.056 91.2047 227.887L91.1974 227.88C90.866 227.621 90.542 227.344 90.2216 227.059C90.1961 227.037 90.1715 227.016 90.146 226.99C89.6354 226.533 89.142 226.058 88.6632 225.593C88.6559 225.597 88.645 225.6 88.6377 225.6C87.9067 225.881 87.1585 225.96 86.4166 225.96H86.4094C83.217 226.681 79.1709 225.114 77.7163 222.701C76.9207 221.38 76.6403 219.856 76.8206 218.376C77.0582 216.355 78.145 214.413 79.9301 213.16C80.0921 213.048 80.2541 212.965 80.4198 212.872C80.4198 212.869 80.4234 212.869 80.4234 212.869C79.7789 211.111 79.2683 209.382 78.8896 207.527C78.886 207.524 78.886 207.592 78.886 207.592H78.8823C78.8532 207.592 78.8286 207.592 78.7995 207.581C78.7959 207.581 78.7959 207.592 78.7922 207.592H78.7849C78.6302 207.592 78.4682 207.556 78.3134 207.57C76.4055 207.74 74.6742 206.999 73.4471 205.749C72.342 204.625 71.6511 203.03 71.6147 201.236C71.5392 197.447 74.4147 194.108 78.0394 193.784C78.2233 193.766 78.4063 193.756 78.5865 193.756C78.8851 191.836 79.3311 189.918 79.9219 188.013C79.7526 187.944 79.5832 187.874 79.4212 187.791C76.2426 186.178 75.0838 182.079 76.8297 178.639C78.5073 175.333 82.2576 173.835 85.3635 175.156C85.7813 175.084 86.2018 175.055 86.6196 175.073C87.6919 173.672 88.8443 172.357 90.0604 171.14C89.9521 170.993 89.8484 170.842 89.751 170.683C87.8758 167.568 88.8653 163.278 91.9647 161.106C92.6957 160.592 93.484 160.242 94.2796 160.051C94.7975 160.401 95.3336 160.775 95.8853 161.171C100.021 164.171 104.866 168.512 107.587 173.813C107.839 174.314 108.08 174.825 108.296 175.344C103.4 177.749 99.1322 181.824 96.3896 187.229C90.0513 199.72 94.2586 214.595 105.787 220.451C107.623 221.388 109.53 222.033 111.471 222.411C111.496 222.414 111.517 222.414 111.539 222.414C113.281 222.475 115.009 222.335 116.719 222.003C116.96 221.957 117.197 221.906 117.439 221.852C117.673 221.802 117.907 221.744 118.137 221.686C118.572 221.974 119.026 222.252 119.494 222.508C124.054 225.029 130.162 226.027 138.189 224.648C138.193 224.648 138.196 224.648 138.2 224.644C139.154 224.482 140.133 224.284 141.141 224.05C141.156 224.05 141.167 224.046 141.181 224.043C141.412 224.478 141.603 224.914 141.75 225.346C142.535 227.648 142.179 229.92 141.153 232.06L141.155 232.058Z" fill="white"/>
</g>
<path d="M26.083 256.05C25.9956 256.022 25.8199 255.968 25.5978 255.996C25.3175 256.03 25.1236 256.176 25.0125 256.261C24.9078 256.341 24.0467 257.021 24.0567 257.954C24.0649 258.7 24.6211 258.747 25.1736 259.991C25.6233 261.003 25.3657 261.221 25.7753 261.743C26.4589 262.615 27.9591 263 28.6053 262.426C28.9066 262.159 28.9467 261.75 28.9576 261.64C29.0568 260.625 27.9991 260.334 27.7679 259.192C27.5349 258.046 28.4324 257.514 28.0018 256.864C27.8271 256.6 27.2454 256.417 26.083 256.05Z" fill="url(#paint22_linear_6_29717)"/>
<path d="M26.9211 254.295C25.9625 255.178 25.5456 256.159 25.846 256.66C25.958 256.847 26.1655 256.961 26.2575 257.012C26.9001 257.364 27.5846 257.107 27.7148 257.055L28.95 255.319L26.9211 254.295Z" fill="url(#paint23_linear_6_29717)"/>
<path d="M2.57027 261.022C2.26169 260.913 1.92307 260.981 1.6782 261.198C1.29953 261.534 0.75155 262.061 0.459353 262.516C-0.0139871 263.256 1.78835 263.609 3.65349 263.998C5.51863 264.387 7.82708 264.999 7.75881 264.435C7.68963 263.873 7.15439 263.016 5.35205 262.1C4.87416 261.857 3.36038 261.299 2.57027 261.022Z" fill="url(#paint24_linear_6_29717)"/>
<path d="M2.75666 258.959L1.97656 261.433C1.97656 261.433 2.39984 262.236 3.52584 261.763L4.8248 259.604L2.75666 258.96V258.959Z" fill="url(#paint25_linear_6_29717)"/>
<path d="M72.3346 152.645C72.3355 152.652 68.648 157.96 65.1152 159L74.4291 160.516C74.4291 160.516 73.2139 160.105 73.2139 158.398C73.2139 157.334 74.0422 154.775 74.0422 154.775L72.3346 152.645V152.645Z" fill="url(#paint26_linear_6_29717)"/>
<path d="M52.3492 207.021C53.295 210.69 54.532 216.081 55.4905 222.718C57.1545 234.229 56.135 236.703 55.5979 237.782C53.6026 241.795 50.2993 242.57 41.9748 247.543C36.0353 251.091 31.5022 254.41 28.6758 256.592C28.2562 256.525 27.6062 256.369 26.908 255.966C26.2854 255.608 25.8567 255.188 25.5918 254.884C26.3546 251.183 27.7719 248.729 28.876 247.209C30.1841 245.411 31.3447 244.523 36.9884 240.023C40.9963 236.828 43.0016 235.226 43.1063 235.032C46.5362 228.658 35.4719 220.198 37.986 213.57C38.9273 211.088 42.044 208.144 52.3492 207.02V207.021Z" fill="url(#paint27_linear_6_29717)"/>
<path style="mix-blend-mode:multiply" opacity="0.3" d="M28.8761 247.209C30.1841 245.411 31.3447 244.523 36.9884 240.023C40.9963 236.828 43.0016 235.226 43.1063 235.032C46.5362 228.658 35.4719 220.198 37.986 213.57C38.9273 211.088 42.044 208.144 52.3492 207.02C52.8289 208.879 53.3832 211.186 53.9376 213.868C50.1527 215.816 48.983 217.754 48.7582 219.329C48.2229 223.079 52.8817 225.694 51.7502 228.911C50.8327 231.52 47.269 231.206 46.5635 233.901C45.879 236.514 48.9166 238.005 48.3586 240.089C47.4474 243.495 38.7816 241.6 34.1948 246.078C32.7192 247.519 31.2619 250.024 31.1554 254.723C30.2223 255.408 29.3931 256.036 28.6758 256.591C28.2562 256.524 27.6062 256.368 26.908 255.965C26.2854 255.607 25.8567 255.188 25.5918 254.883C26.3546 251.183 27.7719 248.728 28.8761 247.209V247.209Z" fill="url(#paint28_linear_6_29717)"/>
<path d="M54.2444 208.353C51.1713 210.459 46.8931 213.512 41.9758 217.436C34.8957 223.084 27.2813 229.159 19.6723 238.264C15.5434 243.204 10.1564 250.543 5.24093 260.513C4.89412 260.586 4.23963 260.674 3.46226 260.474C2.53106 260.233 1.93574 259.711 1.67813 259.455C0.78607 252.109 2.09504 246.952 3.37397 243.686C6.21947 236.418 9.49917 237.014 15.1438 226.419C16.673 223.548 18.4043 219.804 22.0864 213.327C23.4946 210.85 24.5669 209.067 26.3155 207.057C29.1055 203.849 32.0793 201.832 34.2139 200.613C40.8907 203.194 47.5676 205.774 54.2444 208.354V208.353Z" fill="url(#paint29_linear_6_29717)"/>
<path d="M75.5371 150.767C75.8311 149.801 75.1393 148.347 74.0015 147.926C73.1568 147.614 72.3657 147.982 71.7886 148.25C71.5219 148.373 69.6531 149.269 69.5576 150.84C69.5275 151.339 69.736 151.939 70.0618 152.364C70.2293 152.582 70.5042 152.835 71.0859 153.298C71.602 153.71 71.5729 153.699 71.7285 153.818C72.1027 154.101 72.799 154.558 73.9496 154.984C73.9223 154.704 73.9068 154.35 73.9378 153.951C73.9496 153.797 74.0024 153.193 74.2072 152.636C74.6214 151.507 75.3068 151.522 75.5362 150.767H75.5371Z" fill="url(#paint30_linear_6_29717)"/>
<path d="M72.5402 154.649C72.5402 154.649 73.9493 155.809 75.6942 155.071C77.2563 154.411 76.2431 150.742 74.9578 150.336C74.5291 150.2 73.81 150.332 73.3093 150.681C73.0135 150.887 72.9498 151.062 72.4601 151.389C72.0086 151.69 71.8493 151.684 71.7428 151.862C71.6099 152.085 71.6071 152.52 72.2853 153.46C71.8729 153.257 71.4651 153.266 71.2485 153.479C71.2139 153.513 71.1302 153.626 71.1074 153.76C71.0264 154.248 71.5826 154.641 72.5393 154.648L72.5402 154.649Z" fill="url(#paint31_linear_6_29717)"/>
<path d="M111.062 156.58L113.254 154.327C113.254 154.327 115.987 152.991 117.982 153.99C119.978 154.988 118.235 154.849 117.211 154.985C116.187 155.121 114.647 156.044 113.655 156.58C112.663 157.117 111.599 157.832 111.599 157.832L111.062 156.58Z" fill="url(#paint32_linear_6_29717)"/>
<path d="M110.866 155.319C111.575 156.206 112.284 157.094 112.994 157.981C111.052 164.606 107.936 168.248 105.414 170.357C97.3506 177.099 88.9816 173.505 78.2768 181.635C74.9734 184.144 72.8916 186.673 71.1585 188.778C63.3438 198.269 63.8335 204.413 57.103 208.275C53.3964 210.401 49.8299 210.5 47.496 210.564C40.8383 210.749 31.7738 208.165 30.3493 202.842C30.078 201.83 30.1572 200.991 30.2054 200.565C31.5099 189.056 45.1257 173.272 50.6201 167.096C54.4523 162.789 57.7557 159.308 62.8559 158.446C64.9923 158.085 66.7182 158.316 70.1708 158.779C76.449 159.619 78.407 161.027 83.9186 162.187C87.6371 162.969 91.7907 163.844 96.393 163.146C99.1083 162.734 104.839 161.344 110.868 155.318L110.866 155.319Z" fill="url(#paint33_linear_6_29717)"/>
<path style="mix-blend-mode:multiply" opacity="0.3" d="M44.5684 204.16C46.6538 199.758 44.2999 196.457 46.9624 193.181C50.1802 189.221 54.9691 192.384 59.7299 188.589C65.2579 184.182 62.9868 176.581 67.7093 174.815C70.6768 173.706 72.0185 176.541 76.487 175.814C81.3206 175.027 81.4161 171.439 86.2624 169.825C91.5283 168.072 93.9979 171.45 101.025 171.023C102.425 170.937 103.942 170.692 105.549 170.24C105.505 170.278 105.458 170.319 105.414 170.357C97.3513 177.099 88.9823 173.505 78.2775 181.635C74.9742 184.143 72.8924 186.673 71.1592 188.778C63.3445 198.269 63.8343 204.412 57.1037 208.274C53.3971 210.401 49.8307 210.499 47.4967 210.564C44.9034 210.636 41.9486 210.283 39.2188 209.516C42.1744 207.852 43.73 205.931 44.5693 204.158L44.5684 204.16Z" fill="url(#paint34_linear_6_29717)"/>
</g>
<defs>
<linearGradient id="paint0_linear_6_29717" x1="406.182" y1="181.062" x2="84.0106" y2="96.89" gradientUnits="userSpaceOnUse">
<stop offset="0.1" stop-color="#311944"/>
<stop offset="0.27" stop-color="#361A47"/>
<stop offset="0.48" stop-color="#46204F"/>
<stop offset="0.51" stop-color="#4A2252"/>
<stop offset="0.68" stop-color="#5C285C"/>
<stop offset="1" stop-color="#893976"/>
</linearGradient>
<linearGradient id="paint1_linear_6_29717" x1="390.605" y1="176.738" x2="68.4246" y2="92.5642" gradientUnits="userSpaceOnUse">
<stop offset="0.1" stop-color="#311944"/>
<stop offset="0.27" stop-color="#361B47"/>
<stop offset="0.48" stop-color="#462050"/>
<stop offset="0.72" stop-color="#602A5F"/>
<stop offset="0.97" stop-color="#843773"/>
<stop offset="1" stop-color="#893976"/>
</linearGradient>
<linearGradient id="paint2_linear_6_29717" x1="141.397" y1="46.2982" x2="23.4246" y2="163.772" gradientUnits="userSpaceOnUse">
<stop offset="0.163" stop-color="#6533E2"/>
<stop offset="0.334" stop-color="#7349DE"/>
<stop offset="0.715" stop-color="#1F97EF"/>
<stop offset="1" stop-color="#57A1D7"/>
</linearGradient>
<linearGradient id="paint3_linear_6_29717" x1="504.775" y1="155.774" x2="164.18" y2="82.672" gradientUnits="userSpaceOnUse">
<stop offset="0.1" stop-color="#311944"/>
<stop offset="0.27" stop-color="#361B47"/>
<stop offset="0.48" stop-color="#462050"/>
<stop offset="0.72" stop-color="#602A5F"/>
<stop offset="0.97" stop-color="#843773"/>
<stop offset="1" stop-color="#893976"/>
</linearGradient>
<linearGradient id="paint4_linear_6_29717" x1="504.858" y1="155.362" x2="164.271" y2="82.2625" gradientUnits="userSpaceOnUse">
<stop offset="0.1" stop-color="#311944"/>
<stop offset="0.27" stop-color="#361B47"/>
<stop offset="0.48" stop-color="#462050"/>
<stop offset="0.72" stop-color="#602A5F"/>
<stop offset="0.97" stop-color="#843773"/>
<stop offset="1" stop-color="#893976"/>
</linearGradient>
<linearGradient id="paint5_linear_6_29717" x1="287.68" y1="-1.83111" x2="80.8349" y2="203.454" gradientUnits="userSpaceOnUse">
<stop offset="0.163" stop-color="#6533E2"/>
<stop offset="0.334" stop-color="#7349DE"/>
<stop offset="0.715" stop-color="#1F97EF"/>
<stop offset="1" stop-color="#57A1D7"/>
</linearGradient>
<linearGradient id="paint6_linear_6_29717" x1="248.917" y1="126.485" x2="250.694" y2="151.088" gradientUnits="userSpaceOnUse">
<stop stop-color="#FFC444"/>
<stop offset="1" stop-color="#F36F56"/>
</linearGradient>
<linearGradient id="paint7_linear_6_29717" x1="162.027" y1="132.714" x2="163.842" y2="157.835" gradientUnits="userSpaceOnUse">
<stop stop-color="#FFC444"/>
<stop offset="1" stop-color="#F36F56"/>
</linearGradient>
<linearGradient id="paint8_linear_6_29717" x1="224.869" y1="248.518" x2="229.094" y2="264.622" gradientUnits="userSpaceOnUse">
<stop stop-color="#FFC444"/>
<stop offset="1" stop-color="#F36F56"/>
</linearGradient>
<linearGradient id="paint9_linear_6_29717" x1="217.938" y1="250.391" x2="222.132" y2="266.377" gradientUnits="userSpaceOnUse">
<stop stop-color="#FFC444"/>
<stop offset="1" stop-color="#F36F56"/>
</linearGradient>
<linearGradient id="paint10_linear_6_29717" x1="240.009" y1="241.434" x2="217.063" y2="211.753" gradientUnits="userSpaceOnUse">
<stop stop-color="#444B8C"/>
<stop offset="1" stop-color="#3E4177"/>
</linearGradient>
<linearGradient id="paint11_linear_6_29717" x1="240.009" y1="241.433" x2="217.063" y2="211.752" gradientUnits="userSpaceOnUse">
<stop stop-color="#444B8C"/>
<stop offset="1" stop-color="#3E4177"/>
</linearGradient>
<linearGradient id="paint12_linear_6_29717" x1="209.872" y1="223.35" x2="173.675" y2="214.037" gradientUnits="userSpaceOnUse">
<stop stop-color="#444B8C"/>
<stop offset="1" stop-color="#3E4177"/>
</linearGradient>
<linearGradient id="paint13_linear_6_29717" x1="200.014" y1="108.663" x2="217.178" y2="194.073" gradientUnits="userSpaceOnUse">
<stop stop-color="#FF9085"/>
<stop offset="1" stop-color="#FB6FBB"/>
</linearGradient>
<linearGradient id="paint14_linear_6_29717" x1="208.257" y1="141.724" x2="211.56" y2="154.175" gradientUnits="userSpaceOnUse">
<stop stop-color="#FFC444"/>
<stop offset="1" stop-color="#F36F56"/>
</linearGradient>
<linearGradient id="paint15_linear_6_29717" x1="249.96" y1="296.556" x2="253.263" y2="309.006" gradientUnits="userSpaceOnUse">
<stop stop-color="#FFC444"/>
<stop offset="1" stop-color="#F36F56"/>
</linearGradient>
<linearGradient id="paint16_linear_6_29717" x1="333.901" y1="376.273" x2="343.371" y2="394.12" gradientUnits="userSpaceOnUse">
<stop stop-color="#FFC444"/>
<stop offset="1" stop-color="#F36F56"/>
</linearGradient>
<linearGradient id="paint17_linear_6_29717" x1="183.629" y1="111.954" x2="200.792" y2="197.365" gradientUnits="userSpaceOnUse">
<stop stop-color="#FF9085"/>
<stop offset="1" stop-color="#FB6FBB"/>
</linearGradient>
<linearGradient id="paint18_linear_6_29717" x1="108.833" y1="186.947" x2="77.8101" y2="177.273" gradientUnits="userSpaceOnUse">
<stop stop-color="#FFC444"/>
<stop offset="1" stop-color="#F36F56"/>
</linearGradient>
<linearGradient id="paint19_linear_6_29717" x1="278.55" y1="330.874" x2="119.375" y2="200.951" gradientUnits="userSpaceOnUse">
<stop offset="0.1" stop-color="#311944"/>
<stop offset="0.27" stop-color="#361B47"/>
<stop offset="0.48" stop-color="#462050"/>
<stop offset="0.72" stop-color="#602A5F"/>
<stop offset="0.97" stop-color="#843773"/>
<stop offset="1" stop-color="#893976"/>
</linearGradient>
<linearGradient id="paint20_linear_6_29717" x1="281.012" y1="327.854" x2="121.84" y2="197.932" gradientUnits="userSpaceOnUse">
<stop offset="0.1" stop-color="#311944"/>
<stop offset="0.27" stop-color="#361B47"/>
<stop offset="0.48" stop-color="#462050"/>
<stop offset="0.72" stop-color="#602A5F"/>
<stop offset="0.97" stop-color="#843773"/>
<stop offset="1" stop-color="#893976"/>
</linearGradient>
<linearGradient id="paint21_linear_6_29717" x1="175.212" y1="132.519" x2="29.728" y2="278.755" gradientUnits="userSpaceOnUse">
<stop offset="0.163" stop-color="#6533E2"/>
<stop offset="0.334" stop-color="#7349DE"/>
<stop offset="0.715" stop-color="#1F97EF"/>
<stop offset="1" stop-color="#57A1D7"/>
</linearGradient>
<linearGradient id="paint22_linear_6_29717" x1="31.8077" y1="288.788" x2="26.2957" y2="258.589" gradientUnits="userSpaceOnUse">
<stop stop-color="#311944"/>
<stop offset="1" stop-color="#893976"/>
</linearGradient>
<linearGradient id="paint23_linear_6_29717" x1="26.3631" y1="265.348" x2="25.0269" y2="278.298" gradientUnits="userSpaceOnUse">
<stop stop-color="#FFC444"/>
<stop offset="1" stop-color="#F36F56"/>
</linearGradient>
<linearGradient id="paint24_linear_6_29717" x1="7.43384" y1="282.049" x2="3.83938" y2="262.355" gradientUnits="userSpaceOnUse">
<stop stop-color="#311944"/>
<stop offset="1" stop-color="#893976"/>
</linearGradient>
<linearGradient id="paint25_linear_6_29717" x1="3.10803" y1="263.356" x2="1.77556" y2="276.264" gradientUnits="userSpaceOnUse">
<stop stop-color="#FFC444"/>
<stop offset="1" stop-color="#F36F56"/>
</linearGradient>
<linearGradient id="paint26_linear_6_29717" x1="67.025" y1="166.74" x2="72.2173" y2="153.561" gradientUnits="userSpaceOnUse">
<stop stop-color="#FFC444"/>
<stop offset="1" stop-color="#F36F56"/>
</linearGradient>
<linearGradient id="paint27_linear_6_29717" x1="55.9238" y1="251.482" x2="0.823306" y2="184.844" gradientUnits="userSpaceOnUse">
<stop stop-color="#444B8C"/>
<stop offset="1" stop-color="#26264F"/>
</linearGradient>
<linearGradient id="paint28_linear_6_29717" x1="55.9247" y1="251.481" x2="0.824219" y2="184.843" gradientUnits="userSpaceOnUse">
<stop stop-color="#444B8C"/>
<stop offset="1" stop-color="#26264F"/>
</linearGradient>
<linearGradient id="paint29_linear_6_29717" x1="28.1033" y1="234.096" x2="1.34973" y2="197.982" gradientUnits="userSpaceOnUse">
<stop stop-color="#444B8C"/>
<stop offset="1" stop-color="#26264F"/>
</linearGradient>
<linearGradient id="paint30_linear_6_29717" x1="72.2231" y1="160.356" x2="72.6553" y2="148.53" gradientUnits="userSpaceOnUse">
<stop stop-color="#311944"/>
<stop offset="1" stop-color="#893976"/>
</linearGradient>
<linearGradient id="paint31_linear_6_29717" x1="81.3244" y1="154.631" x2="68.3662" y2="151.188" gradientUnits="userSpaceOnUse">
<stop stop-color="#FFC444"/>
<stop offset="1" stop-color="#F36F56"/>
</linearGradient>
<linearGradient id="paint32_linear_6_29717" x1="128.162" y1="145.373" x2="104.412" y2="163.324" gradientUnits="userSpaceOnUse">
<stop stop-color="#FFC444"/>
<stop offset="0.81" stop-color="#F57F53"/>
<stop offset="1" stop-color="#F36F56"/>
</linearGradient>
<linearGradient id="paint33_linear_6_29717" x1="73.8119" y1="169.596" x2="60.4971" y2="226.017" gradientUnits="userSpaceOnUse">
<stop stop-color="#FFC444"/>
<stop offset="1" stop-color="#F36F56"/>
</linearGradient>
<linearGradient id="paint34_linear_6_29717" x1="76.9868" y1="170.347" x2="63.671" y2="226.768" gradientUnits="userSpaceOnUse">
<stop stop-color="#FFC444"/>
<stop offset="1" stop-color="#F36F56"/>
</linearGradient>
<clipPath id="clip0_6_29717">
<rect width="265.244" height="263.822" fill="white" transform="translate(0.376953 0.84375)"/>
</clipPath>
</defs>
</svg>
