<svg width="291" height="200" viewBox="0 0 291 200" fill="none" xmlns="http://www.w3.org/2000/svg">
<g clip-path="url(#clip0_2_10279)">
<path d="M276.009 83.1221C275.641 82.7231 275.266 82.3302 274.879 81.9434C251.809 58.6768 215.05 71.6238 188.645 55.6073C178.439 49.4131 171.321 39.3452 162.89 30.8918C125.155 -6.93034 51.7113 -14.2418 18.3853 32.8747C2.5237 55.2942 -2.06961 84.2271 0.804278 111.533C4.37821 145.482 29.4326 175.974 62.7463 185.348C73.7751 188.448 95.1266 192.083 95.1266 192.083H260.203C260.203 192.083 266.706 184.145 267.959 182.205C278.871 165.329 287.781 149.576 289.795 129.582C291.429 113.369 287.278 95.3386 276.016 83.116L276.009 83.1221Z" fill="#EAE2FF"/>
<path d="M207.012 41.1758H174.294C169.713 41.1758 165.998 44.8899 165.998 49.4695V63.405C165.998 67.9846 169.713 71.6987 174.294 71.6987H193.582L202.781 80.8949V71.6987H207.012C211.593 71.6987 215.308 67.9846 215.308 63.405V49.4695C215.308 44.8899 211.593 41.1758 207.012 41.1758Z" fill="white"/>
<path d="M202.788 81.3301C202.677 81.3301 202.56 81.2871 202.481 81.2012L193.411 72.1339H174.301C169.486 72.1339 165.568 68.2173 165.568 63.4043V49.4689C165.568 44.6559 169.486 40.7393 174.301 40.7393H207.019C211.833 40.7393 215.751 44.6559 215.751 49.4689V63.4043C215.751 68.2173 211.833 72.1339 207.019 72.1339H203.224V80.8942C203.224 81.0722 203.119 81.2319 202.953 81.2932C202.898 81.3178 202.843 81.3239 202.788 81.3239V81.3301ZM174.301 41.611C169.965 41.611 166.44 45.1348 166.44 49.4689V63.4043C166.44 67.7384 169.965 71.2622 174.301 71.2622H193.589C193.705 71.2622 193.816 71.3052 193.896 71.3911L202.352 79.8444V71.698C202.352 71.4586 202.548 71.2622 202.788 71.2622H207.019C211.354 71.2622 214.879 67.7384 214.879 63.4043V49.4689C214.879 45.1348 211.354 41.611 207.019 41.611H174.301Z" fill="#231F20"/>
<path d="M206.22 49.3698H175.086C174.847 49.3698 174.65 49.1733 174.65 48.9339C174.65 48.6945 174.847 48.498 175.086 48.498H206.22C206.46 48.498 206.656 48.6945 206.656 48.9339C206.656 49.1733 206.46 49.3698 206.22 49.3698Z" fill="#231F20"/>
<path d="M206.22 56.2643H175.086C174.847 56.2643 174.65 56.0679 174.65 55.8284C174.65 55.589 174.847 55.3926 175.086 55.3926H206.22C206.46 55.3926 206.656 55.589 206.656 55.8284C206.656 56.0679 206.46 56.2643 206.22 56.2643Z" fill="#231F20"/>
<path d="M197.371 63.1588H175.086C174.847 63.1588 174.65 62.9624 174.65 62.723C174.65 62.4836 174.847 62.2871 175.086 62.2871H197.371C197.611 62.2871 197.807 62.4836 197.807 62.723C197.807 62.9624 197.611 63.1588 197.371 63.1588Z" fill="#231F20"/>
<path d="M39.1904 35.639H105.707C108.612 35.639 110.97 37.9963 110.97 40.9V82.5775C110.97 85.4812 108.612 87.8385 105.707 87.8385H39.1904C36.2858 87.8385 33.9277 85.4812 33.9277 82.5775V40.8939C33.9277 37.9902 36.2858 35.6328 39.1904 35.6328V35.639Z" fill="#E8DFFF"/>
<path d="M105.702 88.2676H39.1908C36.0529 88.2676 33.4922 85.7138 33.4922 82.5707V40.8932C33.4922 37.7562 36.0468 35.1963 39.1908 35.1963H105.708C108.846 35.1963 111.406 37.7501 111.406 40.8932V82.5707C111.406 85.7077 108.852 88.2676 105.708 88.2676H105.702ZM39.1908 36.0742C36.5319 36.0742 34.3642 38.2412 34.3642 40.8994V82.5768C34.3642 85.235 36.5319 87.402 39.1908 87.402H105.708C108.367 87.402 110.534 85.235 110.534 82.5768V40.8932C110.534 38.2351 108.367 36.068 105.708 36.068H39.1908V36.0742Z" fill="#231F20"/>
<path d="M68.9367 47.4649C67.5735 40.3253 56.5754 41.3382 56.5938 48.6252C56.5938 50.6694 57.7851 52.5725 59.4677 53.7205C59.5905 55.1079 59.9098 56.8637 59.7256 58.558C56.5631 60.4181 61.8994 64.7461 64.0364 67.3122C64.89 64.4269 67.1989 60.8478 67.6595 57.631C66.8734 56.2498 66.3699 54.9299 66.0813 53.831C68.1139 52.462 69.4034 49.9021 68.9367 47.471V47.4649Z" fill="#F8A99C"/>
<path d="M131.001 30.1839C126.045 34.739 120.967 39.1652 115.766 43.4379C115.41 44.6043 119.186 49.0919 120.107 50.0496C120.107 50.0496 127.298 46.182 128.06 45.8873C130.418 44.9788 134.925 43.9229 137.173 42.7012C137.338 42.6091 130.909 30.2637 131.007 30.1777L131.001 30.1839Z" fill="#F8A99C"/>
<path d="M152.016 12.2089C148.89 9.94362 145.089 8.67285 141.141 8.67285V27.1757L152.016 12.2089Z" fill="#6837E2"/>
<path d="M158.844 21.7919C158.808 21.6814 158.771 21.5709 158.734 21.4604C157.481 17.6051 155.08 14.4313 152.016 12.209L141.141 27.1758L158.74 32.8912C159.876 29.4104 159.993 25.5612 158.851 21.7919H158.844Z" fill="#57A1D7"/>
<path d="M141.139 27.1748L130.264 42.1416C133.389 44.4069 137.19 45.6776 141.139 45.6776C142.92 45.6776 144.731 45.4198 146.524 44.8734C148.551 44.2595 150.393 43.3203 152.014 42.1416C155.201 39.8272 157.535 36.5674 158.732 32.8902L141.133 27.1748H141.139Z" fill="#614B98"/>
<path d="M159.262 21.6622L159.151 21.3246C157.904 17.4877 155.528 14.2157 152.273 11.8583C149.056 9.52551 145.101 8.23633 141.146 8.23633C139.279 8.23633 137.425 8.51258 135.632 9.05895C133.611 9.67285 131.72 10.6121 130.007 11.8583C126.801 14.185 124.363 17.5491 123.129 21.3246C121.919 25.0264 121.883 28.9553 123.019 32.6878L123.129 33.0255C124.376 36.8623 126.752 40.1344 130.007 42.4917C133.225 44.8245 137.179 46.1137 141.134 46.1137C143.001 46.1137 144.855 45.8375 146.648 45.2911C148.669 44.6772 150.56 43.7379 152.273 42.4917C155.479 40.1651 157.917 36.8009 159.151 33.0255C160.361 29.3237 160.398 25.3947 159.262 21.6622ZM141.576 25.8367V9.10806C145.064 9.19401 148.521 10.3174 151.407 12.3065L141.576 25.8367ZM151.764 41.7919C150.13 42.9767 148.331 43.873 146.403 44.4623C144.696 44.9842 142.921 45.2481 141.146 45.2481C137.517 45.2481 133.888 44.1124 130.885 42.0436L141.318 27.6907L149.338 30.2936L158.199 33.1728C156.983 36.6106 154.717 39.6617 151.776 41.798L151.764 41.7919ZM158.457 32.344L150.357 29.7166L141.846 26.954L152.114 12.8283C155.037 15.0567 157.18 18.0832 158.322 21.6009L158.432 21.9262C159.47 25.3456 159.483 28.943 158.457 32.3502V32.344Z" fill="white"/>
<path d="M126.954 34.1796C126.844 33.5412 127.715 29.8087 126.813 28.9062C124.725 26.8067 123.718 30.5085 123.429 31.6504C122.877 33.8113 122.305 35.9661 121.065 37.8691C119.665 40.0116 117.405 41.4175 115.256 42.7066C115.901 43.9037 116.41 45.1622 117.11 46.3286L125.683 41.4604C128.029 38.483 127.458 37.0895 126.948 34.1796H126.954Z" fill="#F8A99C"/>
<path d="M127.526 34.9108C127.477 34.653 127.427 34.389 127.378 34.1066C127.354 33.9715 127.421 33.419 127.477 32.977C127.71 31.0126 127.839 29.3243 127.127 28.5999C126.494 27.9615 125.862 27.7221 125.248 27.8878C124.308 28.1457 123.577 29.3366 123.012 31.5405C122.509 33.505 121.944 35.7334 120.703 37.6304C119.316 39.7606 116.939 41.1848 115.035 42.3328C114.839 42.4556 114.765 42.7073 114.876 42.9099C115.14 43.401 115.385 43.9044 115.625 44.4016C115.969 45.1138 116.325 45.8504 116.743 46.5503C116.822 46.6853 116.97 46.759 117.117 46.759C117.191 46.759 117.271 46.7406 117.338 46.6976C117.547 46.5748 117.608 46.3047 117.486 46.1021C117.086 45.4391 116.743 44.7209 116.405 44.0272C116.221 43.6404 116.03 43.2536 115.834 42.8669C117.75 41.7066 120.022 40.2701 121.434 38.1031C122.754 36.0833 123.338 33.7812 123.854 31.7492C124.474 29.3305 125.131 28.8148 125.475 28.7227C125.763 28.6429 126.113 28.8087 126.506 29.2077C126.985 29.6927 126.734 31.8352 126.611 32.8665C126.525 33.6032 126.482 34.0022 126.525 34.2478C126.574 34.5302 126.623 34.8003 126.672 35.0581C127.114 37.4523 127.342 38.6494 125.346 41.1848C125.198 41.3751 125.229 41.6452 125.419 41.7926C125.61 41.9399 125.88 41.9092 126.027 41.7189C128.263 38.8766 127.974 37.2927 127.526 34.8985V34.9108Z" fill="#231F20"/>
<path d="M118.824 38.222C113.427 41.4449 109.196 44.5512 103.62 47.4672C98.3572 50.2175 93.1007 52.7467 87.488 54.7112C83.693 56.0434 79.5971 56.7432 76.2566 57.4001C74.7828 57.6886 73.1309 57.5965 71.6325 57.6641C70.5272 57.7132 68.642 58.1736 67.6902 57.4369C66.3699 60.3099 65.0496 63.183 63.7294 66.0499C62.0038 63.6987 60.5546 61.1448 59.4308 58.456C58.3071 59.0576 57.1649 59.4259 56.0165 59.96C51.8408 61.4272 48.4818 65.0001 47.8493 69.457C47.6344 70.9549 47.6344 72.459 47.7265 73.9691C47.8186 75.5284 47.9967 77.0877 48.1257 78.647C48.3774 81.7104 47.1738 87.8309 47.1738 87.8309H84.3747C84.3747 87.8309 84.6694 85.3508 84.8414 84.2212C85.8423 77.7507 87.7889 73.521 92.8735 69.1439C98.4985 64.3064 120.096 51.3716 125.303 48.781C125.966 48.4495 119.574 38.9464 118.824 38.2158V38.222Z" fill="#80C9FF"/>
<path d="M65.4006 37.4053C62.5451 37.4912 60.1871 38.8541 57.7185 41.1132C52.0014 46.3313 55.2929 49.7998 56.2693 50.1866C56.8035 50.4014 60.7766 46.5523 60.4081 45.0299C62.0354 45.8156 69.65 45.8893 70.1843 43.2557C70.9887 40.3029 69.0052 37.2948 65.4006 37.3991V37.4053Z" fill="#231F20"/>
<path d="M119.132 37.9053C118.991 37.7703 118.776 37.7457 118.604 37.8439C116.577 39.0533 114.698 40.2565 112.887 41.4229C109.804 43.3997 106.893 45.2659 103.424 47.0769C98.8794 49.4527 93.4142 52.1723 87.3532 54.2963C84.0617 55.4505 80.5554 56.1258 77.4604 56.7212L76.1831 56.9668C75.1945 57.1632 74.0891 57.1755 73.0206 57.1878C72.5478 57.1878 72.0811 57.2001 71.6267 57.2185C71.3688 57.2308 71.0617 57.2615 70.7424 57.2983C69.7722 57.4088 68.5624 57.5439 67.9668 57.0834C67.8624 57.0036 67.7273 56.9729 67.5983 57.0036C67.4694 57.0343 67.365 57.1264 67.3097 57.243L63.6621 65.1807C62.1453 63.0259 60.8619 60.7116 59.8487 58.2805C59.7995 58.17 59.7074 58.0779 59.5907 58.0411C59.4741 57.9981 59.3451 58.0104 59.2407 58.0657C58.5837 58.4156 57.9266 58.6857 57.2327 58.9681C56.7721 59.1584 56.3116 59.3426 55.8817 59.5452C51.3744 61.129 48.0584 64.9966 47.4259 69.3921C47.2355 70.7303 47.1925 72.1914 47.2969 73.9901C47.3522 74.9846 47.4504 75.9792 47.5425 76.9737C47.5978 77.5446 47.6531 78.1094 47.6961 78.6803C47.9417 81.6454 46.7627 87.68 46.7504 87.7414C46.7258 87.8703 46.7565 87.9992 46.8425 88.1036C46.9223 88.2018 47.0513 88.2632 47.1802 88.2632H84.3811C84.6021 88.2632 84.7864 88.0975 84.8109 87.8765C84.8109 87.8519 85.1057 85.3902 85.2776 84.2852C86.3216 77.5385 88.4585 73.5236 93.1685 69.4719C98.7566 64.6651 120.323 51.7487 125.506 49.1703C125.635 49.1089 125.764 48.9125 125.788 48.7713C125.997 47.4575 119.598 38.3535 119.138 37.9053H119.132ZM48.5619 78.6128C48.5128 78.0419 48.4575 77.4709 48.4084 76.9C48.3163 75.9178 48.2242 74.9294 48.1628 73.9472C48.0645 72.2098 48.1013 70.804 48.2856 69.521C48.8689 65.4447 51.9639 61.8534 56.2072 60.3555C56.6616 60.1468 57.1099 59.9626 57.5581 59.7784C58.1047 59.5574 58.6635 59.3242 59.2223 59.054C60.3338 61.6201 63.4533 66.3594 63.484 66.384C63.9323 72.3142 65.0376 80.4606 66.3272 87.3915H54.672C53.4991 81.5165 53.0754 75.5187 53.4193 69.5639C53.4315 69.3245 53.2473 69.1158 53.0078 69.1035C52.7683 69.079 52.5596 69.2754 52.5473 69.5148C52.1972 75.4819 52.6148 81.4981 53.7816 87.3915H47.6899C47.9785 85.8322 48.7646 81.2034 48.5496 78.6066L48.5619 78.6128ZM92.5974 68.815C87.7155 73.0202 85.4925 77.1763 84.4179 84.1563C84.2828 85.028 84.0863 86.6548 83.9942 87.3976H67.2114C65.885 80.3317 64.7551 71.9643 64.3253 65.9972C64.3253 65.9542 67.8992 58.0473 67.8992 58.0473C68.7589 58.4033 69.895 58.2805 70.8345 58.17C71.1354 58.1332 71.4179 58.1025 71.6635 58.0902C72.1056 58.0718 72.5662 58.0657 73.0268 58.0595C74.1321 58.0472 75.2804 58.0288 76.3489 57.8201L77.6262 57.5746C80.7519 56.9729 84.289 56.2915 87.6418 55.1128C93.758 52.9703 99.254 50.2385 103.829 47.8443C107.329 46.0149 110.258 44.1364 113.359 42.1473C115.073 41.0485 116.847 39.9128 118.745 38.7709C119.979 40.2995 124.431 47.0892 124.886 48.5012C119.304 51.3374 98.1487 64.0327 92.5974 68.8089V68.815Z" fill="#231F20"/>
<path d="M82.226 61.2838C82.2751 61.0505 82.1278 60.8172 81.8944 60.7681C81.6611 60.7129 81.4277 60.8663 81.3786 61.0996C79.9416 67.6745 80.6048 74.6974 83.2577 80.8855C83.3252 81.0513 83.491 81.1495 83.6568 81.1495C83.7121 81.1495 83.7735 81.1372 83.8287 81.1126C84.0498 81.0206 84.1542 80.7627 84.056 80.5417C81.4768 74.5255 80.8259 67.6867 82.226 61.2838Z" fill="#231F20"/>
<path d="M77.0975 66.1577C77.1159 66.0226 77.073 65.8814 76.9747 65.7832C76.8765 65.685 76.7352 65.642 76.6063 65.6604L70.1646 66.5813C69.9251 66.6181 69.7593 66.833 69.7961 67.0724C69.833 67.3118 70.0479 67.4714 70.2874 67.4407L76.2071 66.5935C76.2317 67.0601 76.3668 67.5144 76.6124 67.9196C76.6922 68.0546 76.8396 68.1283 76.987 68.1283C77.0607 68.1283 77.1405 68.1099 77.2081 68.0669C77.4107 67.9441 77.4783 67.674 77.3554 67.4714C77.1221 67.0847 77.03 66.6058 77.0975 66.1577Z" fill="#231F20"/>
<path d="M36.5069 42.208C45.0855 42.208 52.043 46.2167 52.043 51.1586C52.043 54.4675 48.9112 57.3528 44.275 58.8998V64.4986L39.6939 59.9189C38.6623 60.0417 37.5999 60.1092 36.5069 60.1092C27.9282 60.1092 20.9707 56.1005 20.9707 51.1586C20.9707 46.2167 27.9282 42.208 36.5069 42.208Z" fill="white"/>
<path d="M44.2754 64.9289C44.1649 64.9289 44.0482 64.8859 43.9684 64.8L39.5347 60.3677C38.5276 60.4782 37.5144 60.5396 36.5073 60.5396C27.7014 60.5396 20.5352 56.3282 20.5352 51.1531C20.5352 45.9779 27.7014 41.7666 36.5073 41.7666C45.3132 41.7666 52.4795 45.9779 52.4795 51.1531C52.4795 54.4558 49.5135 57.5192 44.7114 59.2074V64.493C44.7114 64.6711 44.607 64.8307 44.4412 64.8921C44.3859 64.9166 44.3307 64.9228 44.2754 64.9228V64.9289ZM39.6944 59.4775C39.8111 59.4775 39.9216 59.5205 40.0014 59.6064L43.8394 63.4433V58.8943C43.8394 58.7101 43.9561 58.5382 44.1342 58.483C48.7459 56.9483 51.6075 54.1366 51.6075 51.1531C51.6075 46.4568 44.8342 42.6383 36.5012 42.6383C28.1681 42.6383 21.3949 46.4568 21.3949 51.1531C21.3949 55.8494 28.1681 59.6678 36.5012 59.6678C37.5451 59.6678 38.6013 59.6064 39.6391 59.4836C39.6575 59.4836 39.676 59.4836 39.6882 59.4836L39.6944 59.4775Z" fill="#231F20"/>
<path d="M44.7847 48.3535H29.0766C28.8371 48.3535 28.6406 48.55 28.6406 48.7894C28.6406 49.0288 28.8371 49.2253 29.0766 49.2253H44.7847C45.0242 49.2253 45.2207 49.0288 45.2207 48.7894C45.2207 48.55 45.0242 48.3535 44.7847 48.3535Z" fill="#231F20"/>
<path d="M36.3412 52.2393H29.0766C28.8371 52.2393 28.6406 52.4357 28.6406 52.6751C28.6406 52.9145 28.8371 53.111 29.0766 53.111H36.3412C36.5807 53.111 36.7772 52.9145 36.7772 52.6751C36.7772 52.4357 36.5807 52.2393 36.3412 52.2393Z" fill="#231F20"/>
<path d="M77.3065 162.035C77.3065 161.721 77.0547 161.47 76.7415 161.47C76.4284 161.47 76.1766 161.721 76.1766 162.035C76.1766 170.807 69.0349 177.947 60.2597 177.947C51.4845 177.947 44.3428 170.807 44.3428 162.035C44.3428 161.721 44.091 161.47 43.7778 161.47C43.4647 161.47 43.2129 161.721 43.2129 162.035C43.2129 171.243 50.5573 178.751 59.6947 179.052V192.085C59.6947 192.398 59.9465 192.65 60.2597 192.65C60.5729 192.65 60.8246 192.398 60.8246 192.085V179.052C69.9621 178.751 77.3065 171.243 77.3065 162.035Z" fill="#231F20"/>
<path d="M69.9497 155.992H50.5571C50.244 155.992 49.9922 156.244 49.9922 156.557V163.347C49.9922 168.025 53.7995 171.825 58.4726 171.825H62.0342C66.7135 171.825 70.5147 168.018 70.5147 163.347V156.557C70.5147 156.244 70.2629 155.992 69.9497 155.992Z" fill="#231F20"/>
<path d="M69.9492 143.303C69.9492 138.932 66.406 135.39 62.0338 135.39H58.4721C54.0999 135.39 50.5566 138.932 50.5566 143.303V156.557H69.9492V143.303Z" fill="#00B4FF"/>
<path d="M69.9497 157.123H50.5571C50.244 157.123 49.9922 156.871 49.9922 156.558V143.304C49.9922 138.626 53.7995 134.826 58.4726 134.826H62.0342C66.7135 134.826 70.5147 138.632 70.5147 143.304V156.558C70.5147 156.871 70.2629 157.123 69.9497 157.123ZM51.1221 155.993H69.3848V143.31C69.3848 139.259 66.0872 135.962 62.0342 135.962H58.4726C54.4197 135.962 51.1221 139.259 51.1221 143.31V155.993Z" fill="#231F20"/>
<path d="M238.067 101.319C237.65 101.226 237.244 101.104 236.851 100.926C233.443 99.3725 232.786 94.9095 230.704 91.7909C228.469 88.4452 224.404 86.6526 220.394 86.3456C213.369 85.8116 205.92 87.5673 202.272 94.1237C199.865 98.4517 199.313 103.541 199.03 108.483C198.336 120.816 199.049 133.235 201.173 145.402C202.058 148.945 225.675 151.56 225.675 151.56H279.843C279.843 151.56 267.088 147.453 266.861 138.447C266.726 133.223 268.513 124.776 263.392 121.172C259.726 118.594 255.691 122.252 252.209 120.061C246.566 116.5 250.993 105.333 245.037 102.319C242.931 101.251 240.345 101.822 238.061 101.325L238.067 101.319Z" fill="#231F20"/>
<path d="M221.42 120.533C221.229 118.826 220.947 116.267 220.713 114.142C225.466 110.975 228.567 104.86 226.566 98.7644C224.969 93.9084 220.185 90.2742 215.076 90.047C208.776 89.7646 204.508 95.0134 203.36 101.33C202.647 105.247 203.188 109.851 205.484 112.424C206.737 113.823 208.106 114.799 209.525 115.438C210.127 118.44 210.599 122.639 208.954 124.174C208.241 124.837 207.333 125.242 206.608 125.886C204.772 127.507 205.521 146.262 209.101 146.427C217.336 146.808 224.772 132.025 226.215 126.027C223.053 125.26 221.776 123.824 221.413 120.533H221.42Z" fill="#F8A99C"/>
<path d="M150.032 121.355C149.068 119.642 148.177 118.101 146.82 116.671C145.168 114.927 139.979 110.82 140.452 108.064C140.587 107.26 155.497 99.242 157.241 99.6963C161.767 100.869 160.686 109.126 160.723 112.607C160.784 118.064 162.927 122.503 165.071 127.42C165.114 127.512 156.596 132.11 155.448 131.355C154.269 130.575 150.056 121.398 150.032 121.361V121.355Z" fill="#F8A99C"/>
<path d="M159.373 179.809C159.834 179.526 160.319 179.305 160.841 179.195C163.776 178.581 169.72 182.866 172.914 183.461C174.142 183.695 187.166 182.645 187.166 182.645L187.252 192.087H145.9C145.9 192.087 149.315 187.722 151.882 185.794C154.289 183.989 158.802 180.159 159.373 179.809Z" fill="#F8A99C"/>
<path d="M169.229 190.705C166.766 190.349 163.107 187.568 161.559 185.727C161.461 185.61 161.32 185.536 161.166 185.524C161.019 185.518 160.865 185.561 160.749 185.665C159.158 187.065 157.383 188.225 155.474 189.121C155.191 189.257 155.068 189.588 155.203 189.87C155.339 190.153 155.67 190.276 155.953 190.141C157.795 189.281 159.514 188.182 161.068 186.875C162.861 188.802 166.429 191.442 169.063 191.823C169.088 191.823 169.118 191.823 169.143 191.823C169.419 191.823 169.659 191.62 169.702 191.338C169.745 191.031 169.53 190.742 169.223 190.699L169.229 190.705Z" fill="#231F20"/>
<path d="M248.371 168.066C247.499 163.923 246.228 157.164 245.098 151.411C245.141 150.797 245.19 150.184 245.215 149.563C245.454 143.682 244.693 136.015 241.18 131.067C240.259 129.765 239.117 128.648 237.84 127.696C236.403 126.634 234.29 125.382 232.614 124.762C229.292 123.522 226.184 122.638 222.703 122.178C221.837 122.061 218.251 129.649 217.385 131.368C215.432 135.272 212.521 142.958 210.925 143.204C210.034 143.339 209.316 142.7 209.027 141.902C206.878 135.996 209.23 129.747 208.855 123.688C203.857 123.823 199.097 127.868 195.456 130.919C190.071 135.432 185.532 140.852 179.717 144.843C179.011 145.328 178.305 145.813 177.611 146.316L166.932 120.98L149.32 127.623C149.32 127.623 153.821 139.121 154.632 141.098C157.42 147.9 159.932 156.261 164.322 162.179C166.269 164.807 169.044 166.274 172.256 166.894C173.847 167.201 175.99 166.967 177.285 166.679V166.66C180.03 166.145 182.18 164.96 184.839 163.652C190.273 160.988 194.983 158.569 199.527 154.493C200.436 161 201.498 167.532 203.021 173.929C192.152 174.629 178.925 174.494 178.925 174.494V192.088H256.796C256.796 192.088 251.337 182.167 248.371 168.066Z" fill="#614B98"/>
<path d="M215.351 98.6047C217.027 98.8687 218.599 98.8932 220.276 98.752C219.299 98.8318 219.434 104.707 219.477 105.339C219.655 107.942 220.859 111.92 222.124 114.204C222.204 114.351 232.68 109.821 230.156 97.6654C229.395 94.0005 226.644 91.1336 223.942 88.5429C219.361 84.1536 205.329 81.7287 204.107 90.532C203.739 93.1717 206.207 95.3142 208.602 96.4868C210.727 97.5242 213.011 98.2364 215.345 98.6108L215.351 98.6047Z" fill="#231F20"/>
<path d="M157.235 73.4951H104.67C100.837 73.4951 97.7305 76.6009 97.7305 80.4321V103.042C97.7305 106.873 100.837 109.979 104.67 109.979H157.235C161.067 109.979 164.174 106.873 164.174 103.042V80.4321C164.174 76.6009 161.067 73.4951 157.235 73.4951Z" fill="#E8DFFF"/>
<path d="M157.235 110.551H104.664C100.525 110.551 97.1602 107.187 97.1602 103.049V80.4335C97.1602 76.2958 100.525 72.9316 104.664 72.9316H157.235C161.374 72.9316 164.739 76.2958 164.739 80.4335V103.049C164.739 107.187 161.374 110.551 157.235 110.551ZM104.664 74.0673C101.152 74.0673 98.2901 76.922 98.2901 80.4396V103.056C98.2901 106.567 101.152 109.428 104.664 109.428H157.235C160.748 109.428 163.61 106.573 163.61 103.056V80.4396C163.61 76.9281 160.748 74.0673 157.235 74.0673H104.664Z" fill="#231F20"/>
<path d="M151.443 92.6191C151.934 87.455 148.146 82.8701 142.98 82.3783C137.815 81.8865 133.228 85.6741 132.736 90.8382C132.244 96.0022 136.033 100.587 141.199 101.079C146.364 101.571 150.951 97.7831 151.443 92.6191Z" fill="#57A1D7"/>
<path d="M142.093 101.7C136.597 101.7 132.127 97.2304 132.127 91.736C132.127 86.2416 136.597 81.7725 142.093 81.7725C147.589 81.7725 152.06 86.2416 152.06 91.736C152.06 97.2304 147.589 101.7 142.093 101.7ZM142.093 82.9082C137.224 82.9082 133.263 86.8678 133.263 91.736C133.263 96.6042 137.224 100.564 142.093 100.564C146.963 100.564 150.924 96.6042 150.924 91.736C150.924 86.8678 146.963 82.9082 142.093 82.9082Z" fill="#231F20"/>
<path d="M145.612 91.1719H142.658V88.2191C142.658 87.906 142.407 87.6543 142.093 87.6543C141.78 87.6543 141.528 87.906 141.528 88.2191V91.1719H138.575C138.262 91.1719 138.01 91.4236 138.01 91.7367C138.01 92.0498 138.262 92.3015 138.575 92.3015H141.528V95.2543C141.528 95.5674 141.78 95.8191 142.093 95.8191C142.407 95.8191 142.658 95.5674 142.658 95.2543V92.3015H145.612C145.925 92.3015 146.177 92.0498 146.177 91.7367C146.177 91.4236 145.925 91.1719 145.612 91.1719Z" fill="#231F20"/>
<path d="M121.662 91.4637C123.161 90.6963 124.192 89.1616 124.192 87.3629C124.192 84.8091 122.123 82.7402 119.568 82.7402C117.014 82.7402 114.944 84.8091 114.944 87.3629C114.944 89.1555 115.976 90.6963 117.474 91.4637C113.44 92.3047 110.406 95.8776 110.406 100.163V100.347H128.724V100.163C128.724 95.8776 125.691 92.3047 121.656 91.4637H121.662Z" fill="#231F20"/>
<path d="M160.895 107.868C161.19 104.793 159.581 92.1833 156.074 96.1429C155.423 96.8796 155.233 97.9109 155.067 98.8809C154.146 104.345 153.231 109.974 154.472 115.37L162.835 122.264C159.667 114.664 160.993 109.563 160.895 107.868Z" fill="#F8A99C"/>
<path d="M163.358 122.043C160.871 116.076 161.215 111.681 161.393 109.317C161.442 108.722 161.479 108.249 161.461 107.875C161.663 105.523 160.816 96.1615 158.034 94.946C157.488 94.7066 156.628 94.6575 155.652 95.7625C154.872 96.6465 154.669 97.8313 154.509 98.7828C153.631 103.995 152.636 109.907 153.92 115.493C153.987 115.8 154.294 115.984 154.595 115.917C154.902 115.849 155.093 115.542 155.019 115.241C153.785 109.876 154.761 104.081 155.621 98.9732C155.793 97.9418 155.971 97.1069 156.493 96.5176C157.131 95.7993 157.463 95.9405 157.574 95.9896C159.41 96.7877 160.576 105.186 160.325 107.813C160.325 107.844 160.325 107.875 160.325 107.899C160.343 108.2 160.306 108.654 160.263 109.231C160.073 111.693 159.717 116.267 162.308 122.479C162.4 122.694 162.609 122.829 162.83 122.829C162.904 122.829 162.977 122.817 163.045 122.786C163.334 122.663 163.469 122.338 163.352 122.05L163.358 122.043Z" fill="#231F20"/>
<path d="M206.054 99.076L207.761 99.6899C207.823 99.7144 207.89 99.7267 207.952 99.7267C208.185 99.7267 208.4 99.5855 208.486 99.3522C208.59 99.0575 208.437 98.7322 208.148 98.6278L206.441 98.0139C206.146 97.9096 205.821 98.0569 205.716 98.3516C205.612 98.6462 205.766 98.9716 206.054 99.076Z" fill="#231F20"/>
<path d="M214.879 100.881L213.171 100.261C212.877 100.157 212.551 100.304 212.447 100.599C212.342 100.893 212.496 101.219 212.785 101.323L214.492 101.943C214.553 101.968 214.621 101.98 214.682 101.98C214.915 101.98 215.13 101.839 215.216 101.605C215.321 101.311 215.173 100.985 214.879 100.881Z" fill="#231F20"/>
<path d="M212.625 102.103C212.226 102.103 211.906 102.422 211.906 102.821C211.906 103.22 212.226 103.539 212.625 103.539C213.024 103.539 213.343 103.22 213.343 102.821C213.343 102.422 213.024 102.103 212.625 102.103Z" fill="#231F20"/>
<path d="M206.853 100.624C206.853 100.224 206.534 99.9053 206.134 99.9053C205.735 99.9053 205.416 100.224 205.416 100.624C205.416 101.023 205.735 101.342 206.134 101.342C206.534 101.342 206.853 101.023 206.853 100.624Z" fill="#231F20"/>
<path d="M209.463 102.337C209.611 102.061 209.506 101.717 209.23 101.57C208.954 101.422 208.61 101.527 208.463 101.803C208.045 102.589 207.382 103.326 206.491 104.001L206.393 104.074C205.607 104.725 206.798 106.806 206.811 106.831C206.915 107.003 207.099 107.095 207.29 107.095C207.394 107.095 207.498 107.064 207.591 107.009C207.855 106.843 207.934 106.493 207.769 106.229C207.609 105.978 207.308 105.192 207.259 104.842C208.235 104.087 208.978 103.246 209.463 102.337Z" fill="#231F20"/>
<path d="M211.888 108.463C211.888 108.463 211.833 108.488 211.808 108.512C211.772 108.543 211.747 108.586 211.722 108.623C211.471 109.053 211.293 109.568 210.807 109.752C210.408 109.906 209.923 109.593 209.561 109.955C209.199 110.323 209.383 110.962 209.837 111.152C210.157 111.287 210.531 111.22 210.85 111.091C211.698 110.753 212.367 109.906 212.336 108.991C212.336 108.838 212.306 108.678 212.201 108.561C212.122 108.469 211.986 108.426 211.876 108.457L211.888 108.463Z" fill="#231F20"/>
<path d="M160.508 128.964C156.91 130.333 153.299 131.794 149.768 133.298C149.48 133.42 149.344 133.752 149.467 134.04C149.559 134.255 149.768 134.384 149.989 134.384C150.063 134.384 150.137 134.372 150.21 134.341C153.729 132.843 157.327 131.395 160.908 130.026C161.202 129.915 161.344 129.59 161.233 129.295C161.122 129 160.797 128.853 160.502 128.97L160.508 128.964Z" fill="#231F20"/>
<path d="M178.735 156.337C178.649 156.638 178.815 156.951 179.116 157.037C179.171 157.055 179.226 157.061 179.275 157.061C179.521 157.061 179.742 156.902 179.816 156.656C180.504 154.342 180.479 152.242 179.736 150.014C179.736 149.94 167.454 120.756 167.454 120.756C167.338 120.473 167.018 120.338 166.736 120.449L149.124 127.091C148.829 127.202 148.682 127.527 148.793 127.822C148.903 128.116 149.229 128.264 149.523 128.153L166.625 121.707L178.207 149.173C179.325 151.671 179.484 153.814 178.735 156.337Z" fill="#231F20"/>
<path d="M199.614 155.753C199.614 155.753 199.675 155.753 199.706 155.747C200.013 155.698 200.228 155.41 200.179 155.103C199.663 151.855 199.442 148.786 199.497 145.716C199.497 145.403 199.258 145.145 198.945 145.139C198.619 145.096 198.374 145.379 198.367 145.692C198.312 148.829 198.539 151.959 199.061 155.275C199.104 155.551 199.344 155.753 199.62 155.753H199.614Z" fill="#231F20"/>
<path d="M241.647 130.744C240.725 129.442 239.559 128.27 238.183 127.244C236.814 126.231 234.621 124.905 232.822 124.23C229.107 122.849 226.012 122.039 222.788 121.615C222.051 121.529 221.333 122.051 217.317 130.252L216.893 131.112C216.365 132.168 215.775 133.475 215.155 134.863C213.958 137.521 211.735 142.475 210.857 142.641C210.249 142.733 209.77 142.242 209.579 141.708C208.284 138.153 208.677 134.513 209.082 130.664C209.328 128.362 209.579 125.986 209.438 123.653C209.42 123.34 209.18 123.107 208.836 123.125C208.523 123.144 208.29 123.414 208.308 123.727C208.449 125.967 208.198 128.294 207.958 130.547C207.553 134.359 207.129 138.301 208.517 142.101C208.941 143.261 209.954 143.936 211.035 143.764C212.404 143.556 213.896 140.437 216.193 135.335C216.813 133.96 217.397 132.659 217.912 131.628L218.342 130.756C220.706 125.924 222.205 123.236 222.782 122.757C225.877 123.174 228.861 123.96 232.435 125.292C234.136 125.924 236.212 127.189 237.52 128.153C238.803 129.104 239.884 130.191 240.738 131.394C244.717 137.005 244.809 145.956 244.668 149.541C244.342 157.577 242.666 165.92 239.675 174.342C239.46 174.944 239.227 175.65 238.969 176.424C237.385 181.206 234.738 189.217 230.28 191.108C229.819 191.304 228.769 191.476 228.481 191.519H179.514V175.061C180.65 175.067 182.781 175.079 185.471 175.061L186.171 186.289C186.189 186.59 186.441 186.817 186.736 186.817C186.748 186.817 186.76 186.817 186.772 186.817C187.086 186.798 187.319 186.528 187.301 186.215L186.601 175.048C196.1 174.956 211.268 174.49 216.052 172.513C216.07 172.525 216.076 172.544 216.095 172.556C218.6 174.214 220.7 177.025 221.572 179.892C221.646 180.138 221.873 180.291 222.113 180.291C222.168 180.291 222.223 180.285 222.278 180.267C222.579 180.174 222.745 179.861 222.653 179.561C221.738 176.565 219.681 173.741 217.12 171.899C217.231 171.807 217.329 171.709 217.397 171.611C218.336 170.229 218.84 168.59 219.245 167.166C220.86 161.426 221.787 155.502 222.002 149.547C222.033 148.657 222.076 147.546 222.69 146.932C222.911 146.711 222.911 146.355 222.69 146.134C222.469 145.913 222.113 145.913 221.892 146.134C220.958 147.061 220.909 148.479 220.872 149.51C220.663 155.373 219.748 161.211 218.158 166.865C217.765 168.265 217.311 169.738 216.463 170.978C215.106 172.98 199.576 173.79 186.539 173.925L186.465 172.722C186.447 172.409 186.183 172.169 185.864 172.194C185.55 172.212 185.317 172.482 185.336 172.795L185.409 173.937C183.137 173.956 180.957 173.95 178.968 173.931C178.826 173.956 178.673 173.993 178.562 174.097C178.452 174.201 178.396 174.349 178.396 174.496V192.09C178.396 192.403 178.648 192.655 178.961 192.655H228.573C228.72 192.63 230.053 192.446 230.74 192.158C235.672 190.064 238.312 182.071 240.062 176.786C240.314 176.018 240.547 175.319 240.756 174.729C243.783 166.202 245.491 157.743 245.816 149.596C245.963 145.895 245.859 136.643 241.677 130.75L241.647 130.744Z" fill="#231F20"/>
<path d="M160.293 189.075H145.622L132.027 162.468C131.597 161.627 130.743 161.105 129.804 161.105H86.6218C86.1366 161.105 85.7006 161.351 85.4489 161.762C85.1971 162.174 85.1787 162.677 85.3998 163.107L99.0261 189.774V192.083C99.0261 192.396 99.2779 192.647 99.5911 192.647H160.293C160.606 192.647 160.858 192.396 160.858 192.083V189.639C160.858 189.326 160.606 189.075 160.293 189.075Z" fill="#614B98"/>
<path d="M47.2524 122.049C47.0129 122.049 46.8164 122.245 46.8164 122.485V124.811C46.8164 125.051 47.0129 125.247 47.2524 125.247C47.4919 125.247 47.6884 125.051 47.6884 124.811V122.485C47.6884 122.245 47.4919 122.049 47.2524 122.049Z" fill="#231F20"/>
<path d="M53.1665 120.746C52.927 120.746 52.7305 120.943 52.7305 121.182V124.81C52.7305 125.05 52.927 125.246 53.1665 125.246C53.406 125.246 53.6025 125.05 53.6025 124.81V121.182C53.6025 120.943 53.406 120.746 53.1665 120.746Z" fill="#231F20"/>
<path d="M59.0727 118.415C58.8332 118.415 58.6367 118.611 58.6367 118.851V124.812C58.6367 125.051 58.8332 125.248 59.0727 125.248C59.3122 125.248 59.5087 125.051 59.5087 124.812V118.851C59.5087 118.611 59.3122 118.415 59.0727 118.415Z" fill="#231F20"/>
<path d="M64.9868 116.59C64.7473 116.59 64.5508 116.786 64.5508 117.026V124.81C64.5508 125.049 64.7473 125.246 64.9868 125.246C65.2263 125.246 65.4228 125.049 65.4228 124.81V117.026C65.4228 116.786 65.2263 116.59 64.9868 116.59Z" fill="#231F20"/>
<path d="M70.895 114.51C70.6555 114.51 70.459 114.706 70.459 114.946V124.811C70.459 125.05 70.6555 125.247 70.895 125.247C71.1345 125.247 71.331 125.05 71.331 124.811V114.946C71.331 114.706 71.1345 114.51 70.895 114.51Z" fill="#231F20"/>
<path d="M269.832 192.955H13.9208C13.4418 192.955 13.0488 192.569 13.0488 192.084C13.0488 191.599 13.4357 191.212 13.9208 191.212H269.832C270.311 191.212 270.704 191.599 270.704 192.084C270.704 192.569 270.317 192.955 269.832 192.955Z" fill="#231F20"/>
<path d="M30.1983 198.248C33.5999 198.248 36.3575 195.492 36.3575 192.091C36.3575 188.69 33.5999 185.934 30.1983 185.934C26.7966 185.934 24.0391 188.69 24.0391 192.091C24.0391 195.492 26.7966 198.248 30.1983 198.248Z" fill="#00B4FF"/>
<path d="M30.1992 199.114C26.3243 199.114 23.168 195.958 23.168 192.085C23.168 188.211 26.3243 185.056 30.1992 185.056C34.074 185.056 37.2304 188.211 37.2304 192.085C37.2304 195.958 34.0801 199.114 30.1992 199.114ZM30.1992 186.799C27.2823 186.799 24.9119 189.169 24.9119 192.085C24.9119 195.001 27.2823 197.37 30.1992 197.37C33.116 197.37 35.4864 195.001 35.4864 192.085C35.4864 189.169 33.116 186.799 30.1992 186.799Z" fill="#231F20"/>
</g>
<defs>
<clipPath id="clip0_2_10279">
<rect width="290.133" height="199.111" fill="white"/>
</clipPath>
</defs>
</svg>
