<svg width="95" height="94" viewBox="0 0 95 94" fill="none" xmlns="http://www.w3.org/2000/svg">
<g clip-path="url(#clip0_11663_1038)">
<mask id="mask0_11663_1038" style="mask-type:luminance" maskUnits="userSpaceOnUse" x="0" y="0" width="95" height="94">
<path d="M94.5 0H0.5V94H94.5V0Z" fill="white"/>
</mask>
<g mask="url(#mask0_11663_1038)">
<path opacity="0.1" d="M47.5605 94.1133C73.5179 94.1133 94.5605 73.0707 94.5605 47.1133C94.5605 21.1559 73.5179 0.113281 47.5605 0.113281C21.6032 0.113281 0.560547 21.1559 0.560547 47.1133C0.560547 73.0707 21.6032 94.1133 47.5605 94.1133Z" fill="#25536A"/>
<path d="M68.4448 37.5439C68.446 39.0035 68.1582 40.4489 67.5978 41.7966C67.0375 43.1444 66.2158 44.3678 65.1801 45.3963L59.1414 51.435C57.0609 53.5133 54.2404 54.6807 51.2997 54.6807C48.3589 54.6807 45.5385 53.5133 43.4579 51.435C43.2866 51.2797 43.1485 51.0912 43.0522 50.881C42.9559 50.6708 42.9033 50.4432 42.8976 50.212C42.8919 49.9808 42.9332 49.7509 43.0191 49.5362C43.105 49.3215 43.2336 49.1264 43.3971 48.9629C43.5606 48.7994 43.7556 48.6708 43.9703 48.5849C44.185 48.4991 44.415 48.4577 44.6461 48.4634C44.8773 48.4691 45.1049 48.5217 45.3152 48.6181C45.5254 48.7144 45.7139 48.8524 45.8691 49.0238C47.3124 50.4584 49.2647 51.2636 51.2997 51.2636C53.3346 51.2636 55.2869 50.4584 56.7302 49.0238L62.7689 42.9851C63.5073 42.2777 64.097 41.4299 64.5035 40.4915C64.91 39.5531 65.125 38.5431 65.136 37.5205C65.1469 36.4979 64.9536 35.4835 64.5673 34.5366C64.181 33.5897 63.6096 32.7295 62.8865 32.0064C62.1634 31.2833 61.3032 30.7119 60.3563 30.3256C59.4094 29.9393 58.395 29.746 57.3724 29.7569C56.3498 29.7679 55.3398 29.9829 54.4014 30.3894C53.463 30.7959 52.6152 31.3856 51.9078 32.124L47.6829 36.349C47.3581 36.6432 46.9327 36.8013 46.4947 36.7905C46.0566 36.7797 45.6395 36.6009 45.3296 36.291C45.0198 35.9812 44.8409 35.564 44.8301 35.126C44.8194 34.6879 44.9774 34.2625 45.2717 33.9378L49.4966 29.7128C51.0511 28.1701 53.0266 27.1208 55.1753 26.6967C57.3239 26.2727 59.55 26.4927 61.574 27.3292C63.5981 28.1658 65.33 29.5815 66.5523 31.3988C67.7747 33.216 68.433 35.3538 68.4448 37.5439ZM47.6829 58.0711L43.4579 62.296C42.0074 63.6857 40.0702 64.4519 38.0615 64.4304C36.0528 64.4088 34.1324 63.6013 32.712 62.1809C31.2916 60.7605 30.4841 58.8401 30.4625 56.8314C30.441 54.8227 31.2072 52.8855 32.5969 51.435L38.6355 45.3963C40.0788 43.9617 42.0311 43.1564 44.0661 43.1564C46.101 43.1564 48.0534 43.9617 49.4966 45.3963C49.8213 45.6905 50.2468 45.8486 50.6848 45.8378C51.1229 45.827 51.54 45.6482 51.8499 45.3384C52.1597 45.0285 52.3385 44.6114 52.3493 44.1733C52.3601 43.7353 52.202 43.3098 51.9078 42.9851C49.8273 40.9068 47.0068 39.7394 44.0661 39.7394C41.1253 39.7394 38.3049 40.9068 36.2243 42.9851L30.1857 49.0238C29.1001 50.0408 28.23 51.2657 27.6273 52.6257C27.0246 53.9857 26.7015 55.453 26.6773 56.9404C26.653 58.4278 26.9281 59.9049 27.4861 61.2838C28.0442 62.6627 28.8738 63.9154 29.9257 64.9672C30.9775 66.0191 32.2302 66.8487 33.6091 67.4068C34.988 67.9648 36.4651 68.2399 37.9525 68.2156C39.4399 68.1914 40.9072 67.8683 42.2672 67.2656C43.6272 66.6629 44.8521 65.7928 45.8691 64.7072L50.0941 60.4823C50.3883 60.1576 50.5464 59.7321 50.5356 59.2941C50.5248 58.856 50.346 58.4389 50.0361 58.129C49.7263 57.8192 49.3091 57.6404 48.8711 57.6296C48.433 57.6188 48.0076 57.7769 47.6829 58.0711Z" fill="#25536A"/>
</g>
</g>
<defs>
<clipPath id="clip0_11663_1038">
<rect width="95" height="94" fill="white"/>
</clipPath>
</defs>
</svg>
