<svg width="94" height="94" viewBox="0 0 94 94" fill="none" xmlns="http://www.w3.org/2000/svg">
<circle opacity="0.1" cx="46.8976" cy="46.9503" r="46.837" fill="#614B98"/>
<path d="M46.8967 5.81641C40.0934 5.81641 33.3952 7.49422 27.3953 10.7012C21.3954 13.9083 16.279 18.5455 12.4993 24.2022C8.71966 29.8588 6.39338 36.3603 5.72655 43.1308C5.05972 49.9013 6.07291 56.7317 8.67639 63.0171C11.2799 69.3024 15.3933 74.8487 20.6522 79.1646C25.9112 83.4805 32.1534 86.4329 38.8259 87.7601C45.4984 89.0874 52.3952 88.7485 58.9055 86.7737C65.4158 84.7988 71.3386 81.2488 76.1492 76.4382L72.6751 72.9642C68.4358 77.2035 63.2165 80.3319 57.4794 82.0722C51.7422 83.8125 45.6645 84.1111 39.7844 82.9415C33.9043 81.7719 28.4034 79.1702 23.769 75.3668C19.1346 71.5634 15.5097 66.6758 13.2154 61.1369C10.9211 55.598 10.0283 49.5788 10.6159 43.6124C11.2035 37.646 13.2536 31.9166 16.5844 26.9317C19.9151 21.9468 24.4239 17.8603 29.7113 15.0341C34.9986 12.208 40.9014 10.7294 46.8967 10.7294V5.81641Z" fill="#57A1D7"/>
<path d="M67.7101 37.4137C67.7113 38.8683 67.4245 40.3086 66.8661 41.6517C66.3077 42.9948 65.4888 44.214 64.4567 45.2389L58.439 51.2566C56.3657 53.3277 53.555 54.4911 50.6244 54.4911C47.6939 54.4911 44.8832 53.3277 42.8099 51.2566C42.6391 51.1019 42.5016 50.9141 42.4056 50.7046C42.3096 50.4951 42.2572 50.2683 42.2515 50.0379C42.2458 49.8075 42.287 49.5784 42.3726 49.3644C42.4581 49.1504 42.5863 48.9561 42.7492 48.7931C42.9122 48.6302 43.1065 48.502 43.3205 48.4165C43.5345 48.3309 43.7636 48.2897 43.994 48.2954C44.2244 48.3011 44.4512 48.3535 44.6607 48.4495C44.8702 48.5455 45.058 48.683 45.2127 48.8538C46.651 50.2834 48.5965 51.0859 50.6244 51.0859C52.6524 51.0859 54.5979 50.2834 56.0361 48.8538L62.0539 42.8361C62.7897 42.1311 63.3774 41.2862 63.7825 40.3511C64.1876 39.416 64.4018 38.4094 64.4128 37.3904C64.4237 36.3714 64.231 35.3604 63.8461 34.4168C63.4611 33.4733 62.8917 32.616 62.1711 31.8954C61.4505 31.1748 60.5933 30.6054 59.6497 30.2204C58.7061 29.8355 57.6951 29.6428 56.6761 29.6538C55.6571 29.6647 54.6505 29.879 53.7154 30.284C52.7803 30.6891 51.9355 31.2768 51.2305 32.0127L47.0202 36.2229C46.6966 36.5161 46.2726 36.6737 45.8361 36.6629C45.3995 36.6522 44.9839 36.474 44.6751 36.1652C44.3663 35.8564 44.1881 35.4407 44.1773 35.0042C44.1666 34.5677 44.3241 34.1437 44.6173 33.8201L48.8276 29.6098C50.3767 28.0724 52.3454 27.0268 54.4866 26.6042C56.6278 26.1816 58.8461 26.4009 60.8632 27.2345C62.8802 28.0681 64.6061 29.4789 65.8242 31.2899C67.0423 33.1008 67.6984 35.2312 67.7101 37.4137ZM47.0202 57.8697L42.8099 62.08C41.3644 63.4649 39.4339 64.2284 37.4322 64.207C35.4304 64.1855 33.5167 63.3808 32.1012 61.9653C30.6857 60.5498 29.881 58.6361 29.8596 56.6344C29.8381 54.6326 30.6016 52.7021 31.9865 51.2566L38.0042 45.2389C39.4425 43.8092 41.388 43.0068 43.4159 43.0068C45.4438 43.0068 47.3894 43.8092 48.8276 45.2389C49.1512 45.5321 49.5752 45.6896 50.0117 45.6789C50.4483 45.6681 50.8639 45.4899 51.1727 45.1812C51.4815 44.8724 51.6597 44.4567 51.6705 44.0202C51.6812 43.5836 51.5237 43.1597 51.2305 42.8361C49.1572 40.765 46.3465 39.6016 43.4159 39.6016C40.4854 39.6016 37.6747 40.765 35.6014 42.8361L29.5837 48.8538C28.5018 49.8673 27.6348 51.088 27.0342 52.4432C26.4335 53.7985 26.1116 55.2608 26.0874 56.743C26.0632 58.2252 26.3374 59.6971 26.8935 61.0713C27.4496 62.4454 28.2763 63.6937 29.3245 64.742C30.3728 65.7902 31.6211 66.6169 32.9952 67.173C34.3694 67.7292 35.8413 68.0033 37.3235 67.9791C38.8058 67.9549 40.268 67.633 41.6233 67.0323C42.9786 66.4317 44.1992 65.5647 45.2127 64.4829L49.423 60.2726C49.7162 59.949 49.8738 59.525 49.863 59.0885C49.8523 58.6519 49.6741 58.2363 49.3653 57.9275C49.0565 57.6187 48.6408 57.4405 48.2043 57.4297C47.7677 57.419 47.3438 57.5765 47.0202 57.8697Z" fill="url(#paint0_linear_2_26739)"/>
<defs>
<linearGradient id="paint0_linear_2_26739" x1="75.4522" y1="16.4971" x2="7.12955" y2="88.4618" gradientUnits="userSpaceOnUse">
<stop offset="0.163" stop-color="#6533E2"/>
<stop offset="0.334" stop-color="#7349DE"/>
<stop offset="0.715" stop-color="#1F97EF"/>
<stop offset="1" stop-color="#57A1D7"/>
</linearGradient>
</defs>
</svg>
