<svg width="129" height="44" viewBox="0 0 129 44" fill="none" xmlns="http://www.w3.org/2000/svg">
<g clip-path="url(#clip0_214_12792)">
<path d="M125.496 27.003H128.996C128.051 30.4377 125.394 31.4266 123.018 31.4266C119.135 31.4266 116.605 28.7984 116.605 24.6871C116.605 19.8993 119.748 17.9998 122.84 17.9998C126.774 17.9998 128.945 20.8881 128.945 24.7652V25.4157H120.131C120.335 27.6275 121.459 28.5902 123.018 28.5902C124.525 28.5902 125.19 27.9137 125.496 27.003ZM122.84 20.6799C121.587 20.6799 120.54 21.3825 120.208 23.256H125.292C125.164 21.4866 124.245 20.6799 122.84 20.6799Z" fill="black"/>
<path d="M102.928 31.1143V18.286H106.172V19.8472C107.041 18.5983 108.242 17.9998 109.775 17.9998C112.866 17.9998 114.399 19.6131 114.399 23.4902V31.1143H110.976V23.7764C110.976 21.6947 110.26 20.9922 108.83 20.9922C107.246 20.9922 106.377 22.085 106.377 24.1407V31.1143H102.928Z" fill="black"/>
<path d="M94.3 31.4266C90.4937 31.4266 87.9902 28.7984 87.9902 24.6871C87.9902 20.6279 90.4937 17.9998 94.3 17.9998C98.1322 17.9998 100.611 20.6279 100.611 24.6871C100.611 28.7984 98.1322 31.4266 94.3 31.4266ZM94.3 28.4862C96.0888 28.4862 97.162 27.107 97.162 24.6871C97.162 22.2672 96.0888 20.9141 94.3 20.9141C92.4863 20.9141 91.4139 22.2672 91.4139 24.6871C91.4139 27.107 92.4863 28.4862 94.3 28.4862Z" fill="black"/>
<path d="M81.2306 31.1142V21.2003H79.5703V18.286H81.2306V16.2824C81.2306 13.8364 82.8405 12.5874 85.2416 12.5874C85.9571 12.5874 86.5961 12.6915 87.2343 12.8736V15.7619C86.8515 15.6318 86.4938 15.5798 86.1102 15.5798C85.1909 15.5798 84.6543 15.866 84.6543 16.9849V18.286H87.1069V21.2003H84.6543V31.1142H81.2306Z" fill="black"/>
<path d="M75.0996 27.003H78.5997C77.6544 30.4377 74.9974 31.4266 72.6215 31.4266C68.7382 31.4266 66.209 28.7984 66.209 24.6871C66.209 19.8993 69.3514 17.9998 72.4426 17.9998C76.377 17.9998 78.5485 20.8881 78.5485 24.7652V25.4157H69.7346C69.9389 27.6275 71.063 28.5902 72.6215 28.5902C74.1288 28.5902 74.793 27.9137 75.0996 27.003ZM72.4426 20.6799C71.1908 20.6799 70.1434 21.3825 69.8112 23.256H74.8953C74.7675 21.4866 73.8478 20.6799 72.4426 20.6799Z" fill="black"/>
<path d="M58.9522 31.4265C57.4194 31.4265 56.2442 30.9061 55.35 29.7612V31.1142H52.1055V12.8997H55.5544V19.613C56.4485 18.4941 57.5726 17.9998 58.9778 17.9998C62.4011 17.9998 64.6238 20.6278 64.6238 24.6871C64.6238 28.7984 62.4011 31.4265 58.9522 31.4265ZM58.3135 28.4861C60.1274 28.4861 61.2004 27.1071 61.2004 24.6871C61.2004 22.2672 60.1274 20.9141 58.3135 20.9141C56.5251 20.9141 55.4522 22.2672 55.4522 24.6871C55.4522 27.1071 56.5251 28.4861 58.3135 28.4861Z" fill="black"/>
<path d="M41.7014 31.4265C37.0005 31.4265 34.3691 28.6683 34.3691 23.8024V12.8997H37.9458V23.6722C37.9458 26.7167 39.2744 28.0438 41.6503 28.0438C44.0262 28.0438 45.3547 26.7167 45.3547 23.6722V12.8997H48.9314V23.8024C48.9314 28.6683 46.3255 31.4265 41.7014 31.4265Z" fill="black"/>
<path fill-rule="evenodd" clip-rule="evenodd" d="M15.04 20.2576C15.04 20.2576 22.5646 21.0214 24.8495 18.6942C27.1344 16.3669 27.1344 12.5937 24.8495 10.2664C22.5646 7.93918 18.86 7.93918 16.5751 10.2664C14.2901 12.5937 15.04 20.2576 15.04 20.2576ZM11.6013 20.2579C11.6013 20.2579 12.3513 12.594 10.0663 10.2667C7.7814 7.93945 4.07677 7.93945 1.79183 10.2667C-0.49311 12.594 -0.49311 16.3672 1.79183 18.6944C4.07677 21.0218 11.6013 20.2579 11.6013 20.2579ZM16.5773 33.7475C14.2924 31.4203 15.0424 23.7564 15.0424 23.7564C15.0424 23.7564 22.5669 22.9926 24.8518 25.3198C27.1368 27.6471 27.1368 31.4203 24.8518 33.7475C22.5669 36.0748 18.8623 36.0748 16.5773 33.7475ZM11.6063 23.7566C11.6063 23.7566 4.08183 22.9928 1.79689 25.3201C-0.488057 27.6473 -0.488057 31.4206 1.79689 33.7479C4.08183 36.0751 7.78645 36.0751 10.0714 33.7479C12.3563 31.4206 11.6063 23.7566 11.6063 23.7566Z" fill="#17A9E8"/>
</g>
<defs>
<clipPath id="clip0_214_12792">
<rect width="129" height="27" fill="white" transform="translate(0 8.5)"/>
</clipPath>
</defs>
</svg>
