<svg width="42" height="50" viewBox="0 0 42 50" fill="none" xmlns="http://www.w3.org/2000/svg">
<path d="M6.11772 7.8916C6.11772 13.8082 6.05341 19.0932 6.13166 24.3727C6.15845 26.8696 6.68308 29.3349 7.67397 31.6206C8.66485 33.9062 10.1015 35.9647 11.8973 37.672C13.6931 39.3794 15.8111 40.7004 18.1235 41.5554C20.4359 42.4103 22.895 42.7816 25.3525 42.6468C29.9316 42.4179 33.8251 40.4926 37.3292 37.3136L41.2919 41.6872C35.8381 48.5855 20.7637 53.2483 8.79066 43.2216C6.28154 41.1122 4.21649 38.512 2.71847 35.576C1.22046 32.64 0.320112 29.4282 0.0710477 26.1318C-0.178016 22.8355 0.229295 19.522 1.26873 16.3886C2.30815 13.2554 3.95846 10.3663 6.12135 7.89346" fill="white"/>
<path d="M18.2876 0V17.845H30.3207V24.1475H18.5563C18.7656 29.7046 23.3915 31.7289 29.3846 28.3382C29.8805 29.0599 30.4339 29.7392 31.0389 30.3693C31.6379 31.1077 32.3071 31.7845 33.0368 32.3899C31.5871 34.1842 29.6356 35.4907 27.4394 36.1373C25.2432 36.7838 22.9054 36.7402 20.7342 36.0119C15.9817 34.528 12.3186 30.0209 12.1967 24.9531C12.0293 17.9983 12.1172 11.0348 12.1742 4.07627C12.1839 3.71928 12.2709 3.36881 12.429 3.04971C12.5871 2.73062 12.8125 2.45072 13.0891 2.22987C14.6173 1.40267 16.2813 0.833966 18.2876 0Z" fill="white"/>
</svg>
