<svg width="295" height="99" viewBox="0 0 295 99" fill="none" xmlns="http://www.w3.org/2000/svg">
<g clip-path="url(#clip0_214_12790)">
<path d="M286.987 60.8151H294.992C292.83 68.5833 286.753 70.8196 281.321 70.8196C272.44 70.8196 266.656 64.8758 266.656 55.5775C266.656 44.7491 273.842 40.4531 280.912 40.4531C289.91 40.4531 294.876 46.9855 294.876 55.7541V57.2253H274.719C275.186 62.2276 277.756 64.4049 281.321 64.4049C284.767 64.4049 286.287 62.8748 286.987 60.8151ZM280.912 46.5146C278.049 46.5146 275.654 48.1036 274.894 52.3408H286.521C286.228 48.3391 284.126 46.5146 280.912 46.5146Z" fill="white"/>
<path d="M235.375 70.1134V41.1005H242.795V44.6315C244.781 41.8067 247.527 40.4531 251.033 40.4531C258.102 40.4531 261.608 44.1019 261.608 52.8705V70.1134H253.779V53.5179C253.779 48.8098 252.143 47.2209 248.872 47.2209C245.249 47.2209 243.263 49.6926 243.263 54.3418V70.1134H235.375Z" fill="white"/>
<path d="M215.646 70.8196C206.942 70.8196 201.217 64.8758 201.217 55.5775C201.217 46.3969 206.942 40.4531 215.646 40.4531C224.41 40.4531 230.077 46.3969 230.077 55.5775C230.077 64.8758 224.41 70.8196 215.646 70.8196ZM215.646 64.1696C219.737 64.1696 222.191 61.0505 222.191 55.5775C222.191 50.1046 219.737 47.0443 215.646 47.0443C211.498 47.0443 209.046 50.1046 209.046 55.5775C209.046 61.0505 211.498 64.1696 215.646 64.1696Z" fill="white"/>
<path d="M185.758 70.1133V47.6917H181.961V41.1004H185.758V36.5691C185.758 31.0372 189.439 28.2124 194.93 28.2124C196.566 28.2124 198.028 28.4478 199.487 28.8598V35.3921C198.612 35.0978 197.794 34.9801 196.917 34.9801C194.814 34.9801 193.587 35.6275 193.587 38.158V41.1004H199.196V47.6917H193.587V70.1133H185.758Z" fill="white"/>
<path d="M171.739 60.8151H179.743C177.582 68.5833 171.506 70.8196 166.073 70.8196C157.192 70.8196 151.408 64.8758 151.408 55.5775C151.408 44.7491 158.594 40.4531 165.663 40.4531C174.661 40.4531 179.626 46.9855 179.626 55.7541V57.2253H159.471C159.938 62.2276 162.509 64.4049 166.073 64.4049C169.519 64.4049 171.038 62.8748 171.739 60.8151ZM165.663 46.5146C162.801 46.5146 160.405 48.1036 159.646 52.3408H171.272C170.98 48.3391 168.877 46.5146 165.663 46.5146Z" fill="white"/>
<path d="M134.815 70.8196C131.31 70.8196 128.623 69.6427 126.578 67.0533V70.1134H119.158V28.9187H127.045V44.1019C129.09 41.5714 131.661 40.4533 134.874 40.4533C142.703 40.4533 147.785 46.3969 147.785 55.5775C147.785 64.8758 142.703 70.8196 134.815 70.8196ZM133.355 64.1696C137.503 64.1696 139.957 61.0507 139.957 55.5775C139.957 50.1046 137.503 47.0443 133.355 47.0443C129.265 47.0443 126.812 50.1046 126.812 55.5775C126.812 61.0507 129.265 64.1696 133.355 64.1696Z" fill="white"/>
<path d="M95.3612 70.8196C84.6113 70.8196 78.5938 64.5816 78.5938 53.5767V28.9187H86.773V53.2823C86.773 60.1677 89.8111 63.1692 95.2444 63.1692C100.678 63.1692 103.716 60.1677 103.716 53.2823V28.9187H111.895V53.5767C111.895 64.5816 105.936 70.8196 95.3612 70.8196Z" fill="white"/>
<path fill-rule="evenodd" clip-rule="evenodd" d="M34.391 45.5591C34.391 45.5591 51.5983 47.2866 56.8235 42.0232C62.0488 36.7598 62.0488 28.2261 56.8235 22.9627C51.5983 17.6993 43.1266 17.6993 37.9013 22.9627C32.6761 28.2261 34.391 45.5591 34.391 45.5591ZM26.5273 45.5597C26.5273 45.5597 28.2422 28.2267 23.017 22.9633C17.7918 17.6999 9.31998 17.6999 4.09472 22.9633C-1.13053 28.2267 -1.13053 36.7604 4.09472 42.0237C9.31998 47.2873 26.5273 45.5597 26.5273 45.5597ZM37.9065 76.0684C32.6813 70.805 34.3963 53.472 34.3963 53.472C34.3963 53.472 51.6036 51.7446 56.8289 57.008C62.0541 62.2714 62.0541 70.805 56.8289 76.0684C51.6036 81.3318 43.1317 81.3318 37.9065 76.0684ZM26.5388 53.4726C26.5388 53.4726 9.33155 51.7452 4.10629 57.0086C-1.11898 62.272 -1.11898 70.8057 4.10629 76.0691C9.33153 81.3325 17.8034 81.3325 23.0286 76.0691C28.2539 70.8057 26.5388 53.4726 26.5388 53.4726Z" fill="white"/>
</g>
<defs>
<clipPath id="clip0_214_12790">
<rect width="295" height="61.0641" fill="white" transform="translate(0 18.968)"/>
</clipPath>
</defs>
</svg>
