<svg width="129" height="43" viewBox="0 0 129 43" fill="none" xmlns="http://www.w3.org/2000/svg">
<g clip-path="url(#clip0_15_2417)">
<path d="M35.2984 23.7747V26.3629C35.3369 26.8737 35.1805 27.38 34.8616 27.7771C34.7205 27.9313 34.5485 28.0531 34.3572 28.1343C34.1659 28.2155 33.9597 28.2543 33.7524 28.2481C33.548 28.2539 33.3449 28.2141 33.1572 28.1315C32.9696 28.0491 32.8021 27.9259 32.6664 27.7706C32.3572 27.3714 32.2065 26.8693 32.2439 26.3629V17.7355C32.2439 16.3423 32.74 15.6456 33.7323 15.6456C33.9409 15.6268 34.1508 15.6616 34.3426 15.7469C34.5344 15.8322 34.7018 15.9653 34.8294 16.1339C35.0836 16.57 35.2117 17.0698 35.1991 17.5764C35.4901 17.0339 35.8704 16.5461 36.3236 16.1339C36.7627 15.79 37.3084 15.6169 37.8623 15.6456C38.5156 15.6487 39.158 15.8164 39.7315 16.1339C39.9898 16.2377 40.2127 16.4153 40.3736 16.645C40.5344 16.8748 40.6263 17.1469 40.6379 17.4284C40.643 17.6034 40.6113 17.7776 40.5447 17.9391C40.4781 18.1007 40.3782 18.2459 40.2518 18.3651C40.0326 18.5947 39.7332 18.7273 39.4183 18.7344C39.1411 18.6945 38.869 18.6238 38.607 18.5237C38.2411 18.3955 37.8579 18.3248 37.4709 18.3142C37.075 18.297 36.6862 18.4238 36.3743 18.6717C36.0612 18.9563 35.8324 19.3239 35.7141 19.7333C35.5427 20.2769 35.4336 20.8388 35.3893 21.4078C35.3298 22.0548 35.2999 22.8439 35.2999 23.7753" fill="#614B98"/>
<path d="M49.4579 26.5014C48.8037 27.0328 48.083 27.4738 47.3144 27.8126C46.576 28.1135 45.7859 28.2621 44.9904 28.2499C44.2746 28.2656 43.5659 28.104 42.9257 27.7788C42.3596 27.491 41.884 27.0486 41.5524 26.5014C41.2347 25.9753 41.0681 25.3698 41.0712 24.7529C41.0527 23.9539 41.3362 23.178 41.8634 22.5842C42.4453 21.9568 43.21 21.535 44.0454 21.3806C44.2398 21.3353 44.7211 21.2333 45.4895 21.0747C46.2578 20.9161 46.9164 20.7703 47.4649 20.6374C48.0132 20.5048 48.6082 20.3441 49.2497 20.1552C49.2653 19.5198 49.096 18.8939 48.7627 18.3557C48.4757 17.9734 47.8808 17.7823 46.978 17.7823C46.3765 17.7467 45.7754 17.8598 45.2265 18.1119C44.8149 18.3507 44.4688 18.6903 44.2197 19.0995C43.938 19.5382 43.7403 19.8277 43.6266 19.9682C43.5233 20.0527 43.404 20.1148 43.2761 20.1509C43.1482 20.1869 43.0144 20.196 42.8829 20.1776C42.556 20.182 42.2393 20.0616 41.996 19.8401C41.8746 19.7345 41.7779 19.6027 41.713 19.4544C41.6481 19.3061 41.6166 19.1449 41.621 18.9827C41.6331 18.4034 41.8338 17.8446 42.192 17.3933C42.6608 16.814 43.2755 16.3745 43.9709 16.1217C44.9338 15.7612 45.9558 15.5917 46.9816 15.6223C48.0586 15.5781 49.134 15.7417 50.1508 16.1045C50.8685 16.379 51.4524 16.9265 51.7787 17.6307C52.1292 18.5096 52.2912 19.4542 52.254 20.4016C52.254 21.1286 52.2523 21.7454 52.2488 22.2519C52.2453 22.7586 52.2396 23.3226 52.2319 23.9442C52.2373 24.5625 52.3334 25.1766 52.5171 25.7662C52.6558 26.1611 52.7514 26.5703 52.8023 26.9864C52.7967 27.1553 52.7541 27.3207 52.6777 27.471C52.6014 27.6212 52.4931 27.7523 52.3608 27.855C52.0867 28.1089 51.7284 28.2489 51.3572 28.2473C51.0014 28.2276 50.6677 28.0662 50.4287 27.7981C50.0526 27.4074 49.7256 26.971 49.4552 26.4987M49.2539 22.014C48.6147 22.2333 47.9618 22.4096 47.2997 22.5419C46.4457 22.7273 45.8545 22.8636 45.526 22.9507C45.1789 23.0479 44.8576 23.2226 44.5858 23.462C44.4361 23.5923 44.3179 23.7558 44.2403 23.94C44.1628 24.124 44.1279 24.3236 44.1384 24.5235C44.1361 24.75 44.1822 24.9743 44.2733 25.181C44.3644 25.3877 44.4986 25.572 44.6666 25.7212C45.0448 26.0607 45.5385 26.2377 46.0431 26.2147C46.6246 26.2203 47.1987 26.0822 47.7159 25.8123C48.1827 25.5851 48.5737 25.224 48.8404 24.7737C49.1682 24.0491 49.3106 23.2525 49.2545 22.4572L49.2539 22.014Z" fill="#614B98"/>
<path d="M66.2859 17.9203V26.9228C66.3028 27.8196 66.1937 28.7142 65.9617 29.5797C65.7732 30.2719 65.4153 30.9045 64.9211 31.4188C64.3948 31.9316 63.7501 32.3024 63.046 32.4975C62.107 32.7534 61.1368 32.8719 60.1648 32.8495C59.2064 32.8648 58.2526 32.7131 57.3447 32.401C56.6272 32.1703 55.9721 31.7739 55.4311 31.243C55.026 30.8659 54.7845 30.3415 54.7593 29.7844C54.7534 29.6115 54.7843 29.4393 54.8499 29.2796C54.9156 29.1199 55.0144 28.9765 55.1395 28.859C55.3875 28.6226 55.7168 28.4942 56.057 28.501C56.285 28.5044 56.5093 28.5603 56.713 28.6645C56.9165 28.7688 57.0941 28.9187 57.2322 29.1027C57.3963 29.3068 57.566 29.5131 57.7414 29.7217C57.911 29.9254 58.1064 30.1056 58.3224 30.2575C58.556 30.4141 58.8159 30.5256 59.0894 30.5866C59.4272 30.6626 59.7727 30.6985 60.1188 30.6937C60.7494 30.7251 61.3789 30.6106 61.9596 30.3588C62.3655 30.1672 62.6909 29.8351 62.8776 29.4222C63.0544 29.0143 63.1587 28.578 63.1854 28.1333C63.2147 27.6754 63.2371 26.9394 63.2525 25.9256C62.8281 26.5492 62.2718 27.0687 61.6242 27.4464C60.9477 27.8095 60.1903 27.9892 59.4253 27.9683C58.4725 27.9893 57.5365 27.7118 56.7447 27.1736C55.9595 26.6183 55.3478 25.8461 54.9821 24.9487C54.5543 23.9025 54.3448 22.7777 54.3668 21.6451C54.3552 20.7904 54.4819 19.9396 54.7418 19.1265C54.9639 18.4248 55.3285 17.7781 55.8119 17.2279C56.2557 16.727 56.8016 16.33 57.4118 16.0646C58.0426 15.798 58.7203 15.6648 59.4036 15.6729C60.1828 15.6531 60.9549 15.8263 61.6532 16.1777C62.349 16.5692 62.9523 17.1099 63.4211 17.7622V17.3421C63.393 16.8907 63.5329 16.445 63.813 16.093C63.9387 15.9488 64.0941 15.8342 64.2682 15.7578C64.4424 15.6813 64.6311 15.6446 64.8207 15.6504C65.0515 15.6204 65.2859 15.6598 65.4947 15.7637C65.7035 15.8677 65.8777 16.0316 65.9955 16.235C66.2164 16.7676 66.3159 17.3439 66.2865 17.9209M57.4345 21.8472C57.3621 22.8645 57.6495 23.8747 58.2453 24.6964C58.5 25.0082 58.8213 25.2571 59.1849 25.4242C59.5484 25.5913 59.9448 25.6722 60.3438 25.6609C60.8518 25.6609 61.3498 25.5175 61.782 25.2467C62.2576 24.9433 62.6395 24.5105 62.8844 23.9976C63.1833 23.3661 63.3282 22.6711 63.3069 21.9709C63.3697 20.9208 63.0798 19.8802 62.4846 19.0188C62.2324 18.6808 61.9044 18.4088 61.5277 18.2253C61.151 18.0418 60.7366 17.9521 60.319 17.9637C59.9152 17.9509 59.5142 18.0358 59.1491 18.2115C58.7841 18.3872 58.4656 18.6485 58.2199 18.9738C57.6461 19.8143 57.3693 20.8269 57.4345 21.8472Z" fill="#614B98"/>
<path d="M80.2428 21.9495C80.2523 22.8198 80.1093 23.6849 79.8203 24.5045C79.5544 25.2551 79.1348 25.9402 78.589 26.5144C78.0454 27.0777 77.389 27.5163 76.6643 27.8006C75.8604 28.1099 75.0061 28.2621 74.1464 28.2491C73.2934 28.2624 72.4459 28.1081 71.6507 27.7946C70.9252 27.5026 70.2693 27.0576 69.7263 26.489C69.1832 25.9204 68.7654 25.2412 68.5006 24.4964C68.2124 23.6788 68.0702 22.8156 68.0806 21.9473C68.0706 21.0695 68.2145 20.1969 68.5058 19.3704C68.7689 18.6244 69.1847 17.9436 69.726 17.3726C70.2692 16.8109 70.9258 16.3751 71.6507 16.0951C73.2699 15.4951 75.0464 15.497 76.6643 16.1004C77.3943 16.3852 78.0549 16.8269 78.6007 17.3953C79.1465 17.9636 79.5645 18.645 79.8261 19.3928C80.1136 20.2125 80.2556 21.0773 80.2455 21.9473M77.1792 21.9473C77.2419 20.8973 76.952 19.8567 76.3569 18.9952C76.0976 18.6538 75.7619 18.3799 75.3775 18.1964C74.993 18.0129 74.571 17.925 74.1464 17.9401C73.5851 17.9293 73.0342 18.0937 72.5681 18.4111C72.0879 18.7581 71.7215 19.2436 71.5165 19.8044C71.0261 21.1834 71.024 22.6927 71.5107 24.0731C71.716 24.6308 72.0779 25.1152 72.5518 25.4663C73.02 25.7935 73.5781 25.9623 74.1464 25.9486C74.5717 25.9634 74.9942 25.8746 75.3788 25.6899C75.7633 25.5051 76.0987 25.2296 76.3569 24.8865C76.9495 24.0304 77.2394 22.996 77.1792 21.9516" fill="#614B98"/>
<path d="M82.404 15.9225H83.1313V14.99C83.1007 14.203 83.2242 13.4177 83.4946 12.6794C83.7289 12.1163 84.1707 11.6683 84.7259 11.4308C85.4836 11.1374 86.2924 11.004 87.1027 11.0386C88.8856 11.0386 89.7771 11.4815 89.7775 12.3675C89.7826 12.6412 89.6822 12.906 89.4976 13.1054C89.4156 13.2016 89.3142 13.2786 89.2003 13.3314C89.0864 13.3842 88.9626 13.4115 88.8373 13.4114C88.6308 13.4024 88.425 13.3797 88.2215 13.3433C87.9769 13.3024 87.7298 13.2798 87.482 13.2759C86.9299 13.2759 86.5755 13.4403 86.4187 13.7693C86.2407 14.2178 86.1607 14.7001 86.1842 15.183V15.9225H86.9337C88.0979 15.9225 88.6799 16.2783 88.6799 16.9899C88.6799 17.4972 88.525 17.8188 88.2151 17.9544C87.8055 18.1079 87.3699 18.1772 86.9337 18.1586H86.1863V26.3665C86.2208 26.8722 86.0669 27.3727 85.7553 27.7688C85.6156 27.9268 85.4436 28.0517 85.2512 28.135C85.0589 28.2183 84.8509 28.258 84.6419 28.2511C84.438 28.2556 84.2357 28.2148 84.0491 28.1314C83.8626 28.0481 83.6962 27.9244 83.5617 27.7688C83.2499 27.3727 83.0961 26.8722 83.1307 26.3665V18.1576H82.2909C81.9151 18.182 81.5427 18.0714 81.2393 17.8452C81.1202 17.7478 81.0249 17.6239 80.9608 17.4831C80.8966 17.3423 80.8655 17.1884 80.8695 17.0333C80.8695 16.2913 81.3801 15.9203 82.4013 15.9203" fill="#57A1D7"/>
<path d="M101.417 21.9495C101.426 22.8198 101.284 23.685 100.994 24.5045C100.728 25.2552 100.308 25.9402 99.7625 26.5144C99.2195 27.0777 98.5631 27.5163 97.8382 27.8006C97.0338 28.11 96.18 28.2621 95.3198 28.2491C94.4669 28.2624 93.6195 28.108 92.8242 27.7946C92.0992 27.5026 91.4429 27.0576 90.9001 26.489C90.357 25.9204 89.9392 25.2412 89.6744 24.4964C89.3863 23.6788 89.244 22.8156 89.2544 21.9473C89.2444 21.0695 89.3884 20.1969 89.6797 19.3704C89.9425 18.6245 90.3582 17.9436 90.8993 17.3726C91.4429 16.8109 92.0992 16.3752 92.8242 16.0951C94.4431 15.4951 96.2193 15.497 97.8373 16.1004C98.5677 16.3853 99.2277 16.8271 99.7735 17.3954C100.319 17.9637 100.738 18.6451 100.999 19.3928C101.287 20.2125 101.429 21.0773 101.419 21.9473M98.3529 21.9473C98.4151 20.8973 98.1253 19.8567 97.5302 18.9952C97.2705 18.6537 96.9351 18.3799 96.5511 18.1963C96.1663 18.0128 95.7439 17.925 95.3198 17.9401C94.7585 17.9293 94.2073 18.0937 93.741 18.4111C93.2611 18.7582 92.8946 19.2436 92.6898 19.8044C92.1998 21.1834 92.1971 22.6926 92.6843 24.0731C92.8891 24.6308 93.2511 25.1153 93.7255 25.4663C94.1935 25.7935 94.7512 25.9622 95.3198 25.9486C95.7448 25.9634 96.1672 25.8747 96.552 25.69C96.9369 25.5052 97.2724 25.2297 97.5302 24.8865C98.1234 24.0304 98.4132 22.996 98.3529 21.9516" fill="#57A1D7"/>
<path d="M106.597 17.363V17.7381C107.061 17.0836 107.663 16.5425 108.359 16.154C109.041 15.807 109.796 15.6336 110.559 15.6487C111.312 15.6363 112.056 15.8208 112.719 16.1845C113.337 16.5237 113.834 17.052 114.14 17.6941C114.342 18.0756 114.475 18.4912 114.532 18.9207C114.598 19.478 114.628 20.0393 114.621 20.6006V26.366C114.658 26.8718 114.508 27.3732 114.202 27.7737C114.066 27.93 113.897 28.0538 113.708 28.1364C113.52 28.2189 113.315 28.2581 113.11 28.2512C112.901 28.2583 112.693 28.2181 112.501 28.1336C112.309 28.0491 112.138 27.9223 112 27.7625C111.694 27.3663 111.542 26.8688 111.575 26.366V21.2003C111.618 20.3963 111.474 19.5934 111.156 18.8558C110.876 18.315 110.318 18.0444 109.483 18.0441C108.947 18.0415 108.424 18.2148 107.994 18.5381C107.538 18.879 107.195 19.3523 107.009 19.8954C106.821 20.7441 106.746 21.6147 106.786 22.4837V26.3666C106.825 26.8763 106.67 27.3818 106.355 27.7807C106.214 27.9358 106.041 28.058 105.849 28.1394C105.657 28.2206 105.45 28.2589 105.241 28.2517C105.037 28.2571 104.832 28.216 104.644 28.1315C104.457 28.0469 104.29 27.9211 104.155 27.7631C103.849 27.3667 103.697 26.8693 103.73 26.3666V17.408C103.695 16.9348 103.83 16.4646 104.111 16.0855C104.242 15.9389 104.403 15.8237 104.583 15.748C104.763 15.6724 104.958 15.6383 105.153 15.6481C105.408 15.6447 105.659 15.7113 105.879 15.8411C106.104 15.9792 106.285 16.1802 106.4 16.4198C106.538 16.7137 106.605 17.0368 106.596 17.3624" fill="#57A1D7"/>
<path d="M126.194 22.7096H120.215C120.209 23.3553 120.353 23.9934 120.635 24.5723C120.866 25.0652 121.233 25.4802 121.69 25.7679C122.147 26.0556 122.676 26.2038 123.215 26.1948C123.553 26.1989 123.891 26.1551 124.219 26.0646C124.529 25.9735 124.826 25.8359 125.097 25.6563C125.372 25.4769 125.634 25.2774 125.88 25.0593C126.119 24.8482 126.429 24.5606 126.809 24.1966C127.001 24.0487 127.24 23.9761 127.48 23.9925C127.757 23.9798 128.029 24.0726 128.242 24.2528C128.34 24.3467 128.418 24.4614 128.468 24.5891C128.519 24.7167 128.541 24.8541 128.532 24.9912C128.51 25.3418 128.399 25.6804 128.208 25.9735C127.952 26.3927 127.619 26.7587 127.229 27.0522C126.732 27.429 126.176 27.7188 125.583 27.9096C124.848 28.1483 124.079 28.2634 123.306 28.2504C121.344 28.2504 119.818 27.6828 118.729 26.5475C118.168 25.926 117.734 25.1973 117.453 24.4039C117.172 23.6105 117.051 22.7684 117.095 21.9267C117.087 21.0602 117.224 20.1986 117.498 19.3781C117.746 18.6299 118.146 17.9432 118.673 17.3627C119.203 16.7923 119.853 16.3515 120.575 16.0739C121.376 15.7662 122.226 15.6141 123.081 15.6254C124.155 15.5947 125.217 15.8594 126.154 16.3912C126.964 16.8567 127.628 17.5437 128.073 18.3739C128.485 19.1326 128.704 19.9834 128.711 20.8496C128.711 21.6291 128.49 22.1342 128.051 22.365C127.466 22.6251 126.83 22.7436 126.192 22.7112M120.215 20.9498H125.754C125.752 20.082 125.453 19.2419 124.91 18.5716C124.661 18.3087 124.361 18.1023 124.028 17.9662C123.696 17.8301 123.337 17.7674 122.979 17.7822C122.628 17.7715 122.28 17.8373 121.956 17.9755C121.632 18.1137 121.342 18.3208 121.104 18.5829C120.562 19.2525 120.249 20.0836 120.215 20.9498Z" fill="#57A1D7"/>
<path d="M5.33228 6.87109C5.33228 12.0224 5.27629 16.6238 5.34442 21.2205C5.36775 23.3944 5.82452 25.5409 6.68724 27.5309C7.54996 29.5208 8.80077 31.3131 10.3643 32.7996C11.9279 34.2861 13.7719 35.4363 15.7852 36.1806C17.7985 36.925 19.9395 37.2482 22.0791 37.1309C26.066 36.9316 29.4559 35.2553 32.5067 32.4876L35.9569 36.2955C31.2085 42.3014 18.0839 46.3612 7.65949 37.6314C5.47492 35.7948 3.67697 33.5309 2.37271 30.9747C1.06846 28.4185 0.284566 25.622 0.0677174 22.752C-0.149131 19.8821 0.205496 16.9971 1.11049 14.2691C2.01547 11.5411 3.45231 9.02567 5.33545 6.87271" fill="#57A1D7"/>
<path d="M15.9286 0V15.5369H26.4053V21.0242H16.1626C16.3448 25.8625 20.3723 27.6249 25.5903 24.6728C26.0221 25.3011 26.5038 25.8926 27.0307 26.4412C27.5522 27.0841 28.1348 27.6733 28.7701 28.2004C27.5079 29.7627 25.8088 30.9002 23.8967 31.4631C21.9846 32.0261 19.9492 31.988 18.0588 31.354C13.921 30.062 10.7317 26.1379 10.6256 21.7256C10.4798 15.6704 10.5564 9.60751 10.606 3.54903C10.6144 3.23821 10.6902 2.93307 10.8278 2.65525C10.9654 2.37743 11.1617 2.13373 11.4025 1.94144C12.733 1.22124 14.1818 0.726098 15.9286 0Z" fill="#614B98"/>
</g>
<defs>
<clipPath id="clip0_15_2417">
<rect width="128.711" height="42.6667" fill="white"/>
</clipPath>
</defs>
</svg>
