<svg width="29" height="34" viewBox="0 0 29 34" fill="none" xmlns="http://www.w3.org/2000/svg">
<path fill-rule="evenodd" clip-rule="evenodd" d="M16.3537 15.1341C16.3537 15.1341 24.4682 15.9487 26.9322 13.4666C29.3963 10.9846 29.3963 6.96033 26.9322 4.47826C24.4682 1.99618 20.4731 1.99618 18.0091 4.47825C15.545 6.96033 16.3537 15.1341 16.3537 15.1341ZM12.6454 15.1344C12.6454 15.1344 13.4541 6.96062 10.99 4.47854C8.52597 1.99647 4.5309 1.99647 2.06681 4.47854C-0.39727 6.96062 -0.39727 10.9849 2.06681 13.4669C4.5309 15.9491 12.6454 15.1344 12.6454 15.1344ZM18.0115 29.5214C15.5474 27.0393 16.3562 18.8656 16.3562 18.8656C16.3562 18.8656 24.4707 18.051 26.9348 20.5331C29.3988 23.0151 29.3988 27.0393 26.9348 29.5214C24.4707 32.0035 20.4756 32.0035 18.0115 29.5214ZM12.6508 18.8659C12.6508 18.8659 4.53635 18.0513 2.07227 20.5333C-0.391821 23.0154 -0.391821 27.0397 2.07227 29.5218C4.53635 32.0038 8.53142 32.0038 10.9955 29.5218C13.4596 27.0397 12.6508 18.8659 12.6508 18.8659Z" fill="white"/>
</svg>
