<svg width="76" height="17" viewBox="0 0 76 17" fill="none" xmlns="http://www.w3.org/2000/svg">
<g clip-path="url(#clip0_240_12790)">
<path d="M70.8235 12.7688H73.523C72.794 15.378 70.7446 16.1291 68.9127 16.1291C65.9174 16.1291 63.9668 14.1327 63.9668 11.0096C63.9668 7.37262 66.3903 5.92969 68.7747 5.92969C71.8091 5.92969 73.4838 8.12377 73.4838 11.0689V11.5631H66.6861C66.8433 13.2432 67.7102 13.9746 68.9127 13.9746C70.0747 13.9746 70.5874 13.4606 70.8235 12.7688ZM68.7747 7.96561C67.809 7.96561 67.0012 8.49931 66.7452 9.92248H70.6663C70.5675 8.57842 69.8585 7.96561 68.7747 7.96561Z" fill="white"/>
<path d="M53.416 15.8919V6.14713H55.9185V7.3331C56.5884 6.38434 57.5143 5.92969 58.6968 5.92969C61.0806 5.92969 62.2632 7.15524 62.2632 10.1004V15.8919H59.6227V10.3178C59.6227 8.73651 59.0709 8.20281 57.9679 8.20281C56.7462 8.20281 56.0763 9.03301 56.0763 10.5946V15.8919H53.416Z" fill="white"/>
<path d="M46.7628 16.1291C43.8272 16.1291 41.8965 14.1327 41.8965 11.0096C41.8965 7.92608 43.8272 5.92969 46.7628 5.92969C49.7183 5.92969 51.6298 7.92608 51.6298 11.0096C51.6298 14.1327 49.7183 16.1291 46.7628 16.1291ZM46.7628 13.8955C48.1424 13.8955 48.9701 12.8479 48.9701 11.0096C48.9701 9.1714 48.1424 8.14353 46.7628 8.14353C45.364 8.14353 44.5369 9.1714 44.5369 11.0096C44.5369 12.8479 45.364 13.8955 46.7628 13.8955Z" fill="white"/>
<path d="M36.6848 15.8861V8.35515H35.4043V6.1413H36.6848V4.61931C36.6848 2.76128 37.9264 1.8125 39.7782 1.8125C40.33 1.8125 40.8228 1.89157 41.315 2.02993V4.22399C41.0198 4.12515 40.7439 4.08562 40.4481 4.08562C39.7391 4.08562 39.3252 4.30305 39.3252 5.15302V6.1413H41.2168V8.35515H39.3252V15.8861H36.6848Z" fill="white"/>
<path d="M31.9563 12.7688H34.6557C33.9267 15.378 31.8776 16.1291 30.0452 16.1291C27.0502 16.1291 25.0996 14.1327 25.0996 11.0096C25.0996 7.37262 27.5231 5.92969 29.9072 5.92969C32.9415 5.92969 34.6163 8.12377 34.6163 11.0689V11.5631H27.8187C27.9763 13.2432 28.8432 13.9746 30.0452 13.9746C31.2077 13.9746 31.7199 13.4606 31.9563 12.7688ZM29.9072 7.96561C28.9418 7.96561 28.1339 8.49931 27.8778 9.92248H31.7988C31.7002 8.57842 30.9909 7.96561 29.9072 7.96561Z" fill="white"/>
<path d="M19.5031 16.1283C18.3209 16.1283 17.4146 15.733 16.7249 14.8633V15.8911H14.2227V2.05469H16.8826V7.1544C17.5722 6.30444 18.4391 5.9289 19.5228 5.9289C22.163 5.9289 23.8772 7.92524 23.8772 11.0088C23.8772 14.1319 22.163 16.1283 19.5031 16.1283ZM19.0105 13.8947C20.4094 13.8947 21.237 12.8471 21.237 11.0088C21.237 9.17056 20.4094 8.14268 19.0105 8.14268C17.6313 8.14268 16.8038 9.17056 16.8038 11.0088C16.8038 12.8471 17.6313 13.8947 19.0105 13.8947Z" fill="white"/>
<path d="M6.19782 16.1283C2.5724 16.1283 0.542969 14.0331 0.542969 10.3368V2.05469H3.30145V10.2379C3.30145 12.5505 4.32604 13.5587 6.15842 13.5587C7.9908 13.5587 9.01539 12.5505 9.01539 10.2379V2.05469H11.7739V10.3368C11.7739 14.0331 9.76414 16.1283 6.19782 16.1283Z" fill="white"/>
</g>
<defs>
<clipPath id="clip0_240_12790">
<rect width="75" height="16" fill="white" transform="translate(0.542969 0.96875)"/>
</clipPath>
</defs>
</svg>
